<svg width="121" height="28" viewBox="0 0 121 28" fill="none" xmlns="http://www.w3.org/2000/svg">
<g clip-path="url(#clip0_1492_2)">
<path d="M68.6073 18.0352H67.0547V27.5529H68.6073V18.0352Z" fill="white"/>
<path d="M69.8467 18.0486V19.4702H72.1069V27.5528H73.6731V19.4702H75.9198V18.0486H69.8467Z" fill="white"/>
<path d="M82.7551 23.4237C82.3192 23.329 81.6792 23.2475 81.6657 22.6518C81.652 22.0291 82.3056 21.8397 82.7551 21.8397C83.2315 21.8397 83.6266 22.0155 84.0622 22.354L84.8793 21.4469C84.2122 20.7565 83.4359 20.5398 82.7279 20.5398C81.4477 20.5398 80.2222 21.2846 80.2222 22.6383C80.2358 23.9382 81.2845 24.4933 82.4283 24.6827C82.8911 24.7638 83.5994 24.967 83.5994 25.6304C83.5994 26.2125 82.9455 26.4022 82.4283 26.3751C81.8836 26.3346 81.3388 26.0232 80.9577 25.5357L80.0317 26.4293C80.6581 27.3093 81.5296 27.7018 82.4691 27.7018C83.5858 27.7018 85.0425 27.1602 85.0425 25.5898C85.0425 24.2496 83.9262 23.6407 82.7551 23.4237Z" fill="white"/>
<path d="M92.2055 21.6635C91.4295 20.9052 90.5988 20.5532 89.6321 20.5532C87.3307 20.5667 86.0644 22.2592 86.0508 24.1275C86.0508 25.996 87.2763 27.7017 89.6321 27.7017C90.5988 27.7017 91.5247 27.2686 92.2599 26.5373L91.4159 25.6303C90.776 26.1989 90.2992 26.3615 89.6321 26.3615C88.2566 26.3615 87.5215 25.3324 87.5215 24.1545C87.5351 22.6652 88.5562 21.8937 89.6185 21.9073C90.204 21.9073 90.8304 22.056 91.3751 22.5844L92.2055 21.6635Z" fill="white"/>
<path d="M93.7305 18.0757V27.5529H95.2147V22.3403C95.6507 22.0695 96.1818 21.8666 96.6718 21.8801C97.6249 21.9072 98.4692 22.4623 98.4692 23.5452V27.5529H99.9535V23.5452C99.9535 21.6499 98.6464 20.5802 96.8897 20.5802C96.4266 20.5802 95.7595 20.7293 95.2283 21.1759V18.0757H93.7305Z" fill="white"/>
<path d="M102.881 24.1274C102.881 22.6111 103.984 21.9072 105.005 21.9072C106.054 21.9072 107.116 22.6111 107.116 24.1274C107.116 25.6437 106.054 26.3749 105.005 26.3749C103.984 26.3749 102.881 25.6437 102.881 24.1274ZM108.6 24.1274C108.6 22.1238 107.089 20.5667 105.005 20.5667C102.936 20.5667 101.397 22.1238 101.397 24.1274C101.397 26.1177 102.936 27.7016 105.005 27.7016C107.089 27.7016 108.6 26.1177 108.6 24.1274Z" fill="white"/>
<path d="M111.228 24.1274C111.228 22.6111 112.331 21.9072 113.353 21.9072C114.401 21.9072 115.463 22.6111 115.463 24.1274C115.463 25.6437 114.401 26.3749 113.353 26.3749C112.331 26.3749 111.228 25.6437 111.228 24.1274ZM116.948 24.1274C116.948 22.1238 115.436 20.5667 113.353 20.5667C111.283 20.5667 109.744 22.1238 109.744 24.1274C109.744 26.1177 111.283 27.7016 113.353 27.7016C115.436 27.7016 116.948 26.1177 116.948 24.1274Z" fill="white"/>
<path d="M120.964 26.2394C120.134 26.3074 119.943 25.996 119.943 25.4409V18.0757H118.459V25.4409C118.459 27.0248 119.33 27.7422 120.964 27.5664V26.2394Z" fill="white"/>
<path d="M8.794 15.6231C9.93499 16.2332 10.5142 16.9748 10.5142 19.3423V27.6H13.7698V18.5877C13.7698 14.7519 11.6202 12.2511 8.01937 11.8998C6.79134 11.7894 5.76317 11.8895 4.68352 12.229C4.30476 12.3468 3.95595 12.5013 3.64708 12.6874L3.43771 12.8114V3.42773L3.30356 3.49664C3.02612 3.64207 2.51528 3.91151 1.71662 4.34873C0.434128 5.06798 0 5.93478 0 7.78319V27.6H3.43771V16.1219L3.4999 16.0816C5.10727 15.0363 7.33266 14.8441 8.794 15.6231Z" fill="white"/>
<path d="M42.23 18.7825L42.2419 18.6353C42.4353 16.1592 44.6888 15.0312 46.7006 15.0312C48.7196 15.0312 50.9915 16.1583 51.2127 18.6332L51.2266 18.7825H42.23ZM52.561 14.5546C51.1582 12.8855 49.1158 11.9666 46.8096 11.9666H46.7599C41.586 11.9969 38.8782 16.0231 38.8782 19.9831C38.8607 22.2152 39.6878 24.3333 41.1471 25.7951C42.5697 27.2195 44.5212 27.9721 46.7913 27.9721C49.486 27.9721 51.8097 26.7758 53.5094 24.5135L53.5687 24.4351L51.0859 22.8647L51.0359 22.9336C49.7812 24.6571 48.109 24.878 46.7913 24.878C44.2694 24.878 42.6612 23.1933 42.2336 21.6299L42.1856 21.457H54.2062L54.2201 21.3826C54.6931 18.8596 54.0878 16.3709 52.561 14.5546Z" fill="white"/>
<path d="M20.9876 10.791C20.709 10.9364 20.1982 11.2052 19.3998 11.643C18.117 12.3626 17.6841 13.2294 17.6841 15.0769V27.6H21.1227V10.7212L20.9876 10.791Z" fill="white"/>
<path d="M32.3911 27.5383V7.84308C32.3911 5.99558 32.8252 5.12881 34.1107 4.40747C34.9064 3.97139 35.4163 3.70291 35.695 3.55834L35.83 3.48828V27.5383H32.3911Z" fill="white"/>
<path d="M25.0381 27.5383V7.84308C25.0381 5.99558 25.4722 5.12881 26.7565 4.40747C27.5534 3.97139 28.0633 3.70291 28.3408 3.55834L28.4761 3.48828V27.5383H25.0381Z" fill="white"/>
<path d="M57.6157 27.5383V7.84308C57.6157 5.99558 58.0486 5.12881 59.3341 4.40747C60.1301 3.97139 60.6409 3.70291 60.9184 3.55834L61.0534 3.48828V27.5383H57.6157Z" fill="white"/>
<path d="M18.9804 9.61434C19.3949 9.35584 19.7855 9.16445 20.1 9.01166C20.6034 8.76611 21.0358 8.55354 21.3577 8.20669C22.9375 6.50638 22.5357 3.89424 22.5182 3.78384L22.4737 3.51416L22.3461 3.75617C22.3396 3.76912 21.6271 5.10403 20.3787 6.03058C20.2371 6.13452 20.063 6.25142 19.8578 6.38862C19.482 6.64066 19.013 6.95331 18.4482 7.39321C16.5921 8.8409 16.5708 11.2363 16.5708 11.3376V11.5952L16.7346 11.3947C16.7363 11.3909 17.373 10.618 18.9804 9.61434Z" fill="white"/>
<path d="M18.5865 4.7697C19.4379 4.23885 20.0419 3.82547 20.4343 3.40502C21.665 2.0801 21.3366 0.329175 21.3209 0.255577L21.2709 0L21.1498 0.229962C21.1459 0.238185 20.6055 1.25868 19.6395 1.97443C19.5359 2.05157 19.41 2.13635 19.2628 2.2347C18.965 2.43431 18.5892 2.68574 18.1533 3.02523C16.7162 4.1449 16.6987 6.00068 16.6987 6.079V6.3375L16.8625 6.13582C16.8651 6.13229 17.3389 5.54902 18.5865 4.7697Z" fill="white"/>
</g>
<defs>
<clipPath id="clip0_1492_2">
<rect width="121" height="28" fill="white"/>
</clipPath>
</defs>
</svg>
