<svg width="110" height="29" viewBox="0 0 110 29" fill="none" xmlns="http://www.w3.org/2000/svg">
<g clip-path="url(#clip0_1372_396)">
<path d="M4.85116 2.70581C4.85116 4.05349 3.76496 5.1438 2.42548 5.1438C1.0874 5.1438 0 4.05349 0 2.70581C0 1.36114 1.0874 0.268645 2.42548 0.268645C3.76496 0.268645 4.85116 1.36114 4.85116 2.70581Z" fill="white"/>
<path d="M19.5326 11.4668V18.1453C19.5326 19.2751 19.694 20.1431 20.0168 20.7551C19.5231 21.176 18.9422 21.3855 18.2765 21.3855C17.6301 21.3855 17.1867 21.2279 16.9514 20.9115C16.7125 20.5982 16.5906 20.1254 16.5906 19.4934V12.211C16.5906 11.2188 16.4654 10.5115 16.2071 10.0915C15.9519 9.67179 15.51 9.46027 14.8816 9.46027C14.2543 9.46027 13.6127 9.61816 12.9551 9.93266C12.2998 10.2498 11.7227 10.6852 11.2288 11.2382V21.1867C10.9044 21.2598 10.4214 21.3009 9.77383 21.3009C9.468 21.3009 9.19075 21.2896 8.94367 21.2705C8.6972 21.2521 8.48049 21.2215 8.29053 21.1867V7.0811L8.45809 6.90954H9.57328C10.6006 6.90954 11.1428 7.50068 11.2 8.68787C12.589 7.40557 14.1007 6.76381 15.7389 6.76381C17.0103 6.76381 17.9623 7.19187 18.5913 8.04215C19.2163 8.89181 19.5326 10.0342 19.5326 11.4668Z" fill="white"/>
<path d="M3.86766 8.68758C3.81014 7.50155 3.26804 6.90945 2.24135 6.90945H1.12899L0.958008 7.0836V21.1864C1.14796 21.2248 1.36828 21.2546 1.61336 21.2738C1.86205 21.2921 2.13549 21.301 2.4423 21.301C3.09007 21.301 3.57165 21.2627 3.89703 21.1864V11.2379C3.88584 10.5885 3.85828 9.28806 3.86766 8.68758Z" fill="white"/>
<path d="M24.5263 21.1864V9.14503L22.0737 9.20262C22.0317 9.04972 22.0058 8.87856 21.9866 8.68753C21.9648 8.49595 21.957 8.3041 21.957 8.11191C21.957 7.67266 21.9946 7.30057 22.0737 6.99598L24.3837 7.02297C24.268 5.85819 24.2115 5.00756 24.2115 4.47219C24.2115 3.8229 24.3106 3.22623 24.5121 2.67876C24.7103 2.13572 25.0007 1.66252 25.3816 1.26064C25.7601 0.860889 26.2189 0.54837 26.751 0.328978C27.2822 0.109125 27.883 -0.000268936 28.5483 -0.000268936C29.88 -0.000268936 31.1168 0.220753 32.2582 0.659184C32.2582 1.51993 32.0303 2.18833 31.5732 2.66748C31.1368 2.53201 30.7205 2.4274 30.3303 2.35054C29.9429 2.27449 29.5854 2.23698 29.2594 2.23698C28.4633 2.23698 27.8878 2.4518 27.5366 2.88148C27.1825 3.3128 27.0085 3.95715 27.0085 4.81653C27.0085 5.1414 27.0277 5.4863 27.065 5.8467C27.102 6.21087 27.1495 6.61351 27.2077 7.05377L31.2297 6.99598C31.2688 7.16616 31.2968 7.34423 31.3156 7.52418C31.335 7.7086 31.3455 7.90502 31.3455 8.11191C31.3455 8.3041 31.335 8.49595 31.3156 8.68753C31.2968 8.87856 31.2688 9.04972 31.2297 9.20262L27.4072 9.14503V21.1864C27.1979 21.2214 26.9702 21.2519 26.7213 21.2702C26.4748 21.2896 26.2189 21.3008 25.9533 21.3008C25.6846 21.3008 25.4265 21.2896 25.1832 21.2702C24.9342 21.2519 24.7159 21.2214 24.5263 21.1864Z" fill="white"/>
<path d="M42.4429 19.9807C41.3992 21.0329 40.02 21.5613 38.3078 21.5613C37.3169 21.5613 36.4414 21.3812 35.6818 21.0277C34.9195 20.6749 34.2784 20.1676 33.7555 19.5067C33.2325 18.8497 32.8329 18.0639 32.5582 17.155C32.2819 16.2493 32.1455 15.233 32.1455 14.1032C32.1455 12.995 32.2819 11.9837 32.5582 11.0654C32.8329 10.1484 33.2325 9.36069 33.7555 8.70084C34.2784 8.0422 34.9195 7.53585 35.6818 7.18023C36.4414 6.82959 37.3169 6.65182 38.3078 6.65182C39.2949 6.65182 40.1704 6.82959 40.9317 7.18023C41.6946 7.53585 42.336 8.0422 42.8596 8.70084C43.3825 9.36069 43.7824 10.1484 44.0558 11.0654C44.3335 11.9837 44.4727 12.995 44.4727 14.1032C44.4727 16.6651 43.7963 18.6247 42.4429 19.9807ZM38.3232 8.91606C36.2573 8.91606 35.2266 10.647 35.2266 14.1032C35.2266 17.563 36.2573 19.2935 38.3232 19.2935C40.4041 19.2935 41.4475 17.563 41.4475 14.1032C41.4475 10.647 40.4041 8.91606 38.3232 8.91606Z" fill="white"/>
<path d="M53.8978 21.4442C52.8368 21.4442 51.7502 21.1271 50.6449 20.4967V27.1071C50.6449 27.7758 50.5278 28.2578 50.2887 28.5554C50.0522 28.8525 49.6386 29 49.0489 29H47.908L47.7368 28.8271V7.08103L47.908 6.90968H48.8206C49.7708 6.90968 50.3528 7.39772 50.5621 8.36969C51.6658 7.22479 52.9892 6.6517 54.5273 6.6517C55.2887 6.6517 55.9729 6.82387 56.5819 7.16638C57.1919 7.51189 57.6986 8.00812 58.1072 8.65705C58.5178 9.30735 58.8318 10.0861 59.0496 10.9951C59.269 11.9026 59.3789 12.9303 59.3789 14.0759C59.3789 15.2228 59.2337 16.2555 58.9494 17.1707C58.6651 18.0885 58.2667 18.862 57.7656 19.4933C57.2609 20.1253 56.676 20.6074 56.0107 20.9419C55.3449 21.2754 54.6429 21.4442 53.8978 21.4442ZM53.7858 9.1453C52.5484 9.1453 51.5017 9.7686 50.6449 11.0146V18.0559C51.1422 18.3815 51.6218 18.6357 52.0892 18.8192C52.5535 19.0027 52.9968 19.0918 53.4146 19.0918C54.3095 19.0918 55.0253 18.6524 55.5694 17.7704C56.1104 16.8885 56.3819 15.632 56.3819 14.0026C56.3819 12.3339 56.1339 11.1097 55.6395 10.3248C55.1435 9.53884 54.5273 9.1453 53.7858 9.1453Z" fill="white"/>
<path d="M62.7454 16.7399V10.0616C62.7454 8.91604 62.5838 8.05509 62.2622 7.48144C62.7372 7.06126 63.3555 6.85021 64.1153 6.85021C65.1605 6.85021 65.6831 7.47011 65.6831 8.71175V16.0023C65.6831 16.9941 65.8079 17.7008 66.0543 18.1206C66.3018 18.5389 66.7405 18.7494 67.3674 18.7494C67.9949 18.7494 68.6346 18.5904 69.2804 18.2778C69.9277 17.9617 70.5066 17.5376 71.0195 17.0038V7.02314C71.5538 6.94806 72.038 6.90938 72.4742 6.90938C72.9124 6.90938 73.4192 6.94806 73.9888 7.02314V17.1704C73.9888 18.5089 74.2532 19.4184 74.788 19.8957C74.5794 20.5821 74.2056 21.0817 73.6738 21.3855C72.4742 21.1758 71.6765 20.4854 71.2767 19.3201C69.7933 20.7366 68.2035 21.4441 66.5104 21.4441C65.2571 21.4441 64.3147 21.0118 63.6863 20.1532C63.0599 19.2931 62.7454 18.1565 62.7454 16.7399Z" fill="white"/>
<path d="M82.4354 18.9494H83.4898C83.6606 19.4339 83.747 19.8576 83.747 20.2278C83.747 20.5937 83.7184 20.8852 83.6606 21.0955C82.9023 21.2327 82.0918 21.3008 81.2343 21.3008C79.3526 21.3008 78.4102 20.3159 78.4102 18.3467V0.287045L78.6106 0.114925H79.7243C80.3118 0.114925 80.7281 0.262442 80.9638 0.558693C81.2026 0.853777 81.3202 1.33587 81.3202 2.00544V17.6585C81.3202 18.5205 81.6904 18.9494 82.4354 18.9494Z" fill="white"/>
<path d="M85.5156 20.1256C85.5351 19.7982 85.6383 19.4315 85.8281 19.0218C86.0173 18.6088 86.2392 18.2903 86.4831 18.0597C87.9992 18.9005 89.231 19.3202 90.1775 19.3202C91.145 19.3202 91.8614 19.159 92.3221 18.8349C92.7869 18.5091 93.0206 18.0806 93.0206 17.5445C93.0206 16.703 92.4208 16.0523 91.2304 15.5948L89.6391 14.9929C87.2342 14.0759 86.0285 12.7084 86.0285 10.8934C86.0285 9.57369 86.5005 8.53894 87.4408 7.78382C88.3832 7.0285 89.6135 6.65199 91.1358 6.65199C92.68 6.65199 94.21 6.99592 95.7323 7.68353C95.7323 8.06559 95.6509 8.46671 95.4899 8.88664C95.3257 9.30723 95.1135 9.63403 94.8456 9.86359C93.4956 9.23154 92.2316 8.91622 91.0514 8.91622C90.4255 8.91622 89.926 9.06892 89.5532 9.37453C89.1825 9.6813 88.9968 10.0617 88.9968 10.5202C88.9968 10.9805 89.1339 11.3332 89.4105 11.5822C89.6866 11.8302 90.1387 12.0782 90.7661 12.326L92.4786 12.9872C94.8936 13.9215 96.1045 15.3581 96.1045 17.2842C96.1045 18.6072 95.5973 19.6471 94.5899 20.4104C93.5805 21.176 92.2127 21.561 90.4813 21.561C88.7499 21.561 87.0931 21.0817 85.5156 20.1256Z" fill="white"/>
<path d="M109.797 15.0488H101.41C101.467 16.3692 101.746 17.3819 102.251 18.0884C102.755 18.7977 103.607 19.1485 104.804 19.1485C105.374 19.1485 105.989 19.0639 106.647 18.8928C107.302 18.7206 107.981 18.442 108.687 18.0598C109.161 18.5016 109.475 19.1285 109.629 19.9519C108.103 21.0234 106.316 21.5613 104.264 21.5613C103.178 21.5613 102.265 21.3657 101.522 20.9841C100.782 20.6014 100.179 20.0766 99.7112 19.407C99.2454 18.7379 98.9099 17.9408 98.6992 17.0137C98.4875 16.0871 98.3848 15.0875 98.3848 14.0176C98.3848 12.9654 98.5162 11.9857 98.7862 11.0808C99.0505 10.1736 99.4289 9.39404 99.9259 8.74435C100.419 8.09481 101.034 7.58369 101.767 7.21281C102.497 6.83752 103.322 6.65203 104.234 6.65203C105.146 6.65203 105.958 6.80493 106.673 7.11054C107.387 7.41711 107.99 7.84044 108.486 8.38471C108.98 8.92958 109.357 9.57988 109.612 10.3344C109.872 11.089 110 11.9053 110 12.7845C110 13.1671 109.984 13.5442 109.956 13.9173C109.926 14.2918 109.873 14.6665 109.797 15.0488ZM104.319 8.85948C102.512 8.85948 101.542 10.2061 101.41 12.9007H107.173V12.5282C107.173 11.439 106.943 10.5562 106.475 9.87573C106.007 9.19844 105.291 8.85948 104.319 8.85948Z" fill="white"/>
<path d="M48.8207 28.9942H47.9081L47.9053 28.9972L47.9081 28.9998H48.9949C48.9382 28.996 48.8803 28.9942 48.8207 28.9942Z" fill="white"/>
</g>
<defs>
<clipPath id="clip0_1372_396">
<rect width="110" height="29" fill="white"/>
</clipPath>
</defs>
</svg>
