<svg width="57" height="58" viewBox="0 0 57 58" fill="none" xmlns="http://www.w3.org/2000/svg">
<path d="M23.3518 0.366207C12.1676 2.46922 3.34127 10.9131 0.569117 22.0974C-0.259343 25.4112 -0.163751 32.1026 0.728437 35.5758C3.30941 45.5491 11.3391 53.6107 21.4081 56.351C24.6901 57.2113 31.732 57.3069 34.9821 56.5103C45.6565 53.8656 53.7818 45.7403 56.4583 35.0341C56.8407 33.4727 57 31.5928 57 28.2471C56.9681 24.1685 56.8725 23.3082 56.1397 20.8228C53.0807 10.8176 45.4972 3.39327 35.6831 0.812302C32.3374 -0.0480232 26.6975 -0.271069 23.3518 0.366207ZM35.0139 2.59668C40.2396 3.99869 43.3941 5.84679 47.3134 9.76604C51.2645 13.7172 53.0807 16.808 54.5465 22.2248C55.3112 25.0288 55.3112 32.0389 54.5465 34.9066C53.2401 39.7818 51.392 43.1275 48.1419 46.6325C44.4456 50.6155 40.6857 52.9097 35.3007 54.4392C31.8276 55.4269 25.3911 55.4269 21.663 54.4073C6.62325 50.3606 -1.75694 34.5243 3.30941 19.7394C5.89038 12.2196 12.072 5.97425 19.5918 3.32954C23.989 1.76822 30.8079 1.41771 35.0139 2.59668Z" fill="white"/>
<path d="M26.9208 3.55265C26.9208 4.1262 26.0923 4.18992 25.8693 3.61638C25.7737 3.42519 25.71 3.80756 25.71 4.50856C25.71 5.20957 25.8056 5.46448 25.8693 5.05025C26.0286 4.22179 26.8252 4.09433 27.0164 4.89093C27.112 5.20957 27.1757 4.92279 27.2076 4.25365C27.2076 3.61638 27.1757 3.07469 27.0801 3.07469C26.9845 3.07469 26.9208 3.29774 26.9208 3.55265Z" fill="white"/>
<path d="M27.9083 4.18968L27.8765 5.43237L28.4182 4.66764L28.9598 3.90291L29.1829 4.66764C29.3741 5.33678 29.4059 5.24119 29.4378 4.18968L29.4697 2.94699L28.928 3.71173L28.3863 4.47646L28.1632 3.71173C27.9721 3.04258 27.9402 3.13818 27.9083 4.18968Z" fill="white"/>
<path d="M30.1705 4.18968L30.1387 5.46424L30.7441 4.6995L31.3814 3.96664L31.4132 4.85882C31.477 5.71915 31.477 5.68728 31.6681 4.66764C31.9549 3.23377 31.7956 3.04258 31.0627 3.96664L30.4573 4.6995L30.3299 3.80732C30.2343 3.13818 30.2024 3.23377 30.1705 4.18968Z" fill="white"/>
<path d="M24.4348 3.83939C24.5622 4.63598 23.8294 4.89089 23.6382 4.12616C23.5107 3.68007 23.4789 3.74379 23.447 4.31734C23.4151 4.89089 23.5426 5.01835 24.0205 4.89089C24.4348 4.7953 24.6897 4.92276 24.7853 5.27326C24.8809 5.56003 24.9446 5.46444 24.9765 4.98648C24.9765 4.54039 24.849 3.96684 24.6578 3.71193C24.4029 3.2977 24.371 3.32956 24.4348 3.83939Z" fill="white"/>
<path d="M34.1213 4.57214C34.2488 5.30501 34.185 5.62365 33.8983 5.62365C33.6752 5.62365 33.6115 5.71924 33.7071 5.81483C33.9939 6.1016 34.8223 5.36874 35.2365 4.54028C35.5552 3.903 35.5552 3.903 35.0772 4.47655C34.5993 5.08196 34.5674 5.0501 34.2488 4.31723C33.962 3.64809 33.962 3.67995 34.1213 4.57214Z" fill="white"/>
<path d="M21.3125 4.66762C21.3125 5.01812 21.4081 5.30489 21.5355 5.30489C21.663 5.30489 21.8223 5.49608 21.9179 5.68726C21.9816 5.91031 21.9816 5.75099 21.9179 5.30489C21.7267 4.28525 21.3125 3.83916 21.3125 4.66762Z" fill="white"/>
<path d="M22.46 4.54034C22.46 4.85897 22.6193 5.3688 22.7786 5.62371C23.0335 5.97421 23.0654 5.84675 22.9061 5.14575C22.6511 3.96679 22.46 3.71187 22.46 4.54034Z" fill="white"/>
<path d="M35.8741 5.36889C35.4598 6.57972 35.5236 6.64345 36.2564 5.87871C36.5432 5.56007 36.6707 5.30516 36.4795 5.30516C36.3202 5.30516 36.2564 5.08212 36.352 4.82721C36.4795 4.57229 36.4795 4.34925 36.3839 4.34925C36.2883 4.34925 36.0653 4.79534 35.8741 5.36889Z" fill="white"/>
<path d="M20.2606 5.55995C20.4518 6.10163 20.6748 6.57959 20.7385 6.57959C20.9934 6.57959 20.6429 5.27317 20.2924 4.92267C19.9738 4.60403 19.9738 4.73149 20.2606 5.55995Z" fill="white"/>
<path d="M37.3086 5.14593C37.213 5.4327 37.1175 5.84694 37.1493 6.03812C37.1493 6.26117 37.3086 6.06998 37.468 5.65575C37.6273 5.24152 37.7229 4.82729 37.6273 4.76356C37.5635 4.69984 37.4361 4.85916 37.3086 5.14593Z" fill="white"/>
<path d="M18.9862 5.40067C18.9543 5.87862 18.8268 5.91049 18.2533 5.62371C17.5841 5.30507 17.5841 5.30507 18.094 5.7193C18.3807 5.97422 18.6675 6.5159 18.6675 6.93013C18.6994 7.50368 18.7631 7.53554 18.8587 7.12131C18.9543 6.70708 19.1773 6.61149 19.6872 6.77081C20.3244 6.93013 20.3244 6.93013 19.8465 6.54776C19.5597 6.29285 19.2729 5.8149 19.1773 5.46439C19.0499 4.92271 19.018 4.92271 18.9862 5.40067Z" fill="white"/>
<path d="M38.0726 6.06986C37.5947 7.31255 37.6903 7.5356 38.2638 6.48409C38.5506 5.97427 38.678 5.49631 38.5824 5.40072C38.4869 5.30513 38.2638 5.5919 38.0726 6.06986Z" fill="white"/>
<path d="M38.9008 6.54789C38.4228 7.47194 38.4228 7.53567 39.0601 7.88617C39.8885 8.3004 40.3028 7.9499 40.3984 6.70721C40.4939 5.40079 39.538 5.3052 38.9008 6.54789ZM40.3028 6.26111C40.3028 6.42043 40.0797 6.57975 39.8248 6.57975C39.5699 6.57975 39.3468 6.42043 39.3468 6.26111C39.3468 6.06993 39.5699 5.94248 39.8248 5.94248C40.0797 5.94248 40.3028 6.06993 40.3028 6.26111ZM39.7611 7.08957C40.1116 7.44008 39.6655 7.85431 39.1875 7.66312C38.9326 7.53567 38.8052 7.34449 38.9008 7.18517C39.0919 6.83466 39.4743 6.8028 39.7611 7.08957Z" fill="white"/>
<path d="M16.2462 6.26092C16.1506 6.42024 16.2781 6.99379 16.5649 7.50361C16.9154 8.20462 17.2021 8.3958 17.5845 8.26835C17.9987 8.10903 17.9669 8.01343 17.3296 7.79039C16.7242 7.56734 16.6605 7.43989 17.0428 7.21684C17.4571 6.96193 17.4252 6.8982 16.9791 6.8982C16.31 6.8982 16.2144 6.38838 16.8198 6.16533C17.1066 6.03788 17.1066 5.97415 16.8198 5.97415C16.6286 5.94228 16.3418 6.06974 16.2462 6.26092Z" fill="white"/>
<path d="M23.4473 7.0575C22.3321 7.31241 20.1653 8.109 18.6677 8.87374C14.9397 10.7218 10.7336 14.8323 8.98113 18.401C5.44424 25.6341 5.76288 33.6001 9.87331 40.1959C12.4861 44.4338 16.724 47.7476 21.6629 49.4683C23.9253 50.2649 24.6581 50.3605 28.3543 50.3923C32.0824 50.3923 32.7834 50.2967 35.3325 49.4683C42.5338 47.1104 48.5242 40.6101 50.0218 33.4726C50.6272 30.6367 50.6272 26.0802 49.9899 23.4674C49.735 22.3203 48.9384 20.1854 48.2055 18.6878C47.154 16.4573 46.3893 15.4696 43.9995 13.0798C41.6097 10.69 40.6219 9.92524 38.3915 8.87374C36.8939 8.14087 34.759 7.34427 33.6119 7.08936C31.0628 6.48395 26.1876 6.48395 23.4473 7.0575ZM32.8153 7.69477C35.1095 8.17273 39.5386 10.1483 40.9087 11.2635L41.6734 11.8689L40.4945 11.7415C39.6979 11.6459 39.1243 11.7733 38.742 12.1239C38.2959 12.5381 37.8498 12.6018 36.8301 12.4425C35.3644 12.2194 35.3325 12.1557 36.0017 11.4866C36.7027 10.7856 36.5752 10.1802 35.683 9.57474C34.7908 9.00119 32.656 9.19238 32.656 9.82965C32.656 10.1164 32.5604 10.1164 32.2736 9.82965C31.7956 9.3517 30.7441 9.31983 30.7441 9.76593C30.7441 9.92524 30.6485 10.0527 30.5211 10.0527C29.9157 9.95711 29.4696 10.1164 29.4696 10.4032C29.4696 10.5625 29.7245 10.7218 30.0431 10.7537C30.3618 10.7537 30.4255 10.8493 30.1706 10.9449C29.5333 11.1998 30.075 11.6778 30.999 11.6778C31.7638 11.7096 31.7956 11.7415 31.2858 12.0283C30.7441 12.3469 30.776 12.4106 31.6045 13.1435L32.4966 13.9082H31.6363C31.0309 13.9082 30.5848 13.5896 30.075 12.8886C29.6289 12.2832 29.2784 12.0601 29.2147 12.2832C29.1509 12.5062 29.4696 13.1116 29.9794 13.6215C30.8079 14.4818 31.0309 14.5455 33.2614 14.5455C35.46 14.5774 35.6193 14.6092 35.0776 15.0235C34.281 15.6289 34.5041 15.6289 35.9379 15.0235C36.5752 14.7686 37.6905 14.5455 38.3915 14.5455H39.666V21.3962V28.247H35.0458C32.4966 28.247 30.4255 28.1514 30.4255 28.0558C30.4255 27.9602 30.999 27.1636 31.7001 26.3351C32.4011 25.5067 32.9746 24.5826 32.9746 24.2958C32.9746 23.4355 33.9624 23.7223 35.0776 24.965C35.683 25.6023 36.1929 26.0802 36.2566 25.9846C36.8301 25.2836 38.3915 22.7982 38.3915 22.6071C38.3915 22.4477 37.8498 22.1291 37.2125 21.9061C36.5434 21.683 35.7149 21.1413 35.3644 20.6952C34.3766 19.5163 33.1658 19.4525 32.3692 20.5678C32.0187 21.0457 31.8275 21.5555 31.9231 21.683C32.0506 21.7786 31.7956 22.3203 31.4133 22.862C30.999 23.4037 30.776 23.9135 30.8716 24.0091C30.9672 24.1047 30.8716 24.487 30.6804 24.8694C30.4574 25.2199 30.298 25.666 30.2662 25.8572C30.2662 26.0165 30.075 26.1758 29.8519 26.1758C29.6289 26.1758 29.3103 26.3989 29.1509 26.6538C28.5774 27.5778 28.4818 26.2077 28.5774 18.7834C28.6411 14.2906 28.5455 11.4866 28.3862 11.614C28.2269 11.7096 27.6533 12.2513 27.1435 12.8567C26.57 13.494 25.9327 13.9082 25.4229 13.9082H24.6581L25.4866 13.1435C26.2513 12.4106 26.2832 12.3469 25.7415 12.0283C25.2317 11.7415 25.2636 11.7096 26.0283 11.6778C26.8886 11.6778 27.6533 11.0723 26.8567 11.0086C26.6337 11.0086 26.793 10.8493 27.2391 10.6581C28.0038 10.3395 28.0038 10.3395 27.3984 10.0846C27.0479 9.95711 26.6656 9.89338 26.5381 9.98897C26.3788 10.0527 26.2832 9.95711 26.2832 9.79779C26.2832 9.31983 25.1042 9.3517 24.8812 9.82965C24.7219 10.1483 24.6581 10.1483 24.4988 9.86152C24.1802 9.16051 22.2365 9.00119 21.3443 9.57474C20.4521 10.1802 20.3247 10.7856 21.0257 11.4866C21.6948 12.1557 21.6629 12.2194 20.1972 12.4425C19.2094 12.6018 18.7315 12.5381 18.3172 12.1557C17.9667 11.8371 17.3295 11.6778 16.6922 11.7415C15.3858 11.8689 13.6014 14.1631 13.5695 15.7245C13.5377 16.298 13.4102 16.776 13.2827 16.776C12.7729 16.776 11.594 18.1143 11.7533 18.5603C11.8489 18.8153 11.7533 18.9109 11.4984 18.8153C10.9567 18.5922 10.5425 19.6437 10.9885 20.0898C11.4665 20.5678 11.3709 20.9183 10.8292 20.7271C10.5425 20.5996 10.3513 20.7271 10.3513 21.0457C10.3513 21.3325 10.2238 21.5555 10.0326 21.5555C9.52281 21.5555 9.65027 23.9772 10.192 24.4233C10.4469 24.6463 11.0204 24.8375 11.4346 24.8694C12.0082 24.9013 12.2312 25.1243 12.3268 25.7616C12.4543 26.4626 12.3906 26.5582 12.0401 26.3033C11.7214 26.0165 11.6258 26.1121 11.6258 26.7812C11.6258 27.2273 11.4984 27.6097 11.3072 27.6097C11.1479 27.6097 10.9885 27.4504 10.9885 27.291C10.9885 27.0999 10.7018 26.6856 10.3513 26.3351C9.55468 25.5385 9.07672 25.5067 9.04485 26.2395C9.04485 26.59 8.94926 26.6538 8.85367 26.3989C8.78994 26.2077 8.43944 26.0165 8.08894 26.0165C7.22861 26.0165 7.29234 24.9331 8.31198 21.9379C11.7851 11.614 22.3321 5.46431 32.8153 7.69477ZM23.7341 11.6778C23.1287 12.0601 22.1409 12.092 22.1409 11.7096C22.1409 11.5503 22.3958 11.4866 22.7463 11.5822C23.0649 11.6778 23.4473 11.5822 23.5748 11.3591C23.7022 11.1679 23.8934 11.0723 23.989 11.1998C24.1165 11.2954 23.989 11.5184 23.7341 11.6778ZM34.4085 11.5503C34.6634 11.4547 34.8864 11.5184 34.8864 11.6778C34.8864 11.8689 34.6953 11.9964 34.4403 11.9964C33.7075 11.9964 32.9746 11.6459 32.9746 11.2954C32.9746 11.1042 33.1658 11.1361 33.4526 11.3591C33.7075 11.5822 34.1536 11.6778 34.4085 11.5503ZM17.9986 12.6337C17.9986 12.793 17.5844 12.9523 17.0745 12.9523C16.5647 12.9523 15.8637 13.0479 15.5451 13.1754C15.0353 13.3665 15.0353 13.3347 15.4176 12.8567C15.8956 12.2832 17.9986 12.092 17.9986 12.6337ZM41.6097 12.8567C41.9921 13.3347 41.9921 13.3665 41.4823 13.1754C41.1636 13.0479 40.4626 12.9523 39.9528 12.9523C39.443 12.9523 39.0287 12.793 39.0287 12.6337C39.0287 12.092 41.1318 12.2832 41.6097 12.8567ZM44.0314 14.0357C46.7717 17.1265 48.7791 21.1732 49.3845 24.7101L49.6075 26.1121L48.6198 25.9209C47.3452 25.666 46.7079 25.9209 46.3256 26.8449C45.9432 27.8646 45.4015 27.8009 45.4015 26.7812C45.4015 26.1121 45.3059 26.0165 44.9873 26.3033C44.6368 26.5582 44.573 26.4626 44.7005 25.6979C44.7961 25.0924 44.9554 24.8375 45.2741 24.965C45.529 25.0606 46.0706 24.9013 46.5167 24.6145C47.154 24.2002 47.3133 23.8179 47.3133 22.8301C47.3133 22.1291 47.1859 21.5555 46.9947 21.5555C46.8354 21.5555 46.6761 21.3325 46.6761 21.0457C46.6761 20.7271 46.4849 20.5996 46.1981 20.7271C45.6246 20.9183 45.5608 20.5678 46.0706 20.0579C46.5486 19.58 46.1662 18.5603 45.5927 18.7834C45.3059 18.9109 45.2103 18.7834 45.3059 18.3692C45.4015 17.9868 45.1785 17.6363 44.5412 17.2539C43.9039 16.8716 43.6171 16.4573 43.5853 15.7563C43.5534 15.2146 43.2985 14.5455 43.0754 14.2587C42.3426 13.4621 41.8328 12.315 42.1833 12.315C42.3426 12.315 43.171 13.0798 44.0314 14.0357ZM22.2046 13.271L22.9056 13.9082H21.5992C18.7633 13.9082 18.4128 12.9523 21.1213 12.6655C21.3443 12.6655 21.8223 12.9204 22.2046 13.271ZM37.7542 13.1435C38.0728 13.494 36.862 13.9082 35.5556 13.9082C34.1536 13.9082 34.1536 13.9082 34.759 13.271C35.2051 12.793 35.6193 12.6974 36.4796 12.8249C37.085 12.9204 37.6586 13.0798 37.7542 13.1435ZM27.8764 16.5211C27.8445 19.58 27.7808 20.0261 27.4303 19.5481C26.8886 18.8471 26.4107 18.8471 26.1557 19.5481C25.9964 19.9305 25.8371 19.9624 25.5822 19.7074C25.168 19.2932 24.3714 19.58 24.3714 20.1535C24.3714 20.4085 24.0846 20.5678 23.6704 20.504C23.1287 20.4722 22.9056 20.6315 22.8419 21.1095C22.7782 21.6193 22.587 21.7467 22.109 21.6511C21.6311 21.5237 21.5036 21.6511 21.5036 22.3203C21.5036 22.9576 21.3762 23.1487 20.9619 23.085C20.5158 23.0213 20.3884 23.1806 20.4521 23.8497C20.484 24.4233 20.3565 24.7419 20.0697 24.7419C19.5281 24.7419 19.2094 25.6023 19.6874 25.8253C19.9423 25.9209 19.8786 26.0802 19.5281 26.3351C19.2094 26.5263 18.9545 26.8449 18.9545 27.0361C18.9545 27.2273 19.2094 27.5778 19.5281 27.8009C20.006 28.1832 19.9104 28.2151 18.7315 28.247H17.3613V21.3962V14.5455H18.6359C19.3369 14.5455 20.4521 14.7686 21.0894 15.0235C22.5233 15.6289 22.7463 15.6289 21.9497 15.0235C21.408 14.6092 21.5992 14.5774 23.9253 14.5455C26.3469 14.5455 26.57 14.4818 27.0479 13.7489C27.3347 13.3028 27.6533 12.9523 27.7171 12.9523C27.8127 12.9523 27.8764 14.5774 27.8764 16.5211ZM18.6359 13.5896C18.6359 13.7489 18.2216 13.9082 17.68 13.9082H16.7559L16.9471 24.2002L17.1383 34.5241L16.4691 34.6835C16.0549 34.8109 15.8319 34.7472 15.9593 34.5879C16.0549 34.4285 15.8956 33.6319 15.5769 32.8672C15.0671 31.5289 15.0671 31.3696 15.5769 30.8598C16.3417 29.9676 16.2142 28.3426 15.2902 27.4185C14.2705 26.4307 14.3024 26.2714 15.4495 24.2002C16.5647 22.2247 16.6284 21.46 15.7681 20.5996C15.4176 20.2491 15.1308 19.803 15.1308 19.58C15.1308 19.3888 14.8441 19.4844 14.4936 19.803C13.8563 20.3766 13.8563 20.3766 14.0475 18.6559C14.1431 17.6682 14.4298 16.8397 14.6848 16.6804C14.9397 16.5211 15.1308 15.9156 15.1308 15.1828C15.1308 14.1313 15.2583 13.9082 16.023 13.6533C17.1701 13.2072 18.6359 13.1754 18.6359 13.5896ZM40.9087 13.6215C41.769 13.9401 41.8965 14.0994 41.8965 15.1828C41.8965 15.9475 42.0877 16.5211 42.3744 16.6804C42.6294 16.8397 42.8524 17.4451 42.8843 18.0505C42.948 18.6559 43.0754 19.4207 43.2348 19.7074C43.5534 20.3447 43.171 20.4722 42.5975 19.8986C42.3107 19.6119 42.0558 19.7393 41.4185 20.4085C40.4626 21.4281 40.3989 22.4477 41.2273 23.4992C41.546 23.9135 41.9921 24.7738 42.2151 25.4111C42.5975 26.4626 42.5656 26.59 41.769 27.3866C40.7812 28.3744 40.6538 29.9676 41.4823 30.8598C41.9602 31.4015 41.9602 31.5927 41.6097 32.4848C41.3548 33.0584 41.1636 33.8231 41.1955 34.2055C41.1955 34.6516 41.0362 34.8428 40.7494 34.7153C40.367 34.5879 40.3033 32.7398 40.3033 24.2321V13.9082H39.3474C38.8376 13.9082 38.3915 13.7489 38.3915 13.5896C38.3915 13.1754 39.6342 13.1754 40.9087 13.6215ZM14.3661 16.075C13.8882 16.5529 13.8563 16.5529 13.8563 15.9475C13.8563 15.0553 14.621 14.2906 14.7485 15.0553C14.8122 15.3421 14.6529 15.8201 14.3661 16.075ZM42.9799 15.0553C43.0754 15.3421 43.171 15.7882 43.171 16.0431C43.171 16.4573 43.0754 16.4573 42.6931 16.1387C42.1833 15.7245 42.0239 14.5455 42.5019 14.5455C42.6612 14.5455 42.8843 14.7686 42.9799 15.0553ZM13.5377 17.6363C13.5377 17.7956 13.4102 18.0824 13.2509 18.3054C13.0597 18.6241 12.9322 18.5922 12.8048 18.0824C12.7092 17.6363 12.8048 17.4132 13.0916 17.4132C13.3465 17.4132 13.5377 17.5088 13.5377 17.6363ZM44.2225 18.0824C44.0951 18.5922 43.9676 18.6241 43.7765 18.3054C43.3622 17.7 43.4259 17.4132 43.9358 17.4132C44.2225 17.4132 44.3181 17.6363 44.2225 18.0824ZM13.219 22.0972C13.219 23.4992 13.0597 23.4037 12.7729 21.7786C12.6136 20.9183 12.6455 20.5996 12.8685 20.759C13.0597 20.8545 13.219 21.46 13.219 22.0972ZM27.8764 20.8864C27.8764 21.0457 27.3347 21.2369 26.6656 21.3644C24.1483 21.7467 21.7267 24.264 21.3124 26.9087C21.185 27.6415 20.9938 28.247 20.8345 28.247C20.4202 28.247 20.484 27.6415 21.0257 25.8253C21.6948 23.6267 23.4155 21.8105 25.5503 21.0457C26.9523 20.5678 27.8764 20.4722 27.8764 20.8864ZM44.1588 22.0654C43.9358 23.0532 43.872 23.1487 43.8402 22.4477C43.8083 21.5874 44.127 20.4722 44.3181 20.6952C44.4137 20.759 44.3181 21.3962 44.1588 22.0654ZM33.0065 21.6511C32.6878 21.9379 32.656 21.9061 32.8472 21.46C32.9427 21.1413 33.1339 20.982 33.2295 21.0776C33.3251 21.1732 33.2295 21.4281 33.0065 21.6511ZM27.8445 23.6904C27.8127 25.5067 27.8127 25.5385 27.3984 24.5826C26.793 23.2762 26.793 21.8742 27.3984 21.8742C27.7808 21.8742 27.8764 22.2884 27.8445 23.6904ZM12.7411 23.7223C12.518 23.9772 11.6258 23.4992 11.6258 23.1487C11.6258 22.9576 11.8489 22.9576 12.2631 23.2125C12.5817 23.4355 12.8048 23.6586 12.7411 23.7223ZM26.1239 24.2958C26.8886 26.3033 26.4425 26.6856 24.5307 25.7616C22.8738 24.965 22.7463 24.4233 23.9253 23.4992C25.168 22.5433 25.4866 22.6708 26.1239 24.2958ZM45.2422 23.4355C45.1466 23.6267 44.7961 23.786 44.5093 23.786C44.0951 23.786 44.0951 23.7223 44.6368 23.3399C45.3059 22.862 45.5927 22.8938 45.2422 23.4355ZM14.4936 24.6463C14.4936 24.8057 14.2068 25.2518 13.8563 25.6979C13.3783 26.3033 13.219 26.367 13.219 25.9528C13.219 25.0924 13.5695 24.4233 14.0475 24.4233C14.3024 24.4233 14.4936 24.5189 14.4936 24.6463ZM43.6809 25.2199C43.9676 26.4307 43.6171 26.5263 43.0117 25.4111C42.5656 24.5508 42.5656 24.4233 43.0117 24.4233C43.2666 24.4233 43.5534 24.7738 43.6809 25.2199ZM23.8297 26.59C24.69 26.9087 25.3591 27.291 25.3591 27.3866C25.3273 27.5141 25.3273 27.7371 25.3273 27.9283C25.3273 28.0876 24.5307 28.247 23.5748 28.247C22.0453 28.247 21.8223 28.1514 21.8223 27.6415C21.8223 27.0999 22.109 26.0165 22.2684 26.0165C22.2684 26.0165 23.0012 26.2714 23.8297 26.59ZM29.7882 28.0876L30.5211 28.8842L29.8519 29.6171C29.2784 30.2225 29.1509 30.7323 29.1509 32.2299V34.1099L31.3177 36.0855C32.4966 37.1688 33.3251 38.1885 33.1658 38.3478C33.0383 38.4753 32.6878 38.2841 32.4329 37.8698C31.955 37.2007 31.0628 36.8821 31.0628 37.4237C31.0628 37.838 32.656 39.3993 33.0702 39.3993C33.6437 39.3993 34.2492 38.7302 34.2492 38.1248C34.2492 37.838 33.8987 37.2644 33.4526 36.8502C33.0065 36.436 32.656 35.735 32.656 35.3207C32.656 34.8746 32.7516 34.5879 32.8472 34.6835C32.9427 34.8109 33.0065 35.0021 32.9746 35.0977C32.9427 35.2251 33.2614 35.5119 33.6756 35.7031C34.0898 35.8943 34.5997 36.4997 34.8546 37.0095L35.3007 37.9336L36.0654 37.0095L36.862 36.1173L35.8424 35.7031C35.2688 35.4482 34.759 34.9702 34.6634 34.6197C34.5678 34.2692 34.4085 33.9825 34.281 33.9825C34.1854 33.9825 34.0898 33.3133 34.0898 32.4848C34.0898 31.051 34.0261 30.9554 32.8153 30.2544L31.5407 29.5215H35.6193H39.666V33.0903C39.666 35.0658 39.5067 37.2644 39.3474 37.9654C38.965 39.7179 37.4355 41.0244 34.5359 42.1077C31.4133 43.2867 29.1509 44.4975 29.1509 45.0073C29.1509 45.2941 29.7245 45.1348 30.999 44.4975C31.9868 43.9558 33.9305 43.0955 35.2688 42.5538C36.6071 42.044 38.0728 41.2474 38.5508 40.8013C39.3792 40.0366 39.443 40.0366 40.2077 40.5145C40.9724 41.0244 40.9724 41.0562 40.4307 41.8847L39.8891 42.745L40.9087 41.821C42.1514 40.642 42.5019 40.8969 41.4185 42.2033C40.7175 43.0318 40.4307 43.1592 39.3474 43.0318C38.5189 42.9681 37.9454 43.0955 37.5949 43.4142C37.34 43.6691 37.1169 43.7647 37.1169 43.6053C37.1169 43.1911 35.0458 43.6691 34.3766 44.2107C34.1217 44.4338 33.9624 44.848 34.0261 45.1667C34.2173 45.8358 33.2932 45.9951 30.5848 45.7721L28.673 45.6128V38.1248V30.6367L27.5896 29.6808L26.5381 28.7568L27.3666 28.0239C28.4499 27.0999 28.8642 27.0999 29.7882 28.0876ZM8.02521 27.8009C7.92962 27.8965 7.64284 27.9283 7.4198 27.8327C7.16489 27.7371 7.26048 27.6415 7.61098 27.6415C7.96148 27.6097 8.15267 27.7053 8.02521 27.8009ZM8.75808 29.5215C9.29976 29.5215 9.71399 29.649 9.71399 29.8402C9.71399 29.9995 9.39536 30.1588 9.01299 30.1588C8.40758 30.1588 8.37571 30.2225 8.82181 30.7005C9.10858 31.0191 9.23604 31.4652 9.17231 31.6883C8.94926 32.2618 10.638 33.9825 11.3709 33.9825C12.0719 33.9825 12.0719 34.1099 11.4346 35.0977C11.116 35.6075 11.0204 36.1173 11.1797 36.5953C11.3072 37.0095 11.3709 37.838 11.3391 38.4753C11.2435 39.8454 11.9445 40.6739 13.1553 40.6739C13.7926 40.7057 14.4617 41.1837 15.7363 42.5857C16.724 43.6691 17.7755 44.5294 18.126 44.5294C18.6359 44.5612 18.6677 44.5931 18.2854 44.7206C17.5844 44.8799 17.8711 45.9951 18.6996 46.4412C19.0501 46.6324 19.9104 46.7599 20.6433 46.6961C22.7782 46.6005 23.7978 46.6961 23.5748 47.0148C23.4792 47.2059 23.6066 47.429 23.8297 47.5883C24.0846 47.7158 24.5307 48.2575 24.8493 48.7673C25.5503 49.8188 25.869 49.8188 21.9816 48.6717C14.9715 46.6324 9.23604 40.1959 7.67471 32.6442C7.06929 29.7446 7.00557 28.0876 7.51539 28.948C7.70657 29.2985 8.21639 29.5215 8.75808 29.5215ZM26.2832 28.8842C26.2832 29.0754 24.5944 29.2029 21.8223 29.2029C19.0501 29.2029 17.3613 29.0754 17.3613 28.8842C17.3613 28.6931 19.0501 28.5656 21.8223 28.5656C24.5944 28.5656 26.2832 28.6931 26.2832 28.8842ZM39.666 28.8842C39.666 29.0754 37.9772 29.2029 35.2051 29.2029C32.4329 29.2029 30.7441 29.0754 30.7441 28.8842C30.7441 28.6931 32.4329 28.5656 35.2051 28.5656C37.9772 28.5656 39.666 28.6931 39.666 28.8842ZM49.5438 31.2103C48.8109 36.2766 47.0266 39.7498 43.2029 43.5416C40.3989 46.3138 37.9772 47.8114 34.6315 48.7991C32.3373 49.5001 31.955 49.4364 32.4011 48.4805C32.5922 48.0344 32.9746 47.6839 33.2295 47.6839C33.4844 47.6839 33.6119 47.4927 33.4844 47.2059C33.2932 46.6961 34.058 46.5368 36.1291 46.6961C37.7542 46.7917 38.7101 46.4731 38.9969 45.6765C39.1881 45.1667 39.1243 44.9118 38.742 44.7524C38.3277 44.5931 38.3596 44.5294 38.8694 44.5294C39.2199 44.4975 40.3352 43.6372 41.3548 42.5857C42.7568 41.0881 43.3622 40.6739 44.0951 40.6739C45.2422 40.6739 45.8157 39.8454 45.6883 38.3478C45.6564 37.7742 45.7201 37.0095 45.8476 36.5953C46.0069 36.1173 45.9113 35.6075 45.5927 35.0977C44.9235 34.078 44.9235 34.078 46.0069 33.8869C46.931 33.6957 48.556 31.6883 47.9188 31.4652C47.7276 31.4015 47.8232 31.1147 48.1418 30.7642C48.6516 30.1907 48.6516 30.1588 48.0143 30.1588C47.632 30.1588 47.3133 29.9995 47.3133 29.8402C47.3133 29.649 47.7276 29.5215 48.2374 29.5215C48.7791 29.5215 49.2889 29.3622 49.3845 29.171C49.7987 28.5337 49.8306 29.0754 49.5438 31.2103ZM12.8367 29.8402C14.5892 30.7005 14.5254 30.8598 12.7411 30.1907C11.9445 29.9039 11.3072 29.5852 11.3072 29.4578C11.3072 29.1073 11.3391 29.1073 12.8367 29.8402ZM14.398 29.9039C14.3024 30.1588 14.2068 30.0632 14.2068 29.7127C14.1749 29.3622 14.2705 29.171 14.3661 29.2985C14.4617 29.3941 14.4936 29.6808 14.398 29.9039ZM45.8157 29.4259C45.9113 29.5852 45.2741 29.9039 44.4137 30.1907C43.5534 30.4456 42.8524 30.6367 42.8524 30.573C42.8524 30.4774 45.1466 29.2985 45.4652 29.2347C45.5927 29.2029 45.752 29.2985 45.8157 29.4259ZM26.1239 29.8402C26.0283 29.9995 25.7096 30.1588 25.4866 30.1588C25.1998 30.1588 25.1042 30.35 25.2317 30.7005C25.391 31.0828 25.2954 31.1784 24.9131 31.0191C24.4988 30.8598 24.3714 30.9872 24.3714 31.4652C24.3714 32.0706 24.3395 32.0706 23.6704 31.6245C23.288 31.3378 22.8738 31.1147 22.7782 31.1147C22.6507 31.1147 22.2365 31.7201 21.8223 32.453C21.408 33.2177 20.6433 34.4604 20.1335 35.257L19.1776 36.6909L20.9301 35.0021C22.9375 33.0584 23.5748 33.2177 22.109 35.257L21.1213 36.6272L22.109 35.9261C22.6507 35.5438 23.1605 35.0977 23.2561 34.9384C23.3836 34.7472 23.5748 34.6197 23.766 34.6197C24.2758 34.6197 24.0846 35.4482 23.3836 36.0855C23.0012 36.4041 22.4277 37.1051 22.0453 37.6468L21.3762 38.6027L22.1728 37.9336C22.587 37.5512 23.766 36.7227 24.7856 36.0536C25.7734 35.3845 26.6018 34.7472 26.6018 34.6197C26.6018 34.4923 26.3788 34.2055 26.1239 33.9825C25.869 33.7594 25.6459 33.4726 25.6459 33.3133C25.6459 33.154 25.869 33.0265 26.1239 33.0265C26.3788 33.0265 26.6018 32.8035 26.6018 32.5486C26.6018 32.2618 26.793 32.1662 27.1435 32.2937C27.5259 32.453 27.6215 32.3574 27.4622 31.975C27.3666 31.6883 27.3984 31.3696 27.5578 31.274C27.7489 31.1466 27.8764 33.6001 27.8764 37.8061V44.4975L26.0602 43.6053C25.0405 43.0955 23.4792 42.4264 22.5551 42.1396C18.381 40.7695 17.3613 38.9851 17.3613 33.1221V29.5215H21.8541C24.7537 29.5215 26.2513 29.649 26.1239 29.8402ZM13.4421 30.9872C13.3465 31.0828 13.0597 31.1147 12.8367 31.0191C12.5817 30.9235 12.6773 30.8279 13.0278 30.8279C13.3783 30.7961 13.5695 30.8917 13.4421 30.9872ZM26.7612 31.1147C26.8567 31.274 26.8249 31.4333 26.6337 31.4333C26.4744 31.4333 26.2195 31.274 26.1239 31.1147C26.0283 30.9235 26.0602 30.7961 26.2513 30.7961C26.4107 30.7961 26.6656 30.9235 26.7612 31.1147ZM44.35 30.9872C44.2544 31.0828 43.9676 31.1147 43.7446 31.0191C43.4897 30.9235 43.5853 30.8279 43.9358 30.8279C44.2863 30.7961 44.4775 30.8917 44.35 30.9872ZM25.8371 32.2937C25.6141 32.5167 25.0086 32.0706 25.0086 31.6883C25.0086 31.4971 25.1998 31.4971 25.4866 31.752C25.7734 31.975 25.9008 32.2299 25.8371 32.2937ZM15.099 33.154C15.0671 33.7594 14.5254 34.8109 14.5254 34.333C14.4936 33.9825 14.398 33.9825 13.9837 34.333C13.6332 34.6197 13.5377 35.034 13.6651 35.7031C13.8244 36.436 13.7926 36.5953 13.5058 36.3085C13.219 36.0217 12.9641 36.0536 12.3906 36.436C11.8807 36.7546 11.6258 36.7865 11.6258 36.5634C11.6258 35.8943 12.6455 34.1736 13.4102 33.5682C13.8244 33.2496 14.1749 32.676 14.1749 32.2937C14.2068 31.5927 14.2068 31.5927 14.6529 32.1981C14.9078 32.5486 15.1308 32.9947 15.099 33.154ZM43.9039 33.855C44.4137 34.0462 45.5927 36.436 45.3378 36.7227C45.2422 36.8183 44.9235 36.659 44.6368 36.3722C44.35 36.0855 43.9995 35.958 43.8083 36.0536C43.6171 36.1492 43.4897 35.9261 43.4897 35.4801C43.4897 34.6197 42.5656 33.5364 42.5019 34.333C42.5019 34.5879 42.3426 34.4285 42.1833 33.9825C41.9602 33.4408 41.9602 32.9628 42.2151 32.3893L42.5975 31.5927L43.0117 32.6442C43.2666 33.2177 43.6809 33.7594 43.9039 33.855ZM34.2492 34.7472C34.2492 34.8428 34.1217 35.0021 33.9305 35.0977C33.7712 35.1933 33.6119 35.1295 33.6119 34.9702C33.6119 34.779 33.7712 34.6197 33.9305 34.6197C34.1217 34.6197 34.2492 34.6835 34.2492 34.7472ZM16.8515 36.3722C16.6603 36.8821 16.0868 37.0414 16.0868 36.5953C16.0868 36.2448 16.4373 35.8943 16.7559 35.8943C16.9152 35.8943 16.9471 36.1173 16.8515 36.3722ZM40.9406 36.3722C41.2592 36.7546 41.2592 36.8502 40.8131 36.8502C40.5263 36.8502 40.3033 36.6272 40.3033 36.3722C40.3033 36.1173 40.367 35.8943 40.4307 35.8943C40.4945 35.8943 40.7175 36.1173 40.9406 36.3722ZM14.6848 37.9654C14.3343 39.0807 13.8563 39.2719 13.6014 38.4434C13.5058 38.2203 13.6014 38.1248 13.7607 38.2203C13.9519 38.3478 14.2387 38.061 14.4298 37.6468C14.9715 36.4997 15.099 36.659 14.6848 37.9654ZM42.8524 38.2203C42.8524 38.3478 43.0117 38.3797 43.2029 38.2522C43.4259 38.1248 43.5215 38.2203 43.4259 38.4434C43.1392 39.3037 42.6931 39.0488 42.3107 37.9017C41.9921 36.8183 41.9921 36.7546 42.4063 37.2963C42.6612 37.6468 42.8524 38.061 42.8524 38.2203ZM15.1627 39.1763C14.8441 39.463 14.8122 39.4312 15.0034 38.9851C15.099 38.6664 15.2902 38.5071 15.3858 38.6027C15.4814 38.6983 15.3858 38.9532 15.1627 39.1763ZM42.2151 39.1125C42.2151 39.3037 42.0877 39.3356 41.8965 39.24C41.7372 39.1444 41.5778 38.8895 41.5778 38.7302C41.5778 38.539 41.7372 38.5071 41.8965 38.6027C42.0877 38.6983 42.2151 38.9532 42.2151 39.1125ZM22.8738 42.9999C24.7537 43.7965 26.6656 44.6887 27.1754 45.0073L28.0357 45.6128L26.2832 45.7721C23.7341 45.9951 22.81 45.8358 23.0012 45.1667C23.1924 44.4657 22.4595 43.8602 21.0257 43.5416C20.2928 43.3823 19.9104 43.4142 19.9104 43.6372C19.9104 43.8284 19.7192 43.7328 19.5281 43.446C19.2413 43.0636 18.7633 42.9362 17.8393 42.9999C16.7878 43.0955 16.4054 42.9681 15.6407 42.2033C14.4298 40.9606 14.8759 40.6101 16.1505 41.821C17.0427 42.6494 17.0745 42.6494 16.6284 41.9484C16.1186 41.2155 16.1186 41.1518 16.8196 40.4827L17.5206 39.7817L18.4766 40.7057C19.0182 41.1837 20.9619 42.2352 22.8738 42.9999ZM20.8982 45.3578C21.3124 45.8677 21.2806 45.8995 20.8026 45.4853C20.484 45.2623 20.2291 45.0073 20.2291 44.9436C20.2291 44.6887 20.484 44.848 20.8982 45.3578ZM36.6389 45.4216C36.5434 45.6128 36.2884 45.7721 36.0973 45.7721C35.9061 45.7721 35.9061 45.5809 36.161 45.2941C36.6071 44.7524 36.9895 44.8799 36.6389 45.4216ZM26.6018 48.2256C26.6018 49.2452 26.4425 49.1178 26.1557 47.907C26.0283 47.3015 26.0602 47.0785 26.2832 47.2059C26.4425 47.3015 26.6018 47.7795 26.6018 48.2256ZM28.195 47.9707C28.195 48.9903 27.6215 49.5957 27.2391 48.9903C26.8886 48.4168 27.2391 47.0466 27.7489 47.0466C28.0357 47.0466 28.195 47.3971 28.195 47.9707ZM29.7245 48.0663C29.6608 48.608 29.4059 49.1178 29.1509 49.1815C28.7367 49.309 28.7367 49.2771 29.1509 48.9903C29.5652 48.7035 29.5333 48.608 29.0235 48.2256C28.3862 47.7476 28.5774 47.0466 29.3421 47.0466C29.6926 47.0466 29.7882 47.3334 29.7245 48.0663ZM31.3814 47.9707C31.3814 48.9903 30.8079 49.5957 30.4255 48.9903C30.075 48.4168 30.4255 47.0466 30.9353 47.0466C31.2221 47.0466 31.3814 47.3971 31.3814 47.9707Z" fill="white"/>
<path d="M32.8154 45.135C32.7198 45.2943 32.7517 45.4536 32.9428 45.4536C33.1022 45.4536 33.3571 45.2943 33.4527 45.135C33.5483 44.9438 33.5164 44.8163 33.3252 44.8163C33.1659 44.8163 32.911 44.9438 32.8154 45.135Z" fill="white"/>
<path d="M23.5747 45.135C23.6703 45.2943 23.9252 45.4536 24.0845 45.4536C24.2757 45.4536 24.3075 45.2943 24.2119 45.135C24.1163 44.9438 23.8614 44.8163 23.7021 44.8163C23.5109 44.8163 23.4791 44.9438 23.5747 45.135Z" fill="white"/>
<path d="M27.3984 48.6399C27.494 48.7992 27.6533 48.9585 27.7489 48.9585C27.8127 48.9585 27.8764 48.7992 27.8764 48.6399C27.8764 48.4487 27.7171 48.3212 27.5259 48.3212C27.3666 48.3212 27.3028 48.4487 27.3984 48.6399Z" fill="white"/>
<path d="M28.8325 47.684C28.8325 47.8434 28.9918 48.0027 29.1512 48.0027C29.3423 48.0027 29.4698 47.8434 29.4698 47.684C29.4698 47.4929 29.3423 47.3654 29.1512 47.3654C28.9918 47.3654 28.8325 47.4929 28.8325 47.684Z" fill="white"/>
<path d="M30.585 48.6399C30.6805 48.7992 30.8399 48.9585 30.9355 48.9585C30.9992 48.9585 31.0629 48.7992 31.0629 48.6399C31.0629 48.4487 30.9036 48.3212 30.7124 48.3212C30.5531 48.3212 30.4894 48.4487 30.585 48.6399Z" fill="white"/>
<path d="M40.8134 7.56749C40.3355 8.39595 40.3036 8.619 40.6541 8.84205C41.3551 9.28814 41.7693 9.16069 41.1002 8.71459C40.4629 8.23664 40.9409 7.63122 41.6737 8.04545C41.9287 8.20477 41.9287 8.10918 41.61 7.75868C41.2277 7.24886 41.3551 7.05767 41.9924 7.18513C42.1517 7.21699 42.1836 7.08954 42.0561 6.89835C41.7375 6.35667 41.4188 6.51599 40.8134 7.56749Z" fill="white"/>
<path d="M14.4936 7.21694C14.0793 7.47185 14.1112 7.53558 14.5892 7.53558C14.8759 7.53558 15.1308 7.66304 15.1308 7.79049C15.1308 7.94981 15.3539 8.33218 15.6088 8.68268C16.0868 9.22436 16.0868 9.1925 15.6407 8.30031C15.3857 7.75863 15.2583 7.21694 15.3539 7.08949C15.6725 6.77085 15.0352 6.86644 14.4936 7.21694Z" fill="white"/>
<path d="M42.4699 8.55538C41.992 9.28824 41.992 9.32011 42.9797 9.28824C43.7445 9.28824 43.9675 9.16079 43.9675 8.65097C43.9675 7.75878 43.0435 7.69505 42.4699 8.55538ZM43.8082 8.65097C43.8082 8.90588 43.5852 9.12892 43.3302 9.12892C43.0753 9.12892 42.8523 8.90588 42.8523 8.65097C42.8523 8.39606 43.0753 8.17301 43.3302 8.17301C43.5852 8.17301 43.8082 8.39606 43.8082 8.65097Z" fill="white"/>
<path d="M12.5178 9.82966L12.6772 10.8812L11.9124 10.2439C11.1796 9.63848 11.1796 9.63848 11.9443 10.5307L12.7409 11.4229L12.8365 10.5625C12.9321 9.82966 13.0277 9.76593 13.4738 10.1483C13.8243 10.4351 13.8243 10.3076 13.3782 9.7022C12.5497 8.5551 12.3267 8.58697 12.5178 9.82966Z" fill="white"/>
<path d="M43.9357 10.2123C43.7126 11.1045 43.9676 11.6781 44.5411 11.6462C44.8279 11.6462 44.8279 11.5825 44.5411 11.455C44.0313 11.2638 43.9994 10.3398 44.5092 9.82996C44.796 9.54318 44.796 9.44759 44.5092 9.44759C44.3181 9.44759 44.0631 9.79809 43.9357 10.2123Z" fill="white"/>
<path d="M10.6699 11.0722C10.6699 11.4227 10.7974 11.6139 10.9886 11.5183C11.1797 11.3909 11.594 11.4865 11.8807 11.7095C12.1675 11.9644 12.0719 11.7414 11.6577 11.2634C10.7336 10.2438 10.6699 10.2119 10.6699 11.0722Z" fill="white"/>
<path d="M45.7201 11.5183C45.3058 11.9644 45.1147 12.3149 45.3058 12.3149C45.497 12.3149 45.8794 11.9644 46.1662 11.5183C46.4529 11.0723 46.6441 10.7217 46.5804 10.7217C46.5167 10.7217 46.1343 11.0723 45.7201 11.5183Z" fill="white"/>
<path d="M9.71387 11.5504C9.71387 11.7097 10.0962 12.0921 10.5105 12.4107C11.2433 12.9524 11.3071 12.9524 11.3071 12.4426C11.3071 12.1239 11.2115 11.9965 11.084 12.0921C10.9884 12.2195 10.6061 12.0921 10.2874 11.7734C9.96878 11.4867 9.71387 11.3911 9.71387 11.5504Z" fill="white"/>
<path d="M46.6126 11.901C46.9312 12.0285 46.8994 12.2196 46.4533 12.7613C46.0072 13.303 46.0709 13.2711 46.7719 12.6657C47.8234 11.7098 47.8234 11.678 46.9312 11.7098C46.517 11.7098 46.3895 11.8054 46.6126 11.901Z" fill="white"/>
<path d="M9.36407 12.7295C9.71458 13.1756 9.71458 13.303 9.30035 13.4623C9.01357 13.5579 8.59934 13.5261 8.37629 13.3986C8.08952 13.2074 8.08952 13.303 8.40816 13.7172C8.66307 14.004 9.17289 14.4183 9.52339 14.6094C10.1288 14.9281 10.1607 14.8962 9.7783 14.4501C9.23662 13.8128 9.55526 13.2393 10.2563 13.4942C10.9891 13.781 10.4793 13.0481 9.61898 12.5701C8.98171 12.2515 8.94984 12.2515 9.36407 12.7295Z" fill="white"/>
<path d="M48.1416 12.6657C48.2691 12.8888 48.0142 13.303 47.6 13.6216C47.1857 13.9403 46.9945 14.2271 47.1857 14.2271C47.3769 14.2271 47.7274 14.004 47.9505 13.7491C48.1735 13.4623 48.5877 13.3349 48.8745 13.4305C49.225 13.5579 49.1932 13.4623 48.7471 12.9525C48.1098 12.2515 47.7911 12.0922 48.1416 12.6657Z" fill="white"/>
<path d="M48.5245 14.8007C47.7279 15.3424 47.6642 15.438 48.1103 16.0115C48.5245 16.5851 48.5564 16.5851 48.3652 15.8522C48.2059 15.2149 48.2696 15.1193 48.6839 15.2786C49.0344 15.4061 49.2256 15.3105 49.2256 15.0556C49.2256 14.8007 49.4167 14.5139 49.6398 14.4502C49.831 14.3546 49.8947 14.259 49.7035 14.259C49.5442 14.2271 49.0025 14.482 48.5245 14.8007Z" fill="white"/>
<path d="M7.9619 15.1827C7.8663 15.342 7.54767 15.4058 7.22903 15.3102C6.87853 15.1827 6.97412 15.3739 7.48394 15.7881C7.93003 16.1386 8.43985 16.4573 8.63104 16.4573C9.07713 16.4573 9.4595 15.5651 9.20459 15.1509C8.98154 14.7685 8.21681 14.7685 7.9619 15.1827ZM9.0134 15.5332C8.94968 15.7244 8.75849 15.8519 8.59917 15.8519C8.43985 15.8519 8.24867 15.7244 8.18494 15.5332C8.12122 15.342 8.3124 15.1827 8.59917 15.1827C8.88595 15.1827 9.07713 15.342 9.0134 15.5332Z" fill="white"/>
<path d="M50.5 16.0751C50.5 16.2344 50.1495 16.553 49.7034 16.7761C49.2573 16.9991 48.9705 17.254 49.0342 17.3177C49.098 17.4133 49.5122 17.2859 49.9264 17.0628C50.3088 16.8398 50.7549 16.6805 50.8823 16.7123C51.0098 16.7442 51.0417 16.553 50.9461 16.2981C50.723 15.7883 50.5 15.6608 50.5 16.0751Z" fill="white"/>
<path d="M6.24134 16.2662C6.55997 16.5529 8.43994 17.4132 8.43994 17.2858C8.43994 17.0946 6.68743 16.1387 6.33693 16.1387C6.20947 16.1387 6.17761 16.2024 6.24134 16.2662Z" fill="white"/>
<path d="M6.68657 17.6363C7.22826 18.1461 7.70622 18.5285 7.76994 18.4647C7.99299 18.3373 7.1008 17.3814 6.3998 17.0309C5.92184 16.8078 6.01743 16.999 6.68657 17.6363Z" fill="white"/>
<path d="M5.15748 18.9112C5.06188 19.0705 5.34866 19.6122 5.82662 20.0583L6.68694 20.8867V19.9308C6.68694 18.9112 6.33644 18.6881 6.11339 19.5484C6.0178 20.0264 5.92221 19.9945 5.6673 19.3573C5.50798 18.9112 5.25307 18.72 5.15748 18.9112Z" fill="white"/>
<path d="M51.0411 19.4847L50.1489 20.2812L51.5191 20.2494C52.2838 20.2175 52.5706 20.1219 52.1882 20.0582C51.5828 19.9307 51.5191 19.8033 51.774 19.2935C52.2201 18.5287 52.1245 18.5287 51.0411 19.4847Z" fill="white"/>
<path d="M4.67964 21.0138C5.31691 21.5236 4.93455 22.4158 4.26541 22.0334C3.94677 21.8423 3.9149 21.8741 4.13795 22.129C4.32913 22.3202 4.80709 22.5114 5.25319 22.607C5.69928 22.6707 5.8586 22.6707 5.63555 22.607C4.96641 22.3839 5.34878 21.3962 6.04978 21.4918C6.5596 21.5555 6.59147 21.5236 6.2091 21.2687C5.95419 21.1094 5.38064 20.8863 4.93455 20.7907C4.23354 20.5996 4.20168 20.5996 4.67964 21.0138Z" fill="white"/>
<path d="M51.6148 21.4282C51.105 21.6831 50.9138 21.8106 51.2324 21.715C51.8697 21.5556 51.9016 21.6831 51.4236 22.6071C51.0413 23.3082 51.0413 23.3082 51.7104 22.7027C52.0928 22.3841 52.6026 22.1929 52.8894 22.3204C53.1761 22.416 53.3036 22.3841 53.208 22.1929C53.1124 22.0017 52.7619 21.8743 52.4751 21.8743C51.9972 21.8424 51.9972 21.8106 52.5389 21.3963C53.3355 20.7909 52.8575 20.8228 51.6148 21.4282Z" fill="white"/>
<path d="M3.65967 23.372C3.65967 23.5313 4.04203 23.6588 4.51999 23.6269C5.12541 23.6269 5.44404 23.8181 5.50777 24.2323C5.60336 24.7422 5.47591 24.8059 4.64745 24.6784C4.04203 24.5828 3.75526 24.6466 3.94644 24.8377C4.10576 24.9971 4.55186 25.0608 4.96609 24.9971C5.53964 24.9333 5.73082 24.7103 5.73082 24.1049C5.73082 23.4357 5.5715 23.2764 4.71117 23.2127C4.13763 23.149 3.65967 23.2446 3.65967 23.372Z" fill="white"/>
<path d="M52.3473 23.4038L51.4551 23.4994L52.2198 24.3279C53.0164 25.1882 53.6855 25.0926 53.6855 24.1048C53.6855 23.372 53.4625 23.2445 52.3473 23.4038ZM53.3032 24.1367C53.2395 24.3279 53.0483 24.4553 52.889 24.4553C52.7296 24.4553 52.5384 24.3279 52.4747 24.1367C52.411 23.9455 52.6022 23.7862 52.889 23.7862C53.1757 23.7862 53.3669 23.9455 53.3032 24.1367Z" fill="white"/>
<path d="M3.62768 25.7938C3.787 25.9531 4.29683 26.0168 4.80665 25.9531C5.66697 25.8575 5.63511 25.8257 4.55174 25.6663C3.85073 25.5708 3.46837 25.6345 3.62768 25.7938Z" fill="white"/>
<path d="M51.9021 25.9848C52.0295 26.176 52.4119 26.3353 52.7624 26.3353C53.1129 26.3353 53.3041 26.4946 53.2085 26.6539C53.081 26.8451 52.8898 26.9088 52.7305 26.8132C52.6031 26.7176 52.3163 26.877 52.0932 27.1319C51.5834 27.7373 51.8702 27.7373 53.1129 27.1C54.1644 26.5583 54.0688 26.3671 52.4437 25.8573C51.9339 25.698 51.7746 25.7299 51.9021 25.9848Z" fill="white"/>
<path d="M4.29715 26.6537L3.18192 26.8767L4.23343 26.9405C5.73103 27.0042 5.60357 27.8645 4.07411 28.0238L2.86328 28.1513L4.1697 28.1832C5.41239 28.2469 5.50798 28.1832 5.63544 27.291C5.73103 26.7493 5.69916 26.3669 5.60357 26.3669C5.50798 26.3988 4.90257 26.5262 4.29715 26.6537Z" fill="white"/>
<path d="M52.3479 28.4703C52.7303 28.534 53.3039 28.534 53.6225 28.4703C53.9093 28.3747 53.5906 28.311 52.8896 28.3428C52.1886 28.3428 51.9337 28.4065 52.3479 28.4703Z" fill="white"/>
<path d="M4.16962 29.3941C3.18184 29.9676 3.34116 30.3181 4.77503 30.6368C5.44417 30.7961 5.60349 30.7642 5.28486 30.5412C5.02994 30.35 4.90249 29.9357 5.02994 29.5534C5.12554 29.171 5.1574 28.8842 5.1574 28.8842C5.12554 28.9161 4.67944 29.1392 4.16962 29.3941ZM4.61571 29.8402C4.61571 29.9995 4.3608 30.1588 4.07403 30.1588C3.59607 30.1588 3.56421 30.0951 3.97844 29.8402C4.58385 29.4578 4.61571 29.4578 4.61571 29.8402Z" fill="white"/>
<path d="M52.7304 30.127C52.7304 30.4775 52.4755 30.828 52.1887 30.8917C51.8701 30.9873 52.1887 31.051 52.8898 31.051C53.5908 31.051 53.9094 30.9873 53.6226 30.8917C53.304 30.828 53.0491 30.5412 53.0491 30.3182C53.0491 30.0951 53.304 29.8083 53.6226 29.7446C54.0368 29.6172 53.9731 29.5853 53.4633 29.5534C52.9535 29.5216 52.7304 29.7127 52.7304 30.127Z" fill="white"/>
<path d="M4.29736 31.9751C4.29736 32.3256 4.39295 32.4212 4.55227 32.1981C4.67973 32.0069 4.99837 31.752 5.25328 31.6564C5.57192 31.529 5.50819 31.4653 5.03023 31.4653C4.52041 31.4334 4.29736 31.6246 4.29736 31.9751Z" fill="white"/>
<path d="M52.2202 32.3574C52.7619 32.9628 52.7619 32.9947 52.0291 33.1221C51.4874 33.2177 51.583 33.2815 52.3796 33.3133C53.4311 33.3452 53.4629 33.3133 52.9212 32.7398C52.3796 32.1344 52.3796 32.1025 53.1124 31.975C53.6541 31.8795 53.5585 31.8157 52.7619 31.7839C51.7104 31.752 51.6786 31.7839 52.2202 32.3574Z" fill="white"/>
<path d="M3.97815 33.0268C3.56392 33.3135 3.56392 33.3454 3.97815 33.3135C4.23306 33.2817 4.80661 33.1542 5.25271 33.0268L6.0493 32.7718L5.25271 32.74C4.80661 32.74 4.23306 32.8674 3.97815 33.0268Z" fill="white"/>
<path d="M4.83892 34.8747C4.3291 35.4482 4.3291 35.512 4.87079 35.9899C5.44434 36.4998 5.50806 36.4998 5.98602 35.9581C6.49584 35.3845 6.49584 35.3208 5.95416 34.8428C5.38061 34.333 5.31688 34.333 4.83892 34.8747ZM5.85857 35.7669C5.57179 36.1174 5.38061 36.1493 5.06197 35.8625C4.71147 35.5757 4.6796 35.3845 4.96638 35.0659C5.25315 34.7154 5.44434 34.6835 5.76297 34.9703C6.11348 35.2571 6.14534 35.4482 5.85857 35.7669Z" fill="white"/>
<path d="M51.3604 34.8747C50.8506 35.4483 50.8506 35.512 51.456 36.0537C52.0614 36.6273 52.157 36.6273 52.6669 36.1174C53.0811 35.7032 53.113 35.4483 52.858 35.0341C52.3801 34.2375 51.9659 34.2056 51.3604 34.8747ZM52.3801 35.7988C51.9021 36.3723 51.2967 35.8307 51.5835 35.0978C51.7428 34.6517 51.8703 34.6198 52.2526 34.9385C52.635 35.2571 52.6669 35.4483 52.3801 35.7988Z" fill="white"/>
<path d="M50.0535 37.3602C49.7986 38.0294 49.7667 37.9975 50.4359 37.9975C50.7226 38.0294 51.2643 38.125 51.6148 38.2524L52.2521 38.5073L51.6148 38.125C51.2643 37.9019 50.8182 37.5195 50.627 37.2646C50.3084 36.9141 50.2128 36.9141 50.0535 37.3602Z" fill="white"/>
<path d="M5.89017 37.9974C5.44407 38.2523 5.34848 38.4116 5.66712 38.316C6.3044 38.1248 6.33626 38.2523 5.8583 39.1763C5.5078 39.8455 5.5078 39.8455 6.08135 39.3675C6.39999 39.0489 6.97354 38.7621 7.32404 38.6665C7.89759 38.539 7.89759 38.5072 7.26031 38.4753C6.46372 38.4435 6.27253 37.9655 6.94167 37.7106C7.13286 37.615 7.19658 37.5194 7.0054 37.5194C6.84608 37.5194 6.33626 37.7425 5.89017 37.9974Z" fill="white"/>
<path d="M49.9583 38.8896C50.3407 39.4313 50.2132 39.7181 49.5759 39.7181C49.2254 39.7181 48.8749 39.8455 48.7793 39.973C48.6837 40.1323 49.0661 40.1642 49.6078 40.1004C50.2132 40.0048 50.6593 40.1323 50.8505 40.3872C51.0417 40.674 51.1372 40.7058 51.1372 40.4509C51.1372 40.2279 50.8186 39.7499 50.4362 39.3357C50.022 38.9215 49.799 38.7303 49.9583 38.8896Z" fill="white"/>
<path d="M6.68641 39.7501C6.17659 40.1006 5.95354 40.3555 6.20845 40.3555C6.71828 40.3236 7.99283 39.4951 7.76978 39.2721C7.70606 39.2084 7.2281 39.4314 6.68641 39.7501Z" fill="white"/>
<path d="M7.10157 41.0244C6.3687 41.821 6.75107 41.7892 7.96189 40.9926C8.72663 40.4828 8.79035 40.3553 8.28053 40.3872C7.93003 40.3872 7.38834 40.6739 7.10157 41.0244Z" fill="white"/>
<path d="M48.0788 41.0564C47.9513 41.2795 47.9513 41.3751 48.1106 41.2476C48.2381 41.1201 48.8116 41.2476 49.3533 41.5025L50.3411 41.9805L49.5445 41.3432C48.6204 40.5785 48.3974 40.5466 48.0788 41.0564Z" fill="white"/>
<path d="M7.7707 41.9803C7.16528 42.4901 7.13342 42.5539 7.64324 42.2989C8.72661 41.7573 9.2683 41.3112 8.88593 41.3112C8.66288 41.3112 8.18493 41.5979 7.7707 41.9803Z" fill="white"/>
<path d="M47.632 41.7574C47.632 41.8212 47.7594 42.2673 47.9506 42.7134C48.2692 43.6055 48.0143 43.7967 47.3452 43.1276C46.9947 42.8408 46.9628 42.8408 47.1221 43.1276C47.2496 43.3506 47.632 43.7011 48.0143 43.8923C48.6197 44.211 48.6516 44.1791 48.4604 43.4144C48.2374 42.5222 48.5242 42.331 49.1614 42.9683C49.3845 43.1913 49.5438 43.255 49.5438 43.1595C49.5438 43.032 49.1296 42.6496 48.5879 42.2673C48.0781 41.8849 47.632 41.6619 47.632 41.7574Z" fill="white"/>
<path d="M8.40777 42.5539C7.77049 43.0637 7.73863 43.223 8.08913 43.6691C8.31218 43.9559 8.72641 44.1789 8.94945 44.1789C9.20436 44.1789 9.39555 44.4657 9.39555 44.7843C9.39555 45.1348 9.523 45.4853 9.68232 45.5809C9.84164 45.7084 9.90537 45.5172 9.80978 45.1986C9.74605 44.8799 9.90537 44.402 10.1921 44.1789C10.6701 43.7966 10.7976 43.7966 11.1799 44.3382C11.4348 44.6569 11.626 44.7843 11.626 44.5931C11.626 43.8921 10.7338 43.4779 10.0647 43.8603C9.29996 44.2426 9.1725 43.7966 9.87351 43.223C10.2559 42.9044 10.2877 42.7132 10.001 42.3945C9.523 41.821 9.29996 41.821 8.40777 42.5539ZM9.74605 42.6813C9.71419 43.0637 9.26809 42.9681 9.14064 42.5539C9.04505 42.3627 9.1725 42.2352 9.39555 42.2989C9.58673 42.3945 9.74605 42.5539 9.74605 42.6813ZM9.07691 43.3823C9.07691 43.6372 8.94945 43.8603 8.79013 43.8603C8.3759 43.8603 8.08913 43.3505 8.34404 43.0955C8.69454 42.745 9.07691 42.9044 9.07691 43.3823Z" fill="white"/>
<path d="M45.6238 44.2109C44.6042 45.3898 44.5086 46.2502 45.4327 46.7281C46.1018 47.1105 46.994 46.6963 46.994 45.9952C46.994 45.8041 46.8028 45.9315 46.5479 46.2502C46.1655 46.76 46.0381 46.7918 45.592 46.4413C44.9228 45.8678 44.9547 45.358 45.7194 44.657C46.3249 44.1153 46.3886 44.1153 47.0896 44.6888L47.7906 45.2942L47.0577 44.4658C46.6754 44.0197 46.4523 43.5417 46.5798 43.4461C46.6754 43.3187 46.7072 43.2231 46.6435 43.2231C46.5479 43.2231 46.1018 43.6692 45.6238 44.2109Z" fill="white"/>
<path d="M11.307 45.6129C10.7016 46.2501 10.6378 46.4732 10.9565 46.8556C11.1795 47.1105 11.5938 47.2379 11.8487 47.1423C12.2629 46.983 12.3266 47.0786 12.1354 47.5566C11.9443 48.0345 11.9761 48.0982 12.2948 47.7477C12.932 47.1423 13.2825 47.3016 13.0595 48.0664C12.8683 48.7674 12.9002 48.7674 13.2507 48.162C13.4419 47.8115 13.8561 47.3335 14.1429 47.0786C14.589 46.7281 14.5571 46.6962 13.888 46.8874C13.2188 47.0786 13.1551 47.0467 13.3463 46.5369C13.5693 45.9634 13.5375 45.9634 13.0276 46.4732C12.486 46.983 12.4541 46.983 12.1036 46.3139C11.8487 45.8678 11.8487 45.4854 12.0399 45.1986C12.5497 44.5295 12.0717 44.7844 11.307 45.6129ZM11.7849 46.7281C11.6256 46.983 11.4344 46.983 11.2433 46.7918C11.0521 46.6006 11.0202 46.282 11.1477 46.0908C11.307 45.8359 11.4982 45.8359 11.6894 46.0271C11.8805 46.2183 11.9124 46.5369 11.7849 46.7281Z" fill="white"/>
<path d="M43.9359 46.6009C43.9359 46.9514 43.7128 47.1744 43.2668 47.2063C42.2471 47.27 42.1834 47.4293 42.8844 48.2896C43.203 48.7039 43.4898 48.8632 43.4898 48.7039C43.4898 48.5127 43.3623 48.2578 43.1712 48.1622C43.0118 48.0666 42.8525 47.8117 42.8525 47.6205C42.8525 47.4293 43.2349 47.5886 43.7128 48.0347C44.1908 48.449 44.382 48.5445 44.1271 48.2259C43.7447 47.7161 43.7447 47.5886 44.1271 47.3656C44.4139 47.2063 44.7644 47.2381 45.0511 47.4612C45.306 47.6842 45.2423 47.4612 44.9237 46.9832C44.1908 45.9954 43.8722 45.868 43.9359 46.6009Z" fill="white"/>
<path d="M14.2067 48.2893L13.5376 49.2134L14.1749 49.0541C14.5572 48.9585 14.7803 48.7991 14.6847 48.7036C14.5891 48.6398 14.6528 48.2893 14.844 47.9707C15.322 47.0466 14.9396 47.2378 14.2067 48.2893Z" fill="white"/>
<path d="M39.9529 48.385C39.6024 48.6399 39.6343 48.6399 40.1123 48.5124C40.6539 48.3212 40.6858 48.4487 40.5265 49.4365C40.4309 50.0419 40.4946 50.6154 40.6539 50.711C40.8133 50.8385 40.9407 50.4561 40.9407 49.8826C40.9407 48.8948 40.9726 48.8629 41.4187 49.4683C41.8648 50.0419 41.8966 50.01 41.5461 49.2134C41.1 48.2257 40.5902 47.9389 39.9529 48.385Z" fill="white"/>
<path d="M15.2268 48.5125C15.3224 48.64 15.2906 49.0223 15.0994 49.3728C14.8445 49.8189 14.8445 49.9464 15.0994 49.7871C15.2906 49.6596 15.6092 49.2772 15.7685 48.9267C16.0553 48.4488 15.9916 48.3213 15.5773 48.3213C15.2587 48.3213 15.1313 48.4169 15.2268 48.5125Z" fill="white"/>
<path d="M16.0551 49.1815C15.3859 50.5517 15.3541 50.7429 15.8002 50.2968C16.5012 49.6276 17.1066 49.8188 16.8835 50.6154C16.7242 51.1252 16.8835 51.0296 17.3296 50.2968C18.1581 49.0222 18.1581 48.8629 17.3933 49.2771C16.5012 49.7551 16.3418 49.6914 16.5649 48.9585C16.8517 48.0344 16.5968 48.1619 16.0551 49.1815Z" fill="white"/>
<path d="M39.666 49.2454C39.666 49.4047 39.8253 49.6596 39.9847 49.7552C40.1758 49.8508 40.3033 49.8189 40.3033 49.6277C40.3033 49.4684 40.1758 49.2135 39.9847 49.1179C39.8253 49.0223 39.666 49.0542 39.666 49.2454Z" fill="white"/>
<path d="M39.0601 49.5959C39.0601 49.8509 39.2512 50.3607 39.5062 50.6793C40.1116 51.4759 40.1116 50.9661 39.5062 49.9146C39.2512 49.4685 39.0601 49.3092 39.0601 49.5959Z" fill="white"/>
<path d="M18.9225 50.743C18.7632 51.221 18.6995 51.6671 18.7632 51.7627C18.8588 51.8264 19.0181 51.5078 19.1456 51.0617C19.273 50.4881 19.5279 50.2332 19.8784 50.3288C20.3882 50.4244 20.4201 50.5837 20.0696 51.6671C19.9422 52.1132 20.0059 52.0494 20.3564 51.5078L20.8343 50.7112L20.7706 51.6352C20.675 52.7504 21.5353 53.4196 22.2682 52.8142C22.555 52.5593 22.778 52.145 22.778 51.8264C22.778 51.1254 21.9814 50.4244 21.5035 50.7112C21.3442 50.8068 20.9618 50.6793 20.675 50.4244C19.9422 49.6915 19.3049 49.819 18.9225 50.743ZM22.3957 51.7627C22.5231 52.5593 21.6628 53.0691 21.1211 52.5274C20.8981 52.3044 20.9299 51.9857 21.1848 51.5078C21.6309 50.6793 22.2682 50.8068 22.3957 51.7627Z" fill="white"/>
<path d="M38.1364 50.775C38.5825 51.9859 39.0286 52.1452 39.0286 51.1255C39.0286 50.7432 38.933 50.552 38.8056 50.6476C38.71 50.775 38.4232 50.6157 38.2002 50.2971C37.8496 49.851 37.8496 49.9147 38.1364 50.775Z" fill="white"/>
<path d="M37.2449 50.6156C37.468 51.3484 36.5758 51.6034 36.1615 50.9342C35.8748 50.4881 35.8429 50.5518 36.0341 51.1891C36.1297 51.6352 36.3846 52.2088 36.5439 52.4637C36.7988 52.846 36.7988 52.846 36.6714 52.3681C36.4483 51.6671 37.3724 51.221 37.7866 51.8583C37.9459 52.1132 38.0734 52.145 38.0415 51.9857C38.0415 51.7945 37.8185 51.3166 37.5635 50.8705C37.3086 50.4244 37.1493 50.3288 37.2449 50.6156Z" fill="white"/>
<path d="M35.3323 51.2525C35.5872 52.0491 34.8543 52.3359 34.3445 51.6668C33.8984 50.9976 33.7709 51.4119 34.217 52.1129C34.3764 52.3678 34.7269 52.4634 34.9818 52.3678C35.2685 52.2722 35.5553 52.3359 35.6509 52.559C35.7146 52.782 35.8102 52.6545 35.8102 52.304C35.8102 51.9535 35.6828 51.4437 35.4916 51.1888C35.2048 50.7746 35.1729 50.8064 35.3323 51.2525Z" fill="white"/>
<path d="M23.4152 52.0176C23.224 52.4955 22.9691 53.0372 22.8735 53.2284C22.7461 53.4196 22.9054 53.3877 23.1922 53.1328C23.4789 52.9098 23.7338 52.4318 23.7338 52.1132C23.7338 51.2529 24.3074 51.3484 24.4667 52.2088C24.626 52.8779 24.626 52.8779 24.5942 52.1769C24.4986 51.0617 23.7976 50.9661 23.4152 52.0176Z" fill="white"/>
<path d="M33.3569 51.5078C33.3569 51.7627 33.4844 52.3363 33.6118 52.7824C33.803 53.4196 33.8668 53.4515 33.8668 52.9417C33.8668 52.5912 33.7712 52.0176 33.6118 51.6671C33.4525 51.2848 33.3569 51.221 33.3569 51.5078Z" fill="white"/>
<path d="M25.1359 51.9537C25.0404 52.2086 25.0085 52.7503 25.0722 53.1645C25.1678 53.7062 25.2315 53.5787 25.359 52.6865C25.5183 51.4757 25.4227 51.1889 25.1359 51.9537Z" fill="white"/>
<path d="M26.2199 52.7821C26.2836 53.4831 26.3792 54.0566 26.4429 54.0566C26.5066 54.0566 26.6022 53.4831 26.666 52.7821C26.7297 52.0174 26.6341 51.5075 26.4429 51.5075C26.2517 51.5075 26.1561 52.0174 26.2199 52.7821Z" fill="white"/>
<path d="M31.4136 52.1447C31.4136 52.5908 31.541 53.1644 31.7322 53.4193C32.019 53.8335 32.0509 53.8016 31.8915 53.3237C31.7641 52.9413 31.8915 52.782 32.3376 52.782C32.6563 52.782 33.0068 53.0369 33.0705 53.3237C33.198 53.8016 33.2298 53.8016 33.2298 53.26C33.2298 52.9095 33.1342 52.3359 32.9749 51.9854C32.7519 51.4437 32.6881 51.4437 32.6881 51.8898C32.6563 52.2085 32.4651 52.4634 32.2102 52.4634C31.9553 52.4634 31.6685 52.2085 31.6048 51.8898C31.5092 51.5393 31.4454 51.603 31.4136 52.1447Z" fill="white"/>
<path d="M27.5571 52.846C27.5571 53.9612 27.6209 54.0568 28.4493 54.0249C29.214 53.9612 29.2459 53.9612 28.5768 53.8337C28.0351 53.7381 27.8439 53.5151 27.9714 53.1009C28.0351 52.7822 28.0032 52.3361 27.8439 52.1131C27.6527 51.8263 27.5571 52.0812 27.5571 52.846Z" fill="white"/>
<path d="M29.5972 52.9417C29.5972 53.7701 29.6609 53.9294 29.8839 53.5789C30.107 53.1328 30.2344 53.1328 30.6805 53.4833C31.1585 53.8338 31.1585 53.8338 30.808 53.3878C30.5849 53.101 30.4894 52.5912 30.6168 52.2725C30.7761 51.7627 30.7443 51.7627 30.4575 52.1451C30.2026 52.5274 30.0433 52.5274 29.8521 52.2407C29.6928 51.9857 29.5972 52.2725 29.5972 52.9417Z" fill="white"/>
</svg>
