<svg width="120" height="22" viewBox="0 0 120 22" fill="none" xmlns="http://www.w3.org/2000/svg">
<path d="M7.89997 1.09875C7.36664 1.62875 7.69997 2.25812 8.4333 2.15875C8.8333 2.0925 9.16664 1.8275 9.16664 1.5625C9.16664 1.0325 8.29997 0.734372 7.89997 1.09875Z" fill="white"/>
<path d="M9.93312 1.92695C9.19979 2.32445 9.16646 3.08632 9.79979 3.3182C10.4998 3.5832 11.4665 2.75507 11.2331 2.09257C10.9998 1.49632 10.7331 1.43007 9.93312 1.92695Z" fill="white"/>
<path d="M4.60001 3.84817C-1.86666 7.92254 -1.29999 17.6282 5.60001 21.0069C8.06668 22.1994 11.6667 22.2988 14.0333 21.2057C17.4333 19.6819 19.7667 16.2369 19.8 12.7257C19.8333 11.0694 19.7 10.6719 19.0333 10.1419C18.2667 9.51254 16.8667 9.31379 15.8333 9.71129C15.1 10.0094 14.3333 11.5994 14.3333 12.8582C14.3333 13.62 14 14.2163 13.0333 15.1769C11.9 16.3032 11.5667 16.4688 10.1667 16.4688C7.40001 16.4688 5.66668 14.8125 5.66668 12.1625C5.66668 10.3738 6.43334 9.08191 8.06668 8.18754C10.1667 7.02816 10.6333 5.14004 9.16668 3.71567C8.06668 2.58942 6.53334 2.62254 4.60001 3.84817Z" fill="white"/>
<path d="M10.6664 4.04702C10.3331 4.44452 10.3331 4.6764 10.6331 4.97452C11.0998 5.43827 12.0998 4.90827 12.2664 4.08015C12.3998 3.38452 11.2331 3.3514 10.6664 4.04702Z" fill="white"/>
<path d="M28.8332 4.94138C28.7332 5.20638 28.6999 8.65138 28.7332 12.6595L28.8332 19.947L30.7665 20.0464L32.6665 20.1458V15.3426C32.6665 12.6926 32.7999 10.4733 32.9332 10.3739C33.0999 10.2745 33.9332 12.4276 34.8332 15.177L36.4665 20.1126H38.1999H39.9332L41.4999 15.3758C42.3665 12.792 43.1999 10.5395 43.3665 10.3408C43.5332 10.1751 43.6665 12.1958 43.6665 15.0776V20.1126H45.6665H47.6665L47.5999 12.3945L47.4999 4.7095H44.6665H41.8332L40.2665 9.18138C39.4332 11.6326 38.6332 13.9514 38.4999 14.3158C38.3665 14.7795 37.7665 13.4876 36.5332 9.84388L34.7665 4.7095L31.8999 4.61013C29.7332 4.54388 28.9332 4.64325 28.8332 4.94138Z" fill="white"/>
<path d="M76.3335 12.3283V20.1458L78.2668 20.0464L80.1668 19.947L80.2668 17.7608L80.3668 15.5745L83.0002 15.3758C86.2668 15.177 87.5668 14.4814 88.6002 12.4939C90.0002 9.81075 89.1668 6.86263 86.6335 5.372C85.6668 4.80888 84.7668 4.67638 80.9335 4.61013L76.3335 4.47763V12.3283ZM84.5002 8.6845C85.5002 9.64513 85.5335 10.1751 84.7335 11.1689C84.2668 11.7651 83.6668 11.9639 82.2335 12.0964L80.3335 12.2289V10.0426V7.85638H82.0002C83.3668 7.85638 83.8668 8.022 84.5002 8.6845Z" fill="white"/>
<path d="M10.4668 6.23315C10.1668 6.73003 10.8668 7.32628 11.4668 7.0944C11.7668 6.9619 12.0001 6.66378 12.0001 6.36565C12.0001 5.80253 10.8335 5.67003 10.4668 6.23315Z" fill="white"/>
<path d="M52.0998 8.94932C50.4332 9.57869 50.2665 9.87681 51.0665 11.1024C51.6998 12.0962 51.8998 12.1956 52.7998 11.9968C55.4998 11.4337 55.8998 11.4337 56.4332 11.9968C57.5332 13.0568 57.1332 13.4874 55.0998 13.4874C51.0998 13.5206 48.9998 15.5412 50.1332 18.2243C50.9998 20.3443 53.6998 21.0399 56.0998 19.7812C57.1332 19.2181 57.3332 19.2181 57.3332 19.6156C57.3332 20.0131 57.7665 20.1124 59.1665 20.1124H60.9998V16.3031C60.9998 10.0756 59.8665 8.48557 55.4665 8.55182C54.1998 8.55182 52.6998 8.75056 52.0998 8.94932ZM56.9998 16.3031C56.9998 17.2968 56.0332 17.8599 54.5665 17.7274C53.7665 17.6612 53.4665 17.4624 53.3998 16.8993C53.2998 16.3031 53.5332 16.1043 54.3998 15.8393C56.3998 15.2762 56.9998 15.3756 56.9998 16.3031Z" fill="white"/>
<path d="M66.5001 8.98254C63.6334 10.2744 62.2334 13.7194 63.3668 16.7007C64.5668 19.8475 68.9001 21.3382 72.2334 19.7482C74.3668 18.7213 74.5668 18.0588 73.1334 17.065L71.9668 16.2369L70.7001 16.8663C68.5334 17.9263 67.0001 16.8663 67.0001 14.3157C67.0001 13.4875 67.2668 12.8913 67.8334 12.3282C68.7668 11.3675 69.4334 11.3013 70.8001 11.9969C72.0334 12.6594 72.1001 12.6263 73.3334 11.6325C74.1668 10.9369 74.2668 10.6719 73.9334 10.2744C72.6334 8.68441 68.7001 8.02192 66.5001 8.98254Z" fill="white"/>
<path d="M92.2668 9.08181C90.8335 9.64493 90.7668 9.84368 91.5668 11.2018C92.2335 12.2949 92.2002 12.2949 94.2002 11.7981C96.0002 11.3343 97.3335 11.7649 97.3335 12.8249C97.3335 13.3881 97.1335 13.4874 95.7335 13.4874C92.3002 13.4874 90.3335 14.7131 90.3335 16.8662C90.3335 18.5224 90.7668 19.3174 92.0002 19.9468C93.3002 20.6093 94.9335 20.5762 96.4335 19.8143C97.4002 19.3174 97.6668 19.2843 97.6668 19.6487C97.6668 19.9799 98.1668 20.1124 99.5002 20.1124H101.333V16.1374C101.333 11.5331 100.933 10.2081 99.2668 9.18118C97.9002 8.35306 94.1335 8.28681 92.2668 9.08181ZM97.3335 16.3031C97.3335 17.2968 96.3668 17.8599 94.9002 17.7274C94.1002 17.6612 93.8002 17.4624 93.7335 16.8993C93.6335 16.3031 93.8668 16.1043 94.7335 15.8393C96.7335 15.2762 97.3335 15.3756 97.3335 16.3031Z" fill="white"/>
<path d="M102.667 9.01572C102.667 9.51259 104.533 18.4895 104.867 19.5495C105.033 20.0463 105.367 20.1126 107.233 20.0463L109.433 19.947L110.333 16.8001C110.867 15.0113 111.333 13.8851 111.467 14.1501C111.567 14.4151 112 15.8395 112.4 17.297L113.167 19.947L115.433 20.0463C116.667 20.1126 117.667 20.0795 117.667 19.9801C117.667 19.8807 118.2 17.3963 118.833 14.4482C119.533 11.3345 119.9 8.94947 119.733 8.78384C119.567 8.61822 118.7 8.51884 117.8 8.58509L116.167 8.68447L115.7 12.2288C115.467 14.2163 115.167 15.8063 115.033 15.8063C114.9 15.8063 114.533 14.6801 114.2 13.2888C112.967 8.08822 113.2 8.48572 111.233 8.58509L109.533 8.68447L108.767 11.8313C107.533 16.8001 107.533 16.8001 107 13.1563C106.267 7.98884 106.533 8.51884 104.5 8.51884C103.1 8.51884 102.667 8.65134 102.667 9.01572Z" fill="white"/>
</svg>
