<svg width="148" height="42" viewBox="0 0 148 42" fill="none" xmlns="http://www.w3.org/2000/svg">
<g clip-path="url(#clip0_1372_379)">
<path d="M20.35 41.625C31.589 41.625 40.7 32.3909 40.7 21C40.7 9.60913 31.589 0.375 20.35 0.375C9.111 0.375 0 9.60913 0 21C0 32.3909 9.111 41.625 20.35 41.625Z" fill="white"/>
<path fill-rule="evenodd" clip-rule="evenodd" d="M7.11328 30.5766L26.175 11.417H12.2506L7.11328 16.5854H13.7697L7.11328 23.2743V30.5766ZM16.2916 25.1079L29.9133 11.417H33.5883V30.5829H28.3375V20.3036L19.9034 28.7749L16.2916 25.1079Z" fill="black"/>
<path d="M57.0099 16.0801C56.1219 16.0801 55.5447 16.4551 55.2487 16.7551L54.8491 18.4801C54.6567 17.0251 53.6799 16.0801 52.2591 16.0801C51.2823 16.0801 50.7643 16.5001 50.5127 16.7551L50.0687 18.5401V16.3501H48.3667V24.1501H50.0687V19.8901C50.0983 18.5401 50.6459 17.6551 51.7411 17.6551C52.9251 17.6551 53.1915 18.7351 53.1915 19.4551V24.1501H54.8935V19.8301C54.8935 18.4651 55.4411 17.6551 56.5511 17.6551C57.4983 17.6551 58.0163 18.2401 58.0163 19.4401V24.1501H59.7183V19.1401C59.7183 17.1451 58.6823 16.0801 57.0099 16.0801Z" fill="white"/>
<path d="M61.5894 13.125V14.94H63.4246V13.125H61.5894ZM61.6634 16.35V24.15H63.3654V16.35H61.6634Z" fill="white"/>
<path d="M71.2829 16.3501V17.2201C70.6909 16.5301 69.8325 16.0801 68.7373 16.0801C66.4285 16.0801 64.9189 17.8051 64.9189 20.0551C64.9189 22.2751 66.4285 23.9851 68.7373 23.9851C69.6401 23.9851 70.4245 23.6251 70.7501 23.3401L71.2829 21.3451V23.8351C71.2829 25.2451 70.3505 26.1301 68.8705 26.1301C67.6273 26.1301 66.7837 25.5451 66.4137 24.4051L64.9633 25.3651C65.5553 26.8201 66.8873 27.6001 68.8557 27.6001C71.3865 27.6001 72.9849 26.1901 72.9849 23.9401V16.3501H71.2829ZM69.0333 22.4101C67.5977 22.4101 66.6801 21.4201 66.6801 20.0551C66.6801 18.6601 67.5977 17.6401 69.0333 17.6401C70.4097 17.6401 71.3421 18.6151 71.3421 20.0551C71.3421 21.4201 70.4097 22.4101 69.0333 22.4101Z" fill="white"/>
<path d="M79.2068 16.08C78.1708 16.08 77.5936 16.455 77.194 16.92L76.7796 18.63V13.125H75.0776V24.15H76.7796V19.995C76.7796 18.51 77.5048 17.67 78.7036 17.67C79.8728 17.67 80.3908 18.315 80.3908 19.725V24.15H82.0928V19.485C82.0928 17.295 81.0864 16.08 79.2068 16.08Z" fill="white"/>
<path d="M88.6541 17.8349V16.3499H86.4637V13.4099L84.7617 14.6999V16.3499H83.3853V17.8349H84.7617V21.8549C84.7617 23.6399 85.6793 24.3449 87.3517 24.3449C87.6033 24.3449 88.2841 24.2849 88.5357 24.1799V22.6649C88.2841 22.7249 87.8401 22.7849 87.6033 22.7849C86.8337 22.7849 86.4637 22.5899 86.4637 21.6299V17.8349H88.6541Z" fill="white"/>
<path d="M95.7278 16.3501L93.5966 21.9451L91.3766 16.3501H89.4526L92.6642 24.0301L91.3322 27.3751H93.1674L97.6074 16.3501H95.7278Z" fill="white"/>
<path d="M98.2847 22.05V24.15H100.342V22.05H98.2847Z" fill="white"/>
<path d="M111.203 24.15L110.033 20.715V13.125H108.331V17.295C107.725 16.56 106.837 16.08 105.653 16.08C103.329 16.08 101.76 17.895 101.76 20.25C101.76 22.59 103.344 24.375 105.653 24.375C106.896 24.375 107.769 23.895 108.331 23.205L108.479 21.255L109.397 24.15H111.203ZM105.963 22.8C104.513 22.8 103.521 21.735 103.521 20.25C103.521 18.735 104.513 17.64 105.963 17.64C107.355 17.64 108.391 18.72 108.391 20.25C108.391 21.765 107.355 22.8 105.963 22.8Z" fill="white"/>
<path d="M112.436 13.125V14.94H114.271V13.125H112.436ZM112.51 16.35V24.15H114.212V16.35H112.51Z" fill="white"/>
<path d="M122.13 16.3501V17.2201C121.538 16.5301 120.679 16.0801 119.584 16.0801C117.275 16.0801 115.766 17.8051 115.766 20.0551C115.766 22.2751 117.275 23.9851 119.584 23.9851C120.487 23.9851 121.271 23.6251 121.597 23.3401L122.13 21.3451V23.8351C122.13 25.2451 121.197 26.1301 119.717 26.1301C118.474 26.1301 117.63 25.5451 117.26 24.4051L115.81 25.3651C116.402 26.8201 117.734 27.6001 119.702 27.6001C122.233 27.6001 123.832 26.1901 123.832 23.9401V16.3501H122.13ZM119.88 22.4101C118.444 22.4101 117.527 21.4201 117.527 20.0551C117.527 18.6601 118.444 17.6401 119.88 17.6401C121.256 17.6401 122.189 18.6151 122.189 20.0551C122.189 21.4201 121.256 22.4101 119.88 22.4101Z" fill="white"/>
<path d="M125.775 13.125V14.94H127.611V13.125H125.775ZM125.849 16.35V24.15H127.551V16.35H125.849Z" fill="white"/>
<path d="M134.182 17.8349V16.3499H131.991V13.4099L130.289 14.6999V16.3499H128.913V17.8349H130.289V21.8549C130.289 23.6399 131.207 24.3449 132.879 24.3449C133.131 24.3449 133.812 24.2849 134.063 24.1799V22.6649C133.812 22.7249 133.368 22.7849 133.131 22.7849C132.361 22.7849 131.991 22.5899 131.991 21.6299V17.8349H134.182Z" fill="white"/>
<path d="M144.72 24.1501L143.551 20.7001V16.3501H141.849V17.2951C141.242 16.5601 140.354 16.0801 139.17 16.0801C136.846 16.0801 135.277 17.8951 135.277 20.2501C135.277 22.5901 136.861 24.3751 139.17 24.3751C140.413 24.3751 141.286 23.8951 141.849 23.2051L141.997 21.2551L142.914 24.1501H144.72ZM139.481 22.8001C138.03 22.8001 137.039 21.7351 137.039 20.2501C137.039 18.7351 138.03 17.6401 139.481 17.6401C140.872 17.6401 141.908 18.7201 141.908 20.2501C141.908 21.7651 140.872 22.8001 139.481 22.8001Z" fill="white"/>
<path d="M146.101 13.125V24.15H147.803V13.125H146.101Z" fill="white"/>
</g>
<defs>
<clipPath id="clip0_1372_379">
<rect width="148" height="42" fill="white"/>
</clipPath>
</defs>
</svg>
