<svg width="174" height="62" viewBox="0 0 174 62" fill="none" xmlns="http://www.w3.org/2000/svg">
<g clip-path="url(#clip0_1641_2)">
<mask id="mask0_1641_2" style="mask-type:luminance" maskUnits="userSpaceOnUse" x="0" y="0" width="174" height="62">
<path d="M0 0H174V62H0V0Z" fill="white"/>
</mask>
<g mask="url(#mask0_1641_2)">
<path d="M0.125965 42.508C0.125965 44.7526 -0.228058 46.9904 1.87565 47.8896L24.6477 61.1534C25.2219 61.7479 27.3347 62.7179 29.2398 61.1534L52.6689 47.916C53.6311 47.051 53.8421 45.6256 53.8569 44.0531V17.122C53.8365 15.6385 53.2067 14.3307 51.6851 13.283L29.5223 0.465717C28.0904 -0.218975 25.5509 -0.0889969 24.1836 0.465717L2.0572 13.4816C0.128234 14.6387 0.128234 15.4958 0.128234 17.123L0.125965 42.508Z" fill="#000816"/>
<path d="M24.8345 2.4454C24.8345 2.4454 26.2506 1.7607 26.6886 2.52528C26.751 3.91064 26.6886 9.80127 26.6886 9.80127L19.582 5.579L24.8345 2.4454Z" fill="white"/>
<path d="M19.582 15.6121L26.7158 11.5256V19.864L19.582 15.6121Z" fill="white"/>
<path d="M18.9668 26.9633L25.944 30.8432C25.944 30.8432 26.7167 31.6295 26.7167 31.9992V40.0889L18.9668 35.7183V26.9633Z" fill="white"/>
<path d="M18.9668 37.1583L26.7167 41.4924V50.4082L18.9668 46.1152V37.1583Z" fill="white"/>
<path d="M18.9668 47.189L26.7167 51.6053V59.0354C26.7167 59.0354 26.5601 60.5189 25.1645 59.6949C23.7688 58.871 18.9668 55.9805 18.9668 55.9805V47.189Z" fill="white"/>
<path d="M10.2246 50.9035L17.8588 55.3608V46.6105L10.2246 42.1531V50.9035Z" fill="white"/>
<path d="M10.2246 40.8738L17.8588 45.249V36.3332L10.2246 31.9991V40.8738Z" fill="white"/>
<path d="M10.2246 30.6365L17.8588 35.0117V26.3447L10.2246 21.8451V30.6365Z" fill="white"/>
<path d="M10.8818 20.9367L18.3923 25.3838L25.9845 20.9367L18.4332 16.3139L10.8818 20.9367Z" fill="white"/>
<path d="M9.69132 20.1528L17.2835 15.6955L9.69132 11.1138L3.12374 15.0758C3.12374 15.0758 2.59044 15.9009 3.12374 16.314C3.65705 16.7271 9.69132 20.1528 9.69132 20.1528Z" fill="white"/>
<path d="M10.8818 10.6596L18.4332 15.1169L25.9845 10.6596L18.4332 6.16003L10.8818 10.6596Z" fill="white"/>
<path d="M1.52441 17.9241C1.52441 17.9241 1.87049 17.0111 2.88604 17.4288C3.90159 17.8465 9.15747 21.1433 9.15747 21.1433V29.8982L1.52441 25.596V17.9241Z" fill="white"/>
<path d="M1.52441 26.9633L9.15747 31.132V40.0889L1.52441 35.7548V26.9633Z" fill="white"/>
<path d="M1.52346 36.9941L9.15764 41.4925V50.1653L2.46752 46.445C1.87373 46.0335 1.52051 45.3536 1.52346 44.6283V36.9941Z" fill="white"/>
<path d="M27.6266 12.6818C27.6266 14.1379 30.4996 15.117 30.9104 12.6818C30.9376 8.96731 30.9104 7.2339 30.9104 7.2339L31.8182 7.56369V19.2856C32.1915 21.8452 35.1791 21.8452 35.1746 19.2856V7.81132C35.1746 7.81132 35.338 6.07791 33.8606 5.08739C32.3832 4.09687 28.8532 2.16147 28.8532 2.16147C28.8532 2.16147 27.6221 1.86934 27.6221 3.35398L27.6266 12.6818Z" fill="white"/>
<path d="M32.7041 23.3584L36.4645 21.205V9.07684C36.5189 7.97677 37.8193 7.39592 39.1457 8.08632L50.9113 14.8556C50.9113 14.8556 52.0608 15.9009 50.9113 16.5617C49.7619 17.2224 43.36 21.205 43.36 21.205C43.36 21.205 41.0066 21.8452 40.8966 19.8642C40.8269 18.8003 40.8269 17.7328 40.8966 16.6689C40.8966 15.6921 42.7177 14.0568 44.0737 16.5548C44.7295 16.3072 45.441 15.6259 45.441 15.6259L39.527 12.2025V21.1936C39.5599 22.3131 39.5508 22.9498 38.6555 23.5957L35.8687 25.2002L32.7041 23.3584Z" fill="white"/>
<path d="M27.5176 44.5222C27.5176 45.9019 30.4995 46.1917 30.773 44.5222V39.7476C30.773 39.7476 28.3323 41.0371 27.563 41.5894C27.5289 43.162 27.5176 44.5222 27.5176 44.5222Z" fill="white"/>
<path d="M32.7981 38.6236C31.0461 40.0889 32.6846 42.1533 34.6033 41.327L38.3796 39.1257C39.3327 38.441 39.6141 38.1557 39.6924 36.9941V28.1193L40.9519 27.4745V38.9056L33.564 43.1986C33.564 43.1986 32.0537 43.784 32.0889 45.5106C32.056 47.1892 32.0889 51.0131 32.0889 51.0131C32.056 51.7287 32.7595 52.5959 33.7909 51.7845C34.9778 50.5475 47.7998 43.784 47.7998 43.784C49.5506 42.3597 47.7862 40.0889 46.3247 40.8877L35.5451 47.1892L35.4317 45.8402L43.202 41.383C43.202 41.383 44.0496 40.915 44.0224 39.0709C43.9248 36.8709 44.078 23.6071 44.078 23.6071C44.078 23.6071 43.9135 22.175 42.4361 22.7262C40.9769 23.4749 37.2506 25.9454 36.8546 26.0835C36.5732 26.3415 36.5062 26.6015 36.471 27.4745C36.5448 28.9432 36.3576 36.4965 36.3576 36.4965L32.7981 38.6236Z" fill="white"/>
<path d="M49.6259 19.2445C49.8302 17.761 52.5398 17.6355 52.8269 19.2445V28.7378C52.8269 28.7378 52.8087 30.4301 51.4221 31.5451C50.538 32.2416 49.5619 32.8111 48.5219 33.2375V34.5589L51.0182 33.1142C51.0182 33.1142 52.6192 32.5767 52.5784 33.5261C52.5375 34.4755 52.5784 44.6706 52.5784 44.6706C52.5784 44.6706 52.373 45.9088 51.758 46.3629C51.143 46.8172 46.7915 49.3767 46.7915 49.3767C44.9034 50.2017 43.4668 47.7665 45.2313 46.6105L49.5431 44.1342V37.6947L46.7938 39.305C46.7938 39.305 45.3187 39.8834 45.2336 38.603C45.1485 37.3227 45.2336 21.9274 45.2336 21.9274C45.4798 20.235 48.0703 19.8642 48.5242 21.8452V29.2718L49.5862 28.4901L49.6259 19.2445Z" fill="white"/>
<path d="M27.6265 47.5189C28.3186 45.6702 30.8286 45.7856 30.9102 47.5189V54.7835L41.5763 48.7159C44.1521 47.8932 44.7364 50.4083 42.8494 51.4399L29.1458 59.6128C29.1458 59.6128 27.6128 60.6033 27.5175 59.283C27.4222 57.9628 27.6265 47.5189 27.6265 47.5189Z" fill="white"/>
<path d="M71.8363 38.0437H68.6172L63.6381 14.0019V38.0872H60.7197V7.87398H65.398L70.3339 32.0025L75.0974 7.87398H79.7757V38.0872H76.5986V13.7863L71.8363 38.0437Z" fill="white"/>
<path d="M88.4058 30.9652C88.4058 32.346 88.6993 33.4179 89.2863 34.181C89.8734 34.944 90.7674 35.3244 91.9686 35.3221C93.1972 35.3221 94.0982 34.9418 94.6715 34.181C95.2449 33.4202 95.5313 32.3483 95.5305 30.9652V14.9891C95.5305 13.6083 95.2442 12.5363 94.6715 11.7733C94.0989 11.0102 93.1979 10.6299 91.9686 10.6322C90.7674 10.6322 89.8734 11.0125 89.2863 11.7733C88.6993 12.534 88.4058 13.606 88.4058 14.9891V30.9652ZM85.1016 15.1682C85.1016 12.8372 85.6666 10.9882 86.7968 9.6211C87.9269 8.25399 89.651 7.5693 91.9686 7.56702C94.2857 7.56702 96.0165 8.25171 97.161 9.6211C98.3056 10.9905 98.8778 12.8395 98.8778 15.1682V30.7929C98.8778 33.095 98.3056 34.9364 97.161 36.3171C96.0165 37.698 94.2843 38.3884 91.9642 38.3884C89.6457 38.3884 87.9216 37.698 86.7923 36.3171C85.6629 34.9364 85.0993 33.095 85.1016 30.7929V15.1682Z" fill="white"/>
<path d="M117.372 38.0872H103.724V35.0654L114.024 10.938H104.196V7.87398H117.457V10.8945L107.115 35.022H117.373L117.372 38.0872Z" fill="white"/>
<path d="M129.086 7.57158C131.404 7.57158 133.114 8.26198 134.215 9.64277C135.317 11.0236 135.867 12.8654 135.867 15.1682V17.7575H132.69V14.9948C132.69 13.614 132.411 12.5421 131.853 11.779C131.295 11.0159 130.4 10.6356 129.17 10.6379C127.968 10.6379 127.081 11.0182 126.51 11.779C125.938 12.5398 125.652 13.6117 125.652 14.9948V30.9709C125.652 32.3516 125.938 33.4236 126.51 34.1866C127.081 34.9497 127.968 35.3301 129.17 35.3277C130.4 35.3277 131.295 34.9474 131.853 34.1866C132.411 33.4259 132.69 32.354 132.69 30.9709V24.9228H129.599V21.901H135.865V30.7929C135.865 33.095 135.314 34.9364 134.213 36.3171C133.112 37.698 131.402 38.3884 129.084 38.3884C126.795 38.3884 125.1 37.698 123.999 36.3171C122.897 34.9364 122.347 33.095 122.347 30.7929V15.1682C122.334 14.1106 122.471 13.0567 122.754 12.0381C122.997 11.1597 123.423 10.3431 124.002 9.64164C124.573 8.97087 125.294 8.44571 126.106 8.10907C126.948 7.75074 127.942 7.57158 129.086 7.57158Z" fill="white"/>
<path d="M144.366 30.9653C144.366 32.3461 144.645 33.418 145.203 34.1811C145.761 34.9441 146.655 35.3245 147.885 35.3222C149.087 35.3222 149.967 34.9419 150.525 34.1811C151.082 33.4203 151.361 32.3484 151.361 30.9653V7.87408H154.495V30.793C154.495 33.0951 153.951 34.9437 152.863 36.339C151.776 37.7342 150.074 38.4319 147.757 38.4319C145.468 38.4319 143.78 37.7342 142.693 36.339C141.606 34.9437 141.062 33.0951 141.062 30.793V7.87408H144.367L144.366 30.9653Z" fill="white"/>
<path d="M166.253 7.57165C168.542 7.57165 170.23 8.25634 171.318 9.62573C172.405 10.9951 172.949 12.8297 172.948 15.1295V15.9489H169.771V14.9492C169.771 13.5684 169.499 12.5033 168.955 11.754C168.411 11.0046 167.541 10.6318 166.345 10.6357C165.143 10.6357 164.27 11.0095 163.727 11.7574C163.183 12.5052 162.911 13.5559 162.912 14.9093C162.912 16.0306 163.162 17.009 163.663 17.8443C164.177 18.6961 164.805 19.473 165.53 20.1529C166.273 20.8581 167.081 21.5488 167.954 22.2252C168.823 22.8972 169.634 23.6408 170.379 24.4482C171.13 25.265 171.759 26.1876 172.246 27.1869C172.746 28.2094 172.996 29.4267 172.997 30.8386C172.997 33.1414 172.446 34.976 171.345 36.3424C170.243 37.7087 168.534 38.3934 166.216 38.3965C163.899 38.3965 162.197 37.7118 161.11 36.3424C160.023 34.973 159.479 33.1384 159.479 30.8386V29.1086H162.601V31.0087C162.601 32.3893 162.887 33.4545 163.46 34.2039C164.033 34.9532 164.92 35.3271 166.121 35.3256C167.323 35.3256 168.21 34.9518 168.782 34.2039C169.353 33.456 169.639 32.3909 169.639 31.0087C169.639 29.8858 169.389 28.9146 168.888 28.0953C168.369 27.2548 167.741 26.4874 167.022 25.813C166.277 25.1078 165.476 24.4169 164.618 23.7407C163.76 23.0654 162.956 22.3225 162.215 21.5188C161.463 20.7023 160.834 19.7796 160.347 18.7801C159.847 17.7591 159.596 16.5418 159.596 15.1284C159.596 12.7973 160.14 10.9555 161.228 9.60291C162.316 8.25018 163.991 7.57314 166.253 7.57165Z" fill="white"/>
<path d="M61.7758 54.675H60.7637V45.5458H61.7758V54.675Z" fill="white"/>
<path d="M63.9682 50.5679V54.676H62.9561V45.5468H63.9682V49.655H66.2001V45.5468H67.2111V54.676H66.2001V50.5679H63.9682Z" fill="white"/>
<path d="M69.7835 54.6785V46.4724H68.1064V45.5458H72.4659V46.4724H70.7923V54.6785H69.7835Z" fill="white"/>
<path d="M76.5919 49.5901V50.503H74.3725V53.7483H77.0957V54.675H73.3604V45.5458H77.0969V46.4724H74.3736V49.5901H76.5919Z" fill="white"/>
<path d="M80.1095 46.4724L79.9019 52.4064C79.8912 52.7309 79.8533 53.0539 79.7884 53.3718C79.7381 53.6271 79.6366 53.8694 79.49 54.0839C79.3498 54.2806 79.1598 54.4359 78.9396 54.5335C78.6659 54.646 78.3717 54.6993 78.0761 54.6898H77.9082V53.7632C78.0799 53.7694 78.2512 53.7431 78.4131 53.6856C78.5372 53.6384 78.6437 53.5539 78.7184 53.4437C78.798 53.3197 78.8492 53.1793 78.8681 53.0329C78.8964 52.8439 78.9134 52.6533 78.9192 52.4623L79.1666 45.5481H82.8634V54.6773H81.8512V46.4724H80.1095Z" fill="white"/>
<path d="M87.3049 49.5901V50.503H85.0865V53.7483H87.8098V54.675H84.0801V45.5458H87.8155V46.4724H85.0922V49.5901H87.3049Z" fill="white"/>
<path d="M90.4349 50.7118L89.9028 51.6122V54.6785H88.8906V45.5492H89.9028V49.9585L92.3151 45.5492H93.3363L91.0409 49.7109L93.4146 54.6819H92.3764L90.4349 50.7118Z" fill="white"/>
<path d="M95.7244 54.6785V46.4724H94.0508V45.5458H98.4103V46.4724H96.7366V54.6785H95.7244Z" fill="white"/>
<path d="M102.029 52.6688C101.961 52.9762 101.868 53.2774 101.751 53.5693C101.652 53.8148 101.504 54.0371 101.316 54.2219C101.123 54.4018 100.889 54.5313 100.635 54.5996C100.298 54.6842 99.9503 54.7151 99.6037 54.6911V53.7781C99.993 53.7951 100.285 53.7369 100.48 53.6024C100.675 53.4676 100.82 53.2257 100.902 52.8776L101.109 52.2774L99.0205 45.5446H100.033L100.953 48.7148L101.575 51.0096L102.107 48.7136L102.924 45.5436H103.975L102.029 52.6688Z" fill="white"/>
<path d="M106.011 51.9613H108.036L107.015 46.6903L106.011 51.9613ZM105.882 52.8353L105.532 54.6748H104.598L106.336 45.5456H107.802L109.54 54.6748H108.528L108.178 52.8353H105.882Z" fill="white"/>
<path d="M112.408 46.4724L112.201 52.4064C112.189 52.7308 112.151 53.0537 112.087 53.3718C112.037 53.627 111.935 53.8691 111.789 54.0839C111.649 54.281 111.458 54.4363 111.237 54.5335C110.964 54.646 110.67 54.6993 110.374 54.6898H110.206V53.7632C110.378 53.7693 110.55 53.743 110.712 53.6856C110.836 53.6384 110.942 53.5539 111.016 53.4437C111.096 53.3197 111.147 53.1793 111.166 53.0329C111.194 52.8438 111.212 52.6533 111.218 52.4623L111.464 45.5481H115.161V54.6773H114.15V46.4724H112.408Z" fill="white"/>
<path d="M118.362 53.7519C118.734 53.7519 118.999 53.6469 119.156 53.4392C119.312 53.2315 119.396 52.9165 119.396 52.499V51.2858C119.396 50.8416 119.305 50.5262 119.123 50.3398C118.941 50.1527 118.661 50.0602 118.28 50.0602H117.386V53.7484L118.362 53.7519ZM118.283 49.1462C119.01 49.1462 119.544 49.331 119.885 49.7008C120.227 50.0705 120.397 50.6206 120.398 51.3509V52.4475C120.398 53.1436 120.236 53.6894 119.912 54.0851C119.587 54.4807 119.07 54.6785 118.362 54.6785H116.377V45.5492H117.389V49.1496L118.283 49.1462Z" fill="white"/>
<path d="M122.474 50.5679V54.676H121.462V45.5468H122.474V49.655H124.703V45.5468H125.714V54.676H124.703V50.5679H122.474Z" fill="white"/>
<path d="M130.128 49.5901V50.503H127.91V53.7483H130.633V54.675H126.897V45.5458H130.633V46.4724H127.91V49.5901H130.128Z" fill="white"/>
<path d="M135.628 52.4337C135.617 52.7065 135.579 52.9776 135.515 53.2428C135.462 53.4452 135.357 53.6298 135.21 53.778H137.61V46.4746H135.923L135.628 52.4337ZM138.339 55.9302V54.6749H134.629V55.9302H133.656V53.778H134.241C134.392 53.6124 134.497 53.4097 134.545 53.1903C134.596 52.9455 134.629 52.6972 134.642 52.4474L134.993 45.5457H138.638V53.778H139.325V55.9302H138.339Z" fill="white"/>
<path d="M141.271 52.525C141.271 52.9427 141.359 53.2668 141.537 53.4974C141.714 53.7278 141.984 53.8419 142.348 53.8398C142.72 53.8398 142.992 53.7256 143.165 53.4974C143.337 53.2692 143.424 52.945 143.425 52.525V47.7002C143.425 47.2827 143.338 46.9585 143.165 46.728C142.992 46.4997 142.72 46.3856 142.348 46.3856C141.976 46.3856 141.715 46.4997 141.537 46.728C141.358 46.9562 141.269 47.2803 141.269 47.7002L141.271 52.525ZM140.272 47.7505C140.272 47.0459 140.443 46.4872 140.784 46.0741C141.125 45.661 141.647 45.4545 142.348 45.4545C143.048 45.4545 143.571 45.661 143.917 46.0741C144.263 46.4872 144.436 47.0459 144.437 47.7505V52.4737C144.437 53.1691 144.264 53.7256 143.917 54.1432C143.571 54.5609 143.048 54.7716 142.348 54.7754C141.647 54.7754 141.126 54.5666 140.784 54.1489C140.442 53.7312 140.272 53.1747 140.272 52.4794V47.7505Z" fill="white"/>
<path d="M147.524 45.4545C148.224 45.4545 148.74 45.6629 149.074 46.0798C149.408 46.4968 149.574 47.0537 149.573 47.7505V47.9855C149.586 48.4011 149.49 48.813 149.294 49.1792C149.108 49.5055 148.811 49.7532 148.458 49.8764C148.82 49.9861 149.126 50.2344 149.308 50.568C149.493 50.9355 149.585 51.3438 149.573 51.7559V52.4737C149.573 53.1691 149.407 53.7255 149.074 54.1432C148.741 54.5609 148.225 54.7715 147.524 54.7754C146.832 54.7754 146.319 54.5666 145.987 54.1489C145.654 53.7312 145.487 53.1747 145.487 52.4794V51.5916H146.434V52.5307C146.434 52.9484 146.52 53.2725 146.693 53.503C146.866 53.7312 147.135 53.8454 147.498 53.8454C147.861 53.8454 148.14 53.7312 148.308 53.4927C148.476 53.2542 148.561 52.9107 148.561 52.4497V51.7319C148.561 50.8267 148.172 50.3743 147.394 50.3751H146.966V49.4622H147.446C147.75 49.475 148.045 49.3562 148.257 49.1358C148.46 48.9179 148.561 48.6097 148.561 48.2092V47.7915C148.561 47.3229 148.477 46.9707 148.308 46.7348C148.14 46.4997 147.869 46.3822 147.498 46.3822C147.127 46.3822 146.866 46.4963 146.693 46.7246C146.521 46.9528 146.434 47.2792 146.434 47.6968V48.3108H145.5V47.7402C145.5 47.0356 145.662 46.4792 145.987 46.0707C146.311 45.6621 146.824 45.4568 147.524 45.4545Z" fill="white"/>
<path d="M152.79 53.7564C153.508 53.7564 153.867 53.3433 153.867 52.5171V51.708C153.867 51.1945 153.766 50.8399 153.563 50.6445C153.359 50.4494 153.038 50.3512 152.596 50.3512H151.713V53.7484L152.79 53.7564ZM152.492 49.42C152.899 49.42 153.203 49.3378 153.406 49.1724C153.609 49.0069 153.712 48.6851 153.712 48.207V47.6718C153.712 47.2632 153.636 46.9612 153.485 46.7657C153.334 46.5695 153.076 46.4724 152.713 46.4724H151.713V49.42H152.492ZM152.739 45.5458C153.447 45.5458 153.953 45.7132 154.256 46.0479C154.559 46.3827 154.711 46.8893 154.71 47.568V47.9981C154.729 48.4044 154.651 48.8092 154.483 49.1792C154.327 49.479 154.05 49.6897 153.653 49.8114C154.094 49.9339 154.408 50.1644 154.593 50.503C154.791 50.8943 154.887 51.3296 154.872 51.7685V52.5388C154.872 53.2235 154.704 53.7518 154.366 54.1238C154.029 54.4959 153.505 54.6807 152.796 54.6784H150.708V45.5492L152.739 45.5458Z" fill="white"/>
<path d="M156.942 54.675H155.93V45.5458H156.942V54.675Z" fill="white"/>
<path d="M160.056 46.4724L159.848 52.4064C159.836 52.7309 159.798 53.0537 159.735 53.3718C159.684 53.627 159.583 53.8692 159.436 54.0839C159.296 54.281 159.106 54.4363 158.885 54.5335C158.612 54.6459 158.318 54.6992 158.023 54.6899H157.854V53.7633C158.025 53.7693 158.197 53.7431 158.36 53.6857C158.483 53.6384 158.589 53.554 158.664 53.4437C158.743 53.3197 158.794 53.1793 158.813 53.0329C158.841 52.8438 158.859 52.6534 158.866 52.4623L159.112 45.5481H162.809V54.6773H161.798V46.4724H160.056Z" fill="white"/>
<path d="M165.957 46.4724L165.75 52.4064C165.738 52.7308 165.7 53.0538 165.636 53.3718C165.585 53.6267 165.483 53.8689 165.338 54.0839C165.198 54.281 165.007 54.4363 164.786 54.5335C164.513 54.646 164.218 54.6993 163.923 54.6898H163.755V53.7632C163.927 53.7693 164.099 53.743 164.261 53.6856C164.385 53.638 164.491 53.5537 164.565 53.4437C164.645 53.3197 164.696 53.1793 164.715 53.0329C164.743 52.8438 164.76 52.6533 164.767 52.4623L165.013 45.5481H168.71V54.6773H167.698V46.4724H165.957Z" fill="white"/>
<path d="M172.003 46.4768C171.625 46.4768 171.355 46.581 171.192 46.7895C171.029 46.9979 170.95 47.3111 170.953 47.7287V48.6028C170.953 49.0981 171.066 49.4309 171.293 49.6013C171.52 49.7702 171.83 49.8558 172.227 49.8558H172.993V46.4723L172.003 46.4768ZM172.276 50.7813C171.851 50.7813 171.526 50.8794 171.296 51.0757C171.067 51.2721 170.956 51.6257 170.956 52.1381V53.5737C170.961 53.8026 170.947 54.0315 170.916 54.2584C170.892 54.4051 170.849 54.548 170.787 54.6829H169.766C169.845 54.521 169.895 54.3464 169.914 54.1671C169.936 53.9742 169.948 53.7803 169.947 53.5862V52.1598C169.932 51.7345 170.019 51.3118 170.2 50.9273C170.385 50.5892 170.703 50.3451 171.076 50.2552C170.332 50.0125 169.96 49.3864 169.96 48.3768V47.6328C169.96 46.955 170.118 46.4372 170.434 46.0798C170.75 45.7222 171.267 45.5442 171.984 45.5456H174.008V54.6749H172.996V50.7813H172.276Z" fill="white"/>
<path d="M19.5859 25.8278L25.9844 29.4623C26.8434 30.0055 27.9134 29.8834 29.2592 29.0059L34.6886 25.8255L27.1373 21.2027L19.5859 25.8278Z" fill="white"/>
<path d="M35.696 26.9632L28.7437 30.6252C28.7437 30.6252 27.5625 31.1775 27.5625 32.3654V40.3044L35.696 35.7181V26.9632Z" fill="white"/>
<path d="M27.5176 16.1484L27.5459 20.5989C27.5459 20.5989 29.2139 21.554 30.857 22.564C30.8921 22.3905 30.9103 16.153 30.9103 16.153C30.9103 14.3203 27.5176 14.439 27.5176 16.1484Z" fill="white"/>
</g>
</g>
<defs>
<clipPath id="clip0_1641_2">
<rect width="174" height="62" fill="white"/>
</clipPath>
</defs>
</svg>
