<svg width="119" height="55" viewBox="0 0 119 55" fill="none" xmlns="http://www.w3.org/2000/svg">
<g clip-path="url(#clip0_1372_316)">
<path d="M119 0H0V55H119V0Z" fill="white"/>
<path d="M52.6225 3.75562H3.7627V51.2268H52.6225V3.75562Z" fill="black"/>
<path d="M115.237 3.75562H56.6299V51.2268H115.237V3.75562Z" fill="black"/>
<path d="M25.4443 42.9309C23.1969 42.4632 21.1324 41.3551 19.4992 39.7404C17.866 38.1254 16.7336 36.0727 16.2384 33.8287C15.1709 33.3542 14.2664 32.576 13.6373 31.5907C13.0082 30.6053 12.6824 29.4567 12.7004 28.2877C12.7184 27.1184 13.0794 25.9803 13.7385 25.015C14.3975 24.0496 15.3256 23.2996 16.4072 22.8582C16.4705 19.7647 17.7425 16.8192 19.9502 14.6538C22.1579 12.4884 25.1254 11.2756 28.216 11.2756C31.3066 11.2756 34.2742 12.4884 36.4818 14.6538C38.6894 16.8192 39.9616 19.7647 40.0249 22.8582C41.3123 23.3806 42.3766 24.337 43.0339 25.5621C43.6915 26.7871 43.9003 28.2037 43.6248 29.5668C43.3491 30.9298 42.6064 32.1534 41.5249 33.026C40.4434 33.8985 39.0911 34.3654 37.7023 34.3453H37.5933V22.6943C37.4633 20.2626 36.3962 17.9763 34.6161 16.3168C32.8362 14.6572 30.4826 13.7538 28.0507 13.797C25.6187 13.8401 23.2984 14.8264 21.5783 16.5481C19.8583 18.2697 18.8726 20.5925 18.829 23.0272V34.1616C19.3264 35.7583 20.2388 37.1945 21.4727 38.3222C22.7066 39.4502 24.2176 40.2295 25.8513 40.5809C26.2234 40.0303 26.7728 39.6241 27.4078 39.4301C28.0428 39.236 28.7251 39.2657 29.341 39.514C29.9567 39.7627 30.4688 40.2148 30.7918 40.7956C31.1149 41.3763 31.2294 42.0504 31.1162 42.7053C31.0031 43.3605 30.6692 43.9567 30.1699 44.395C29.6709 44.8333 29.0367 45.0871 28.3732 45.114C27.7099 45.1409 27.0573 44.9396 26.5243 44.5431C25.9913 44.1469 25.6101 43.5795 25.4443 42.9358V42.9309Z" fill="white"/>
<path d="M65.9951 19.5494C65.923 19.4983 65.8643 19.4305 65.824 19.3518C65.7838 19.273 65.7634 19.1856 65.7642 19.0972C65.768 18.9932 65.7998 18.8923 65.8561 18.805C65.9127 18.7178 65.9918 18.6474 66.0851 18.6016C66.1783 18.5557 66.2822 18.5359 66.3858 18.5444C66.4894 18.5529 66.5887 18.5894 66.6733 18.6499C67.2033 19.0988 67.875 19.346 68.5695 19.3478C69.3064 19.3478 69.7731 18.9988 69.7731 18.4975C69.7731 18.006 69.4982 17.7504 68.2404 17.4604C66.7959 17.1114 65.9853 16.6838 65.9853 15.4353C65.9853 14.2704 66.9681 13.4692 68.2995 13.4692C69.0647 13.4543 69.8161 13.6757 70.4513 14.1033C70.5353 14.1535 70.6041 14.2259 70.6501 14.3126C70.696 14.3992 70.7173 14.4969 70.7115 14.5948C70.7099 14.6954 70.6816 14.7938 70.6291 14.8798C70.5769 14.9658 70.5024 15.0362 70.4138 15.0838C70.3251 15.1314 70.2253 15.1544 70.125 15.1505C70.0244 15.1467 69.9267 15.116 69.8419 15.0617C69.381 14.7474 68.8376 14.5764 68.2796 14.5702C67.5821 14.5702 67.1742 14.929 67.1742 15.3763C67.1742 15.8973 67.4839 16.1333 68.7955 16.4429C70.2253 16.7919 70.962 17.3031 70.962 18.409C70.962 19.6772 69.9795 20.4341 68.5401 20.4341C67.6177 20.4267 66.7233 20.1158 65.9951 19.5494Z" fill="white"/>
<path d="M76.7742 19.7751C76.7606 19.9229 76.6924 20.0602 76.5831 20.1603C76.4735 20.2603 76.3304 20.3158 76.1822 20.3158C76.0338 20.3158 75.891 20.2603 75.7814 20.1603C75.6718 20.0602 75.6036 19.9229 75.5902 19.7751V19.5146C75.4257 19.7908 75.1916 20.0192 74.9115 20.177C74.6314 20.3348 74.3148 20.4165 73.9934 20.4141C72.8439 20.4141 72.1758 19.6374 72.1758 18.448V15.7249C72.1758 15.5698 72.2372 15.421 72.3468 15.3113C72.4567 15.2016 72.6052 15.14 72.7604 15.14C72.9155 15.14 73.0642 15.2016 73.1738 15.3113C73.2834 15.421 73.3451 15.5698 73.3451 15.7249V18.099C73.3451 18.8903 73.743 19.3376 74.4405 19.3376C74.602 19.3415 74.7624 19.3107 74.9109 19.2473C75.0594 19.1839 75.1927 19.0894 75.3014 18.9702C75.4105 18.8509 75.4926 18.7097 75.5424 18.556C75.5921 18.4024 75.6084 18.2398 75.5902 18.0793V15.7249C75.5826 15.6426 75.5924 15.5596 75.6188 15.4813C75.6452 15.4029 75.6876 15.331 75.7431 15.2699C75.7988 15.2089 75.8668 15.1601 75.9424 15.1267C76.0177 15.0934 76.0996 15.0762 76.1822 15.0762C76.2649 15.0762 76.3465 15.0934 76.4221 15.1267C76.4977 15.1601 76.5654 15.2089 76.6211 15.2699C76.6769 15.331 76.7193 15.4029 76.7457 15.4813C76.7721 15.5596 76.7816 15.6426 76.7742 15.7249V19.7751Z" fill="white"/>
<path d="M78.2329 15.7253C78.2255 15.6437 78.235 15.5614 78.2611 15.4836C78.2873 15.4059 78.3294 15.3345 78.3846 15.2739C78.4398 15.2134 78.507 15.165 78.582 15.1319C78.6571 15.0988 78.7381 15.0817 78.82 15.0817C78.9021 15.0817 78.9831 15.0988 79.0579 15.1319C79.133 15.165 79.2001 15.2134 79.2556 15.2739C79.3108 15.3345 79.3527 15.4059 79.3788 15.4836C79.4049 15.5614 79.4147 15.6437 79.4071 15.7253V16.0301C79.5917 15.7346 79.849 15.4913 80.1544 15.3235C80.4598 15.1557 80.8029 15.069 81.1513 15.0716C82.35 15.0716 83.5242 16.0202 83.5242 17.7258C83.5242 19.4216 82.3598 20.38 81.1513 20.38C80.8092 20.3841 80.4715 20.3043 80.1672 20.1475C79.8631 19.9906 79.6023 19.7617 79.4071 19.4806V21.2894C79.3938 21.4359 79.3261 21.5721 79.2176 21.6712C79.1088 21.7704 78.9671 21.8254 78.82 21.8254C78.6729 21.8254 78.5312 21.7704 78.4227 21.6712C78.3139 21.5721 78.2465 21.4359 78.2329 21.2894V15.7253ZM82.3304 17.7602C82.347 17.5546 82.3217 17.3477 82.2556 17.1523C82.1896 16.9568 82.0843 16.7769 81.9464 16.6237C81.8083 16.4704 81.6405 16.3469 81.4532 16.2609C81.2655 16.1749 81.0627 16.1281 80.8565 16.1235C80.6515 16.1322 80.4505 16.1817 80.2651 16.2691C80.0796 16.3565 79.9134 16.48 79.7761 16.6324C79.6391 16.7848 79.5335 16.963 79.4658 17.1567C79.3984 17.3503 79.3701 17.5555 79.3826 17.7602C79.3701 17.965 79.3984 18.1701 79.4658 18.3638C79.5335 18.5575 79.6391 18.7357 79.7761 18.8881C79.9134 19.0404 80.0796 19.164 80.2651 19.2513C80.4505 19.3387 80.6515 19.3882 80.8565 19.397C81.0646 19.3983 81.2704 19.3555 81.4605 19.2714C81.6509 19.1874 81.8211 19.064 81.9603 18.9094C82.0995 18.7549 82.2045 18.5725 82.2684 18.3744C82.3321 18.1764 82.3533 17.9671 82.3304 17.7602Z" fill="white"/>
<path d="M84.7326 15.7253C84.7307 15.6479 84.7443 15.5709 84.7726 15.4988C84.8009 15.4268 84.8433 15.3611 84.8971 15.3056C84.9512 15.2502 85.0157 15.2062 85.0872 15.1761C85.1585 15.146 85.2351 15.1306 85.3124 15.1306C85.4701 15.1306 85.6213 15.1932 85.7328 15.3048C85.8443 15.4163 85.9068 15.5676 85.9068 15.7253V16.0301C86.0915 15.7346 86.3487 15.4913 86.6541 15.3235C86.9595 15.1557 87.3027 15.069 87.651 15.0716C88.8497 15.0716 90.024 16.0202 90.024 17.7258C90.024 19.4216 88.8595 20.38 87.651 20.38C87.3089 20.3841 86.9712 20.3043 86.6669 20.1475C86.3629 19.9906 86.1021 19.7617 85.9068 19.4806V21.2894C85.9068 21.3668 85.8913 21.4434 85.8614 21.5148C85.8312 21.5861 85.7872 21.6507 85.732 21.7048C85.6765 21.7588 85.611 21.8013 85.5389 21.8295C85.4668 21.8578 85.3899 21.8713 85.3124 21.8694C85.236 21.87 85.1604 21.8555 85.0897 21.8266C85.0192 21.7976 84.955 21.7549 84.9009 21.7009C84.8471 21.647 84.8044 21.5828 84.7756 21.5121C84.7465 21.4414 84.7321 21.3657 84.7326 21.2894V15.7253ZM88.8302 17.7602C88.8467 17.5546 88.8215 17.3477 88.7554 17.1523C88.6893 16.9568 88.5841 16.7769 88.4462 16.6237C88.308 16.4704 88.1403 16.3469 87.9529 16.2609C87.7653 16.1749 87.5624 16.1281 87.3563 16.1235C87.1512 16.1322 86.9503 16.1817 86.7648 16.2691C86.5793 16.3565 86.4132 16.48 86.2758 16.6324C86.1388 16.7848 86.0333 16.963 85.9656 17.1567C85.8981 17.3503 85.8698 17.5555 85.8824 17.7602C85.8698 17.965 85.8981 18.1701 85.9656 18.3638C86.0333 18.5575 86.1388 18.7357 86.2758 18.8881C86.4132 19.0404 86.5793 19.164 86.7648 19.2513C86.9503 19.3387 87.1512 19.3882 87.3563 19.397C87.5643 19.3983 87.7701 19.3555 87.9602 19.2714C88.1506 19.1874 88.3208 19.064 88.4601 18.9094C88.5993 18.7549 88.7043 18.5725 88.7682 18.3744C88.8318 18.1764 88.853 17.9671 88.8302 17.7602Z" fill="white"/>
<path d="M90.9527 17.7799C90.9826 17.0771 91.2828 16.4129 91.7903 15.9262C92.298 15.4395 92.974 15.1677 93.677 15.1677C94.3802 15.1677 95.056 15.4395 95.5637 15.9262C96.0714 16.4129 96.3713 17.0771 96.4013 17.7799C96.4002 18.1357 96.3278 18.4876 96.1891 18.8151C96.0502 19.1426 95.8473 19.4391 95.5925 19.6872C95.3377 19.9353 95.0359 20.13 94.7049 20.26C94.374 20.3899 94.0202 20.4525 93.6647 20.444C93.3101 20.4532 92.9574 20.391 92.6276 20.261C92.2974 20.131 91.9972 19.9359 91.744 19.6873C91.4911 19.4388 91.2905 19.1418 91.1548 18.8141C91.0188 18.4864 90.95 18.1347 90.9527 17.7799ZM95.2319 17.7799C95.2412 17.5678 95.2077 17.356 95.1332 17.1572C95.0587 16.9585 94.9448 16.7767 94.7985 16.623C94.6522 16.4693 94.4762 16.3467 94.2815 16.2625C94.0868 16.1784 93.8769 16.1344 93.6647 16.1333C93.4545 16.1316 93.2462 16.1731 93.0526 16.2554C92.8593 16.3376 92.6847 16.4588 92.54 16.6114C92.3953 16.7639 92.2836 16.9447 92.2118 17.1423C92.1397 17.34 92.1093 17.5503 92.122 17.7602C92.1142 17.9711 92.1487 18.1814 92.2235 18.3787C92.2983 18.576 92.4119 18.7563 92.5574 18.909C92.7032 19.0616 92.878 19.1834 93.0717 19.2672C93.265 19.3511 93.4736 19.3952 93.6843 19.397C93.8943 19.3994 94.1023 19.3586 94.2956 19.2772C94.489 19.1959 94.6636 19.0757 94.8085 18.9241C94.9537 18.7725 95.066 18.5928 95.1389 18.3959C95.2118 18.1991 95.2433 17.9895 95.2319 17.7799Z" fill="white"/>
<path d="M97.5949 15.7252C97.593 15.6478 97.6066 15.5708 97.6349 15.4987C97.6632 15.4267 97.7056 15.361 97.7594 15.3055C97.8135 15.2501 97.878 15.2061 97.9495 15.176C98.0208 15.1459 98.0974 15.1305 98.1747 15.1305C98.2524 15.1305 98.3297 15.1459 98.4015 15.1759C98.4733 15.2058 98.5385 15.2497 98.5935 15.305C98.6481 15.3603 98.6916 15.4259 98.7207 15.498C98.7501 15.5701 98.7651 15.6474 98.7642 15.7252V16.2462C98.8542 15.9578 99.0231 15.7002 99.2513 15.5023C99.4794 15.3043 99.7582 15.1739 100.056 15.1256C100.134 15.1197 100.212 15.1306 100.285 15.1577C100.358 15.1848 100.424 15.2273 100.479 15.2824C100.535 15.3375 100.577 15.4038 100.604 15.4768C100.631 15.5499 100.642 15.6279 100.636 15.7056C100.64 15.8399 100.595 15.9709 100.509 16.0742C100.423 16.1774 100.302 16.2456 100.169 16.2659C99.3391 16.4134 98.7642 17.0524 98.7642 18.2615V19.7754C98.7637 19.8522 98.7479 19.9281 98.718 19.9989C98.6878 20.0696 98.6443 20.1337 98.5896 20.1875C98.5347 20.2414 98.47 20.284 98.3987 20.3127C98.3278 20.3415 98.2516 20.356 98.1747 20.3554C98.0985 20.356 98.0227 20.3415 97.9522 20.3126C97.8815 20.2837 97.8173 20.241 97.7632 20.187C97.7094 20.133 97.6667 20.0688 97.6379 19.9981C97.609 19.9275 97.5944 19.8517 97.5949 19.7754V15.7252Z" fill="white"/>
<path d="M101.835 18.8905V16.1969H101.643C101.513 16.1969 101.388 16.1452 101.296 16.053C101.204 15.9608 101.152 15.8358 101.152 15.7054C101.152 15.5751 101.204 15.45 101.296 15.3579C101.388 15.2657 101.513 15.2139 101.643 15.2139H101.835V14.3439C101.848 14.1974 101.916 14.0612 102.024 13.962C102.133 13.8628 102.275 13.8079 102.422 13.8079C102.569 13.8079 102.711 13.8628 102.819 13.962C102.928 14.0612 102.996 14.1974 103.009 14.3439V15.2139H103.928C104.058 15.2139 104.183 15.2657 104.275 15.3579C104.367 15.45 104.419 15.5751 104.419 15.7054C104.419 15.8358 104.367 15.9608 104.275 16.053C104.183 16.1452 104.058 16.1969 103.928 16.1969H103.009V18.7086C102.995 18.7949 103.001 18.8832 103.028 18.9664C103.054 19.0497 103.1 19.1256 103.161 19.1878C103.222 19.2501 103.297 19.297 103.38 19.3248C103.463 19.3525 103.551 19.3604 103.638 19.3476C103.735 19.3428 103.832 19.3329 103.928 19.3181C104.058 19.3181 104.183 19.3699 104.275 19.4621C104.367 19.5542 104.419 19.6793 104.419 19.8097C104.418 19.9073 104.388 20.0024 104.333 20.0829C104.278 20.1635 104.2 20.2257 104.109 20.2618C103.851 20.3549 103.578 20.4015 103.304 20.3995C102.444 20.3946 101.835 20.0161 101.835 18.8905Z" fill="white"/>
<path d="M68.0785 28.3178L65.7447 25.113C65.6572 24.9911 65.6093 24.8453 65.6074 24.6952C65.6085 24.6182 65.6251 24.5422 65.6561 24.4716C65.6871 24.4011 65.7317 24.3374 65.7874 24.2843C65.8432 24.2313 65.909 24.1898 65.9811 24.1625C66.0531 24.1351 66.1298 24.1224 66.2068 24.125C66.3272 24.1279 66.4447 24.1627 66.5472 24.2257C66.65 24.2887 66.7341 24.3777 66.7914 24.4838L68.6779 27.2069L70.5939 24.474C70.6502 24.3693 70.7329 24.2812 70.8338 24.2182C70.9344 24.1553 71.05 24.1198 71.1688 24.1152C71.2455 24.1132 71.3217 24.1268 71.3929 24.1552C71.4641 24.1836 71.5289 24.2263 71.5833 24.2805C71.6374 24.3348 71.6801 24.3996 71.7083 24.4708C71.7369 24.5421 71.7505 24.6185 71.7483 24.6952C71.741 24.8522 71.6825 25.0024 71.5814 25.1228L69.2674 28.3178V30.4411C69.2674 30.5987 69.2049 30.7501 69.0934 30.8615C68.9819 30.9732 68.8307 31.0357 68.673 31.0357C68.5153 31.0357 68.3641 30.9732 68.2526 30.8615C68.1411 30.7501 68.0785 30.5987 68.0785 30.4411V28.3178Z" fill="white"/>
<path d="M71.7286 28.4359C71.7286 27.7125 72.0158 27.0186 72.527 26.507C73.0385 25.9954 73.732 25.708 74.455 25.708C75.1784 25.708 75.8718 25.9954 76.3834 26.507C76.8946 27.0186 77.1818 27.7125 77.1818 28.4359C77.1807 28.7921 77.1083 29.1446 76.9691 29.4723C76.8299 29.8003 76.6267 30.0967 76.3714 30.3451C76.116 30.5932 75.8136 30.7878 75.4822 30.9174C75.1504 31.047 74.7963 31.1092 74.4404 31.1C74.086 31.1092 73.7333 31.047 73.4032 30.9171C73.0733 30.7869 72.7728 30.5918 72.5197 30.3435C72.2668 30.0948 72.0663 29.7978 71.9304 29.4701C71.7944 29.1424 71.7259 28.7908 71.7286 28.4359ZM76.0075 28.4359C76.0162 28.2239 75.9823 28.0125 75.9075 27.8141C75.8327 27.6155 75.7187 27.4342 75.5727 27.2807C75.4264 27.127 75.251 27.0043 75.0563 26.9199C74.8619 26.8356 74.6525 26.7912 74.4404 26.7894C74.2304 26.7883 74.0224 26.8304 73.8293 26.9128C73.6362 26.9953 73.4619 27.1165 73.3173 27.269C73.1729 27.4215 73.0611 27.6019 72.9888 27.7992C72.9167 27.9965 72.8857 28.2065 72.8979 28.4163C72.8898 28.6272 72.9243 28.8375 72.9991 29.0348C73.0739 29.2321 73.1875 29.4125 73.3333 29.5649C73.4788 29.7177 73.6536 29.8394 73.8473 29.9234C74.0409 30.0071 74.2492 30.0513 74.4602 30.053C74.6699 30.0554 74.8779 30.0147 75.0713 29.9334C75.2646 29.8519 75.4392 29.7318 75.5844 29.5802C75.7293 29.4285 75.8419 29.2489 75.9145 29.0519C75.9874 28.8552 76.0192 28.6454 76.0075 28.4359Z" fill="white"/>
<path d="M82.9154 30.4314C82.9018 30.5793 82.8339 30.7168 82.7243 30.8168C82.6147 30.9168 82.4716 30.9722 82.3234 30.9722C82.1752 30.9722 82.0322 30.9168 81.9226 30.8168C81.813 30.7168 81.745 30.5793 81.7314 30.4314V30.1711C81.5669 30.4472 81.3328 30.6757 81.0527 30.8336C80.7726 30.9912 80.4563 31.073 80.1349 31.0706C78.9802 31.0706 78.3121 30.2988 78.3121 29.1045V26.3814C78.3045 26.2997 78.3143 26.2174 78.3404 26.1397C78.3665 26.062 78.4083 25.9906 78.4636 25.93C78.519 25.8695 78.5862 25.8211 78.6613 25.788C78.736 25.7549 78.8171 25.7378 78.8992 25.7378C78.981 25.7378 79.0621 25.7549 79.1371 25.788C79.2122 25.8211 79.2794 25.8695 79.3346 25.93C79.3898 25.9906 79.4319 26.062 79.458 26.1397C79.4841 26.2174 79.4936 26.2997 79.4863 26.3814V28.7553C79.4863 29.5518 79.8842 29.9942 80.5819 29.9942C80.7435 29.9988 80.9042 29.9687 81.0532 29.9053C81.202 29.8423 81.3355 29.7477 81.4448 29.6284C81.5539 29.5089 81.636 29.3673 81.6855 29.2135C81.735 29.0594 81.7505 28.8964 81.7314 28.7358V26.3814C81.7309 26.3038 81.7456 26.2268 81.7749 26.1549C81.8043 26.0831 81.8478 26.0178 81.9027 25.9629C81.9574 25.908 82.0227 25.8646 82.0947 25.8352C82.1665 25.8058 82.2435 25.7909 82.321 25.7916C82.4779 25.7916 82.6283 25.8536 82.7395 25.964C82.851 26.0745 82.9141 26.2245 82.9154 26.3814V30.4314Z" fill="white"/>
<path d="M84.3741 26.3813C84.3728 26.3043 84.3869 26.2278 84.4154 26.1563C84.444 26.0848 84.4864 26.0197 84.5405 25.9648C84.5944 25.9099 84.6588 25.8663 84.7298 25.8365C84.8008 25.8068 84.8769 25.7914 84.9539 25.7915C85.0319 25.7901 85.1094 25.8045 85.1818 25.8336C85.2541 25.8627 85.3199 25.906 85.3754 25.961C85.4309 26.016 85.4746 26.0815 85.5043 26.1536C85.5342 26.2259 85.5492 26.3032 85.5483 26.3813V26.9023C85.6375 26.6143 85.8053 26.3568 86.0327 26.1588C86.26 25.9609 86.5382 25.8303 86.8354 25.7816C86.9798 25.7784 87.1201 25.8297 87.2286 25.9253C87.3369 26.0208 87.4054 26.1537 87.4201 26.2974C87.435 26.4411 87.3953 26.5852 87.3089 26.7009C87.2224 26.8167 87.0954 26.8956 86.9534 26.922C86.1183 27.0694 85.5483 27.7085 85.5483 28.9226V30.4316C85.5478 30.5087 85.5318 30.5851 85.5016 30.656C85.4711 30.7272 85.4271 30.7913 85.3719 30.8454C85.3166 30.8992 85.2514 30.9416 85.1796 30.9701C85.1078 30.9987 85.0311 31.0128 84.9539 31.0114C84.8775 31.012 84.8019 30.9976 84.7312 30.9685C84.6607 30.9397 84.5966 30.897 84.5424 30.843C84.4886 30.7892 84.4459 30.7248 84.4171 30.6541C84.388 30.5835 84.3736 30.5079 84.3741 30.4316V26.3813Z" fill="white"/>
<path d="M65.7788 40.8473L68.2991 35.2294C68.3543 35.084 68.4525 34.959 68.5809 34.871C68.709 34.7832 68.861 34.7367 69.0165 34.7378H69.0753C69.2294 34.7365 69.3804 34.7832 69.5071 34.8712C69.6338 34.9593 69.7301 35.0843 69.7828 35.2294L72.3129 40.8473C72.3567 40.9237 72.3804 41.0101 72.3817 41.0981C72.3836 41.1729 72.3706 41.2473 72.3434 41.3172C72.3162 41.3867 72.2751 41.4503 72.2229 41.5039C72.1707 41.5574 72.1085 41.6 72.0394 41.6291C71.9706 41.6582 71.8966 41.6731 71.8216 41.6731C71.6932 41.6723 71.5678 41.6318 71.4631 41.5568C71.3584 41.4821 71.2796 41.377 71.2372 41.2555L70.6868 39.9873H67.4001L66.8252 41.2946C66.785 41.4077 66.7102 41.5049 66.6112 41.5731C66.5125 41.6411 66.3948 41.6761 66.2751 41.6731C66.2022 41.674 66.1299 41.6598 66.0625 41.6321C65.995 41.6044 65.9338 41.5634 65.8827 41.5117C65.8313 41.4598 65.7911 41.3984 65.7639 41.3308C65.7367 41.2631 65.7233 41.1905 65.7247 41.1177C65.7242 41.0248 65.7424 40.9329 65.7788 40.8473ZM70.2005 38.9305L69.0263 36.1829L67.8325 38.9256L70.2005 38.9305Z" fill="white"/>
<path d="M73.5166 37.038C73.5092 36.9562 73.5187 36.8739 73.5448 36.7962C73.5709 36.7185 73.6128 36.6473 73.6683 36.5867C73.7235 36.5261 73.7907 36.4777 73.8657 36.4446C73.9405 36.4114 74.0218 36.3943 74.1037 36.3943C74.1855 36.3943 74.2666 36.4114 74.3416 36.4446C74.4167 36.4777 74.4838 36.5261 74.539 36.5867C74.5943 36.6473 74.6364 36.7185 74.6625 36.7962C74.6886 36.8739 74.6981 36.9562 74.6908 37.038V37.3576C74.876 37.0625 75.1335 36.8198 75.4386 36.6522C75.7437 36.4845 76.0866 36.3973 76.4347 36.3989C77.6337 36.3989 78.8077 37.3475 78.8077 39.0533C78.8077 40.7489 77.6435 41.7125 76.4347 41.7125C76.0921 41.7168 75.7538 41.6364 75.4495 41.4788C75.1452 41.3209 74.8847 41.0905 74.6908 40.8079V42.6217C74.6775 42.7682 74.6097 42.9043 74.501 43.0035C74.3925 43.1027 74.2508 43.1576 74.1037 43.1576C73.9566 43.1576 73.8149 43.1027 73.7061 43.0035C73.5976 42.9043 73.5299 42.7682 73.5166 42.6217V37.038ZM77.6139 39.0728C77.6307 38.8674 77.6054 38.6603 77.5393 38.4649C77.4733 38.2696 77.368 38.0897 77.2299 37.9364C77.092 37.7831 76.9242 37.6595 76.7366 37.5736C76.5492 37.4875 76.3461 37.4408 76.1399 37.4361C75.9352 37.4448 75.7342 37.4943 75.5488 37.5818C75.3633 37.669 75.1971 37.7927 75.0598 37.9451C74.9225 38.0975 74.817 38.2755 74.7495 38.4693C74.6818 38.663 74.6535 38.8682 74.6663 39.0728C74.6535 39.2777 74.6818 39.4829 74.7495 39.6764C74.817 39.8701 74.9225 40.0484 75.0598 40.2008C75.1971 40.353 75.3633 40.4766 75.5488 40.5641C75.7342 40.6514 75.9352 40.7008 76.1399 40.7098C76.348 40.7109 76.5538 40.6682 76.7442 40.5842C76.9345 40.5 77.1048 40.3766 77.244 40.222C77.3832 40.0674 77.4882 39.885 77.5519 39.6872C77.6158 39.4891 77.6367 39.2796 77.6139 39.0728Z" fill="white"/>
<path d="M80.0168 37.0378C80.0149 36.9606 80.0285 36.884 80.0568 36.812C80.085 36.7403 80.1275 36.675 80.1816 36.6199C80.2357 36.5647 80.3001 36.5212 80.3717 36.4916C80.4429 36.4623 80.5193 36.4473 80.5966 36.4481C80.6743 36.4473 80.7516 36.4623 80.8236 36.4916C80.8957 36.521 80.9612 36.5642 81.0167 36.6191C81.0719 36.6739 81.1157 36.7392 81.1456 36.8109C81.1755 36.8829 81.191 36.9601 81.191 37.0378V37.3574C81.3762 37.0625 81.6337 36.8199 81.9388 36.6519C82.2439 36.4843 82.5869 36.3973 82.9349 36.3989C84.1339 36.3989 85.3079 37.3476 85.3079 39.053C85.3079 40.7489 84.1437 41.7123 82.9349 41.7123C82.5923 41.7166 82.254 41.6364 81.9497 41.4786C81.6454 41.321 81.3849 41.0905 81.191 40.8079V42.6215C81.191 42.6989 81.1755 42.7756 81.1456 42.847C81.1154 42.9182 81.0714 42.9829 81.0159 43.037C80.9607 43.0911 80.8949 43.1335 80.8228 43.1617C80.7507 43.19 80.6738 43.2036 80.5966 43.2017C80.5201 43.2022 80.4445 43.1878 80.3738 43.1587C80.3031 43.1299 80.2389 43.0873 80.1851 43.0332C80.1313 42.9791 80.0886 42.915 80.0595 42.8443C80.0306 42.7737 80.0162 42.6979 80.0168 42.6215V37.0378ZM84.1141 39.0729C84.1309 38.8672 84.1056 38.6604 84.0396 38.4647C83.9735 38.2693 83.8682 38.0894 83.7304 37.9362C83.5922 37.7829 83.4244 37.6595 83.2368 37.5734C83.0494 37.4875 82.8466 37.4408 82.6402 37.4359C82.4354 37.4449 82.2344 37.4943 82.049 37.5816C81.8635 37.6691 81.6974 37.7924 81.56 37.9449C81.4227 38.0973 81.3172 38.2756 81.2497 38.4693C81.182 38.6628 81.1537 38.868 81.1665 39.0729C81.1537 39.2775 81.182 39.4826 81.2497 39.6764C81.3172 39.8699 81.4227 40.0481 81.56 40.2006C81.6974 40.353 81.8635 40.4764 82.049 40.5639C82.2344 40.6514 82.4354 40.7009 82.6402 40.7095C82.8474 40.7095 83.0521 40.6655 83.2414 40.581C83.4304 40.4962 83.5996 40.3729 83.7377 40.2182C83.8758 40.0639 83.98 39.8821 84.0431 39.6845C84.1062 39.4873 84.1271 39.2788 84.1043 39.0729H84.1141Z" fill="white"/>
</g>
<defs>
<clipPath id="clip0_1372_316">
<rect width="119" height="55" fill="white"/>
</clipPath>
</defs>
</svg>
