<svg width="175" height="81" viewBox="0 0 175 81" fill="none" xmlns="http://www.w3.org/2000/svg">
<g clip-path="url(#clip0_1372_44)">
<path d="M175 0H0V81H175V0Z" fill="white"/>
<path d="M77.3868 5.53101H5.53418V75.4432H77.3868V5.53101Z" fill="#000816"/>
<path d="M169.466 5.53101H83.2793V75.4432H169.466V5.53101Z" fill="#000816"/>
<path d="M37.4179 63.2257C34.1129 62.537 31.0768 60.905 28.675 58.527C26.2732 56.1486 24.608 53.1256 23.8798 49.8207C22.3099 49.122 20.9797 47.9758 20.0546 46.5247C19.1295 45.0736 18.6504 43.3819 18.6768 41.6603C18.7033 39.9383 19.2341 38.2622 20.2033 36.8405C21.1726 35.4188 22.5374 34.3142 24.1279 33.6642C24.2211 29.1083 26.0916 24.7704 29.3382 21.5814C32.5848 18.3923 36.9488 16.6062 41.4939 16.6062C46.0388 16.6062 50.403 18.3923 53.6495 21.5814C56.896 24.7704 58.7667 29.1083 58.8599 33.6642C60.7531 34.4335 62.3183 35.8421 63.2849 37.6462C64.2519 39.4504 64.559 41.5366 64.1539 43.544C63.7484 45.5514 62.6562 47.3535 61.0658 48.6385C59.4754 49.9236 57.4866 50.6111 55.4443 50.5815H55.2839V33.4227C55.0928 29.8416 53.5235 26.4745 50.9057 24.0304C48.2883 21.5863 44.8271 20.2559 41.2507 20.3195C37.6743 20.383 34.2621 21.8355 31.7326 24.371C29.2031 26.9066 27.7536 30.3274 27.6894 33.913V50.311C28.421 52.6625 29.7627 54.7776 31.5772 56.4384C33.3917 58.0996 35.6139 59.2474 38.0163 59.7648C38.5636 58.954 39.3715 58.3557 40.3054 58.07C41.2391 57.7843 42.2425 57.8279 43.1483 58.1937C44.0537 58.5598 44.8067 59.2258 45.2818 60.081C45.7569 60.9362 45.9253 61.9291 45.7589 62.8936C45.5925 63.8585 45.1015 64.7365 44.3672 65.382C43.6334 66.0275 42.7008 66.4013 41.725 66.4409C40.7497 66.4806 39.7898 66.184 39.0061 65.6001C38.2222 65.0166 37.6617 64.181 37.4179 63.233V63.2257Z" fill="white"/>
<path d="M97.0515 28.7909C96.9455 28.7158 96.8591 28.6159 96.7999 28.4999C96.7407 28.3839 96.7107 28.2552 96.7119 28.1249C96.7175 27.9719 96.7643 27.8232 96.8471 27.6947C96.9303 27.5662 97.0467 27.4626 97.1838 27.395C97.321 27.3275 97.4738 27.2984 97.6261 27.3109C97.7785 27.3234 97.9245 27.3771 98.0488 27.4662C98.8283 28.1273 99.816 28.4914 100.837 28.4941C101.921 28.4941 102.607 27.9801 102.607 27.2418C102.607 26.5179 102.203 26.1415 100.354 25.7144C98.2292 25.2004 97.0371 24.5707 97.0371 22.732C97.0371 21.0164 98.4823 19.8365 100.44 19.8365C101.566 19.8145 102.671 20.1405 103.605 20.7703C103.728 20.8442 103.83 20.9509 103.897 21.0785C103.965 21.2062 103.996 21.3499 103.987 21.4942C103.985 21.6424 103.943 21.7873 103.866 21.9139C103.79 22.0405 103.68 22.1442 103.55 22.2143C103.419 22.2844 103.272 22.3184 103.125 22.3126C102.977 22.307 102.833 22.2618 102.709 22.1819C102.031 21.7189 101.232 21.4671 100.411 21.458C99.3853 21.458 98.7855 21.9864 98.7855 22.6452C98.7855 23.4125 99.241 23.7599 101.17 24.2159C103.272 24.7299 104.356 25.4828 104.356 27.1115C104.356 28.9791 102.911 30.0939 100.794 30.0939C99.4377 30.083 98.1224 29.6251 97.0515 28.7909Z" fill="white"/>
<path d="M112.903 29.1233C112.883 29.341 112.783 29.5433 112.622 29.6907C112.461 29.838 112.25 29.9197 112.032 29.9197C111.814 29.9197 111.604 29.838 111.443 29.6907C111.282 29.5433 111.181 29.341 111.162 29.1233V28.7397C110.92 29.1465 110.576 29.4829 110.164 29.7153C109.752 29.9476 109.286 30.068 108.814 30.0644C107.123 30.0644 106.141 28.9206 106.141 27.1689V23.1586C106.141 22.9301 106.231 22.711 106.392 22.5495C106.554 22.3879 106.772 22.2971 107 22.2971C107.228 22.2971 107.447 22.3879 107.608 22.5495C107.769 22.711 107.86 22.9301 107.86 23.1586V26.6549C107.86 27.8203 108.445 28.4791 109.471 28.4791C109.709 28.4847 109.945 28.4394 110.163 28.346C110.381 28.2527 110.577 28.1135 110.737 27.9379C110.898 27.7623 111.018 27.5543 111.091 27.328C111.165 27.1017 111.189 26.8623 111.162 26.6259V23.1586C111.151 23.0373 111.165 22.9151 111.204 22.7997C111.243 22.6844 111.305 22.5783 111.387 22.4884C111.469 22.3985 111.569 22.3267 111.68 22.2776C111.791 22.2285 111.911 22.2031 112.032 22.2031C112.154 22.2031 112.274 22.2285 112.385 22.2776C112.496 22.3267 112.596 22.3985 112.678 22.4884C112.76 22.5783 112.822 22.6844 112.861 22.7997C112.9 22.9151 112.914 23.0373 112.903 23.1586V29.1233Z" fill="white"/>
<path d="M115.048 23.1591C115.038 23.0389 115.052 22.9177 115.09 22.8032C115.128 22.6887 115.19 22.5836 115.272 22.4944C115.353 22.4052 115.452 22.3339 115.562 22.2852C115.672 22.2364 115.791 22.2113 115.912 22.2113C116.033 22.2113 116.152 22.2364 116.262 22.2852C116.372 22.3339 116.471 22.4052 116.553 22.4944C116.634 22.5836 116.695 22.6887 116.734 22.8032C116.772 22.9177 116.786 23.0389 116.775 23.1591V23.6079C117.047 23.1727 117.425 22.8145 117.874 22.5674C118.323 22.3203 118.828 22.1925 119.34 22.1964C121.103 22.1964 122.83 23.5935 122.83 26.1053C122.83 28.6027 121.117 30.0143 119.34 30.0143C118.837 30.0203 118.34 29.9027 117.893 29.6717C117.446 29.4408 117.062 29.1036 116.775 28.6896V31.3535C116.756 31.5692 116.656 31.7698 116.497 31.9159C116.337 32.0619 116.128 32.1429 115.912 32.1429C115.695 32.1429 115.487 32.0619 115.328 31.9159C115.168 31.7698 115.068 31.5692 115.048 31.3535V23.1591ZM121.074 26.156C121.099 25.8532 121.061 25.5485 120.964 25.2606C120.867 24.9728 120.712 24.7079 120.51 24.4821C120.306 24.2564 120.06 24.0746 119.784 23.948C119.508 23.8213 119.21 23.7524 118.907 23.7455C118.605 23.7584 118.31 23.8313 118.037 23.96C117.764 24.0887 117.52 24.2706 117.318 24.495C117.116 24.7195 116.961 24.9819 116.862 25.2671C116.762 25.5523 116.721 25.8545 116.739 26.156C116.721 26.4575 116.762 26.7597 116.862 27.0449C116.961 27.3301 117.116 27.5926 117.318 27.817C117.52 28.0414 117.764 28.2233 118.037 28.352C118.31 28.4807 118.605 28.5536 118.907 28.5665C119.213 28.5684 119.515 28.5054 119.795 28.3816C120.075 28.2578 120.325 28.0762 120.53 27.8485C120.735 27.6208 120.889 27.3523 120.983 27.0606C121.077 26.7689 121.108 26.4606 121.074 26.156Z" fill="white"/>
<path d="M124.607 23.1591C124.604 23.0452 124.624 22.9317 124.665 22.8256C124.707 22.7194 124.769 22.6227 124.849 22.5411C124.928 22.4594 125.023 22.3945 125.128 22.3503C125.233 22.306 125.346 22.2832 125.459 22.2833C125.691 22.2833 125.914 22.3755 126.078 22.5398C126.242 22.7041 126.334 22.9269 126.334 23.1591V23.6079C126.605 23.1727 126.983 22.8145 127.432 22.5674C127.882 22.3203 128.386 22.1925 128.899 22.1964C130.661 22.1964 132.388 23.5935 132.388 26.1053C132.388 28.6027 130.676 30.0143 128.899 30.0143C128.395 30.0203 127.899 29.9027 127.451 29.6717C127.004 29.4408 126.621 29.1036 126.334 28.6896V31.3535C126.334 31.4675 126.311 31.5804 126.267 31.6855C126.222 31.7905 126.158 31.8857 126.076 31.9653C125.995 32.0449 125.898 32.1073 125.792 32.149C125.686 32.1906 125.573 32.2106 125.459 32.2076C125.347 32.2086 125.236 32.1872 125.132 32.1446C125.028 32.102 124.934 32.0391 124.854 31.9596C124.775 31.8801 124.712 31.7855 124.67 31.6815C124.627 31.5774 124.606 31.4659 124.607 31.3535V23.1591ZM130.633 26.156C130.657 25.8532 130.62 25.5485 130.523 25.2606C130.425 24.9728 130.271 24.7079 130.068 24.4821C129.865 24.2564 129.618 24.0746 129.342 23.948C129.066 23.8213 128.768 23.7524 128.465 23.7455C128.163 23.7584 127.868 23.8313 127.595 23.96C127.322 24.0887 127.078 24.2706 126.876 24.495C126.675 24.7195 126.519 24.9819 126.42 25.2671C126.321 25.5523 126.279 25.8545 126.298 26.156C126.279 26.4575 126.321 26.7597 126.42 27.0449C126.519 27.3301 126.675 27.5926 126.876 27.817C127.078 28.0414 127.322 28.2233 127.595 28.352C127.868 28.4807 128.163 28.5536 128.465 28.5665C128.771 28.5684 129.074 28.5054 129.353 28.3816C129.633 28.2578 129.883 28.0762 130.088 27.8485C130.293 27.6208 130.447 27.3523 130.541 27.0606C130.635 26.7689 130.666 26.4606 130.633 26.156Z" fill="white"/>
<path d="M133.754 26.1849C133.798 25.1498 134.24 24.1718 134.986 23.4549C135.732 22.7381 136.727 22.3379 137.76 22.3379C138.794 22.3379 139.788 22.7381 140.535 23.4549C141.281 24.1718 141.723 25.1498 141.767 26.1849C141.765 26.7088 141.659 27.2271 141.455 27.7095C141.25 28.1918 140.952 28.6284 140.577 28.9939C140.203 29.3592 139.759 29.646 139.272 29.8374C138.785 30.0287 138.265 30.1209 137.742 30.1084C137.221 30.122 136.702 30.0303 136.217 29.8389C135.732 29.6475 135.29 29.3602 134.918 28.9941C134.546 28.628 134.251 28.1906 134.051 27.708C133.851 27.2254 133.75 26.7074 133.754 26.1849ZM140.047 26.1849C140.061 25.8726 140.011 25.5607 139.902 25.2679C139.792 24.9752 139.625 24.7075 139.41 24.4811C139.194 24.2547 138.936 24.0741 138.649 23.9502C138.363 23.8263 138.054 23.7616 137.742 23.7599C137.433 23.7574 137.127 23.8185 136.842 23.9397C136.558 24.0608 136.301 24.2393 136.088 24.464C135.876 24.6887 135.711 24.9549 135.606 25.246C135.5 25.537 135.455 25.8468 135.474 26.1559C135.462 26.4665 135.513 26.7762 135.623 27.0668C135.733 27.3574 135.9 27.6229 136.114 27.8477C136.328 28.0725 136.585 28.2519 136.87 28.3754C137.154 28.4988 137.461 28.5638 137.771 28.5665C138.08 28.5699 138.386 28.5099 138.67 28.3901C138.954 28.2703 139.211 28.0933 139.424 27.8701C139.638 27.6468 139.803 27.382 139.91 27.0922C140.017 26.8023 140.064 26.4935 140.047 26.1849Z" fill="white"/>
<path d="M143.522 23.1591C143.519 23.0451 143.539 22.9317 143.581 22.8255C143.622 22.7194 143.684 22.6226 143.764 22.541C143.843 22.4594 143.938 22.3945 144.043 22.3502C144.148 22.306 144.261 22.2832 144.374 22.2832C144.489 22.2832 144.602 22.3059 144.708 22.35C144.813 22.3941 144.909 22.4587 144.99 22.5402C145.071 22.6216 145.135 22.7182 145.177 22.8244C145.221 22.9307 145.243 23.0444 145.241 23.1591V23.9264C145.374 23.5016 145.622 23.1222 145.958 22.8307C146.293 22.5392 146.703 22.3471 147.142 22.2759C147.256 22.2673 147.37 22.2834 147.478 22.3233C147.585 22.3632 147.683 22.4258 147.764 22.5069C147.845 22.588 147.907 22.6857 147.947 22.7933C147.987 22.9008 148.003 23.0158 147.994 23.1301C148 23.3279 147.933 23.521 147.807 23.673C147.68 23.825 147.503 23.9254 147.308 23.9554C146.087 24.1725 145.241 25.1136 145.241 26.8943V29.1239C145.241 29.237 145.217 29.3488 145.173 29.453C145.129 29.5571 145.065 29.6516 144.985 29.7309C144.904 29.8102 144.809 29.8729 144.704 29.9152C144.599 29.9577 144.488 29.979 144.374 29.978C144.262 29.979 144.151 29.9576 144.047 29.915C143.943 29.8724 143.849 29.8096 143.769 29.73C143.69 29.6505 143.627 29.556 143.585 29.4519C143.543 29.3478 143.521 29.2363 143.522 29.1239V23.1591Z" fill="white"/>
<path d="M149.757 27.8205V23.8537H149.475C149.284 23.8537 149.1 23.7774 148.964 23.6417C148.829 23.5059 148.753 23.3218 148.753 23.1298C148.753 22.9378 148.829 22.7537 148.964 22.6179C149.1 22.4822 149.284 22.4059 149.475 22.4059H149.757V21.1246C149.777 20.9089 149.876 20.7083 150.036 20.5622C150.196 20.4162 150.404 20.3352 150.621 20.3352C150.837 20.3352 151.045 20.4162 151.205 20.5622C151.365 20.7083 151.464 20.9089 151.484 21.1246V22.4059H152.835C153.026 22.4059 153.21 22.4822 153.346 22.6179C153.481 22.7537 153.557 22.9378 153.557 23.1298C153.557 23.3218 153.481 23.5059 153.346 23.6417C153.21 23.7774 153.026 23.8537 152.835 23.8537H151.484V27.5527C151.463 27.6797 151.473 27.8098 151.511 27.9324C151.55 28.055 151.618 28.1667 151.708 28.2584C151.798 28.3501 151.908 28.4192 152.03 28.4601C152.152 28.501 152.282 28.5125 152.409 28.4938C152.551 28.4866 152.694 28.4721 152.835 28.4503C153.026 28.4503 153.21 28.5266 153.346 28.6623C153.481 28.7981 153.557 28.9822 153.557 29.1742C153.556 29.318 153.512 29.4581 153.431 29.5766C153.35 29.6953 153.236 29.787 153.102 29.8401C152.722 29.9772 152.321 30.0458 151.917 30.0429C150.653 30.0356 149.757 29.4782 149.757 27.8205Z" fill="white"/>
<path d="M100.115 41.7042L96.6834 36.9844C96.5546 36.8049 96.4842 36.5902 96.4814 36.3691C96.483 36.2557 96.5074 36.1438 96.553 36.0399C96.5986 35.936 96.6642 35.8422 96.7462 35.7641C96.8282 35.6859 96.9249 35.6249 97.0309 35.5846C97.1369 35.5443 97.2497 35.5255 97.3628 35.5294C97.54 35.5337 97.7128 35.5849 97.8635 35.6777C98.0147 35.7705 98.1383 35.9016 98.2226 36.0578L100.997 40.0682L103.815 36.0434C103.897 35.8892 104.019 35.7594 104.167 35.6667C104.315 35.5741 104.485 35.5217 104.66 35.5149C104.773 35.5119 104.885 35.532 104.99 35.5739C105.094 35.6157 105.189 35.6785 105.269 35.7585C105.349 35.8384 105.412 35.9337 105.453 36.0387C105.495 36.1437 105.515 36.2561 105.512 36.3691C105.501 36.6003 105.415 36.8216 105.267 36.9989L101.864 41.7042V44.8313C101.864 45.0635 101.772 45.2864 101.608 45.4504C101.444 45.6149 101.222 45.707 100.99 45.707C100.758 45.707 100.535 45.6149 100.371 45.4504C100.207 45.2864 100.115 45.0635 100.115 44.8313V41.7042Z" fill="white"/>
<path d="M105.484 41.8782C105.484 40.8129 105.906 39.791 106.658 39.0375C107.41 38.2841 108.43 37.8608 109.493 37.8608C110.557 37.8608 111.577 38.2841 112.329 39.0375C113.081 39.791 113.503 40.8129 113.503 41.8782C113.501 42.4029 113.395 42.9219 113.19 43.4046C112.985 43.8876 112.687 44.3242 112.311 44.69C111.936 45.0554 111.491 45.3419 111.003 45.5328C110.516 45.7237 109.995 45.8154 109.471 45.8018C108.95 45.8154 108.432 45.7237 107.946 45.5324C107.461 45.3407 107.019 45.0534 106.647 44.6876C106.275 44.3214 105.98 43.884 105.78 43.4014C105.58 42.9187 105.48 42.4009 105.484 41.8782ZM111.776 41.8782C111.789 41.5661 111.739 41.2547 111.629 40.9626C111.519 40.67 111.351 40.4031 111.137 40.177C110.921 39.9506 110.664 39.77 110.377 39.6457C110.091 39.5214 109.783 39.456 109.471 39.4534C109.163 39.4519 108.857 39.5138 108.573 39.6352C108.289 39.7567 108.033 39.9352 107.82 40.1598C107.607 40.3843 107.443 40.65 107.337 40.9406C107.231 41.2311 107.185 41.5405 107.203 41.8494C107.191 42.16 107.242 42.4697 107.352 42.7603C107.462 43.0508 107.629 43.3165 107.843 43.541C108.057 43.766 108.314 43.9452 108.599 44.0689C108.884 44.1922 109.19 44.2574 109.501 44.2598C109.809 44.2634 110.115 44.2034 110.399 44.0837C110.684 43.9637 110.94 43.7868 111.154 43.5635C111.367 43.3401 111.533 43.0756 111.639 42.7855C111.746 42.4957 111.793 42.1868 111.776 41.8782Z" fill="white"/>
<path d="M121.934 44.8172C121.914 45.0349 121.815 45.2374 121.653 45.3847C121.492 45.532 121.282 45.6136 121.064 45.6136C120.846 45.6136 120.636 45.532 120.474 45.3847C120.313 45.2374 120.213 45.0349 120.193 44.8172V44.4339C119.951 44.8405 119.607 45.177 119.195 45.4095C118.783 45.6416 118.318 45.7621 117.845 45.7585C116.147 45.7585 115.165 44.6219 115.165 42.8631V38.8527C115.154 38.7324 115.168 38.6112 115.206 38.4967C115.245 38.3823 115.306 38.2771 115.388 38.1879C115.469 38.0987 115.568 38.0274 115.678 37.9787C115.788 37.93 115.907 37.9048 116.028 37.9048C116.149 37.9048 116.268 37.93 116.378 37.9787C116.489 38.0274 116.587 38.0987 116.668 38.1879C116.75 38.2771 116.812 38.3823 116.85 38.4967C116.888 38.6112 116.902 38.7324 116.892 38.8527V42.3488C116.892 43.5218 117.477 44.1733 118.503 44.1733C118.74 44.1801 118.977 44.1357 119.196 44.0425C119.415 43.9496 119.611 43.8103 119.772 43.6347C119.932 43.4586 120.053 43.2501 120.126 43.0236C120.198 42.7966 120.221 42.5565 120.193 42.32V38.8527C120.192 38.7383 120.214 38.6249 120.257 38.5191C120.3 38.4133 120.364 38.3171 120.445 38.2363C120.526 38.1554 120.622 38.0915 120.728 38.0482C120.833 38.0049 120.946 37.983 121.06 37.984C121.291 37.984 121.512 38.0753 121.676 38.238C121.84 38.4007 121.932 38.6216 121.934 38.8527V44.8172Z" fill="white"/>
<path d="M124.079 38.8524C124.077 38.7389 124.098 38.6263 124.14 38.521C124.182 38.4157 124.244 38.3198 124.324 38.239C124.403 38.1581 124.498 38.0939 124.602 38.05C124.707 38.0062 124.819 37.9837 124.932 37.9837C125.047 37.9817 125.161 38.0029 125.267 38.0457C125.373 38.0886 125.47 38.1524 125.552 38.2333C125.633 38.3143 125.698 38.4108 125.741 38.5171C125.785 38.6234 125.807 38.7374 125.806 38.8524V39.6197C125.937 39.1955 126.184 38.8163 126.518 38.5247C126.853 38.2332 127.262 38.0408 127.699 37.9692C127.911 37.9644 128.118 38.04 128.277 38.1807C128.436 38.3215 128.537 38.5171 128.559 38.7288C128.581 38.9404 128.522 39.1526 128.395 39.3231C128.268 39.4935 128.081 39.6097 127.872 39.6486C126.644 39.8658 125.806 40.8069 125.806 42.595V44.8173C125.805 44.9309 125.782 45.0434 125.737 45.1478C125.692 45.2527 125.628 45.3471 125.546 45.4268C125.465 45.506 125.369 45.5684 125.264 45.6105C125.158 45.6525 125.045 45.6733 124.932 45.6713C124.819 45.6721 124.708 45.6509 124.604 45.6081C124.501 45.5656 124.406 45.5028 124.327 45.4232C124.248 45.3439 124.185 45.2491 124.142 45.145C124.1 45.041 124.078 44.9297 124.079 44.8173V38.8524Z" fill="white"/>
<path d="M96.734 60.1569L100.44 51.8832C100.522 51.6691 100.666 51.485 100.855 51.3553C101.043 51.2261 101.267 51.1576 101.495 51.1592H101.582C101.808 51.1572 102.03 51.2261 102.217 51.3557C102.403 51.4854 102.545 51.6695 102.622 51.8832L106.343 60.1569C106.407 60.2693 106.442 60.3966 106.444 60.5263C106.447 60.6363 106.428 60.746 106.388 60.8488C106.348 60.9513 106.287 61.0449 106.211 61.1237C106.134 61.2026 106.042 61.2654 105.941 61.3082C105.84 61.3511 105.731 61.3731 105.62 61.3731C105.432 61.3719 105.247 61.3122 105.093 61.2018C104.939 61.0917 104.823 60.9368 104.761 60.758L103.952 58.8902H99.1183L98.2729 60.8156C98.2137 60.9821 98.1037 61.1253 97.9581 61.2258C97.813 61.3258 97.6398 61.3775 97.4639 61.3731C97.3567 61.3743 97.2503 61.3535 97.1511 61.3126C97.052 61.2718 96.962 61.2114 96.8868 61.1354C96.8112 61.0589 96.752 60.9685 96.712 60.8688C96.672 60.7692 96.6524 60.6623 96.6544 60.5551C96.6536 60.4182 96.6804 60.2829 96.734 60.1569ZM103.237 57.3339L101.51 53.2875L99.7541 57.3267L103.237 57.3339Z" fill="white"/>
<path d="M108.113 54.5469C108.102 54.4265 108.116 54.3052 108.154 54.1908C108.193 54.0763 108.254 53.9715 108.336 53.8822C108.417 53.793 108.516 53.7217 108.626 53.6729C108.736 53.6241 108.856 53.5989 108.976 53.5989C109.097 53.5989 109.216 53.6241 109.326 53.6729C109.437 53.7217 109.535 53.793 109.617 53.8822C109.698 53.9715 109.76 54.0763 109.798 54.1908C109.837 54.3052 109.851 54.4265 109.84 54.5469V55.0176C110.112 54.583 110.491 54.2256 110.939 53.9787C111.388 53.7317 111.892 53.6033 112.404 53.6057C114.168 53.6057 115.894 55.0028 115.894 57.5148C115.894 60.012 114.182 61.4311 112.404 61.4311C111.9 61.4375 111.403 61.3191 110.955 61.087C110.508 60.8545 110.125 60.5151 109.84 60.0989V62.7702C109.82 62.9859 109.721 63.1864 109.561 63.3325C109.401 63.4786 109.193 63.5594 108.976 63.5594C108.76 63.5594 108.552 63.4786 108.392 63.3325C108.232 63.1864 108.133 62.9859 108.113 62.7702V54.5469ZM114.138 57.5436C114.163 57.2411 114.126 56.9361 114.029 56.6484C113.932 56.3606 113.777 56.0957 113.574 55.87C113.371 55.6443 113.124 55.4622 112.848 55.3357C112.573 55.2089 112.274 55.14 111.971 55.1332C111.67 55.146 111.374 55.2189 111.101 55.3477C110.829 55.4762 110.584 55.6583 110.382 55.8828C110.18 56.1073 110.025 56.3694 109.926 56.6548C109.827 56.9401 109.785 57.2423 109.804 57.5436C109.785 57.8454 109.827 58.1475 109.926 58.4325C110.025 58.7178 110.18 58.9803 110.382 59.2048C110.584 59.429 110.829 59.611 111.101 59.7399C111.374 59.8684 111.67 59.9412 111.971 59.9544C112.277 59.956 112.579 59.8932 112.859 59.7695C113.139 59.6455 113.39 59.4638 113.594 59.2361C113.799 59.0083 113.954 58.7398 114.047 58.4485C114.141 58.1567 114.172 57.8482 114.138 57.5436Z" fill="white"/>
<path d="M117.671 54.5466C117.668 54.433 117.688 54.3201 117.73 54.214C117.772 54.1084 117.834 54.0123 117.914 53.9311C117.993 53.8499 118.088 53.7858 118.193 53.7422C118.298 53.699 118.41 53.677 118.524 53.6782C118.638 53.677 118.752 53.699 118.858 53.7422C118.964 53.7854 119.06 53.8491 119.142 53.9299C119.223 54.0107 119.287 54.1068 119.331 54.2124C119.375 54.3185 119.398 54.4322 119.398 54.5466V55.0172C119.67 54.583 120.049 54.2257 120.498 53.9783C120.946 53.7314 121.451 53.6033 121.963 53.6057C123.726 53.6057 125.452 55.0028 125.452 57.5145C125.452 60.0121 123.74 61.4308 121.963 61.4308C121.459 61.4372 120.961 61.3192 120.514 61.0866C120.066 60.8545 119.683 60.5152 119.398 60.099V62.7699C119.398 62.8839 119.375 62.9968 119.331 63.102C119.287 63.2069 119.222 63.3021 119.14 63.3818C119.059 63.4614 118.962 63.5238 118.856 63.5655C118.751 63.6071 118.637 63.6271 118.524 63.6243C118.411 63.6251 118.3 63.6039 118.196 63.5611C118.092 63.5186 117.998 63.4558 117.919 63.3762C117.84 63.2965 117.777 63.2021 117.734 63.098C117.692 62.994 117.67 62.8823 117.671 62.7699V54.5466ZM123.697 57.5437C123.721 57.2407 123.684 56.9362 123.587 56.648C123.49 56.3603 123.335 56.0954 123.132 55.8697C122.929 55.644 122.682 55.4623 122.406 55.3354C122.131 55.2089 121.833 55.1401 121.529 55.1329C121.228 55.1461 120.932 55.2189 120.66 55.3474C120.387 55.4763 120.143 55.658 119.941 55.8825C119.739 56.107 119.584 56.3695 119.484 56.6549C119.385 56.9398 119.343 57.2419 119.362 57.5437C119.343 57.845 119.385 58.1472 119.484 58.4325C119.584 58.7175 119.739 58.98 119.941 59.2045C120.143 59.429 120.387 59.6107 120.66 59.7396C120.932 59.8684 121.228 59.9413 121.529 59.9541C121.834 59.9541 122.135 59.8892 122.413 59.7648C122.691 59.6399 122.94 59.4582 123.143 59.2305C123.346 59.0032 123.499 58.7355 123.592 58.4445C123.685 58.154 123.716 57.847 123.682 57.5437H123.697Z" fill="white"/>
</g>
<defs>
<clipPath id="clip0_1372_44">
<rect width="175" height="81" fill="white"/>
</clipPath>
</defs>
</svg>
