<svg width="157" height="41" viewBox="0 0 157 41" fill="none" xmlns="http://www.w3.org/2000/svg">
<path d="M52.6692 29.4373V31.7758H50.522V31.768C50.6733 31.7628 50.8221 31.7628 50.9709 31.7602V29.4373H52.6692Z" fill="white"/>
<path d="M50.522 29.4373H50.9709V31.7602C50.8247 31.7654 50.6733 31.7654 50.522 31.768V29.4373Z" fill="white"/>
<path d="M50.0397 29.4373V31.7758H46.8484V16.2738H40.3145V13.0544H42.6079C42.6079 13.4546 42.613 13.834 42.6284 14.1016H48.9469L48.9597 14.4498C48.9751 14.8889 48.9725 15.3098 48.9725 15.7256V15.7724C48.9674 15.9828 48.9674 16.1881 48.9674 16.3908C48.9725 17.0482 48.9725 17.6978 48.9725 18.3422V29.4373H50.0397Z" fill="white"/>
<path d="M40.3146 9.92847H55.2835V12.0514H42.6388C42.626 12.293 42.6157 12.6568 42.6106 13.0517H40.312V9.92847H40.3146Z" fill="white"/>
<path d="M54.034 14.1172L55.2859 14.1224V16.2713H53.3824V19.7219H51.1069V14.1172H52.3306C52.3973 14.1172 52.4589 14.1224 52.5153 14.1224H52.5897C52.6949 14.1224 52.7949 14.1276 52.9027 14.1224C53.054 14.1172 53.208 14.1172 53.3619 14.1172H54.034Z" fill="white"/>
<path d="M59.0492 9.92847V16.2581H55.9888V14.1898H56.625V12.054H55.9888V9.92847H59.0492Z" fill="white"/>
<path d="M52.5362 29.4373V31.6199L52.2822 31.6979C52.1719 31.7316 51.6152 31.7498 50.9688 31.7628V29.4373H52.5362Z" fill="white"/>
<path d="M87.9585 10.0063V17.4066L85.5625 17.3728V10.0063H87.9585Z" fill="white"/>
<path d="M85.8602 17.9132L87.6175 19.7295C86.6965 19.7347 85.7704 19.7373 84.8546 19.7217C84.7263 19.7217 84.5749 19.6229 84.48 19.5242C83.772 18.7836 83.0614 18.0431 82.3533 17.2974C82.2815 17.2246 82.2071 17.1493 82.1404 17.0713C80.6576 15.5201 79.1774 13.9688 77.6998 12.4176C77.6151 12.3318 77.5382 12.2331 77.3894 12.1681V19.7113H74.9497V9.9803H76.1452C76.7506 9.9803 77.3611 9.9881 77.9666 9.97511C78.1795 9.96991 78.3232 10.0453 78.4668 10.196C80.2087 12.0304 81.9583 13.8597 83.7078 15.689L83.7412 15.7227C84.2671 16.271 84.7879 16.8193 85.3138 17.3675L85.5267 17.5754C85.5395 17.5832 85.5498 17.5962 85.5626 17.6092L85.8602 17.9132Z" fill="white"/>
<path d="M106.804 22.0084C106.804 22.6684 106.804 23.2868 106.804 23.9364C106.668 23.9364 106.55 23.9364 106.429 23.9364C103.561 23.9364 100.693 23.9364 97.825 23.9338C97.4684 23.9338 97.1093 23.9468 96.9425 24.3261C96.7655 24.7315 96.7604 25.1628 96.9554 25.5656C97.0785 25.8176 97.3196 25.9008 97.5941 25.8982C98.274 25.8956 98.9512 25.8982 99.631 25.8982C101.293 25.8982 102.956 25.8904 104.618 25.9034C105 25.906 105.39 25.9371 105.762 26.0255C106.606 26.2308 107.201 26.9505 107.271 27.9197C107.319 28.5849 107.322 29.2735 107.209 29.9283C107.027 30.991 106.134 31.7367 105.059 31.7445C101.604 31.7653 98.1482 31.7523 94.6671 31.7523C94.6671 31.1131 94.6671 30.4791 94.6671 29.8087C94.7928 29.8087 94.9108 29.8087 95.0288 29.8087C98.0072 29.8087 100.988 29.8087 103.966 29.8087C104.657 29.8087 104.875 29.5879 104.88 28.8967C104.88 28.8058 104.882 28.7122 104.88 28.6213C104.862 28.1016 104.598 27.8418 104.074 27.8392C101.753 27.8366 99.4335 27.8444 97.1118 27.8314C96.7424 27.8288 96.3576 27.7976 96.0036 27.6962C94.9852 27.4104 94.408 26.6127 94.408 25.5474C94.408 25.0381 94.3926 24.5236 94.4541 24.0221C94.5901 22.9204 95.5162 22.0863 96.6193 22.0188C96.8425 22.0058 97.0657 22.0032 97.2889 22.0032C100.319 22.0032 103.348 22.0032 106.38 22.0032C106.511 22.0084 106.642 22.0084 106.804 22.0084Z" fill="white"/>
<path d="M141.29 29.814C143.334 29.814 145.299 29.814 147.264 29.814C147.539 29.814 147.811 29.8192 148.085 29.8114C148.614 29.801 148.978 29.4736 148.986 28.941C149.001 27.5742 149.001 26.2074 148.986 24.8407C148.981 24.2664 148.596 23.9391 147.983 23.9365C146.372 23.9339 144.761 23.9365 143.15 23.9365C142.531 23.9365 141.913 23.9365 141.295 23.9365C141.195 23.9365 141.097 23.9365 140.961 23.9365C140.961 26.5556 140.961 29.141 140.961 31.742C140.138 31.742 139.353 31.742 138.54 31.742C138.54 28.5096 138.54 25.272 138.54 22.0084C138.652 22.0084 138.752 22.0084 138.85 22.0084C142.003 22.0084 145.153 22.0292 148.306 22.0007C149.914 21.9851 151.071 23.0972 151.341 24.321C151.4 24.5886 151.425 24.8667 151.428 25.1395C151.438 26.314 151.436 27.4859 151.43 28.6603C151.423 30.4428 150.104 31.7602 148.332 31.7628C146.71 31.7628 145.089 31.768 143.468 31.755C143.319 31.755 143.137 31.6745 143.026 31.5705C142.511 31.0794 142.016 30.5701 141.513 30.0661C141.449 29.9985 141.395 29.9309 141.29 29.814Z" fill="white"/>
<path d="M136.521 31.7472C135.6 31.7524 134.674 31.755 133.758 31.7394C133.63 31.7394 133.478 31.6407 133.383 31.5419C132.675 30.8014 131.965 30.0608 131.257 29.3151C131.185 29.2424 131.11 29.167 131.044 29.089C129.561 27.5378 128.081 25.9866 126.603 24.4353C126.518 24.3496 126.441 24.2508 126.293 24.1859V31.729H123.853V21.9954H125.048C125.654 21.9954 126.264 22.0032 126.87 21.9902C127.083 21.985 127.226 22.0604 127.37 22.2111C129.112 24.0456 130.862 25.8748 132.611 27.7041L132.645 27.7379C133.17 28.2861 133.691 28.8344 134.217 29.3827L134.43 29.5905C134.443 29.5983 134.453 29.6113 134.466 29.6243L134.766 29.9283L136.521 31.7472Z" fill="white"/>
<path d="M136.859 22.0212V29.4215L134.463 29.3877V22.0212H136.859Z" fill="white"/>
<path d="M78.2847 24.8743C78.2642 23.388 76.9918 22.0655 75.5167 22.0265C74.3033 21.9927 73.0873 22.0213 71.8713 22.0213V22.0083C70.7246 22.0083 69.5805 22.0083 68.4363 22.0135C68.3747 22.0135 68.3157 22.0187 68.2542 22.0187C66.7457 22.0837 65.481 23.3543 65.4528 24.8665C65.4323 26.2203 65.4323 27.5793 65.4579 28.9356C65.481 30.4297 66.7663 31.7393 68.2465 31.7549C70.6553 31.7757 73.0668 31.7757 75.4808 31.7549C76.9636 31.7393 78.2642 30.4037 78.2847 28.9148C78.3001 27.5663 78.3001 26.2203 78.2847 24.8743ZM75.8579 28.8473C75.8579 29.4657 75.5193 29.8087 74.8959 29.8139C73.8851 29.8191 72.8718 29.8139 71.8611 29.8139C70.8657 29.8139 69.878 29.8191 68.8827 29.8139C68.2003 29.8087 67.8796 29.4865 67.8796 28.8031V24.9185C67.8796 24.2871 68.208 23.9415 68.8211 23.9415C70.8503 23.9337 72.8744 23.9337 74.8984 23.9415C75.5167 23.9415 75.8553 24.2897 75.8553 24.9081C75.863 26.2203 75.863 27.5325 75.8579 28.8473Z" fill="white"/>
<path d="M112.581 28.3536C113.207 28.3536 113.764 28.3536 114.318 28.3536C115.008 28.3536 115.695 28.3484 116.385 28.3588C116.491 28.3614 116.645 28.4056 116.691 28.4835C117.037 29.0552 117.363 29.6424 117.732 30.2868C117.581 30.2868 117.478 30.2868 117.376 30.2868C115.511 30.2868 113.646 30.2894 111.783 30.2816C111.578 30.2816 111.455 30.331 111.355 30.5259C111.167 30.887 110.957 31.2352 110.739 31.5782C110.688 31.6588 110.577 31.7471 110.493 31.7497C109.672 31.7627 108.854 31.7575 107.994 31.7575C108.048 31.651 108.084 31.5704 108.125 31.4951C109.885 28.4134 111.645 25.3317 113.399 22.2474C113.494 22.0811 113.592 21.9979 113.797 22.0005C114.769 22.0135 115.742 22.0109 116.716 22.0031C116.888 22.0005 116.988 22.0551 117.078 22.2084C118.848 25.3187 120.623 28.4264 122.399 31.534C122.432 31.5938 122.463 31.6536 122.514 31.7549C121.634 31.7549 120.798 31.7627 119.962 31.7445C119.879 31.7419 119.779 31.6094 119.726 31.5133C118.297 29.0032 116.87 26.4932 115.444 23.9805C115.385 23.8766 115.323 23.7752 115.241 23.6349C114.349 25.2174 113.484 26.753 112.581 28.3536Z" fill="white"/>
<path d="M79.9031 22.0266C80.7138 22.0266 81.5013 22.0266 82.3274 22.0266C82.3274 22.1617 82.3274 22.2813 82.3274 22.4008C82.3274 24.4925 82.3274 26.5816 82.3274 28.6733C82.3274 28.8162 82.33 28.9591 82.3505 29.0994C82.4146 29.51 82.7301 29.8088 83.1406 29.8088C85.257 29.8166 87.376 29.8166 89.4924 29.8088C89.9978 29.8062 90.3287 29.4242 90.3287 28.8786C90.3313 26.7271 90.3287 24.5756 90.3287 22.4216C90.3287 22.2994 90.3287 22.1799 90.3287 22.0344C91.1394 22.0344 91.9321 22.0344 92.7658 22.0344C92.7658 22.1435 92.7658 22.2527 92.7658 22.3618C92.7658 24.4431 92.7248 26.5244 92.7787 28.6031C92.8223 30.3519 91.4498 31.8044 89.6258 31.7706C87.4068 31.729 85.1878 31.7602 82.9713 31.7602C81.2217 31.7602 79.9236 30.5415 79.8954 28.785C79.8595 26.5816 79.8852 24.3782 79.8877 22.1773C79.8852 22.1357 79.8929 22.0968 79.9031 22.0266Z" fill="white"/>
<path d="M54.0957 25.9007C56.5456 25.9007 58.9391 25.9007 61.3608 25.9007C61.3608 24.6015 61.3608 23.3309 61.3608 22.0369C62.1817 22.0369 62.9744 22.0369 63.7876 22.0369C63.7876 25.2615 63.7876 28.4887 63.7876 31.7393C63.0001 31.7393 62.2074 31.7393 61.3762 31.7393C61.3762 30.4531 61.3762 29.1668 61.3762 27.8443C61.2325 27.8443 61.1248 27.8443 61.0145 27.8443C59.424 27.8443 57.8334 27.8495 56.2455 27.8365C56.1044 27.8365 55.9299 27.7663 55.8299 27.6676C55.2604 27.1037 54.7063 26.5243 54.0957 25.9007Z" fill="white"/>
<path d="M53.3696 22.0654H51.2173V31.7782H53.3696V22.0654Z" fill="white"/>
<path d="M61.3789 13.8704H72.6408V16.0062H63.8109V17.7731H72.6331V19.7141H61.3789V13.8704Z" fill="white"/>
<path d="M72.6639 19.7453H61.3481V13.8391H72.6716V16.0399H63.8417V17.7445H72.6639V19.7453ZM61.4097 19.6829H72.6024V17.8069H63.7801V15.975H72.6101V13.9015H61.4097V19.6829Z" fill="white"/>
<path d="M72.6408 9.99854H61.3789V12.1708H72.6408V9.99854Z" fill="white"/>
<path d="M72.6716 12.2021H61.3481V9.96484H72.6716V12.2021ZM61.4097 12.1397H72.6101V10.0298H61.4097V12.1397Z" fill="white"/>
<path d="M52.1692 29.4373H48.9702V31.7784H52.1692V29.4373Z" fill="white"/>
<path d="M57.5818 9.91284H54.5034V12.0539H57.5818V9.91284Z" fill="white"/>
<path d="M59.0522 14.1169H54.2935V16.258H59.0522V14.1169Z" fill="white"/>
<path d="M15.5535 15.0759V15.0889L14.4453 15.7697L15.5535 15.0759Z" fill="white"/>
<path d="M15.949 14.8342L15.554 15.0759V15.0889L14.4457 15.7696L12.3216 17.1052C12.2293 17.1728 12.1369 17.2247 12.0317 17.2793V12.228L15.949 14.8342Z" fill="white"/>
<path d="M32.8316 19.5504L32.8188 23.8507V25.0122H32.806L27.7804 28.1121C26.9108 27.5249 26.0386 26.9506 25.1689 26.3764C24.5635 25.9762 23.9811 25.5761 23.3885 25.1733H23.3757L22.3727 24.4666L20.9874 25.415L20.9207 25.4539L10.7644 31.7862C9.15592 30.7053 7.53205 29.6218 5.91074 28.5538C5.81839 28.4993 5.81839 28.4993 5.83121 28.4213V23.0634L6.95228 23.8118C7.65262 24.2795 8.36323 24.7472 9.06357 25.2149L10.3155 26.0438L10.7772 26.3504L11.239 26.0568L12.3857 25.35C14.5098 24.0274 16.6468 22.6919 18.7683 21.3693L21.1156 19.8986C21.5389 19.6439 21.9596 19.3789 22.4214 19.1243L24.466 20.4858C25.1381 20.9276 25.8102 21.3797 26.4695 21.8214L27.3802 22.4216L27.8292 22.7282L28.9374 21.9929C29.9405 21.3641 30.9563 20.7249 31.9697 20.0831L32.8316 19.5504Z" fill="white"/>
<path d="M22.4264 19.1216L22.3726 24.4665L27.7803 28.112L27.8342 22.7307L22.4264 19.1216Z" fill="white"/>
<path d="M5.8335 23.0632L5.84119 28.5043L10.7667 31.786L10.7795 26.3502L5.8335 23.0632Z" fill="white"/>
</svg>
