<svg width="97" height="24" viewBox="0 0 97 24" fill="none" xmlns="http://www.w3.org/2000/svg">
<path d="M96.0065 1.32867C92.9816 -1.94247 76.1606 2.72386 74.7265 5.81716C73.9709 7.44644 76.4438 11.6547 81.2029 16.5457C85.3507 20.8083 89.369 24.7415 91.8945 23.8806C94.4197 23.0195 99.0312 4.59982 96.0065 1.32867Z" fill="white"/>
<path d="M63.8648 7.49662C61.906 7.49662 60.1528 8.81583 59.1403 10.5796V7.79707H55.4683V22.5168H59.1403L59.1398 14.9425C59.1398 11.8499 60.8142 10.8467 62.5044 10.8467C64.3086 10.8467 65.6302 12.1543 65.6302 14.7789C65.6302 17.5276 65.6083 22.5035 65.6083 22.5035H69.2803L69.2988 13.5574C69.2988 9.80647 67.0758 7.49662 63.8648 7.49662Z" fill="white"/>
<path d="M32.2578 22.5027H35.9298V1.7897H32.2578V22.5027Z" fill="white"/>
<path d="M26.0469 7.78291L20.7555 13.8526V1.78972H17.0835V22.5027H20.7555L20.6995 16.5154L25.9492 22.4664H30.5381L24.1162 15.1247L30.5381 7.78291H26.0469Z" fill="white"/>
<path d="M45.7158 19.3544C43.5941 19.3544 41.8743 17.4794 41.8743 15.1669C41.8743 12.8541 43.5941 10.9791 45.7158 10.9791C47.8374 10.9791 49.5572 12.8541 49.5572 15.1669C49.5572 17.4794 47.8374 19.3544 45.7158 19.3544ZM45.7158 7.45338C41.5956 7.45338 38.2554 10.9068 38.2554 15.1669C38.2554 19.4269 41.5956 22.8801 45.7158 22.8801C49.836 22.8801 53.1762 19.4269 53.1762 15.1669C53.1762 10.9068 49.836 7.45338 45.7158 7.45338Z" fill="white"/>
<path d="M10.159 15.3574C10.159 18.4497 8.48485 19.4529 6.79464 19.4529C4.99046 19.4529 3.66854 18.1453 3.66854 15.5207C3.66854 12.7722 3.69074 7.79607 3.69074 7.79607H0.0187463L0 16.7424C0 20.4934 2.22303 22.8032 5.43398 22.8032C7.39307 22.8032 9.14618 21.484 10.1588 19.7203V22.5028H13.8305V7.783H10.1588L10.159 15.3574Z" fill="white"/>
</svg>
