<svg width="139" height="33" viewBox="0 0 139 33" fill="none" xmlns="http://www.w3.org/2000/svg">
<path d="M117.99 21.5419C121.138 20.6718 121.73 18.3019 121.802 16.9673C121.9 15.1856 120.897 13.798 120.009 13.1503C119.225 12.5349 118.111 12.2625 116.393 12.2625L111.116 12.2731L108.127 27.6726H111.477L113.861 15.147H115.835C117.392 15.147 118.496 15.2775 118.507 16.9646C118.514 18.209 117.736 18.9782 116.128 19.3174C115.109 19.5324 114.02 19.7284 113.531 19.8145L117.569 27.6726H121.083L117.751 21.6082L117.99 21.5419Z" fill="white"/>
<path d="M45.0616 12.2627L43.4899 20.7462C43.4001 21.2265 43.3328 21.8652 43.3328 22.6201C43.3553 23.9908 44.2092 25.1126 45.8934 25.1126C47.8713 25.1126 49.1533 23.8098 49.716 20.7462L51.2888 12.2627H54.6831L53.1082 20.7005C52.166 25.6845 49.9608 27.9473 45.4664 27.9473C42.1181 27.9699 39.9604 26.2338 39.9604 22.6201C39.9604 21.9337 40.0505 21.2037 40.1627 20.5402L41.6925 12.2627H45.0616Z" fill="white"/>
<path d="M54.895 27.6724L57.7495 12.2628H61.9759L64.2468 18.0706C64.9416 20.0135 65.3915 21.636 65.8188 23.4897H65.8864C65.9091 21.9333 66.1109 20.5631 66.517 18.4137L67.639 12.2628H70.8759L68.0214 27.6724H64.3364L61.931 21.384C61.212 19.3267 60.6936 17.8189 60.2222 15.944H60.1322C59.9745 17.4302 59.616 19.487 59.1887 21.842L58.1092 27.6724H54.895Z" fill="white"/>
<path d="M77.4834 12.2626L74.608 27.6721H71.2354L74.1129 12.2626H77.4834Z" fill="white"/>
<path d="M89.3442 27.6105C88.6924 27.7635 87.8158 27.9505 85.9079 27.9495C81.8411 27.9473 78.4463 25.7788 78.4463 20.9778C78.4463 17.5929 80.0866 15.0091 82.5804 13.5217C84.2459 12.4943 86.1548 11.9909 88.4934 11.9909C90.425 11.9909 91.2007 12.3287 92.0044 12.6182L91.4347 15.4755C90.9626 15.2474 89.7305 14.8944 88.2008 14.8944C86.7175 14.8944 85.346 15.283 84.336 16.0588C82.9855 17.0205 82.134 18.6429 82.134 20.6804C82.134 23.3096 83.7724 25.0462 86.8303 25.0462C88.0656 25.0462 89.0024 25.0052 89.9026 24.6162L89.3442 27.6105Z" fill="white"/>
<path d="M98.7753 25.1153C99.9449 25.1153 101.023 24.6113 101.832 23.7668C102.934 22.6684 103.585 20.9541 103.585 19.1466C103.585 16.9063 102.733 14.8259 99.9003 14.8259C98.6626 14.8259 97.6079 15.3518 96.7756 16.1963C95.628 17.364 94.9781 19.1004 94.9781 20.8171C94.9781 23.4238 96.2123 25.1153 98.7529 25.1153H98.7753ZM98.2805 27.9495C94.1466 27.9495 91.3364 25.2751 91.3364 21.0688C91.3364 18.3934 92.3483 16.0819 94.0338 14.46C95.605 12.9061 97.8305 11.9909 100.283 11.9909C104.53 11.9909 107.228 14.6198 107.228 18.94C107.228 21.5695 106.283 23.8587 104.62 25.4811C103.068 27.0345 100.865 27.9495 98.3029 27.9495H98.2805Z" fill="white"/>
<path d="M122.446 27.6726L125.3 12.2628H129.525L131.795 18.0711C132.492 20.0138 132.941 21.6365 133.369 23.4894H133.436C133.459 21.9336 133.661 20.5634 134.063 18.4139L135.188 12.2628H138.426L135.571 27.6726H131.884L129.48 21.3843C128.76 19.3272 128.245 17.8192 127.773 15.9445H127.683C127.525 17.4308 127.166 19.4878 126.738 21.842L125.661 27.6726H122.446Z" fill="white"/>
<path d="M20.4515 0.887518C20.5608 0.977488 20.6121 1.11611 20.6741 1.28246C20.7444 1.47219 20.8235 1.68529 21.0127 1.84593C21.1286 2.65266 21.6187 3.24983 22.093 3.82797C22.2565 4.02748 22.4259 4.23406 22.5795 4.44798L22.5961 4.47108L22.6204 4.48521C22.7858 4.58279 23.1113 4.74643 23.4325 4.74643C23.5757 4.74643 23.7015 4.71326 23.8036 4.64939C24.1486 4.4458 24.4075 4.33545 24.7872 4.33545C24.9117 4.33545 25.0512 4.34686 25.2118 4.37051C25.2593 4.43765 25.3029 4.50886 25.3285 4.56051C24.8903 4.73501 24.5654 4.91305 24.2851 5.13022L24.1528 5.23297L24.2798 5.34224C24.3594 5.41073 24.4748 5.44416 24.6322 5.44416C24.8265 5.44416 25.0616 5.39388 25.2689 5.3493C25.3849 5.32457 25.4945 5.30119 25.5768 5.29086C25.6695 5.27945 25.7553 5.26722 25.8357 5.25553C26.012 5.23052 26.1641 5.20851 26.3022 5.20851C26.5419 5.20851 26.7423 5.27918 26.986 5.45042C27.0004 5.48439 27.0135 5.51511 27.0258 5.54365C27.0947 5.70429 27.1295 5.78474 27.1591 5.95979C26.9764 5.91114 26.8163 5.88749 26.6736 5.88749C26.3006 5.88749 26.093 6.05003 25.8921 6.20741C25.728 6.33598 25.5581 6.46889 25.2727 6.53467L25.0554 6.58469L25.2013 6.7562C25.2826 6.85161 25.3769 6.89808 25.4897 6.89808C25.5597 6.89808 25.6257 6.87987 25.6895 6.86248C25.752 6.84508 25.8114 6.82877 25.8734 6.82877C25.9196 6.82877 25.9637 6.83829 26.0059 6.8565C26.1603 6.92771 26.2525 7.02665 26.3594 7.14108C26.5579 7.35391 26.7818 7.59419 27.4202 7.65155C27.604 7.93858 27.7884 8.07313 27.9976 8.07313C28.1905 8.07313 28.3578 7.9538 28.5197 7.83855C28.6223 7.76543 28.7284 7.68987 28.8361 7.64828L28.8438 7.64529L28.8511 7.64122C29.2014 7.45312 29.4825 7.41725 29.8785 7.41725C29.9757 7.41725 30.0789 7.41942 30.1903 7.42159C30.3233 7.42431 30.4679 7.4273 30.6285 7.4273H30.6924L30.7324 7.37675C31.1509 6.85025 32.0535 6.50994 33.032 6.50994C33.2356 6.50994 33.4328 6.52489 33.618 6.55479L33.6377 6.55805L33.6578 6.55533C33.9899 6.50695 34.1417 6.28515 34.2758 6.08945C34.3533 5.97637 34.4265 5.86928 34.5323 5.78746L34.6977 5.73201C35.4659 5.47352 35.7839 5.3667 36.9118 5.3667C37.0836 5.3667 37.2741 5.36915 37.4857 5.37431L37.5645 5.37621L37.6044 5.3069C38.0704 4.49446 38.8578 4.44254 39.6917 4.38763C40.3782 4.34251 41.0868 4.29576 41.629 3.81003C41.8994 3.69207 42.2475 3.66842 42.5837 3.64559C42.8346 3.62874 43.0935 3.61134 43.3361 3.55073C43.5371 3.47979 43.773 3.40694 43.9926 3.40694C44.1102 3.40694 44.2139 3.42705 44.3085 3.46864C44.3777 3.55508 44.3777 3.64015 44.3648 3.69805C44.3419 3.80134 44.2582 3.89267 44.1444 3.93752C43.8868 4.04733 43.6341 4.24819 43.3663 4.46075C42.954 4.78801 42.5284 5.12642 42.0811 5.12642C42.0172 5.12642 41.9536 5.11935 41.8916 5.10576L41.8227 5.09027L41.7716 5.13974C41.5937 5.31071 41.4547 5.48657 41.3326 5.64177C41.0403 6.01198 40.8295 6.27917 40.2825 6.32619C39.3834 6.37349 38.969 6.79969 38.6037 7.1756C38.2609 7.52896 37.9645 7.8342 37.3088 7.8342C37.2605 7.8342 37.2102 7.8323 37.1581 7.82904C37.1023 7.82523 37.0475 7.8236 36.9943 7.8236C36.166 7.8236 35.6471 8.24355 35.0983 8.68796C34.4922 9.17885 33.8657 9.68633 32.7284 9.68633C32.6071 9.68633 32.4805 9.68035 32.3517 9.66866L32.2908 9.66322L32.2469 9.70644C31.1771 10.7611 30.2899 11.508 28.6103 11.5162L28.3987 11.5172L28.4906 11.7111C28.5644 11.8663 28.6092 11.9426 28.6616 12.0312C28.6915 12.0821 28.7247 12.1383 28.7661 12.2136C28.9457 12.5787 29.2767 12.9742 29.5971 13.3566C29.8921 13.7086 30.197 14.0725 30.3584 14.3873C30.4308 14.6545 30.4968 14.9288 30.5604 15.194C30.679 15.6879 30.8019 16.1989 30.9708 16.6825L30.978 16.7034L30.9914 16.7205C31.2602 17.072 31.5268 17.5224 31.8087 17.9991C31.9891 18.3038 32.1753 18.6186 32.3701 18.9203C32.5703 19.6042 32.9927 20.0785 33.4013 20.5376C33.8218 21.0097 34.2563 21.4979 34.4546 22.2244L34.4623 22.2519L34.48 22.2739C34.5593 22.3726 34.6531 22.4615 34.7439 22.5474C35.0283 22.8162 35.1974 22.9975 35.0833 23.3351C34.997 23.6585 34.946 24.0151 34.8965 24.3601C34.7381 25.4639 34.5884 26.5066 33.3716 26.6688L33.3451 26.6721L33.3222 26.6857C33.0646 26.8365 32.3605 27.126 31.7777 27.173L31.4333 26.8224L31.3278 26.7148L31.2345 26.8336C31.1057 26.9975 31.0827 27.1614 31.0622 27.306C31.0512 27.384 31.0405 27.459 31.0138 27.5321C30.9395 27.5288 30.8655 27.5272 30.7896 27.5272C30.5107 27.5272 30.2659 27.5498 30.0503 27.5696C29.8688 27.5862 29.6973 27.602 29.5327 27.602C28.9248 27.602 28.3591 27.3848 27.2649 26.2761C26.9977 26.0056 26.928 25.6134 26.9162 25.3318L26.9133 25.2576L26.8502 25.2201C26.5988 25.0706 26.3166 24.7566 26.0438 24.453C25.7058 24.0766 25.3561 23.6873 25.0015 23.5259L24.9828 23.5174L24.9627 23.515C24.6854 23.4813 24.3973 23.4685 24.1192 23.456C23.162 23.4136 22.2578 23.3734 21.6828 22.5373L21.6128 22.4351L21.5065 22.4976C21.1866 22.6857 21.2833 23.0393 21.3472 23.2731C21.367 23.3457 21.3857 23.4139 21.3926 23.4696L21.3974 23.5088L21.4218 23.5389C21.7079 23.8936 21.7584 24.3641 21.8119 24.8621C21.8733 25.4351 21.9369 26.0271 22.3858 26.444C22.4598 26.6041 22.4521 26.8053 22.4438 27.0176C22.4414 27.0766 22.439 27.1369 22.4387 27.197C22.3514 27.2086 22.2605 27.2154 22.1659 27.2225C21.7806 27.2516 21.3467 27.2842 21.0674 27.6832C21.0295 27.6824 20.9921 27.6819 20.9547 27.6819C19.8076 27.6819 18.8398 28.1399 17.9038 28.5829C17.0402 28.9917 16.1474 29.4144 15.1275 29.4595L15.1003 29.4609L15.0754 29.4731C13.7934 30.1024 12.2869 30.7881 10.6329 30.9548L10.6153 30.9567L10.5987 30.9629C9.26457 31.4796 7.74766 31.6441 6.28045 31.8031C5.76208 31.8593 5.22607 31.9175 4.70449 31.9904L4.67563 31.9944L4.65131 32.0099C4.49447 32.1108 4.328 32.1594 4.14256 32.1594C3.73294 32.1594 3.30354 31.917 2.92492 31.7028C2.81296 31.6394 2.70528 31.5788 2.60347 31.5266L2.49044 31.469L2.42765 31.5807C2.39773 31.634 2.38196 31.6903 2.3678 31.7397C2.35123 31.799 2.33894 31.8357 2.31997 31.861C1.79011 31.7041 1.37487 31.2913 1.25276 30.7947L1.24849 30.7767L1.23967 30.761C1.14989 30.5987 1.02617 30.5644 0.938265 30.5644C0.880549 30.5644 0.824169 30.5791 0.770996 30.6006C1.00186 29.64 1.34869 28.6808 2.13186 27.9724L2.14335 27.9621L2.15217 27.9496C2.79185 27.0328 2.39586 26.073 2.04662 25.2261C1.93386 24.9521 1.82698 24.6933 1.75377 24.4411C1.68617 24.0241 1.5205 23.621 1.36045 23.2312C1.0398 22.4509 0.736794 21.7134 1.16004 20.8725C1.71903 19.8091 1.95925 18.6319 1.8366 17.5574L1.8358 17.5496L1.83419 17.5417C1.79572 17.3767 1.72972 17.2079 1.65998 17.0293C1.46145 16.5218 1.27414 16.0424 1.70888 15.6735L1.74415 15.6436L1.75377 15.598C1.82858 15.2473 1.97902 14.9317 2.138 14.5977C2.40841 14.0307 2.68764 13.4441 2.56473 12.6855C2.57114 12.4593 2.52865 12.2588 2.48751 12.0647C2.44983 11.8869 2.41456 11.7187 2.41803 11.5401C2.64916 10.9516 3.07642 10.4961 3.49005 10.0552C4.07736 9.42892 4.68471 8.78119 4.69407 7.78093C4.74483 7.26612 4.8787 6.89455 5.12613 6.58632C5.74204 6.54473 6.21632 6.18947 6.67564 5.84563C6.95834 5.63389 7.25066 5.41508 7.56623 5.28162L7.59936 5.26749L7.62127 5.23867C7.71853 5.10902 7.80992 4.95545 7.90718 4.79263C8.18747 4.32213 8.47739 3.83586 8.93778 3.83586C9.01153 3.83586 9.09009 3.84863 9.17078 3.87337L9.19349 3.88043L9.21701 3.87907C9.88234 3.84211 10.44 3.48549 10.9795 3.14083C11.5123 2.80025 12.0154 2.47843 12.5848 2.47843C12.7641 2.47843 12.9394 2.50996 13.12 2.57438L13.135 2.57981L13.1508 2.58145C13.4011 2.60727 13.6638 2.66707 13.9417 2.7304C14.3371 2.82037 14.7457 2.91333 15.1518 2.91333C15.5791 2.91333 15.9406 2.80814 16.257 2.59205L16.2701 2.58308L16.2805 2.57139C16.4042 2.43521 16.5303 2.37188 16.6781 2.37188C16.8499 2.37188 17.0335 2.45451 17.2283 2.54176C17.4402 2.63717 17.6595 2.73556 17.8891 2.73556C17.904 2.73556 17.919 2.73529 17.9342 2.73421C18.1964 2.92882 18.5151 2.9715 18.8243 3.01281C18.9739 3.03293 19.115 3.05168 19.2478 3.08675L19.2769 3.09463L19.3063 3.08892C20.0697 2.94024 20.1579 2.29496 20.2359 1.72578C20.2765 1.42761 20.3185 1.12073 20.4515 0.887518Z" fill="white"/>
<path d="M31.1617 22.0239C30.968 22.4836 31.5655 22.7467 31.3557 23.2063C31.2261 23.6336 31.5171 23.9127 31.9045 23.8798C32.0657 23.7651 32.4371 23.8143 32.4047 23.5349C32.5178 22.7301 31.6782 22.3525 31.1617 22.0239ZM24.6893 12.5306C24.3021 12.744 23.5756 12.5472 23.5275 13.155C23.9953 13.2531 24.5928 12.9579 24.996 13.2371C24.6086 13.5817 23.8337 13.6312 23.8013 14.2227C24.2374 14.3537 24.4795 15.0438 24.9313 15.1259C25.4962 14.8957 26.6265 15.1751 26.739 14.3047C26.029 13.6967 25.9 12.383 24.6893 12.5306ZM41.1687 5.15612C40.6359 4.77857 39.6678 4.77857 39.1511 5.35318C38.288 5.85413 39.8135 5.89545 40.1683 5.91148C40.7169 5.91148 40.9103 5.58286 41.1687 5.15612ZM38.4571 6.5853C37.8439 6.65081 37.5532 5.96095 36.9076 6.10882C36.5205 6.09224 36.0844 6.42059 35.907 6.78209C36.214 6.92996 36.6816 7.11044 37.0688 7.2912C37.6342 7.22542 38.1993 7.16018 38.4571 6.5853ZM34.9386 7.6364C34.47 7.30778 33.873 7.27489 33.2758 7.2912C32.4365 7.35725 32.3238 8.11261 31.8233 8.50701C32.5979 8.89298 32.4365 8.89298 33.0578 8.9748C33.6876 8.79404 34.7767 8.27679 34.9386 7.6364ZM31.1775 9.49233C29.8134 8.48228 29.3696 8.4907 28.5466 9.1474C28.5466 9.1474 29.531 10.1656 28.1268 10.0017C28.1268 10.0017 28.805 10.4119 28.8694 10.6418C29.9347 10.7405 30.1931 10.3629 30.5645 9.85357C30.774 9.6565 30.9031 9.71385 31.1775 9.49233ZM28.2722 14.4195C27.707 14.0253 27.0455 13.9432 26.6096 13.4339C26.9327 12.9416 27.4326 13.516 27.8524 13.5488C27.9334 13.4833 28.1755 13.5488 28.1108 13.3521C27.7234 12.3173 26.1738 13.155 25.7541 12.1697C26.2222 11.7095 27.1587 12.1202 27.578 11.8247C27.4655 11.4961 27.0292 11.4469 26.7547 11.2662C26.3029 11.2167 25.8671 11.3811 25.5606 11.1512C25.9475 10.7242 26.5127 10.6584 27.0778 10.7568C26.8031 10.1327 25.9475 10.6418 25.4796 10.3303C24.9311 10.79 23.8815 10.6252 23.785 11.5782C23.6234 11.9231 23.2039 12.2186 22.8164 12.1039C22.2839 12.202 22.3806 12.7935 22.1062 13.1221C21.8804 13.0563 21.7511 13.2531 21.5734 13.3192C21.3639 13.8612 22.1062 13.7296 22.2353 14.1403C21.7188 14.5344 21.0088 14.3866 20.363 14.4195V14.8139C19.9114 15.1422 19.459 14.5999 19.0072 14.4689C18.0226 13.812 18.6521 15.2572 18.4744 15.6518C18.9751 16.3249 17.9902 16.5053 18.2 17.261C18.523 18.3284 18.5554 19.6423 19.5237 20.3322C19.6207 19.0677 18.7974 17.7372 19.4751 16.5053C19.6047 16.6043 19.8141 16.3249 19.9114 16.5877C19.7335 17.9182 19.9595 19.314 20.6051 20.3816C20.7504 20.4308 21.0088 20.5295 21.1055 20.3816C20.9604 19.6589 20.7504 18.9198 20.8311 18.1645C21.0892 17.9182 21.2025 17.3759 21.6544 17.5401C21.5574 18.8046 22.0902 19.9052 22.2353 21.121C22.6227 21.3998 22.6508 22.1348 23.0102 22.2213C22.9781 21.9418 22.9295 21.6458 22.736 21.4325C22.7197 20.9562 22.5423 20.4145 22.8808 20.053C23.4136 20.6611 23.4136 21.4982 23.8492 22.1555C24.6243 22.763 23.7041 21.6627 23.8978 21.3178C23.8492 20.7595 23.3009 20.168 23.8492 19.6589C24.5073 21.0881 24.5359 21.3455 24.7048 21.6423C24.9712 21.9706 25.0321 20.9853 25.3872 22.4346C26.0405 22.7301 25.1328 21.0881 25.8671 21.3384C26.1215 21.252 26.1012 21.4982 26.1415 21.8758C26.3836 22.689 26.4846 22.9766 26.7224 23.6499C26.8475 23.9005 26.9891 23.8798 27.2915 23.9293C27.5769 23.8744 27.2018 24.7763 27.4444 25.3006C27.6346 25.5017 27.8059 25.6175 27.8059 25.6175L27.9817 25.8301C28.0988 26.0152 28.1188 26.0359 28.2399 26.1302C28.805 26.9595 28.805 26.754 29.6603 26.7211C29.7891 26.7869 29.6603 26.5406 29.6603 26.4422L28.8411 25.5675C28.5426 25.1324 28.4499 24.1098 28.0782 23.7323C27.9494 23.5349 27.6747 23.7361 27.6427 23.3786C26.9648 22.8366 28.1592 22.6812 28.2238 22.2702C28.5466 22.1718 28.813 22.4757 29.0711 22.6727C29.2892 23.3873 30.1768 23.5105 30.5645 24.3561C30.9031 24.9883 31.2662 25.5221 31.8311 25.7445C32.5573 26.0152 32.6786 25.5632 33.1949 25.2593C34.6156 24.0853 33.5016 23.502 33.3082 22.7467C33.3728 21.991 32.5172 21.6298 32.0328 21.3178C31.9924 20.9234 32.2345 20.7595 31.7584 20.579C30.9835 20.48 30.3703 19.938 29.7891 19.4618C29.3049 19.1169 28.4659 19.0345 28.3529 18.4107C29.1598 18.2297 29.7573 18.9525 30.5159 18.9198C30.5963 18.2134 29.9024 18.2626 29.5149 17.8522C29.4505 17.5401 29.2082 17.3759 28.9664 17.1789C28.7887 16.7024 29.3373 17.1131 29.547 16.9815C29.8375 16.062 28.2399 15.8323 28.8208 14.978C28.708 14.7481 28.4817 14.5181 28.2722 14.4195ZM30.2896 25.7358C30.0151 24.9638 29.531 24.414 28.9664 23.7651C29.1117 24.3726 29.3899 25.2963 29.749 25.4237C29.9751 25.4729 30.0801 25.8344 30.2896 25.7358ZM20.6858 26.4422C19.7498 26.3601 19.0232 25.8344 18.1195 25.7029C16.6184 24.7342 14.8108 24.2411 13.6647 22.6154C13.8422 22.2213 13.3094 21.7777 13.8259 21.5643C14.4394 22.336 15.1819 22.829 15.8756 23.5678C16.1663 23.6665 16.5054 23.6665 16.7314 23.9293C17.6674 23.8635 18.1196 24.767 19.0072 24.8323C19.3786 25.1283 20.0562 24.9309 20.4923 24.9475C20.46 24.7999 20.557 24.6023 20.4116 24.5205C18.1519 23.7651 15.9889 22.829 14.0519 21.2028C14.1812 20.9562 14.1326 20.6279 14.2456 20.3816C14.6491 20.4471 14.9398 20.6774 15.2143 20.8905C15.8919 21.7611 17.0221 22.1063 17.8454 22.7467C18.6363 22.7301 19.1689 23.4691 19.9437 23.3379C20.2019 22.9111 19.637 22.763 19.6691 22.3525C18.5391 22.1226 17.3773 21.8432 16.4247 21.2849C15.6175 20.7429 14.5682 20.3979 14.2136 19.4289C14.1812 19.2321 14.3747 19.0508 14.5524 19.0677C14.8108 19.1329 14.8589 19.396 14.9398 19.5931C15.7468 20.2504 16.6184 20.71 17.5384 21.0881C17.8128 21.1041 18.1035 21.0549 18.3616 21.121C18.523 21.0715 18.3616 20.9073 18.3616 20.8084C17.7481 20.4637 17.264 19.8228 16.6505 19.5113C16.0696 19.1329 15.2787 19.2485 14.7461 18.7225C14.6654 18.4436 14.7301 18.0329 14.9072 17.7701C15.4724 18.3284 16.1505 18.9525 16.9572 18.5583C16.9735 18.2955 16.8121 18.0987 16.6828 17.885C16.2956 17.2773 14.8912 17.2444 15.327 16.2425C15.8756 16.292 16.2633 17.1131 16.9572 16.7519C17.0542 15.7829 15.7952 15.5037 15.7145 14.6165C16.4087 14.1569 16.6024 15.2735 17.3449 15.093C17.4737 14.5181 17.1507 13.8446 17.0702 13.2042C17.6674 12.7277 17.1026 12.071 17.1186 11.5124C17.2156 10.806 18.0389 10.8226 17.9742 10.0504C17.7805 9.18029 17.8935 8.34256 17.6998 7.48853C16.8442 7.80057 16.7798 8.96692 16.6505 9.85357C16.2633 10.5271 17.0863 11.0362 16.6828 11.66C16.5054 11.66 16.3598 11.545 16.231 11.3811C15.9728 9.86987 16.0859 8.1947 16.8765 6.97916C16.8442 6.89707 16.7638 6.76579 16.6505 6.81499C15.7145 7.242 15.424 8.27678 15.4077 9.2621C15.5047 10.0343 15.4887 10.8881 15.8756 11.5124C15.8595 11.6108 15.8112 11.7587 15.6498 11.7095C14.8268 11.0199 14.8268 9.98512 14.6008 9.06504C14.1326 9.59099 14.1326 10.4448 13.9392 11.1512C13.9229 11.3975 14.1812 11.6274 13.9712 11.8574C14.1489 12.744 14.2456 13.6641 14.5201 14.5013C14.4394 14.6331 14.3103 14.6494 14.1649 14.666C14.0193 14.3866 13.6161 14.2061 13.7131 13.8285C13.2284 13.1387 13.3417 12.202 13.1643 11.3811C13.1319 11.5619 12.9222 11.66 12.8899 11.8247C12.6154 12.6456 12.3897 13.8775 13.0836 14.5836C13.0996 15.1093 13.5354 15.339 13.7131 15.7994C13.6161 16.3085 14.1973 16.6372 13.9712 17.0968C13.6484 17.0802 13.277 16.8666 12.9706 16.6698C12.8089 15.2903 11.8082 14.255 11.7278 12.8429C11.5824 11.8574 11.4368 10.806 11.0659 9.96854C10.9689 10.806 10.9369 11.8574 10.9529 12.8429C10.9369 13.7133 11.4047 14.3703 11.2597 15.2903C11.5824 15.5197 11.7759 16.3904 11.7759 16.3904L12.0019 16.8666C12.0019 16.8666 12.8089 18.0821 13.0836 18.8046C13.1963 18.8212 13.1963 19.0508 13.0836 19.1169C12.2764 18.8541 11.6792 18.345 11.5338 17.458C10.4524 16.1604 10.5494 14.3703 10.1783 12.7606C10.0329 12.0544 10.3394 11.3811 10.0329 10.7568C9.87154 11.0199 9.70988 11.2825 9.70988 11.6274C9.87154 13.2863 9.61315 15.1585 10.5331 16.4724C10.6462 17.6551 11.6308 18.4602 11.5015 19.7412C12.1313 20.0693 11.6792 20.9234 12.1959 21.3178C12.341 21.4819 12.0506 21.5477 11.9699 21.5969C11.8569 21.5311 11.6955 21.4162 11.6955 21.2849C11.195 21.022 11.6169 20.3569 10.9871 20.1433C10.8904 18.813 9.69385 17.803 9.70988 16.4724C8.8706 15.1914 9.25804 13.9432 8.93526 12.498C8.69317 12.9579 8.61221 13.7788 8.70947 14.4689C9.25804 16.292 9.01622 18.7801 10.5655 20.0286C10.5818 20.2253 10.7108 20.6692 10.4524 20.7021C9.95223 19.8973 9.48409 19.2648 8.87059 18.526C8.62851 17.031 8.09598 15.5366 8.04761 13.9432C7.91829 14.1074 7.91829 14.3374 7.82156 14.5013C8.04761 16.1767 8.27366 17.8687 8.67714 19.4618C8.69317 19.5442 8.79017 19.6423 8.87059 19.6589C9.03199 20.3816 9.59685 20.9562 9.79084 21.6298C9.8229 21.6953 9.72618 21.6953 9.75851 21.7611C10.5008 22.4836 10.6622 23.502 11.3887 24.1919C11.5824 24.6684 11.9375 25.1283 11.9699 25.6208C11.8082 25.6866 11.6468 25.5058 11.5015 25.4566C10.6138 24.4873 10.0006 23.19 9.17734 22.1881C8.8225 20.6774 8.01528 19.3469 7.62784 17.8522C7.48275 17.4746 7.77319 16.9326 7.35369 16.834C7.45041 18.9525 7.78923 20.8415 8.79017 22.5822C9.37107 23.2724 9.56505 24.159 10.2913 24.7505C10.5981 25.0628 10.6138 25.5876 11.1146 25.7687C11.195 25.9163 11.1306 26.0804 11.0013 26.1628C10.3073 25.7852 9.80687 25.1938 9.37107 24.6355C8.79017 24.5694 8.75784 23.9293 8.62851 23.486C7.72483 22.5988 7.56344 21.3341 6.99857 20.2504C7.14366 21.1536 7.36972 21.991 7.66017 22.8122C8.62851 24.3069 9.20968 25.9657 10.8399 27.0334C10.9208 27.4607 11.4208 27.3457 11.5824 27.7067C11.211 28.2655 11.2514 28.0271 10.8399 27.6246C9.96826 26.9839 8.8706 25.9823 8.04761 25.1443C7.64387 24.6518 7.48275 23.9456 7.079 23.5678C7.03064 24.159 7.32135 24.586 7.43411 25.1117C8.24133 26.5243 9.38737 27.9037 10.5655 29.1685C10.4687 29.3166 10.2427 29.2998 10.0976 29.2506C9.48409 28.5607 8.56438 28.3145 8.2897 27.3949C7.46645 26.935 7.27272 25.8836 6.61086 25.1775C6.70786 27.0992 8.01528 28.9222 9.64522 29.6776C9.85524 29.8581 9.66152 30.3182 9.98456 30.3509C10.146 30.0557 10.4848 30.0388 10.7269 29.8418C12.0829 30.0222 13.358 29.9402 14.407 29.1193C13.6321 28.6594 12.5347 28.3637 12.5508 27.2302C12.6154 27.1647 12.7122 26.9513 12.8575 27.0826C13.035 27.1813 13.1963 27.3783 13.2447 27.5917C14.0519 27.8869 14.6815 28.5773 15.6821 28.5284C16.8282 28.4786 15.327 28.0679 15.1333 27.8217C14.1973 27.362 13.374 26.4091 12.7445 25.6537C12.8252 25.3745 12.8089 24.997 13.0836 24.8323C14.165 26.5901 15.9565 27.4441 17.7321 27.7067C17.8128 27.6246 17.9579 27.5588 17.8454 27.4278C16.5054 26.9839 15.2626 26.2286 14.1649 25.2267C13.9068 24.7831 13.2126 24.8491 13.1643 24.2411C13.2931 23.8798 13.0673 23.3379 13.358 23.0916C15.0849 25.4566 17.6674 26.8363 20.4116 26.8855C20.5727 26.8363 20.7504 26.6553 20.6858 26.4422ZM9.37107 30.3838C8.61221 29.6284 7.72483 29.0043 6.96624 28.1832C6.61086 29.2343 7.62784 29.891 8.09598 30.6958C8.2253 30.7779 8.38642 30.8276 8.54781 30.8276C8.85456 30.7287 9.48409 30.8929 9.37107 30.3838ZM7.77319 30.8929C7.14366 30.614 6.90158 29.8252 6.35274 29.4479C6.09436 29.7763 6.61086 30.3672 6.35274 30.7124C5.69115 30.4985 5.80391 29.4642 5.49743 29.0043C4.94833 29.1522 5.12602 29.7923 4.7546 30.1046C4.64184 30.1867 4.56115 30.0883 4.52882 29.9899C4.77091 29.1522 4.56115 27.9203 5.69115 27.6738C6.09436 27.2139 5.4488 27.6409 5.33577 27.3949C5.25481 27.1484 5.48113 27.0334 5.52949 26.8363C5.27111 26.5406 5.01326 25.4892 4.44812 26.1628C4.07698 26.6064 4.15741 27.296 4.36743 27.7888C4.7546 29.0701 2.86628 29.7763 3.70583 31.0573C5.07765 31.0739 6.41741 31.041 7.74113 30.9752C7.75716 30.9589 7.78923 30.9421 7.77319 30.8929ZM3.01138 29.7923C3.31839 29.3166 3.54418 28.6594 3.56048 27.9864C2.93095 28.1995 2.84998 28.9056 2.73723 29.5137C2.83422 29.6118 2.78559 29.9075 3.01138 29.7923ZM2.73723 24.7176C3.01137 24.0769 3.75393 23.6336 3.89956 22.9437C4.02835 22.533 3.67323 22.1392 3.78626 21.794C3.72187 21.7119 3.6572 21.6787 3.56048 21.6787C3.31839 22.0405 3.17303 22.4507 2.86628 22.7793C2.81792 23.4202 2.43074 24.1098 2.73723 24.7176ZM3.01138 21.1699C2.65653 20.9891 2.41418 21.3672 2.12373 21.4819C1.76888 21.8269 1.78492 22.3854 1.84931 22.8616C1.97864 22.9766 1.89794 23.2884 2.15579 23.2558C2.51117 22.6154 2.73723 21.8597 3.01138 21.1699ZM2.0433 20.3322C2.36581 20.8084 2.72093 20.1022 3.20536 20.3322C3.01137 19.8888 3.51185 18.9198 2.73723 18.9198C2.20442 19.1827 2.25305 19.8557 2.0433 20.3322ZM2.43074 17.2939C2.47884 17.3596 2.47884 17.5235 2.59213 17.4907C2.86628 17.458 2.70463 17.1623 2.73723 16.9815C3.06001 16.2757 3.25373 15.5037 3.31839 14.6989C2.51117 15.2409 2.05933 16.2591 2.43074 17.2939ZM3.31839 13.516C4.27043 12.3667 4.51252 10.7076 5.9653 9.77148V9.6565C5.51346 9.44313 5.25481 10.2151 4.7546 10.1327C3.60857 10.8392 3.31839 12.186 3.31839 13.516ZM5.30344 8.81878C5.9009 8.85167 6.33645 8.32598 6.88528 8.35914C6.77252 7.85004 7.25669 7.53773 7.079 7.04494C7.04667 6.97916 7.04667 6.89707 6.96624 6.84787C5.9653 7.07783 5.43277 7.81688 5.30344 8.81878ZM7.5792 12.4483C7.11133 12.0544 6.46604 12.301 5.9653 12.4483C5.30344 13.0563 4.39949 13.7296 4.41579 14.5344C5.57786 14.0908 6.64319 13.0892 7.5792 12.4483ZM6.0297 22.4675C6.20739 21.0057 6.4981 19.4944 6.38508 18.0163C6.35275 17.8358 6.27205 17.6717 6.15902 17.5401C5.69115 17.9998 5.43277 18.542 5.25481 19.1169C5.06135 20.3322 5.3681 21.6787 6.0297 22.4675ZM4.99696 24.7505C5.49743 24.997 5.54579 25.6374 5.99763 25.9C6.04599 25.4566 6.0297 24.9638 5.91694 24.5531C5.67485 24.1756 6.12669 23.486 5.52949 23.2884C5.35207 22.4507 4.88393 21.6787 4.56115 20.9234C3.89956 22.2539 4.7872 23.502 4.99696 24.7505ZM4.06068 24.6684C3.96368 24.3069 3.6572 24.3561 3.44718 24.6355C3.09234 25.2433 3.10864 26.1465 3.28606 26.8363C3.43115 26.8855 3.46322 26.7706 3.56048 26.7211C3.81859 26.1139 4.30276 25.4729 4.06068 24.6684ZM4.17371 18.8377C4.75461 18.2134 5.01326 17.458 5.49743 16.7848C4.64185 16.8834 4.3514 17.7209 3.97972 18.3284C3.99602 18.5089 3.91532 18.8541 4.17371 18.8377ZM6.69182 14.3866C5.9653 14.1898 5.35207 14.8139 4.80324 15.208C4.60951 15.6679 4.07698 16.062 4.06068 16.6372C4.10931 16.719 4.19001 16.7024 4.2544 16.7519C4.69021 16.2757 5.22274 15.8813 5.91694 15.9633C6.33645 15.6679 6.35275 15.093 6.65949 14.7318C6.59483 14.5836 6.77252 14.4852 6.69182 14.3866ZM6.85295 10.2809C6.12669 10.5437 5.12602 11.2167 5.10998 12.0544C6.11066 11.4961 7.28902 11.3156 8.48342 11.1841C8.62851 11.0199 8.91896 10.8226 8.87059 10.5271C8.16037 10.5108 7.57921 10.2314 6.85295 10.2809ZM7.51508 9.41024C8.14434 9.27841 8.64454 9.5418 9.25804 9.34473C9.70988 9.08162 10.4524 8.95033 10.5331 8.35914C10.1783 8.03053 9.58082 8.30968 9.17734 8.11261C8.51575 8.42492 7.64387 8.50701 7.51508 9.41024ZM8.16037 6.89707C8.90293 6.83157 9.3227 6.20721 9.87154 5.79678C10.0329 5.55025 10.4364 5.53394 10.4524 5.32056C10.2104 4.97564 9.72618 5.30371 9.3227 5.20559C8.64454 5.46816 8.19297 6.22379 8.16037 6.89707ZM11.7278 10.0835C11.8729 10.4119 11.8892 10.9704 12.1959 11.0688C12.1959 10.2809 12.2443 9.44313 12.0019 8.78589C11.6148 9.06504 11.7599 9.62361 11.7278 10.0835ZM10.8078 6.19091C10.2103 6.30588 9.59685 6.65081 9.29037 7.242H10.5331C11.0496 7.22542 11.5824 7.71848 12.0829 7.242C12.2924 7.04494 12.8899 7.11045 12.6961 6.65081C12.341 6.12486 11.4208 6.19091 10.8078 6.19091ZM13.358 7.80057C13.374 7.7511 13.3417 7.66902 13.277 7.68533C13.0512 7.7511 12.9706 7.99736 12.8089 8.16208C12.6478 8.753 12.7768 9.47602 13.0029 9.96854C13.0836 9.93565 13.148 9.86987 13.1963 9.80409C13.1319 9.1474 13.3094 8.47412 13.358 7.80057ZM11.3404 4.64702C11.7115 5.13954 12.1796 5.27137 12.6154 5.66522C12.9385 5.91148 13.0673 6.37139 13.4384 6.45347C13.7772 6.15774 14.1973 6.2401 14.6008 5.99384C14.3263 5.66522 14.0193 5.43527 13.6647 5.27137C13.4227 5.2219 13.374 4.94275 13.1643 4.81119C12.6317 4.69621 11.8569 4.1708 11.3404 4.64702ZM14.3587 7.32409C13.9712 7.76741 13.6971 8.42492 13.8259 9.01611C14.2456 8.88456 14.3263 8.32598 14.5201 7.96448C14.6978 7.70218 14.9235 7.53773 15.101 7.242C15.3593 6.56872 14.5682 7.17622 14.3587 7.32409ZM13.277 3.85849C14.0033 4.53204 15.0849 4.66333 15.4563 5.66522C15.7308 5.81336 16.1179 5.89545 16.4247 5.74758C16.8765 5.69811 17.393 5.69811 17.7805 5.59972C17.8291 5.23848 17.3286 5.12323 17.1993 4.81119C16.1663 4.44995 15.214 3.89165 14.1003 3.74352C13.8422 3.72721 13.4227 3.57934 13.277 3.85849ZM19.4751 7.52115C19.2493 7.242 19.6528 6.55241 19.1365 6.53556C18.9428 6.86418 18.8618 7.22542 18.7004 7.57062C18.7004 8.04683 18.8618 8.50701 18.8618 8.95034C18.9265 9.06504 18.9751 9.29553 19.1689 9.2621C19.3946 8.73669 19.7174 8.17839 19.4751 7.52115ZM19.2493 11.7753C19.1365 11.4961 18.7651 11.2333 18.5067 11.3811C18.2 11.7916 17.9419 12.3173 18.1679 12.8429C18.4584 12.6785 18.9588 12.7114 19.2493 12.498C19.3623 12.2515 19.1849 12.0381 19.2493 11.7753ZM17.5061 3.7764C17.6191 4.36759 18.2646 4.49915 18.62 4.92617C18.8455 5.09061 18.8298 5.41896 19.0556 5.51763C19.4107 5.51763 19.637 5.2219 19.9114 5.00853C19.9595 4.7291 19.5237 4.61413 19.4751 4.28578C18.8135 4.12133 18.2809 3.41517 17.5061 3.7764ZM21.4927 11.9723C21.0409 12.3338 20.4439 12.5143 20.1372 13.04C20.0725 13.2205 19.9916 13.5488 20.25 13.5983C20.7184 13.1876 21.5897 12.7114 21.4927 11.9723ZM19.7174 11.0688C19.8141 11.2333 19.9916 11.2167 20.1049 11.3811C20.7347 12.0215 21.2509 11.1183 21.6057 10.79C22.5744 9.27841 22.7844 6.76579 21.8804 5.15612C21.5897 4.74569 21.4283 4.25289 20.9442 4.05556C20.25 6.2401 20.2983 8.85167 19.7174 11.0688ZM23.0102 10.8392C23.6234 10.4284 24.2692 10.0343 24.8985 9.73886C24.8985 9.31157 24.4311 9.01611 24.0432 8.86825C23.7204 9.57414 22.9941 10.0343 22.4939 10.6747C22.3967 10.9375 22.8485 10.8881 23.0102 10.8392ZM23.3169 8.42492C23.559 8.1947 23.8978 8.17839 23.8978 7.80057C23.6557 7.6364 23.5913 6.26484 23.2362 6.51137C23.2846 6.88892 22.8485 8.35915 23.3169 8.42492ZM24.6727 8.30968C25.3829 8.93403 26.3515 9.39366 27.4166 9.21318C27.6101 8.83536 27.0778 8.95033 26.9487 8.7038C26.7547 7.68532 25.2539 7.96448 24.6727 8.30968ZM44.1961 4.06289C43.5022 4.35863 42.7506 5.43527 41.8634 5.23848C41.282 5.79678 41.1527 6.38797 40.2894 6.46217C38.5704 6.55242 38.7722 8.07157 37.1497 7.96448C35.2374 7.8389 34.9787 10.0425 32.3398 9.80409C31.3065 10.8226 30.3783 11.6437 28.611 11.6521C28.724 11.8902 28.7644 11.9313 28.8854 12.1531C29.2245 12.8429 30.1445 13.6641 30.4836 14.3374C30.6933 15.1093 30.8384 15.8978 31.0968 16.6372C31.5489 17.2278 31.9924 18.0905 32.4929 18.8625C32.8804 20.2253 34.1798 20.71 34.5832 22.1881C34.8737 22.5496 35.4065 22.7959 35.2125 23.3707C34.8577 24.7013 35.1158 26.5732 33.3886 26.8035C33.1224 26.9595 32.3561 27.2797 31.7263 27.3126L31.3389 26.9184C31.1451 27.1647 31.2419 27.4096 31.0968 27.6724C29.4826 27.5738 29.1072 28.3351 27.1705 26.3724C26.9135 26.112 26.7991 25.7317 26.7828 25.3373C26.2022 24.9924 25.5606 23.9293 24.9471 23.6499C23.7364 23.502 22.3643 23.7651 21.5734 22.6154C21.2667 22.7959 21.4927 23.19 21.5253 23.4528C22.1872 24.2737 21.6867 25.6374 22.4939 26.3601C22.639 26.639 22.5583 27.0005 22.5744 27.3126C22.0739 27.411 21.4604 27.2797 21.1379 27.8217C18.8618 27.723 17.3449 29.4971 15.1333 29.5952C13.7615 30.269 12.2764 30.9257 10.6462 31.0899C8.8225 31.7964 6.72416 31.8456 4.72254 32.125C3.97972 32.6012 3.15673 31.9608 2.5435 31.6482C2.47884 31.7635 2.49514 31.9279 2.34978 32.0097C1.76888 31.8621 1.26841 31.4185 1.12332 30.8276C0.977962 30.5648 0.735876 30.7779 0.574219 30.86C0.816304 29.7599 1.17142 28.6594 2.0433 27.8709C2.83422 26.7377 1.93027 25.539 1.62326 24.4713C1.4298 23.2558 0.364197 22.1555 1.04236 20.8084C1.54283 19.8557 1.83328 18.7065 1.70395 17.573C1.55913 16.9487 0.945631 16.1441 1.62326 15.5692C1.83328 14.5836 2.6242 13.8446 2.43074 12.6948C2.44651 12.2678 2.26909 11.9231 2.28538 11.5124C2.84998 10.0343 4.54485 9.42655 4.56115 7.76741C4.60951 7.27489 4.73857 6.83156 5.06135 6.45347C6.046 6.42059 6.65949 5.51763 7.51508 5.15612C7.93458 4.59755 8.30573 3.46464 9.20968 3.74352C10.6782 3.6617 11.6468 1.90417 13.1643 2.44616C14.1163 2.54456 15.2463 3.11971 16.1823 2.47905C16.7638 1.83866 17.377 2.67584 17.9742 2.59402C18.3296 2.88976 18.8455 2.84029 19.2816 2.95526C20.3793 2.74162 19.8788 1.39507 20.4116 0.705208C20.8472 0.902 20.7347 1.47715 21.1379 1.77288C21.2667 2.84029 22.0739 3.51356 22.6874 4.3676C22.9941 4.54862 23.446 4.7128 23.7364 4.53204C24.2369 4.23631 24.5677 4.12976 25.2862 4.24446C25.2862 4.24446 25.5283 4.56466 25.4796 4.64702C25.0922 4.79515 24.7048 4.97564 24.3659 5.23848C24.5757 5.41896 25.2301 5.19689 25.5606 5.15612C26.2222 5.07403 26.529 4.9509 27.0938 5.36161C27.2312 5.68996 27.2712 5.731 27.3199 6.14986C26.0608 5.731 26.1575 6.47006 25.3022 6.66712C25.512 6.91392 25.7217 6.5853 26.0608 6.7329C26.5613 6.96258 26.5049 7.45537 27.4973 7.52115C27.998 8.35914 28.3205 7.70218 28.7887 7.52115C29.3696 7.20911 29.7733 7.2912 30.6286 7.2912C31.2419 6.51925 32.6222 6.25669 33.639 6.42059C34.0908 6.35508 34.1314 5.91148 34.4699 5.66522C35.5032 5.32057 35.7453 5.19716 37.4891 5.23848C38.393 3.6617 40.4109 4.74569 41.5559 3.69432C42.0569 3.46464 42.7594 3.55379 43.2922 3.42251C43.6633 3.29122 44.051 3.19283 44.3899 3.357C44.6159 3.60326 44.4868 3.94846 44.1961 4.06289ZM21.2512 9.37735C21.1061 9.62361 21.0898 10.0835 20.7026 10.0835C20.6377 10.0669 20.6863 9.98512 20.6219 9.96854C20.8963 9.04873 20.88 7.99736 21.2028 7.09441C21.8647 7.61982 21.4609 8.67118 21.2512 9.37735Z" fill="black"/>
</svg>
