<svg width="126" height="124" viewBox="0 0 126 124" fill="none" xmlns="http://www.w3.org/2000/svg">
<rect x="39.4717" y="12.2231" width="41.6769" height="2.40443" rx="1.20222" fill="white"/>
<rect x="39.4717" y="22.6428" width="41.6769" height="2.40443" rx="1.20222" fill="white"/>
<path d="M38.6695 113.61C38.2688 116.682 39.6313 122.827 48.2872 122.827H113.207C116.947 123.495 124.428 122.586 124.428 113.61V83.9556C122.184 91.6497 116.012 93.3061 113.207 93.1726H107.196V96.7792C107.196 99.9853 104.791 101.588 101.586 101.588C98.3796 101.588 97.0438 98.3822 96.7767 96.7792V93.5733H65.519V96.7792C65.519 99.9853 63.1947 101.588 60.3094 101.588C57.4241 101.588 55.9013 98.3822 55.5006 96.7792V93.5733H49.8902C43.1578 93.5733 39.6046 87.1615 38.6695 83.9556V113.61Z" fill="#000816"/>
<path d="M124.428 72.7349C124.695 69.6625 122.825 63.5179 113.207 63.5179H104.391H95.5745H68.3242H59.5079H48.2872C45.0813 63.3843 38.6695 65.0407 38.6695 72.7349V83.9556C39.6046 87.1615 43.1578 93.5733 49.8902 93.5733H55.5006V89.5659C55.5006 88.0965 56.4623 85.1578 60.3094 85.1578C64.1565 85.1578 65.3855 88.0965 65.519 89.5659V93.5733H96.7767V89.5659C96.7767 88.0965 97.7385 85.1578 101.586 85.1578C105.433 85.1578 106.929 88.0965 107.196 89.5659V93.1726H113.207C116.012 93.3061 122.184 91.6497 124.428 83.9556V72.7349Z" fill="#000816"/>
<path d="M104.391 63.5179V58.3082C103.99 54.9688 101.185 48.2898 93.17 48.2898H70.3279C67.122 48.2898 60.4697 50.2935 59.5079 58.3082V63.5179H68.3242V58.3082C68.3242 57.3732 69.0455 55.5031 71.9309 55.5031H91.9678C93.17 55.5031 95.5745 56.0641 95.5745 58.3082V63.5179H104.391Z" fill="#000816"/>
<path d="M55.5006 93.5733V96.7792C55.9013 98.3822 57.4241 101.588 60.3094 101.588C63.1947 101.588 65.519 99.9853 65.519 96.7792V93.5733V89.5659C65.3855 88.0965 64.1565 85.1578 60.3094 85.1578C56.4623 85.1578 55.5006 88.0965 55.5006 89.5659V93.5733Z" fill="#000816"/>
<path d="M96.7767 93.5733V96.7792C97.0438 98.3822 98.3796 101.588 101.586 101.588C104.791 101.588 107.196 99.9853 107.196 96.7792V93.1726V89.5659C106.929 88.0965 105.433 85.1578 101.586 85.1578C97.7385 85.1578 96.7767 88.0965 96.7767 89.5659V93.5733Z" fill="#000816"/>
<path d="M1 24.2452H19.0333C21.037 24.5124 25.0444 23.9247 25.0444 19.4364V1.00237L1 24.2452Z" fill="#000816"/>
<path d="M1 24.2452V113.61C0.999972 117.217 1.24044 122.827 10.217 122.827H37.0665M1 24.2452H19.0333C21.037 24.5124 25.0444 23.9247 25.0444 19.4364V1.00237M1 24.2452L25.0444 1.00237M25.0444 1.00237H86.7582C90.7656 1.00257 97.5782 0.601632 97.5782 10.2194C97.5782 19.8371 97.5782 33.4624 97.5782 39.0728V44.6831M38.6695 83.9556V72.7349C38.6695 65.0407 45.0813 63.3843 48.2872 63.5179H59.5079M38.6695 83.9556V113.61C38.2688 116.682 39.6313 122.827 48.2872 122.827H113.207C116.947 123.495 124.428 122.586 124.428 113.61V83.9556M38.6695 83.9556C39.6046 87.1615 43.1578 93.5733 49.8902 93.5733M49.8902 93.5733C56.6226 93.5733 56.4356 93.5733 55.5006 93.5733M49.8902 93.5733H55.5006M55.5006 93.5733V96.7792C55.9013 98.3822 57.4241 101.588 60.3094 101.588C63.1947 101.588 65.519 99.9853 65.519 96.7792V93.5733M55.5006 93.5733V89.5659C55.5006 88.0965 56.4623 85.1578 60.3094 85.1578C64.1565 85.1578 65.3855 88.0965 65.519 89.5659V93.5733M65.519 93.5733H96.7767M96.7767 93.5733V96.7792C97.0438 98.3822 98.3796 101.588 101.586 101.588C104.791 101.588 107.196 99.9853 107.196 96.7792V93.1726M96.7767 93.5733V89.5659C96.7767 88.0965 97.7385 85.1578 101.586 85.1578C105.433 85.1578 106.929 88.0965 107.196 89.5659V93.1726M107.196 93.1726H113.207C116.012 93.3061 122.184 91.6497 124.428 83.9556M124.428 83.9556V72.7349C124.695 69.6625 122.825 63.5179 113.207 63.5179H104.391M104.391 63.5179V58.3082C103.99 54.9688 101.185 48.2898 93.17 48.2898M104.391 63.5179H95.5745M93.17 48.2898C85.1552 48.2898 74.6025 48.2898 70.3279 48.2898M93.17 48.2898H70.3279M70.3279 48.2898C67.122 48.2898 60.4697 50.2935 59.5079 58.3082V63.5179M59.5079 63.5179H68.3242M68.3242 63.5179V58.3082C68.3242 57.3732 69.0455 55.5031 71.9309 55.5031H91.9678C93.17 55.5031 95.5745 56.0641 95.5745 58.3082V63.5179M68.3242 63.5179H95.5745" stroke="white" stroke-width="2"/>
</svg>
