<svg width="196" height="196" viewBox="0 0 196 196" fill="none" xmlns="http://www.w3.org/2000/svg">
<rect x="67.0928" y="31.9023" width="55.3506" height="3.19331" rx="1.59665" fill="white"/>
<rect x="67.0928" y="45.7397" width="55.3506" height="3.19331" rx="1.59665" fill="white"/>
<g filter="url(#filter0_d_634_742)">
<path d="M66.0285 166.553C65.4963 170.633 67.3058 178.794 78.8017 178.794H165.021C169.988 179.681 179.923 178.474 179.923 166.553V127.169C176.943 137.388 168.746 139.587 165.021 139.41H157.038V144.2C157.038 148.458 153.844 150.587 149.587 150.587C145.329 150.587 143.555 146.329 143.2 144.2V139.942H101.687V144.2C101.687 148.458 98.6002 150.587 94.7682 150.587C90.9363 150.587 88.9138 146.329 88.3816 144.2V139.942H80.9306C71.9893 139.942 67.2703 131.427 66.0285 127.169V166.553Z" fill="#000816"/>
<path d="M179.923 112.267C180.278 108.187 177.794 100.026 165.021 100.026H153.312H141.603H105.413H93.7038H78.8017C74.544 99.8485 66.0285 102.048 66.0285 112.267V127.169C67.2703 131.427 71.9893 139.942 80.9306 139.942H88.3816V134.62C88.3816 132.669 89.6589 128.766 94.7682 128.766C99.8775 128.766 101.51 132.669 101.687 134.62V139.942H143.2V134.62C143.2 132.669 144.477 128.766 149.587 128.766C154.696 128.766 156.683 132.669 157.038 134.62V139.41H165.021C168.746 139.587 176.943 137.388 179.923 127.169V112.267Z" fill="#000816"/>
<path d="M153.312 100.026V93.1071C152.78 88.6719 149.054 79.8016 138.41 79.8016H108.074C103.816 79.8016 94.9811 82.4627 93.7038 93.1071V100.026H105.413V93.1071C105.413 91.8652 106.371 89.3815 110.203 89.3815H136.813C138.41 89.3815 141.603 90.1266 141.603 93.1071V100.026H153.312Z" fill="#000816"/>
<path d="M88.3816 139.942V144.2C88.9138 146.329 90.9363 150.587 94.7682 150.587C98.6002 150.587 101.687 148.458 101.687 144.2V139.942V134.62C101.51 132.669 99.8775 128.766 94.7682 128.766C89.6589 128.766 88.3816 132.669 88.3816 134.62V139.942Z" fill="#000816"/>
<path d="M143.2 139.942V144.2C143.555 146.329 145.329 150.587 149.587 150.587C153.844 150.587 157.038 148.458 157.038 144.2V139.41V134.62C156.683 132.669 154.696 128.766 149.587 128.766C144.477 128.766 143.2 132.669 143.2 134.62V139.942Z" fill="#000816"/>
<path d="M16 47.8683H39.9498C42.6109 48.2232 47.9331 47.4426 47.9331 41.4817V16.9997L16 47.8683Z" fill="#000816"/>
<path d="M16 47.8683V166.553C16 171.343 16.3193 178.794 28.241 178.794H63.8996M16 47.8683H39.9498C42.6109 48.2232 47.9331 47.4426 47.9331 41.4817V16.9997M16 47.8683L47.9331 16.9997M47.9331 16.9997H129.895C135.217 17 144.264 16.4675 144.264 29.2407C144.264 42.014 144.264 60.1095 144.264 67.5606V75.0117M66.0285 127.169V112.267C66.0285 102.048 74.544 99.8485 78.8017 100.026H93.7038M66.0285 127.169V166.553C65.4963 170.633 67.3058 178.794 78.8017 178.794H165.021C169.988 179.681 179.923 178.474 179.923 166.553V127.169M66.0285 127.169C67.2703 131.427 71.9893 139.942 80.9306 139.942M80.9306 139.942C89.8718 139.942 89.6235 139.942 88.3816 139.942M80.9306 139.942H88.3816M88.3816 139.942V144.2C88.9138 146.329 90.9363 150.587 94.7682 150.587C98.6002 150.587 101.687 148.458 101.687 144.2V139.942M88.3816 139.942V134.62C88.3816 132.669 89.6589 128.766 94.7682 128.766C99.8775 128.766 101.51 132.669 101.687 134.62V139.942M101.687 139.942H143.2M143.2 139.942V144.2C143.555 146.329 145.329 150.587 149.587 150.587C153.844 150.587 157.038 148.458 157.038 144.2V139.41M143.2 139.942V134.62C143.2 132.669 144.477 128.766 149.587 128.766C154.696 128.766 156.683 132.669 157.038 134.62V139.41M157.038 139.41H165.021C168.746 139.587 176.943 137.388 179.923 127.169M179.923 127.169V112.267C180.278 108.187 177.794 100.026 165.021 100.026H153.312M153.312 100.026V93.1071C152.78 88.6719 149.054 79.8016 138.41 79.8016M153.312 100.026H141.603M138.41 79.8016C127.766 79.8016 113.751 79.8016 108.074 79.8016M138.41 79.8016H108.074M108.074 79.8016C103.816 79.8016 94.9811 82.4627 93.7038 93.1071V100.026M93.7038 100.026H105.413M105.413 100.026V93.1071C105.413 91.8652 106.371 89.3815 110.203 89.3815H136.813C138.41 89.3815 141.603 90.1266 141.603 93.1071V100.026M105.413 100.026H141.603" stroke="white" stroke-width="2"/>
</g>
<defs>
<filter id="filter0_d_634_742" x="0" y="0.995605" width="195.955" height="194.028" filterUnits="userSpaceOnUse" color-interpolation-filters="sRGB">
<feFlood flood-opacity="0" result="BackgroundImageFix"/>
<feColorMatrix in="SourceAlpha" type="matrix" values="0 0 0 0 0 0 0 0 0 0 0 0 0 0 0 0 0 0 127 0" result="hardAlpha"/>
<feOffset/>
<feGaussianBlur stdDeviation="7.5"/>
<feComposite in2="hardAlpha" operator="out"/>
<feColorMatrix type="matrix" values="0 0 0 0 0.662745 0 0 0 0 0.803922 0 0 0 0 0.937255 0 0 0 0.7 0"/>
<feBlend mode="normal" in2="BackgroundImageFix" result="effect1_dropShadow_634_742"/>
<feBlend mode="normal" in="SourceGraphic" in2="effect1_dropShadow_634_742" result="shape"/>
</filter>
</defs>
</svg>
