<svg width="132" height="122" viewBox="0 0 132 122" fill="none" xmlns="http://www.w3.org/2000/svg">
<mask id="path-1-inside-1_945_454" fill="white">
<path d="M126.877 49.5553C127.792 61.3769 124.652 73.1573 117.974 82.9552C111.297 92.7532 101.481 99.9838 90.1438 103.455C78.8066 106.927 66.6249 106.433 55.6063 102.054C44.5878 97.6744 35.39 89.672 29.5288 79.3652C23.6676 69.0583 21.4928 57.0621 23.3628 45.3536C25.2328 33.6452 31.0361 22.9232 39.8161 14.9548C48.5962 6.98635 59.8291 2.24704 71.6635 1.51791C83.4979 0.788779 95.2276 4.11335 104.919 10.9437L103.541 12.9003C94.2935 6.38337 83.102 3.21136 71.8107 3.90703C60.5193 4.6027 49.8019 9.12452 41.4248 16.7273C33.0476 24.33 27.5107 34.56 25.7265 45.7311C23.9423 56.9023 26.0173 68.348 31.6095 78.1819C37.2017 88.0158 45.9775 95.651 56.4904 99.8291C67.0033 104.007 78.626 104.479 89.443 101.167C100.26 97.8544 109.626 90.9555 115.996 81.6072C122.367 72.2589 125.363 61.0191 124.49 49.74L126.877 49.5553Z"/>
</mask>
<path d="M126.877 49.5553C127.792 61.3769 124.652 73.1573 117.974 82.9552C111.297 92.7532 101.481 99.9838 90.1438 103.455C78.8066 106.927 66.6249 106.433 55.6063 102.054C44.5878 97.6744 35.39 89.672 29.5288 79.3652C23.6676 69.0583 21.4928 57.0621 23.3628 45.3536C25.2328 33.6452 31.0361 22.9232 39.8161 14.9548C48.5962 6.98635 59.8291 2.24704 71.6635 1.51791C83.4979 0.788779 95.2276 4.11335 104.919 10.9437L103.541 12.9003C94.2935 6.38337 83.102 3.21136 71.8107 3.90703C60.5193 4.6027 49.8019 9.12452 41.4248 16.7273C33.0476 24.33 27.5107 34.56 25.7265 45.7311C23.9423 56.9023 26.0173 68.348 31.6095 78.1819C37.2017 88.0158 45.9775 95.651 56.4904 99.8291C67.0033 104.007 78.626 104.479 89.443 101.167C100.26 97.8544 109.626 90.9555 115.996 81.6072C122.367 72.2589 125.363 61.0191 124.49 49.74L126.877 49.5553Z" fill="white" stroke="white" stroke-width="2" stroke-dasharray="2 4 6 8" mask="url(#path-1-inside-1_945_454)"/>
<path d="M104.677 2.12915V12.4194H94.3867" stroke="white" stroke-width="2"/>
<path d="M103.388 41.7744C103.201 41.7744 103.005 41.7091 102.8 41.5784C102.613 41.4477 102.52 41.2704 102.52 41.0464V38.3304C102.52 37.5651 102.744 36.8557 103.192 36.2024C103.658 35.5491 104.246 34.9331 104.956 34.3544C105.665 33.7757 106.421 33.2064 107.224 32.6464C108.045 32.0864 108.81 31.5077 109.52 30.9104C110.248 30.2944 110.836 29.6504 111.284 28.9784C111.75 28.3064 111.984 27.5597 111.984 26.7384C111.984 26.1411 111.844 25.5624 111.564 25.0024C111.284 24.4424 110.864 23.9757 110.304 23.6024C109.762 23.2291 109.062 23.0424 108.204 23.0424C107.252 23.0424 106.449 23.3224 105.796 23.8824C105.142 24.4237 104.816 25.2451 104.816 26.3464C104.816 26.5331 104.732 26.7104 104.564 26.8784C104.396 27.0277 104.153 27.1024 103.836 27.1024C103.556 27.1024 103.341 27.0184 103.192 26.8504C103.061 26.6824 102.996 26.3837 102.996 25.9544C102.996 25.0584 103.229 24.2651 103.696 23.5744C104.162 22.8651 104.788 22.3144 105.572 21.9224C106.374 21.5117 107.27 21.3064 108.26 21.3064C109.342 21.3064 110.294 21.5491 111.116 22.0344C111.956 22.5011 112.618 23.1451 113.104 23.9664C113.589 24.7691 113.832 25.6744 113.832 26.6824C113.832 27.6717 113.598 28.5677 113.132 29.3704C112.684 30.1731 112.105 30.9011 111.396 31.5544C110.686 32.2077 109.93 32.8144 109.128 33.3744C108.325 33.9344 107.569 34.4757 106.86 34.9984C106.15 35.5211 105.562 36.0531 105.096 36.5944C104.648 37.1357 104.424 37.7144 104.424 38.3304V40.0664H113.356C113.542 40.0664 113.701 40.1504 113.832 40.3184C113.962 40.4677 114.028 40.6637 114.028 40.9064C114.028 41.1304 113.962 41.3357 113.832 41.5224C113.701 41.6904 113.542 41.7744 113.356 41.7744H103.388ZM122.305 41.9424C121.222 41.9424 120.242 41.7464 119.365 41.3544C118.487 40.9624 117.787 40.3277 117.265 39.4504C116.742 38.5731 116.481 37.4064 116.481 35.9504V27.2984C116.481 25.8424 116.742 24.6757 117.265 23.7984C117.787 22.9211 118.478 22.2864 119.337 21.8944C120.214 21.5024 121.203 21.3064 122.305 21.3064C123.406 21.3064 124.395 21.5024 125.273 21.8944C126.15 22.2864 126.85 22.9211 127.373 23.7984C127.895 24.6757 128.157 25.8424 128.157 27.2984V35.9504C128.157 37.4064 127.895 38.5731 127.373 39.4504C126.85 40.3277 126.15 40.9624 125.273 41.3544C124.395 41.7464 123.406 41.9424 122.305 41.9424ZM122.305 40.2344C123.555 40.2344 124.526 39.8891 125.217 39.1984C125.926 38.5077 126.281 37.4251 126.281 35.9504V27.2984C126.281 25.8237 125.926 24.7411 125.217 24.0504C124.526 23.3597 123.555 23.0144 122.305 23.0144C121.054 23.0144 120.083 23.3597 119.393 24.0504C118.702 24.7411 118.357 25.8237 118.357 27.2984V35.9504C118.357 37.4251 118.702 38.5077 119.393 39.1984C120.083 39.8891 121.054 40.2344 122.305 40.2344ZM122.333 32.6744C122.034 32.6744 121.782 32.5717 121.577 32.3664C121.39 32.1611 121.297 31.9184 121.297 31.6384C121.297 31.3397 121.39 31.0971 121.577 30.9104C121.782 30.7237 122.034 30.6304 122.333 30.6304C122.631 30.6304 122.874 30.7237 123.061 30.9104C123.247 31.0971 123.341 31.3397 123.341 31.6384C123.341 31.9184 123.247 32.1611 123.061 32.3664C122.874 32.5717 122.631 32.6744 122.333 32.6744Z" fill="white"/>
<circle cx="75.2257" cy="53.9354" r="6.09675" stroke="white" stroke-width="2"/>
<rect x="80.9033" y="51.637" width="15.6129" height="2.12903" rx="1.06451" transform="rotate(-12.5 80.9033 51.637)" fill="white"/>
<rect x="69.5479" y="51.2378" width="31.9354" height="2.12903" rx="1.06451" transform="rotate(-134.5 69.5479 51.2378)" fill="white"/>
<rect x="33.3555" y="52.5161" width="9.93546" height="2.12903" rx="1.06451" fill="white"/>
<rect x="107.161" y="52.5161" width="9.93546" height="2.12903" rx="1.06451" fill="white"/>
<rect x="74.5156" y="96.5159" width="9.93546" height="2.12903" rx="1.06451" transform="rotate(-90 74.5156 96.5159)" fill="white"/>
<rect x="74.5156" y="21.2905" width="9.93546" height="2.12903" rx="1.06451" transform="rotate(-90 74.5156 21.2905)" fill="white"/>
<path d="M17.0322 7.80643C21.2903 6.03224 22 3.90321 22.7096 0C23.0645 3.90321 24.4838 6.74192 28.387 7.80643C24.129 9.58062 23.0645 11 22.7096 15.9677C22 9.93545 19.5161 8.87094 17.0322 7.80643Z" fill="white"/>
<path d="M0 34.774C4.25805 32.9998 4.96773 30.8707 5.6774 26.9675C6.03224 30.8707 7.45159 33.7094 11.3548 34.774C7.09675 36.5481 6.03224 37.9675 5.6774 42.9352C4.96773 36.903 2.48386 35.8385 0 34.774Z" fill="white"/>
<path d="M112.129 113.548C116.387 111.774 117.097 109.645 117.806 105.742C118.161 109.645 119.58 112.484 123.484 113.548C119.226 115.322 118.161 116.742 117.806 121.709C117.097 115.677 114.613 114.613 112.129 113.548Z" fill="white"/>
</svg>
