<svg width="77" height="82" viewBox="0 0 77 82" fill="none" xmlns="http://www.w3.org/2000/svg">
<path d="M1.56702 20.7473C3.72858 17.1772 8.42548 15.2972 15.0035 15.2972C16.4088 15.2972 17.8999 15.3833 19.4704 15.5567C20.7052 15.6929 21.9728 15.8872 23.2628 16.125C26.7078 6.55734 32.1396 0.491318 38.3592 0.491318C44.5788 0.491318 50.0105 6.55734 53.4559 16.125C54.7455 15.8872 56.0136 15.6929 57.248 15.5567C58.8189 15.3833 60.3091 15.2972 61.7148 15.2972C68.2915 15.2972 72.9893 17.1776 75.1509 20.7473C77.7738 25.0801 76.2695 31.2527 70.9136 38.1281C70.1652 39.0887 69.3462 40.0481 68.4756 41.0038C69.3462 41.9594 70.1652 42.9188 70.9136 43.8794C76.2695 50.7549 77.7738 56.9274 75.1509 61.2602C72.5279 65.5929 66.1703 67.4353 57.248 66.4512C56.0136 66.315 54.7455 66.1207 53.4559 65.8829C50.01 75.4506 44.5783 81.5166 38.3587 81.5166C32.1391 81.5166 26.7074 75.4506 23.2624 65.8829C21.9724 66.1211 20.7047 66.315 19.4699 66.4512C10.5467 67.4353 4.18999 65.5929 1.56702 61.2602C-1.05595 56.9274 0.448774 50.7549 5.80426 43.8794C6.55268 42.9188 7.37165 41.9594 8.24232 41.0038C7.37165 40.0481 6.55268 39.0887 5.80426 38.1281C0.448336 31.2531 -1.05639 25.0805 1.56702 20.7473ZM21.6641 29.504C23.7267 28.1501 26.6158 26.548 28.8589 25.3128C31.1112 24.0731 33.9007 22.4749 36.1704 21.4449C32.1409 19.4301 27.5659 18.1821 24.0819 17.4154C23.0477 20.6354 21.6641 25.291 21.6641 29.504ZM21.6641 31.1158C21.346 34.0149 20.8582 37.9158 20.8582 41.0038C20.8582 44.0917 20.9431 47.1555 21.2612 50.0546C23.7466 51.7632 27.1719 53.9719 29.9544 55.5037C32.7421 57.0385 35.3852 58.1224 38.1852 59.3225C40.9852 58.1224 43.9754 57.039 46.7631 55.5037C49.5456 53.9719 52.6234 52.5691 55.1092 50.8605C55.4274 47.9614 55.9151 44.4807 55.9151 41.3923C55.9151 38.3039 55.4274 34.4178 55.1092 31.5187C52.6239 29.8101 49.8326 27.8122 47.0502 26.2803C44.2625 24.7456 41.1583 22.9921 38.3583 21.792C35.5583 22.9921 32.5109 24.7451 29.7232 26.2803C26.9407 27.8126 24.1495 29.4072 21.6641 31.1158ZM38.3583 1.7002C33.2622 1.7002 27.7084 6.9386 24.4848 16.125C28.6151 17.0485 33.969 18.9062 38.3583 20.7319C42.7476 18.9062 47.7553 17.13 51.8856 16.2065C48.7741 7.71066 43.4544 1.7002 38.3583 1.7002ZM52.6915 17.4154C49.2071 18.1826 44.3104 20 40.6029 21.4449C42.8727 22.4745 45.6067 24.0726 47.8586 25.3128C50.1016 26.5476 53.0463 28.5531 55.1092 29.9069C54.5479 26.0781 53.7256 20.6354 52.6915 17.4154ZM69.6156 37.563C74.3479 31.4878 76.1759 24.9595 74.048 21.4449C71.9202 17.9303 65.8133 15.7117 57.9299 16.5821C56.8318 16.7033 55.0454 16.8068 53.9004 17.0124C55.1058 20.8287 56.2428 26.2392 56.7831 30.8778C60.6426 33.596 64.2918 37.4278 67.1978 40.3837C67.966 39.5321 68.9495 38.4184 69.6156 37.563ZM56.7831 49.6516C60.3476 47.3931 63.9499 43.8932 66.3919 41.3923C63.9499 38.8914 59.9568 35.073 56.7831 32.7276C56.9772 35.0914 57.3584 38.5033 57.3584 41.0038C57.3584 43.5042 56.9772 47.2878 56.7831 49.6516ZM56.7831 65.1252C58.2435 65.2865 60.6554 65.3668 61.9594 65.3668C67.6953 65.3668 72.3141 63.3949 74.048 60.5314C76.1759 57.0168 74.7509 51.2944 70.0185 45.2191C69.352 44.3638 68.3689 42.8471 67.6008 41.9955C64.6947 44.9514 60.6426 48.4115 56.7831 51.1297C56.2428 55.7683 55.5088 60.9882 54.3033 64.8045C55.4483 65.0097 55.685 65.0036 56.7831 65.1252ZM55.1092 52.4723C53.0467 53.8262 50.1016 55.4599 47.8581 56.6947C45.6059 57.9345 41.6639 59.1855 39.3941 60.2155C42.8448 62.1432 49.2075 63.7941 52.6915 64.5609C53.7261 61.3409 54.5484 56.3011 55.1092 52.4723ZM38.3587 80.2761C43.4548 80.2761 48.7736 74.2656 51.8856 65.7698C47.7553 64.8463 42.748 63.1017 38.3587 61.2761C33.9694 63.1017 29.0176 64.9595 24.8878 65.8829C27.9997 74.3784 33.2626 80.2761 38.3587 80.2761ZM24.4848 64.5609C27.9688 63.7937 33.7527 62.1432 36.9764 60.2155C34.7066 59.1859 31.1107 57.9349 28.8589 56.6947C26.6158 55.4599 23.7267 53.4232 21.6641 52.0693C22.0671 56.0989 23.4507 61.3413 24.4848 64.5609ZM6.35191 45.2191C1.61909 51.2944 0.597513 57.4197 2.72534 60.9343C4.45923 63.7983 9.07766 65.3668 14.8139 65.3668C16.1175 65.3668 19.3982 65.1251 20.8582 64.9638C21.9563 64.8427 21.728 64.7661 22.873 64.5609C21.6675 60.7446 20.4751 55.7683 19.9348 51.1297C16.0753 48.4115 12.0044 44.9514 9.09834 41.9955C8.32977 42.8475 7.01795 44.3638 6.35191 45.2191ZM19.9344 32.7276C16.7606 35.0734 12.5493 38.5025 10.1073 41.0038C12.5493 43.5046 16.2961 46.4229 19.4699 48.7687C19.2758 46.4045 19.3595 43.5042 19.3595 41.0038C19.3595 38.5033 19.7398 35.0918 19.9344 32.7276ZM9.09834 39.9808C12.0048 37.0248 16.0749 33.5964 19.9344 30.8778C20.4747 26.2392 21.6675 20.8287 22.873 17.0124C21.728 16.8068 20.3445 16.7307 19.2464 16.6095C11.3626 15.7399 4.85316 17.5274 2.72534 21.042C0.597513 24.5565 1.61909 30.6819 6.35191 36.7571C7.01839 37.6125 8.3302 39.1287 9.09834 39.9808Z" fill="white"/>
<path d="M46.0256 30.9096C47.6341 30.9096 48.9426 32.1578 48.9426 33.6917V48.3146C48.9426 49.8485 47.6341 51.0967 46.0256 51.0967H30.6909C29.0823 51.0967 27.7734 49.8485 27.7734 48.3146V33.6917C27.7734 32.1578 29.0823 30.9096 30.6909 30.9096H46.0256ZM29.7229 33.6917V41.1895V48.3146C29.7229 48.6969 30.5312 49.2486 30.9317 49.2486H38.1849H46.0256C46.4261 49.2486 47.0499 48.6965 47.0499 48.3146V41.1895V33.6917C47.0499 33.3094 46.4261 32.7275 46.0256 32.7275H38.1849H30.9317C30.5312 32.7275 29.7229 33.3098 29.7229 33.6917Z" fill="white"/>
<path d="M42.7252 39.9591C43.3304 39.9591 43.827 40.2096 43.827 40.7866C43.827 41.3637 43.2233 41.5925 42.6181 41.5925H38.1857H33.9935C33.3884 41.5925 32.9473 41.3637 32.9473 40.7866C32.9473 40.2096 33.3884 39.9591 33.9935 39.9591H42.7252Z" fill="white"/>
<path d="M42.6181 35.9512C43.2233 35.9512 43.827 36.18 43.827 36.7571C43.827 37.3341 43.3304 37.563 42.7252 37.563H38.1857H33.9935C33.3884 37.563 32.9473 37.3341 32.9473 36.7571C32.9473 36.18 33.3884 35.9512 33.9935 35.9512H38.1857H42.6181Z" fill="white"/>
<path d="M38.5217 44.0102C39.1268 44.0102 39.7975 44.2391 39.7975 44.8162C39.7975 45.3932 39.1268 45.6221 38.5217 45.6221H36.1708L34.1561 45.6221C33.551 45.6221 32.9473 45.3932 32.9473 44.8162C32.9473 44.2391 33.5509 44.0102 34.1561 44.0102H38.5217Z" fill="white"/>
</svg>
