<svg width="68" height="71" viewBox="0 0 68 71" fill="none" xmlns="http://www.w3.org/2000/svg">
<g filter="url(#filter0_d_728_43)">
<path d="M13.6892 24.0848C14.8721 22.1311 17.4424 21.1023 21.0422 21.1023C21.8112 21.1023 22.6272 21.1494 23.4867 21.2443C24.1624 21.3188 24.8561 21.4252 25.5621 21.5553C27.4473 16.3195 30.4198 12.9999 33.8234 12.9999C37.227 12.9999 40.1995 16.3195 42.085 21.5553C42.7907 21.4252 43.4847 21.3188 44.1602 21.2443C45.0198 21.1494 45.8354 21.1023 46.6046 21.1023C50.2037 21.1023 52.7745 22.1313 53.9574 24.0848C55.3928 26.4559 54.5696 29.8338 51.6386 33.5963C51.229 34.122 50.7809 34.647 50.3044 35.17C50.7809 35.693 51.229 36.218 51.6386 36.7437C54.5696 40.5062 55.3928 43.8841 53.9574 46.2552C52.522 48.6262 49.0428 49.6344 44.1602 49.0959C43.4847 49.0214 42.7907 48.915 42.085 48.7849C40.1993 54.0207 37.2268 57.3403 33.8232 57.3403C30.4196 57.3403 27.4471 54.0207 25.5618 48.7849C24.8559 48.9153 24.1622 49.0214 23.4864 49.0959C18.6033 49.6344 15.1246 48.6262 13.6892 46.2552C12.2538 43.8841 13.0772 40.5062 16.008 36.7437C16.4176 36.218 16.8657 35.693 17.3422 35.17C16.8657 34.647 16.4176 34.122 16.008 33.5963C13.077 29.834 12.2536 26.4561 13.6892 24.0848ZM24.6872 28.8768C25.8159 28.1359 27.397 27.2592 28.6245 26.5833C29.857 25.9048 31.3835 25.0302 32.6257 24.4666C30.4205 23.364 27.9169 22.681 26.0103 22.2614C25.4444 24.0236 24.6872 26.5713 24.6872 28.8768ZM24.6872 29.7589C24.5131 31.3454 24.2462 33.4801 24.2462 35.17C24.2462 36.8598 24.2926 38.5365 24.4667 40.123C25.8268 41.058 27.7013 42.2667 29.2239 43.105C30.7495 43.9449 32.1959 44.538 33.7282 45.1948C35.2605 44.538 36.8968 43.9451 38.4224 43.105C39.9451 42.2667 41.6294 41.499 42.9898 40.564C43.1639 38.9775 43.4308 37.0727 43.4308 35.3826C43.4308 33.6925 43.1639 31.5659 42.9898 29.9794C41.6297 29.0444 40.1022 27.951 38.5795 27.1127C37.0539 26.2728 35.3552 25.3132 33.8229 24.6565C32.2907 25.3132 30.623 26.2726 29.0974 27.1127C27.5748 27.9512 26.0473 28.8238 24.6872 29.7589ZM33.8229 13.6614C31.0341 13.6614 27.9949 16.5281 26.2308 21.5553C28.4911 22.0606 31.4209 23.0773 33.8229 24.0764C36.2249 23.0773 38.9654 22.1052 41.2257 21.5999C39.5229 16.9506 36.6117 13.6614 33.8229 13.6614ZM41.6667 22.2614C39.7599 22.6813 37.0802 23.6758 35.0513 24.4666C36.2934 25.03 37.7896 25.9046 39.0219 26.5833C40.2494 27.259 41.8608 28.3564 42.9898 29.0973C42.6826 27.002 42.2326 24.0236 41.6667 22.2614ZM50.9282 33.2871C53.518 29.9625 54.5183 26.3899 53.3539 24.4666C52.1894 22.5432 48.8475 21.3291 44.5334 21.8054C43.9324 21.8718 42.9548 21.9284 42.3282 22.0409C42.9879 24.1293 43.6101 27.0902 43.9057 29.6287C46.0178 31.1161 48.0148 33.2131 49.6052 34.8307C50.0255 34.3646 50.5637 33.7552 50.9282 33.2871ZM43.9057 39.9025C45.8564 38.6665 47.8278 36.7512 49.1641 35.3826C47.8278 34.014 45.6426 31.9244 43.9057 30.6409C44.012 31.9345 44.2206 33.8016 44.2206 35.17C44.2206 36.5383 44.012 38.6089 43.9057 39.9025ZM43.9057 48.3703C44.705 48.4585 46.0249 48.5025 46.7385 48.5025C49.8774 48.5025 52.405 47.4234 53.3539 45.8563C54.5183 43.933 53.7385 40.8014 51.1487 37.4768C50.784 37.0087 50.246 36.1787 49.8257 35.7127C48.2354 37.3303 46.0178 39.2238 43.9057 40.7113C43.6101 43.2498 43.2084 46.1063 42.5487 48.1948C43.1753 48.307 43.3048 48.3037 43.9057 48.3703ZM42.9898 41.4461C41.8611 42.1869 40.2494 43.081 39.0217 43.7567C37.7891 44.4352 35.6319 45.1198 34.3898 45.6835C36.2781 46.7384 39.7601 47.6418 41.6667 48.0615C42.2328 46.2993 42.6828 43.5414 42.9898 41.4461ZM33.8232 56.6615C36.612 56.6615 39.5227 53.3723 41.2257 48.723C38.9654 48.2176 36.2252 47.2629 33.8232 46.2638C31.4212 47.2629 28.7113 48.2796 26.4513 48.7849C28.1543 53.434 31.0344 56.6615 33.8232 56.6615ZM26.2308 48.0615C28.1374 47.6416 31.3026 46.7384 33.0667 45.6835C31.8246 45.12 29.8568 44.4354 28.6245 43.7567C27.397 43.081 25.8159 41.9664 24.6872 41.2255C24.9077 43.4307 25.6649 46.2996 26.2308 48.0615ZM16.3077 37.4768C13.7177 40.8014 13.1586 44.1535 14.3231 46.0768C15.2719 47.6441 17.7993 48.5025 20.9385 48.5025C21.6519 48.5025 23.4472 48.3702 24.2462 48.282C24.8471 48.2156 24.7221 48.1737 25.3487 48.0615C24.6891 45.973 24.0365 43.2498 23.7408 40.7113C21.6287 39.2238 19.401 37.3303 17.8107 35.7127C17.3901 36.179 16.6722 37.0087 16.3077 37.4768ZM23.7406 30.6409C22.0038 31.9247 19.6992 33.8012 18.3628 35.17C19.6992 36.5386 21.7496 38.1356 23.4864 39.4193C23.3802 38.1255 23.426 36.5383 23.426 35.17C23.426 33.8016 23.6341 31.9347 23.7406 30.6409ZM17.8107 34.6102C19.4012 32.9926 21.6285 31.1164 23.7406 29.6287C24.0363 27.0902 24.6891 24.1293 25.3487 22.0409C24.7221 21.9284 23.965 21.8867 23.3641 21.8204C19.0498 21.3445 15.4875 22.3227 14.3231 24.246C13.1586 26.1694 13.7177 29.5214 16.3077 32.8461C16.6724 33.3141 17.3903 34.1439 17.8107 34.6102Z" fill="white"/>
<path d="M38.0191 29.6461C38.8994 29.6461 39.6154 30.3292 39.6154 31.1686V39.1709C39.6154 40.0103 38.8994 40.6934 38.0191 40.6934H29.6273C28.747 40.6934 28.0308 40.0103 28.0308 39.1709V31.1686C28.0308 30.3292 28.747 29.6461 29.6273 29.6461H38.0191ZM29.0976 31.1686V35.2717V39.1709C29.0976 39.3801 29.5399 39.682 29.7591 39.682H33.7284H38.0191C38.2383 39.682 38.5796 39.3799 38.5796 39.1709V35.2717V31.1686C38.5796 30.9594 38.2383 30.641 38.0191 30.641H33.7284H29.7591C29.5399 30.641 29.0976 30.9596 29.0976 31.1686Z" fill="white"/>
<path d="M36.2127 34.5984C36.5439 34.5984 36.8157 34.7355 36.8157 35.0513C36.8157 35.3671 36.4853 35.4923 36.1541 35.4923H33.7285H31.4344C31.1032 35.4923 30.8618 35.3671 30.8618 35.0513C30.8618 34.7355 31.1032 34.5984 31.4344 34.5984H36.2127Z" fill="white"/>
<path d="M36.1541 32.4051C36.4853 32.4051 36.8157 32.5303 36.8157 32.8461C36.8157 33.1619 36.5439 33.2871 36.2127 33.2871H33.7285H31.4344C31.1032 33.2871 30.8618 33.1619 30.8618 32.8461C30.8618 32.5303 31.1032 32.4051 31.4344 32.4051H33.7285H36.1541Z" fill="white"/>
<path d="M33.9124 36.8153C34.2435 36.8153 34.6105 36.9406 34.6105 37.2564C34.6105 37.5722 34.2435 37.6974 33.9124 37.6974H32.6259L31.5234 37.6974C31.1922 37.6974 30.8618 37.5722 30.8618 37.2564C30.8618 36.9406 31.1922 36.8153 31.5233 36.8153H33.9124Z" fill="white"/>
</g>
<defs>
<filter id="filter0_d_728_43" x="0" y="-0.00012207" width="67.6465" height="70.3405" filterUnits="userSpaceOnUse" color-interpolation-filters="sRGB">
<feFlood flood-opacity="0" result="BackgroundImageFix"/>
<feColorMatrix in="SourceAlpha" type="matrix" values="0 0 0 0 0 0 0 0 0 0 0 0 0 0 0 0 0 0 127 0" result="hardAlpha"/>
<feOffset/>
<feGaussianBlur stdDeviation="6.5"/>
<feComposite in2="hardAlpha" operator="out"/>
<feColorMatrix type="matrix" values="0 0 0 0 0.662745 0 0 0 0 0.803922 0 0 0 0 0.937255 0 0 0 0.7 0"/>
<feBlend mode="normal" in2="BackgroundImageFix" result="effect1_dropShadow_728_43"/>
<feBlend mode="normal" in="SourceGraphic" in2="effect1_dropShadow_728_43" result="shape"/>
</filter>
</defs>
</svg>
