<svg width="125" height="132" viewBox="0 0 125 132" fill="none" xmlns="http://www.w3.org/2000/svg">
<g filter="url(#filter0_d_634_567)">
<path d="M14.7579 39.9062C17.5483 35.2974 23.6116 32.8705 32.1033 32.8705C33.9174 32.8705 35.8423 32.9817 37.8696 33.2055C39.4637 33.3814 41.1001 33.6322 42.7654 33.9391C47.2127 21.5881 54.2246 13.7573 62.2536 13.7573C70.2826 13.7573 77.2945 21.5881 81.7423 33.9391C83.4071 33.6322 85.0441 33.3814 86.6376 33.2055C88.6654 32.9817 90.5893 32.8705 92.4039 32.8705C100.894 32.8705 106.958 35.2979 109.749 39.9062C113.135 45.4994 111.193 53.4677 104.279 62.3433C103.313 63.5835 102.255 64.822 101.131 66.0556C102.255 67.2893 103.313 68.5278 104.279 69.7679C111.193 78.6435 113.135 86.6118 109.749 92.2051C106.363 97.7983 98.1555 100.177 86.6376 98.9063C85.0441 98.7304 83.4071 98.4796 81.7423 98.1727C77.294 110.524 70.282 118.354 62.253 118.354C54.224 118.354 47.2121 110.524 42.7649 98.1727C41.0996 98.4801 39.4631 98.7304 37.8691 98.9063C26.35 100.177 18.1439 97.7983 14.7579 92.2051C11.3718 86.6118 13.3143 78.6435 20.2278 69.7679C21.194 68.5278 22.2512 67.2893 23.3751 66.0556C22.2512 64.822 21.194 63.5835 20.2278 62.3433C13.3137 53.4683 11.3713 45.5 14.7579 39.9062ZM40.7016 51.2103C43.3642 49.4626 47.0939 47.3944 49.9895 45.7999C52.897 44.1994 56.498 42.1364 59.4281 40.8067C54.2263 38.2058 48.3203 36.5947 43.8227 35.6049C42.4878 39.7617 40.7016 45.7717 40.7016 51.2103ZM40.7016 53.291C40.291 57.0335 39.6613 62.0693 39.6613 66.0556C39.6613 70.0419 39.7708 73.997 40.1815 77.7395C43.3899 79.9452 47.8117 82.7965 51.4037 84.774C55.0024 86.7553 58.4145 88.1545 62.029 89.7037C65.6436 88.1545 69.5037 86.7558 73.1024 84.774C76.6944 82.7965 80.6676 80.9856 83.8766 78.7799C84.2873 75.0374 84.917 70.544 84.917 66.5572C84.917 62.5703 84.2873 57.5537 83.8766 53.8112C80.6682 51.6055 77.065 49.0264 73.473 47.0489C69.8743 45.0676 65.867 42.804 62.2525 41.2547C58.6379 42.804 54.704 45.0671 51.1053 47.0489C47.5133 49.0269 43.9101 51.0854 40.7016 53.291ZM62.2525 15.3179C55.6738 15.3179 48.5043 22.0802 44.3429 33.9391C49.6748 35.1313 56.5862 37.5295 62.2525 39.8862C67.9187 37.5295 74.3833 35.2365 79.7152 34.0444C75.6984 23.0769 68.8311 15.3179 62.2525 15.3179ZM80.7555 35.6049C76.2574 36.5953 69.9362 38.9414 65.1501 40.8067C68.0802 42.1358 71.6096 44.1989 74.5166 45.7999C77.4122 47.3939 81.2135 49.9828 83.8766 51.7305C83.152 46.7878 82.0905 39.7617 80.7555 35.6049ZM102.603 61.6139C108.712 53.7713 111.072 45.3438 108.325 40.8067C105.578 36.2697 97.6947 33.4056 87.5179 34.5293C86.1003 34.6857 83.7941 34.8193 82.3161 35.0847C83.8722 40.0113 85.3399 46.9958 86.0374 52.9839C91.0197 56.4928 95.7306 61.4393 99.482 65.2552C100.474 64.1559 101.743 62.7181 102.603 61.6139ZM86.0374 77.2193C90.639 74.3038 95.2892 69.7856 98.4417 66.5572C95.2892 63.3288 90.1345 58.3995 86.0374 55.3718C86.288 58.4233 86.7801 62.8277 86.7801 66.0556C86.7801 69.2835 86.288 74.1679 86.0374 77.2193ZM86.0374 97.1945C87.9227 97.4027 91.0363 97.5064 92.7197 97.5064C100.124 97.5064 106.087 94.9609 108.325 91.2642C111.072 86.7272 109.232 79.34 103.123 71.4974C102.263 70.3932 100.994 68.4353 100.002 67.3359C96.2507 71.1518 91.0197 75.6185 86.0374 79.1274C85.3399 85.1155 84.3924 91.854 82.8363 96.7805C84.3143 97.0453 84.6198 97.0375 86.0374 97.1945ZM83.8766 80.8606C81.2141 82.6083 77.4122 84.7174 74.516 86.3114C71.6085 87.9118 66.5197 89.5268 63.5896 90.8565C68.0442 93.3449 76.258 95.4762 80.7555 96.466C82.0911 92.3093 83.1526 85.8033 83.8766 80.8606ZM62.253 116.753C68.8317 116.753 75.6978 108.994 79.7152 98.0266C74.3833 96.8344 67.9193 94.5823 62.253 92.2256C56.5868 94.5823 50.1944 96.9805 44.8631 98.1727C48.8804 109.14 55.6744 116.753 62.253 116.753ZM44.3429 96.466C48.8405 95.4756 56.3071 93.3449 60.4685 90.8565C57.5384 89.5274 52.8964 87.9124 49.9895 86.3114C47.0939 84.7174 43.3642 82.0882 40.7016 80.3404C41.2218 85.5422 43.0079 92.3098 44.3429 96.466ZM20.9348 71.4974C14.8251 79.34 13.5063 87.2473 16.2532 91.7844C18.4915 95.4816 24.4535 97.5064 31.8586 97.5064C33.5414 97.5064 37.7765 97.1944 39.6613 96.9862C41.0788 96.8298 40.7841 96.7309 42.2622 96.466C40.706 91.5395 39.1667 85.1155 38.4692 79.1274C33.4869 75.6185 28.2317 71.1518 24.4802 67.3359C23.488 68.4358 21.7946 70.3932 20.9348 71.4974ZM38.4687 55.3718C34.3716 58.4001 28.9351 62.8267 25.7827 66.0556C28.9351 69.2841 33.772 73.0513 37.8691 76.0796C37.6185 73.0276 37.7265 69.2835 37.7265 66.0556C37.7265 62.8277 38.2175 58.4238 38.4687 55.3718ZM24.4802 64.735C28.2322 60.9192 33.4863 56.4933 38.4687 52.9839C39.1661 46.9958 40.706 40.0113 42.2622 35.0847C40.7841 34.8193 38.9981 34.721 37.5806 34.5646C27.4032 33.442 19 35.7495 16.2532 40.2865C13.5063 44.8236 14.8251 52.731 20.9348 60.5736C21.7952 61.6778 23.4886 63.6351 24.4802 64.735Z" fill="white"/>
<path d="M72.1507 53.0251C74.2272 53.0251 75.9163 54.6363 75.9163 56.6165V75.4935C75.9163 77.4737 74.2272 79.085 72.1507 79.085H52.3548C50.2783 79.085 48.5886 77.4737 48.5886 75.4935V56.6165C48.5886 54.6363 50.2783 53.0251 52.3548 53.0251H72.1507ZM51.1052 56.6165V66.2956V75.4935C51.1052 75.9871 52.1487 76.6992 52.6657 76.6992H62.029H72.1507C72.6677 76.6992 73.473 75.9865 73.473 75.4935V66.2956V56.6165C73.473 56.123 72.6677 55.3718 72.1507 55.3718H62.029H52.6657C52.1487 55.3718 51.1052 56.1235 51.1052 56.6165Z" fill="white"/>
<path d="M67.8892 64.7071C68.6704 64.7071 69.3115 65.0304 69.3115 65.7753C69.3115 66.5203 68.5321 66.8157 67.7509 66.8157H62.0289H56.6173C55.8361 66.8157 55.2666 66.5203 55.2666 65.7753C55.2666 65.0304 55.8361 64.7071 56.6173 64.7071H67.8892Z" fill="white"/>
<path d="M67.7509 59.5333C68.5321 59.5333 69.3115 59.8287 69.3115 60.5737C69.3115 61.3186 68.6704 61.614 67.8892 61.614H62.0289H56.6173C55.8361 61.614 55.2666 61.3186 55.2666 60.5737C55.2666 59.8287 55.8361 59.5333 56.6173 59.5333H62.0289H67.7509Z" fill="white"/>
<path d="M62.4627 69.9368C63.2439 69.9368 64.1097 70.2323 64.1097 70.9772C64.1097 71.7222 63.2439 72.0176 62.4627 72.0176H59.428L56.8271 72.0176C56.046 72.0176 55.2666 71.7222 55.2666 70.9772C55.2666 70.2323 56.0459 69.9368 56.8271 69.9368H62.4627Z" fill="white"/>
</g>
<defs>
<filter id="filter0_d_634_567" x="0.13208" y="0.757324" width="124.242" height="130.597" filterUnits="userSpaceOnUse" color-interpolation-filters="sRGB">
<feFlood flood-opacity="0" result="BackgroundImageFix"/>
<feColorMatrix in="SourceAlpha" type="matrix" values="0 0 0 0 0 0 0 0 0 0 0 0 0 0 0 0 0 0 127 0" result="hardAlpha"/>
<feOffset/>
<feGaussianBlur stdDeviation="6.5"/>
<feComposite in2="hardAlpha" operator="out"/>
<feColorMatrix type="matrix" values="0 0 0 0 0.662745 0 0 0 0 0.803922 0 0 0 0 0.937255 0 0 0 0.7 0"/>
<feBlend mode="normal" in2="BackgroundImageFix" result="effect1_dropShadow_634_567"/>
<feBlend mode="normal" in="SourceGraphic" in2="effect1_dropShadow_634_567" result="shape"/>
</filter>
</defs>
</svg>
