<svg width="127" height="122" viewBox="0 0 127 122" fill="none" xmlns="http://www.w3.org/2000/svg">
<path d="M77.6248 67.0471H77.6251H89.943C94.3699 67.0547 98.6776 68.4756 102.234 71.101C105.792 73.7266 108.41 77.4186 109.708 81.6351L116.362 103.265L116.362 103.267C116.555 103.889 116.598 104.548 116.489 105.19C116.38 105.832 116.12 106.44 115.732 106.965L116.536 107.56L115.732 106.965C115.344 107.49 114.837 107.917 114.253 108.211C113.668 108.505 113.022 108.659 112.367 108.659H55.1594C54.5042 108.659 53.8583 108.505 53.2738 108.211C52.6893 107.917 52.1827 107.49 51.7944 106.965L50.9949 107.557L51.7944 106.965C51.4061 106.44 51.1469 105.832 51.0375 105.19C50.928 104.548 50.9714 103.889 51.164 103.267L51.1645 103.265L57.8188 81.6351C57.8188 81.6351 57.8188 81.6351 57.8188 81.6351C59.1181 77.412 61.743 73.7153 65.3082 71.0891C68.8735 68.4628 73.1907 67.0458 77.6248 67.0471Z" fill="#000816" stroke="white" stroke-width="2"/>
<path d="M78.6455 67.4414V63.2234H88.3733V67.5325C87.641 68.2737 86.3908 69.0979 84.8046 69.356C83.1589 69.6239 81.0471 69.3 78.6455 67.4414Z" fill="#000816" stroke="white" stroke-width="2"/>
<path d="M109.139 7.40729C109.388 7.32824 109.608 7.25301 109.801 7.18266C109.822 7.74695 109.703 8.41288 109.489 9.1027C109.327 9.62526 109.133 10.0934 108.977 10.4323C108.9 10.6008 108.834 10.735 108.787 10.8252C108.786 10.8285 108.784 10.8317 108.782 10.8349C108.717 10.9001 108.624 10.9926 108.51 11.1077C108.272 11.3472 107.939 11.6852 107.558 12.0804C106.8 12.8673 105.839 13.8948 105.06 14.8263L104.082 15.9947L105.539 16.4256L105.539 16.4256C105.539 16.4256 105.54 16.4258 105.54 16.4259C105.54 16.426 105.541 16.4261 105.541 16.4263C105.542 16.4264 105.542 16.4264 105.542 16.4266C105.542 16.4266 105.542 16.4266 105.542 16.4267C105.547 16.4282 105.557 16.4313 105.572 16.4362C105.601 16.446 105.648 16.4626 105.712 16.4868C105.84 16.5354 106.031 16.6143 106.267 16.7298C106.739 16.9615 107.38 17.3364 108.039 17.9026C109.342 19.0218 110.742 20.9091 111.026 24.0228C111.323 27.2816 110.742 31.5982 110.06 35.1678C109.721 36.9384 109.364 38.4994 109.09 39.6175C108.966 40.1272 108.859 40.5443 108.78 40.8464L105.778 41.6274C104.731 41.4735 103.61 41.5164 102.568 41.5964C102.137 41.6295 101.728 41.6678 101.336 41.7045C100.773 41.7572 100.244 41.8068 99.7339 41.8331L85.4629 32.7612L85.2046 32.597L84.8985 32.6055C82.8256 32.6634 80.6932 33.5517 78.6235 34.6825C77.1502 35.4874 75.6238 36.4656 74.1145 37.4329C73.5037 37.8244 72.8956 38.214 72.295 38.5897C70.1715 39.918 68.1057 41.0959 66.1114 41.7688C64.1296 42.4375 62.3051 42.5778 60.6105 41.9398C59.0827 41.3634 58.304 40.5679 57.8143 39.5864C57.2871 38.5299 57.0647 37.2109 56.7975 35.4688L56.7972 35.4672C56.7354 35.0687 56.6724 34.6674 56.609 34.2642C56.1301 31.217 55.6337 28.058 55.529 25.1055L55.529 25.1055C55.4548 23.0163 55.5082 20.801 57.5429 15.8479C58.4379 13.6693 59.477 12.4908 60.7518 11.8524C62.0642 11.1951 63.7898 11.0248 66.2424 11.2248L67.3476 11.3149L67.3234 10.2063C67.2611 7.34239 69.2936 5.06444 72.0808 3.43358C74.8553 1.81019 78.0564 1.02963 79.6691 1.02963H79.6957L79.7222 1.02822C85.2395 0.734775 89.0551 2.77828 92.3894 4.88237C92.7578 5.11482 93.125 5.35128 93.4909 5.5869C94.7556 6.40135 96.0049 7.20586 97.2339 7.80066C98.8523 8.58387 100.561 9.07198 102.457 8.80108C105.754 8.33018 107.849 7.81559 109.139 7.40729Z" fill="#000816" stroke="white" stroke-width="2"/>
<path d="M103.742 26.4046V42.6481C103.742 50.9648 99.0883 56.3444 97.9702 57.4577C95.0038 60.4112 89.431 62.0253 83.7124 62.0271C80.9243 62.028 78.1085 61.4428 75.6973 60.5634C73.2692 59.6778 71.3374 58.5257 70.2638 57.4574C67.9323 55.1375 64.0879 50.5614 64.0879 42.6481V27.4312C64.6083 27.531 65.2412 27.5595 65.9815 27.4365C68.0495 27.093 70.8183 25.5961 74.3064 21.504C86.3257 26.3406 93.9567 27.4528 98.658 27.2983C101.035 27.2202 102.67 26.8179 103.742 26.4046Z" fill="#000816" stroke="white" stroke-width="2"/>
<mask id="path-5-inside-1_945_406" fill="white">
<path d="M97.9337 104.472C97.7462 104.472 97.5663 104.398 97.4337 104.266C97.3011 104.133 97.2266 103.954 97.2266 103.767V77.986C97.2266 77.7991 97.3011 77.6199 97.4337 77.4877C97.5663 77.3555 97.7462 77.2812 97.9337 77.2812C98.1213 77.2812 98.3011 77.3555 98.4338 77.4877C98.5664 77.6199 98.6409 77.7991 98.6409 77.986V103.767C98.6409 103.954 98.5664 104.133 98.4338 104.266C98.3011 104.398 98.1213 104.472 97.9337 104.472Z"/>
</mask>
<path d="M97.9337 104.472C97.7462 104.472 97.5663 104.398 97.4337 104.266C97.3011 104.133 97.2266 103.954 97.2266 103.767V77.986C97.2266 77.7991 97.3011 77.6199 97.4337 77.4877C97.5663 77.3555 97.7462 77.2812 97.9337 77.2812C98.1213 77.2812 98.3011 77.3555 98.4338 77.4877C98.5664 77.6199 98.6409 77.7991 98.6409 77.986V103.767C98.6409 103.954 98.5664 104.133 98.4338 104.266C98.3011 104.398 98.1213 104.472 97.9337 104.472Z" fill="#000816"/>
<path d="M97.9337 102.472C98.2744 102.472 98.6026 102.607 98.8455 102.849L96.0218 105.682C96.53 106.189 97.2179 106.472 97.9337 106.472V102.472ZM98.8455 102.849C99.0887 103.091 99.2266 103.422 99.2266 103.767H95.2266C95.2266 104.487 95.5134 105.175 96.0218 105.682L98.8455 102.849ZM99.2266 103.767V77.986H95.2266V103.767H99.2266ZM99.2266 77.986C99.2266 78.3317 99.0887 78.6619 98.8455 78.9043L96.0218 76.0711C95.5134 76.5778 95.2266 77.2665 95.2266 77.986H99.2266ZM98.8455 78.9043C98.6026 79.1464 98.2744 79.2812 97.9337 79.2812V75.2812C97.2179 75.2812 96.53 75.5646 96.0218 76.0711L98.8455 78.9043ZM97.9337 79.2812C97.593 79.2812 97.2649 79.1464 97.0219 78.9043L99.8456 76.0711C99.3374 75.5646 98.6495 75.2812 97.9337 75.2812V79.2812ZM97.0219 78.9043C96.7787 78.6619 96.6409 78.3317 96.6409 77.986H100.641C100.641 77.2665 100.354 76.5778 99.8456 76.0711L97.0219 78.9043ZM96.6409 77.986V103.767H100.641V77.986H96.6409ZM96.6409 103.767C96.6409 103.422 96.7787 103.091 97.0219 102.849L99.8456 105.682C100.354 105.175 100.641 104.487 100.641 103.767H96.6409ZM97.0219 102.849C97.2649 102.607 97.593 102.472 97.9337 102.472V106.472C98.6495 106.472 99.3374 106.189 99.8456 105.682L97.0219 102.849Z" fill="white" mask="url(#path-5-inside-1_945_406)"/>
<mask id="path-7-inside-2_945_406" fill="white">
<path d="M69.6486 104.472C69.461 104.472 69.2811 104.398 69.1485 104.266C69.0159 104.133 68.9414 103.954 68.9414 103.767V77.986C68.9414 77.7991 69.0159 77.6199 69.1485 77.4877C69.2811 77.3555 69.461 77.2812 69.6486 77.2812C69.8361 77.2812 70.016 77.3555 70.1486 77.4877C70.2812 77.6199 70.3557 77.7991 70.3557 77.986V103.767C70.3557 103.954 70.2812 104.133 70.1486 104.266C70.016 104.398 69.8361 104.472 69.6486 104.472Z"/>
</mask>
<path d="M69.6486 104.472C69.461 104.472 69.2811 104.398 69.1485 104.266C69.0159 104.133 68.9414 103.954 68.9414 103.767V77.986C68.9414 77.7991 69.0159 77.6199 69.1485 77.4877C69.2811 77.3555 69.461 77.2812 69.6486 77.2812C69.8361 77.2812 70.016 77.3555 70.1486 77.4877C70.2812 77.6199 70.3557 77.7991 70.3557 77.986V103.767C70.3557 103.954 70.2812 104.133 70.1486 104.266C70.016 104.398 69.8361 104.472 69.6486 104.472Z" fill="#000816"/>
<path d="M69.6486 102.472C69.9893 102.472 70.3174 102.607 70.5604 102.849L67.7367 105.682C68.2449 106.189 68.9327 106.472 69.6486 106.472V102.472ZM70.5604 102.849C70.8036 103.091 70.9414 103.422 70.9414 103.767H66.9414C66.9414 104.487 67.2283 105.175 67.7367 105.682L70.5604 102.849ZM70.9414 103.767V77.986H66.9414V103.767H70.9414ZM70.9414 77.986C70.9414 78.3317 70.8036 78.6619 70.5604 78.9043L67.7367 76.0711C67.2283 76.5778 66.9414 77.2665 66.9414 77.986H70.9414ZM70.5604 78.9043C70.3174 79.1464 69.9893 79.2812 69.6486 79.2812V75.2812C68.9327 75.2812 68.2449 75.5646 67.7367 76.0711L70.5604 78.9043ZM69.6486 79.2812C69.3078 79.2812 68.9797 79.1464 68.7368 78.9043L71.5604 76.0711C71.0522 75.5646 70.3644 75.2812 69.6486 75.2812V79.2812ZM68.7368 78.9043C68.4936 78.6619 68.3557 78.3317 68.3557 77.986H72.3557C72.3557 77.2665 72.0689 76.5778 71.5604 76.0711L68.7368 78.9043ZM68.3557 77.986V103.767H72.3557V77.986H68.3557ZM68.3557 103.767C68.3557 103.422 68.4936 103.091 68.7368 102.849L71.5604 105.682C72.0689 105.175 72.3557 104.487 72.3557 103.767H68.3557ZM68.7368 102.849C68.9797 102.607 69.3078 102.472 69.6486 102.472V106.472C70.3644 106.472 71.0522 106.189 71.5604 105.682L68.7368 102.849Z" fill="white" mask="url(#path-7-inside-2_945_406)"/>
<path d="M106.042 87.1482V109.308H61.4541V87.1482V87.1482C61.4541 86.5227 61.7027 85.922 62.1465 85.4778C62.59 85.0339 63.1925 84.7824 63.8224 84.7793H103.661C104.294 84.7793 104.899 85.0297 105.346 85.4743C105.792 85.9188 106.042 86.521 106.042 87.1482Z" fill="#000816" stroke="white" stroke-width="2"/>
<mask id="path-10-inside-3_945_406" fill="white">
<path d="M105.897 114.423H61.5864C60.4954 114.421 59.4496 113.989 58.6782 113.22C57.9068 112.451 57.4726 111.409 57.4707 110.321C57.4707 110.135 57.5452 109.955 57.6778 109.823C57.8104 109.691 57.9903 109.617 58.1779 109.617H109.305C109.493 109.617 109.673 109.691 109.805 109.823C109.938 109.955 110.012 110.135 110.012 110.321C110.01 111.409 109.576 112.451 108.805 113.22C108.033 113.989 106.988 114.421 105.897 114.423ZM58.9769 111.012C59.1334 111.583 59.4735 112.086 59.9449 112.445C60.4163 112.804 60.993 112.999 61.5864 113H105.897C106.496 113.007 107.081 112.816 107.559 112.456C108.038 112.096 108.383 111.588 108.541 111.012H58.9769Z"/>
</mask>
<path d="M105.897 114.423H61.5864C60.4954 114.421 59.4496 113.989 58.6782 113.22C57.9068 112.451 57.4726 111.409 57.4707 110.321C57.4707 110.135 57.5452 109.955 57.6778 109.823C57.8104 109.691 57.9903 109.617 58.1779 109.617H109.305C109.493 109.617 109.673 109.691 109.805 109.823C109.938 109.955 110.012 110.135 110.012 110.321C110.01 111.409 109.576 112.451 108.805 113.22C108.033 113.989 106.988 114.421 105.897 114.423ZM58.9769 111.012C59.1334 111.583 59.4735 112.086 59.9449 112.445C60.4163 112.804 60.993 112.999 61.5864 113H105.897C106.496 113.007 107.081 112.816 107.559 112.456C108.038 112.096 108.383 111.588 108.541 111.012H58.9769Z" fill="white"/>
<path d="M105.897 114.423V116.423L105.9 116.423L105.897 114.423ZM61.5864 114.423L61.5829 116.423H61.5864V114.423ZM57.4707 110.321H55.4707L55.4707 110.325L57.4707 110.321ZM110.012 110.321L112.012 110.325V110.321H110.012ZM58.9769 111.012V109.012H56.3545L57.0482 111.541L58.9769 111.012ZM61.5864 113L61.584 115H61.5864V113ZM105.897 113L105.92 111L105.909 111H105.897V113ZM108.541 111.012L110.47 111.541L111.164 109.012H108.541V111.012ZM105.897 112.423H61.5864V116.423H105.897V112.423ZM61.5898 112.423C61.0259 112.422 60.4867 112.199 60.0901 111.803L57.2664 114.636C58.4126 115.779 59.9649 116.421 61.5829 116.423L61.5898 112.423ZM60.0901 111.803C59.6936 111.408 59.4717 110.874 59.4707 110.318L55.4707 110.325C55.4735 111.944 56.12 113.494 57.2664 114.636L60.0901 111.803ZM59.4707 110.321C59.4707 110.667 59.3329 110.997 59.0897 111.24L56.266 108.407C55.7576 108.913 55.4707 109.602 55.4707 110.321H59.4707ZM59.0897 111.24C58.8467 111.482 58.5186 111.617 58.1779 111.617V107.617C57.462 107.617 56.7742 107.9 56.266 108.407L59.0897 111.24ZM58.1779 111.617H109.305V107.617H58.1779V111.617ZM109.305 111.617C108.965 111.617 108.636 111.482 108.393 111.24L111.217 108.407C110.709 107.9 110.021 107.617 109.305 107.617V111.617ZM108.393 111.24C108.15 110.997 108.012 110.667 108.012 110.321H112.012C112.012 109.602 111.726 108.913 111.217 108.407L108.393 111.24ZM108.012 110.318C108.011 110.874 107.789 111.408 107.393 111.803L110.217 114.636C111.363 113.494 112.01 111.944 112.012 110.325L108.012 110.318ZM107.393 111.803C106.996 112.199 106.457 112.422 105.893 112.423L105.9 116.423C107.518 116.421 109.071 115.779 110.217 114.636L107.393 111.803ZM57.0482 111.541C57.3209 112.536 57.9134 113.412 58.7331 114.036L61.1568 110.854C61.0336 110.76 60.9459 110.63 60.9057 110.483L57.0482 111.541ZM58.7331 114.036C59.5526 114.66 60.5543 114.998 61.584 115L61.5887 111C61.4318 111 61.28 110.948 61.1568 110.854L58.7331 114.036ZM61.5864 115H105.897V111H61.5864V115ZM105.873 115C106.913 115.012 107.929 114.68 108.761 114.055L106.358 110.857C106.233 110.951 106.079 111.002 105.92 111L105.873 115ZM108.761 114.055C109.593 113.429 110.195 112.546 110.47 111.541L106.613 110.483C106.572 110.631 106.483 110.763 106.358 110.857L108.761 114.055ZM108.541 109.012H58.9769V113.012H108.541V109.012Z" fill="white" mask="url(#path-10-inside-3_945_406)"/>
<mask id="path-12-inside-4_945_406" fill="white">
<path d="M83.2179 84.4839C83.0303 84.4839 82.8505 84.4097 82.7179 84.2775C82.5852 84.1453 82.5107 83.9661 82.5107 83.7792V71.093C82.5107 70.9061 82.5852 70.7268 82.7179 70.5946C82.8505 70.4624 83.0303 70.3882 83.2179 70.3882C83.4054 70.3882 83.5853 70.4624 83.7179 70.5946C83.8506 70.7268 83.9251 70.9061 83.9251 71.093V83.7792C83.9251 83.9661 83.8506 84.1453 83.7179 84.2775C83.5853 84.4097 83.4054 84.4839 83.2179 84.4839Z"/>
</mask>
<path d="M83.2179 84.4839C83.0303 84.4839 82.8505 84.4097 82.7179 84.2775C82.5852 84.1453 82.5107 83.9661 82.5107 83.7792V71.093C82.5107 70.9061 82.5852 70.7268 82.7179 70.5946C82.8505 70.4624 83.0303 70.3882 83.2179 70.3882C83.4054 70.3882 83.5853 70.4624 83.7179 70.5946C83.8506 70.7268 83.9251 70.9061 83.9251 71.093V83.7792C83.9251 83.9661 83.8506 84.1453 83.7179 84.2775C83.5853 84.4097 83.4054 84.4839 83.2179 84.4839Z" fill="#000816"/>
<path d="M83.2179 82.4839C83.5586 82.4839 83.8867 82.6188 84.1297 82.8609L81.306 85.6941C81.8142 86.2006 82.5021 86.4839 83.2179 86.4839V82.4839ZM84.1297 82.8609C84.3729 83.1033 84.5107 83.4335 84.5107 83.7792H80.5107C80.5107 84.4987 80.7976 85.1874 81.306 85.6941L84.1297 82.8609ZM84.5107 83.7792V71.093H80.5107V83.7792H84.5107ZM84.5107 71.093C84.5107 71.4386 84.3729 71.7688 84.1297 72.0112L81.306 69.178C80.7976 69.6848 80.5107 70.3735 80.5107 71.093H84.5107ZM84.1297 72.0112C83.8867 72.2534 83.5586 72.3882 83.2179 72.3882V68.3882C82.5021 68.3882 81.8142 68.6715 81.306 69.178L84.1297 72.0112ZM83.2179 72.3882C82.8772 72.3882 82.5491 72.2534 82.3061 72.0112L85.1298 69.178C84.6216 68.6715 83.9337 68.3882 83.2179 68.3882V72.3882ZM82.3061 72.0112C82.0629 71.7688 81.9251 71.4386 81.9251 71.093H85.9251C85.9251 70.3735 85.6382 69.6848 85.1298 69.178L82.3061 72.0112ZM81.9251 71.093V83.7792H85.9251V71.093H81.9251ZM81.9251 83.7792C81.9251 83.4335 82.0629 83.1033 82.3061 82.8609L85.1298 85.6941C85.6382 85.1874 85.9251 84.4987 85.9251 83.7792H81.9251ZM82.3061 82.8609C82.5491 82.6188 82.8772 82.4839 83.2179 82.4839V86.4839C83.9337 86.4839 84.6216 86.2006 85.1298 85.6941L82.3061 82.8609Z" fill="white" mask="url(#path-12-inside-4_945_406)"/>
<path d="M17.1582 94.3296H34.9586V107.242C34.9586 108.694 34.38 110.086 33.3492 111.114C32.3182 112.141 30.9192 112.719 29.4598 112.719H22.657C21.1975 112.719 19.7985 112.141 18.7676 111.114C17.7367 110.086 17.1582 108.694 17.1582 107.242V94.3296Z" fill="#000816" stroke="white" stroke-width="2"/>
<path d="M4.15807 114.719H122.409C124.157 114.719 125.567 116.129 125.567 117.859C125.567 119.59 124.157 121 122.409 121H4.15807C2.40995 121 1 119.59 1 117.859C1 116.129 2.40995 114.719 4.15807 114.719Z" fill="#000816" stroke="white" stroke-width="2"/>
<mask id="path-16-inside-5_945_406" fill="white">
<path d="M37.1196 107.488H35.9669C35.7794 107.488 35.5995 107.414 35.4669 107.282C35.3343 107.15 35.2598 106.97 35.2598 106.783V95.5985C35.2598 95.4116 35.3343 95.2323 35.4669 95.1001C35.5995 94.968 35.7794 94.8937 35.9669 94.8937H37.1196C38.0133 94.7861 38.9198 94.8686 39.7791 95.1359C40.6385 95.4032 41.4312 95.8492 42.1049 96.4443C42.7785 97.0395 43.3178 97.7703 43.6872 98.5885C44.0565 99.4068 44.2475 100.294 44.2475 101.191C44.2475 102.088 44.0565 102.975 43.6872 103.793C43.3178 104.612 42.7785 105.342 42.1049 105.938C41.4312 106.533 40.6385 106.979 39.7791 107.246C38.9198 107.513 38.0133 107.596 37.1196 107.488ZM36.6741 106.079H37.1196C37.8124 106.157 38.5142 106.089 39.1788 105.879C39.8434 105.668 40.4559 105.32 40.9761 104.858C41.4964 104.395 41.9127 103.828 42.1977 103.193C42.4827 102.559 42.6301 101.872 42.6301 101.177C42.6301 100.482 42.4827 99.7947 42.1977 99.1604C41.9127 98.5261 41.4964 97.959 40.9761 97.4962C40.4559 97.0334 39.8434 96.6854 39.1788 96.475C38.5142 96.2645 37.8124 96.1964 37.1196 96.2751H36.6741V106.079Z"/>
</mask>
<path d="M37.1196 107.488H35.9669C35.7794 107.488 35.5995 107.414 35.4669 107.282C35.3343 107.15 35.2598 106.97 35.2598 106.783V95.5985C35.2598 95.4116 35.3343 95.2323 35.4669 95.1001C35.5995 94.968 35.7794 94.8937 35.9669 94.8937H37.1196C38.0133 94.7861 38.9198 94.8686 39.7791 95.1359C40.6385 95.4032 41.4312 95.8492 42.1049 96.4443C42.7785 97.0395 43.3178 97.7703 43.6872 98.5885C44.0565 99.4068 44.2475 100.294 44.2475 101.191C44.2475 102.088 44.0565 102.975 43.6872 103.793C43.3178 104.612 42.7785 105.342 42.1049 105.938C41.4312 106.533 40.6385 106.979 39.7791 107.246C38.9198 107.513 38.0133 107.596 37.1196 107.488ZM36.6741 106.079H37.1196C37.8124 106.157 38.5142 106.089 39.1788 105.879C39.8434 105.668 40.4559 105.32 40.9761 104.858C41.4964 104.395 41.9127 103.828 42.1977 103.193C42.4827 102.559 42.6301 101.872 42.6301 101.177C42.6301 100.482 42.4827 99.7947 42.1977 99.1604C41.9127 98.5261 41.4964 97.959 40.9761 97.4962C40.4559 97.0334 39.8434 96.6854 39.1788 96.475C38.5142 96.2645 37.8124 96.1964 37.1196 96.2751H36.6741V106.079Z" fill="#000816"/>
<path d="M37.1196 94.8937V96.8937H37.2396L37.3587 96.8794L37.1196 94.8937ZM36.6741 106.079H34.6741V108.079H36.6741V106.079ZM37.1196 106.079L37.3453 104.091L37.2328 104.079H37.1196V106.079ZM37.1196 96.2751V98.2751H37.2328L37.3453 98.2623L37.1196 96.2751ZM36.6741 96.2751V94.2751H34.6741V96.2751H36.6741ZM37.1196 105.488H35.9669V109.488H37.1196V105.488ZM35.9669 105.488C36.3076 105.488 36.6358 105.623 36.8787 105.865L34.055 108.698C34.5633 109.205 35.2511 109.488 35.9669 109.488V105.488ZM36.8787 105.865C37.1219 106.108 37.2598 106.438 37.2598 106.783H33.2598C33.2598 107.503 33.5466 108.192 34.055 108.698L36.8787 105.865ZM37.2598 106.783V95.5985H33.2598V106.783H37.2598ZM37.2598 95.5985C37.2598 95.9442 37.1219 96.2743 36.8787 96.5167L34.055 93.6836C33.5466 94.1903 33.2598 94.879 33.2598 95.5985H37.2598ZM36.8787 96.5167C36.6358 96.7589 36.3076 96.8937 35.9669 96.8937V92.8937C35.2511 92.8937 34.5633 93.1771 34.055 93.6836L36.8787 96.5167ZM35.9669 96.8937H37.1196V92.8937H35.9669V96.8937ZM37.3587 96.8794C37.9726 96.8054 38.5951 96.8622 39.1851 97.0457L40.3732 93.2262C39.2445 92.8751 38.0541 92.7667 36.8804 92.9081L37.3587 96.8794ZM39.1851 97.0457C39.7752 97.2292 40.3189 97.5352 40.7807 97.9432L43.429 94.9455C42.5435 94.1631 41.5019 93.5772 40.3732 93.2262L39.1851 97.0457ZM40.7807 97.9432C41.2424 98.3511 41.6116 98.8516 41.8643 99.4114L45.5101 97.7657C45.0241 96.689 44.3146 95.7279 43.429 94.9455L40.7807 97.9432ZM41.8643 99.4114C42.117 99.9712 42.2475 100.578 42.2475 101.191H46.2475C46.2475 100.01 45.9961 98.8424 45.5101 97.7657L41.8643 99.4114ZM42.2475 101.191C42.2475 101.804 42.117 102.411 41.8643 102.971L45.5101 104.616C45.9961 103.54 46.2475 102.372 46.2475 101.191H42.2475ZM41.8643 102.971C41.6116 103.53 41.2424 104.031 40.7807 104.439L43.429 107.436C44.3146 106.654 45.0241 105.693 45.5101 104.616L41.8643 102.971ZM40.7807 104.439C40.3189 104.847 39.7751 105.153 39.1851 105.336L40.3732 109.156C41.5019 108.805 42.5435 108.219 43.429 107.436L40.7807 104.439ZM39.1851 105.336C38.5951 105.52 37.9726 105.577 37.3587 105.503L36.8804 109.474C38.0541 109.615 39.2445 109.507 40.3732 109.156L39.1851 105.336ZM36.6741 108.079H37.1196V104.079H36.6741V108.079ZM36.8939 108.066C37.8658 108.176 38.8501 108.081 39.7825 107.786L38.5751 103.972C38.1783 104.098 37.7591 104.138 37.3453 104.091L36.8939 108.066ZM39.7825 107.786C40.7149 107.49 41.5747 107.002 42.3054 106.352L39.6469 103.363C39.337 103.639 38.9718 103.846 38.5751 103.972L39.7825 107.786ZM42.3054 106.352C43.0361 105.702 43.6212 104.905 44.022 104.013L40.3734 102.374C40.2041 102.75 39.9567 103.088 39.6469 103.363L42.3054 106.352ZM44.022 104.013C44.4228 103.121 44.6301 102.155 44.6301 101.177H40.6301C40.6301 101.589 40.5427 101.997 40.3734 102.374L44.022 104.013ZM44.6301 101.177C44.6301 100.199 44.4228 99.2326 44.022 98.3407L40.3734 99.9802C40.5427 100.357 40.6301 100.765 40.6301 101.177H44.6301ZM44.022 98.3407C43.6212 97.4488 43.0361 96.6519 42.3054 96.0019L39.6469 98.9905C39.9567 99.2661 40.2041 99.6034 40.3734 99.9802L44.022 98.3407ZM42.3054 96.0019C41.5747 95.3519 40.7149 94.8635 39.7825 94.5683L38.5751 98.3817C38.9718 98.5073 39.337 98.7149 39.6469 98.9905L42.3054 96.0019ZM39.7825 94.5683C38.8501 94.273 37.8658 94.1775 36.8939 94.2879L37.3453 98.2623C37.7591 98.2153 38.1783 98.256 38.5751 98.3817L39.7825 94.5683ZM37.1196 94.2751H36.6741V98.2751H37.1196V94.2751ZM34.6741 96.2751V106.079H38.6741V96.2751H34.6741Z" fill="white" mask="url(#path-16-inside-5_945_406)"/>
<path d="M3.68488 32.3572H45.6051C46.0323 32.3572 46.373 32.7015 46.373 33.1191V67.7031C46.373 68.1208 46.0323 68.4651 45.6051 68.4651H3.68488C3.25762 68.4651 2.91699 68.1208 2.91699 67.7031V33.1191C2.91699 32.7015 3.25762 32.3572 3.68488 32.3572Z" stroke="white" stroke-width="2"/>
<path d="M46.373 33.1336V35.1853H2.91699V33.1336V33.1335C2.91699 32.9331 2.99666 32.7401 3.13963 32.597C3.28234 32.4542 3.47658 32.3728 3.68021 32.3716H45.6051C45.8098 32.3716 46.0055 32.4527 46.1492 32.5959C46.2929 32.7391 46.373 32.9326 46.373 33.1336Z" fill="#000816" stroke="white" stroke-width="2"/>
<path d="M9.35156 51.5792L17.7963 47.7272V48.8053L11.8411 51.513L11.2551 51.7795V52.4233V52.4727V53.1165L11.8411 53.383L17.7963 56.0907V57.1506L9.35156 53.3156V51.5792Z" fill="#000816" stroke="white" stroke-width="2"/>
<path d="M21.6354 59.5223L27.1812 42.7571L27.6444 42.9226L22.0869 59.6846L21.6354 59.5223Z" fill="#000816" stroke="white" stroke-width="2"/>
<path d="M39.9308 53.2947L31.4932 57.129V56.0907L37.4483 53.383L38.0344 53.1165V52.4727V52.4233V51.7795L37.4483 51.513L31.4932 48.8053V47.7247L39.9308 51.5591V53.2947Z" fill="#000816" stroke="white" stroke-width="2"/>
</svg>
