<svg width="199" height="193" viewBox="0 0 199 193" fill="none" xmlns="http://www.w3.org/2000/svg">
<g filter="url(#filter0_d_634_724)">
<path d="M118.173 103.786H118.174H134.546C140.5 103.796 146.294 105.707 151.078 109.238C155.863 112.77 159.385 117.736 161.13 123.407L169.975 152.157L169.975 152.158C170.247 153.035 170.308 153.963 170.154 154.867C169.999 155.772 169.634 156.628 169.088 157.367C168.541 158.106 167.827 158.707 167.005 159.121C166.182 159.536 165.273 159.752 164.351 159.752H88.3134C87.3912 159.752 86.4821 159.536 85.6593 159.121L85.2204 159.992L85.6593 159.121C84.8366 158.707 84.1232 158.106 83.5764 157.367C83.0296 156.628 82.6646 155.772 82.5105 154.867C82.3564 153.963 82.4174 153.035 82.6887 152.158L82.6892 152.157L91.5337 123.407C91.5337 123.407 91.5337 123.407 91.5337 123.407C93.2815 117.727 96.8123 112.754 101.608 109.222C106.403 105.69 112.21 103.784 118.173 103.786Z" fill="#000816" stroke="white" stroke-width="2"/>
<path d="M119.202 104.8V98.7036H132.79V104.893C131.788 105.947 130.026 107.142 127.771 107.509C125.455 107.886 122.512 107.408 119.202 104.8Z" fill="#000816" stroke="white" stroke-width="2"/>
<path d="M159.96 24.5315C160.477 24.3677 160.895 24.2171 161.229 24.0851C161.36 24.9939 161.179 26.101 160.839 27.1961C160.619 27.9079 160.354 28.5438 160.144 29.0032C160.039 29.2319 159.949 29.4144 159.885 29.538C159.874 29.5599 159.864 29.58 159.854 29.5981L159.828 29.6243C159.741 29.7109 159.615 29.837 159.457 29.9957C159.142 30.313 158.7 30.761 158.196 31.2849C157.19 32.3291 155.918 33.6882 154.89 34.9174L153.913 36.0858L155.371 36.5171L155.371 36.5171L155.372 36.5174L155.373 36.5177L155.374 36.5179L155.378 36.5194C155.386 36.522 155.401 36.5268 155.423 36.5339C155.465 36.5482 155.533 36.5717 155.622 36.6056C155.8 36.6734 156.064 36.7822 156.387 36.9407C157.034 37.2583 157.911 37.7712 158.812 38.5454C160.599 40.0807 162.509 42.6644 162.895 46.8997C163.295 51.28 162.514 57.056 161.607 61.8046C161.156 64.1647 160.679 66.2451 160.315 67.7352C160.133 68.48 159.979 69.0765 159.872 69.4859C159.865 69.5115 159.858 69.5364 159.852 69.5605L155.61 70.6641C154.239 70.4536 152.754 70.5078 151.351 70.6156C150.791 70.6585 150.253 70.7089 149.734 70.7575C148.941 70.8317 148.19 70.9019 147.471 70.9358L128.414 58.8219L128.156 58.6577L127.85 58.6662C125.175 58.741 122.398 59.8898 119.658 61.3866C117.711 62.4507 115.698 63.7408 113.695 65.0239C112.881 65.5457 112.069 66.0663 111.263 66.5701C108.439 68.337 105.665 69.9208 102.975 70.8284C100.298 71.7317 97.7899 71.9356 95.4424 71.0517C93.3397 70.2584 92.238 69.1466 91.5475 67.7627C90.8196 66.3039 90.5186 64.4963 90.1652 62.1928L90.1649 62.1912C90.0829 61.6623 89.9992 61.1294 89.915 60.5935C89.2788 56.5458 88.6156 52.326 88.4756 48.3804L87.4763 48.4158L88.4756 48.3804C88.3754 45.5561 88.4549 42.5651 91.1768 35.939C92.3849 32.9983 93.8101 31.3551 95.599 30.4592C97.4255 29.5444 99.7932 29.324 103.071 29.5912L104.176 29.6813L104.152 28.5727C104.065 24.5861 106.896 21.469 110.638 19.2796C114.367 17.0977 118.678 16.0394 120.89 16.0394H120.917L120.943 16.038C128.38 15.6425 133.523 18.4028 137.973 21.211C138.469 21.5242 138.962 21.8414 139.451 22.1563C141.129 23.2367 142.766 24.2909 144.38 25.0719C146.497 26.0968 148.7 26.7195 151.132 26.372C155.501 25.748 158.267 25.0675 159.96 24.5315Z" fill="#000816" stroke="white" stroke-width="2"/>
<path d="M153.216 49.6046V71.685C153.216 82.862 146.965 90.0913 145.448 91.6021C141.417 95.616 133.906 97.769 126.265 97.7715C122.516 97.7727 118.735 96.9862 115.499 95.806C112.247 94.6197 109.631 93.0675 108.158 91.6019C105.028 88.4872 99.8523 82.3259 99.8523 71.685V51.0469C100.569 51.238 101.503 51.3315 102.644 51.142C105.315 50.6984 108.982 48.7339 113.666 43.1874C129.743 49.681 139.903 51.1583 146.119 50.954C149.275 50.8503 151.421 50.3128 152.807 49.7731C152.952 49.7168 153.088 49.6604 153.216 49.6046Z" fill="#000816" stroke="white" stroke-width="2"/>
<mask id="path-5-inside-1_634_724" fill="white">
<path d="M145.168 153.857C144.919 153.857 144.68 153.759 144.503 153.583C144.327 153.407 144.228 153.169 144.228 152.921V118.654C144.228 118.406 144.327 118.167 144.503 117.992C144.68 117.816 144.919 117.717 145.168 117.717C145.417 117.717 145.656 117.816 145.833 117.992C146.009 118.167 146.108 118.406 146.108 118.654V152.921C146.108 153.169 146.009 153.407 145.833 153.583C145.656 153.759 145.417 153.857 145.168 153.857Z"/>
</mask>
<path d="M145.168 153.857C144.919 153.857 144.68 153.759 144.503 153.583C144.327 153.407 144.228 153.169 144.228 152.921V118.654C144.228 118.406 144.327 118.167 144.503 117.992C144.68 117.816 144.919 117.717 145.168 117.717C145.417 117.717 145.656 117.816 145.833 117.992C146.009 118.167 146.108 118.406 146.108 118.654V152.921C146.108 153.169 146.009 153.407 145.833 153.583C145.656 153.759 145.417 153.857 145.168 153.857Z" fill="#000816"/>
<path d="M145.168 151.857C145.447 151.857 145.716 151.968 145.915 152.167L143.091 155C143.643 155.55 144.39 155.857 145.168 155.857V151.857ZM145.915 152.167C146.115 152.365 146.228 152.637 146.228 152.921H142.228C142.228 153.702 142.539 154.449 143.091 155L145.915 152.167ZM146.228 152.921V118.654H142.228V152.921H146.228ZM146.228 118.654C146.228 118.938 146.115 119.209 145.915 119.408L143.091 116.575C142.539 117.125 142.228 117.873 142.228 118.654H146.228ZM145.915 119.408C145.716 119.607 145.447 119.717 145.168 119.717V115.717C144.39 115.717 143.643 116.025 143.091 116.575L145.915 119.408ZM145.168 119.717C144.889 119.717 144.62 119.607 144.421 119.408L147.244 116.575C146.693 116.025 145.945 115.717 145.168 115.717V119.717ZM144.421 119.408C144.221 119.209 144.108 118.938 144.108 118.654H148.108C148.108 117.873 147.796 117.125 147.244 116.575L144.421 119.408ZM144.108 118.654V152.921H148.108V118.654H144.108ZM144.108 152.921C144.108 152.637 144.221 152.365 144.421 152.167L147.244 155C147.796 154.449 148.108 153.702 148.108 152.921H144.108ZM144.421 152.167C144.62 151.968 144.889 151.857 145.168 151.857V155.857C145.945 155.857 146.693 155.55 147.244 155L144.421 152.167Z" fill="white" mask="url(#path-5-inside-1_634_724)"/>
<mask id="path-7-inside-2_634_724" fill="white">
<path d="M107.571 153.857C107.322 153.857 107.083 153.759 106.907 153.583C106.731 153.407 106.632 153.169 106.632 152.921V118.654C106.632 118.406 106.731 118.167 106.907 117.992C107.083 117.816 107.322 117.717 107.571 117.717C107.821 117.717 108.06 117.816 108.236 117.992C108.412 118.167 108.511 118.406 108.511 118.654V152.921C108.511 153.169 108.412 153.407 108.236 153.583C108.06 153.759 107.821 153.857 107.571 153.857Z"/>
</mask>
<path d="M107.571 153.857C107.322 153.857 107.083 153.759 106.907 153.583C106.731 153.407 106.632 153.169 106.632 152.921V118.654C106.632 118.406 106.731 118.167 106.907 117.992C107.083 117.816 107.322 117.717 107.571 117.717C107.821 117.717 108.06 117.816 108.236 117.992C108.412 118.167 108.511 118.406 108.511 118.654V152.921C108.511 153.169 108.412 153.407 108.236 153.583C108.06 153.759 107.821 153.857 107.571 153.857Z" fill="#000816"/>
<path d="M107.571 151.857C107.85 151.857 108.119 151.968 108.319 152.167L105.495 155C106.047 155.55 106.794 155.857 107.571 155.857V151.857ZM108.319 152.167C108.518 152.365 108.632 152.637 108.632 152.921H104.632C104.632 153.702 104.943 154.449 105.495 155L108.319 152.167ZM108.632 152.921V118.654H104.632V152.921H108.632ZM108.632 118.654C108.632 118.938 108.518 119.209 108.319 119.408L105.495 116.575C104.943 117.125 104.632 117.873 104.632 118.654H108.632ZM108.319 119.408C108.119 119.607 107.85 119.717 107.571 119.717V115.717C106.794 115.717 106.047 116.025 105.495 116.575L108.319 119.408ZM107.571 119.717C107.293 119.717 107.024 119.607 106.824 119.408L109.648 116.575C109.096 116.025 108.349 115.717 107.571 115.717V119.717ZM106.824 119.408C106.625 119.209 106.511 118.938 106.511 118.654H110.511C110.511 117.873 110.2 117.125 109.648 116.575L106.824 119.408ZM106.511 118.654V152.921H110.511V118.654H106.511ZM106.511 152.921C106.511 152.637 106.625 152.365 106.824 152.167L109.648 155C110.2 154.449 110.511 153.702 110.511 152.921H106.511ZM106.824 152.167C107.024 151.968 107.293 151.857 107.571 151.857V155.857C108.349 155.857 109.096 155.55 109.648 155L106.824 152.167Z" fill="white" mask="url(#path-7-inside-2_634_724)"/>
<path d="M156.274 130.832V160.614H96.3528V130.832V130.832C96.3528 129.913 96.7179 129.031 97.3694 128.379C98.0206 127.728 98.9048 127.359 99.829 127.354H152.781C153.709 127.354 154.597 127.722 155.252 128.374C155.907 129.027 156.274 129.911 156.274 130.832Z" fill="#000816" stroke="white" stroke-width="2"/>
<mask id="path-10-inside-3_634_724" fill="white">
<path d="M155.751 167.084H96.8565C95.4065 167.082 94.0165 166.507 92.9912 165.485C91.9658 164.463 91.3887 163.078 91.3862 161.633C91.3862 161.384 91.4853 161.146 91.6615 160.97C91.8378 160.794 92.0769 160.696 92.3261 160.696H160.281C160.531 160.696 160.77 160.794 160.946 160.97C161.122 161.146 161.221 161.384 161.221 161.633C161.219 163.078 160.642 164.463 159.616 165.485C158.591 166.507 157.201 167.082 155.751 167.084ZM93.3882 162.551C93.5962 163.309 94.0482 163.978 94.6748 164.455C95.3014 164.932 96.0679 165.191 96.8565 165.192H155.751C156.548 165.202 157.325 164.947 157.961 164.469C158.597 163.991 159.056 163.317 159.266 162.551H93.3882Z"/>
</mask>
<path d="M155.751 167.084H96.8565C95.4065 167.082 94.0165 166.507 92.9912 165.485C91.9658 164.463 91.3887 163.078 91.3862 161.633C91.3862 161.384 91.4853 161.146 91.6615 160.97C91.8378 160.794 92.0769 160.696 92.3261 160.696H160.281C160.531 160.696 160.77 160.794 160.946 160.97C161.122 161.146 161.221 161.384 161.221 161.633C161.219 163.078 160.642 164.463 159.616 165.485C158.591 166.507 157.201 167.082 155.751 167.084ZM93.3882 162.551C93.5962 163.309 94.0482 163.978 94.6748 164.455C95.3014 164.932 96.0679 165.191 96.8565 165.192H155.751C156.548 165.202 157.325 164.947 157.961 164.469C158.597 163.991 159.056 163.317 159.266 162.551H93.3882Z" fill="white"/>
<path d="M155.751 167.084V169.084L155.755 169.084L155.751 167.084ZM96.8565 167.084L96.8531 169.084H96.8565V167.084ZM91.3862 161.633H89.3862L89.3862 161.636L91.3862 161.633ZM161.221 161.633L163.221 161.636V161.633H161.221ZM93.3882 162.551V160.551H90.7658L91.4595 163.08L93.3882 162.551ZM96.8565 165.192L96.8542 167.192H96.8565V165.192ZM155.751 165.192L155.775 163.192L155.763 163.192H155.751V165.192ZM159.266 162.551L161.195 163.08L161.889 160.551H159.266V162.551ZM155.751 165.084H96.8565V169.084H155.751V165.084ZM96.8599 165.084C95.937 165.083 95.0536 164.717 94.403 164.068L91.5793 166.902C92.9794 168.297 94.876 169.081 96.8531 169.084L96.8599 165.084ZM94.403 164.068C93.7527 163.42 93.3878 162.543 93.3862 161.629L89.3862 161.636C89.3896 163.613 90.179 165.506 91.5793 166.902L94.403 164.068ZM93.3862 161.633C93.3862 161.917 93.2729 162.188 93.0734 162.387L90.2497 159.554C89.6976 160.104 89.3862 160.852 89.3862 161.633H93.3862ZM93.0734 162.387C92.874 162.585 92.6051 162.696 92.3261 162.696V158.696C91.5486 158.696 90.8015 159.004 90.2497 159.554L93.0734 162.387ZM92.3261 162.696H160.281V158.696H92.3261V162.696ZM160.281 162.696C160.002 162.696 159.734 162.585 159.534 162.387L162.358 159.554C161.806 159.004 161.059 158.696 160.281 158.696V162.696ZM159.534 162.387C159.335 162.188 159.221 161.917 159.221 161.633H163.221C163.221 160.852 162.91 160.104 162.358 159.554L159.534 162.387ZM159.221 161.629C159.22 162.543 158.855 163.42 158.205 164.068L161.028 166.902C162.429 165.506 163.218 163.613 163.221 161.636L159.221 161.629ZM158.205 164.068C157.554 164.717 156.671 165.083 155.748 165.084L155.755 169.084C157.732 169.081 159.628 168.297 161.028 166.902L158.205 164.068ZM91.4595 163.08C91.7837 164.262 92.4881 165.304 93.4629 166.046L95.8866 162.864C95.6083 162.652 95.4087 162.356 95.317 162.022L91.4595 163.08ZM93.4629 166.046C94.4377 166.789 95.6291 167.191 96.8542 167.192L96.8588 163.192C96.5066 163.192 96.1651 163.076 95.8866 162.864L93.4629 166.046ZM96.8565 167.192H155.751V163.192H96.8565V167.192ZM155.727 167.192C156.965 167.207 158.173 166.812 159.163 166.068L156.76 162.871C156.477 163.083 156.131 163.197 155.775 163.192L155.727 167.192ZM159.163 166.068C160.152 165.325 160.868 164.274 161.195 163.08L157.338 162.022C157.245 162.359 157.042 162.658 156.76 162.871L159.163 166.068ZM159.266 160.551H93.3882V164.551H159.266V160.551Z" fill="white" mask="url(#path-10-inside-3_634_724)"/>
<mask id="path-12-inside-4_634_724" fill="white">
<path d="M125.608 127.291C125.359 127.291 125.12 127.192 124.944 127.016C124.767 126.841 124.668 126.603 124.668 126.354V109.492C124.668 109.244 124.767 109.006 124.944 108.83C125.12 108.654 125.359 108.556 125.608 108.556C125.858 108.556 126.097 108.654 126.273 108.83C126.449 109.006 126.548 109.244 126.548 109.492V126.354C126.548 126.603 126.449 126.841 126.273 127.016C126.097 127.192 125.858 127.291 125.608 127.291Z"/>
</mask>
<path d="M125.608 127.291C125.359 127.291 125.12 127.192 124.944 127.016C124.767 126.841 124.668 126.603 124.668 126.354V109.492C124.668 109.244 124.767 109.006 124.944 108.83C125.12 108.654 125.359 108.556 125.608 108.556C125.858 108.556 126.097 108.654 126.273 108.83C126.449 109.006 126.548 109.244 126.548 109.492V126.354C126.548 126.603 126.449 126.841 126.273 127.016C126.097 127.192 125.858 127.291 125.608 127.291Z" fill="#000816"/>
<path d="M125.608 125.291C125.887 125.291 126.156 125.401 126.356 125.6L123.532 128.433C124.084 128.983 124.831 129.291 125.608 129.291V125.291ZM126.356 125.6C126.555 125.799 126.668 126.07 126.668 126.354H122.668C122.668 127.135 122.98 127.883 123.532 128.433L126.356 125.6ZM126.668 126.354V109.492H122.668V126.354H126.668ZM126.668 109.492C126.668 109.777 126.555 110.048 126.356 110.247L123.532 107.413C122.98 107.964 122.668 108.711 122.668 109.492H126.668ZM126.356 110.247C126.156 110.445 125.887 110.556 125.608 110.556V106.556C124.831 106.556 124.084 106.863 123.532 107.413L126.356 110.247ZM125.608 110.556C125.329 110.556 125.06 110.445 124.861 110.247L127.685 107.413C127.133 106.863 126.386 106.556 125.608 106.556V110.556ZM124.861 110.247C124.662 110.048 124.548 109.777 124.548 109.492H128.548C128.548 108.711 128.237 107.964 127.685 107.413L124.861 110.247ZM124.548 109.492V126.354H128.548V109.492H124.548ZM124.548 126.354C124.548 126.07 124.662 125.799 124.861 125.6L127.685 128.433C128.237 127.883 128.548 127.135 128.548 126.354H124.548ZM124.861 125.6C125.06 125.401 125.329 125.291 125.608 125.291V129.291C126.386 129.291 127.133 128.983 127.685 128.433L124.861 125.6Z" fill="white" mask="url(#path-12-inside-4_634_724)"/>
<path d="M37.4768 140.048H61.7942V157.539C61.7942 159.556 60.9903 161.491 59.5583 162.919C58.1262 164.346 56.1832 165.148 54.1565 165.148H45.1146C43.0878 165.148 41.1448 164.346 39.7127 162.919C38.2807 161.491 37.4768 159.556 37.4768 157.539V140.048Z" fill="#000816" stroke="white" stroke-width="2"/>
<path d="M20.5267 167.148H177.698C180.202 167.148 182.225 169.168 182.225 171.651C182.225 174.135 180.202 176.155 177.698 176.155H20.5267C18.0227 176.155 16 174.135 16 171.651C16 169.168 18.0227 167.148 20.5267 167.148Z" fill="#000816" stroke="white" stroke-width="2"/>
<path d="M70.1265 143.839C69.8192 143.565 69.4909 143.318 69.1452 143.099C69.5551 143.34 69.9419 143.621 70.3 143.937C71.0894 144.635 71.7212 145.491 72.1538 146.449C72.5864 147.407 72.81 148.446 72.81 149.497C72.81 150.547 72.5864 151.586 72.1538 152.544C71.7212 153.503 71.0894 154.359 70.3 155.056C69.6879 155.597 68.9918 156.033 68.2404 156.347C68.9254 156.034 69.5614 155.62 70.1265 155.117C70.9232 154.409 71.5609 153.54 71.9976 152.568C72.4343 151.596 72.6602 150.543 72.6602 149.478C72.6602 148.413 72.4343 147.36 71.9976 146.388C71.5609 145.416 70.9232 144.547 70.1265 143.839Z" fill="#000816" stroke="white" stroke-width="2"/>
<path d="M19.8969 57.6782H75.6146C76.3632 57.6782 76.9644 58.2822 76.9644 59.0201V104.987C76.9644 105.725 76.3632 106.329 75.6146 106.329H19.8969C19.1483 106.329 18.5471 105.725 18.5471 104.987V59.0201C18.5471 58.2822 19.1483 57.6782 19.8969 57.6782Z" stroke="white" stroke-width="2"/>
<path d="M76.9644 59.0387V62.0948H18.5471V59.0387V59.0387C18.5471 58.6848 18.6878 58.3446 18.9394 58.0929C19.1907 57.8414 19.5323 57.6987 19.8898 57.6968H75.6146C75.9736 57.6968 76.3173 57.839 76.5702 58.091C76.823 58.3429 76.9644 58.6839 76.9644 59.0387Z" fill="#000816" stroke="white" stroke-width="2"/>
<path d="M27.1003 83.3446L38.9828 77.9244V80.0812L30.8747 83.7679L30.2886 84.0344V84.6782V84.7438V85.3876L30.8747 85.6541L38.9828 89.3407V91.4723L27.1003 86.0762V83.3446Z" fill="#000816" stroke="white" stroke-width="2"/>
<path d="M43.3437 94.3146L50.9214 71.4068L52.1573 71.8483L44.5633 94.7529L43.3437 94.3146Z" fill="#000816" stroke="white" stroke-width="2"/>
<path d="M68.4021 86.0483L56.5291 91.4438V89.3407L64.6371 85.6541L65.2232 85.3876V84.7438V84.6782V84.0344L64.6371 83.7679L56.5291 80.0812V77.922L68.4021 83.3175V86.0483Z" fill="#000816" stroke="white" stroke-width="2"/>
</g>
<defs>
<filter id="filter0_d_634_724" x="0" y="0" width="198.225" height="192.155" filterUnits="userSpaceOnUse" color-interpolation-filters="sRGB">
<feFlood flood-opacity="0" result="BackgroundImageFix"/>
<feColorMatrix in="SourceAlpha" type="matrix" values="0 0 0 0 0 0 0 0 0 0 0 0 0 0 0 0 0 0 127 0" result="hardAlpha"/>
<feOffset/>
<feGaussianBlur stdDeviation="7.5"/>
<feComposite in2="hardAlpha" operator="out"/>
<feColorMatrix type="matrix" values="0 0 0 0 0.662745 0 0 0 0 0.803922 0 0 0 0 0.937255 0 0 0 0.7 0"/>
<feBlend mode="normal" in2="BackgroundImageFix" result="effect1_dropShadow_634_724"/>
<feBlend mode="normal" in="SourceGraphic" in2="effect1_dropShadow_634_724" result="shape"/>
</filter>
</defs>
</svg>
