<svg width="79" height="79" viewBox="0 0 79 79" fill="none" xmlns="http://www.w3.org/2000/svg">
<g filter="url(#filter0_d_862_20)">
<path d="M49.6959 66H62.5806C64.4691 66 66 64.4691 66 62.5806V16.4193C66 14.5309 64.4691 13 62.5806 13H16.4193C14.5309 13 13 14.5309 13 16.4193V62.5806C13 64.4691 14.5309 66 16.4193 66H41.304" stroke="white" stroke-width="2" stroke-miterlimit="10"/>
<path d="M49.6953 65.9996V45.0201H57.2479L58.0871 36.6283H49.6953V31.5931C49.6953 28.2364 52.2128 28.2364 53.052 28.2364C53.8912 28.2364 58.0871 28.2364 58.0871 28.2364V20.6838C54.6954 20.3401 41.3035 17.3271 41.3035 31.5931V36.6283H34.5901V45.0201H41.3035V65.9996" stroke="white" stroke-width="2" stroke-miterlimit="10" stroke-linecap="round" stroke-linejoin="round"/>
</g>
<defs>
<filter id="filter0_d_862_20" x="0" y="0" width="79" height="79" filterUnits="userSpaceOnUse" color-interpolation-filters="sRGB">
<feFlood flood-opacity="0" result="BackgroundImageFix"/>
<feColorMatrix in="SourceAlpha" type="matrix" values="0 0 0 0 0 0 0 0 0 0 0 0 0 0 0 0 0 0 127 0" result="hardAlpha"/>
<feOffset/>
<feGaussianBlur stdDeviation="6"/>
<feColorMatrix type="matrix" values="0 0 0 0 0.662745 0 0 0 0 0.803922 0 0 0 0 0.937255 0 0 0 0.7 0"/>
<feBlend mode="normal" in2="BackgroundImageFix" result="effect1_dropShadow_862_20"/>
<feBlend mode="normal" in="SourceGraphic" in2="effect1_dropShadow_862_20" result="shape"/>
</filter>
</defs>
</svg>
