<svg width="51" height="50" viewBox="0 0 51 50" fill="none" xmlns="http://www.w3.org/2000/svg">
<path d="M34.4516 48.5172H46.0034C47.6965 48.5172 49.069 47.1448 49.069 45.4516V4.06562C49.069 2.37249 47.6965 1 46.0034 1H4.61738C2.92425 1 1.55176 2.37249 1.55176 4.06562V45.4516C1.55176 47.1448 2.92425 48.5172 4.61738 48.5172H26.9278" stroke="white" stroke-width="2" stroke-miterlimit="10"/>
<path d="M34.4508 48.5167V29.7075H41.2221L41.9745 22.1838H34.4508V17.6696C34.4508 14.6601 36.7079 14.6601 37.4603 14.6601C38.2127 14.6601 41.9745 14.6601 41.9745 14.6601V7.88884C38.9337 7.58064 26.9271 4.87938 26.9271 17.6696V22.1838H20.9082V29.7075H26.9271V48.5167" stroke="white" stroke-width="2" stroke-miterlimit="10" stroke-linecap="round" stroke-linejoin="round"/>
</svg>
