<svg width="205" height="193" viewBox="0 0 205 193" fill="none" xmlns="http://www.w3.org/2000/svg">
<g filter="url(#filter0_d_634_787)">
<path d="M21.503 162.764L36.5569 169.574L16.6394 176.383L21.503 162.764Z" fill="#000816" stroke="white" stroke-width="2"/>
<g filter="url(#filter1_d_634_787)">
<path d="M145 145.692C148.522 144.398 149.109 142.846 149.696 140C149.989 142.846 151.163 144.916 154.391 145.692C150.869 146.986 149.989 148.021 149.696 151.643C149.109 147.244 147.054 146.468 145 145.692Z" fill="white"/>
</g>
<g filter="url(#filter2_d_634_787)">
<path d="M115.618 20.6921C119.139 19.3984 119.726 17.846 120.313 15C120.607 17.846 121.781 19.9159 125.009 20.6921C121.487 21.9857 120.607 23.0206 120.313 26.6429C119.726 22.2444 117.672 21.4683 115.618 20.6921Z" fill="white"/>
</g>
<path d="M43 52.2667C50.125 49.9333 51.3125 47.1333 52.5 42C53.0938 47.1333 55.4688 50.8667 62 52.2667C54.875 54.6 53.0938 56.4667 52.5 63C51.3125 55.0667 47.1562 53.6667 43 52.2667Z" fill="white"/>
<path d="M46.7341 91.1845L51.5287 78.0276L80.5357 106.691L46.7341 91.1845Z" fill="#000816" stroke="white" stroke-width="2"/>
<path d="M114.973 142.639L40.5196 108.606L46.0537 93.0742L84.6935 110.8L116.661 142.13L114.973 142.639Z" fill="#000816" stroke="white" stroke-width="2"/>
<path d="M112.2 143.57L89.8373 151.204L34.5816 126.023L39.8603 110.503L112.2 143.57Z" fill="#000816" stroke="white" stroke-width="2"/>
<path d="M87.1008 152.156L64.4377 160.053L28.384 143.456L33.9199 127.92L87.1008 152.156Z" fill="#000816" stroke="white" stroke-width="2"/>
<path d="M39.321 168.629L22.1773 160.874L27.7098 145.347L61.6944 160.991L39.321 168.629Z" fill="#000816" stroke="white" stroke-width="2"/>
<mask id="path-10-inside-1_634_787" fill="white">
<path d="M99.3788 95.5811C118.286 113.835 128.164 134.301 121.391 140.939C114.336 147.577 93.4525 138.173 74.2627 119.643C55.3551 101.389 45.478 80.9227 52.2508 74.2849C59.3059 67.6472 80.189 77.3272 99.3788 95.5811Z"/>
</mask>
<path d="M99.3788 95.5811C118.286 113.835 128.164 134.301 121.391 140.939C114.336 147.577 93.4525 138.173 74.2627 119.643C55.3551 101.389 45.478 80.9227 52.2508 74.2849C59.3059 67.6472 80.189 77.3272 99.3788 95.5811Z" fill="#000816"/>
<path d="M121.391 140.939L122.761 142.396L122.776 142.382L122.791 142.368L121.391 140.939ZM74.2627 119.643L75.652 118.204L75.6518 118.204L74.2627 119.643ZM52.2508 74.2849L50.8804 72.8283L50.8655 72.8423L50.8509 72.8565L52.2508 74.2849ZM97.9897 97.02C107.319 106.027 114.355 115.521 118.215 123.488C120.149 127.48 121.234 130.985 121.475 133.789C121.716 136.602 121.096 138.428 119.991 139.511L122.791 142.368C125.072 140.132 125.757 136.91 125.46 133.448C125.163 129.978 123.867 125.98 121.815 121.744C117.702 113.255 110.346 103.389 100.768 94.1422L97.9897 97.02ZM120.02 139.483C118.819 140.612 116.842 141.239 113.895 141.023C110.962 140.809 107.328 139.77 103.2 137.906C94.9576 134.186 85.1257 127.353 75.652 118.204L72.8734 121.082C82.5895 130.464 92.7941 137.598 101.554 141.552C105.928 143.526 110.037 144.752 113.603 145.012C117.156 145.272 120.434 144.585 122.761 142.396L120.02 139.483ZM75.6518 118.204C66.3226 109.198 59.2861 99.703 55.4265 91.736C53.4925 87.7438 52.4071 84.2395 52.1667 81.4346C51.9255 78.6219 52.5457 76.7963 53.6507 75.7133L50.8509 72.8565C48.5696 75.0924 47.8845 78.3143 48.1813 81.7763C48.4788 85.2463 49.7745 89.244 51.8267 93.4799C55.9393 101.969 63.2952 111.835 72.8736 121.082L75.6518 118.204ZM53.6213 75.7416C54.8152 74.6183 56.7846 74.0036 59.7333 74.2389C62.6679 74.473 66.3035 75.5369 70.4353 77.4188C78.6844 81.1759 88.5216 88.0138 98.0004 97.0302L100.757 94.132C91.0462 84.8946 80.8469 77.7655 72.0933 73.7785C67.7237 71.7884 63.6163 70.536 60.0514 70.2515C56.5006 69.9682 53.214 70.6327 50.8804 72.8283L53.6213 75.7416Z" fill="white" mask="url(#path-10-inside-1_634_787)"/>
<path d="M80.2108 34.5381C75.6955 28.1769 81.3811 25.0225 87.5895 26.1288C81.6633 19.2145 84.0761 13.4429 93.3888 15.3789C96.2109 15.932 90.8001 20.3077 88.2603 20.3077C95.8798 25.8392 90.4071 31.3931 82.2232 30.0103C89.5605 39.6904 79.8431 38.0579 74.199 38.6111C72.788 45.802 81.0208 52.6492 78.1988 52.6492C71.9903 52.6492 62.4319 32.3255 80.2108 34.5381Z" fill="white"/>
<path d="M147.568 62.445C143.335 64.381 132.894 46.7156 147.568 46.4391C139.102 38.9716 139.838 35.0729 151.126 34.7963C138.144 22.0739 157.728 17.3635 159.703 24.0013C160.267 25.9373 152.366 22.1453 150.108 25.7408C147.568 29.8894 165.065 40.8006 146.157 39.9709C153.212 46.8853 154.429 51.1182 143.423 52.2245C144.834 54.4371 150.39 61.3387 147.568 62.445Z" fill="white"/>
<path d="M125 119.041L129.056 117.487C129.056 117.487 134.031 123.037 136.853 125.249C139.11 115.293 138.281 108.808 149.851 115.446C143.36 98.2982 154.837 103.83 165.279 108.531C164.715 104.106 163.944 104.383 168.459 103C172.41 117.658 161 111.84 152.534 107.138C157.614 120.414 153.196 120.619 142.472 116.194C142.19 121.725 140.239 128.445 136.853 128.998C132.902 130.104 125 119.041 125 119.041Z" fill="white"/>
<path d="M110.509 78.631C105.429 85.2687 97.8034 88.94 91.8771 94.7481C85.6686 100.833 82 117.427 82 117.427C82 117.427 84.2576 100.003 90.1839 93.3652C95.5458 87.2806 103.447 82.8554 107.681 75.9411C115.018 63.2187 108.245 46.6243 98.65 36.9442C100.625 35.2847 99.3893 36.5873 102.459 34C111.772 45.3395 121.515 64.5257 110.509 78.631Z" fill="white"/>
<path d="M137.576 85.3492C130.323 90.0389 121.713 98.438 116.692 104.855C112.228 110.533 98 117.69 98 117.69C98 117.69 111.391 109.545 115.576 103.621C120.597 96.2166 125.619 88.5649 133.431 83.1347C149.054 72.5212 171.651 73.5085 189.227 79.1855C188.111 81.4069 185.873 83.1347 185.873 83.1347C185.873 83.1347 150.992 74.3532 137.576 85.3492Z" fill="white"/>
</g>
<defs>
<filter id="filter0_d_634_787" x="0" y="0" width="204.227" height="193" filterUnits="userSpaceOnUse" color-interpolation-filters="sRGB">
<feFlood flood-opacity="0" result="BackgroundImageFix"/>
<feColorMatrix in="SourceAlpha" type="matrix" values="0 0 0 0 0 0 0 0 0 0 0 0 0 0 0 0 0 0 127 0" result="hardAlpha"/>
<feOffset/>
<feGaussianBlur stdDeviation="7.5"/>
<feComposite in2="hardAlpha" operator="out"/>
<feColorMatrix type="matrix" values="0 0 0 0 0.662745 0 0 0 0 0.803922 0 0 0 0 0.937255 0 0 0 0.7 0"/>
<feBlend mode="normal" in2="BackgroundImageFix" result="effect1_dropShadow_634_787"/>
<feBlend mode="normal" in="SourceGraphic" in2="effect1_dropShadow_634_787" result="shape"/>
</filter>
<filter id="filter1_d_634_787" x="130" y="125" width="39.3911" height="41.6431" filterUnits="userSpaceOnUse" color-interpolation-filters="sRGB">
<feFlood flood-opacity="0" result="BackgroundImageFix"/>
<feColorMatrix in="SourceAlpha" type="matrix" values="0 0 0 0 0 0 0 0 0 0 0 0 0 0 0 0 0 0 127 0" result="hardAlpha"/>
<feOffset/>
<feGaussianBlur stdDeviation="7.5"/>
<feComposite in2="hardAlpha" operator="out"/>
<feColorMatrix type="matrix" values="0 0 0 0 0.662745 0 0 0 0 0.803922 0 0 0 0 0.937255 0 0 0 0.7 0"/>
<feBlend mode="normal" in2="BackgroundImageFix" result="effect1_dropShadow_634_787"/>
<feBlend mode="normal" in="SourceGraphic" in2="effect1_dropShadow_634_787" result="shape"/>
</filter>
<filter id="filter2_d_634_787" x="100.618" y="0" width="39.3911" height="41.6431" filterUnits="userSpaceOnUse" color-interpolation-filters="sRGB">
<feFlood flood-opacity="0" result="BackgroundImageFix"/>
<feColorMatrix in="SourceAlpha" type="matrix" values="0 0 0 0 0 0 0 0 0 0 0 0 0 0 0 0 0 0 127 0" result="hardAlpha"/>
<feOffset/>
<feGaussianBlur stdDeviation="7.5"/>
<feComposite in2="hardAlpha" operator="out"/>
<feColorMatrix type="matrix" values="0 0 0 0 0.662745 0 0 0 0 0.803922 0 0 0 0 0.937255 0 0 0 0.7 0"/>
<feBlend mode="normal" in2="BackgroundImageFix" result="effect1_dropShadow_634_787"/>
<feBlend mode="normal" in="SourceGraphic" in2="effect1_dropShadow_634_787" result="shape"/>
</filter>
</defs>
</svg>
