<svg width="130" height="122" viewBox="0 0 130 122" fill="none" xmlns="http://www.w3.org/2000/svg">
<path d="M4.99462 110.501L15.3797 115.198L1.63944 119.896L4.99462 110.501Z" fill="#000816" stroke="white" stroke-width="2"/>
<path d="M96.9121 97.4276C99.5374 96.4632 99.9749 95.306 100.412 93.1843C100.631 95.306 101.506 96.849 103.913 97.4276C101.288 98.392 100.631 99.1635 100.412 101.864C99.9749 98.5849 98.4435 98.0063 96.9121 97.4276Z" fill="white"/>
<path d="M75.0078 4.2433C77.6331 3.27891 78.0706 2.12165 78.5082 0C78.727 2.12165 79.6021 3.66467 82.0086 4.2433C79.3833 5.20768 78.727 5.97919 78.5082 8.67947C78.0706 5.40056 76.5392 4.82193 75.0078 4.2433Z" fill="white"/>
<path d="M20.873 27.7815C26.1846 26.042 27.0698 23.9547 27.9551 20.1279C28.3977 23.9547 30.1682 26.7378 35.0371 27.7815C29.7256 29.5209 28.3977 30.9125 27.9551 35.7829C27.0698 29.8688 23.9714 28.8251 20.873 27.7815Z" fill="white"/>
<path d="M23.9761 56.6604L27.3341 47.4456L47.6499 67.5207L23.9761 56.6604Z" fill="#000816" stroke="white" stroke-width="2"/>
<path d="M74.5451 94.8808L19.3416 69.6466L23.2956 58.5498L51.8076 71.6296L75.2999 94.6532L74.5451 94.8808Z" fill="#000816" stroke="white" stroke-width="2"/>
<path d="M71.7731 95.8116L55.803 101.263L14.9129 82.6287L18.6832 71.5435L71.7731 95.8116Z" fill="#000816" stroke="white" stroke-width="2"/>
<path d="M53.067 102.215L36.8683 107.859L10.2959 95.6274L14.2516 84.5257L53.067 102.215Z" fill="#000816" stroke="white" stroke-width="2"/>
<path d="M18.1429 114.253L5.66802 108.61L9.62028 97.5181L34.1237 108.798L18.1429 114.253Z" fill="#000816" stroke="white" stroke-width="2"/>
<mask id="path-10-inside-1_945_470" fill="white">
<path d="M62.9024 60.0712C76.9975 73.679 84.3607 88.9363 79.3117 93.8846C74.0523 98.8329 58.4845 91.8228 44.1789 78.0088C30.0837 64.401 22.7206 49.1437 27.7696 44.1954C33.029 39.2471 48.5968 46.4634 62.9024 60.0712Z"/>
</mask>
<path d="M62.9024 60.0712C76.9975 73.679 84.3607 88.9363 79.3117 93.8846C74.0523 98.8329 58.4845 91.8228 44.1789 78.0088C30.0837 64.401 22.7206 49.1437 27.7696 44.1954C33.029 39.2471 48.5968 46.4634 62.9024 60.0712Z" fill="#000816"/>
<path d="M79.3117 93.8846L80.6821 95.3412L80.697 95.3272L80.7116 95.313L79.3117 93.8846ZM44.1789 78.0088L45.5682 76.5701L45.568 76.5699L44.1789 78.0088ZM27.7696 44.1954L26.3991 42.7388L26.3843 42.7528L26.3697 42.767L27.7696 44.1954ZM61.5132 61.5101C68.4362 68.1937 73.6411 75.2244 76.4862 81.0972C77.9129 84.0422 78.6952 86.5918 78.8672 88.5981C79.0399 90.6123 78.5859 91.7955 77.9118 92.4562L80.7116 95.313C82.562 93.4995 83.0809 90.9199 82.8526 88.2564C82.6236 85.585 81.6308 82.5421 80.086 79.3532C76.988 72.9584 71.4637 65.5565 64.2915 58.6323L61.5132 61.5101ZM77.9412 92.4279C77.1894 93.1353 75.8806 93.5945 73.761 93.4395C71.6548 93.2854 69.0067 92.5347 65.9604 91.1596C59.8818 88.4158 52.5998 83.36 45.5682 76.5701L42.7896 79.4475C50.0636 86.4715 57.7183 91.8278 64.3148 94.8054C67.6061 96.2911 70.7301 97.2285 73.4692 97.4288C76.1948 97.6282 78.8043 97.108 80.6821 95.3412L77.9412 92.4279ZM45.568 76.5699C38.645 69.8863 33.4402 62.8556 30.5951 56.9828C29.1684 54.0378 28.386 51.4882 28.214 49.4819C28.0414 47.4677 28.4954 46.2845 29.1695 45.6238L26.3697 42.767C24.5193 44.5805 24.0003 47.1601 24.2287 49.8236C24.4577 52.495 25.4504 55.5379 26.9953 58.7268C30.0933 65.1216 35.6176 72.5235 42.7898 79.4477L45.568 76.5699ZM29.1401 45.6521C29.885 44.9512 31.1855 44.4992 33.3071 44.6685C35.4146 44.8367 38.0648 45.6058 41.1147 46.9949C47.2 49.7665 54.4873 54.8269 61.5239 61.5203L64.2808 58.6221C57.0119 51.7077 49.3625 46.3561 42.7726 43.3547C39.485 41.8573 36.363 40.8996 33.6252 40.6812C30.9016 40.4639 28.2838 40.9655 26.3991 42.7388L29.1401 45.6521Z" fill="white" mask="url(#path-10-inside-1_945_470)"/>
<path d="M48.6138 14.5651C45.2478 9.82302 49.4863 7.47156 54.1145 8.29628C49.6966 3.1418 51.4954 -1.1608 58.4378 0.282457C60.5415 0.694815 56.508 3.95678 54.6146 3.95678C60.2947 8.08036 56.215 12.2207 50.1141 11.1898C55.5839 18.4061 48.3397 17.1891 44.1322 17.6015C43.0803 22.9622 49.2177 28.0665 47.1139 28.0665C42.4857 28.0665 35.3602 12.9157 48.6138 14.5651Z" fill="white"/>
<path d="M98.8265 35.3692C95.6709 36.8124 87.887 23.6433 98.8265 23.4371C92.5152 17.8703 93.0635 14.9639 101.479 14.7577C91.8013 5.27347 106.4 1.76198 107.873 6.71028C108.293 8.15353 102.403 5.3267 100.72 8.00703C98.8265 11.0997 111.87 19.2338 97.7747 18.6153C103.034 23.7697 103.941 26.9253 95.7364 27.75C96.7882 29.3994 100.93 34.5444 98.8265 35.3692Z" fill="white"/>
<path d="M82.002 77.5602L85.026 76.4017C85.026 76.4017 88.734 80.5386 90.8377 82.188C92.5207 74.7656 91.9022 69.9316 100.528 74.8799C95.689 62.0968 104.245 66.2203 112.029 69.7254C111.608 66.4265 111.034 66.6327 114.4 65.6018C117.345 76.5293 108.839 72.1917 102.528 68.6866C106.315 78.5832 103.021 78.7362 95.0271 75.4373C94.8167 79.5609 93.3623 84.5703 90.8377 84.9826C87.8925 85.8074 82.002 77.5602 82.002 77.5602Z" fill="white"/>
<path d="M71.1998 47.4354C67.4131 52.3837 61.7283 55.1205 57.3104 59.4503C52.6822 63.9862 49.9473 76.357 49.9473 76.357C49.9473 76.357 51.6303 63.3677 56.0482 58.4194C60.0453 53.8835 65.9358 50.5846 69.0915 45.4301C74.5612 35.9459 69.5122 23.5751 62.3594 16.3589C63.8321 15.1218 62.9106 16.0928 65.1992 14.1641C72.1416 22.6174 79.4045 36.9202 71.1998 47.4354Z" fill="white"/>
<path d="M91.3772 52.4436C85.9699 55.9397 79.5518 62.201 75.8083 66.9851C72.4807 71.2171 61.874 76.5532 61.874 76.5532C61.874 76.5532 71.8568 70.4811 74.9764 66.065C78.7199 60.5449 82.4634 54.8408 88.2867 50.7928C99.9332 42.8806 116.779 43.6166 129.881 47.8487C129.05 49.5047 127.381 50.7928 127.381 50.7928C127.381 50.7928 101.378 44.2463 91.3772 52.4436Z" fill="white"/>
</svg>
