<svg width="112" height="147" viewBox="0 0 112 147" fill="none" xmlns="http://www.w3.org/2000/svg">
<path d="M3.66386 132.537L9.64228 126.844L14.482 122.004C16.4748 120.581 16.1901 120.296 18.5423 119.739C19.3217 119.739 20.1011 119.542 20.8342 119.739L23.8944 116.731C21.2305 113.026 19.6784 108.492 19.6784 103.61C19.6784 90.9684 30.1139 80.7245 42.9866 80.7245C55.8594 80.7245 66.2949 90.9684 66.2949 103.61C66.2949 116.251 55.8594 126.495 42.9866 126.495C38.3016 126.495 33.9293 125.122 30.2878 122.768L27.0911 125.907C27.3113 126.626 27.0911 127.389 27.0911 128.152C26.7235 130.545 25.8076 131.757 24.1168 133.392L19.0369 138.516L14.7666 142.786C12.2612 144.779 9.74031 146.487 7.36479 146.487C4.98707 146.487 3.35968 146.129 1.67106 144.494C-1.74518 139.085 1.67106 135.1 3.66386 132.537ZM61.8521 103.61C61.8521 93.3877 53.398 85.0836 42.9844 85.0836C32.5709 85.0836 24.1168 93.3877 24.1168 103.61C24.1168 113.832 32.5753 122.136 42.9844 122.136C53.3936 122.136 61.8521 113.832 61.8521 103.61ZM5.98003 140.488C7.71048 142.188 10.5307 142.188 12.2612 140.488L21.673 131.225C22.5162 130.418 22.9609 129.329 22.9609 128.152C22.9609 126.975 22.4942 125.885 21.673 125.079C20.8298 124.25 19.7202 123.793 18.5423 123.793C17.3447 123.793 16.2307 124.25 15.3896 125.079L5.97783 134.32C4.24737 136.02 4.24737 138.788 5.97783 140.488H5.98003Z" fill="white"/>
<path d="M5.98003 140.488C7.71048 142.188 10.5307 142.188 12.2612 140.488L21.673 131.225C22.5162 130.418 22.9609 129.329 22.9609 128.152C22.9609 126.975 22.4942 125.885 21.673 125.079C20.8298 124.25 19.7202 123.793 18.5423 123.793C17.3447 123.793 16.2307 124.25 15.3896 125.079L5.97783 134.32C4.24737 136.02 4.24737 138.788 5.97783 140.488H5.98003Z" fill="white"/>
<path d="M42.0781 116.687C42.0781 117.298 42.5624 117.777 43.1789 117.777H43.2009C51.1046 117.755 57.4893 111.435 57.4893 103.61C57.4893 95.7853 51.1046 89.4645 43.2009 89.4427H43.1789C42.5624 89.4427 42.0781 89.9223 42.0781 90.5325C42.0781 91.1428 42.5624 91.6223 43.1789 91.6223H43.2009C49.8717 91.6441 55.2877 97.0058 55.2877 103.61C55.2877 110.214 49.8717 115.576 43.2009 115.597H43.1789C42.5624 115.597 42.0781 116.077 42.0781 116.687Z" fill="white"/>
<path d="M77.6014 20.6749C78.016 17.4113 76.9651 10.8287 71.6926 9.93629C70.4487 9.72574 65.7839 10.2521 67.0279 8.9891C67.9076 8.09591 67.0279 7.09379 69.5158 4.56713C72.9366 1.09297 72.3146 0.461327 69.5158 0.461327H53.6555C52.6189 0.35605 50.8566 0.650827 52.1006 2.67216L57.0763 8.9891C58.0093 10.8838 53.7177 9.1783 51.4786 9.93629C48.6797 10.8838 45.2589 13.7266 45.2589 20.6749C45.1552 21.3065 45.2589 22.5696 46.5028 22.5696H75.7354C76.322 22.7804 77.5163 22.6965 77.6014 20.6749Z" fill="white"/>
<rect x="12.6357" y="12.8303" width="98.2097" height="128.386" rx="15" stroke="white" stroke-width="2"/>
<rect x="17.2598" y="17.4548" width="88.3916" height="114.013" rx="11.5" stroke="white"/>
<rect x="29.7451" y="76.1696" width="11.3875" height="3.98561" rx="1.99281" transform="rotate(56 29.7451 76.1696)" fill="white"/>
<rect x="42.21" y="73.5469" width="15.9424" height="3.98561" rx="1.99281" transform="rotate(119 42.21 73.5469)" fill="white"/>
<rect x="29.7451" y="52.8252" width="11.3875" height="3.98561" rx="1.99281" transform="rotate(56 29.7451 52.8252)" fill="white"/>
<rect x="42.21" y="50.2024" width="15.9424" height="3.98561" rx="1.99281" transform="rotate(119 42.21 50.2024)" fill="white"/>
<rect x="64.0176" y="98.3751" width="29.6074" height="3.68799" rx="1.84399" fill="white"/>
<rect x="29.7451" y="32.3279" width="11.3875" height="3.98561" rx="1.99281" transform="rotate(56 29.7451 32.3279)" fill="white"/>
<rect x="42.21" y="29.7051" width="15.9424" height="3.98561" rx="1.99281" transform="rotate(119 42.21 29.7051)" fill="white"/>
<rect x="45.9482" y="35.8474" width="47.8274" height="3.68799" rx="1.84399" fill="white"/>
<rect x="45.9482" y="56.5004" width="47.8274" height="3.68799" rx="1.84399" fill="white"/>
<rect x="45.9482" y="78.6282" width="47.8274" height="3.68799" rx="1.84399" fill="white"/>
</svg>
