<svg width="182" height="228" viewBox="0 0 182 228" fill="none" xmlns="http://www.w3.org/2000/svg">
<g filter="url(#filter0_d_634_610)">
<path d="M19.6722 194.088L27.7775 186.368L34.3389 179.807C37.0406 177.877 36.6547 177.491 39.8437 176.736C40.9004 176.736 41.957 176.47 42.9509 176.736L47.0998 172.658C43.4882 167.634 41.3839 161.488 41.3839 154.869C41.3839 137.73 55.532 123.842 72.9842 123.842C90.4364 123.842 104.584 137.73 104.584 154.869C104.584 172.008 90.4364 185.896 72.9842 185.896C66.6325 185.896 60.7046 184.034 55.7677 180.843L51.4338 185.098C51.7323 186.073 51.4338 187.107 51.4338 188.142C50.9354 191.386 49.6936 193.029 47.4013 195.246L40.5143 202.193L34.7248 207.982C31.328 210.684 27.9104 213 24.6898 213C21.4661 213 19.2598 212.514 16.9705 210.298C12.3389 202.965 16.9705 197.561 19.6722 194.088ZM98.5611 154.869C98.5611 141.01 87.0994 129.752 72.9812 129.752C58.863 129.752 47.4013 141.01 47.4013 154.869C47.4013 168.728 58.869 179.986 72.9812 179.986C87.0934 179.986 98.5611 168.728 98.5611 154.869ZM22.8124 204.867C25.1584 207.172 28.982 207.172 31.328 204.867L44.0882 192.308C45.2313 191.215 45.8343 189.737 45.8343 188.142C45.8343 186.546 45.2015 185.069 44.0882 183.975C42.945 182.852 41.4406 182.232 39.8437 182.232C38.22 182.232 36.7097 182.852 35.5695 183.975L22.8094 196.504C20.4633 198.809 20.4633 202.562 22.8094 204.867H22.8124Z" fill="white"/>
<path d="M22.8124 204.867C25.1584 207.172 28.982 207.172 31.328 204.867L44.0882 192.308C45.2313 191.215 45.8343 189.737 45.8343 188.142C45.8343 186.546 45.2015 185.069 44.0882 183.975C42.945 182.852 41.4406 182.232 39.8437 182.232C38.22 182.232 36.7097 182.852 35.5695 183.975L22.8094 196.504C20.4633 198.809 20.4633 202.562 22.8094 204.867H22.8124Z" fill="white"/>
<path d="M71.7513 172.599C71.7513 173.426 72.4079 174.076 73.2437 174.076H73.2735C83.989 174.047 92.645 165.477 92.645 154.869C92.645 144.261 83.989 135.691 73.2735 135.662H73.2437C72.4079 135.662 71.7513 136.312 71.7513 137.139C71.7513 137.967 72.4079 138.617 73.2437 138.617H73.2735C82.3175 138.646 89.6602 145.916 89.6602 154.869C89.6602 163.823 82.3175 171.092 73.2735 171.121H73.2437C72.4079 171.121 71.7513 171.771 71.7513 172.599Z" fill="white"/>
<path d="M119.913 42.4296C120.475 38.005 119.05 29.0806 111.902 27.8707C110.215 27.5853 103.891 28.2989 105.577 26.5866C106.77 25.3756 105.577 24.017 108.95 20.5915C113.588 15.8814 112.745 15.025 108.95 15.025H87.4479C86.0425 14.8823 83.6533 15.2819 85.3398 18.0224L92.0857 26.5866C93.3505 29.1553 87.5322 26.8431 84.4965 27.8707C80.7019 29.1553 76.0641 33.0094 76.0641 42.4296C75.9236 43.2859 76.0641 44.9984 77.7506 44.9984H117.383C118.178 45.2841 119.797 45.1704 119.913 42.4296Z" fill="white"/>
<rect x="31.4792" y="31.4387" width="133.86" height="174.772" rx="15" stroke="white" stroke-width="2"/>
<rect x="37.9265" y="37.886" width="120.193" height="154.93" rx="11.5" stroke="white"/>
<rect x="55.0288" y="117.667" width="15.4386" height="5.40351" rx="2.70175" transform="rotate(56 55.0288 117.667)" fill="white"/>
<rect x="71.9294" y="114.111" width="21.614" height="5.40351" rx="2.70175" transform="rotate(119 71.9294 114.111)" fill="white"/>
<rect x="55.0288" y="86.0176" width="15.4386" height="5.40351" rx="2.70175" transform="rotate(56 55.0288 86.0176)" fill="white"/>
<rect x="71.9294" y="82.4619" width="21.614" height="5.40351" rx="2.70175" transform="rotate(119 71.9294 82.4619)" fill="white"/>
<rect x="101.497" y="147.772" width="40.1403" height="5" rx="2.5" fill="white"/>
<rect x="55.0288" y="58.2278" width="15.4386" height="5.40351" rx="2.70175" transform="rotate(56 55.0288 58.2278)" fill="white"/>
<rect x="71.9294" y="54.6721" width="21.614" height="5.40351" rx="2.70175" transform="rotate(119 71.9294 54.6721)" fill="white"/>
<rect x="77" y="63" width="64.8421" height="5" rx="2.5" fill="white"/>
<rect x="77" y="91" width="64.8421" height="5" rx="2.5" fill="white"/>
<rect x="77" y="121" width="64.8421" height="5" rx="2.5" fill="white"/>
</g>
<defs>
<filter id="filter0_d_634_610" x="0" y="0" width="181.339" height="228" filterUnits="userSpaceOnUse" color-interpolation-filters="sRGB">
<feFlood flood-opacity="0" result="BackgroundImageFix"/>
<feColorMatrix in="SourceAlpha" type="matrix" values="0 0 0 0 0 0 0 0 0 0 0 0 0 0 0 0 0 0 127 0" result="hardAlpha"/>
<feOffset/>
<feGaussianBlur stdDeviation="7.5"/>
<feComposite in2="hardAlpha" operator="out"/>
<feColorMatrix type="matrix" values="0 0 0 0 0.662745 0 0 0 0 0.803922 0 0 0 0 0.937255 0 0 0 0.7 0"/>
<feBlend mode="normal" in2="BackgroundImageFix" result="effect1_dropShadow_634_610"/>
<feBlend mode="normal" in="SourceGraphic" in2="effect1_dropShadow_634_610" result="shape"/>
</filter>
</defs>
</svg>
