<svg width="77" height="77" viewBox="0 0 77 77" fill="none" xmlns="http://www.w3.org/2000/svg">
<g filter="url(#filter0_d_862_15)">
<path d="M38.5 26.3542C36.0978 26.3542 33.7495 27.0665 31.7521 28.4011C29.7548 29.7357 28.198 31.6326 27.2787 33.852C26.3594 36.0714 26.1189 38.5135 26.5875 40.8695C27.0562 43.2256 28.213 45.3898 29.9116 47.0884C31.6102 48.787 33.7744 49.9438 36.1305 50.4125C38.4865 50.8811 40.9286 50.6406 43.148 49.7213C45.3674 48.802 47.2643 47.2452 48.5989 45.2479C49.9335 43.2505 50.6458 40.9022 50.6458 38.5C50.6422 35.2798 49.3614 32.1926 47.0844 29.9156C44.8074 27.6386 41.7202 26.3578 38.5 26.3542ZM38.5 48.4375C36.5345 48.4375 34.6132 47.8547 32.979 46.7627C31.3448 45.6708 30.0711 44.1188 29.3189 42.3029C28.5668 40.4871 28.37 38.489 28.7534 36.5613C29.1369 34.6336 30.0833 32.8629 31.4731 31.4731C32.8629 30.0833 34.6336 29.1369 36.5613 28.7534C38.489 28.37 40.4871 28.5668 42.3029 29.3189C44.1188 30.0711 45.6708 31.3448 46.7627 32.979C47.8547 34.6132 48.4375 36.5345 48.4375 38.5C48.4345 41.1347 47.3866 43.6606 45.5236 45.5236C43.6606 47.3866 41.1347 48.4345 38.5 48.4375ZM50.6458 12H26.3542C22.5485 12.0043 18.9 13.518 16.209 16.209C13.518 18.9 12.0043 22.5485 12 26.3542V50.6458C12.0043 54.4515 13.518 58.1 16.209 60.791C18.9 63.482 22.5485 64.9957 26.3542 65H50.6458C54.4515 64.9957 58.1 63.482 60.791 60.791C63.482 58.1 64.9957 54.4515 65 50.6458V26.3542C64.9957 22.5485 63.482 18.9 60.791 16.209C58.1 13.518 54.4515 12.0043 50.6458 12ZM62.7917 50.6458C62.788 53.866 61.5072 56.9532 59.2302 59.2302C56.9532 61.5072 53.866 62.788 50.6458 62.7917H26.3542C23.134 62.788 20.0468 61.5072 17.7698 59.2302C15.4928 56.9532 14.212 53.866 14.2083 50.6458V26.3542C14.212 23.134 15.4928 20.0468 17.7698 17.7698C20.0468 15.4928 23.134 14.212 26.3542 14.2083H50.6458C53.866 14.212 56.9532 15.4928 59.2302 17.7698C61.5072 20.0468 62.788 23.134 62.7917 26.3542V50.6458ZM55.0625 24.1458C55.0625 24.5826 54.933 25.0096 54.6903 25.3727C54.4477 25.7359 54.1028 26.0189 53.6993 26.1861C53.2957 26.3532 52.8517 26.3969 52.4233 26.3117C51.995 26.2265 51.6015 26.0162 51.2926 25.7074C50.9838 25.3985 50.7735 25.005 50.6883 24.5767C50.6031 24.1483 50.6468 23.7043 50.8139 23.3007C50.9811 22.8972 51.2641 22.5523 51.6273 22.3097C51.9904 22.067 52.4174 21.9375 52.8542 21.9375C53.4396 21.9382 54.001 22.171 54.415 22.585C54.8289 22.999 55.0618 23.5604 55.0625 24.1458Z" fill="white"/>
</g>
<defs>
<filter id="filter0_d_862_15" x="0" y="0" width="77" height="77" filterUnits="userSpaceOnUse" color-interpolation-filters="sRGB">
<feFlood flood-opacity="0" result="BackgroundImageFix"/>
<feColorMatrix in="SourceAlpha" type="matrix" values="0 0 0 0 0 0 0 0 0 0 0 0 0 0 0 0 0 0 127 0" result="hardAlpha"/>
<feOffset/>
<feGaussianBlur stdDeviation="6"/>
<feColorMatrix type="matrix" values="0 0 0 0 0.662745 0 0 0 0 0.803922 0 0 0 0 0.937255 0 0 0 0.7 0"/>
<feBlend mode="normal" in2="BackgroundImageFix" result="effect1_dropShadow_862_15"/>
<feBlend mode="normal" in="SourceGraphic" in2="effect1_dropShadow_862_15" result="shape"/>
</filter>
</defs>
</svg>
