<svg width="48" height="48" viewBox="0 0 48 48" fill="none" xmlns="http://www.w3.org/2000/svg">
<path d="M24.034 12.8693C21.8803 12.8693 19.775 13.5079 17.9842 14.7044C16.1935 15.901 14.7977 17.6017 13.9735 19.5914C13.1494 21.5812 12.9337 23.7707 13.3539 25.883C13.774 27.9954 14.8112 29.9357 16.3341 31.4586C17.857 32.9815 19.7973 34.0186 21.9096 34.4388C24.0219 34.8589 26.2114 34.6433 28.2012 33.8191C30.191 32.9949 31.8916 31.5992 33.0882 29.8084C34.2847 28.0177 34.9234 25.9123 34.9234 23.7586C34.9201 20.8716 33.7718 18.1037 31.7304 16.0623C29.6889 14.0208 26.9211 12.8725 24.034 12.8693ZM24.034 32.6681C22.2719 32.6681 20.5493 32.1456 19.0842 31.1666C17.619 30.1876 16.4771 28.7961 15.8027 27.1681C15.1284 25.5401 14.9519 23.7487 15.2957 22.0205C15.6395 20.2922 16.488 18.7047 17.7341 17.4587C18.9801 16.2127 20.5676 15.3641 22.2959 15.0203C24.0241 14.6766 25.8155 14.853 27.4435 15.5273C29.0715 16.2017 30.463 17.3436 31.442 18.8088C32.421 20.2739 32.9435 21.9965 32.9435 23.7586C32.9408 26.1207 32.0013 28.3854 30.331 30.0556C28.6608 31.7259 26.3961 32.6654 24.034 32.6681ZM34.9234 0H13.1446C9.73269 0.00386468 6.46159 1.36097 4.04898 3.77359C1.63636 6.1862 0.279255 9.4573 0.275391 12.8693V34.648C0.279255 38.0599 1.63636 41.331 4.04898 43.7437C6.46159 46.1563 9.73269 47.5134 13.1446 47.5172H34.9234C38.3353 47.5134 41.6064 46.1563 44.019 43.7437C46.4317 41.331 47.7888 38.0599 47.7926 34.648V12.8693C47.7888 9.4573 46.4317 6.1862 44.019 3.77359C41.6064 1.36097 38.3353 0.00386468 34.9234 0ZM45.8127 34.648C45.8095 37.535 44.6612 40.3029 42.6197 42.3443C40.5783 44.3858 37.8104 45.5341 34.9234 45.5374H13.1446C10.2576 45.5341 7.48975 44.3858 5.4483 42.3443C3.40685 40.3029 2.25854 37.535 2.25528 34.648V12.8693C2.25854 9.98221 3.40685 7.21435 5.4483 5.17291C7.48975 3.13146 10.2576 1.98315 13.1446 1.97989H34.9234C37.8104 1.98315 40.5783 3.13146 42.6197 5.17291C44.6612 7.21435 45.8095 9.98221 45.8127 12.8693V34.648ZM38.8831 10.8894C38.8831 11.281 38.767 11.6637 38.5495 11.9893C38.3319 12.3149 38.0227 12.5687 37.6609 12.7185C37.2992 12.8684 36.9011 12.9076 36.517 12.8312C36.1329 12.7548 35.7802 12.5662 35.5033 12.2894C35.2264 12.0125 35.0378 11.6597 34.9614 11.2756C34.885 10.8916 34.9242 10.4935 35.0741 10.1317C35.2239 9.76992 35.4777 9.46071 35.8033 9.24315C36.1289 9.0256 36.5117 8.90948 36.9033 8.90948C37.4282 8.91008 37.9314 9.11887 38.3026 9.49004C38.6738 9.86121 38.8825 10.3645 38.8831 10.8894Z" fill="white"/>
</svg>
