<svg width="52" height="50" viewBox="0 0 52 50" fill="none" xmlns="http://www.w3.org/2000/svg">
<path d="M41.5881 30.9659C41.5881 26.7783 38.3325 23.4505 34.7075 23.4505C31.9376 23.4505 29.4888 23.4505 27.8619 26.9558C27.5616 27.603 27.2139 29.4874 27.2139 30.4194V48.5172H18.4138V25.5298V14.1914H27.552L28.0027 18.663H28.2C29.5194 16.5382 32.5179 14.1914 37.9277 14.1914C44.5222 14.1914 50.4338 19.4111 50.4338 28.9791V48.5172H41.5881V30.9659ZM6.56503 10.112C3.68596 10.112 1.82812 8.07477 1.82812 5.55756C1.82812 2.97916 3.7461 1 6.68319 1C9.62029 1 11.4201 2.97811 11.4802 5.55756C11.4813 8.07477 9.62134 10.112 6.56503 10.112ZM2.88821 48.5172L2.88821 14.1914H10.6152L10.6152 48.5172H2.88821Z" stroke="white" stroke-width="2"/>
</svg>
