<svg width="128" height="122" viewBox="0 0 128 122" fill="none" xmlns="http://www.w3.org/2000/svg">
<path d="M25.7067 23.5234C25.7067 21.4696 23.81 19.1218 20.9621 18.4989M12.7567 26.7129V27.2129H13.2567H25.7067H26.2067V26.7129V23.5234C26.2067 21.3679 24.4118 19.0508 21.7284 18.1891C22.1349 17.9919 22.503 17.7533 22.8233 17.4676C23.6649 16.7168 24.1317 15.6794 24.1317 14.3535C24.1317 13.0376 23.6724 11.9051 22.8368 11.1024C22.0031 10.3014 20.8344 9.86656 19.4817 9.86656C18.1397 9.86656 16.9695 10.2639 16.1306 11.0518C15.2876 11.8436 14.8317 12.9809 14.8317 14.3535C14.8317 15.6482 15.1749 16.6002 15.9856 17.3191C16.3544 17.6462 16.8085 17.9134 17.3413 18.147C16.0073 18.5533 15.0005 19.3174 14.2782 20.1574C13.7482 20.7738 13.3715 21.4301 13.1262 22.0159C12.8852 22.5913 12.7567 23.1336 12.7567 23.5234V23.529V23.5346V23.5403V23.5459V23.5515V23.5571V23.5628V23.5684V23.5741V23.5797V23.5854V23.591V23.5967V23.6024V23.6081V23.6137V23.6194V23.6251V23.6308V23.6365V23.6422V23.6479V23.6536V23.6593V23.6651V23.6708V23.6765V23.6823V23.688V23.6937V23.6995V23.7052V23.711V23.7168V23.7225V23.7283V23.7341V23.7399V23.7456V23.7514V23.7572V23.763V23.7688V23.7746V23.7804V23.7862V23.7921V23.7979V23.8037V23.8095V23.8154V23.8212V23.8271V23.8329V23.8388V23.8446V23.8505V23.8563V23.8622V23.8681V23.8739V23.8798V23.8857V23.8916V23.8975V23.9034V23.9093V23.9152V23.9211V23.927V23.9329V23.9388V23.9447V23.9507V23.9566V23.9625V23.9685V23.9744V23.9804V23.9863V23.9923V23.9982V24.0042V24.0101V24.0161V24.0221V24.028V24.034V24.04V24.046V24.052V24.058V24.064V24.07V24.076V24.082V24.088V24.094V24.1V24.106V24.1121V24.1181V24.1241V24.1302V24.1362V24.1422V24.1483V24.1543V24.1604V24.1664V24.1725V24.1785V24.1846V24.1907V24.1967V24.2028V24.2089V24.215V24.2211V24.2271V24.2332V24.2393V24.2454V24.2515V24.2576V24.2637V24.2698V24.276V24.2821V24.2882V24.2943V24.3004V24.3066V24.3127V24.3188V24.3249V24.3311V24.3372V24.3434V24.3495V24.3557V24.3618V24.368V24.3741V24.3803V24.3865V24.3926V24.3988V24.405V24.4111V24.4173V24.4235V24.4297V24.4359V24.4421V24.4482V24.4544V24.4606V24.4668V24.473V24.4792V24.4854V24.4917V24.4979V24.5041V24.5103V24.5165V24.5227V24.529V24.5352V24.5414V24.5477V24.5539V24.5601V24.5664V24.5726V24.5788V24.5851V24.5913V24.5976V24.6038V24.6101V24.6164V24.6226V24.6289V24.6351V24.6414V24.6477V24.6539V24.6602V24.6665V24.6728V24.6791V24.6853V24.6916V24.6979V24.7042V24.7105V24.7168V24.7231V24.7294V24.7357V24.742V24.7483V24.7546V24.7609V24.7672V24.7735V24.7798V24.7861V24.7924V24.7987V24.8051V24.8114V24.8177V24.824V24.8304V24.8367V24.843V24.8493V24.8557V24.862V24.8683V24.8747V24.881V24.8874V24.8937V24.9001V24.9064V24.9128V24.9191V24.9255V24.9318V24.9382V24.9445V24.9509V24.9572V24.9636V24.97V24.9763V24.9827V24.989V24.9954V25.0018V25.0082V25.0145V25.0209V25.0273V25.0336V25.04V25.0464V25.0528V25.0592V25.0655V25.0719V25.0783V25.0847V25.0911V25.0975V25.1039V25.1103V25.1166V25.123V25.1294V25.1358V25.1422V25.1486V25.155V25.1614V25.1678V25.1742V25.1806V25.187V25.1934V25.1998V25.2062V25.2127V25.2191V25.2255V25.2319V25.2383V25.2447V25.2511V25.2575V25.2639V25.2704V25.2768V25.2832V25.2896V25.296V25.3024V25.3089V25.3153V25.3217V25.3281V25.3345V25.341V25.3474V25.3538V25.3602V25.3667V25.3731V25.3795V25.3859V25.3924V25.3988V25.4052V25.4117V25.4181V25.4245V25.431V25.4374V25.4438V25.4502V25.4567V25.4631V25.4695V25.476V25.4824V25.4888V25.4953V25.5017V25.5081V25.5146V25.521V25.5275V25.5339V25.5403V25.5468V25.5532V25.5596V25.5661V25.5725V25.5789V25.5854V25.5918V25.5983V25.6047V25.6111V25.6176V25.624V25.6304V25.6369V25.6433V25.6497V25.6562V25.6626V25.6691V25.6755V25.6819V25.6884V25.6948V25.7012V25.7077V25.7141V25.7206V25.727V25.7334V25.7399V25.7463V25.7527V25.7592V25.7656V25.772V25.7785V25.7849V25.7913V25.7978V25.8042V25.8106V25.8171V25.8235V25.8299V25.8363V25.8428V25.8492V25.8556V25.8621V25.8685V25.8749V25.8813V25.8878V25.8942V25.9006V25.907V25.9135V25.9199V25.9263V25.9327V25.9391V25.9456V25.952V25.9584V25.9648V25.9712V25.9777V25.9841V25.9905V25.9969V26.0033V26.0097V26.0161V26.0225V26.029V26.0354V26.0418V26.0482V26.0546V26.061V26.0674V26.0738V26.0802V26.0866V26.093V26.0994V26.1058V26.1122V26.1186V26.125V26.1314V26.1378V26.1442V26.1506V26.1569V26.1633V26.1697V26.1761V26.1825V26.1889V26.1953V26.2016V26.208V26.2144V26.2208V26.2271V26.2335V26.2399V26.2463V26.2526V26.259V26.2654V26.2717V26.2781V26.2845V26.2908V26.2972V26.3035V26.3099V26.3163V26.3226V26.329V26.3353V26.3417V26.348V26.3544V26.3607V26.367V26.3734V26.3797V26.3861V26.3924V26.3987V26.4051V26.4114V26.4177V26.424V26.4304V26.4367V26.443V26.4493V26.4557V26.462V26.4683V26.4746V26.4809V26.4872V26.4935V26.4998V26.5061V26.5124V26.5187V26.525V26.5313V26.5376V26.5439V26.5502V26.5565V26.5628V26.5691V26.5753V26.5816V26.5879V26.5942V26.6004V26.6067V26.613V26.6192V26.6255V26.6318V26.638V26.6443V26.6505V26.6568V26.663V26.6693V26.6755V26.6818V26.688V26.6942V26.7005V26.7067V26.7129ZM22.1576 16.7214C21.5483 17.265 20.6519 17.6331 19.5087 17.8291C18.1164 17.4412 17.2139 17.0718 16.6491 16.5709C16.111 16.0937 15.8317 15.451 15.8317 14.3535C15.8317 13.2093 16.2058 12.3532 16.8153 11.7807C17.4289 11.2043 18.3337 10.8666 19.4817 10.8666C20.6189 10.8666 21.5253 11.2291 22.144 11.8235C22.761 12.4163 23.1317 13.2772 23.1317 14.3535C23.1317 15.4197 22.7684 16.1765 22.1576 16.7214ZM25.2067 23.5234V26.2129H13.7567V26.208V26.2016V26.1953V26.1889V26.1825V26.1761V26.1697V26.1633V26.1569V26.1506V26.1442V26.1378V26.1314V26.125V26.1186V26.1122V26.1058V26.0994V26.093V26.0866V26.0802V26.0738V26.0674V26.061V26.0546V26.0482V26.0418V26.0354V26.029V26.0225V26.0161V26.0097V26.0033V25.9969V25.9905V25.9841V25.9777V25.9712V25.9648V25.9584V25.952V25.9456V25.9391V25.9327V25.9263V25.9199V25.9135V25.907V25.9006V25.8942V25.8878V25.8813V25.8749V25.8685V25.8621V25.8556V25.8492V25.8428V25.8363V25.8299V25.8235V25.8171V25.8106V25.8042V25.7978V25.7913V25.7849V25.7785V25.772V25.7656V25.7592V25.7527V25.7463V25.7399V25.7334V25.727V25.7206V25.7141V25.7077V25.7012V25.6948V25.6884V25.6819V25.6755V25.6691V25.6626V25.6562V25.6497V25.6433V25.6369V25.6304V25.624V25.6176V25.6111V25.6047V25.5983V25.5918V25.5854V25.5789V25.5725V25.5661V25.5596V25.5532V25.5468V25.5403V25.5339V25.5275V25.521V25.5146V25.5081V25.5017V25.4953V25.4888V25.4824V25.476V25.4695V25.4631V25.4567V25.4502V25.4438V25.4374V25.431V25.4245V25.4181V25.4117V25.4052V25.3988V25.3924V25.3859V25.3795V25.3731V25.3667V25.3602V25.3538V25.3474V25.341V25.3345V25.3281V25.3217V25.3153V25.3089V25.3024V25.296V25.2896V25.2832V25.2768V25.2704V25.2639V25.2575V25.2511V25.2447V25.2383V25.2319V25.2255V25.2191V25.2127V25.2062V25.1998V25.1934V25.187V25.1806V25.1742V25.1678V25.1614V25.155V25.1486V25.1422V25.1358V25.1294V25.123V25.1166V25.1103V25.1039V25.0975V25.0911V25.0847V25.0783V25.0719V25.0655V25.0592V25.0528V25.0464V25.04V25.0336V25.0273V25.0209V25.0145V25.0082V25.0018V24.9954V24.989V24.9827V24.9763V24.97V24.9636V24.9572V24.9509V24.9445V24.9382V24.9318V24.9255V24.9191V24.9128V24.9064V24.9001V24.8937V24.8874V24.881V24.8747V24.8683V24.862V24.8557V24.8493V24.843V24.8367V24.8304V24.824V24.8177V24.8114V24.8051V24.7987V24.7924V24.7861V24.7798V24.7735V24.7672V24.7609V24.7546V24.7483V24.742V24.7357V24.7294V24.7231V24.7168V24.7105V24.7042V24.6979V24.6916V24.6853V24.6791V24.6728V24.6665V24.6602V24.6539V24.6477V24.6414V24.6351V24.6289V24.6226V24.6164V24.6101V24.6038V24.5976V24.5913V24.5851V24.5788V24.5726V24.5664V24.5601V24.5539V24.5477V24.5414V24.5352V24.529V24.5227V24.5165V24.5103V24.5041V24.4979V24.4917V24.4854V24.4792V24.473V24.4668V24.4606V24.4544V24.4482V24.4421V24.4359V24.4297V24.4235V24.4173V24.4111V24.405V24.3988V24.3926V24.3865V24.3803V24.3741V24.368V24.3618V24.3557V24.3495V24.3434V24.3372V24.3311V24.3249V24.3188V24.3127V24.3066V24.3004V24.2943V24.2882V24.2821V24.276V24.2698V24.2637V24.2576V24.2515V24.2454V24.2393V24.2332V24.2271V24.2211V24.215V24.2089V24.2028V24.1967V24.1907V24.1846V24.1785V24.1725V24.1664V24.1604V24.1543V24.1483V24.1422V24.1362V24.1302V24.1241V24.1181V24.1121V24.106V24.1V24.094V24.088V24.082V24.076V24.07V24.064V24.058V24.052V24.046V24.04V24.034V24.028V24.0221V24.0161V24.0101V24.0042V23.9982V23.9923V23.9863V23.9804V23.9744V23.9685V23.9625V23.9566V23.9507V23.9447V23.9388V23.9329V23.927V23.9211V23.9152V23.9093V23.9034V23.8975V23.8916V23.8857V23.8798V23.8739V23.8681V23.8622V23.8563V23.8505V23.8446V23.8388V23.8329V23.8271V23.8212V23.8154V23.8095V23.8037V23.7979V23.7921V23.7862V23.7804V23.7746V23.7688V23.763V23.7572V23.7514V23.7456V23.7399V23.7341V23.7283V23.7225V23.7168V23.711V23.7052V23.6995V23.6937V23.688V23.6823V23.6765V23.6708V23.6651V23.6593V23.6536V23.6479V23.6422V23.6365V23.6308V23.6251V23.6194V23.6137V23.6081V23.6024V23.5967V23.591V23.5854V23.5797V23.5741V23.5684V23.5628V23.5571V23.5515V23.5459V23.5403V23.5346V23.529V23.5234C13.7567 23.3153 13.8357 22.9106 14.0486 22.4021C14.2573 21.9039 14.5809 21.3392 15.0365 20.8094C15.9404 19.7582 17.3641 18.8404 19.4817 18.8404C22.9049 18.8404 25.2067 21.4525 25.2067 23.5234ZM39.3398 19.1372C39.3398 29.4116 30.6643 37.7745 19.9199 37.7745C9.1755 37.7745 0.5 29.4116 0.5 19.1372C0.5 8.86287 9.1755 0.5 19.9199 0.5C30.6643 0.5 39.3398 8.86287 39.3398 19.1372Z" stroke="white"/>
<path d="M113.685 23.5234C113.685 21.4696 111.788 19.1218 108.941 18.4989M100.735 26.7129V27.2129H101.235H113.685H114.185V26.7129V23.5234C114.185 21.3679 112.39 19.0508 109.707 18.1891C110.113 17.9919 110.482 17.7533 110.802 17.4676C111.643 16.7168 112.11 15.6794 112.11 14.3535C112.11 13.0376 111.651 11.9051 110.815 11.1024C109.982 10.3014 108.813 9.86656 107.46 9.86656C106.118 9.86656 104.948 10.2639 104.109 11.0518C103.266 11.8436 102.81 12.9809 102.81 14.3535C102.81 15.6482 103.153 16.6002 103.964 17.3191C104.333 17.6462 104.787 17.9134 105.32 18.147C103.986 18.5533 102.979 19.3174 102.257 20.1574C101.727 20.7738 101.35 21.4301 101.105 22.0159C100.864 22.5913 100.735 23.1336 100.735 23.5234V23.529V23.5346V23.5403V23.5459V23.5515V23.5571V23.5628V23.5684V23.5741V23.5797V23.5854V23.591V23.5967V23.6024V23.6081V23.6137V23.6194V23.6251V23.6308V23.6365V23.6422V23.6479V23.6536V23.6593V23.6651V23.6708V23.6765V23.6823V23.688V23.6937V23.6995V23.7052V23.711V23.7168V23.7225V23.7283V23.7341V23.7399V23.7456V23.7514V23.7572V23.763V23.7688V23.7746V23.7804V23.7862V23.7921V23.7979V23.8037V23.8095V23.8154V23.8212V23.8271V23.8329V23.8388V23.8446V23.8505V23.8563V23.8622V23.8681V23.8739V23.8798V23.8857V23.8916V23.8975V23.9034V23.9093V23.9152V23.9211V23.927V23.9329V23.9388V23.9447V23.9507V23.9566V23.9625V23.9685V23.9744V23.9804V23.9863V23.9923V23.9982V24.0042V24.0101V24.0161V24.0221V24.028V24.034V24.04V24.046V24.052V24.058V24.064V24.07V24.076V24.082V24.088V24.094V24.1V24.106V24.1121V24.1181V24.1241V24.1302V24.1362V24.1422V24.1483V24.1543V24.1604V24.1664V24.1725V24.1785V24.1846V24.1907V24.1967V24.2028V24.2089V24.215V24.2211V24.2271V24.2332V24.2393V24.2454V24.2515V24.2576V24.2637V24.2698V24.276V24.2821V24.2882V24.2943V24.3004V24.3066V24.3127V24.3188V24.3249V24.3311V24.3372V24.3434V24.3495V24.3557V24.3618V24.368V24.3741V24.3803V24.3865V24.3926V24.3988V24.405V24.4111V24.4173V24.4235V24.4297V24.4359V24.4421V24.4482V24.4544V24.4606V24.4668V24.473V24.4792V24.4854V24.4917V24.4979V24.5041V24.5103V24.5165V24.5227V24.529V24.5352V24.5414V24.5477V24.5539V24.5601V24.5664V24.5726V24.5788V24.5851V24.5913V24.5976V24.6038V24.6101V24.6164V24.6226V24.6289V24.6351V24.6414V24.6477V24.6539V24.6602V24.6665V24.6728V24.6791V24.6853V24.6916V24.6979V24.7042V24.7105V24.7168V24.7231V24.7294V24.7357V24.742V24.7483V24.7546V24.7609V24.7672V24.7735V24.7798V24.7861V24.7924V24.7987V24.8051V24.8114V24.8177V24.824V24.8304V24.8367V24.843V24.8493V24.8557V24.862V24.8683V24.8747V24.881V24.8874V24.8937V24.9001V24.9064V24.9128V24.9191V24.9255V24.9318V24.9382V24.9445V24.9509V24.9572V24.9636V24.97V24.9763V24.9827V24.989V24.9954V25.0018V25.0082V25.0145V25.0209V25.0273V25.0336V25.04V25.0464V25.0528V25.0592V25.0655V25.0719V25.0783V25.0847V25.0911V25.0975V25.1039V25.1103V25.1166V25.123V25.1294V25.1358V25.1422V25.1486V25.155V25.1614V25.1678V25.1742V25.1806V25.187V25.1934V25.1998V25.2062V25.2127V25.2191V25.2255V25.2319V25.2383V25.2447V25.2511V25.2575V25.2639V25.2704V25.2768V25.2832V25.2896V25.296V25.3024V25.3089V25.3153V25.3217V25.3281V25.3345V25.341V25.3474V25.3538V25.3602V25.3667V25.3731V25.3795V25.3859V25.3924V25.3988V25.4052V25.4117V25.4181V25.4245V25.431V25.4374V25.4438V25.4502V25.4567V25.4631V25.4695V25.476V25.4824V25.4888V25.4953V25.5017V25.5081V25.5146V25.521V25.5275V25.5339V25.5403V25.5468V25.5532V25.5596V25.5661V25.5725V25.5789V25.5854V25.5918V25.5983V25.6047V25.6111V25.6176V25.624V25.6304V25.6369V25.6433V25.6497V25.6562V25.6626V25.6691V25.6755V25.6819V25.6884V25.6948V25.7012V25.7077V25.7141V25.7206V25.727V25.7334V25.7399V25.7463V25.7527V25.7592V25.7656V25.772V25.7785V25.7849V25.7913V25.7978V25.8042V25.8106V25.8171V25.8235V25.8299V25.8363V25.8428V25.8492V25.8556V25.8621V25.8685V25.8749V25.8813V25.8878V25.8942V25.9006V25.907V25.9135V25.9199V25.9263V25.9327V25.9391V25.9456V25.952V25.9584V25.9648V25.9712V25.9777V25.9841V25.9905V25.9969V26.0033V26.0097V26.0161V26.0225V26.029V26.0354V26.0418V26.0482V26.0546V26.061V26.0674V26.0738V26.0802V26.0866V26.093V26.0994V26.1058V26.1122V26.1186V26.125V26.1314V26.1378V26.1442V26.1506V26.1569V26.1633V26.1697V26.1761V26.1825V26.1889V26.1953V26.2016V26.208V26.2144V26.2208V26.2271V26.2335V26.2399V26.2463V26.2526V26.259V26.2654V26.2717V26.2781V26.2845V26.2908V26.2972V26.3035V26.3099V26.3163V26.3226V26.329V26.3353V26.3417V26.348V26.3544V26.3607V26.367V26.3734V26.3797V26.3861V26.3924V26.3987V26.4051V26.4114V26.4177V26.424V26.4304V26.4367V26.443V26.4493V26.4557V26.462V26.4683V26.4746V26.4809V26.4872V26.4935V26.4998V26.5061V26.5124V26.5187V26.525V26.5313V26.5376V26.5439V26.5502V26.5565V26.5628V26.5691V26.5753V26.5816V26.5879V26.5942V26.6004V26.6067V26.613V26.6192V26.6255V26.6318V26.638V26.6443V26.6505V26.6568V26.663V26.6693V26.6755V26.6818V26.688V26.6942V26.7005V26.7067V26.7129ZM110.136 16.7214C109.527 17.265 108.63 17.6331 107.487 17.8291C106.095 17.4412 105.192 17.0718 104.628 16.5709C104.089 16.0937 103.81 15.451 103.81 14.3535C103.81 13.2093 104.184 12.3532 104.794 11.7807C105.407 11.2043 106.312 10.8666 107.46 10.8666C108.597 10.8666 109.504 11.2291 110.123 11.8235C110.739 12.4163 111.11 13.2772 111.11 14.3535C111.11 15.4197 110.747 16.1765 110.136 16.7214ZM113.185 23.5234V26.2129H101.735V26.208V26.2016V26.1953V26.1889V26.1825V26.1761V26.1697V26.1633V26.1569V26.1506V26.1442V26.1378V26.1314V26.125V26.1186V26.1122V26.1058V26.0994V26.093V26.0866V26.0802V26.0738V26.0674V26.061V26.0546V26.0482V26.0418V26.0354V26.029V26.0225V26.0161V26.0097V26.0033V25.9969V25.9905V25.9841V25.9777V25.9712V25.9648V25.9584V25.952V25.9456V25.9391V25.9327V25.9263V25.9199V25.9135V25.907V25.9006V25.8942V25.8878V25.8813V25.8749V25.8685V25.8621V25.8556V25.8492V25.8428V25.8363V25.8299V25.8235V25.8171V25.8106V25.8042V25.7978V25.7913V25.7849V25.7785V25.772V25.7656V25.7592V25.7527V25.7463V25.7399V25.7334V25.727V25.7206V25.7141V25.7077V25.7012V25.6948V25.6884V25.6819V25.6755V25.6691V25.6626V25.6562V25.6497V25.6433V25.6369V25.6304V25.624V25.6176V25.6111V25.6047V25.5983V25.5918V25.5854V25.5789V25.5725V25.5661V25.5596V25.5532V25.5468V25.5403V25.5339V25.5275V25.521V25.5146V25.5081V25.5017V25.4953V25.4888V25.4824V25.476V25.4695V25.4631V25.4567V25.4502V25.4438V25.4374V25.431V25.4245V25.4181V25.4117V25.4052V25.3988V25.3924V25.3859V25.3795V25.3731V25.3667V25.3602V25.3538V25.3474V25.341V25.3345V25.3281V25.3217V25.3153V25.3089V25.3024V25.296V25.2896V25.2832V25.2768V25.2704V25.2639V25.2575V25.2511V25.2447V25.2383V25.2319V25.2255V25.2191V25.2127V25.2062V25.1998V25.1934V25.187V25.1806V25.1742V25.1678V25.1614V25.155V25.1486V25.1422V25.1358V25.1294V25.123V25.1166V25.1103V25.1039V25.0975V25.0911V25.0847V25.0783V25.0719V25.0655V25.0592V25.0528V25.0464V25.04V25.0336V25.0273V25.0209V25.0145V25.0082V25.0018V24.9954V24.989V24.9827V24.9763V24.97V24.9636V24.9572V24.9509V24.9445V24.9382V24.9318V24.9255V24.9191V24.9128V24.9064V24.9001V24.8937V24.8874V24.881V24.8747V24.8683V24.862V24.8557V24.8493V24.843V24.8367V24.8304V24.824V24.8177V24.8114V24.8051V24.7987V24.7924V24.7861V24.7798V24.7735V24.7672V24.7609V24.7546V24.7483V24.742V24.7357V24.7294V24.7231V24.7168V24.7105V24.7042V24.6979V24.6916V24.6853V24.6791V24.6728V24.6665V24.6602V24.6539V24.6477V24.6414V24.6351V24.6289V24.6226V24.6164V24.6101V24.6038V24.5976V24.5913V24.5851V24.5788V24.5726V24.5664V24.5601V24.5539V24.5477V24.5414V24.5352V24.529V24.5227V24.5165V24.5103V24.5041V24.4979V24.4917V24.4854V24.4792V24.473V24.4668V24.4606V24.4544V24.4482V24.4421V24.4359V24.4297V24.4235V24.4173V24.4111V24.405V24.3988V24.3926V24.3865V24.3803V24.3741V24.368V24.3618V24.3557V24.3495V24.3434V24.3372V24.3311V24.3249V24.3188V24.3127V24.3066V24.3004V24.2943V24.2882V24.2821V24.276V24.2698V24.2637V24.2576V24.2515V24.2454V24.2393V24.2332V24.2271V24.2211V24.215V24.2089V24.2028V24.1967V24.1907V24.1846V24.1785V24.1725V24.1664V24.1604V24.1543V24.1483V24.1422V24.1362V24.1302V24.1241V24.1181V24.1121V24.106V24.1V24.094V24.088V24.082V24.076V24.07V24.064V24.058V24.052V24.046V24.04V24.034V24.028V24.0221V24.0161V24.0101V24.0042V23.9982V23.9923V23.9863V23.9804V23.9744V23.9685V23.9625V23.9566V23.9507V23.9447V23.9388V23.9329V23.927V23.9211V23.9152V23.9093V23.9034V23.8975V23.8916V23.8857V23.8798V23.8739V23.8681V23.8622V23.8563V23.8505V23.8446V23.8388V23.8329V23.8271V23.8212V23.8154V23.8095V23.8037V23.7979V23.7921V23.7862V23.7804V23.7746V23.7688V23.763V23.7572V23.7514V23.7456V23.7399V23.7341V23.7283V23.7225V23.7168V23.711V23.7052V23.6995V23.6937V23.688V23.6823V23.6765V23.6708V23.6651V23.6593V23.6536V23.6479V23.6422V23.6365V23.6308V23.6251V23.6194V23.6137V23.6081V23.6024V23.5967V23.591V23.5854V23.5797V23.5741V23.5684V23.5628V23.5571V23.5515V23.5459V23.5403V23.5346V23.529V23.5234C101.735 23.3153 101.814 22.9106 102.027 22.4021C102.236 21.9039 102.559 21.3392 103.015 20.8094C103.919 19.7582 105.343 18.8404 107.46 18.8404C110.883 18.8404 113.185 21.4525 113.185 23.5234ZM127.318 19.1372C127.318 29.4116 118.643 37.7745 107.898 37.7745C97.154 37.7745 88.4785 29.4116 88.4785 19.1372C88.4785 8.86287 97.154 0.5 107.898 0.5C118.643 0.5 127.318 8.86287 127.318 19.1372Z" stroke="white"/>
<path d="M113.685 107.249C113.685 105.195 111.788 102.847 108.941 102.224M100.735 110.439V110.939H101.235H113.685H114.185V110.439V107.249C114.185 105.094 112.39 102.776 109.707 101.915C110.113 101.717 110.482 101.479 110.802 101.193C111.643 100.442 112.11 99.405 112.11 98.0791C112.11 96.7632 111.651 95.6307 110.815 94.828C109.982 94.027 108.813 93.5921 107.46 93.5921C106.118 93.5921 104.948 93.9895 104.109 94.7774C103.266 95.5692 102.81 96.7065 102.81 98.0791C102.81 99.3738 103.153 100.326 103.964 101.045C104.333 101.372 104.787 101.639 105.32 101.873C103.986 102.279 102.979 103.043 102.257 103.883C101.727 104.499 101.35 105.156 101.105 105.741C100.864 106.317 100.735 106.859 100.735 107.249V107.255V107.26V107.266V107.271V107.277V107.283V107.288V107.294V107.3V107.305V107.311V107.317V107.322V107.328V107.334V107.339V107.345V107.351V107.356V107.362V107.368V107.374V107.379V107.385V107.391V107.396V107.402V107.408V107.414V107.419V107.425V107.431V107.437V107.442V107.448V107.454V107.46V107.465V107.471V107.477V107.483V107.489V107.494V107.5V107.506V107.512V107.518V107.523V107.529V107.535V107.541V107.547V107.553V107.558V107.564V107.57V107.576V107.582V107.588V107.594V107.6V107.605V107.611V107.617V107.623V107.629V107.635V107.641V107.647V107.653V107.658V107.664V107.67V107.676V107.682V107.688V107.694V107.7V107.706V107.712V107.718V107.724V107.73V107.736V107.742V107.748V107.754V107.76V107.766V107.772V107.778V107.784V107.79V107.796V107.802V107.808V107.814V107.82V107.826V107.832V107.838V107.844V107.85V107.856V107.862V107.868V107.874V107.88V107.886V107.892V107.898V107.904V107.91V107.916V107.922V107.928V107.934V107.941V107.947V107.953V107.959V107.965V107.971V107.977V107.983V107.989V107.995V108.002V108.008V108.014V108.02V108.026V108.032V108.038V108.044V108.051V108.057V108.063V108.069V108.075V108.081V108.087V108.094V108.1V108.106V108.112V108.118V108.124V108.131V108.137V108.143V108.149V108.155V108.161V108.168V108.174V108.18V108.186V108.192V108.199V108.205V108.211V108.217V108.223V108.23V108.236V108.242V108.248V108.255V108.261V108.267V108.273V108.279V108.286V108.292V108.298V108.304V108.311V108.317V108.323V108.329V108.336V108.342V108.348V108.354V108.361V108.367V108.373V108.38V108.386V108.392V108.398V108.405V108.411V108.417V108.423V108.43V108.436V108.442V108.449V108.455V108.461V108.468V108.474V108.48V108.486V108.493V108.499V108.505V108.512V108.518V108.524V108.531V108.537V108.543V108.55V108.556V108.562V108.569V108.575V108.581V108.588V108.594V108.6V108.607V108.613V108.619V108.626V108.632V108.638V108.645V108.651V108.657V108.664V108.67V108.676V108.683V108.689V108.696V108.702V108.708V108.715V108.721V108.727V108.734V108.74V108.746V108.753V108.759V108.766V108.772V108.778V108.785V108.791V108.798V108.804V108.81V108.817V108.823V108.829V108.836V108.842V108.849V108.855V108.861V108.868V108.874V108.881V108.887V108.893V108.9V108.906V108.913V108.919V108.925V108.932V108.938V108.945V108.951V108.957V108.964V108.97V108.977V108.983V108.99V108.996V109.002V109.009V109.015V109.022V109.028V109.034V109.041V109.047V109.054V109.06V109.067V109.073V109.079V109.086V109.092V109.099V109.105V109.112V109.118V109.124V109.131V109.137V109.144V109.15V109.157V109.163V109.169V109.176V109.182V109.189V109.195V109.202V109.208V109.214V109.221V109.227V109.234V109.24V109.247V109.253V109.259V109.266V109.272V109.279V109.285V109.292V109.298V109.305V109.311V109.317V109.324V109.33V109.337V109.343V109.35V109.356V109.362V109.369V109.375V109.382V109.388V109.395V109.401V109.408V109.414V109.42V109.427V109.433V109.44V109.446V109.453V109.459V109.465V109.472V109.478V109.485V109.491V109.498V109.504V109.51V109.517V109.523V109.53V109.536V109.543V109.549V109.556V109.562V109.568V109.575V109.581V109.588V109.594V109.6V109.607V109.613V109.62V109.626V109.633V109.639V109.645V109.652V109.658V109.665V109.671V109.678V109.684V109.69V109.697V109.703V109.71V109.716V109.722V109.729V109.735V109.742V109.748V109.755V109.761V109.767V109.774V109.78V109.787V109.793V109.799V109.806V109.812V109.819V109.825V109.831V109.838V109.844V109.851V109.857V109.863V109.87V109.876V109.883V109.889V109.895V109.902V109.908V109.914V109.921V109.927V109.934V109.94V109.946V109.953V109.959V109.965V109.972V109.978V109.985V109.991V109.997V110.004V110.01V110.016V110.023V110.029V110.035V110.042V110.048V110.055V110.061V110.067V110.074V110.08V110.086V110.093V110.099V110.105V110.112V110.118V110.124V110.131V110.137V110.143V110.15V110.156V110.162V110.169V110.175V110.181V110.188V110.194V110.2V110.206V110.213V110.219V110.225V110.232V110.238V110.244V110.251V110.257V110.263V110.269V110.276V110.282V110.288V110.295V110.301V110.307V110.313V110.32V110.326V110.332V110.339V110.345V110.351V110.357V110.364V110.37V110.376V110.382V110.389V110.395V110.401V110.407V110.414V110.42V110.426V110.432V110.439ZM110.136 100.447C109.527 100.991 108.63 101.359 107.487 101.555C106.095 101.167 105.192 100.797 104.628 100.296C104.089 99.8193 103.81 99.1766 103.81 98.0791C103.81 96.9349 104.184 96.0788 104.794 95.5063C105.407 94.9299 106.312 94.5921 107.46 94.5921C108.597 94.5921 109.504 94.9547 110.123 95.5491C110.739 96.1418 111.11 97.0028 111.11 98.0791C111.11 99.1453 110.747 99.9021 110.136 100.447ZM113.185 107.249V109.939H101.735V109.934V109.927V109.921V109.914V109.908V109.902V109.895V109.889V109.883V109.876V109.87V109.863V109.857V109.851V109.844V109.838V109.831V109.825V109.819V109.812V109.806V109.799V109.793V109.787V109.78V109.774V109.767V109.761V109.755V109.748V109.742V109.735V109.729V109.722V109.716V109.71V109.703V109.697V109.69V109.684V109.678V109.671V109.665V109.658V109.652V109.645V109.639V109.633V109.626V109.62V109.613V109.607V109.6V109.594V109.588V109.581V109.575V109.568V109.562V109.556V109.549V109.543V109.536V109.53V109.523V109.517V109.51V109.504V109.498V109.491V109.485V109.478V109.472V109.465V109.459V109.453V109.446V109.44V109.433V109.427V109.42V109.414V109.408V109.401V109.395V109.388V109.382V109.375V109.369V109.362V109.356V109.35V109.343V109.337V109.33V109.324V109.317V109.311V109.305V109.298V109.292V109.285V109.279V109.272V109.266V109.259V109.253V109.247V109.24V109.234V109.227V109.221V109.214V109.208V109.202V109.195V109.189V109.182V109.176V109.169V109.163V109.157V109.15V109.144V109.137V109.131V109.124V109.118V109.112V109.105V109.099V109.092V109.086V109.079V109.073V109.067V109.06V109.054V109.047V109.041V109.034V109.028V109.022V109.015V109.009V109.002V108.996V108.99V108.983V108.977V108.97V108.964V108.957V108.951V108.945V108.938V108.932V108.925V108.919V108.913V108.906V108.9V108.893V108.887V108.881V108.874V108.868V108.861V108.855V108.849V108.842V108.836V108.829V108.823V108.817V108.81V108.804V108.798V108.791V108.785V108.778V108.772V108.766V108.759V108.753V108.746V108.74V108.734V108.727V108.721V108.715V108.708V108.702V108.696V108.689V108.683V108.676V108.67V108.664V108.657V108.651V108.645V108.638V108.632V108.626V108.619V108.613V108.607V108.6V108.594V108.588V108.581V108.575V108.569V108.562V108.556V108.55V108.543V108.537V108.531V108.524V108.518V108.512V108.505V108.499V108.493V108.486V108.48V108.474V108.468V108.461V108.455V108.449V108.442V108.436V108.43V108.423V108.417V108.411V108.405V108.398V108.392V108.386V108.38V108.373V108.367V108.361V108.354V108.348V108.342V108.336V108.329V108.323V108.317V108.311V108.304V108.298V108.292V108.286V108.279V108.273V108.267V108.261V108.255V108.248V108.242V108.236V108.23V108.223V108.217V108.211V108.205V108.199V108.192V108.186V108.18V108.174V108.168V108.161V108.155V108.149V108.143V108.137V108.131V108.124V108.118V108.112V108.106V108.1V108.094V108.087V108.081V108.075V108.069V108.063V108.057V108.051V108.044V108.038V108.032V108.026V108.02V108.014V108.008V108.002V107.995V107.989V107.983V107.977V107.971V107.965V107.959V107.953V107.947V107.941V107.934V107.928V107.922V107.916V107.91V107.904V107.898V107.892V107.886V107.88V107.874V107.868V107.862V107.856V107.85V107.844V107.838V107.832V107.826V107.82V107.814V107.808V107.802V107.796V107.79V107.784V107.778V107.772V107.766V107.76V107.754V107.748V107.742V107.736V107.73V107.724V107.718V107.712V107.706V107.7V107.694V107.688V107.682V107.676V107.67V107.664V107.658V107.653V107.647V107.641V107.635V107.629V107.623V107.617V107.611V107.605V107.6V107.594V107.588V107.582V107.576V107.57V107.564V107.558V107.553V107.547V107.541V107.535V107.529V107.523V107.518V107.512V107.506V107.5V107.494V107.489V107.483V107.477V107.471V107.465V107.46V107.454V107.448V107.442V107.437V107.431V107.425V107.419V107.414V107.408V107.402V107.396V107.391V107.385V107.379V107.374V107.368V107.362V107.356V107.351V107.345V107.339V107.334V107.328V107.322V107.317V107.311V107.305V107.3V107.294V107.288V107.283V107.277V107.271V107.266V107.26V107.255V107.249C101.735 107.041 101.814 106.636 102.027 106.128C102.236 105.629 102.559 105.065 103.015 104.535C103.919 103.484 105.343 102.566 107.46 102.566C110.883 102.566 113.185 105.178 113.185 107.249ZM127.318 102.863C127.318 113.137 118.643 121.5 107.898 121.5C97.154 121.5 88.4785 113.137 88.4785 102.863C88.4785 92.5885 97.154 84.2256 107.898 84.2256C118.643 84.2256 127.318 92.5885 127.318 102.863Z" stroke="white"/>
<path d="M25.7067 107.249C25.7067 105.195 23.81 102.847 20.9621 102.224M12.7567 110.439V110.939H13.2567H25.7067H26.2067V110.439V107.249C26.2067 105.094 24.4118 102.776 21.7284 101.915C22.1349 101.717 22.503 101.479 22.8233 101.193C23.6649 100.442 24.1317 99.405 24.1317 98.0791C24.1317 96.7632 23.6724 95.6307 22.8368 94.828C22.0031 94.027 20.8344 93.5921 19.4817 93.5921C18.1397 93.5921 16.9695 93.9895 16.1306 94.7774C15.2876 95.5692 14.8317 96.7065 14.8317 98.0791C14.8317 99.3738 15.1749 100.326 15.9856 101.045C16.3544 101.372 16.8085 101.639 17.3413 101.873C16.0073 102.279 15.0005 103.043 14.2782 103.883C13.7482 104.499 13.3715 105.156 13.1262 105.741C12.8852 106.317 12.7567 106.859 12.7567 107.249V107.255V107.26V107.266V107.271V107.277V107.283V107.288V107.294V107.3V107.305V107.311V107.317V107.322V107.328V107.334V107.339V107.345V107.351V107.356V107.362V107.368V107.374V107.379V107.385V107.391V107.396V107.402V107.408V107.414V107.419V107.425V107.431V107.437V107.442V107.448V107.454V107.46V107.465V107.471V107.477V107.483V107.489V107.494V107.5V107.506V107.512V107.518V107.523V107.529V107.535V107.541V107.547V107.553V107.558V107.564V107.57V107.576V107.582V107.588V107.594V107.6V107.605V107.611V107.617V107.623V107.629V107.635V107.641V107.647V107.653V107.658V107.664V107.67V107.676V107.682V107.688V107.694V107.7V107.706V107.712V107.718V107.724V107.73V107.736V107.742V107.748V107.754V107.76V107.766V107.772V107.778V107.784V107.79V107.796V107.802V107.808V107.814V107.82V107.826V107.832V107.838V107.844V107.85V107.856V107.862V107.868V107.874V107.88V107.886V107.892V107.898V107.904V107.91V107.916V107.922V107.928V107.934V107.941V107.947V107.953V107.959V107.965V107.971V107.977V107.983V107.989V107.995V108.002V108.008V108.014V108.02V108.026V108.032V108.038V108.044V108.051V108.057V108.063V108.069V108.075V108.081V108.087V108.094V108.1V108.106V108.112V108.118V108.124V108.131V108.137V108.143V108.149V108.155V108.161V108.168V108.174V108.18V108.186V108.192V108.199V108.205V108.211V108.217V108.223V108.23V108.236V108.242V108.248V108.255V108.261V108.267V108.273V108.279V108.286V108.292V108.298V108.304V108.311V108.317V108.323V108.329V108.336V108.342V108.348V108.354V108.361V108.367V108.373V108.38V108.386V108.392V108.398V108.405V108.411V108.417V108.423V108.43V108.436V108.442V108.449V108.455V108.461V108.468V108.474V108.48V108.486V108.493V108.499V108.505V108.512V108.518V108.524V108.531V108.537V108.543V108.55V108.556V108.562V108.569V108.575V108.581V108.588V108.594V108.6V108.607V108.613V108.619V108.626V108.632V108.638V108.645V108.651V108.657V108.664V108.67V108.676V108.683V108.689V108.696V108.702V108.708V108.715V108.721V108.727V108.734V108.74V108.746V108.753V108.759V108.766V108.772V108.778V108.785V108.791V108.798V108.804V108.81V108.817V108.823V108.829V108.836V108.842V108.849V108.855V108.861V108.868V108.874V108.881V108.887V108.893V108.9V108.906V108.913V108.919V108.925V108.932V108.938V108.945V108.951V108.957V108.964V108.97V108.977V108.983V108.99V108.996V109.002V109.009V109.015V109.022V109.028V109.034V109.041V109.047V109.054V109.06V109.067V109.073V109.079V109.086V109.092V109.099V109.105V109.112V109.118V109.124V109.131V109.137V109.144V109.15V109.157V109.163V109.169V109.176V109.182V109.189V109.195V109.202V109.208V109.214V109.221V109.227V109.234V109.24V109.247V109.253V109.259V109.266V109.272V109.279V109.285V109.292V109.298V109.305V109.311V109.317V109.324V109.33V109.337V109.343V109.35V109.356V109.362V109.369V109.375V109.382V109.388V109.395V109.401V109.408V109.414V109.42V109.427V109.433V109.44V109.446V109.453V109.459V109.465V109.472V109.478V109.485V109.491V109.498V109.504V109.51V109.517V109.523V109.53V109.536V109.543V109.549V109.556V109.562V109.568V109.575V109.581V109.588V109.594V109.6V109.607V109.613V109.62V109.626V109.633V109.639V109.645V109.652V109.658V109.665V109.671V109.678V109.684V109.69V109.697V109.703V109.71V109.716V109.722V109.729V109.735V109.742V109.748V109.755V109.761V109.767V109.774V109.78V109.787V109.793V109.799V109.806V109.812V109.819V109.825V109.831V109.838V109.844V109.851V109.857V109.863V109.87V109.876V109.883V109.889V109.895V109.902V109.908V109.914V109.921V109.927V109.934V109.94V109.946V109.953V109.959V109.965V109.972V109.978V109.985V109.991V109.997V110.004V110.01V110.016V110.023V110.029V110.035V110.042V110.048V110.055V110.061V110.067V110.074V110.08V110.086V110.093V110.099V110.105V110.112V110.118V110.124V110.131V110.137V110.143V110.15V110.156V110.162V110.169V110.175V110.181V110.188V110.194V110.2V110.206V110.213V110.219V110.225V110.232V110.238V110.244V110.251V110.257V110.263V110.269V110.276V110.282V110.288V110.295V110.301V110.307V110.313V110.32V110.326V110.332V110.339V110.345V110.351V110.357V110.364V110.37V110.376V110.382V110.389V110.395V110.401V110.407V110.414V110.42V110.426V110.432V110.439ZM22.1576 100.447C21.5483 100.991 20.6519 101.359 19.5087 101.555C18.1164 101.167 17.2139 100.797 16.6491 100.296C16.111 99.8193 15.8317 99.1766 15.8317 98.0791C15.8317 96.9349 16.2058 96.0788 16.8153 95.5063C17.4289 94.9299 18.3337 94.5921 19.4817 94.5921C20.6189 94.5921 21.5253 94.9547 22.144 95.5491C22.761 96.1418 23.1317 97.0028 23.1317 98.0791C23.1317 99.1453 22.7684 99.9021 22.1576 100.447ZM25.2067 107.249V109.939H13.7567V109.934V109.927V109.921V109.914V109.908V109.902V109.895V109.889V109.883V109.876V109.87V109.863V109.857V109.851V109.844V109.838V109.831V109.825V109.819V109.812V109.806V109.799V109.793V109.787V109.78V109.774V109.767V109.761V109.755V109.748V109.742V109.735V109.729V109.722V109.716V109.71V109.703V109.697V109.69V109.684V109.678V109.671V109.665V109.658V109.652V109.645V109.639V109.633V109.626V109.62V109.613V109.607V109.6V109.594V109.588V109.581V109.575V109.568V109.562V109.556V109.549V109.543V109.536V109.53V109.523V109.517V109.51V109.504V109.498V109.491V109.485V109.478V109.472V109.465V109.459V109.453V109.446V109.44V109.433V109.427V109.42V109.414V109.408V109.401V109.395V109.388V109.382V109.375V109.369V109.362V109.356V109.35V109.343V109.337V109.33V109.324V109.317V109.311V109.305V109.298V109.292V109.285V109.279V109.272V109.266V109.259V109.253V109.247V109.24V109.234V109.227V109.221V109.214V109.208V109.202V109.195V109.189V109.182V109.176V109.169V109.163V109.157V109.15V109.144V109.137V109.131V109.124V109.118V109.112V109.105V109.099V109.092V109.086V109.079V109.073V109.067V109.06V109.054V109.047V109.041V109.034V109.028V109.022V109.015V109.009V109.002V108.996V108.99V108.983V108.977V108.97V108.964V108.957V108.951V108.945V108.938V108.932V108.925V108.919V108.913V108.906V108.9V108.893V108.887V108.881V108.874V108.868V108.861V108.855V108.849V108.842V108.836V108.829V108.823V108.817V108.81V108.804V108.798V108.791V108.785V108.778V108.772V108.766V108.759V108.753V108.746V108.74V108.734V108.727V108.721V108.715V108.708V108.702V108.696V108.689V108.683V108.676V108.67V108.664V108.657V108.651V108.645V108.638V108.632V108.626V108.619V108.613V108.607V108.6V108.594V108.588V108.581V108.575V108.569V108.562V108.556V108.55V108.543V108.537V108.531V108.524V108.518V108.512V108.505V108.499V108.493V108.486V108.48V108.474V108.468V108.461V108.455V108.449V108.442V108.436V108.43V108.423V108.417V108.411V108.405V108.398V108.392V108.386V108.38V108.373V108.367V108.361V108.354V108.348V108.342V108.336V108.329V108.323V108.317V108.311V108.304V108.298V108.292V108.286V108.279V108.273V108.267V108.261V108.255V108.248V108.242V108.236V108.23V108.223V108.217V108.211V108.205V108.199V108.192V108.186V108.18V108.174V108.168V108.161V108.155V108.149V108.143V108.137V108.131V108.124V108.118V108.112V108.106V108.1V108.094V108.087V108.081V108.075V108.069V108.063V108.057V108.051V108.044V108.038V108.032V108.026V108.02V108.014V108.008V108.002V107.995V107.989V107.983V107.977V107.971V107.965V107.959V107.953V107.947V107.941V107.934V107.928V107.922V107.916V107.91V107.904V107.898V107.892V107.886V107.88V107.874V107.868V107.862V107.856V107.85V107.844V107.838V107.832V107.826V107.82V107.814V107.808V107.802V107.796V107.79V107.784V107.778V107.772V107.766V107.76V107.754V107.748V107.742V107.736V107.73V107.724V107.718V107.712V107.706V107.7V107.694V107.688V107.682V107.676V107.67V107.664V107.658V107.653V107.647V107.641V107.635V107.629V107.623V107.617V107.611V107.605V107.6V107.594V107.588V107.582V107.576V107.57V107.564V107.558V107.553V107.547V107.541V107.535V107.529V107.523V107.518V107.512V107.506V107.5V107.494V107.489V107.483V107.477V107.471V107.465V107.46V107.454V107.448V107.442V107.437V107.431V107.425V107.419V107.414V107.408V107.402V107.396V107.391V107.385V107.379V107.374V107.368V107.362V107.356V107.351V107.345V107.339V107.334V107.328V107.322V107.317V107.311V107.305V107.3V107.294V107.288V107.283V107.277V107.271V107.266V107.26V107.255V107.249C13.7567 107.041 13.8357 106.636 14.0486 106.128C14.2573 105.629 14.5809 105.065 15.0365 104.535C15.9404 103.484 17.3641 102.566 19.4817 102.566C22.9049 102.566 25.2067 105.178 25.2067 107.249ZM39.3398 102.863C39.3398 113.137 30.6643 121.5 19.9199 121.5C9.1755 121.5 0.5 113.137 0.5 102.863C0.5 92.5885 9.1755 84.2256 19.9199 84.2256C30.6643 84.2256 39.3398 92.5885 39.3398 102.863Z" stroke="white"/>
<path d="M62.1698 32.4428C56.5323 34.6992 47.9893 42.5801 48.5529 60.8987M48.5906 61.8987C49.4805 81.9165 57.8986 88.56 61.9407 90.3412M65.3999 90.3673C70.3035 88.1358 78.0017 80.2704 78.8168 61.8987M78.854 60.8987C79.4761 40.0715 68.8968 34.0167 65.1421 32.4191M49.6889 46.9996C53.4004 47.9139 58.0095 48.5986 63.411 48.6386M50.1159 75.0681C53.7202 74.1068 58.1694 73.4037 63.411 73.3614M76.777 74.7965C80.4051 75.7329 84.2054 77.2017 87.5655 79.4407M60.6102 90.2308C53.5153 89.4907 47.1603 86.3925 42.4101 81.7722C41.7604 81.1403 41.1407 80.48 40.5533 79.7933C42.145 78.5892 45.4217 76.8359 50.2592 75.5473C51.665 80.1423 53.5766 83.4692 55.536 85.8529C57.3105 88.0117 59.1182 89.389 60.6102 90.2308ZM71.5787 36.2174C69.7341 34.3748 67.8986 33.2162 66.4951 32.5C73.8784 33.1004 80.5023 36.2497 85.4119 41.0251C86.0359 41.632 86.6321 42.2651 87.1987 42.9226C84.3218 44.4027 80.9219 45.4989 77.5481 46.2943C76.0482 41.6746 73.8161 38.4523 71.5787 36.2174ZM77.8425 47.2523C81.3221 46.4281 84.8584 45.2806 87.8533 43.7094C91.6862 48.4838 94.0026 54.4341 94.1164 60.8987H79.3542C79.517 55.4032 78.9062 50.9147 77.8425 47.2523ZM79.3173 61.8987H94.1164C94.0029 68.3467 91.698 74.2831 87.8826 79.0513C84.6138 76.865 80.9381 75.4007 77.3997 74.4439C78.4047 70.9287 79.1024 66.7754 79.3173 61.8987ZM77.1133 75.4024C80.5362 76.3258 84.0869 77.7332 87.2411 79.8255C86.6619 80.5006 86.0514 81.1502 85.4119 81.7722C80.538 86.5128 73.9749 89.6509 66.6564 90.2838C70.1677 88.2731 74.5147 83.7309 77.1133 75.4024ZM64.411 90.2278V73.8353C67.0312 73.7334 71.4163 73.9916 76.1462 75.1533C73.1191 84.8138 67.7228 89.065 64.411 90.2278ZM78.3163 61.8987C78.1018 66.7009 77.4148 70.7684 76.4337 74.1942C71.5941 73 67.1105 72.7342 64.411 72.8347V61.8987H78.3163ZM63.411 49.1387V60.8987H49.0531C48.8909 55.6733 49.4755 51.3165 50.5195 47.7095C54.0978 48.5193 58.4226 49.102 63.411 49.1387ZM49.5469 47.4795C48.483 51.1747 47.8914 55.6116 48.0526 60.8987H33.7056C33.8191 54.4495 36.1248 48.5121 39.9414 43.7435C41.63 44.825 44.9001 46.3326 49.5469 47.4795ZM33.7056 61.8987H48.0902C48.3113 66.906 49.0006 71.093 49.9783 74.5874C45.0173 75.9116 41.6166 77.7256 39.9159 79.0219C36.1145 74.2586 33.8188 68.3334 33.7056 61.8987ZM50.9474 74.34C49.9919 70.9324 49.3118 66.8294 49.0911 61.8987H63.411V72.8614C58.5839 72.9 54.4152 73.4949 50.9474 74.34ZM56.3085 85.2179C54.4476 82.9541 52.5998 79.7598 51.2295 75.3005C54.6059 74.4811 58.6789 73.8999 63.411 73.8615V90.3279C63.2833 90.2974 63.1338 90.2558 62.9635 90.2004C62.4837 90.0441 61.8712 89.7882 61.1712 89.3989C59.7725 88.6209 58.0317 87.3142 56.3085 85.2179ZM49.8384 46.5215C45.3507 45.4188 42.2036 43.9809 40.5848 42.9674C41.4111 42.0046 42.3009 41.0938 43.248 40.2408C47.9212 36.0325 53.9899 33.2337 60.7188 32.5554C56.8908 34.5162 52.3162 38.8043 49.8384 46.5215ZM50.8134 46.7508C53.7579 37.6595 59.6746 33.6337 63.411 32.5404V48.1386C58.5256 48.1022 54.3005 47.5346 50.8134 46.7508ZM64.411 60.8987V49.1249C66.8992 49.0312 70.7927 48.6688 74.9924 47.862C75.6108 47.7432 76.2366 47.6146 76.8661 47.4756C77.9112 51.049 78.5176 55.4592 78.3538 60.8987H64.411ZM76.5689 46.5171C75.9771 46.6469 75.3877 46.7677 74.8037 46.8799C70.6753 47.673 66.8502 48.0301 64.411 48.1242V32.662C64.7299 32.7852 65.141 32.9545 65.6214 33.1838C66.9891 33.8366 68.9232 34.9782 70.872 36.9249C72.9756 39.0261 75.1149 42.0842 76.5689 46.5171Z" stroke="white"/>
<path d="M42.3301 41.4641L32.3701 32.6929" stroke="white"/>
<path d="M96.2803 88.5095L86.3203 79.7383" stroke="white"/>
<path d="M42.3311 81.333L33.2012 90.9016" stroke="white"/>
<path d="M94.6202 31.8953L85.4902 41.4639" stroke="white"/>
<path d="M76.6897 12.7582C76.6897 19.5095 70.987 25.0163 63.9098 25.0163C56.8326 25.0163 51.1299 19.5095 51.1299 12.7582C51.1299 6.00686 56.8326 0.5 63.9098 0.5C70.987 0.5 76.6897 6.00686 76.6897 12.7582Z" stroke="white"/>
<ellipse cx="63.9097" cy="12.7582" rx="4.14998" ry="3.98692" fill="white"/>
<path d="M127.319 61.3983C127.319 68.1496 121.616 73.6565 114.539 73.6565C107.461 73.6565 101.759 68.1496 101.759 61.3983C101.759 54.647 107.461 49.1401 114.539 49.1401C121.616 49.1401 127.319 54.647 127.319 61.3983Z" stroke="white"/>
<ellipse cx="114.539" cy="61.3985" rx="4.14998" ry="3.98692" fill="white"/>
<path d="M26.0598 61.3985C26.0598 68.1498 20.3572 73.6567 13.2799 73.6567C6.20269 73.6567 0.5 68.1498 0.5 61.3985C0.5 54.6472 6.20269 49.1404 13.2799 49.1404C20.3572 49.1404 26.0598 54.6472 26.0598 61.3985Z" stroke="white"/>
<ellipse cx="13.2808" cy="61.3985" rx="4.14998" ry="3.98692" fill="white"/>
<path d="M76.6897 109.242C76.6897 115.993 70.987 121.5 63.9098 121.5C56.8326 121.5 51.1299 115.993 51.1299 109.242C51.1299 102.49 56.8326 96.9834 63.9098 96.9834C70.987 96.9834 76.6897 102.49 76.6897 109.242Z" stroke="white"/>
<ellipse cx="63.9097" cy="109.242" rx="4.14998" ry="3.98692" fill="white"/>
<path d="M34.4444 61.3987H25.7295H93.3741H102.089" stroke="white"/>
<path d="M63.9092 24.719V33.8889V89.3072V96.8823" stroke="white"/>
</svg>
