<svg width="193" height="192" viewBox="0 0 193 192" fill="none" xmlns="http://www.w3.org/2000/svg">
<g filter="url(#filter0_d_848_2)">
<g filter="url(#filter1_d_848_2)">
<path d="M30.9055 50.4713V51.4713H31.9055H47.7821H48.7821V50.4713V46.2361C48.7821 43.4261 46.6937 40.441 43.5066 39.0917C43.8121 38.8957 44.098 38.6764 44.3612 38.432C45.5132 37.3619 46.136 35.894 46.136 34.0596C46.136 32.2442 45.5267 30.6536 44.3879 29.5144C43.249 28.3751 41.6588 27.7655 39.8438 27.7655C38.0511 27.7655 36.4575 28.3199 35.3077 29.4444C34.1544 30.5724 33.5516 32.1726 33.5516 34.0596C33.5516 35.8329 34.005 37.1965 35.1301 38.2354C35.4619 38.5418 35.8418 38.8092 36.2648 39.0484C34.8459 39.6463 33.742 40.5678 32.9205 41.5625C32.22 42.4109 31.7231 43.3126 31.3994 44.1175C31.0835 44.9031 30.9055 45.6645 30.9055 46.2361V46.2435V46.251V46.2584V46.2659V46.2734V46.2808V46.2883V46.2958V46.3033V46.3108V46.3183V46.3258V46.3334V46.3409V46.3484V46.356V46.3635V46.3711V46.3786V46.3862V46.3938V46.4014V46.409V46.4165V46.4241V46.4317V46.4394V46.447V46.4546V46.4622V46.4699V46.4775V46.4851V46.4928V46.5004V46.5081V46.5158V46.5234V46.5311V46.5388V46.5465V46.5542V46.5619V46.5696V46.5773V46.585V46.5928V46.6005V46.6082V46.616V46.6237V46.6315V46.6392V46.647V46.6548V46.6625V46.6703V46.6781V46.6859V46.6937V46.7015V46.7093V46.7171V46.7249V46.7328V46.7406V46.7484V46.7563V46.7641V46.7719V46.7798V46.7877V46.7955V46.8034V46.8113V46.8191V46.827V46.8349V46.8428V46.8507V46.8586V46.8665V46.8744V46.8823V46.8903V46.8982V46.9061V46.9141V46.922V46.93V46.9379V46.9459V46.9538V46.9618V46.9698V46.9777V46.9857V46.9937V47.0017V47.0097V47.0177V47.0257V47.0337V47.0417V47.0497V47.0578V47.0658V47.0738V47.0818V47.0899V47.0979V47.106V47.114V47.1221V47.1301V47.1382V47.1463V47.1544V47.1624V47.1705V47.1786V47.1867V47.1948V47.2029V47.211V47.2191V47.2272V47.2353V47.2434V47.2516V47.2597V47.2678V47.2759V47.2841V47.2922V47.3004V47.3085V47.3167V47.3248V47.333V47.3412V47.3493V47.3575V47.3657V47.3739V47.3821V47.3902V47.3984V47.4066V47.4148V47.423V47.4312V47.4394V47.4477V47.4559V47.4641V47.4723V47.4806V47.4888V47.497V47.5053V47.5135V47.5217V47.53V47.5382V47.5465V47.5548V47.563V47.5713V47.5796V47.5878V47.5961V47.6044V47.6127V47.6209V47.6292V47.6375V47.6458V47.6541V47.6624V47.6707V47.679V47.6873V47.6956V47.704V47.7123V47.7206V47.7289V47.7372V47.7456V47.7539V47.7622V47.7706V47.7789V47.7873V47.7956V47.804V47.8123V47.8207V47.829V47.8374V47.8457V47.8541V47.8625V47.8708V47.8792V47.8876V47.896V47.9044V47.9127V47.9211V47.9295V47.9379V47.9463V47.9547V47.9631V47.9715V47.9799V47.9883V47.9967V48.0051V48.0135V48.0219V48.0304V48.0388V48.0472V48.0556V48.064V48.0725V48.0809V48.0893V48.0978V48.1062V48.1146V48.1231V48.1315V48.14V48.1484V48.1569V48.1653V48.1738V48.1822V48.1907V48.1991V48.2076V48.216V48.2245V48.233V48.2414V48.2499V48.2584V48.2668V48.2753V48.2838V48.2923V48.3008V48.3092V48.3177V48.3262V48.3347V48.3432V48.3517V48.3601V48.3686V48.3771V48.3856V48.3941V48.4026V48.4111V48.4196V48.4281V48.4366V48.4451V48.4536V48.4621V48.4706V48.4791V48.4876V48.4962V48.5047V48.5132V48.5217V48.5302V48.5387V48.5472V48.5558V48.5643V48.5728V48.5813V48.5898V48.5984V48.6069V48.6154V48.6239V48.6325V48.641V48.6495V48.6581V48.6666V48.6751V48.6836V48.6922V48.7007V48.7092V48.7178V48.7263V48.7349V48.7434V48.7519V48.7605V48.769V48.7775V48.7861V48.7946V48.8032V48.8117V48.8202V48.8288V48.8373V48.8459V48.8544V48.863V48.8715V48.8801V48.8886V48.8971V48.9057V48.9142V48.9228V48.9313V48.9399V48.9484V48.957V48.9655V48.9741V48.9826V48.9912V48.9997V49.0083V49.0168V49.0253V49.0339V49.0424V49.051V49.0595V49.0681V49.0766V49.0852V49.0937V49.1023V49.1108V49.1194V49.1279V49.1365V49.145V49.1536V49.1621V49.1706V49.1792V49.1877V49.1963V49.2048V49.2134V49.2219V49.2304V49.239V49.2475V49.2561V49.2646V49.2732V49.2817V49.2902V49.2988V49.3073V49.3158V49.3244V49.3329V49.3415V49.35V49.3585V49.3671V49.3756V49.3841V49.3927V49.4012V49.4097V49.4182V49.4268V49.4353V49.4438V49.4523V49.4609V49.4694V49.4779V49.4864V49.495V49.5035V49.512V49.5205V49.529V49.5375V49.5461V49.5546V49.5631V49.5716V49.5801V49.5886V49.5971V49.6056V49.6141V49.6226V49.6311V49.6396V49.6481V49.6566V49.6651V49.6736V49.6821V49.6906V49.6991V49.7076V49.7161V49.7245V49.733V49.7415V49.75V49.7585V49.7669V49.7754V49.7839V49.7924V49.8008V49.8093V49.8178V49.8262V49.8347V49.8432V49.8516V49.8601V49.8685V49.877V49.8855V49.8939V49.9024V49.9108V49.9192V49.9277V49.9361V49.9446V49.953V49.9614V49.9699V49.9783V49.9867V49.9952V50.0036V50.012V50.0204V50.0288V50.0373V50.0457V50.0541V50.0625V50.0709V50.0793V50.0877V50.0961V50.1045V50.1129V50.1213V50.1297V50.1381V50.1465V50.1548V50.1632V50.1716V50.18V50.1883V50.1967V50.2051V50.2134V50.2218V50.2302V50.2385V50.2469V50.2552V50.2636V50.2719V50.2803V50.2886V50.2969V50.3053V50.3136V50.3219V50.3303V50.3386V50.3469V50.3552V50.3635V50.3718V50.3801V50.3885V50.3968V50.4051V50.4133V50.4216V50.4299V50.4382V50.4465V50.4548V50.4631V50.4713ZM43.0001 36.9666C42.3062 37.6112 41.2689 38.0726 39.8987 38.3286C38.1804 37.8248 37.1294 37.3593 36.4869 36.7661C35.892 36.2168 35.5516 35.4627 35.5516 34.0596C35.5516 32.6047 36.0072 31.5578 36.7062 30.8742C37.4087 30.1871 38.4612 29.7655 39.8438 29.7655C41.2041 29.7655 42.26 30.2147 42.9734 30.9283C43.6868 31.642 44.136 32.6985 44.136 34.0596C44.136 35.4016 43.7003 36.3161 43.0001 36.9666ZM46.7821 46.2361V49.4713H32.9055V49.4694V49.4609V49.4523V49.4438V49.4353V49.4268V49.4182V49.4097V49.4012V49.3927V49.3841V49.3756V49.3671V49.3585V49.35V49.3415V49.3329V49.3244V49.3158V49.3073V49.2988V49.2902V49.2817V49.2732V49.2646V49.2561V49.2475V49.239V49.2304V49.2219V49.2134V49.2048V49.1963V49.1877V49.1792V49.1706V49.1621V49.1536V49.145V49.1365V49.1279V49.1194V49.1108V49.1023V49.0937V49.0852V49.0766V49.0681V49.0595V49.051V49.0424V49.0339V49.0253V49.0168V49.0083V48.9997V48.9912V48.9826V48.9741V48.9655V48.957V48.9484V48.9399V48.9313V48.9228V48.9142V48.9057V48.8971V48.8886V48.8801V48.8715V48.863V48.8544V48.8459V48.8373V48.8288V48.8202V48.8117V48.8032V48.7946V48.7861V48.7775V48.769V48.7605V48.7519V48.7434V48.7349V48.7263V48.7178V48.7092V48.7007V48.6922V48.6836V48.6751V48.6666V48.6581V48.6495V48.641V48.6325V48.6239V48.6154V48.6069V48.5984V48.5898V48.5813V48.5728V48.5643V48.5558V48.5472V48.5387V48.5302V48.5217V48.5132V48.5047V48.4962V48.4876V48.4791V48.4706V48.4621V48.4536V48.4451V48.4366V48.4281V48.4196V48.4111V48.4026V48.3941V48.3856V48.3771V48.3686V48.3601V48.3517V48.3432V48.3347V48.3262V48.3177V48.3092V48.3008V48.2923V48.2838V48.2753V48.2668V48.2584V48.2499V48.2414V48.233V48.2245V48.216V48.2076V48.1991V48.1907V48.1822V48.1738V48.1653V48.1569V48.1484V48.14V48.1315V48.1231V48.1146V48.1062V48.0978V48.0893V48.0809V48.0725V48.064V48.0556V48.0472V48.0388V48.0304V48.0219V48.0135V48.0051V47.9967V47.9883V47.9799V47.9715V47.9631V47.9547V47.9463V47.9379V47.9295V47.9211V47.9127V47.9044V47.896V47.8876V47.8792V47.8708V47.8625V47.8541V47.8457V47.8374V47.829V47.8207V47.8123V47.804V47.7956V47.7873V47.7789V47.7706V47.7622V47.7539V47.7456V47.7372V47.7289V47.7206V47.7123V47.704V47.6956V47.6873V47.679V47.6707V47.6624V47.6541V47.6458V47.6375V47.6292V47.6209V47.6127V47.6044V47.5961V47.5878V47.5796V47.5713V47.563V47.5548V47.5465V47.5382V47.53V47.5217V47.5135V47.5053V47.497V47.4888V47.4806V47.4723V47.4641V47.4559V47.4477V47.4394V47.4312V47.423V47.4148V47.4066V47.3984V47.3902V47.3821V47.3739V47.3657V47.3575V47.3493V47.3412V47.333V47.3248V47.3167V47.3085V47.3004V47.2922V47.2841V47.2759V47.2678V47.2597V47.2516V47.2434V47.2353V47.2272V47.2191V47.211V47.2029V47.1948V47.1867V47.1786V47.1705V47.1624V47.1544V47.1463V47.1382V47.1301V47.1221V47.114V47.106V47.0979V47.0899V47.0818V47.0738V47.0658V47.0578V47.0497V47.0417V47.0337V47.0257V47.0177V47.0097V47.0017V46.9937V46.9857V46.9777V46.9698V46.9618V46.9538V46.9459V46.9379V46.93V46.922V46.9141V46.9061V46.8982V46.8903V46.8823V46.8744V46.8665V46.8586V46.8507V46.8428V46.8349V46.827V46.8191V46.8113V46.8034V46.7955V46.7877V46.7798V46.7719V46.7641V46.7563V46.7484V46.7406V46.7328V46.7249V46.7171V46.7093V46.7015V46.6937V46.6859V46.6781V46.6703V46.6625V46.6548V46.647V46.6392V46.6315V46.6237V46.616V46.6082V46.6005V46.5928V46.585V46.5773V46.5696V46.5619V46.5542V46.5465V46.5388V46.5311V46.5234V46.5158V46.5081V46.5004V46.4928V46.4851V46.4775V46.4699V46.4622V46.4546V46.447V46.4394V46.4317V46.4241V46.4165V46.409V46.4014V46.3938V46.3862V46.3786V46.3711V46.3635V46.356V46.3484V46.3409V46.3334V46.3258V46.3183V46.3108V46.3033V46.2958V46.2883V46.2808V46.2734V46.2659V46.2584V46.251V46.2435V46.2361C32.9055 46.0135 32.9921 45.5175 33.255 44.8638C33.5101 44.2294 33.9063 43.5098 34.4627 42.836C35.5619 41.5049 37.2787 40.3537 39.8438 40.3537C44.004 40.3537 46.7821 43.6656 46.7821 46.2361ZM64.8052 40.4118C64.8052 53.8943 53.8794 64.8235 40.4026 64.8235C26.9258 64.8235 16 53.8943 16 40.4118C16 26.9292 26.9258 16 40.4026 16C53.8794 16 64.8052 26.9292 64.8052 40.4118Z" stroke="white" stroke-width="2"/>
</g>
<g filter="url(#filter2_d_848_2)">
<path d="M143.1 50.4713V51.4713H144.1H159.977H160.977V50.4713V46.2361C160.977 43.4261 158.888 40.441 155.701 39.0917C156.007 38.8957 156.293 38.6764 156.556 38.432C157.708 37.3619 158.331 35.894 158.331 34.0596C158.331 32.2442 157.722 30.6536 156.583 29.5144C155.444 28.3751 153.854 27.7655 152.039 27.7655C150.246 27.7655 148.652 28.3199 147.503 29.4444C146.349 30.5724 145.746 32.1726 145.746 34.0596C145.746 35.8329 146.2 37.1965 147.325 38.2354C147.657 38.5418 148.037 38.8092 148.46 39.0484C147.041 39.6463 145.937 40.5678 145.115 41.5625C144.415 42.4109 143.918 43.3126 143.594 44.1175C143.278 44.9031 143.1 45.6645 143.1 46.2361V46.2435V46.251V46.2584V46.2659V46.2734V46.2808V46.2883V46.2958V46.3033V46.3108V46.3183V46.3258V46.3334V46.3409V46.3484V46.356V46.3635V46.3711V46.3786V46.3862V46.3938V46.4014V46.409V46.4165V46.4241V46.4317V46.4394V46.447V46.4546V46.4622V46.4699V46.4775V46.4851V46.4928V46.5004V46.5081V46.5158V46.5234V46.5311V46.5388V46.5465V46.5542V46.5619V46.5696V46.5773V46.585V46.5928V46.6005V46.6082V46.616V46.6237V46.6315V46.6392V46.647V46.6548V46.6625V46.6703V46.6781V46.6859V46.6937V46.7015V46.7093V46.7171V46.7249V46.7328V46.7406V46.7484V46.7563V46.7641V46.7719V46.7798V46.7877V46.7955V46.8034V46.8113V46.8191V46.827V46.8349V46.8428V46.8507V46.8586V46.8665V46.8744V46.8823V46.8903V46.8982V46.9061V46.9141V46.922V46.93V46.9379V46.9459V46.9538V46.9618V46.9698V46.9777V46.9857V46.9937V47.0017V47.0097V47.0177V47.0257V47.0337V47.0417V47.0497V47.0578V47.0658V47.0738V47.0818V47.0899V47.0979V47.106V47.114V47.1221V47.1301V47.1382V47.1463V47.1544V47.1624V47.1705V47.1786V47.1867V47.1948V47.2029V47.211V47.2191V47.2272V47.2353V47.2434V47.2516V47.2597V47.2678V47.2759V47.2841V47.2922V47.3004V47.3085V47.3167V47.3248V47.333V47.3412V47.3493V47.3575V47.3657V47.3739V47.3821V47.3902V47.3984V47.4066V47.4148V47.423V47.4312V47.4394V47.4477V47.4559V47.4641V47.4723V47.4806V47.4888V47.497V47.5053V47.5135V47.5217V47.53V47.5382V47.5465V47.5548V47.563V47.5713V47.5796V47.5878V47.5961V47.6044V47.6127V47.6209V47.6292V47.6375V47.6458V47.6541V47.6624V47.6707V47.679V47.6873V47.6956V47.704V47.7123V47.7206V47.7289V47.7372V47.7456V47.7539V47.7622V47.7706V47.7789V47.7873V47.7956V47.804V47.8123V47.8207V47.829V47.8374V47.8457V47.8541V47.8625V47.8708V47.8792V47.8876V47.896V47.9044V47.9127V47.9211V47.9295V47.9379V47.9463V47.9547V47.9631V47.9715V47.9799V47.9883V47.9967V48.0051V48.0135V48.0219V48.0304V48.0388V48.0472V48.0556V48.064V48.0725V48.0809V48.0893V48.0978V48.1062V48.1146V48.1231V48.1315V48.14V48.1484V48.1569V48.1653V48.1738V48.1822V48.1907V48.1991V48.2076V48.216V48.2245V48.233V48.2414V48.2499V48.2584V48.2668V48.2753V48.2838V48.2923V48.3008V48.3092V48.3177V48.3262V48.3347V48.3432V48.3517V48.3601V48.3686V48.3771V48.3856V48.3941V48.4026V48.4111V48.4196V48.4281V48.4366V48.4451V48.4536V48.4621V48.4706V48.4791V48.4876V48.4962V48.5047V48.5132V48.5217V48.5302V48.5387V48.5472V48.5558V48.5643V48.5728V48.5813V48.5898V48.5984V48.6069V48.6154V48.6239V48.6325V48.641V48.6495V48.6581V48.6666V48.6751V48.6836V48.6922V48.7007V48.7092V48.7178V48.7263V48.7349V48.7434V48.7519V48.7605V48.769V48.7775V48.7861V48.7946V48.8032V48.8117V48.8202V48.8288V48.8373V48.8459V48.8544V48.863V48.8715V48.8801V48.8886V48.8971V48.9057V48.9142V48.9228V48.9313V48.9399V48.9484V48.957V48.9655V48.9741V48.9826V48.9912V48.9997V49.0083V49.0168V49.0253V49.0339V49.0424V49.051V49.0595V49.0681V49.0766V49.0852V49.0937V49.1023V49.1108V49.1194V49.1279V49.1365V49.145V49.1536V49.1621V49.1706V49.1792V49.1877V49.1963V49.2048V49.2134V49.2219V49.2304V49.239V49.2475V49.2561V49.2646V49.2732V49.2817V49.2902V49.2988V49.3073V49.3158V49.3244V49.3329V49.3415V49.35V49.3585V49.3671V49.3756V49.3841V49.3927V49.4012V49.4097V49.4182V49.4268V49.4353V49.4438V49.4523V49.4609V49.4694V49.4779V49.4864V49.495V49.5035V49.512V49.5205V49.529V49.5375V49.5461V49.5546V49.5631V49.5716V49.5801V49.5886V49.5971V49.6056V49.6141V49.6226V49.6311V49.6396V49.6481V49.6566V49.6651V49.6736V49.6821V49.6906V49.6991V49.7076V49.7161V49.7245V49.733V49.7415V49.75V49.7585V49.7669V49.7754V49.7839V49.7924V49.8008V49.8093V49.8178V49.8262V49.8347V49.8432V49.8516V49.8601V49.8685V49.877V49.8855V49.8939V49.9024V49.9108V49.9192V49.9277V49.9361V49.9446V49.953V49.9614V49.9699V49.9783V49.9867V49.9952V50.0036V50.012V50.0204V50.0288V50.0373V50.0457V50.0541V50.0625V50.0709V50.0793V50.0877V50.0961V50.1045V50.1129V50.1213V50.1297V50.1381V50.1465V50.1548V50.1632V50.1716V50.18V50.1883V50.1967V50.2051V50.2134V50.2218V50.2302V50.2385V50.2469V50.2552V50.2636V50.2719V50.2803V50.2886V50.2969V50.3053V50.3136V50.3219V50.3303V50.3386V50.3469V50.3552V50.3635V50.3718V50.3801V50.3885V50.3968V50.4051V50.4133V50.4216V50.4299V50.4382V50.4465V50.4548V50.4631V50.4713ZM155.195 36.9666C154.501 37.6112 153.464 38.0726 152.094 38.3286C150.375 37.8248 149.324 37.3593 148.682 36.7661C148.087 36.2168 147.746 35.4627 147.746 34.0596C147.746 32.6047 148.202 31.5578 148.901 30.8742C149.604 30.1871 150.656 29.7655 152.039 29.7655C153.399 29.7655 154.455 30.2147 155.168 30.9283C155.882 31.642 156.331 32.6985 156.331 34.0596C156.331 35.4016 155.895 36.3161 155.195 36.9666ZM158.977 46.2361V49.4713H145.1V49.4694V49.4609V49.4523V49.4438V49.4353V49.4268V49.4182V49.4097V49.4012V49.3927V49.3841V49.3756V49.3671V49.3585V49.35V49.3415V49.3329V49.3244V49.3158V49.3073V49.2988V49.2902V49.2817V49.2732V49.2646V49.2561V49.2475V49.239V49.2304V49.2219V49.2134V49.2048V49.1963V49.1877V49.1792V49.1706V49.1621V49.1536V49.145V49.1365V49.1279V49.1194V49.1108V49.1023V49.0937V49.0852V49.0766V49.0681V49.0595V49.051V49.0424V49.0339V49.0253V49.0168V49.0083V48.9997V48.9912V48.9826V48.9741V48.9655V48.957V48.9484V48.9399V48.9313V48.9228V48.9142V48.9057V48.8971V48.8886V48.8801V48.8715V48.863V48.8544V48.8459V48.8373V48.8288V48.8202V48.8117V48.8032V48.7946V48.7861V48.7775V48.769V48.7605V48.7519V48.7434V48.7349V48.7263V48.7178V48.7092V48.7007V48.6922V48.6836V48.6751V48.6666V48.6581V48.6495V48.641V48.6325V48.6239V48.6154V48.6069V48.5984V48.5898V48.5813V48.5728V48.5643V48.5558V48.5472V48.5387V48.5302V48.5217V48.5132V48.5047V48.4962V48.4876V48.4791V48.4706V48.4621V48.4536V48.4451V48.4366V48.4281V48.4196V48.4111V48.4026V48.3941V48.3856V48.3771V48.3686V48.3601V48.3517V48.3432V48.3347V48.3262V48.3177V48.3092V48.3008V48.2923V48.2838V48.2753V48.2668V48.2584V48.2499V48.2414V48.233V48.2245V48.216V48.2076V48.1991V48.1907V48.1822V48.1738V48.1653V48.1569V48.1484V48.14V48.1315V48.1231V48.1146V48.1062V48.0978V48.0893V48.0809V48.0725V48.064V48.0556V48.0472V48.0388V48.0304V48.0219V48.0135V48.0051V47.9967V47.9883V47.9799V47.9715V47.9631V47.9547V47.9463V47.9379V47.9295V47.9211V47.9127V47.9044V47.896V47.8876V47.8792V47.8708V47.8625V47.8541V47.8457V47.8374V47.829V47.8207V47.8123V47.804V47.7956V47.7873V47.7789V47.7706V47.7622V47.7539V47.7456V47.7372V47.7289V47.7206V47.7123V47.704V47.6956V47.6873V47.679V47.6707V47.6624V47.6541V47.6458V47.6375V47.6292V47.6209V47.6127V47.6044V47.5961V47.5878V47.5796V47.5713V47.563V47.5548V47.5465V47.5382V47.53V47.5217V47.5135V47.5053V47.497V47.4888V47.4806V47.4723V47.4641V47.4559V47.4477V47.4394V47.4312V47.423V47.4148V47.4066V47.3984V47.3902V47.3821V47.3739V47.3657V47.3575V47.3493V47.3412V47.333V47.3248V47.3167V47.3085V47.3004V47.2922V47.2841V47.2759V47.2678V47.2597V47.2516V47.2434V47.2353V47.2272V47.2191V47.211V47.2029V47.1948V47.1867V47.1786V47.1705V47.1624V47.1544V47.1463V47.1382V47.1301V47.1221V47.114V47.106V47.0979V47.0899V47.0818V47.0738V47.0658V47.0578V47.0497V47.0417V47.0337V47.0257V47.0177V47.0097V47.0017V46.9937V46.9857V46.9777V46.9698V46.9618V46.9538V46.9459V46.9379V46.93V46.922V46.9141V46.9061V46.8982V46.8903V46.8823V46.8744V46.8665V46.8586V46.8507V46.8428V46.8349V46.827V46.8191V46.8113V46.8034V46.7955V46.7877V46.7798V46.7719V46.7641V46.7563V46.7484V46.7406V46.7328V46.7249V46.7171V46.7093V46.7015V46.6937V46.6859V46.6781V46.6703V46.6625V46.6548V46.647V46.6392V46.6315V46.6237V46.616V46.6082V46.6005V46.5928V46.585V46.5773V46.5696V46.5619V46.5542V46.5465V46.5388V46.5311V46.5234V46.5158V46.5081V46.5004V46.4928V46.4851V46.4775V46.4699V46.4622V46.4546V46.447V46.4394V46.4317V46.4241V46.4165V46.409V46.4014V46.3938V46.3862V46.3786V46.3711V46.3635V46.356V46.3484V46.3409V46.3334V46.3258V46.3183V46.3108V46.3033V46.2958V46.2883V46.2808V46.2734V46.2659V46.2584V46.251V46.2435V46.2361C145.1 46.0135 145.187 45.5175 145.45 44.8638C145.705 44.2294 146.101 43.5098 146.658 42.836C147.757 41.5049 149.474 40.3537 152.039 40.3537C156.199 40.3537 158.977 43.6656 158.977 46.2361ZM177 40.4118C177 53.8943 166.074 64.8235 152.597 64.8235C139.121 64.8235 128.195 53.8943 128.195 40.4118C128.195 26.9292 139.121 16 152.597 16C166.074 16 177 26.9292 177 40.4118Z" stroke="white" stroke-width="2"/>
</g>
<g filter="url(#filter3_d_848_2)">
<path d="M143.1 161.648V162.648H144.1H159.977H160.977V161.648V157.412C160.977 154.602 158.888 151.617 155.701 150.268C156.007 150.072 156.293 149.853 156.556 149.608C157.708 148.538 158.331 147.07 158.331 145.236C158.331 143.42 157.722 141.83 156.583 140.691C155.444 139.551 153.854 138.942 152.039 138.942C150.246 138.942 148.652 139.496 147.503 140.621C146.349 141.749 145.746 143.349 145.746 145.236C145.746 147.009 146.2 148.373 147.325 149.412C147.657 149.718 148.037 149.986 148.46 150.225C147.041 150.823 145.937 151.744 145.115 152.739C144.415 153.587 143.918 154.489 143.594 155.294C143.278 156.079 143.1 156.841 143.1 157.412V157.42V157.427V157.435V157.442V157.45V157.457V157.465V157.472V157.48V157.487V157.495V157.502V157.51V157.517V157.525V157.532V157.54V157.547V157.555V157.562V157.57V157.578V157.585V157.593V157.6V157.608V157.616V157.623V157.631V157.638V157.646V157.654V157.661V157.669V157.677V157.684V157.692V157.7V157.707V157.715V157.723V157.73V157.738V157.746V157.754V157.761V157.769V157.777V157.785V157.792V157.8V157.808V157.816V157.823V157.831V157.839V157.847V157.854V157.862V157.87V157.878V157.886V157.893V157.901V157.909V157.917V157.925V157.933V157.94V157.948V157.956V157.964V157.972V157.98V157.988V157.995V158.003V158.011V158.019V158.027V158.035V158.043V158.051V158.059V158.067V158.074V158.082V158.09V158.098V158.106V158.114V158.122V158.13V158.138V158.146V158.154V158.162V158.17V158.178V158.186V158.194V158.202V158.21V158.218V158.226V158.234V158.242V158.25V158.258V158.266V158.274V158.282V158.29V158.298V158.306V158.314V158.323V158.331V158.339V158.347V158.355V158.363V158.371V158.379V158.387V158.395V158.403V158.412V158.42V158.428V158.436V158.444V158.452V158.46V158.468V158.477V158.485V158.493V158.501V158.509V158.517V158.526V158.534V158.542V158.55V158.558V158.567V158.575V158.583V158.591V158.599V158.608V158.616V158.624V158.632V158.64V158.649V158.657V158.665V158.673V158.682V158.69V158.698V158.706V158.715V158.723V158.731V158.739V158.748V158.756V158.764V158.772V158.781V158.789V158.797V158.806V158.814V158.822V158.83V158.839V158.847V158.855V158.864V158.872V158.88V158.889V158.897V158.905V158.914V158.922V158.93V158.939V158.947V158.955V158.964V158.972V158.98V158.989V158.997V159.005V159.014V159.022V159.03V159.039V159.047V159.055V159.064V159.072V159.081V159.089V159.097V159.106V159.114V159.123V159.131V159.139V159.148V159.156V159.165V159.173V159.181V159.19V159.198V159.207V159.215V159.223V159.232V159.24V159.249V159.257V159.266V159.274V159.282V159.291V159.299V159.308V159.316V159.325V159.333V159.342V159.35V159.358V159.367V159.375V159.384V159.392V159.401V159.409V159.418V159.426V159.435V159.443V159.452V159.46V159.469V159.477V159.486V159.494V159.502V159.511V159.519V159.528V159.536V159.545V159.553V159.562V159.57V159.579V159.587V159.596V159.604V159.613V159.621V159.63V159.638V159.647V159.655V159.664V159.672V159.681V159.689V159.698V159.706V159.715V159.724V159.732V159.741V159.749V159.758V159.766V159.775V159.783V159.792V159.8V159.809V159.817V159.826V159.834V159.843V159.851V159.86V159.868V159.877V159.886V159.894V159.903V159.911V159.92V159.928V159.937V159.945V159.954V159.962V159.971V159.979V159.988V159.997V160.005V160.014V160.022V160.031V160.039V160.048V160.056V160.065V160.073V160.082V160.091V160.099V160.108V160.116V160.125V160.133V160.142V160.15V160.159V160.167V160.176V160.185V160.193V160.202V160.21V160.219V160.227V160.236V160.244V160.253V160.261V160.27V160.279V160.287V160.296V160.304V160.313V160.321V160.33V160.338V160.347V160.355V160.364V160.373V160.381V160.39V160.398V160.407V160.415V160.424V160.432V160.441V160.449V160.458V160.467V160.475V160.484V160.492V160.501V160.509V160.518V160.526V160.535V160.543V160.552V160.56V160.569V160.577V160.586V160.595V160.603V160.612V160.62V160.629V160.637V160.646V160.654V160.663V160.671V160.68V160.688V160.697V160.705V160.714V160.722V160.731V160.739V160.748V160.756V160.765V160.773V160.782V160.79V160.799V160.807V160.816V160.824V160.833V160.841V160.85V160.858V160.867V160.875V160.884V160.892V160.901V160.909V160.918V160.926V160.935V160.943V160.952V160.96V160.969V160.977V160.986V160.994V161.003V161.011V161.019V161.028V161.036V161.045V161.053V161.062V161.07V161.079V161.087V161.096V161.104V161.112V161.121V161.129V161.138V161.146V161.155V161.163V161.171V161.18V161.188V161.197V161.205V161.214V161.222V161.23V161.239V161.247V161.256V161.264V161.272V161.281V161.289V161.298V161.306V161.314V161.323V161.331V161.339V161.348V161.356V161.365V161.373V161.381V161.39V161.398V161.406V161.415V161.423V161.431V161.44V161.448V161.457V161.465V161.473V161.482V161.49V161.498V161.507V161.515V161.523V161.531V161.54V161.548V161.556V161.565V161.573V161.581V161.59V161.598V161.606V161.614V161.623V161.631V161.639V161.648ZM155.195 148.143C154.501 148.787 153.464 149.249 152.094 149.505C150.375 149.001 149.324 148.536 148.682 147.942C148.087 147.393 147.746 146.639 147.746 145.236C147.746 143.781 148.202 142.734 148.901 142.05C149.604 141.363 150.656 140.942 152.039 140.942C153.399 140.942 154.455 141.391 155.168 142.105C155.882 142.818 156.331 143.875 156.331 145.236C156.331 146.578 155.895 147.492 155.195 148.143ZM158.977 157.412V160.648H145.1V160.646V160.637V160.629V160.62V160.612V160.603V160.595V160.586V160.577V160.569V160.56V160.552V160.543V160.535V160.526V160.518V160.509V160.501V160.492V160.484V160.475V160.467V160.458V160.449V160.441V160.432V160.424V160.415V160.407V160.398V160.39V160.381V160.373V160.364V160.355V160.347V160.338V160.33V160.321V160.313V160.304V160.296V160.287V160.279V160.27V160.261V160.253V160.244V160.236V160.227V160.219V160.21V160.202V160.193V160.185V160.176V160.167V160.159V160.15V160.142V160.133V160.125V160.116V160.108V160.099V160.091V160.082V160.073V160.065V160.056V160.048V160.039V160.031V160.022V160.014V160.005V159.997V159.988V159.979V159.971V159.962V159.954V159.945V159.937V159.928V159.92V159.911V159.903V159.894V159.886V159.877V159.868V159.86V159.851V159.843V159.834V159.826V159.817V159.809V159.8V159.792V159.783V159.775V159.766V159.758V159.749V159.741V159.732V159.724V159.715V159.706V159.698V159.689V159.681V159.672V159.664V159.655V159.647V159.638V159.63V159.621V159.613V159.604V159.596V159.587V159.579V159.57V159.562V159.553V159.545V159.536V159.528V159.519V159.511V159.502V159.494V159.486V159.477V159.469V159.46V159.452V159.443V159.435V159.426V159.418V159.409V159.401V159.392V159.384V159.375V159.367V159.358V159.35V159.342V159.333V159.325V159.316V159.308V159.299V159.291V159.282V159.274V159.266V159.257V159.249V159.24V159.232V159.223V159.215V159.207V159.198V159.19V159.181V159.173V159.165V159.156V159.148V159.139V159.131V159.123V159.114V159.106V159.097V159.089V159.081V159.072V159.064V159.055V159.047V159.039V159.03V159.022V159.014V159.005V158.997V158.989V158.98V158.972V158.964V158.955V158.947V158.939V158.93V158.922V158.914V158.905V158.897V158.889V158.88V158.872V158.864V158.855V158.847V158.839V158.83V158.822V158.814V158.806V158.797V158.789V158.781V158.772V158.764V158.756V158.748V158.739V158.731V158.723V158.715V158.706V158.698V158.69V158.682V158.673V158.665V158.657V158.649V158.64V158.632V158.624V158.616V158.608V158.599V158.591V158.583V158.575V158.567V158.558V158.55V158.542V158.534V158.526V158.517V158.509V158.501V158.493V158.485V158.477V158.468V158.46V158.452V158.444V158.436V158.428V158.42V158.412V158.403V158.395V158.387V158.379V158.371V158.363V158.355V158.347V158.339V158.331V158.323V158.314V158.306V158.298V158.29V158.282V158.274V158.266V158.258V158.25V158.242V158.234V158.226V158.218V158.21V158.202V158.194V158.186V158.178V158.17V158.162V158.154V158.146V158.138V158.13V158.122V158.114V158.106V158.098V158.09V158.082V158.074V158.067V158.059V158.051V158.043V158.035V158.027V158.019V158.011V158.003V157.995V157.988V157.98V157.972V157.964V157.956V157.948V157.94V157.933V157.925V157.917V157.909V157.901V157.893V157.886V157.878V157.87V157.862V157.854V157.847V157.839V157.831V157.823V157.816V157.808V157.8V157.792V157.785V157.777V157.769V157.761V157.754V157.746V157.738V157.73V157.723V157.715V157.707V157.7V157.692V157.684V157.677V157.669V157.661V157.654V157.646V157.638V157.631V157.623V157.616V157.608V157.6V157.593V157.585V157.578V157.57V157.562V157.555V157.547V157.54V157.532V157.525V157.517V157.51V157.502V157.495V157.487V157.48V157.472V157.465V157.457V157.45V157.442V157.435V157.427V157.42V157.412C145.1 157.19 145.187 156.694 145.45 156.04C145.705 155.406 146.101 154.686 146.658 154.012C147.757 152.681 149.474 151.53 152.039 151.53C156.199 151.53 158.977 154.842 158.977 157.412ZM177 151.588C177 165.071 166.074 176 152.597 176C139.121 176 128.195 165.071 128.195 151.588C128.195 138.105 139.121 127.176 152.597 127.176C166.074 127.176 177 138.105 177 151.588Z" stroke="white" stroke-width="2"/>
</g>
<g filter="url(#filter4_d_848_2)">
<path d="M30.9055 161.648V162.648H31.9055H47.7821H48.7821V161.648V157.412C48.7821 154.602 46.6937 151.617 43.5066 150.268C43.8121 150.072 44.098 149.853 44.3612 149.608C45.5132 148.538 46.136 147.07 46.136 145.236C46.136 143.42 45.5267 141.83 44.3879 140.691C43.249 139.551 41.6588 138.942 39.8438 138.942C38.0511 138.942 36.4575 139.496 35.3077 140.621C34.1544 141.749 33.5516 143.349 33.5516 145.236C33.5516 147.009 34.005 148.373 35.1301 149.412C35.4619 149.718 35.8418 149.986 36.2648 150.225C34.8459 150.823 33.742 151.744 32.9205 152.739C32.22 153.587 31.7231 154.489 31.3994 155.294C31.0835 156.079 30.9055 156.841 30.9055 157.412V157.42V157.427V157.435V157.442V157.45V157.457V157.465V157.472V157.48V157.487V157.495V157.502V157.51V157.517V157.525V157.532V157.54V157.547V157.555V157.562V157.57V157.578V157.585V157.593V157.6V157.608V157.616V157.623V157.631V157.638V157.646V157.654V157.661V157.669V157.677V157.684V157.692V157.7V157.707V157.715V157.723V157.73V157.738V157.746V157.754V157.761V157.769V157.777V157.785V157.792V157.8V157.808V157.816V157.823V157.831V157.839V157.847V157.854V157.862V157.87V157.878V157.886V157.893V157.901V157.909V157.917V157.925V157.933V157.94V157.948V157.956V157.964V157.972V157.98V157.988V157.995V158.003V158.011V158.019V158.027V158.035V158.043V158.051V158.059V158.067V158.074V158.082V158.09V158.098V158.106V158.114V158.122V158.13V158.138V158.146V158.154V158.162V158.17V158.178V158.186V158.194V158.202V158.21V158.218V158.226V158.234V158.242V158.25V158.258V158.266V158.274V158.282V158.29V158.298V158.306V158.314V158.323V158.331V158.339V158.347V158.355V158.363V158.371V158.379V158.387V158.395V158.403V158.412V158.42V158.428V158.436V158.444V158.452V158.46V158.468V158.477V158.485V158.493V158.501V158.509V158.517V158.526V158.534V158.542V158.55V158.558V158.567V158.575V158.583V158.591V158.599V158.608V158.616V158.624V158.632V158.64V158.649V158.657V158.665V158.673V158.682V158.69V158.698V158.706V158.715V158.723V158.731V158.739V158.748V158.756V158.764V158.772V158.781V158.789V158.797V158.806V158.814V158.822V158.83V158.839V158.847V158.855V158.864V158.872V158.88V158.889V158.897V158.905V158.914V158.922V158.93V158.939V158.947V158.955V158.964V158.972V158.98V158.989V158.997V159.005V159.014V159.022V159.03V159.039V159.047V159.055V159.064V159.072V159.081V159.089V159.097V159.106V159.114V159.123V159.131V159.139V159.148V159.156V159.165V159.173V159.181V159.19V159.198V159.207V159.215V159.223V159.232V159.24V159.249V159.257V159.266V159.274V159.282V159.291V159.299V159.308V159.316V159.325V159.333V159.342V159.35V159.358V159.367V159.375V159.384V159.392V159.401V159.409V159.418V159.426V159.435V159.443V159.452V159.46V159.469V159.477V159.486V159.494V159.502V159.511V159.519V159.528V159.536V159.545V159.553V159.562V159.57V159.579V159.587V159.596V159.604V159.613V159.621V159.63V159.638V159.647V159.655V159.664V159.672V159.681V159.689V159.698V159.706V159.715V159.724V159.732V159.741V159.749V159.758V159.766V159.775V159.783V159.792V159.8V159.809V159.817V159.826V159.834V159.843V159.851V159.86V159.868V159.877V159.886V159.894V159.903V159.911V159.92V159.928V159.937V159.945V159.954V159.962V159.971V159.979V159.988V159.997V160.005V160.014V160.022V160.031V160.039V160.048V160.056V160.065V160.073V160.082V160.091V160.099V160.108V160.116V160.125V160.133V160.142V160.15V160.159V160.167V160.176V160.185V160.193V160.202V160.21V160.219V160.227V160.236V160.244V160.253V160.261V160.27V160.279V160.287V160.296V160.304V160.313V160.321V160.33V160.338V160.347V160.355V160.364V160.373V160.381V160.39V160.398V160.407V160.415V160.424V160.432V160.441V160.449V160.458V160.467V160.475V160.484V160.492V160.501V160.509V160.518V160.526V160.535V160.543V160.552V160.56V160.569V160.577V160.586V160.595V160.603V160.612V160.62V160.629V160.637V160.646V160.654V160.663V160.671V160.68V160.688V160.697V160.705V160.714V160.722V160.731V160.739V160.748V160.756V160.765V160.773V160.782V160.79V160.799V160.807V160.816V160.824V160.833V160.841V160.85V160.858V160.867V160.875V160.884V160.892V160.901V160.909V160.918V160.926V160.935V160.943V160.952V160.96V160.969V160.977V160.986V160.994V161.003V161.011V161.019V161.028V161.036V161.045V161.053V161.062V161.07V161.079V161.087V161.096V161.104V161.112V161.121V161.129V161.138V161.146V161.155V161.163V161.171V161.18V161.188V161.197V161.205V161.214V161.222V161.23V161.239V161.247V161.256V161.264V161.272V161.281V161.289V161.298V161.306V161.314V161.323V161.331V161.339V161.348V161.356V161.365V161.373V161.381V161.39V161.398V161.406V161.415V161.423V161.431V161.44V161.448V161.457V161.465V161.473V161.482V161.49V161.498V161.507V161.515V161.523V161.531V161.54V161.548V161.556V161.565V161.573V161.581V161.59V161.598V161.606V161.614V161.623V161.631V161.639V161.648ZM43.0001 148.143C42.3062 148.787 41.2689 149.249 39.8987 149.505C38.1804 149.001 37.1294 148.536 36.4869 147.942C35.892 147.393 35.5516 146.639 35.5516 145.236C35.5516 143.781 36.0072 142.734 36.7062 142.05C37.4087 141.363 38.4612 140.942 39.8438 140.942C41.2041 140.942 42.26 141.391 42.9734 142.105C43.6868 142.818 44.136 143.875 44.136 145.236C44.136 146.578 43.7003 147.492 43.0001 148.143ZM46.7821 157.412V160.648H32.9055V160.646V160.637V160.629V160.62V160.612V160.603V160.595V160.586V160.577V160.569V160.56V160.552V160.543V160.535V160.526V160.518V160.509V160.501V160.492V160.484V160.475V160.467V160.458V160.449V160.441V160.432V160.424V160.415V160.407V160.398V160.39V160.381V160.373V160.364V160.355V160.347V160.338V160.33V160.321V160.313V160.304V160.296V160.287V160.279V160.27V160.261V160.253V160.244V160.236V160.227V160.219V160.21V160.202V160.193V160.185V160.176V160.167V160.159V160.15V160.142V160.133V160.125V160.116V160.108V160.099V160.091V160.082V160.073V160.065V160.056V160.048V160.039V160.031V160.022V160.014V160.005V159.997V159.988V159.979V159.971V159.962V159.954V159.945V159.937V159.928V159.92V159.911V159.903V159.894V159.886V159.877V159.868V159.86V159.851V159.843V159.834V159.826V159.817V159.809V159.8V159.792V159.783V159.775V159.766V159.758V159.749V159.741V159.732V159.724V159.715V159.706V159.698V159.689V159.681V159.672V159.664V159.655V159.647V159.638V159.63V159.621V159.613V159.604V159.596V159.587V159.579V159.57V159.562V159.553V159.545V159.536V159.528V159.519V159.511V159.502V159.494V159.486V159.477V159.469V159.46V159.452V159.443V159.435V159.426V159.418V159.409V159.401V159.392V159.384V159.375V159.367V159.358V159.35V159.342V159.333V159.325V159.316V159.308V159.299V159.291V159.282V159.274V159.266V159.257V159.249V159.24V159.232V159.223V159.215V159.207V159.198V159.19V159.181V159.173V159.165V159.156V159.148V159.139V159.131V159.123V159.114V159.106V159.097V159.089V159.081V159.072V159.064V159.055V159.047V159.039V159.03V159.022V159.014V159.005V158.997V158.989V158.98V158.972V158.964V158.955V158.947V158.939V158.93V158.922V158.914V158.905V158.897V158.889V158.88V158.872V158.864V158.855V158.847V158.839V158.83V158.822V158.814V158.806V158.797V158.789V158.781V158.772V158.764V158.756V158.748V158.739V158.731V158.723V158.715V158.706V158.698V158.69V158.682V158.673V158.665V158.657V158.649V158.64V158.632V158.624V158.616V158.608V158.599V158.591V158.583V158.575V158.567V158.558V158.55V158.542V158.534V158.526V158.517V158.509V158.501V158.493V158.485V158.477V158.468V158.46V158.452V158.444V158.436V158.428V158.42V158.412V158.403V158.395V158.387V158.379V158.371V158.363V158.355V158.347V158.339V158.331V158.323V158.314V158.306V158.298V158.29V158.282V158.274V158.266V158.258V158.25V158.242V158.234V158.226V158.218V158.21V158.202V158.194V158.186V158.178V158.17V158.162V158.154V158.146V158.138V158.13V158.122V158.114V158.106V158.098V158.09V158.082V158.074V158.067V158.059V158.051V158.043V158.035V158.027V158.019V158.011V158.003V157.995V157.988V157.98V157.972V157.964V157.956V157.948V157.94V157.933V157.925V157.917V157.909V157.901V157.893V157.886V157.878V157.87V157.862V157.854V157.847V157.839V157.831V157.823V157.816V157.808V157.8V157.792V157.785V157.777V157.769V157.761V157.754V157.746V157.738V157.73V157.723V157.715V157.707V157.7V157.692V157.684V157.677V157.669V157.661V157.654V157.646V157.638V157.631V157.623V157.616V157.608V157.6V157.593V157.585V157.578V157.57V157.562V157.555V157.547V157.54V157.532V157.525V157.517V157.51V157.502V157.495V157.487V157.48V157.472V157.465V157.457V157.45V157.442V157.435V157.427V157.42V157.412C32.9055 157.19 32.9921 156.694 33.255 156.04C33.5101 155.406 33.9063 154.686 34.4627 154.012C35.5619 152.681 37.2787 151.53 39.8438 151.53C44.004 151.53 46.7821 154.842 46.7821 157.412ZM64.8052 151.588C64.8052 165.071 53.8794 176 40.4026 176C26.9258 176 16 165.071 16 151.588C16 138.105 26.9258 127.176 40.4026 127.176C53.8794 127.176 64.8052 138.105 64.8052 151.588Z" stroke="white" stroke-width="2"/>
</g>
<g filter="url(#filter5_d_848_2)">
<path d="M93.3963 58.4771C86.2684 61.9221 76.3212 72.4159 76.9055 95.5292M76.9778 97.5292C78.1285 122.549 87.8238 131.698 93.1881 134.564M99.1442 134.615C105.373 131.215 114.422 120.74 115.494 97.5292M115.565 95.5292C116.205 69.5631 104.189 61.0402 98.8774 58.4256M97.5 78.5502V58.8901C97.7992 59.0196 98.1383 59.1747 98.5108 59.3599C100.224 60.2116 102.655 61.7044 105.107 64.2545C107.699 66.9504 110.349 70.8645 112.186 76.5255C111.559 76.6657 110.935 76.7976 110.315 76.9217C105.279 77.929 100.6 78.4041 97.5 78.5502ZM110.707 78.8828C111.385 78.7472 112.07 78.6021 112.759 78.4468C114.008 83.029 114.736 88.6465 114.565 95.5292H97.5V80.5523C100.701 80.4066 105.523 79.9199 110.707 78.8828ZM116.565 95.5292C116.736 88.5194 115.995 82.7415 114.705 77.9832C118.941 76.9178 123.236 75.4579 126.928 73.4849C131.595 79.6417 134.437 87.2572 134.649 95.5292H116.565ZM97.5 97.5292H114.493C114.21 103.582 113.382 108.737 112.209 113.106C106.35 111.641 100.932 111.273 97.5 111.367V97.5292ZM114.136 113.624C115.358 109.074 116.211 103.742 116.495 97.5292H134.649C134.438 105.766 131.619 113.352 126.988 119.495C122.959 116.749 118.474 114.875 114.136 113.624ZM97.5 113.367C100.778 113.271 106.007 113.624 111.656 115.029C107.953 127.059 101.584 132.572 97.5 134.302V113.367ZM95.5 113.418V134.487C95.4724 134.478 95.4442 134.468 95.4154 134.458C94.829 134.259 94.0704 133.93 93.1974 133.425C91.4539 132.415 89.268 130.71 87.0974 127.96C84.7971 125.046 82.5013 120.943 80.7745 115.226C84.8915 114.213 89.8132 113.494 95.5 113.418ZM95.5 111.418C89.6311 111.495 84.5255 112.239 80.2314 113.3C79.0875 108.947 78.2674 103.742 77.9788 97.5292H95.5V111.418ZM75.9767 97.5292C76.2673 103.909 77.1088 109.287 78.2985 113.813C72.3866 115.495 68.2268 117.738 65.9705 119.439C61.3638 113.306 58.5615 105.741 58.3505 97.5292H75.9767ZM95.5 95.5292H77.9058C77.7364 88.9179 78.4381 83.3757 79.6839 78.759C84.1201 79.7785 89.4234 80.5093 95.5 80.5821V95.5292ZM77.7455 78.2817C76.4561 83.076 75.7369 88.7833 75.9052 95.5292H58.3505C58.5622 87.2875 61.3841 79.6975 66.0205 73.5526C68.2405 74.967 72.2213 76.8287 77.7455 78.2817ZM95.5 78.5819C89.6203 78.5098 84.5088 77.8073 80.25 76.837C83.884 65.4875 90.8958 60.2833 95.5 58.6837V78.5819ZM90.8181 58.7729C86.2397 61.686 81.2058 67.2077 78.307 76.3615C73.0773 74.9907 69.3362 73.2575 67.2741 71.9787C68.2523 70.8147 69.2987 69.7098 70.4071 68.6704C75.9266 63.4949 82.9829 59.9427 90.8181 58.7729ZM85.5276 129.199C87.3393 131.494 89.182 133.137 90.8345 134.288C82.4824 133.045 75.0142 129.094 69.3482 123.356C68.6047 122.603 67.8923 121.819 67.2131 121.007C69.2466 119.483 73.1644 117.354 78.8402 115.738C80.6334 121.703 83.0452 126.055 85.5276 129.199ZM101.388 134.395C105.659 131.396 110.529 125.512 113.583 115.546C117.696 116.732 121.937 118.497 125.739 121.064C125.074 121.856 124.378 122.621 123.652 123.356C117.811 129.272 110.054 133.287 101.388 134.395ZM125.655 71.8951C122.198 73.6947 118.167 75.0548 114.139 76.0633C112.214 70.0536 109.392 65.826 106.548 62.8684C104.733 60.9804 102.923 59.6251 101.36 58.6594C110.037 59.7626 117.804 63.7802 123.652 69.7024C124.347 70.4069 125.016 71.1384 125.655 71.8951Z" stroke="white" stroke-width="2" shape-rendering="crispEdges"/>
</g>
<g filter="url(#filter6_d_848_2)">
<path d="M68.9806 70.0587L56.2793 58.4116" stroke="white" stroke-width="2"/>
</g>
<g filter="url(#filter7_d_848_2)">
<path d="M137.779 132.529L125.078 120.882" stroke="white" stroke-width="2"/>
</g>
<g filter="url(#filter8_d_848_2)">
<path d="M68.9805 123L57.3376 135.706" stroke="white" stroke-width="2"/>
</g>
<g filter="url(#filter9_d_848_2)">
<path d="M135.662 57.3527L124.02 70.0586" stroke="white" stroke-width="2"/>
</g>
</g>
<g filter="url(#filter10_d_848_2)">
<path d="M112.435 31.9412C112.435 40.7456 105.3 47.8824 96.5 47.8824C87.6997 47.8824 80.5649 40.7456 80.5649 31.9412C80.5649 23.1368 87.6997 16 96.5 16C105.3 16 112.435 23.1368 112.435 31.9412Z" stroke="white" stroke-width="2"/>
<ellipse cx="96.5" cy="31.9411" rx="5.29221" ry="5.29412" fill="white"/>
</g>
<g filter="url(#filter11_d_848_2)">
<path d="M177 96.5296C177 105.334 169.865 112.471 161.065 112.471C152.265 112.471 145.13 105.334 145.13 96.5296C145.13 87.7251 152.265 80.5884 161.065 80.5884C169.865 80.5884 177 87.7251 177 96.5296Z" stroke="white" stroke-width="2"/>
<ellipse cx="161.065" cy="96.5295" rx="5.29221" ry="5.29412" fill="white"/>
</g>
<g filter="url(#filter12_d_848_2)">
<path d="M47.8701 96.5296C47.8701 105.334 40.7354 112.471 31.9351 112.471C23.1347 112.471 16 105.334 16 96.5296C16 87.7251 23.1347 80.5884 31.9351 80.5884C40.7354 80.5884 47.8701 87.7251 47.8701 96.5296Z" stroke="white" stroke-width="2"/>
<ellipse cx="31.935" cy="96.5295" rx="5.29221" ry="5.29412" fill="white"/>
</g>
<g filter="url(#filter13_d_848_2)">
<path d="M112.435 160.059C112.435 168.863 105.3 176 96.5 176C87.6997 176 80.5649 168.863 80.5649 160.059C80.5649 151.254 87.6997 144.118 96.5 144.118C105.3 144.118 112.435 151.254 112.435 160.059Z" stroke="white" stroke-width="2"/>
<ellipse cx="96.5" cy="160.059" rx="5.29221" ry="5.29412" fill="white"/>
</g>
<path d="M58.9254 96.5293H47.8118H134.075H145.188" stroke="white" stroke-width="2"/>
<path d="M96.5 47.8237V60.0002V133.588V143.647" stroke="white" stroke-width="2"/>
<defs>
<filter id="filter0_d_848_2" x="11" y="15" width="171" height="170" filterUnits="userSpaceOnUse" color-interpolation-filters="sRGB">
<feFlood flood-opacity="0" result="BackgroundImageFix"/>
<feColorMatrix in="SourceAlpha" type="matrix" values="0 0 0 0 0 0 0 0 0 0 0 0 0 0 0 0 0 0 127 0" result="hardAlpha"/>
<feOffset dy="4"/>
<feGaussianBlur stdDeviation="2"/>
<feComposite in2="hardAlpha" operator="out"/>
<feColorMatrix type="matrix" values="0 0 0 0 0 0 0 0 0 0 0 0 0 0 0 0 0 0 0.25 0"/>
<feBlend mode="normal" in2="BackgroundImageFix" result="effect1_dropShadow_848_2"/>
<feBlend mode="normal" in="SourceGraphic" in2="effect1_dropShadow_848_2" result="shape"/>
</filter>
<filter id="filter1_d_848_2" x="0" y="0" width="80.8052" height="80.8237" filterUnits="userSpaceOnUse" color-interpolation-filters="sRGB">
<feFlood flood-opacity="0" result="BackgroundImageFix"/>
<feColorMatrix in="SourceAlpha" type="matrix" values="0 0 0 0 0 0 0 0 0 0 0 0 0 0 0 0 0 0 127 0" result="hardAlpha"/>
<feOffset/>
<feGaussianBlur stdDeviation="7.5"/>
<feColorMatrix type="matrix" values="0 0 0 0 0.662745 0 0 0 0 0.803922 0 0 0 0 0.937255 0 0 0 0.7 0"/>
<feBlend mode="normal" in2="BackgroundImageFix" result="effect1_dropShadow_848_2"/>
<feBlend mode="normal" in="SourceGraphic" in2="effect1_dropShadow_848_2" result="shape"/>
</filter>
<filter id="filter2_d_848_2" x="112.195" y="0" width="80.8052" height="80.8237" filterUnits="userSpaceOnUse" color-interpolation-filters="sRGB">
<feFlood flood-opacity="0" result="BackgroundImageFix"/>
<feColorMatrix in="SourceAlpha" type="matrix" values="0 0 0 0 0 0 0 0 0 0 0 0 0 0 0 0 0 0 127 0" result="hardAlpha"/>
<feOffset/>
<feGaussianBlur stdDeviation="7.5"/>
<feColorMatrix type="matrix" values="0 0 0 0 0.662745 0 0 0 0 0.803922 0 0 0 0 0.937255 0 0 0 0.7 0"/>
<feBlend mode="normal" in2="BackgroundImageFix" result="effect1_dropShadow_848_2"/>
<feBlend mode="normal" in="SourceGraphic" in2="effect1_dropShadow_848_2" result="shape"/>
</filter>
<filter id="filter3_d_848_2" x="112.195" y="111.176" width="80.8052" height="80.8237" filterUnits="userSpaceOnUse" color-interpolation-filters="sRGB">
<feFlood flood-opacity="0" result="BackgroundImageFix"/>
<feColorMatrix in="SourceAlpha" type="matrix" values="0 0 0 0 0 0 0 0 0 0 0 0 0 0 0 0 0 0 127 0" result="hardAlpha"/>
<feOffset/>
<feGaussianBlur stdDeviation="7.5"/>
<feColorMatrix type="matrix" values="0 0 0 0 0.662745 0 0 0 0 0.803922 0 0 0 0 0.937255 0 0 0 0.7 0"/>
<feBlend mode="normal" in2="BackgroundImageFix" result="effect1_dropShadow_848_2"/>
<feBlend mode="normal" in="SourceGraphic" in2="effect1_dropShadow_848_2" result="shape"/>
</filter>
<filter id="filter4_d_848_2" x="0" y="111.176" width="80.8052" height="80.8237" filterUnits="userSpaceOnUse" color-interpolation-filters="sRGB">
<feFlood flood-opacity="0" result="BackgroundImageFix"/>
<feColorMatrix in="SourceAlpha" type="matrix" values="0 0 0 0 0 0 0 0 0 0 0 0 0 0 0 0 0 0 127 0" result="hardAlpha"/>
<feOffset/>
<feGaussianBlur stdDeviation="7.5"/>
<feColorMatrix type="matrix" values="0 0 0 0 0.662745 0 0 0 0 0.803922 0 0 0 0 0.937255 0 0 0 0.7 0"/>
<feBlend mode="normal" in2="BackgroundImageFix" result="effect1_dropShadow_848_2"/>
<feBlend mode="normal" in="SourceGraphic" in2="effect1_dropShadow_848_2" result="shape"/>
</filter>
<filter id="filter5_d_848_2" x="42.3376" y="42.3525" width="108.325" height="108.354" filterUnits="userSpaceOnUse" color-interpolation-filters="sRGB">
<feFlood flood-opacity="0" result="BackgroundImageFix"/>
<feColorMatrix in="SourceAlpha" type="matrix" values="0 0 0 0 0 0 0 0 0 0 0 0 0 0 0 0 0 0 127 0" result="hardAlpha"/>
<feOffset/>
<feGaussianBlur stdDeviation="7.5"/>
<feComposite in2="hardAlpha" operator="out"/>
<feColorMatrix type="matrix" values="0 0 0 0 0.662745 0 0 0 0 0.803922 0 0 0 0 0.937255 0 0 0 0.7 0"/>
<feBlend mode="normal" in2="BackgroundImageFix" result="effect1_dropShadow_848_2"/>
<feBlend mode="normal" in="SourceGraphic" in2="effect1_dropShadow_848_2" result="shape"/>
</filter>
<filter id="filter6_d_848_2" x="40.6035" y="42.6748" width="44.053" height="43.1211" filterUnits="userSpaceOnUse" color-interpolation-filters="sRGB">
<feFlood flood-opacity="0" result="BackgroundImageFix"/>
<feColorMatrix in="SourceAlpha" type="matrix" values="0 0 0 0 0 0 0 0 0 0 0 0 0 0 0 0 0 0 127 0" result="hardAlpha"/>
<feOffset/>
<feGaussianBlur stdDeviation="7.5"/>
<feComposite in2="hardAlpha" operator="out"/>
<feColorMatrix type="matrix" values="0 0 0 0 0.662745 0 0 0 0 0.803922 0 0 0 0 0.937255 0 0 0 0.7 0"/>
<feBlend mode="normal" in2="BackgroundImageFix" result="effect1_dropShadow_848_2"/>
<feBlend mode="normal" in="SourceGraphic" in2="effect1_dropShadow_848_2" result="shape"/>
</filter>
<filter id="filter7_d_848_2" x="109.402" y="105.146" width="44.053" height="43.1211" filterUnits="userSpaceOnUse" color-interpolation-filters="sRGB">
<feFlood flood-opacity="0" result="BackgroundImageFix"/>
<feColorMatrix in="SourceAlpha" type="matrix" values="0 0 0 0 0 0 0 0 0 0 0 0 0 0 0 0 0 0 127 0" result="hardAlpha"/>
<feOffset/>
<feGaussianBlur stdDeviation="7.5"/>
<feComposite in2="hardAlpha" operator="out"/>
<feColorMatrix type="matrix" values="0 0 0 0 0.662745 0 0 0 0 0.803922 0 0 0 0 0.937255 0 0 0 0.7 0"/>
<feBlend mode="normal" in2="BackgroundImageFix" result="effect1_dropShadow_848_2"/>
<feBlend mode="normal" in="SourceGraphic" in2="effect1_dropShadow_848_2" result="shape"/>
</filter>
<filter id="filter8_d_848_2" x="41.6003" y="107.325" width="43.1174" height="44.0571" filterUnits="userSpaceOnUse" color-interpolation-filters="sRGB">
<feFlood flood-opacity="0" result="BackgroundImageFix"/>
<feColorMatrix in="SourceAlpha" type="matrix" values="0 0 0 0 0 0 0 0 0 0 0 0 0 0 0 0 0 0 127 0" result="hardAlpha"/>
<feOffset/>
<feGaussianBlur stdDeviation="7.5"/>
<feComposite in2="hardAlpha" operator="out"/>
<feColorMatrix type="matrix" values="0 0 0 0 0.662745 0 0 0 0 0.803922 0 0 0 0 0.937255 0 0 0 0.7 0"/>
<feBlend mode="normal" in2="BackgroundImageFix" result="effect1_dropShadow_848_2"/>
<feBlend mode="normal" in="SourceGraphic" in2="effect1_dropShadow_848_2" result="shape"/>
</filter>
<filter id="filter9_d_848_2" x="108.282" y="41.6772" width="43.1174" height="44.0571" filterUnits="userSpaceOnUse" color-interpolation-filters="sRGB">
<feFlood flood-opacity="0" result="BackgroundImageFix"/>
<feColorMatrix in="SourceAlpha" type="matrix" values="0 0 0 0 0 0 0 0 0 0 0 0 0 0 0 0 0 0 127 0" result="hardAlpha"/>
<feOffset/>
<feGaussianBlur stdDeviation="7.5"/>
<feComposite in2="hardAlpha" operator="out"/>
<feColorMatrix type="matrix" values="0 0 0 0 0.662745 0 0 0 0 0.803922 0 0 0 0 0.937255 0 0 0 0.7 0"/>
<feBlend mode="normal" in2="BackgroundImageFix" result="effect1_dropShadow_848_2"/>
<feBlend mode="normal" in="SourceGraphic" in2="effect1_dropShadow_848_2" result="shape"/>
</filter>
<filter id="filter10_d_848_2" x="64.5649" y="0" width="63.8701" height="63.8823" filterUnits="userSpaceOnUse" color-interpolation-filters="sRGB">
<feFlood flood-opacity="0" result="BackgroundImageFix"/>
<feColorMatrix in="SourceAlpha" type="matrix" values="0 0 0 0 0 0 0 0 0 0 0 0 0 0 0 0 0 0 127 0" result="hardAlpha"/>
<feOffset/>
<feGaussianBlur stdDeviation="7.5"/>
<feComposite in2="hardAlpha" operator="out"/>
<feColorMatrix type="matrix" values="0 0 0 0 0.662745 0 0 0 0 0.803922 0 0 0 0 0.937255 0 0 0 0.7 0"/>
<feBlend mode="normal" in2="BackgroundImageFix" result="effect1_dropShadow_848_2"/>
<feBlend mode="normal" in="SourceGraphic" in2="effect1_dropShadow_848_2" result="shape"/>
</filter>
<filter id="filter11_d_848_2" x="129.13" y="64.5884" width="63.8701" height="63.8823" filterUnits="userSpaceOnUse" color-interpolation-filters="sRGB">
<feFlood flood-opacity="0" result="BackgroundImageFix"/>
<feColorMatrix in="SourceAlpha" type="matrix" values="0 0 0 0 0 0 0 0 0 0 0 0 0 0 0 0 0 0 127 0" result="hardAlpha"/>
<feOffset/>
<feGaussianBlur stdDeviation="7.5"/>
<feComposite in2="hardAlpha" operator="out"/>
<feColorMatrix type="matrix" values="0 0 0 0 0.662745 0 0 0 0 0.803922 0 0 0 0 0.937255 0 0 0 0.7 0"/>
<feBlend mode="normal" in2="BackgroundImageFix" result="effect1_dropShadow_848_2"/>
<feBlend mode="normal" in="SourceGraphic" in2="effect1_dropShadow_848_2" result="shape"/>
</filter>
<filter id="filter12_d_848_2" x="0" y="64.5884" width="63.8701" height="63.8823" filterUnits="userSpaceOnUse" color-interpolation-filters="sRGB">
<feFlood flood-opacity="0" result="BackgroundImageFix"/>
<feColorMatrix in="SourceAlpha" type="matrix" values="0 0 0 0 0 0 0 0 0 0 0 0 0 0 0 0 0 0 127 0" result="hardAlpha"/>
<feOffset/>
<feGaussianBlur stdDeviation="7.5"/>
<feComposite in2="hardAlpha" operator="out"/>
<feColorMatrix type="matrix" values="0 0 0 0 0.662745 0 0 0 0 0.803922 0 0 0 0 0.937255 0 0 0 0.7 0"/>
<feBlend mode="normal" in2="BackgroundImageFix" result="effect1_dropShadow_848_2"/>
<feBlend mode="normal" in="SourceGraphic" in2="effect1_dropShadow_848_2" result="shape"/>
</filter>
<filter id="filter13_d_848_2" x="64.5649" y="128.118" width="63.8701" height="63.8823" filterUnits="userSpaceOnUse" color-interpolation-filters="sRGB">
<feFlood flood-opacity="0" result="BackgroundImageFix"/>
<feColorMatrix in="SourceAlpha" type="matrix" values="0 0 0 0 0 0 0 0 0 0 0 0 0 0 0 0 0 0 127 0" result="hardAlpha"/>
<feOffset/>
<feGaussianBlur stdDeviation="7.5"/>
<feComposite in2="hardAlpha" operator="out"/>
<feColorMatrix type="matrix" values="0 0 0 0 0.662745 0 0 0 0 0.803922 0 0 0 0 0.937255 0 0 0 0.7 0"/>
<feBlend mode="normal" in2="BackgroundImageFix" result="effect1_dropShadow_848_2"/>
<feBlend mode="normal" in="SourceGraphic" in2="effect1_dropShadow_848_2" result="shape"/>
</filter>
</defs>
</svg>
