<svg width="269" height="229" viewBox="0 0 269 229" fill="none" xmlns="http://www.w3.org/2000/svg">
<g filter="url(#filter0_d_634_685)">
<path d="M168.072 78.5308L151.144 101.454C151.112 101.48 151.072 101.511 151.025 101.548C150.88 101.663 150.663 101.831 150.382 102.046C149.819 102.474 149 103.085 147.976 103.809C145.926 105.259 143.066 107.157 139.819 108.958C136.568 110.762 132.955 112.453 129.397 113.505C125.827 114.56 122.4 114.945 119.475 114.237C116.859 113.582 115.445 111.74 114.841 109.111C114.224 106.424 114.49 103.007 115.268 99.5415C116.042 96.0947 117.299 92.7011 118.568 90.1099C119.203 88.8131 119.83 87.7404 120.387 86.971C120.666 86.5857 120.914 86.295 121.122 86.0945C121.226 85.9949 121.311 85.9261 121.377 85.8809C121.426 85.8468 121.456 85.8322 121.467 85.8274C121.898 85.7021 122.953 85.4867 124.546 85.2004C126.144 84.9132 128.222 84.5648 130.613 84.1782C135.395 83.4052 141.414 82.482 147.316 81.5943C153.217 80.7067 158.999 79.8551 163.305 79.2253C165.229 78.944 166.858 78.707 168.072 78.5308Z" stroke="white" stroke-width="2"/>
<path d="M16.957 16.9197V16.8193L82.9179 58.6934L32.5428 138.015L16.957 128.097V16.9197Z" stroke="white" stroke-width="2"/>
<path d="M237.414 138.015L187.039 58.6934L253 16.8193V16.9197V128.097L237.414 138.015Z" stroke="white" stroke-width="2"/>
<path d="M182.752 70.7199L193.053 64.1698L236.483 132.471L226.182 139.021L182.752 70.7199Z" stroke="white" stroke-width="2"/>
<path d="M217.451 111.907L217.455 111.913C227.162 126.847 223.388 146.17 209.313 155.06L165.544 182.703C151.468 191.593 132.483 186.82 122.765 171.872C122.764 171.871 122.764 171.87 122.763 171.869L110.481 152.678L110.477 152.672C100.77 137.738 104.544 118.416 118.619 109.526L118.799 109.412L118.918 109.235L135.472 84.3855L148.002 82.0219L161.408 79.8408L161.43 79.8371L161.452 79.8325C171.335 77.7638 179.855 77.2853 187.094 79.1597C194.291 81.0229 200.303 85.2315 205.167 92.7129C205.168 92.714 205.168 92.715 205.169 92.7161L217.451 111.907Z" fill="#000816" stroke="white" stroke-width="2"/>
<path d="M192.336 140.625L192.341 140.621C193.545 139.848 194.34 139.773 194.906 139.928C195.512 140.094 196.121 140.593 196.791 141.524C197.457 142.449 198.082 143.651 198.785 145.027L198.876 145.206C199.541 146.508 200.268 147.931 201.124 149.263C202.025 150.664 202.985 151.827 203.802 152.807L203.864 152.881C204.677 153.855 205.289 154.589 205.656 155.248C206.011 155.886 206.038 156.28 205.9 156.635C205.731 157.071 205.225 157.687 203.933 158.518C203.932 158.519 203.931 158.519 203.93 158.52L123.308 209.58L123.303 209.584C118.385 212.745 111.712 211.333 108.559 206.429C105.399 201.512 106.809 194.84 111.711 191.687C111.712 191.686 111.713 191.686 111.714 191.685L192.336 140.625Z" fill="#000816" stroke="white" stroke-width="2"/>
<path d="M142.426 121.81L142.429 121.808C147.346 118.647 154.02 120.059 157.173 124.963C160.333 129.88 158.922 136.553 154.019 139.706C154.019 139.706 154.018 139.706 154.018 139.706L73.3933 191.152L73.3905 191.154C68.4734 194.315 61.7996 192.903 58.6469 187.999C55.4862 183.083 56.8977 176.409 61.8009 173.256C61.8013 173.256 61.8016 173.256 61.802 173.256L142.426 121.81Z" fill="#000816" stroke="white" stroke-width="2"/>
<path d="M159.32 137.168L159.323 137.166C164.24 134.005 170.913 135.417 174.066 140.321C177.227 145.237 175.815 151.911 170.912 155.064C170.912 155.064 170.911 155.064 170.911 155.064L90.2866 206.51L90.2838 206.512C85.3667 209.673 78.6929 208.261 75.5402 203.357C72.3795 198.44 73.791 191.767 78.6942 188.614C78.6946 188.614 78.6949 188.614 78.6953 188.614L159.32 137.168Z" fill="#000816" stroke="white" stroke-width="2"/>
<path d="M150.527 114.566L150.525 114.568L73.0074 164.662C73.0069 164.662 73.0065 164.662 73.006 164.663C68.0891 167.822 61.4162 166.41 58.2639 161.507C55.1044 156.592 56.5134 149.922 61.4118 146.768L135.399 100.988L135.406 100.984L135.414 100.979C136.664 100.175 137.72 99.8009 138.628 99.7152C139.522 99.6309 140.337 99.8196 141.131 100.25C142.785 101.147 144.33 103.074 146.062 105.768C146.986 107.206 148.077 108.361 149.074 109.32C149.453 109.685 149.803 110.009 150.124 110.306C150.687 110.827 151.162 111.266 151.549 111.702C152.16 112.389 152.226 112.727 152.188 112.929C152.139 113.188 151.84 113.722 150.527 114.566Z" fill="#000816" stroke="white" stroke-width="2"/>
<path d="M43.6877 139.187L33.3873 132.639L76.8067 64.3415L87.1072 70.8899L43.6877 139.187Z" stroke="white" stroke-width="2"/>
<path d="M42.0001 88.1613L41.9869 88.1811L41.9747 88.2015C39.9927 91.5048 35.6634 92.2055 32.6366 90.1876L32.6168 90.1744L32.5963 90.1622C29.2931 88.1802 28.5924 83.8508 30.6103 80.8241L30.6235 80.8043L30.6357 80.7838C32.6177 77.4806 36.947 76.7799 39.9738 78.7978C42.9993 80.8148 43.978 85.1944 42.0001 88.1613Z" stroke="white" stroke-width="2"/>
<path d="M208.16 172.877L208.17 172.883L208.18 172.889C213.385 176.013 214.887 182.644 210.926 188.766L210.924 188.768C207.772 193.672 201.098 195.084 196.181 191.923L196.136 191.894L196.087 191.87L195.319 191.486L191.951 189.802L194.04 192.935C196.146 196.094 196.474 200.635 194.053 204.093L194.042 204.109L194.031 204.126C190.879 209.029 184.207 210.442 179.29 207.282C179.289 207.282 179.288 207.281 179.288 207.281L163.934 197.301L161.386 195.645L162.453 198.491C163.486 201.246 163.158 204.375 161.393 207.203C158.239 212.103 151.568 213.512 146.653 210.352L146.65 210.351L66.0226 158.903L65.9785 158.875L65.9319 158.851C65.3353 158.553 64.681 157.912 64.272 157.503L64.202 157.433L64.1196 157.378L60.6642 155.074L60.6539 155.067L60.6435 155.061C46.5683 146.171 42.794 126.849 52.5013 111.914L52.5051 111.908L64.7912 92.7115L64.7925 92.7093C72.6344 80.3864 87.1625 74.8378 99.757 78.5421L99.7996 78.5546L99.8431 78.5633C101.124 78.8195 104.842 79.4261 109.356 80.1625C111.681 80.542 114.218 80.9559 116.742 81.3742C120.466 81.9913 124.172 82.6194 127.161 83.1648C130.133 83.7071 132.305 84.1522 133.123 84.4145C133.349 84.5222 133.886 84.871 134.722 85.5083C135.563 86.1503 136.628 87.0223 137.826 88.0685C140.224 90.161 143.132 92.9281 145.834 95.905C148.544 98.89 151.011 102.047 152.561 104.921C154.151 107.869 154.601 110.196 153.866 111.738L153.482 112.546L154.241 113.018L208.537 146.765C208.539 146.766 208.541 146.768 208.544 146.769C213.443 149.924 214.852 156.594 211.692 161.509L211.684 161.522L211.676 161.535C209.598 164.998 205.389 166.783 201.49 166.429L200.865 168.27L208.16 172.877Z" fill="#000816" stroke="white" stroke-width="2"/>
<path d="M161.71 195.919L120.529 170.47" stroke="white" stroke-width="2"/>
<path d="M193.637 190.829L137.649 155.663" stroke="white" stroke-width="2"/>
<path d="M201.04 166.768L152.456 139.006" stroke="white" stroke-width="2"/>
<path d="M199.544 155.693L199.563 155.664L199.58 155.634L201.098 152.978C201.744 152.022 202.593 151.431 203.466 151.213C204.335 150.995 205.295 151.13 206.22 151.747C207.192 152.394 207.792 153.252 208.012 154.133C208.23 155.002 208.095 155.961 207.479 156.887L207.428 156.963L207.391 157.048L206.278 159.646C205.082 161.353 202.682 161.734 200.751 160.798C199.81 160.154 199.227 159.312 199.01 158.447C198.793 157.577 198.927 156.618 199.544 155.693Z" stroke="white" stroke-width="2"/>
<path d="M199.159 181.801L199.178 181.772L199.196 181.742L200.713 179.086C201.359 178.13 202.209 177.539 203.081 177.321C203.95 177.104 204.91 177.238 205.835 177.855C206.807 178.503 207.407 179.36 207.628 180.241C207.845 181.11 207.711 182.07 207.094 182.995L207.075 183.024L207.058 183.054L205.522 185.741L205.508 185.765L205.496 185.79C204.634 187.513 202.262 188.17 200.418 186.941C199.446 186.293 198.846 185.436 198.626 184.555C198.408 183.686 198.542 182.726 199.159 181.801Z" stroke="white" stroke-width="2"/>
<path d="M149.247 200.612L149.266 200.584L149.283 200.554L150.801 197.897C151.446 196.942 152.296 196.351 153.169 196.133C154.038 195.915 154.997 196.049 155.923 196.666C156.894 197.314 157.495 198.172 157.715 199.052C157.932 199.922 157.798 200.881 157.181 201.807L157.162 201.835L157.145 201.865L155.609 204.553L155.595 204.577L155.583 204.602C154.722 206.325 152.349 206.982 150.505 205.753C149.533 205.105 148.933 204.248 148.713 203.367C148.496 202.497 148.63 201.538 149.247 200.612Z" stroke="white" stroke-width="2"/>
<path d="M182.266 197.159L182.285 197.13L182.302 197.1L183.82 194.444C184.466 193.488 185.315 192.897 186.188 192.679C187.057 192.461 188.016 192.596 188.942 193.213C189.913 193.86 190.514 194.718 190.734 195.599C190.951 196.468 190.817 197.427 190.2 198.353L190.181 198.381L190.164 198.411L188.646 201.068C188 202.023 187.151 202.614 186.278 202.833C185.409 203.05 184.45 202.916 183.524 202.299C182.553 201.651 181.952 200.794 181.732 199.913C181.515 199.044 181.649 198.084 182.266 197.159Z" stroke="white" stroke-width="2"/>
<path d="M155.232 112.169L119.62 119.433C115.013 122.12 108.87 119.433 105.414 114.057C101.959 108.298 103.111 101.771 107.718 99.0838L134.41 83.9434" stroke="white" stroke-width="2"/>
<path d="M138.112 85.3315L133.022 86.257L151.53 110.78L156.157 112.169L158.008 107.541L138.112 85.3315Z" fill="#000816" stroke="#000816"/>
<rect x="106.134" y="102.089" width="16.1764" height="7.17544" rx="3" transform="rotate(-26 106.134 102.089)" stroke="white" stroke-width="2"/>
</g>
<defs>
<filter id="filter0_d_634_685" x="0.957031" y="0" width="268.042" height="228.039" filterUnits="userSpaceOnUse" color-interpolation-filters="sRGB">
<feFlood flood-opacity="0" result="BackgroundImageFix"/>
<feColorMatrix in="SourceAlpha" type="matrix" values="0 0 0 0 0 0 0 0 0 0 0 0 0 0 0 0 0 0 127 0" result="hardAlpha"/>
<feOffset/>
<feGaussianBlur stdDeviation="7.5"/>
<feComposite in2="hardAlpha" operator="out"/>
<feColorMatrix type="matrix" values="0 0 0 0 0.662745 0 0 0 0 0.803922 0 0 0 0 0.937255 0 0 0 0.7 0"/>
<feBlend mode="normal" in2="BackgroundImageFix" result="effect1_dropShadow_634_685"/>
<feBlend mode="normal" in="SourceGraphic" in2="effect1_dropShadow_634_685" result="shape"/>
</filter>
</defs>
</svg>
