<svg width="177" height="147" viewBox="0 0 177 147" fill="none" xmlns="http://www.w3.org/2000/svg">
<path d="M112.242 47.6558L100.149 64.0312C100.131 64.045 100.112 64.0607 100.09 64.078C99.983 64.1617 99.8242 64.2854 99.6179 64.4426C99.2052 64.7571 98.603 65.2058 97.8506 65.738C96.3441 66.8034 94.2427 68.1982 91.8583 69.521C89.4699 70.846 86.8231 72.0842 84.223 72.8527C81.6125 73.6243 79.136 73.8962 77.0415 73.3894C75.232 72.9358 74.2458 71.6729 73.8164 69.8042C73.3737 67.8778 73.5616 65.4013 74.1317 62.8616C74.6977 60.3402 75.6177 57.8564 76.5454 55.9624C77.0099 55.0142 77.465 54.237 77.8641 53.6854C78.0641 53.409 78.2368 53.2078 78.3758 53.0742C78.4745 52.9794 78.5314 52.9426 78.5469 52.9327C78.8628 52.8441 79.6164 52.6904 80.766 52.4837C81.9424 52.2723 83.4735 52.0156 85.2369 51.7305C88.7627 51.1606 93.2013 50.4797 97.5545 49.825C101.907 49.1703 106.171 48.5422 109.348 48.0777C110.46 47.915 111.439 47.7724 112.242 47.6558Z" stroke="white" stroke-width="2"/>
<path d="M1.62012 2.26219L49.6511 32.7537L12.7738 90.8217L1.62012 83.7239V2.26219Z" stroke="white" stroke-width="2"/>
<path d="M164.056 90.8217L127.179 32.7537L175.21 2.26219V83.7239L164.056 90.8217Z" stroke="white" stroke-width="2"/>
<path d="M124.017 41.6248L131.173 37.0747L162.927 87.0137L155.771 91.5638L124.017 41.6248Z" stroke="white" stroke-width="2"/>
<path d="M149.029 72.067L149.033 72.0729C156.121 82.978 153.354 97.0626 143.107 103.535L110.821 123.926C100.573 130.398 86.7256 126.935 79.6263 116.016C79.6257 116.015 79.6251 116.014 79.6245 116.013L70.5656 101.859L70.5617 101.853C63.4734 90.9476 66.2405 76.863 76.4879 70.3909L76.668 70.2772L76.7862 70.0998L88.9359 51.8618L98.0667 50.1393L107.952 48.531L107.975 48.5274L107.997 48.5228C115.27 47.0004 121.508 46.6557 126.792 48.0237C132.033 49.3805 136.414 52.4427 139.969 57.9099C139.969 57.9108 139.97 57.9116 139.97 57.9124L149.029 72.067Z" fill="#000816" stroke="white" stroke-width="2"/>
<path d="M130.864 93.3306L130.87 93.327C131.721 92.7799 132.23 92.7601 132.55 92.848C132.911 92.9469 133.316 93.2564 133.798 93.9257C134.275 94.5886 134.727 95.4564 135.247 96.4753C135.27 96.5203 135.293 96.5656 135.317 96.6111C135.805 97.5685 136.347 98.6292 136.986 99.623C137.66 100.671 138.377 101.54 138.981 102.263L139.01 102.298C139.624 103.034 140.061 103.559 140.32 104.023C140.562 104.458 140.548 104.663 140.485 104.824C140.391 105.065 140.077 105.482 139.137 106.087C139.136 106.087 139.135 106.088 139.134 106.088L79.666 143.751L79.6604 143.755C76.1535 146.01 71.3936 145.001 69.1475 141.507C66.8936 138.001 67.9016 133.242 71.3933 130.995C71.3942 130.995 71.3951 130.994 71.396 130.994L130.864 93.3306Z" fill="#000816" stroke="white" stroke-width="2"/>
<path d="M94.0497 79.4513L94.0526 79.4495C97.5594 77.1951 102.319 78.2041 104.565 81.698C106.82 85.2044 105.811 89.9637 102.318 92.2101C102.318 92.2103 102.317 92.2106 102.317 92.2108L42.8458 130.159L42.843 130.161C39.3361 132.415 34.5762 131.406 32.3301 127.912C30.0759 124.406 31.0845 119.647 34.5775 117.4C34.5779 117.4 34.5782 117.4 34.5786 117.4L94.0497 79.4513Z" fill="#000816" stroke="white" stroke-width="2"/>
<path d="M106.512 90.7798L106.514 90.778C110.021 88.5236 114.781 89.5326 117.027 93.0264C119.282 96.533 118.273 101.292 114.78 103.539C114.78 103.539 114.779 103.539 114.779 103.539L55.3077 141.488L55.3049 141.489C51.798 143.744 47.0381 142.735 44.792 139.241C42.5378 135.734 43.5464 130.975 47.0394 128.729C47.0398 128.729 47.0401 128.728 47.0405 128.728L106.512 90.7798Z" fill="#000816" stroke="white" stroke-width="2"/>
<path d="M99.7422 73.6664L99.7402 73.6677L42.5607 110.619C42.5605 110.619 42.5603 110.619 42.5601 110.619C39.0533 112.873 34.2938 111.864 32.0479 108.37C29.795 104.866 30.8011 100.11 34.2893 97.8621L88.8632 64.0946L88.8705 64.0901L88.8778 64.0854C89.7761 63.5079 90.515 63.2518 91.1318 63.1935C91.7346 63.1366 92.2837 63.2624 92.8284 63.5577C93.9829 64.1839 95.0913 65.5503 96.37 67.5393C97.0678 68.6248 97.889 69.4924 98.6303 70.2064C98.921 70.4863 99.1841 70.7295 99.4225 70.9499C99.8293 71.326 100.164 71.6358 100.442 71.9484C100.885 72.4464 100.855 72.6111 100.851 72.631C100.837 72.7069 100.702 73.049 99.7422 73.6664Z" fill="#000816" stroke="white" stroke-width="2"/>
<path d="M20.9944 91.6864L13.8391 87.1375L45.5856 37.2012L52.7408 41.7501L20.9944 91.6864Z" stroke="white" stroke-width="2"/>
<path d="M19.6123 54.2642L19.5991 54.284L19.5868 54.3044C18.2093 56.6004 15.1894 57.0996 13.0692 55.6861L13.0494 55.6729L13.029 55.6607C10.733 54.2831 10.2338 51.2632 11.6473 49.143L11.6605 49.1232L11.6727 49.1028C13.0503 46.8069 16.0701 46.3076 18.1904 47.7211C20.3093 49.1337 20.9858 52.2039 19.6123 54.2642Z" stroke="white" stroke-width="2"/>
<path d="M142.256 117.121L142.266 117.128L142.276 117.133C145.97 119.35 147.07 124.067 144.216 128.477L144.215 128.48C141.969 131.974 137.209 132.983 133.702 130.728L133.657 130.699L133.608 130.675L133.042 130.392L129.674 128.708L131.763 131.841C133.264 134.093 133.491 137.324 131.776 139.775L131.764 139.791L131.754 139.808C129.508 143.301 124.749 144.311 121.243 142.058C121.242 142.057 121.241 142.057 121.241 142.056L109.917 134.696L107.368 133.039L108.435 135.885C109.166 137.834 108.939 140.057 107.677 142.079C105.43 145.569 100.673 146.575 97.168 144.322L97.1651 144.32L37.6911 106.37L37.6471 106.342L37.6004 106.319C37.2053 106.121 36.7525 105.682 36.4443 105.373L36.3743 105.303L36.2919 105.248L33.743 103.549L33.7327 103.542L33.7223 103.536C23.4749 97.0636 20.7078 82.979 27.7961 72.0739L27.7961 72.0739L27.8 72.0679L36.8627 57.9074L36.864 57.9053C42.5906 48.9065 53.1902 44.8688 62.3599 47.5658L62.4025 47.5783L62.446 47.587C63.3956 47.7769 66.1479 48.226 69.4831 48.7702C71.1967 49.0498 73.0642 49.3545 74.9201 49.662C77.6665 50.1171 80.3986 50.5802 82.6014 50.9821C84.7821 51.38 86.3546 51.7029 86.9487 51.8901C87.0917 51.962 87.4621 52.2004 88.0662 52.6613C88.6814 53.1305 89.4621 53.7699 90.3429 54.5388C92.1049 56.0768 94.2424 58.1109 96.228 60.2981C98.2208 62.4933 100.025 64.8038 101.153 66.8968C102.322 69.0638 102.593 70.6749 102.11 71.6883L101.726 72.4956L102.485 72.9676L142.533 97.8589C142.535 97.8602 142.537 97.8615 142.539 97.8628C146.028 100.11 147.034 104.867 144.781 108.372L144.773 108.385L144.765 108.398C143.291 110.854 140.291 112.135 137.5 111.882L136.875 113.723L142.256 117.121Z" fill="#000816" stroke="white" stroke-width="2"/>
<path d="M108.134 133.896L77.7568 115.124" stroke="white" stroke-width="2"/>
<path d="M131.684 130.141L90.3857 104.202" stroke="white" stroke-width="2"/>
<path d="M137.144 112.393L101.307 91.9144" stroke="white" stroke-width="2"/>
<path d="M136.259 104.369L136.278 104.34L136.296 104.31L137.41 102.36C137.854 101.706 138.427 101.316 138.998 101.174C139.565 101.032 140.197 101.116 140.82 101.531C141.489 101.977 141.888 102.558 142.033 103.136C142.175 103.703 142.091 104.336 141.675 104.959L141.625 105.035L141.588 105.12L140.778 107.01C139.984 108.118 138.388 108.395 137.063 107.762C136.425 107.32 136.043 106.755 135.902 106.191C135.76 105.624 135.844 104.992 136.259 104.369Z" stroke="white" stroke-width="2"/>
<path d="M135.976 123.628L135.995 123.599L136.012 123.569L137.127 121.618C137.571 120.965 138.143 120.575 138.714 120.432C139.281 120.29 139.914 120.374 140.537 120.79C141.206 121.236 141.605 121.816 141.75 122.395C141.892 122.962 141.808 123.594 141.392 124.217L141.373 124.246L141.356 124.276L140.223 126.258L140.209 126.283L140.197 126.307C139.638 127.426 138.071 127.882 136.832 127.055C136.162 126.609 135.763 126.029 135.619 125.45C135.477 124.883 135.561 124.251 135.976 123.628Z" stroke="white" stroke-width="2"/>
<path d="M99.1587 137.504L99.1778 137.475L99.1949 137.445L100.31 135.494C100.754 134.841 101.326 134.451 101.897 134.308C102.464 134.167 103.096 134.25 103.719 134.666C104.389 135.112 104.788 135.692 104.932 136.271C105.074 136.838 104.99 137.47 104.575 138.094L104.556 138.122L104.539 138.152L103.406 140.135L103.392 140.159L103.38 140.184C102.82 141.302 101.254 141.758 100.014 140.932C99.3447 140.485 98.9459 139.905 98.8012 139.326C98.6594 138.759 98.7432 138.127 99.1587 137.504Z" stroke="white" stroke-width="2"/>
<path d="M123.514 134.956L123.533 134.927L123.55 134.897L124.665 132.947C125.109 132.293 125.681 131.903 126.252 131.76C126.819 131.619 127.452 131.702 128.075 132.118C128.744 132.564 129.143 133.145 129.288 133.723C129.43 134.29 129.346 134.923 128.93 135.546L128.911 135.574L128.894 135.604L127.779 137.555C127.336 138.208 126.763 138.599 126.192 138.741C125.625 138.883 124.993 138.799 124.37 138.384C123.7 137.937 123.301 137.357 123.157 136.778C123.015 136.211 123.099 135.579 123.514 134.956Z" stroke="white" stroke-width="2"/>
<path d="M103.354 72.1185L77.0858 77.4767C73.6873 79.4592 69.1559 77.4767 66.607 73.5118C64.0581 69.2637 64.9078 64.4491 68.3063 62.4666L87.9954 51.2985" stroke="white" stroke-width="2"/>
<path d="M90.7261 52.3223L86.9717 53.0049L100.624 71.0944L104.037 72.1184L105.403 68.7052L90.7261 52.3223Z" fill="#000816" stroke="#000816"/>
<rect x="67.4885" y="64.8038" width="11.4077" height="4.76818" rx="2.38409" transform="rotate(-26 67.4885 64.8038)" stroke="white" stroke-width="2"/>
</svg>
