<svg width="194" height="147" viewBox="0 0 194 147" fill="none" xmlns="http://www.w3.org/2000/svg">
<path d="M70.1218 89.5952C70.1207 89.6092 70.1197 89.6233 70.1186 89.6376C70.0613 90.3938 69.9857 91.4768 69.9124 92.7875C69.7658 95.4073 69.6276 98.9442 69.6629 102.602C69.6982 106.252 69.9063 110.06 70.4631 113.207C70.7414 114.779 71.1128 116.223 71.6118 117.413C72.1033 118.586 72.7644 119.624 73.6899 120.243L73.6925 120.245C78.2748 123.29 83.3399 123.045 86.6014 122.886C87.228 122.856 87.788 122.829 88.2653 122.829H88.2905L88.3157 122.827C89.2596 122.78 90.1987 123.054 90.9961 123.619C91.7877 124.179 92.4008 125 92.7363 125.97L93.1985 127.623H55.2508C52.5177 125.659 50.2064 123.092 48.4762 120.092C48.2238 119.614 47.983 118.8 47.7803 117.655C47.5796 116.521 47.4293 115.144 47.3213 113.604C47.1052 110.526 47.0622 106.866 47.1023 103.342C47.1423 99.8205 47.265 96.4518 47.3779 93.9621C47.4342 92.7177 47.4881 91.6939 47.5279 90.9816C47.5322 90.9039 47.5364 90.83 47.5403 90.7599L70.1218 89.5952Z" stroke="white" stroke-width="2"/>
<mask id="path-2-inside-1_945_260" fill="white">
<path d="M102.549 94.1242H20.9069C19.1699 94.0563 17.5161 93.3165 16.257 92.0441C14.9978 90.7717 14.2202 89.0544 14.0705 87.2156L8.08344 14.5396C7.99226 13.6345 8.08173 12.7191 8.34601 11.8531C8.6103 10.9871 9.04348 10.19 9.61732 9.51362C10.1534 8.89043 10.8073 8.39438 11.5363 8.05791C12.2653 7.72143 13.053 7.55211 13.8478 7.561H95.4894C97.2258 7.6268 98.8795 8.36475 100.139 9.63573C101.398 10.9067 102.176 12.6229 102.326 14.4608L108.313 87.1368C108.402 88.0419 108.312 88.9567 108.047 89.8223C107.783 90.688 107.351 91.4853 106.779 92.1628C106.242 92.7855 105.588 93.2817 104.86 93.6195C104.131 93.9573 103.344 94.1293 102.549 94.1242ZM13.8396 8.43662C13.1543 8.42245 12.474 8.56349 11.8441 8.85036C11.2141 9.13723 10.649 9.56333 10.1863 10.1003C9.68858 10.6906 9.31319 11.3854 9.08447 12.1396C8.85575 12.8938 8.7788 13.6906 8.85863 14.4784L14.8539 87.1543C14.9759 88.7802 15.6552 90.302 16.7632 91.4316C17.8711 92.5613 19.3308 93.2202 20.8657 93.2836H102.507C103.187 93.2895 103.861 93.1437 104.485 92.8556C105.108 92.5675 105.668 92.1436 106.128 91.6112C106.625 91.0209 107.001 90.3261 107.229 89.5719C107.458 88.8177 107.535 88.0209 107.455 87.2331L101.46 14.5572C101.34 12.9307 100.661 11.4077 99.5527 10.2777C98.4443 9.14773 96.9837 8.48941 95.4482 8.42786L13.8396 8.43662Z"/>
</mask>
<path d="M102.549 94.1242H20.9069C19.1699 94.0563 17.5161 93.3165 16.257 92.0441C14.9978 90.7717 14.2202 89.0544 14.0705 87.2156L8.08344 14.5396C7.99226 13.6345 8.08173 12.7191 8.34601 11.8531C8.6103 10.9871 9.04348 10.19 9.61732 9.51362C10.1534 8.89043 10.8073 8.39438 11.5363 8.05791C12.2653 7.72143 13.053 7.55211 13.8478 7.561H95.4894C97.2258 7.6268 98.8795 8.36475 100.139 9.63573C101.398 10.9067 102.176 12.6229 102.326 14.4608L108.313 87.1368C108.402 88.0419 108.312 88.9567 108.047 89.8223C107.783 90.688 107.351 91.4853 106.779 92.1628C106.242 92.7855 105.588 93.2817 104.86 93.6195C104.131 93.9573 103.344 94.1293 102.549 94.1242ZM13.8396 8.43662C13.1543 8.42245 12.474 8.56349 11.8441 8.85036C11.2141 9.13723 10.649 9.56333 10.1863 10.1003C9.68858 10.6906 9.31319 11.3854 9.08447 12.1396C8.85575 12.8938 8.7788 13.6906 8.85863 14.4784L14.8539 87.1543C14.9759 88.7802 15.6552 90.302 16.7632 91.4316C17.8711 92.5613 19.3308 93.2202 20.8657 93.2836H102.507C103.187 93.2895 103.861 93.1437 104.485 92.8556C105.108 92.5675 105.668 92.1436 106.128 91.6112C106.625 91.0209 107.001 90.3261 107.229 89.5719C107.458 88.8177 107.535 88.0209 107.455 87.2331L101.46 14.5572C101.34 12.9307 100.661 11.4077 99.5527 10.2777C98.4443 9.14773 96.9837 8.48941 95.4482 8.42786L13.8396 8.43662Z" fill="white"/>
<path d="M20.9069 94.1242L20.8288 96.1227L20.8679 96.1242H20.9069V94.1242ZM14.0705 87.2156L16.0639 87.0533L16.0637 87.0514L14.0705 87.2156ZM8.08344 14.5396L10.0767 14.3754L10.0752 14.3573L10.0734 14.3392L8.08344 14.5396ZM9.61732 9.51362L8.10107 8.20933L8.09226 8.21971L9.61732 9.51362ZM13.8478 7.561L13.8255 9.56088L13.8367 9.561H13.8478V7.561ZM95.4894 7.561L95.5652 5.56244L95.5273 5.561H95.4894V7.561ZM102.326 14.4608L100.333 14.6234L100.333 14.625L102.326 14.4608ZM108.313 87.1368L106.32 87.301L106.321 87.3169L106.323 87.3328L108.313 87.1368ZM106.779 92.1628L108.294 93.469L108.3 93.4611L108.307 93.4531L106.779 92.1628ZM13.8396 8.43662L13.7982 10.4362L13.819 10.4366L13.8398 10.4366L13.8396 8.43662ZM10.1863 10.1003L8.67122 8.79474L8.66423 8.80285L8.65733 8.81104L10.1863 10.1003ZM8.85863 14.4784L10.8519 14.3139L10.8503 14.2953L10.8484 14.2767L8.85863 14.4784ZM14.8539 87.1543L16.8483 87.0047L16.8478 86.9973L16.8472 86.9899L14.8539 87.1543ZM20.8657 93.2836L20.7831 95.2819L20.8244 95.2836H20.8657V93.2836ZM102.507 93.2836L102.525 91.2837L102.516 91.2836H102.507V93.2836ZM106.128 91.6112L107.642 92.9181L107.649 92.9093L107.657 92.9005L106.128 91.6112ZM107.455 87.2331L105.462 87.3976L105.464 87.4162L105.465 87.4348L107.455 87.2331ZM101.46 14.5572L99.4654 14.7046L99.4661 14.7131L99.4668 14.7216L101.46 14.5572ZM95.4482 8.42786L95.5283 6.42946L95.4882 6.42785L95.448 6.42786L95.4482 8.42786ZM102.549 92.1242H20.9069V96.1242H102.549V92.1242ZM20.9851 92.1257C19.7711 92.0783 18.5928 91.5612 17.6786 90.6373L14.8353 93.4509C16.4394 95.0718 18.5687 96.0343 20.8288 96.1227L20.9851 92.1257ZM17.6786 90.6373C16.7614 89.7105 16.1767 88.4386 16.0639 87.0533L12.0771 87.3779C12.2637 89.6703 13.2342 91.8328 14.8353 93.4509L17.6786 90.6373ZM16.0637 87.0514L10.0767 14.3754L6.09019 14.7038L12.0772 87.3798L16.0637 87.0514ZM10.0734 14.3392C10.0086 13.6967 10.0724 13.0479 10.2589 12.4369L6.43311 11.2693C6.09101 12.3903 5.97587 13.5723 6.09351 14.7401L10.0734 14.3392ZM10.2589 12.4369C10.4453 11.826 10.7486 11.2717 11.1424 10.8075L8.09226 8.21971C7.33838 9.10826 6.77525 10.1482 6.43311 11.2693L10.2589 12.4369ZM11.1335 10.8179C11.4874 10.4065 11.9118 10.0874 12.3745 9.87381L10.6982 6.242C9.70281 6.70141 8.81938 7.37436 8.1011 8.20936L11.1335 10.8179ZM12.3745 9.87381C12.8366 9.66049 13.3306 9.55534 13.8255 9.56088L13.8702 5.56113C12.7753 5.54888 11.694 5.78238 10.6982 6.242L12.3745 9.87381ZM13.8478 9.561H95.4894V5.561H13.8478V9.561ZM95.4137 9.55957C96.6266 9.60553 97.8041 10.121 98.718 11.0434L101.56 8.22806C99.9548 6.60848 97.825 5.64808 95.5652 5.56244L95.4137 9.55957ZM98.718 11.0434C99.6349 11.9687 100.22 13.2393 100.333 14.6234L104.319 14.2983C104.132 12.0065 103.161 9.84469 101.56 8.22806L98.718 11.0434ZM100.333 14.625L106.32 87.301L110.306 86.9726L104.319 14.2966L100.333 14.625ZM106.323 87.3328C106.386 87.9766 106.321 88.6264 106.135 89.2386L109.96 90.4061C110.302 89.287 110.418 88.1071 110.303 86.9409L106.323 87.3328ZM106.135 89.2386C105.948 89.8506 105.645 90.4063 105.251 90.8726L108.307 93.4531C109.058 92.5642 109.619 91.5254 109.96 90.4061L106.135 89.2386ZM105.265 90.8566C104.909 91.2691 104.483 91.5897 104.018 91.805L105.701 95.434C106.694 94.9736 107.575 94.3018 108.294 93.469L105.265 90.8566ZM104.018 91.805C103.554 92.0201 103.058 92.1274 102.561 92.1243L102.536 96.1242C103.629 96.1311 104.707 95.8945 105.701 95.434L104.018 91.805ZM13.8809 6.43704C12.8927 6.41661 11.9153 6.6203 11.0152 7.03021L12.673 10.6705C13.0327 10.5067 13.4158 10.4283 13.7982 10.4362L13.8809 6.43704ZM11.0152 7.03021C10.1156 7.43989 9.31807 8.04406 8.67122 8.79474L11.7014 11.4058C11.98 11.0826 12.3127 10.8346 12.673 10.6705L11.0152 7.03021ZM8.65733 8.81104C7.98079 9.6134 7.47643 10.5505 7.17054 11.5591L10.9984 12.72C11.1499 12.2202 11.3964 11.7678 11.7153 11.3895L8.65733 8.81104ZM7.17054 11.5591C6.8647 12.5677 6.76246 13.6303 6.86882 14.68L10.8484 14.2767C10.7951 13.7508 10.8468 13.2199 10.9984 12.72L7.17054 11.5591ZM6.8654 14.6428L12.8607 87.3188L16.8472 86.9899L10.8519 14.3139L6.8654 14.6428ZM12.8595 87.304C13.0156 89.3849 13.886 91.3544 15.3353 92.8321L18.191 90.0312C17.4244 89.2496 16.9361 88.1754 16.8483 87.0047L12.8595 87.304ZM15.3353 92.8321C16.7876 94.3127 18.7235 95.1968 20.7831 95.2819L20.9483 91.2853C19.9382 91.2436 18.9547 90.8098 18.191 90.0312L15.3353 92.8321ZM20.8657 95.2836H102.507V91.2836H20.8657V95.2836ZM102.49 95.2836C103.469 95.292 104.434 95.0819 105.323 94.6712L103.646 91.04C103.288 91.2054 102.906 91.287 102.525 91.2837L102.49 95.2836ZM105.323 94.6712C106.212 94.2607 107 93.6609 107.642 92.9181L104.614 90.3043C104.336 90.6262 104.005 90.8743 103.646 91.04L105.323 94.6712ZM107.657 92.9005C108.333 92.0981 108.837 91.161 109.143 90.1523L105.316 88.9915C105.164 89.4912 104.918 89.9437 104.599 90.322L107.657 92.9005ZM109.143 90.1523C109.449 89.1438 109.551 88.0812 109.445 87.0315L105.465 87.4348C105.519 87.9607 105.467 88.4916 105.316 88.9915L109.143 90.1523ZM109.449 87.0687L103.453 14.3927L99.4668 14.7216L105.462 87.3976L109.449 87.0687ZM103.455 14.4097C103.301 12.3273 102.431 10.3559 100.981 8.87727L98.1248 11.6782C98.8913 12.4596 99.3789 13.534 99.4654 14.7046L103.455 14.4097ZM100.981 8.87727C99.5273 7.39569 97.5895 6.51208 95.5283 6.42946L95.3681 10.4263C96.3779 10.4667 97.3614 10.8998 98.1248 11.6782L100.981 8.87727ZM95.448 6.42786L13.8394 6.43662L13.8398 10.4366L95.4484 10.4279L95.448 6.42786Z" fill="white" mask="url(#path-2-inside-1_945_260)"/>
<path d="M101.163 14.2866L101.164 14.2892L106.887 83.6816L106.888 83.7005L106.891 83.7193C106.968 84.3611 106.916 85.0127 106.739 85.63C106.562 86.2473 106.264 86.8136 105.869 87.2925C105.474 87.7713 104.991 88.1511 104.455 88.4108C103.921 88.6698 103.343 88.8043 102.76 88.8075H24.8525C23.561 88.7511 22.3215 88.1979 21.3685 87.2336C20.4093 86.2631 19.8082 84.9433 19.6928 83.5187L19.6927 83.5172L13.9696 14.1248L13.9679 14.1051L13.9655 14.0854C13.8869 13.4437 13.938 12.7918 14.1148 12.1742C14.2915 11.5566 14.589 10.99 14.9842 10.511C15.3792 10.0321 15.8621 9.65241 16.3983 9.39327C16.9338 9.13446 17.5122 9.00084 18.0957 8.9989H96.0045C97.2963 9.05365 98.5365 9.60622 99.4897 10.5707C100.449 11.5413 101.05 12.8618 101.163 14.2866Z" stroke="white" stroke-width="2"/>
<mask id="path-5-inside-2_945_260" fill="white">
<path d="M63.3935 85.342C62.2876 85.3006 61.2336 84.8337 60.4279 84.0282C59.6223 83.2227 59.12 82.1336 59.0146 80.964C58.9542 80.379 59.0112 79.7871 59.1817 79.2272C59.3523 78.6673 59.6326 78.152 60.0042 77.7154C60.35 77.3132 60.7719 76.9929 61.2422 76.7756C61.7126 76.5584 62.2209 76.449 62.7338 76.4546C63.8361 76.5043 64.8843 76.9758 65.6846 77.7822C66.485 78.5885 66.9835 79.6752 67.088 80.8414C67.1484 81.4263 67.0914 82.0182 66.9209 82.5782C66.7503 83.1381 66.47 83.6533 66.0984 84.0899C65.754 84.4864 65.3357 84.8025 64.87 85.0181C64.4044 85.2336 63.9015 85.344 63.3935 85.342ZM62.7338 77.2864C62.3355 77.2827 61.9409 77.3681 61.5758 77.5371C61.2106 77.7061 60.883 77.9548 60.6144 78.2671C60.3144 78.6106 60.0859 79.0174 59.9439 79.461C59.8018 79.9045 59.7493 80.3749 59.7898 80.8414C59.8637 81.8035 60.2669 82.7036 60.9233 83.3715C61.5797 84.0394 62.4438 84.4289 63.3523 84.4664C63.7501 84.4718 64.1444 84.388 64.5096 84.2205C64.8748 84.053 65.2026 83.8056 65.4717 83.4945C65.7639 83.147 65.9845 82.7385 66.1195 82.2952C66.2544 81.8519 66.3006 81.3835 66.2551 80.9202C66.1824 79.9643 65.7853 79.069 65.1376 78.4006C64.4899 77.7323 63.6358 77.3363 62.7338 77.2864Z"/>
</mask>
<path d="M63.3935 85.342L63.3187 87.3406L63.3523 87.3419L63.3859 87.342L63.3935 85.342ZM59.0146 80.964L61.0065 80.7845L61.0053 80.7715L61.004 80.7586L59.0146 80.964ZM60.0042 77.7154L58.4875 76.4116L58.4811 76.4192L60.0042 77.7154ZM62.7338 76.4546L62.8239 74.4566L62.7898 74.455L62.7556 74.4547L62.7338 76.4546ZM67.088 80.8414L65.096 81.02L65.0972 81.0334L65.0986 81.0467L67.088 80.8414ZM66.0984 84.0899L67.6084 85.4014L67.615 85.3938L67.6215 85.3861L66.0984 84.0899ZM60.6144 78.2671L62.1209 79.5825L62.1258 79.5769L62.1307 79.5713L60.6144 78.2671ZM59.7898 80.8414L61.7839 80.6882L61.7831 80.6783L61.7823 80.6684L59.7898 80.8414ZM63.3523 84.4664L63.2699 86.4647L63.2976 86.4659L63.3254 86.4662L63.3523 84.4664ZM65.4717 83.4945L66.9845 84.8026L66.9935 84.7922L67.0024 84.7817L65.4717 83.4945ZM66.2551 80.9202L64.2609 81.0719L64.2625 81.0937L64.2647 81.1154L66.2551 80.9202ZM63.4684 83.3434C62.8827 83.3215 62.3025 83.0742 61.842 82.6138L59.0139 85.4425C60.1647 86.5931 61.6925 87.2797 63.3187 87.3406L63.4684 83.3434ZM61.842 82.6138C61.3786 82.1505 61.0713 81.5032 61.0065 80.7845L57.0226 81.1434C57.1686 82.764 57.8659 84.2948 59.0139 85.4425L61.842 82.6138ZM61.004 80.7586C60.9709 80.4375 61.0024 80.1136 61.0949 79.81L57.2685 78.6444C57.0199 79.4605 56.9375 80.3205 57.0252 81.1693L61.004 80.7586ZM61.0949 79.81C61.1874 79.5064 61.337 79.2352 61.5272 79.0117L58.4811 76.4192C57.9282 77.0688 57.5172 77.8281 57.2685 78.6444L61.0949 79.81ZM61.5208 79.0192C61.6845 78.8288 61.8769 78.6855 62.0809 78.5913L60.4035 74.96C59.6668 75.3003 59.0155 75.7975 58.4875 76.4117L61.5208 79.0192ZM62.0809 78.5913C62.2845 78.4973 62.4991 78.4521 62.712 78.4544L62.7556 74.4547C61.9427 74.4458 61.1407 74.6195 60.4035 74.96L62.0809 78.5913ZM62.6437 78.4525C63.2285 78.4789 63.8067 78.7293 64.2651 79.1911L67.1041 76.3733C65.9618 75.2224 64.4437 74.5296 62.8239 74.4566L62.6437 78.4525ZM64.2651 79.1911C64.7263 79.6558 65.0317 80.3026 65.096 81.02L69.08 80.6628C68.9352 79.0477 68.2436 77.5213 67.1041 76.3733L64.2651 79.1911ZM65.0986 81.0467C65.1317 81.3678 65.1002 81.6917 65.0077 81.9953L68.8341 83.161C69.0827 82.3448 69.1651 81.4849 69.0774 80.636L65.0986 81.0467ZM65.0077 81.9953C64.9152 82.2989 64.7656 82.5701 64.5754 82.7937L67.6215 85.3861C68.1744 84.7365 68.5854 83.9773 68.8341 83.161L65.0077 81.9953ZM64.5884 82.7785C64.4248 82.9668 64.2331 83.109 64.0299 83.2031L65.7102 86.8331C66.4383 86.496 67.0833 86.006 67.6084 85.4014L64.5884 82.7785ZM64.0299 83.2031C63.827 83.297 63.6134 83.3429 63.4012 83.342L63.3859 87.342C64.1897 87.3451 64.9817 87.1703 65.7102 86.8331L64.0299 83.2031ZM62.7523 75.2865C62.0546 75.28 61.3671 75.4299 60.7359 75.722L62.4156 79.3522C62.5147 79.3063 62.6164 79.2854 62.7153 79.2863L62.7523 75.2865ZM60.7359 75.722C60.1051 76.0139 59.5486 76.4392 59.0982 76.9628L62.1307 79.5713C62.2175 79.4704 62.3161 79.3982 62.4156 79.3522L60.7359 75.722ZM59.1079 76.9516C58.6246 77.5051 58.2627 78.1531 58.0392 78.8508L61.8485 80.0711C61.9092 79.8817 62.0042 79.7162 62.1209 79.5825L59.1079 76.9516ZM58.0392 78.8508C57.8157 79.5484 57.7339 80.285 57.7972 81.0143L61.7823 80.6684C61.7646 80.4647 61.7878 80.2606 61.8485 80.0711L58.0392 78.8508ZM57.7956 80.9945C57.9044 82.4112 58.4992 83.7582 59.4969 84.7734L62.3498 81.9697C62.0347 81.649 61.8229 81.1958 61.7839 80.6882L57.7956 80.9945ZM59.4969 84.7734C60.4975 85.7916 61.8373 86.4056 63.2699 86.4647L63.4347 82.4681C63.0503 82.4523 62.662 82.2873 62.3498 81.9697L59.4969 84.7734ZM63.3254 86.4662C64.023 86.4756 64.7111 86.3284 65.3433 86.0384L63.6759 82.4025C63.5778 82.4475 63.4771 82.4679 63.3792 82.4666L63.3254 86.4662ZM65.3433 86.0384C65.9751 85.7487 66.5328 85.325 66.9845 84.8026L63.9588 82.1863C63.8725 82.2862 63.7745 82.3573 63.6759 82.4025L65.3433 86.0384ZM67.0024 84.7817C67.4721 84.2232 67.8209 83.5738 68.0328 82.8775L64.2061 81.7129C64.1482 81.9032 64.0557 82.0708 63.941 82.2073L67.0024 84.7817ZM68.0328 82.8775C68.2447 82.1814 68.3166 81.4487 68.2456 80.7249L64.2647 81.1154C64.2846 81.3184 64.2641 81.5224 64.2061 81.7129L68.0328 82.8775ZM68.2494 80.7685C68.1424 79.362 67.5572 78.0235 66.5739 77.0088L63.7014 79.7924C64.0134 80.1145 64.2224 80.5666 64.2609 81.0719L68.2494 80.7685ZM66.5739 77.0088C65.5879 75.9913 64.2651 75.3681 62.8443 75.2894L62.6233 79.2833C63.0064 79.3045 63.392 79.4732 63.7014 79.7924L66.5739 77.0088Z" fill="white" mask="url(#path-5-inside-2_945_260)"/>
<path d="M152.007 35.6093L152.032 35.6237L152.007 35.6093Z" stroke="white" stroke-width="2"/>
<path d="M159.068 44.6804L159.058 44.6845L159.068 44.6804ZM159.068 44.6804L159.071 44.6795M159.068 44.6804L159.071 44.6795M159.068 44.6804L159.068 44.7025L159.085 44.7051M159.071 44.6795L159.082 44.6747L159.071 44.6795ZM159.071 44.6795L159.085 44.7051M159.071 44.6795L159.085 44.7051M173.019 51.2956C172.967 51.3713 172.893 51.4273 172.809 51.4553L173.019 51.2956ZM165.641 34.853L164.876 35.1602L165.641 34.853Z" fill="white" stroke="white" stroke-width="5"/>
<path d="M161.594 2.48427L161.602 2.48427L161.61 2.48415C164.467 2.44032 167.292 3.15023 169.834 4.55413C172.375 5.95829 174.555 8.01429 176.173 10.543L176.173 10.543L176.177 10.5486C176.321 10.7711 176.528 10.954 176.778 11.0681C177.03 11.1825 177.311 11.2203 177.586 11.174L177.635 11.1657L177.683 11.1526C178.253 10.9971 178.854 11.0357 179.405 11.265C179.957 11.4948 180.437 11.908 180.77 12.4575L180.775 12.4652L180.78 12.4728C181.466 13.5597 181.877 15.1851 182.041 17.156C182.202 19.1053 182.113 21.2892 181.881 23.4112C181.648 25.53 181.276 27.5607 180.881 29.1954C180.476 30.8716 180.075 32.0157 179.823 32.4474C179.015 33.8161 177.077 35.7303 175.223 37.3793C173.493 38.9182 171.957 40.1214 171.782 40.2585C171.781 40.2596 171.78 40.2606 171.778 40.2615C171.621 40.3824 171.493 40.5334 171.399 40.7022C171.262 40.9184 171.063 41.0553 170.854 41.1051L170.829 41.1111L170.804 41.1184C170.148 41.3112 169.063 41.1291 167.482 40.1723C167.094 39.935 166.641 39.4802 166.138 38.7767C165.643 38.0837 165.143 37.2111 164.64 36.2102C163.633 34.2053 162.665 31.7875 161.735 29.4606L161.735 29.4606L161.723 29.4304L161.723 29.4303L161.71 29.3979L161.71 29.3979L161.695 29.3606C160.782 27.0759 159.906 24.8853 159.035 23.1931C158.596 22.3412 158.139 21.5759 157.654 20.9721C157.18 20.3824 156.604 19.8506 155.899 19.6154L155.889 19.6119L155.878 19.6086L154.633 19.2233L154.619 19.219L154.605 19.2151C153.288 18.8491 151.597 18.3446 150.064 17.5806C148.521 16.8113 147.282 15.8481 146.684 14.6419C146.422 14.0448 146.279 13.3939 146.266 12.731C146.253 12.0616 146.373 11.3982 146.616 10.7844L146.627 10.7576L146.636 10.7302C147.247 8.88518 148.748 7.08741 150.903 5.6301C153.049 4.17913 155.78 3.11083 158.733 2.69333L158.733 2.69334L158.738 2.6926C159.684 2.55386 160.639 2.48426 161.594 2.48427Z" fill="#000816" stroke="white" stroke-width="2"/>
<path d="M150.914 38.6016C152.698 38.4308 154.456 38.034 156.151 37.4196L150.914 38.6016Z" fill="white"/>
<path d="M150.916 39.0394C150.812 39.0397 150.712 38.9985 150.635 38.9238C150.559 38.8491 150.512 38.7465 150.503 38.6366C150.499 38.5788 150.505 38.5207 150.523 38.4657C150.54 38.4107 150.567 38.36 150.604 38.3166C150.64 38.2732 150.684 38.2381 150.733 38.2134C150.783 38.1886 150.836 38.1747 150.891 38.1725C152.645 37.995 154.375 37.6042 156.045 37.008C156.154 36.9696 156.274 36.979 156.376 37.034C156.479 37.089 156.557 37.1852 156.593 37.3013C156.63 37.4174 156.621 37.544 156.569 37.6532C156.517 37.7624 156.427 37.8453 156.317 37.8836C154.579 38.5094 152.777 38.9122 150.949 39.0832L150.916 39.0394Z" fill="white"/>
<path d="M154.153 23.2199C154.25 22.3117 154.057 21.5429 153.722 21.5027C153.387 21.4626 153.037 22.1663 152.94 23.0745C152.844 23.9827 153.037 24.7515 153.372 24.7917C153.707 24.8318 154.057 24.1281 154.153 23.2199Z" fill="white"/>
<path d="M77.4047 129.627L1.75684 129.627V145.862H77.4047V129.627Z" fill="#000816"/>
<path d="M135.75 145.862C135.106 143.812 137.091 134.184 138.165 129.627L77.4047 129.627V145.862H135.75Z" fill="#000816"/>
<path d="M189.669 145.862V139.027C181.085 141.305 162.549 145.862 157.076 145.862H189.669Z" fill="#000816"/>
<path d="M1.75684 129.627C33.2144 129.627 58.2633 129.627 77.4048 129.627M1.75684 129.627V145.862H77.4048M1.75684 129.627L77.4048 129.627M138.165 129.627C137.091 134.184 135.106 143.812 135.75 145.862M138.165 129.627C137.785 129.627 123.686 129.627 77.4048 129.627M138.165 129.627L77.4048 129.627M135.75 145.862H77.4048M135.75 145.862H157.076M77.4048 145.862V129.627M157.076 145.862H189.669V139.027C181.085 141.305 162.549 145.862 157.076 145.862Z" stroke="white" stroke-width="2"/>
<path d="M189.74 138.288C189.737 138.319 189.733 138.349 189.73 138.379C175.373 143.398 161.726 145.091 151.62 145.521C146.5 145.739 142.295 145.632 139.373 145.472C137.913 145.392 136.774 145.298 136.002 145.225C135.919 145.217 135.841 145.209 135.766 145.202C135.805 144.603 135.861 143.734 135.936 142.63C136.089 140.381 136.319 137.159 136.625 133.265C137.238 125.477 138.157 115.008 139.384 104.281C140.611 93.5489 142.143 82.58 143.978 73.7829C144.897 69.3822 145.886 65.5512 146.941 62.5751C148.017 59.5424 149.101 57.5841 150.11 56.727C154.753 52.7825 162.22 51.2265 169.674 52.2985C177.11 53.3683 184.313 57.025 188.454 63.219C189.432 64.6828 190.235 66.9461 190.856 69.8811C191.474 72.7966 191.896 76.2902 192.161 80.1517C192.693 87.8737 192.594 96.9825 192.224 105.712C191.854 114.437 191.213 122.76 190.664 128.904C190.39 131.975 190.139 134.5 189.956 136.257C189.865 137.136 189.791 137.822 189.74 138.288Z" fill="#000816" stroke="white" stroke-width="2"/>
<path d="M76.4866 108.765L76.4866 108.765L76.4895 108.756C76.5773 108.492 76.9628 108.036 77.8509 107.476C78.6844 106.951 79.7812 106.444 80.9653 106C83.3668 105.101 85.8885 104.546 86.9869 104.546C87.2369 104.546 87.7049 104.636 88.3928 104.851C89.0538 105.058 89.8334 105.354 90.6683 105.702C92.3364 106.396 94.1686 107.273 95.6105 107.995L95.7702 108.075L95.9478 108.095L123.92 111.203L124.589 111.278L124.91 110.686L139.32 84.1004L151.625 98.9924C151.561 99.1548 151.483 99.3512 151.393 99.5786C151.106 100.301 150.69 101.337 150.177 102.585C149.15 105.082 147.733 108.427 146.174 111.824C144.613 115.225 142.919 118.656 141.336 121.336C140.544 122.678 139.794 123.807 139.116 124.643C138.406 125.517 137.883 125.933 137.572 126.051C137.448 126.098 137.161 126.152 136.645 126.161C136.151 126.17 135.526 126.135 134.778 126.059C133.284 125.907 131.373 125.593 129.181 125.162C124.802 124.301 119.38 122.987 114.086 121.614C108.796 120.242 103.648 118.814 99.8217 117.73C97.9089 117.188 96.3271 116.731 95.2238 116.411C94.6721 116.25 94.2401 116.124 93.9462 116.037L93.6112 115.939L93.5257 115.914L93.5042 115.907L93.4988 115.906L93.4975 115.905L84.2283 113.156L83.928 113.067L83.6306 113.165C82.2876 113.608 80.9458 113.141 79.8351 112.385C79.2903 112.014 78.8427 111.599 78.5376 111.264C78.3845 111.095 78.278 110.958 78.2168 110.869C78.2137 110.864 78.2108 110.86 78.2082 110.856C78.1793 110.755 78.1159 110.593 77.9754 110.442C77.8597 110.318 77.6917 110.202 77.4737 110.15C77.261 110.099 77.073 110.126 76.9386 110.169C76.704 110.242 76.5627 110.382 76.5246 110.42C76.4293 110.515 76.371 110.612 76.3551 110.639L76.354 110.64C76.3285 110.683 76.307 110.723 76.2911 110.755C76.2323 110.871 76.1577 111.042 76.085 111.209C76.0689 111.246 76.0523 111.285 76.0352 111.324C75.8851 111.671 75.6962 112.108 75.4813 112.55C75.4463 112.622 75.4112 112.693 75.3759 112.763C75.6082 111.519 76.0719 109.975 76.4866 108.765ZM74.5113 114.081C74.5113 114.081 74.5126 114.08 74.5152 114.078C74.5126 114.08 74.5113 114.081 74.5113 114.081Z" fill="#000816" stroke="white" stroke-width="2"/>
<path d="M166.48 71.9372C166.532 71.9972 166.58 72.0534 166.625 72.1058L152.345 102.738L131.507 89.4753L149.968 57.0977C150.35 57.2193 150.798 57.4168 151.311 57.6988C152.118 58.1427 153.02 58.7593 153.981 59.5037C155.904 60.9924 157.995 62.9376 159.939 64.8847C161.879 66.8283 163.656 68.7558 164.948 70.1989C165.594 70.92 166.118 71.519 166.48 71.9372Z" fill="#000816" stroke="white" stroke-width="2"/>
<path d="M152.77 99.229C152.706 99.2291 152.643 99.2109 152.588 99.1764C152.54 99.1512 152.496 99.116 152.46 99.0728C152.424 99.0297 152.396 98.9794 152.379 98.9249C152.361 98.8704 152.354 98.8127 152.357 98.7552C152.361 98.6977 152.375 98.6415 152.399 98.5898C156.827 89.0456 163.837 73.3808 163.763 72.0149C163.749 71.9597 163.746 71.9021 163.754 71.8457C163.761 71.7892 163.779 71.7349 163.807 71.686C163.835 71.6371 163.871 71.5945 163.915 71.5608C163.958 71.527 164.007 71.5028 164.059 71.4895C164.168 71.4632 164.281 71.4835 164.375 71.5458C164.47 71.6081 164.537 71.7075 164.562 71.8222C164.942 73.3633 155.912 92.9946 153.141 98.9663C153.108 99.042 153.055 99.1065 152.99 99.1529C152.925 99.1992 152.848 99.2255 152.77 99.229Z" fill="white"/>
<path d="M28.045 45.7251L27.9131 44.6919L31.4509 42.2489L32.3663 43.5886L29.8263 45.261L32.7868 46.9247L32.2013 48.2206L28.045 45.7251Z" fill="white"/>
<path d="M32.6963 49.5517H33.5704C33.9333 49.5517 34.0735 49.3853 34.024 49.0263L33.2983 43.3261H35.0136L35.7393 49.0438C35.9372 50.6024 35.4012 51.2329 33.9333 51.2329H32.9107L32.6963 49.5517ZM32.9767 40.7955H34.6837L34.8981 42.4942H33.1911L32.9767 40.7955Z" fill="white"/>
<path d="M36.1931 47.3273C36.0612 46.3029 36.6879 45.7687 38.329 45.5761C39.2856 45.4273 39.5578 45.2784 39.5248 45.007C39.4918 44.7355 39.1207 44.4991 38.6177 44.4991C38.4855 44.4796 38.3509 44.4889 38.2223 44.5264C38.0936 44.5639 37.9735 44.629 37.8693 44.7175C37.7651 44.806 37.679 44.9161 37.6162 45.0412C37.5535 45.1662 37.5154 45.3036 37.5044 45.4448L35.9375 45.112C35.9787 43.9387 37.0096 43.1244 38.4115 43.1244C40.0608 43.1244 41.1494 44 41.3308 45.4273L41.7679 48.9297H40.2175L40.1515 48.3781C39.9394 48.6279 39.6756 48.822 39.3808 48.9451C39.086 49.0682 38.7683 49.1169 38.4527 49.0873C37.9345 49.1634 37.4088 49.0222 36.9869 48.6936C36.5651 48.3651 36.2804 47.875 36.1931 47.3273ZM39.8464 46.7757L39.7722 46.2241C39.6815 46.3904 39.4506 46.4955 38.8321 46.6356C38.0651 46.802 37.8177 46.9508 37.8507 47.231C37.8837 47.5112 38.1393 47.6513 38.6754 47.6513C39.3516 47.6513 39.9041 47.2485 39.8464 46.7757Z" fill="white"/>
<path d="M40.9512 43.3258H42.8644L44.7694 46.8283L45.7919 43.3258H47.7052L45.8332 48.886H44.1838L40.9512 43.3258Z" fill="white"/>
<path d="M48.1597 47.3274C48.0278 46.3029 48.6545 45.7688 50.2956 45.5762C51.2522 45.4273 51.5243 45.2784 51.4914 45.007C51.4584 44.7356 51.0873 44.4992 50.5842 44.4992C50.4521 44.4796 50.3175 44.4889 50.1889 44.5264C50.0602 44.564 49.9401 44.629 49.8359 44.7175C49.7317 44.806 49.6456 44.9162 49.5828 45.0412C49.5201 45.1663 49.482 45.3036 49.4709 45.4448L47.8711 45.1559C47.8711 43.9825 48.9432 43.1682 50.3451 43.1682C51.9944 43.1682 53.0912 44.0438 53.2726 45.4711L53.7097 48.9735H52.1593L52.0851 48.4219C51.8722 48.6707 51.6083 48.864 51.3137 48.987C51.0191 49.11 50.7018 49.1593 50.3863 49.1311C49.8672 49.1965 49.3446 49.0447 48.929 48.7081C48.5134 48.3714 48.2375 47.8762 48.1597 47.3274ZM51.8047 46.7757L51.7388 46.2241C51.6563 46.3905 51.4171 46.4956 50.8069 46.6357C50.0317 46.802 49.7843 46.9509 49.8255 47.2311C49.8668 47.5113 50.1142 47.6514 50.6502 47.6514C51.3182 47.6514 51.8707 47.2486 51.8047 46.7757Z" fill="white"/>
<path d="M54.0212 47.2049L55.5633 46.7233C55.7117 47.045 55.9493 47.3106 56.2442 47.4843C56.5391 47.6581 56.8771 47.7317 57.2127 47.6953C57.9054 47.6953 58.2682 47.5552 58.2435 47.31C58.2188 47.0648 57.8806 46.9072 56.8251 46.7408C54.9449 46.4431 54.1284 45.9265 53.9965 44.9196C53.8645 43.9126 54.8211 43.1683 56.3468 43.1683C56.956 43.1259 57.5647 43.2599 58.1079 43.556C58.6511 43.852 59.1084 44.2991 59.431 44.8495L57.9549 45.3311C57.79 45.0713 57.5639 44.8619 57.2991 44.7237C57.0344 44.5854 56.7402 44.5231 56.4457 44.543C55.8932 44.543 55.6211 44.6919 55.6211 44.9283C55.6211 45.1647 55.918 45.2786 57.0807 45.4712C58.9197 45.7864 59.7526 46.2768 59.8846 47.3187C60.0165 48.3607 59.0599 49.1313 57.3116 49.1313C56.6464 49.1826 55.9815 49.0279 55.3975 48.686C54.8135 48.344 54.3354 47.8296 54.0212 47.2049Z" fill="white"/>
<path d="M60.1242 46.1102C60.0619 45.7223 60.0845 45.3243 60.1902 44.9471C60.2959 44.57 60.4819 44.2236 60.7338 43.935C60.9857 43.6464 61.2968 43.4231 61.643 43.2825C61.9892 43.142 62.3612 43.0878 62.7302 43.1243C63.3687 43.106 63.9984 43.2849 64.543 43.6393C65.0875 43.9937 65.5235 44.5083 65.7979 45.1207L64.2723 45.6373C64.164 45.3574 63.9784 45.1189 63.7399 44.9532C63.5014 44.7875 63.2213 44.7024 62.9363 44.7092C62.7696 44.6984 62.6027 44.7295 62.4494 44.7999C62.296 44.8704 62.1604 44.9782 62.0536 45.1146C61.9468 45.251 61.8718 45.4123 61.8346 45.5852C61.7974 45.7582 61.7991 45.938 61.8395 46.1102C61.8745 46.4926 62.0427 46.8473 62.3112 47.1049C62.5797 47.3624 62.9291 47.5042 63.2909 47.5024C63.5442 47.5309 63.7982 47.4565 64.0018 47.294C64.2053 47.1315 64.3432 46.893 64.3877 46.6268L66.0371 47.1347C65.9212 47.7455 65.5951 48.2885 65.1224 48.6576C64.6496 49.0268 64.0643 49.1956 63.4806 49.1311C62.6691 49.1543 61.878 48.859 61.2588 48.3016C60.6395 47.7442 60.2356 46.964 60.1242 46.1102Z" fill="white"/>
<path d="M66.2109 43.3258H67.8603L67.9262 43.8599C68.1001 43.6368 68.3221 43.4615 68.5732 43.3487C68.8244 43.2359 69.0975 43.189 69.3694 43.212C69.6923 43.2117 70.0138 43.2558 70.326 43.3433L70.2353 44.9632C69.9661 44.8887 69.6887 44.8534 69.4106 44.8581C68.586 44.8581 68.1736 45.3835 68.3056 46.4605L68.619 48.8859H66.9037L66.2109 43.3258Z" fill="white"/>
<path d="M70.457 40.7605H72.1723L72.3867 42.4592H70.6797L70.457 40.7605ZM70.7951 43.326H72.5022L73.2114 48.8862H71.5044L70.7951 43.326Z" fill="white"/>
<path d="M73.4014 43.326H75.0507L75.1167 43.8251C75.3158 43.6108 75.5555 43.4438 75.8199 43.3351C76.0843 43.2264 76.3674 43.1786 76.6505 43.1947C77.4122 43.208 78.1443 43.5101 78.7144 44.0465C79.2846 44.5828 79.6553 45.318 79.7595 46.1192C79.8332 46.4814 79.8276 46.8567 79.7429 47.2161C79.6583 47.5755 79.4969 47.9095 79.2714 48.1922C79.0458 48.4748 78.762 48.6987 78.442 48.8463C78.122 48.994 77.7743 49.0616 77.4257 49.0438C76.836 49.0504 76.2592 48.8605 75.7764 48.5009L76.1228 51.2503H74.4157L73.4014 43.326ZM78.036 46.093C77.9853 45.7179 77.8055 45.3761 77.5313 45.1336C77.2572 44.891 76.9082 44.7649 76.5516 44.7796C75.8506 44.7796 75.3558 45.2524 75.43 45.8215L75.5043 46.4257C75.5786 46.7508 75.7619 47.0359 76.02 47.2277C76.2781 47.4195 76.5931 47.5048 76.9062 47.4677C77.0726 47.4812 77.2396 47.4533 77.394 47.3862C77.5485 47.3191 77.686 47.2146 77.7957 47.0811C77.9054 46.9476 77.9843 46.7888 78.026 46.6172C78.0677 46.4457 78.0711 46.2662 78.036 46.093Z" fill="white"/>
<path d="M82.5791 44.7794L82.8348 46.7845C82.8348 47.126 83.0162 47.2486 83.3873 47.2486H84.3604L84.5748 48.886H83.3378C83.0721 48.9295 82.8007 48.9127 82.5414 48.8368C82.2822 48.7608 82.0411 48.6275 81.8339 48.4456C81.6267 48.2636 81.4581 48.0371 81.3392 47.781C81.2203 47.5249 81.1539 47.245 81.1442 46.9597L80.8638 44.7794H79.6433L79.4619 43.3259H80.6989L80.468 41.8811H82.1751L82.3565 43.3259H84.0058L84.1872 44.7794H82.5791Z" fill="white"/>
<path d="M85.111 46.8809L87.651 45.2173L84.6904 43.5886L85.2759 42.2927L89.3993 44.7357L89.5312 45.7689L85.9934 48.2206L85.111 46.8809Z" fill="white"/>
<path d="M173.978 53.194C167.806 55.6828 161.127 56.3909 154.62 55.2514L156.284 50.3193H173.407L173.978 53.194Z" fill="#000816" stroke="white" stroke-width="2"/>
<path d="M17.0478 8.28975C14.097 7.57768 8.27587 7.94796 8.59778 15.1257C8.91969 22.3033 11.4144 49.1628 12.6216 61.6952L14.6335 87.3299C14.7676 89.6085 16.8063 94.0803 23.8883 93.7385C30.9702 93.3967 38.374 93.5961 41.1907 93.7385H103.158C104.901 93.4537 108.308 91.6023 107.986 86.4754L103.962 89.0388H92.2933H59.7003H26.7049C20.9106 89.0388 19.1938 84.7664 19.0597 82.6302L15.4382 35.6334C15.17 31.3609 14.4725 21.6198 13.8287 16.8347C13.1849 12.0495 15.7065 9.14425 17.0478 8.28975Z" fill="white"/>
</svg>
