<svg width="291" height="227" viewBox="0 0 291 227" fill="none" xmlns="http://www.w3.org/2000/svg">
<g filter="url(#filter0_d_634_579)">
<path d="M113.721 175.911L113.723 175.913C119.827 179.97 126.552 179.648 130.982 179.435C131.843 179.394 132.617 179.357 133.284 179.357H133.309L133.334 179.356C134.695 179.287 136.047 179.682 137.191 180.493C138.33 181.3 139.208 182.479 139.685 183.865L140.441 186.569H88.4099C84.62 183.865 81.4183 180.321 79.0279 176.175C78.6578 175.476 78.3228 174.326 78.0456 172.76C77.7706 171.207 77.5657 169.326 77.4188 167.232C77.1249 163.045 77.0666 158.071 77.121 153.289C77.1754 148.51 77.3419 143.939 77.495 140.561C77.5715 138.872 77.6446 137.483 77.6985 136.516C77.7114 136.285 77.7232 136.078 77.7337 135.897L109.071 134.28C109.06 134.422 109.048 134.575 109.036 134.741C108.958 135.764 108.856 137.23 108.757 139.004C108.558 142.551 108.371 147.338 108.419 152.287C108.467 157.228 108.749 162.367 109.499 166.606C109.873 168.724 110.371 170.653 111.034 172.234C111.689 173.796 112.55 175.128 113.721 175.911Z" stroke="white" stroke-width="2"/>
<mask id="path-2-inside-1_634_579" fill="white">
<path d="M152.648 140.796H41.9625C39.6074 140.704 37.3653 139.701 35.6582 137.976C33.9512 136.251 32.8969 133.923 32.6939 131.43L24.577 32.8993C24.4533 31.6721 24.5746 30.431 24.9329 29.257C25.2912 28.0829 25.8785 27.0022 26.6565 26.0852C27.3833 25.2403 28.2698 24.5678 29.2582 24.1116C30.2465 23.6555 31.3144 23.4259 32.3921 23.438H143.078C145.432 23.5272 147.674 24.5276 149.381 26.2508C151.089 27.9739 152.143 30.3007 152.346 32.7924L160.463 131.323C160.584 132.55 160.462 133.79 160.103 134.964C159.745 136.138 159.159 137.219 158.384 138.137C157.656 138.981 156.769 139.654 155.781 140.112C154.794 140.57 153.726 140.803 152.648 140.796ZM32.3809 24.6251C31.4518 24.6059 30.5295 24.7971 29.6755 25.186C28.8214 25.5749 28.0552 26.1526 27.428 26.8806C26.7531 27.6809 26.2442 28.6228 25.9341 29.6453C25.624 30.6679 25.5197 31.7481 25.6279 32.8162L33.7561 131.347C33.9214 133.551 34.8424 135.614 36.3445 137.146C37.8467 138.677 39.8256 139.571 41.9066 139.657H152.592C153.514 139.665 154.428 139.467 155.273 139.076C156.119 138.686 156.878 138.111 157.501 137.389C158.175 136.589 158.684 135.647 158.994 134.625C159.305 133.602 159.409 132.522 159.301 131.454L151.173 32.923C151.01 30.7179 150.089 28.6532 148.587 27.1212C147.084 25.5892 145.104 24.6966 143.022 24.6132L32.3809 24.6251Z"/>
</mask>
<path d="M152.648 140.796H41.9625C39.6074 140.704 37.3653 139.701 35.6582 137.976C33.9512 136.251 32.8969 133.923 32.6939 131.43L24.577 32.8993C24.4533 31.6721 24.5746 30.431 24.9329 29.257C25.2912 28.0829 25.8785 27.0022 26.6565 26.0852C27.3833 25.2403 28.2698 24.5678 29.2582 24.1116C30.2465 23.6555 31.3144 23.4259 32.3921 23.438H143.078C145.432 23.5272 147.674 24.5276 149.381 26.2508C151.089 27.9739 152.143 30.3007 152.346 32.7924L160.463 131.323C160.584 132.55 160.462 133.79 160.103 134.964C159.745 136.138 159.159 137.219 158.384 138.137C157.656 138.981 156.769 139.654 155.781 140.112C154.794 140.57 153.726 140.803 152.648 140.796ZM32.3809 24.6251C31.4518 24.6059 30.5295 24.7971 29.6755 25.186C28.8214 25.5749 28.0552 26.1526 27.428 26.8806C26.7531 27.6809 26.2442 28.6228 25.9341 29.6453C25.624 30.6679 25.5197 31.7481 25.6279 32.8162L33.7561 131.347C33.9214 133.551 34.8424 135.614 36.3445 137.146C37.8467 138.677 39.8256 139.571 41.9066 139.657H152.592C153.514 139.665 154.428 139.467 155.273 139.076C156.119 138.686 156.878 138.111 157.501 137.389C158.175 136.589 158.684 135.647 158.994 134.625C159.305 133.602 159.409 132.522 159.301 131.454L151.173 32.923C151.01 30.7179 150.089 28.6532 148.587 27.1212C147.084 25.5892 145.104 24.6966 143.022 24.6132L32.3809 24.6251Z" fill="white"/>
<path d="M41.9625 140.796L41.8843 142.795L41.9234 142.796H41.9625V140.796ZM32.6939 131.43L34.6873 131.268L34.6872 131.266L32.6939 131.43ZM24.577 32.8993L26.5702 32.7351L26.5687 32.7169L26.5669 32.6988L24.577 32.8993ZM26.6565 26.0852L25.1403 24.7809L25.1315 24.7913L26.6565 26.0852ZM32.3921 23.438L32.3697 25.4378L32.3809 25.438H32.3921V23.438ZM143.078 23.438L143.154 21.4394L143.116 21.438H143.078V23.438ZM152.346 32.7924L150.353 32.955L150.353 32.9566L152.346 32.7924ZM160.463 131.323L158.47 131.487L158.471 131.503L158.473 131.519L160.463 131.323ZM158.384 138.137L159.898 139.443L159.905 139.435L159.912 139.427L158.384 138.137ZM32.3809 24.6251L32.3395 26.6246L32.3603 26.6251L32.3811 26.6251L32.3809 24.6251ZM27.428 26.8806L25.9128 25.575L25.9059 25.5832L25.899 25.5913L27.428 26.8806ZM25.6279 32.8162L27.6211 32.6517L27.6196 32.6331L27.6177 32.6145L25.6279 32.8162ZM33.7561 131.347L35.7505 131.197L35.7499 131.19L35.7493 131.182L33.7561 131.347ZM41.9066 139.657L41.824 141.655L41.8653 141.657H41.9066V139.657ZM152.592 139.657L152.61 137.657L152.601 137.657H152.592V139.657ZM157.501 137.389L159.015 138.696L159.022 138.687L159.03 138.679L157.501 137.389ZM159.301 131.454L157.307 131.618L157.309 131.637L157.311 131.655L159.301 131.454ZM151.173 32.923L149.178 33.0704L149.179 33.0789L149.179 33.0874L151.173 32.923ZM143.022 24.6132L143.102 22.6148L143.062 22.6132L143.022 22.6132L143.022 24.6132ZM152.648 138.796H41.9625V142.796H152.648V138.796ZM42.0406 138.798C40.2086 138.726 38.442 137.946 37.0799 136.569L34.2366 139.383C36.2886 141.457 39.0062 142.682 41.8843 142.795L42.0406 138.798ZM37.0799 136.569C35.7148 135.19 34.8534 133.307 34.6873 131.268L30.7005 131.592C30.9404 134.539 32.1876 137.312 34.2366 139.383L37.0799 136.569ZM34.6872 131.266L26.5702 32.7351L22.5837 33.0635L30.7007 131.594L34.6872 131.266ZM26.5669 32.6988C26.4697 31.7343 26.5653 30.7599 26.8458 29.8408L23.02 28.6732C22.5839 30.1022 22.4369 31.6099 22.587 33.0997L26.5669 32.6988ZM26.8458 29.8408C27.1263 28.9218 27.5836 28.0839 28.1816 27.3791L25.1315 24.7913C24.1734 25.9205 23.4562 27.244 23.02 28.6732L26.8458 29.8408ZM28.1727 27.3895C28.7173 26.7564 29.3743 26.2608 30.0963 25.9275L28.42 22.2957C27.1654 22.8748 26.0493 23.7243 25.1403 24.781L28.1727 27.3895ZM30.0963 25.9275C30.8179 25.5945 31.5921 25.4291 32.3697 25.4378L32.4144 21.4381C31.0368 21.4227 29.6752 21.7164 28.42 22.2957L30.0963 25.9275ZM32.3921 25.438H143.078V21.438H32.3921V25.438ZM143.002 25.4365C144.833 25.5059 146.599 26.2839 147.961 27.6584L150.802 24.8431C148.749 22.7714 146.031 21.5484 143.154 21.4394L143.002 25.4365ZM147.961 27.6584C149.325 29.0359 150.187 30.9171 150.353 32.955L154.34 32.6299C154.1 29.6843 152.852 26.9119 150.802 24.8431L147.961 27.6584ZM150.353 32.9566L158.47 131.487L162.457 131.159L154.34 32.6282L150.353 32.9566ZM158.473 131.519C158.568 132.485 158.471 133.46 158.191 134.38L162.016 135.548C162.452 134.121 162.6 132.615 162.454 131.127L158.473 131.519ZM158.191 134.38C157.91 135.3 157.453 136.14 156.856 136.847L159.912 139.427C160.866 138.297 161.581 136.975 162.016 135.548L158.191 134.38ZM156.869 136.831C156.323 137.465 155.664 137.962 154.94 138.298L156.623 141.926C157.875 141.346 158.989 140.498 159.898 139.443L156.869 136.831ZM154.94 138.298C154.217 138.633 153.441 138.801 152.661 138.796L152.636 142.796C154.011 142.805 155.37 142.507 156.623 141.926L154.94 138.298ZM32.4222 22.6255C31.1902 22.6 29.9708 22.8539 28.8466 23.3659L30.5043 27.0062C31.0882 26.7403 31.7133 26.6117 32.3395 26.6246L32.4222 22.6255ZM28.8466 23.3659C27.7228 23.8776 26.7243 24.6333 25.9128 25.575L28.9431 28.1861C29.3862 27.6719 29.92 27.2723 30.5043 27.0062L28.8466 23.3659ZM25.899 25.5913C25.0453 26.6037 24.4074 27.788 24.0202 29.0649L27.848 30.2258C28.0809 29.4577 28.4609 28.7581 28.957 28.1698L25.899 25.5913ZM24.0202 29.0649C23.633 30.3417 23.5034 31.6879 23.6381 33.0178L27.6177 32.6145C27.536 31.8084 27.6151 30.994 27.848 30.2258L24.0202 29.0649ZM23.6347 32.9806L31.7628 131.511L35.7493 131.182L27.6211 32.6517L23.6347 32.9806ZM31.7617 131.496C31.9612 134.156 33.0732 136.667 34.9167 138.546L37.7724 135.745C36.6116 134.562 35.8817 132.946 35.7505 131.197L31.7617 131.496ZM34.9167 138.546C36.7631 140.429 39.2183 141.547 41.824 141.655L41.9891 137.658C40.433 137.594 38.9302 136.926 37.7724 135.745L34.9167 138.546ZM41.9066 141.657H152.592V137.657H41.9066V141.657ZM152.575 141.657C153.796 141.667 155.001 141.405 156.112 140.892L154.435 137.261C153.854 137.529 153.233 137.662 152.61 137.657L152.575 141.657ZM156.112 140.892C157.222 140.379 158.21 139.628 159.015 138.696L155.987 136.082C155.545 136.594 155.015 136.993 154.435 137.261L156.112 140.892ZM159.03 138.679C159.883 137.666 160.521 136.482 160.908 135.205L157.081 134.044C156.848 134.812 156.468 135.512 155.972 136.1L159.03 138.679ZM160.908 135.205C161.296 133.928 161.425 132.582 161.29 131.252L157.311 131.655C157.393 132.461 157.314 133.276 157.081 134.044L160.908 135.205ZM161.294 131.289L153.166 32.7586L149.179 33.0874L157.307 131.618L161.294 131.289ZM153.167 32.7756C152.97 30.1146 151.859 27.6013 150.014 25.7207L147.159 28.5216C148.32 29.705 149.049 31.3212 149.178 33.0704L153.167 32.7756ZM150.014 25.7207C148.167 23.8371 145.709 22.7193 143.102 22.6148L142.942 26.6116C144.498 26.674 146.001 27.3412 147.159 28.5216L150.014 25.7207ZM143.022 22.6132L32.3807 22.6251L32.3811 26.6251L143.022 26.6132L143.022 22.6132Z" fill="white" mask="url(#path-2-inside-1_634_579)"/>
<path d="M151.126 32.528L151.126 32.5306L158.885 126.61L158.887 126.628L158.889 126.647C159 127.564 158.926 128.496 158.672 129.379C158.419 130.261 157.993 131.073 157.425 131.761C156.858 132.448 156.163 132.996 155.39 133.371C154.617 133.745 153.781 133.939 152.937 133.944H47.3049C45.4586 133.865 43.6911 133.075 42.3361 131.704C40.9749 130.327 40.1256 128.459 39.9628 126.447L39.9627 126.445L32.2035 32.3662L32.2018 32.3465L32.1994 32.3268C32.0871 31.4096 32.1601 30.4779 32.4129 29.5945C32.6657 28.7111 33.0916 27.8991 33.6591 27.2111C34.2265 26.5233 34.9217 25.976 35.696 25.6019C36.4696 25.228 37.3064 25.0345 38.1514 25.0317H143.785C145.631 25.108 147.4 25.8971 148.755 27.2685L149.462 26.57L148.755 27.2685C150.117 28.6459 150.965 30.5155 151.126 32.528Z" stroke="white" stroke-width="2"/>
<mask id="path-5-inside-2_634_579" fill="white">
<path d="M99.5639 128.89C98.0646 128.834 96.6356 128.201 95.5433 127.109C94.451 126.017 93.77 124.54 93.6271 122.954C93.5453 122.161 93.6225 121.359 93.8537 120.6C94.085 119.841 94.465 119.142 94.9688 118.55C95.4376 118.005 96.0096 117.57 96.6473 117.276C97.285 116.981 97.9741 116.833 98.6695 116.841C100.164 116.908 101.585 117.547 102.67 118.641C103.755 119.734 104.431 121.207 104.573 122.788C104.655 123.581 104.577 124.384 104.346 125.143C104.115 125.902 103.735 126.6 103.231 127.192C102.764 127.73 102.197 128.158 101.566 128.451C100.934 128.743 100.253 128.892 99.5639 128.89ZM98.6695 117.968C98.1295 117.963 97.5945 118.079 97.0995 118.308C96.6044 118.537 96.1603 118.875 95.7961 119.298C95.3894 119.764 95.0796 120.315 94.887 120.917C94.6944 121.518 94.6232 122.156 94.6781 122.788C94.7783 124.092 95.325 125.313 96.2149 126.218C97.1049 127.124 98.2763 127.652 99.508 127.703C100.047 127.71 100.582 127.596 101.077 127.369C101.572 127.142 102.017 126.807 102.381 126.385C102.778 125.914 103.077 125.36 103.26 124.759C103.442 124.158 103.505 123.523 103.444 122.895C103.345 121.599 102.807 120.385 101.928 119.479C101.05 118.573 99.8923 118.036 98.6695 117.968Z"/>
</mask>
<path d="M99.5639 128.89L99.4891 130.888L99.5227 130.89L99.5563 130.89L99.5639 128.89ZM93.6271 122.954L95.6191 122.775L95.6179 122.762L95.6166 122.749L93.6271 122.954ZM94.9688 118.55L93.4521 117.246L93.4457 117.254L94.9688 118.55ZM98.6695 116.841L98.7596 114.843L98.7255 114.841L98.6913 114.841L98.6695 116.841ZM104.573 122.788L102.581 122.967L102.582 122.98L102.583 122.993L104.573 122.788ZM103.231 127.192L104.741 128.504L104.748 128.496L104.754 128.489L103.231 127.192ZM95.7961 119.298L97.3026 120.613L97.3075 120.608L97.3124 120.602L95.7961 119.298ZM94.6781 122.788L96.6722 122.635L96.6714 122.625L96.6706 122.615L94.6781 122.788ZM99.508 127.703L99.4256 129.701L99.4534 129.702L99.4812 129.703L99.508 127.703ZM102.381 126.385L103.894 127.693L103.903 127.683L103.912 127.672L102.381 126.385ZM103.444 122.895L101.449 123.047L101.451 123.068L101.453 123.09L103.444 122.895ZM99.6388 126.891C98.6597 126.855 97.7045 126.441 96.9574 125.694L94.1292 128.523C95.5667 129.96 97.4695 130.813 99.4891 130.888L99.6388 126.891ZM96.9574 125.694C96.2074 124.944 95.7213 123.91 95.6191 122.775L91.6352 123.134C91.8187 125.17 92.6947 127.089 94.1292 128.523L96.9574 125.694ZM95.6166 122.749C95.5619 122.22 95.6138 121.685 95.7669 121.182L91.9405 120.017C91.6312 121.032 91.5286 122.103 91.6377 123.16L95.6166 122.749ZM95.7669 121.182C95.9201 120.68 96.1694 120.225 96.4919 119.846L93.4457 117.254C92.7606 118.059 92.2499 119.001 91.9405 120.017L95.7669 121.182ZM96.4854 119.854C96.7721 119.52 97.1146 119.263 97.486 119.092L95.8086 115.46C94.9046 115.878 94.1031 116.489 93.4521 117.246L96.4854 119.854ZM97.486 119.092C97.8569 118.92 98.2523 118.836 98.6477 118.84L98.6913 114.841C97.6959 114.83 96.7131 115.042 95.8086 115.46L97.486 119.092ZM98.5794 118.839C99.5564 118.883 100.507 119.301 101.251 120.049L104.09 117.232C102.662 115.794 100.772 114.933 98.7596 114.843L98.5794 118.839ZM101.251 120.049C101.996 120.801 102.479 121.834 102.581 122.967L106.565 122.609C106.383 120.58 105.514 118.667 104.09 117.232L101.251 120.049ZM102.583 122.993C102.638 123.523 102.586 124.057 102.433 124.56L106.259 125.726C106.569 124.71 106.671 123.64 106.562 122.583L102.583 122.993ZM102.433 124.56C102.28 125.063 102.03 125.517 101.708 125.896L104.754 128.489C105.439 127.684 105.95 126.741 106.259 125.726L102.433 124.56ZM101.721 125.881C101.435 126.21 101.094 126.465 100.726 126.636L102.406 130.266C103.3 129.852 104.093 129.249 104.741 128.504L101.721 125.881ZM100.726 126.636C100.357 126.806 99.9645 126.891 99.5716 126.89L99.5563 130.89C100.541 130.894 101.512 130.68 102.406 130.266L100.726 126.636ZM98.688 115.968C97.8486 115.961 97.0207 116.141 96.2596 116.493L97.9394 120.123C98.1683 120.017 98.4103 119.966 98.651 119.968L98.688 115.968ZM96.2596 116.493C95.4989 116.845 94.8259 117.359 94.2799 117.994L97.3124 120.602C97.4947 120.39 97.7099 120.23 97.9394 120.123L96.2596 116.493ZM94.2896 117.982C93.6996 118.658 93.2564 119.451 92.9824 120.306L96.7917 121.527C96.9029 121.18 97.0792 120.869 97.3026 120.613L94.2896 117.982ZM92.9824 120.306C92.7084 121.162 92.6079 122.066 92.6856 122.961L96.6706 122.615C96.6385 122.245 96.6804 121.874 96.7917 121.527L92.9824 120.306ZM92.684 122.941C92.8191 124.7 93.5572 126.367 94.7885 127.62L97.6414 124.816C97.0928 124.258 96.7375 123.485 96.6722 122.635L92.684 122.941ZM94.7885 127.62C96.0226 128.876 97.6699 129.629 99.4256 129.701L99.5904 125.704C98.8828 125.675 98.1871 125.372 97.6414 124.816L94.7885 127.62ZM99.4812 129.703C100.32 129.714 101.149 129.537 101.911 129.187L100.243 125.551C100.015 125.656 99.7743 125.706 99.5349 125.703L99.4812 129.703ZM101.911 129.187C102.672 128.838 103.347 128.326 103.894 127.693L100.869 125.077C100.686 125.287 100.472 125.447 100.243 125.551L101.911 129.187ZM103.912 127.672C104.486 126.99 104.913 126.195 105.173 125.341L101.346 124.177C101.24 124.525 101.069 124.838 100.851 125.098L103.912 127.672ZM105.173 125.341C105.433 124.488 105.521 123.588 105.434 122.7L101.453 123.09C101.489 123.458 101.452 123.829 101.346 124.177L105.173 125.341ZM105.438 122.743C105.305 120.997 104.578 119.34 103.365 118.087L100.492 120.871C101.035 121.431 101.385 122.201 101.449 123.047L105.438 122.743ZM103.365 118.087C102.148 116.832 100.522 116.068 98.78 115.971L98.5589 119.965C99.2629 120.004 99.9525 120.314 100.492 120.871L103.365 118.087Z" fill="white" mask="url(#path-5-inside-2_634_579)"/>
<path d="M219.739 61.4086L219.727 61.4269L219.739 61.4086ZM219.739 61.4086L219.741 61.4051L219.739 61.4086ZM219.742 61.4873L219.734 61.4532L219.742 61.4873Z" stroke="white" stroke-width="2"/>
<mask id="path-8-inside-3_634_579" fill="white">
<path d="M226.897 89.9996C226.766 89.9992 226.639 89.9486 226.539 89.8571C226.466 89.7911 226.41 89.7062 226.377 89.6105C226.344 89.5149 226.334 89.4117 226.349 89.311L228.585 74.6501C225.387 75.1618 222.117 74.6493 219.194 73.1781C218.643 72.9199 218.171 72.5047 217.83 71.9787C217.488 71.4527 217.291 70.8364 217.26 70.1984C217.26 63.9305 217.461 57.5794 217.751 51.3114C217.751 50.5635 217.751 49.7563 217.807 48.9372C217.863 44.5923 217.919 39.191 221.407 36.5081C225.354 33.4691 235.439 34.1338 235.864 34.1338C236.015 34.1503 236.155 34.2266 236.255 34.3475C236.303 34.4077 236.339 34.4778 236.36 34.5534C236.381 34.629 236.387 34.7085 236.378 34.7868C236.378 34.9648 234.925 52.3086 238.178 60.4166C241.342 68.2872 247.391 68.7264 247.648 68.7264C247.789 68.7382 247.921 68.8056 248.019 68.9153C248.116 69.0251 248.171 69.1694 248.173 69.32L248.296 82.3783C248.297 82.5052 248.259 82.629 248.189 82.7316C248.119 82.8341 248.019 82.91 247.905 82.9481L227.076 89.9877L226.897 89.9996ZM229.278 73.19C229.394 73.1906 229.507 73.2277 229.603 73.2968C229.689 73.3604 229.758 73.4487 229.799 73.5517C229.841 73.6546 229.854 73.7679 229.837 73.8785L227.601 88.5513L247.178 81.939L247.066 69.8542C245.378 69.5812 240.079 68.1566 237.149 60.8558C234.108 53.2583 234.98 38.5143 235.226 35.2735C233.046 35.1785 225.164 35.0242 222.067 37.4222C218.97 39.8201 218.97 44.8298 218.925 48.9134C218.925 49.78 218.925 50.611 218.869 51.3708C218.579 57.615 218.411 63.9542 218.378 70.1984C218.378 70.9345 218.836 71.5874 219.753 72.1572C222.436 73.8073 227.859 73.9735 228.999 73.2731C229.085 73.2237 229.181 73.1953 229.278 73.19Z"/>
</mask>
<path d="M226.897 89.9996C226.766 89.9992 226.639 89.9486 226.539 89.8571C226.466 89.7911 226.41 89.7062 226.377 89.6105C226.344 89.5149 226.334 89.4117 226.349 89.311L228.585 74.6501C225.387 75.1618 222.117 74.6493 219.194 73.1781C218.643 72.9199 218.171 72.5047 217.83 71.9787C217.488 71.4527 217.291 70.8364 217.26 70.1984C217.26 63.9305 217.461 57.5794 217.751 51.3114C217.751 50.5635 217.751 49.7563 217.807 48.9372C217.863 44.5923 217.919 39.191 221.407 36.5081C225.354 33.4691 235.439 34.1338 235.864 34.1338C236.015 34.1503 236.155 34.2266 236.255 34.3475C236.303 34.4077 236.339 34.4778 236.36 34.5534C236.381 34.629 236.387 34.7085 236.378 34.7868C236.378 34.9648 234.925 52.3086 238.178 60.4166C241.342 68.2872 247.391 68.7264 247.648 68.7264C247.789 68.7382 247.921 68.8056 248.019 68.9153C248.116 69.0251 248.171 69.1694 248.173 69.32L248.296 82.3783C248.297 82.5052 248.259 82.629 248.189 82.7316C248.119 82.8341 248.019 82.91 247.905 82.9481L227.076 89.9877L226.897 89.9996ZM229.278 73.19C229.394 73.1906 229.507 73.2277 229.603 73.2968C229.689 73.3604 229.758 73.4487 229.799 73.5517C229.841 73.6546 229.854 73.7679 229.837 73.8785L227.601 88.5513L247.178 81.939L247.066 69.8542C245.378 69.5812 240.079 68.1566 237.149 60.8558C234.108 53.2583 234.98 38.5143 235.226 35.2735C233.046 35.1785 225.164 35.0242 222.067 37.4222C218.97 39.8201 218.97 44.8298 218.925 48.9134C218.925 49.78 218.925 50.611 218.869 51.3708C218.579 57.615 218.411 63.9542 218.378 70.1984C218.378 70.9345 218.836 71.5874 219.753 72.1572C222.436 73.8073 227.859 73.9735 228.999 73.2731C229.085 73.2237 229.181 73.1953 229.278 73.19Z" fill="white"/>
<path d="M226.897 89.9996L226.883 94.9995L227.056 95L227.228 94.9886L226.897 89.9996ZM226.539 89.8571L229.928 86.1809L229.908 86.1626L229.888 86.1444L226.539 89.8571ZM226.349 89.311L221.406 88.5571L221.405 88.5664L226.349 89.311ZM228.585 74.6501L233.528 75.404L234.561 68.6306L227.795 69.7129L228.585 74.6501ZM219.194 73.1781L221.442 68.7119L221.38 68.6808L221.317 68.6515L219.194 73.1781ZM217.26 70.1984H212.26V70.3213L212.266 70.4441L217.26 70.1984ZM217.751 51.3114L222.746 51.5431L222.751 51.4273V51.3114H217.751ZM217.807 48.9372L222.796 49.2776L222.805 49.1397L222.807 49.0015L217.807 48.9372ZM221.407 36.5081L224.456 40.4714L224.458 40.4697L221.407 36.5081ZM235.864 34.1338L236.404 29.1631L236.135 29.1338H235.864V34.1338ZM236.255 34.3475L240.164 31.2294L240.133 31.1907L240.101 31.1527L236.255 34.3475ZM236.378 34.7868L231.413 34.2L231.378 34.4924V34.7868H236.378ZM238.178 60.4166L233.538 62.2786L233.539 62.2816L238.178 60.4166ZM247.648 68.7264L248.063 63.7437L247.856 63.7264H247.648V68.7264ZM248.173 69.32L253.173 69.2729L253.173 69.2575L253.173 69.2421L248.173 69.32ZM248.296 82.3783L253.296 82.3498L253.296 82.3405L253.296 82.3312L248.296 82.3783ZM247.905 82.9481L246.321 78.2055L246.313 78.2084L246.304 78.2113L247.905 82.9481ZM227.076 89.9877L227.407 94.9767L228.058 94.9335L228.677 94.7245L227.076 89.9877ZM229.603 73.2968L232.556 69.2624L232.543 69.2527L232.53 69.2431L229.603 73.2968ZM229.837 73.8785L234.78 74.6318L234.781 74.6247L234.783 74.6176L229.837 73.8785ZM227.601 88.5513L222.658 87.798L221.421 95.9162L229.201 93.2884L227.601 88.5513ZM247.178 81.939L248.778 86.6761L252.212 85.5165L252.178 81.8928L247.178 81.939ZM247.066 69.8542L252.066 69.8079L252.027 65.5915L247.865 64.9183L247.066 69.8542ZM237.149 60.8558L232.507 62.7139L232.509 62.7177L237.149 60.8558ZM235.226 35.2735L240.212 35.6519L240.603 30.5029L235.444 30.2782L235.226 35.2735ZM218.925 48.9134L213.926 48.8587L213.925 48.8861V48.9134H218.925ZM218.869 51.3708L213.883 51.0039L213.878 51.071L213.875 51.1383L218.869 51.3708ZM218.378 70.1984L213.378 70.1716L213.378 70.185V70.1984H218.378ZM219.753 72.1572L217.113 76.4038L217.123 76.4101L217.134 76.4163L219.753 72.1572ZM228.999 73.2731L226.513 68.9347L226.447 68.9726L226.382 69.0125L228.999 73.2731ZM226.911 84.9996C228.067 85.0027 229.135 85.4495 229.928 86.1809L223.15 93.5333C224.142 94.4477 225.464 94.9957 226.883 94.9995L226.911 84.9996ZM229.888 86.1444C230.457 86.6577 230.864 87.2913 231.099 87.9669L221.655 91.2541C221.956 92.121 222.475 92.9245 223.19 93.5698L229.888 86.1444ZM231.099 87.9669C231.334 88.6423 231.398 89.359 231.293 90.0556L221.405 88.5664C221.27 89.4644 221.353 90.3875 221.655 91.2541L231.099 87.9669ZM231.292 90.0649L233.528 75.404L223.642 73.8963L221.406 88.5571L231.292 90.0649ZM227.795 69.7129C225.645 70.0569 223.437 69.7162 221.442 68.7119L216.946 77.6443C220.797 79.5825 225.128 80.2667 229.375 79.5874L227.795 69.7129ZM221.317 68.6515C221.64 68.8027 221.874 69.0255 222.024 69.2563L213.636 74.7011C214.469 75.9839 215.647 77.0372 217.07 77.7048L221.317 68.6515ZM222.024 69.2563C222.172 69.485 222.242 69.7262 222.253 69.9528L212.266 70.4441C212.339 71.9467 212.805 73.4204 213.636 74.7011L222.024 69.2563ZM222.26 70.1984C222.26 64.0337 222.458 57.7651 222.746 51.5431L212.757 51.0798C212.464 57.3937 212.26 63.8273 212.26 70.1984H222.26ZM222.751 51.3114C222.751 50.5404 222.753 49.9002 222.796 49.2776L212.819 48.5967C212.75 49.6124 212.751 50.5867 212.751 51.3114H222.751ZM222.807 49.0015C222.836 46.7293 222.874 44.7837 223.218 43.1037C223.557 41.4543 224.055 40.7793 224.456 40.4714L218.359 32.5447C215.271 34.9197 213.998 38.2868 213.422 41.0951C212.853 43.8727 212.834 46.8003 212.808 48.8729L222.807 49.0015ZM224.458 40.4697C224.643 40.327 225.235 40.0085 226.449 39.7145C227.588 39.4384 228.932 39.2648 230.304 39.1692C233.158 38.9704 235.215 39.1338 235.864 39.1338V29.1338C236.087 29.1338 232.889 28.9649 229.609 29.1934C227.913 29.3115 225.969 29.5415 224.094 29.9955C222.294 30.4317 220.145 31.1697 218.357 32.5465L224.458 40.4697ZM235.323 39.1046C234.135 38.9754 233.106 38.3819 232.409 37.5424L240.101 31.1527C239.203 30.0713 237.894 29.3251 236.404 29.1631L235.323 39.1046ZM232.346 37.4656C231.969 36.9923 231.701 36.4581 231.545 35.9016L241.175 33.2053C240.977 32.4976 240.637 31.8231 240.164 31.2294L232.346 37.4656ZM231.545 35.9016C231.39 35.346 231.345 34.7681 231.413 34.2L241.343 35.3735C241.429 34.6489 241.373 33.912 241.175 33.2053L231.545 35.9016ZM231.378 34.7868C231.378 34.5619 231.4 34.3091 231.375 34.6609C231.365 34.8037 231.35 35.0126 231.333 35.2781C231.298 35.8091 231.252 36.5628 231.208 37.4864C231.119 39.329 231.036 41.8643 231.058 44.6683C231.101 50.0138 231.52 57.251 233.538 62.2786L242.818 58.5546C241.582 55.4742 241.101 49.9855 241.058 44.5876C241.037 42.0199 241.114 39.6791 241.196 37.9664C241.237 37.1122 241.279 36.4184 241.311 35.9351C241.327 35.6935 241.34 35.5036 241.35 35.3689C241.354 35.3051 241.359 35.2423 241.362 35.1983C241.363 35.1769 241.366 35.1469 241.367 35.1171C241.368 35.103 241.37 35.0765 241.371 35.0449C241.372 35.0291 241.374 35.0026 241.375 34.9701C241.376 34.9469 241.378 34.8764 241.378 34.7868H231.378ZM233.539 62.2816C237.692 72.6135 246.039 73.7264 247.648 73.7264V63.7264C248.307 63.7264 247.588 63.8045 246.459 63.1675C245.48 62.6156 243.963 61.4024 242.817 58.5516L233.539 62.2816ZM247.232 73.7091C246.045 73.6101 245 73.0484 244.275 72.2296L251.762 65.601C250.843 64.5627 249.534 63.8663 248.063 63.7437L247.232 73.7091ZM244.275 72.2296C243.557 71.4187 243.19 70.4055 243.174 69.3979L253.173 69.2421C253.152 67.9332 252.675 66.6315 251.762 65.601L244.275 72.2296ZM243.174 69.3671L243.296 82.4253L253.296 82.3312L253.173 69.2729L243.174 69.3671ZM243.296 82.4068C243.291 81.5357 243.548 80.6578 244.067 79.9011L252.311 85.5621C252.971 84.6003 253.303 83.4747 253.296 82.3498L243.296 82.4068ZM244.067 79.9011C244.589 79.1411 245.366 78.5246 246.321 78.2055L249.489 87.6907C250.672 87.2954 251.648 86.5272 252.311 85.5621L244.067 79.9011ZM246.304 78.2113L225.475 85.2509L228.677 94.7245L249.506 87.6849L246.304 78.2113ZM226.745 84.9986L226.566 85.0105L227.228 94.9886L227.407 94.9767L226.745 84.9986ZM229.254 78.1899C228.305 78.1852 227.407 77.8786 226.676 77.3505L232.53 69.2431C231.607 68.5769 230.483 68.1959 229.303 68.19L229.254 78.1899ZM226.649 77.3312C225.96 76.8266 225.458 76.1551 225.163 75.4231L234.436 71.6802C234.057 70.7424 233.419 69.8942 232.556 69.2624L226.649 77.3312ZM225.163 75.4231C224.868 74.6932 224.778 73.9048 224.892 73.1395L234.783 74.6176C234.93 73.631 234.813 72.616 234.436 71.6802L225.163 75.4231ZM224.895 73.1252L222.658 87.798L232.544 89.3046L234.78 74.6318L224.895 73.1252ZM229.201 93.2884L248.778 86.6761L245.578 77.2019L226.001 83.8142L229.201 93.2884ZM252.178 81.8928L252.066 69.8079L242.067 69.9004L242.178 81.9853L252.178 81.8928ZM247.865 64.9183C247.31 64.8287 243.869 64.1748 241.79 58.994L232.509 62.7177C236.289 72.1384 243.446 74.3337 246.268 74.7901L247.865 64.9183ZM241.791 58.9978C240.629 56.0935 240.084 51.2915 239.954 46.3006C239.828 41.4913 240.096 37.1787 240.212 35.6519L230.241 34.8951C230.111 36.6091 229.82 41.2888 229.957 46.5612C230.09 51.6518 230.629 58.0207 232.507 62.7139L241.791 58.9978ZM235.444 30.2782C234.249 30.2261 231.476 30.155 228.519 30.4353C227.04 30.5754 225.403 30.8133 223.839 31.2292C222.339 31.6278 220.536 32.2842 219.006 33.4687L225.128 41.3756C225.111 41.3893 225.191 41.3253 225.431 41.2206C225.665 41.1186 225.987 41.0053 226.408 40.8936C227.26 40.667 228.311 40.4998 229.462 40.3906C231.766 40.1723 234.024 40.2258 235.009 40.2687L235.444 30.2782ZM219.006 33.4687C216.066 35.7453 214.934 39.006 214.44 41.6005C213.947 44.1867 213.947 46.9399 213.926 48.8587L223.925 48.9682C223.949 46.8033 223.97 45.0099 224.263 43.4708C224.555 41.94 224.971 41.497 225.128 41.3756L219.006 33.4687ZM213.925 48.9134C213.925 49.8245 213.923 50.4622 213.883 51.0039L223.856 51.7377C223.928 50.7598 223.925 49.7356 223.925 48.9134H213.925ZM213.875 51.1383C213.581 57.4493 213.412 63.8571 213.378 70.1716L223.377 70.2253C223.411 64.0514 223.577 57.7808 223.864 51.6033L213.875 51.1383ZM213.378 70.1984C213.378 73.3853 215.47 75.3824 217.113 76.4038L222.392 67.9106C222.315 67.8629 222.545 67.985 222.814 68.3671C223.123 68.808 223.378 69.4511 223.378 70.1984H213.378ZM217.134 76.4163C219.456 77.8444 222.399 78.3923 224.519 78.5776C225.663 78.6776 226.815 78.6934 227.851 78.6102C228.367 78.5687 228.928 78.4968 229.485 78.3713C229.965 78.2629 230.791 78.0405 231.616 77.5337L226.382 69.0125C226.687 68.8254 226.934 68.7286 227.052 68.6863C227.182 68.6401 227.265 68.6207 227.284 68.6165C227.315 68.6095 227.245 68.6267 227.05 68.6423C226.664 68.6733 226.079 68.6758 225.39 68.6156C224.706 68.5558 224.025 68.4435 223.436 68.2894C222.816 68.127 222.481 67.9654 222.372 67.8981L217.134 76.4163ZM231.485 77.6114C230.904 77.9442 230.242 78.1449 229.55 78.1826L229.007 68.1974C228.119 68.2457 227.267 68.5031 226.513 68.9347L231.485 77.6114Z" fill="white" mask="url(#path-8-inside-3_634_579)"/>
<path d="M232.7 16.1994L232.707 16.1994L232.715 16.1993C236.651 16.1389 240.543 17.117 244.042 19.05C247.541 20.9831 250.54 23.8123 252.765 27.289L252.768 27.2946C252.929 27.5413 253.157 27.7432 253.433 27.8689L253.847 26.9587L253.433 27.8689C253.71 27.9949 254.019 28.0364 254.321 27.9854L254.37 27.9772L254.418 27.9641C255.267 27.7324 256.164 27.7901 256.983 28.1312C257.803 28.4728 258.513 29.0849 259.002 29.8919L259.006 29.8996L259.011 29.9072C259.986 31.4521 260.551 33.7228 260.774 36.4169C260.996 39.0895 260.874 42.0745 260.557 44.9657C260.24 47.8537 259.732 50.6218 259.193 52.8523C258.644 55.1245 258.09 56.723 257.72 57.3578C256.592 59.2685 253.923 61.8984 251.414 64.13C249.058 66.2253 246.967 67.8634 246.733 68.0466C246.729 68.0491 246.727 68.0514 246.724 68.0534C246.547 68.189 246.403 68.3591 246.299 68.5499C246.066 68.9232 245.716 69.1707 245.336 69.2614L245.311 69.2674L245.286 69.2747C244.249 69.5797 242.665 69.2668 240.497 67.9548C239.911 67.5972 239.264 66.9363 238.57 65.9655C237.884 65.0053 237.197 63.8044 236.511 62.4389C235.137 59.7046 233.82 56.4115 232.56 53.2605L232.56 53.2604L232.544 53.2195L232.544 53.2194L232.526 53.1754L231.598 53.5467L232.526 53.1754L232.511 53.1378C231.269 50.0303 230.086 47.0732 228.913 44.7941C228.323 43.6487 227.716 42.6349 227.08 41.8429C226.455 41.065 225.726 40.4054 224.866 40.1182L224.855 40.1146L224.845 40.1113L223.157 39.589L223.143 39.5847L223.129 39.5808C221.341 39.084 219.02 38.3925 216.909 37.3404C214.788 36.2829 213.023 34.9302 212.162 33.1885C211.786 32.3336 211.581 31.402 211.562 30.4542C211.544 29.4998 211.714 28.5533 212.062 27.6768L212.073 27.65L212.082 27.6226C212.943 25.0253 215.041 22.5306 218.006 20.5254C220.961 18.5266 224.715 17.0596 228.77 16.4863L228.775 16.4856C230.076 16.295 231.387 16.1994 232.7 16.1994Z" fill="#000816" stroke="white" stroke-width="2"/>
<path d="M218.221 65.5211C220.639 65.2895 223.023 64.7515 225.321 63.9185L218.221 65.5211Z" fill="white"/>
<path d="M218.221 66.1147C218.08 66.1152 217.945 66.0592 217.841 65.958C217.737 65.8567 217.674 65.7177 217.662 65.5686C217.656 65.4903 217.665 65.4115 217.688 65.3369C217.712 65.2623 217.749 65.1936 217.798 65.1348C217.847 65.076 217.907 65.0284 217.974 64.9948C218.041 64.9612 218.114 64.9424 218.188 64.9394C220.566 64.6987 222.911 64.169 225.175 63.3606C225.324 63.3086 225.485 63.3213 225.625 63.3959C225.764 63.4705 225.87 63.6008 225.919 63.7583C225.968 63.9157 225.956 64.0873 225.886 64.2353C225.815 64.3834 225.693 64.4958 225.544 64.5477C223.188 65.3962 220.745 65.9422 218.266 66.174L218.221 66.1147Z" fill="white"/>
<path d="M222.612 44.6678C222.743 43.4364 222.481 42.3942 222.027 42.3398C221.573 42.2853 221.099 43.2394 220.968 44.4707C220.837 45.702 221.099 46.7443 221.553 46.7987C222.007 46.8531 222.481 45.8991 222.612 44.6678Z" fill="white"/>
<path d="M118.56 188.93L16 188.93V210.941H118.56V188.93Z" fill="#000816"/>
<path d="M197.662 210.941C196.789 208.16 199.48 195.108 200.935 188.93L118.56 188.93V210.941H197.662Z" fill="#000816"/>
<path d="M270.763 210.941V201.673C259.125 204.762 233.994 210.941 226.575 210.941H270.763Z" fill="#000816"/>
<path d="M16 188.93C58.6487 188.93 92.6088 188.93 118.56 188.93M16 188.93V210.941H118.56M16 188.93L118.56 188.93M200.935 188.93C199.48 195.108 196.789 208.16 197.662 210.941M200.935 188.93C200.421 188.93 181.305 188.93 118.56 188.93M200.935 188.93L118.56 188.93M197.662 210.941H118.56M197.662 210.941H226.575M118.56 210.941V188.93M226.575 210.941H270.763V201.673C259.125 204.762 233.994 210.941 226.575 210.941Z" stroke="white" stroke-width="2"/>
<path d="M271.214 200.711C271.2 200.838 271.187 200.953 271.176 201.056C251.592 207.934 232.97 210.247 219.195 210.833C212.24 211.129 206.527 210.984 202.556 210.766C200.571 210.658 199.022 210.53 197.972 210.431C197.722 210.407 197.501 210.385 197.309 210.365C197.315 210.272 197.321 210.173 197.328 210.068C197.38 209.255 197.457 208.06 197.561 206.535C197.769 203.485 198.08 199.114 198.495 193.834C199.326 183.272 200.573 169.075 202.236 154.526C203.9 139.972 205.979 125.089 208.471 113.146C209.717 107.173 211.062 101.961 212.501 97.9048C213.96 93.7918 215.454 91.0533 216.901 89.824C223.298 84.3905 233.535 82.2761 243.706 83.7392C253.86 85.1998 263.728 90.1967 269.412 98.6991C270.777 100.74 271.876 103.861 272.722 107.855C273.564 111.83 274.137 116.584 274.498 121.829C275.22 132.317 275.086 144.681 274.583 156.522C274.081 168.358 273.212 179.648 272.468 187.981C272.096 192.146 271.755 195.572 271.508 197.955C271.384 199.147 271.284 200.078 271.214 200.711Z" fill="#000816" stroke="white" stroke-width="2"/>
<path d="M116.978 160.53L116.978 160.53L116.981 160.521C117.142 160.037 117.762 159.362 118.975 158.597C120.133 157.867 121.644 157.17 123.262 156.564C126.531 155.339 129.998 154.57 131.551 154.57C131.947 154.57 132.626 154.706 133.563 155C134.474 155.285 135.541 155.69 136.678 156.164C138.951 157.11 141.443 158.303 143.401 159.284L143.561 159.364L143.739 159.383L181.663 163.597L182.331 163.672L182.652 163.08L202.44 126.573L219.591 147.331C219.493 147.582 219.361 147.916 219.2 148.322C218.81 149.303 218.246 150.708 217.549 152.402C216.156 155.79 214.234 160.33 212.118 164.941C209.999 169.556 207.696 174.221 205.541 177.87C204.463 179.696 203.436 181.243 202.501 182.396C201.534 183.587 200.774 184.218 200.258 184.414C200.031 184.499 199.592 184.574 198.881 184.586C198.192 184.598 197.33 184.55 196.308 184.446C194.266 184.238 191.663 183.81 188.687 183.225C182.739 182.055 175.38 180.272 168.201 178.41C161.025 176.548 154.043 174.613 148.854 173.142C146.26 172.406 144.115 171.787 142.619 171.352C141.87 171.135 141.284 170.963 140.886 170.846C140.686 170.788 140.534 170.743 140.431 170.713L140.315 170.678L140.286 170.67L140.278 170.668L140.276 170.667C140.276 170.667 140.276 170.667 140.275 170.672L140.276 170.667L127.71 166.939L127.409 166.85L127.112 166.949C125.141 167.599 123.204 166.902 121.654 165.847C120.89 165.327 120.263 164.746 119.832 164.272C119.617 164.035 119.461 163.836 119.367 163.698C119.346 163.668 119.33 163.644 119.319 163.625C119.297 163.531 119.238 163.339 119.073 163.162C118.957 163.038 118.789 162.921 118.57 162.869C118.357 162.818 118.169 162.845 118.034 162.888C117.799 162.962 117.657 163.102 117.618 163.141C117.52 163.239 117.459 163.34 117.441 163.37L117.44 163.371C117.412 163.418 117.387 163.465 117.367 163.504C117.293 163.649 117.197 163.87 117.097 164.101C117.075 164.151 117.053 164.203 117.029 164.257C116.826 164.726 116.567 165.325 116.272 165.933C115.941 166.613 115.59 167.251 115.256 167.699C115.263 167.274 115.328 166.716 115.451 166.048C115.767 164.328 116.409 162.192 116.978 160.53ZM119.291 163.577C119.281 163.556 119.285 163.56 119.295 163.583C119.293 163.581 119.292 163.578 119.291 163.577ZM114.816 168.159C114.816 168.159 114.818 168.158 114.821 168.157C114.818 168.158 114.816 168.159 114.816 168.159Z" fill="#000816" stroke="white" stroke-width="2"/>
<path d="M239.593 110.483C239.725 110.636 239.842 110.771 239.941 110.887L220.313 152.992L191.432 134.612L216.769 90.1771C217.38 90.3398 218.103 90.6459 218.93 91.1007C220.046 91.7145 221.285 92.5623 222.597 93.5782C225.221 95.6097 228.068 98.2589 230.708 100.903C233.345 103.544 235.758 106.163 237.512 108.122C238.39 109.101 239.101 109.915 239.593 110.483Z" fill="#000816" stroke="white" stroke-width="2"/>
<path d="M220.737 147.717C220.65 147.718 220.565 147.693 220.491 147.646C220.425 147.612 220.365 147.564 220.317 147.506C220.268 147.447 220.23 147.379 220.207 147.305C220.183 147.231 220.173 147.153 220.177 147.075C220.182 146.997 220.201 146.921 220.234 146.851C226.237 133.911 235.741 112.674 235.64 110.822C235.622 110.747 235.618 110.669 235.628 110.592C235.638 110.516 235.663 110.442 235.701 110.376C235.738 110.31 235.788 110.252 235.846 110.206C235.905 110.16 235.972 110.127 236.043 110.109C236.189 110.074 236.343 110.101 236.471 110.186C236.599 110.27 236.69 110.405 236.725 110.561C237.239 112.65 224.996 139.265 221.24 147.361C221.195 147.464 221.124 147.551 221.035 147.614C220.947 147.677 220.843 147.713 220.737 147.717Z" fill="white"/>
<path d="M51.6386 75.1792L51.4597 73.7784L56.2561 70.4663L57.4971 72.2826L54.0536 74.55L58.0673 76.8055L57.2735 78.5624L51.6386 75.1792Z" fill="white"/>
<path d="M57.9443 80.367H59.1295C59.6214 80.367 59.8115 80.1415 59.7444 79.6547L58.7605 71.9266H61.086L62.0699 79.6785C62.3382 81.7916 61.6115 82.6463 59.6214 82.6463H58.235L57.9443 80.367ZM58.3245 68.4958H60.6388L60.9295 70.7989H58.6152L58.3245 68.4958Z" fill="white"/>
<path d="M62.6847 77.3515C62.5058 75.9625 63.3556 75.2384 65.5804 74.9772C66.8774 74.7754 67.2463 74.5736 67.2016 74.2056C67.1569 73.8376 66.6538 73.5171 65.9718 73.5171C65.7926 73.4906 65.6102 73.5032 65.4357 73.5541C65.2613 73.605 65.0984 73.6932 64.9572 73.8132C64.8159 73.9332 64.6991 74.0825 64.6141 74.252C64.529 74.4216 64.4774 74.6077 64.4624 74.7992L62.3381 74.3481C62.394 72.7573 63.7916 71.6533 65.6923 71.6533C67.9283 71.6533 69.4041 72.8404 69.6501 74.7754L70.2427 79.5239H68.1408L68.0513 78.776C67.7638 79.1147 67.4061 79.3779 67.0064 79.5448C66.6067 79.7116 66.176 79.7776 65.7482 79.7376C65.0456 79.8407 64.3328 79.6493 63.7609 79.2038C63.189 78.7584 62.803 78.094 62.6847 77.3515ZM67.6376 76.6036L67.537 75.8557C67.414 76.0813 67.101 76.2237 66.2625 76.4137C65.2227 76.6392 64.8873 76.841 64.932 77.2209C64.9767 77.6008 65.3233 77.7907 66.05 77.7907C66.9668 77.7907 67.7159 77.2446 67.6376 76.6036Z" fill="white"/>
<path d="M69.1357 71.9263H71.7296L74.3123 76.6747L75.6986 71.9263H78.2925L75.7545 79.4645H73.5185L69.1357 71.9263Z" fill="white"/>
<path d="M78.9074 77.3514C78.7285 75.9625 79.5783 75.2384 81.8031 74.9772C83.1001 74.7754 83.469 74.5736 83.4243 74.2056C83.3796 73.8376 82.8765 73.5171 82.1945 73.5171C82.0153 73.4906 81.8329 73.5032 81.6584 73.5541C81.484 73.605 81.3211 73.6931 81.1799 73.8131C81.0386 73.9331 80.9219 74.0825 80.8368 74.252C80.7517 74.4215 80.7001 74.6077 80.6851 74.7992L78.5161 74.4074C78.5161 72.8167 79.9696 71.7126 81.8702 71.7126C84.1063 71.7126 85.5933 72.8998 85.8393 74.8348L86.4318 79.5832H84.3299L84.2293 78.8353C83.9407 79.1726 83.5828 79.4348 83.1834 79.6015C82.784 79.7683 82.3538 79.8351 81.9261 79.7969C81.2224 79.8855 80.5138 79.6798 79.9503 79.2233C79.3869 78.7669 79.0129 78.0956 78.9074 77.3514ZM83.8492 76.6036L83.7597 75.8557C83.6479 76.0812 83.3237 76.2237 82.4963 76.4136C81.4454 76.6392 81.11 76.841 81.1659 77.2209C81.2218 77.6008 81.5572 77.7907 82.2839 77.7907C83.1895 77.7907 83.9386 77.2446 83.8492 76.6036Z" fill="white"/>
<path d="M86.8566 77.1857L88.9473 76.5327C89.1484 76.9688 89.4706 77.3289 89.8705 77.5645C90.2703 77.8001 90.7285 77.8999 91.1834 77.8504C92.1226 77.8504 92.6145 77.6605 92.581 77.3281C92.5474 76.9957 92.089 76.782 90.6579 76.5565C88.1088 76.1529 87.0019 75.4525 86.8231 74.0873C86.6442 72.7221 87.9411 71.713 90.0095 71.713C90.8355 71.6555 91.6607 71.8372 92.3971 72.2386C93.1335 72.64 93.7535 73.2461 94.1909 73.9923L92.1896 74.6452C91.9661 74.2931 91.6596 74.0092 91.3007 73.8217C90.9417 73.6343 90.5428 73.5499 90.1436 73.5768C89.3945 73.5768 89.0256 73.7786 89.0256 74.0992C89.0256 74.4197 89.4281 74.574 91.0045 74.8352C93.4978 75.2625 94.627 75.9273 94.8059 77.34C94.9847 78.7527 93.6878 79.7973 91.3176 79.7973C90.4158 79.8669 89.5143 79.6571 88.7225 79.1936C87.9307 78.73 87.2825 78.0325 86.8566 77.1857Z" fill="white"/>
<path d="M95.1301 75.7012C95.0457 75.1753 95.0762 74.6358 95.2195 74.1244C95.3628 73.6131 95.615 73.1436 95.9566 72.7522C96.2981 72.3609 96.7199 72.0582 97.1892 71.8677C97.6585 71.6771 98.1628 71.6037 98.6631 71.6532C99.5288 71.6283 100.383 71.8709 101.121 72.3514C101.859 72.8318 102.45 73.5295 102.822 74.3598L100.754 75.0602C100.607 74.6807 100.355 74.3573 100.032 74.1327C99.7088 73.908 99.3289 73.7927 98.9426 73.8019C98.7165 73.7872 98.4903 73.8294 98.2824 73.9249C98.0745 74.0204 97.8907 74.1665 97.7459 74.3515C97.6011 74.5365 97.4993 74.755 97.4489 74.9895C97.3985 75.224 97.4008 75.4679 97.4557 75.7012C97.503 76.2197 97.7311 76.7006 98.0951 77.0498C98.4591 77.399 98.9328 77.5912 99.4234 77.5888C99.7667 77.6274 100.111 77.5265 100.387 77.3061C100.663 77.0858 100.85 76.7626 100.91 76.4016L103.146 77.0902C102.989 77.9183 102.547 78.6545 101.906 79.155C101.265 79.6555 100.472 79.8843 99.6805 79.7968C98.5803 79.8283 97.5078 79.4279 96.6683 78.6723C95.8287 77.9166 95.2811 76.8588 95.1301 75.7012Z" fill="white"/>
<path d="M103.381 71.9262H105.617L105.707 72.6503C105.942 72.3479 106.243 72.1102 106.584 71.9573C106.924 71.8043 107.295 71.7408 107.663 71.7718C108.101 71.7714 108.537 71.8313 108.96 71.9499L108.837 74.1461C108.472 74.0451 108.096 73.9972 107.719 74.0036C106.601 74.0036 106.042 74.7159 106.221 76.176L106.646 79.4644H104.32L103.381 71.9262Z" fill="white"/>
<path d="M109.139 68.4482H111.465L111.755 70.7513H109.441L109.139 68.4482ZM109.598 71.9265H111.912L112.873 79.4647H110.559L109.598 71.9265Z" fill="white"/>
<path d="M113.131 71.9266H115.367L115.456 72.6032C115.726 72.3127 116.051 72.0862 116.41 71.9389C116.768 71.7916 117.152 71.7267 117.536 71.7485C118.568 71.7665 119.561 72.1761 120.334 72.9033C121.107 73.6305 121.609 74.6272 121.751 75.7135C121.851 76.2044 121.843 76.7132 121.728 77.2006C121.613 77.6879 121.395 78.1406 121.089 78.5238C120.783 78.9071 120.398 79.2105 119.964 79.4107C119.531 79.6109 119.059 79.7025 118.587 79.6785C117.787 79.6874 117.005 79.43 116.351 78.9424L116.82 82.67H114.506L113.131 71.9266ZM119.414 75.6779C119.345 75.1694 119.102 74.706 118.73 74.3771C118.358 74.0483 117.885 73.8773 117.402 73.8972C116.451 73.8972 115.78 74.5382 115.881 75.3099L115.982 76.129C116.082 76.5696 116.331 76.9562 116.681 77.2163C117.031 77.4763 117.458 77.592 117.882 77.5416C118.108 77.56 118.334 77.5221 118.544 77.4311C118.753 77.3402 118.94 77.1985 119.088 77.0176C119.237 76.8366 119.344 76.6212 119.4 76.3886C119.457 76.1561 119.462 75.9127 119.414 75.6779Z" fill="white"/>
<path d="M125.574 73.8971L125.921 76.6156C125.921 77.0786 126.167 77.2448 126.67 77.2448H127.989L128.28 79.4647H126.603C126.243 79.5236 125.875 79.5008 125.523 79.3979C125.172 79.295 124.845 79.1142 124.564 78.8675C124.283 78.6208 124.054 78.3138 123.893 77.9666C123.732 77.6194 123.642 77.2399 123.629 76.853L123.249 73.8971H121.594L121.348 71.9265H123.025L122.712 69.9678H125.027L125.272 71.9265H127.509L127.755 73.8971H125.574Z" fill="white"/>
<path d="M129.006 76.7461L132.45 74.4906L128.436 72.2826L129.23 70.5256L134.82 73.8377L134.999 75.2385L130.203 78.5624L129.006 76.7461Z" fill="white"/>
<path d="M249.896 85.5236C241.262 89.0652 231.888 90.0476 222.776 88.3713L225.245 81.0516H249.007L249.896 85.5236Z" fill="#000816" stroke="white" stroke-width="2"/>
<path d="M36.7304 24.4262C32.7298 23.4608 24.8378 23.9628 25.2742 33.694C25.7106 43.4251 29.0929 79.8399 30.7295 96.8308L33.4571 131.585C33.639 134.674 36.403 140.737 46.0043 140.274C55.6057 139.81 65.6435 140.081 69.4622 140.274H153.474C155.838 139.887 160.457 137.377 160.02 130.427L154.565 133.902H138.745H94.5566H49.8231C41.9674 133.902 39.6398 128.11 39.458 125.213L34.5482 61.4974C34.1845 55.705 33.2389 42.4984 32.3661 36.0109C31.4932 29.5235 34.9119 25.5847 36.7304 24.4262Z" fill="white"/>
</g>
<defs>
<filter id="filter0_d_634_579" x="0" y="0.196533" width="291" height="226.804" filterUnits="userSpaceOnUse" color-interpolation-filters="sRGB">
<feFlood flood-opacity="0" result="BackgroundImageFix"/>
<feColorMatrix in="SourceAlpha" type="matrix" values="0 0 0 0 0 0 0 0 0 0 0 0 0 0 0 0 0 0 127 0" result="hardAlpha"/>
<feOffset/>
<feGaussianBlur stdDeviation="7.5"/>
<feComposite in2="hardAlpha" operator="out"/>
<feColorMatrix type="matrix" values="0 0 0 0 0.662745 0 0 0 0 0.803922 0 0 0 0 0.937255 0 0 0 0.7 0"/>
<feBlend mode="normal" in2="BackgroundImageFix" result="effect1_dropShadow_634_579"/>
<feBlend mode="normal" in="SourceGraphic" in2="effect1_dropShadow_634_579" result="shape"/>
</filter>
</defs>
</svg>
