<svg width="189" height="193" viewBox="0 0 189 193" fill="none" xmlns="http://www.w3.org/2000/svg">
<g filter="url(#filter0_d_634_785)">
<path d="M67.3452 160.539C62.2207 160.539 58.0501 164.42 58.0501 169.192C58.0501 173.961 62.2193 177.844 67.3452 177.844C72.4684 177.844 76.6362 173.963 76.6362 169.192C76.6362 164.42 72.4684 160.539 67.3452 160.539ZM67.3452 174.305C63.5 174.305 61.5 172.257 61.5 168.875C61.5 165.492 64 163.689 67.3452 163.689C70.6905 163.689 73 165.492 73 169.192C73 171.652 70.5 174.305 67.3452 174.305ZM15 67.7527V71.0835C19.539 70.816 29.658 72.3598 33.5 82.2053L44.5 120.121L55.6954 158.988H145.405V156.014H58.0501L55.6954 148.448H147.716L168.056 79.9003H35.5834C30.2582 68.1737 19.495 67.4904 15 67.7527ZM126.5 121.725H99V106.058H126.5V121.725ZM129.515 106.058H156.571L151.5 121.725H129.515V106.058ZM99 124.762H126.5V145.397H99V124.762ZM95.7516 145.397H68.7418V124.762H95.7516V145.397ZM99 102.867V83.2164H126.5V102.867H99ZM95.7516 102.867H68.7418V83.2164H95.7516V102.867ZM95.7516 106.058V121.725H68.7418V106.058H95.7516ZM65.5 121.725H47.9247L43.5 106.058H65.5V121.725ZM55 145.397L49 124.762H65.5V145.397H55ZM145.405 145.397H129.725L129.515 124.762H150.5L145.405 145.397ZM157.5 102.867H129.515V83.2164H164.178L157.5 102.867ZM65.5 83.2164V102.867H42.4414L36.5 83.2164H65.5ZM134.52 160.539C129.394 160.539 125.223 164.104 125.223 168.875C125.223 173.647 129.394 177.528 134.52 177.528C139.643 177.528 143.812 173.647 143.812 168.875C143.812 164.106 139.643 160.539 134.52 160.539ZM134.52 174.305C131 174.305 128.5 172.039 128.5 168.875C128.5 165.711 131.04 163.689 134.52 163.689C138 163.689 140.5 165.685 140.5 168.875C140.5 172.064 138.04 174.305 134.52 174.305ZM157.646 47.0751C161.105 44.0973 163.484 40.4619 164.178 36.8943C164.738 34.0189 164.2 31.3842 162.628 29.2766C161.058 27.1614 158.596 25.7653 155.509 25.2419C150.655 24.4114 145.545 26.1082 140.5 29.3636C138.978 30.3464 135.703 32.9982 134.491 34.1793C134.315 32.5542 133.553 29.2504 133 27.6073C131.158 22.1458 129.381 18.6071 125.013 16.4855C122.233 15.1355 119.121 14.5812 116.5 15.3477C113.861 16.1129 112.454 17.4357 111 20.0244C109.181 23.2555 110.216 28.0315 111 32.3874L91.1783 25.9291L85.5 40.8432L90 42.3599L80.9209 75.4651L160.86 76.1522L164.178 66.1201L168.056 67.6367L174 52.2793L157.646 47.0751ZM142 31.6631C146.087 29.0258 151.297 27.4781 155 28.1128C156.316 28.3355 159.391 29.6502 160.5 31.1461C161.612 32.6356 161.098 35.6722 160.86 36.8943C160.22 40.1842 158.309 43.2064 154.5 45.8066L134 39.2347C135.237 36.5308 138.841 33.699 142 31.6631ZM114.035 21.5322C114.655 20.4317 115.784 19.0049 117.651 18.4649C119.509 17.9147 122.315 18.4361 123.5 19.0132C126.832 20.6319 128.701 24.2911 130.194 28.7148C131.339 32.1187 131.487 35.6453 130.671 38.4938L113.481 33.0246C112.171 28.7737 112.362 24.5112 114.035 21.5322ZM93 43.0916L117.651 50.954L110.05 72.6921H85L93 43.0916ZM134.491 56.5149L127.5 72.6921H113.481L120.5 51.965L134.491 56.5149ZM130.194 72.6921L137.5 57.526L160.86 65.109L158.5 73.1976L130.194 72.6921ZM166.5 63.5006L161.634 61.8139L94.168 40.3493V40.348L89 38.4938L93 29.3636L170 53.8954L166.5 63.5006Z" fill="white"/>
<path d="M93 43.0916L117.651 50.954L110.05 72.6921H85L93 43.0916Z" fill="#000816"/>
<path d="M134.491 56.5149L127.5 72.6921H113.481L120.5 51.965L134.491 56.5149Z" fill="#000816"/>
<path d="M130.194 72.6921L137.5 57.526L160.86 65.109L158.5 73.1976L130.194 72.6921Z" fill="#000816"/>
<path d="M166.5 63.5006L161.634 61.8139L94.168 40.3493V40.348L89 38.4938L93 29.3636L170 53.8954L166.5 63.5006Z" fill="#000816"/>
<path d="M142 31.6631C146.087 29.0258 151.297 27.4781 155 28.1128C156.316 28.3355 159.391 29.6502 160.5 31.1461C161.612 32.6356 161.098 35.6722 160.86 36.8943C160.22 40.1842 158.309 43.2064 154.5 45.8066L134 39.2347C135.237 36.5308 138.841 33.699 142 31.6631Z" fill="#000816"/>
<path d="M114.035 21.5322C114.655 20.4317 115.784 19.0049 117.651 18.4649C119.509 17.9147 122.315 18.4361 123.5 19.0132C126.832 20.6319 128.701 24.2911 130.194 28.7148C131.339 32.1187 131.487 35.6453 130.671 38.4938L113.481 33.0246C112.171 28.7737 112.362 24.5112 114.035 21.5322Z" fill="#000816"/>
<path d="M65.5 83.2164V102.867H42.4414L36.5 83.2164H65.5Z" fill="#000816"/>
<path d="M95.7516 102.867H68.7418V83.2164H95.7516V102.867Z" fill="#000816"/>
<path d="M99 102.867V83.2164H126.5V102.867H99Z" fill="#000816"/>
<path d="M157.5 102.867H129.515V83.2164H164.178L157.5 102.867Z" fill="#000816"/>
<path d="M129.515 106.058H156.571L151.5 121.725H129.515V106.058Z" fill="#000816"/>
<path d="M126.5 121.725H99V106.058H126.5V121.725Z" fill="#000816"/>
<path d="M95.7516 106.058V121.725H68.7418V106.058H95.7516Z" fill="#000816"/>
<path d="M65.5 121.725H47.9247L43.5 106.058H65.5V121.725Z" fill="#000816"/>
<path d="M55 145.397L49 124.762H65.5V145.397H55Z" fill="#000816"/>
<path d="M95.7516 145.397H68.7418V124.762H95.7516V145.397Z" fill="#000816"/>
<path d="M99 124.762H126.5V145.397H99V124.762Z" fill="#000816"/>
<path d="M145.405 145.397H129.725L129.515 124.762H150.5L145.405 145.397Z" fill="#000816"/>
</g>
<defs>
<filter id="filter0_d_634_785" x="0" y="0" width="189" height="192.844" filterUnits="userSpaceOnUse" color-interpolation-filters="sRGB">
<feFlood flood-opacity="0" result="BackgroundImageFix"/>
<feColorMatrix in="SourceAlpha" type="matrix" values="0 0 0 0 0 0 0 0 0 0 0 0 0 0 0 0 0 0 127 0" result="hardAlpha"/>
<feOffset/>
<feGaussianBlur stdDeviation="7.5"/>
<feComposite in2="hardAlpha" operator="out"/>
<feColorMatrix type="matrix" values="0 0 0 0 0.662745 0 0 0 0 0.803922 0 0 0 0 0.937255 0 0 0 0.7 0"/>
<feBlend mode="normal" in2="BackgroundImageFix" result="effect1_dropShadow_634_785"/>
<feBlend mode="normal" in="SourceGraphic" in2="effect1_dropShadow_634_785" result="shape"/>
</filter>
</defs>
</svg>
