<svg width="120" height="122" viewBox="0 0 120 122" fill="none" xmlns="http://www.w3.org/2000/svg">
<path d="M40.1098 109.017C36.2712 109.017 33.1472 111.924 33.1472 115.498C33.1472 119.071 36.2702 121.979 40.1098 121.979C43.9473 121.979 47.0693 119.072 47.0693 115.498C47.0693 111.924 43.9473 109.017 40.1098 109.017ZM40.1098 119.328C37.2295 119.328 35.7314 117.794 35.7314 115.261C35.7314 112.727 37.604 111.376 40.1098 111.376C42.6156 111.376 44.3455 112.727 44.3455 115.498C44.3455 117.34 42.4729 119.328 40.1098 119.328ZM0.900391 39.5146V42.0096C4.30032 41.8092 11.88 42.9656 14.7579 50.3404L22.9975 78.741L31.3834 107.855H98.581V105.627H33.1472L31.3834 99.9597H100.312L115.548 48.6138H16.3185C12.3296 39.83 4.26737 39.3181 0.900391 39.5146ZM84.4199 79.943H63.8209V68.207H84.4199V79.943ZM86.6782 68.207H106.945L103.146 79.943H86.6782V68.207ZM63.8209 82.2179H84.4199V97.6747H63.8209V82.2179ZM61.3877 97.6747H41.1559V82.2179H61.3877V97.6747ZM63.8209 65.8173V51.0977H84.4199V65.8173H63.8209ZM61.3877 65.8173H41.1559V51.0977H61.3877V65.8173ZM61.3877 68.207V79.943H41.1559V68.207H61.3877ZM38.7276 79.943H25.5628L22.2484 68.207H38.7276V79.943ZM30.8626 97.6747L26.3682 82.2179H38.7276V97.6747H30.8626ZM98.581 97.6747H86.8357L86.6782 82.2179H102.397L98.581 97.6747ZM107.641 65.8173H86.6782V51.0977H112.643L107.641 65.8173ZM38.7276 51.0977V65.8173H21.4555L17.0051 51.0977H38.7276ZM90.4272 109.017C86.5876 109.017 83.4636 111.687 83.4636 115.261C83.4636 118.835 86.5876 121.742 90.4272 121.742C94.2647 121.742 97.3877 118.835 97.3877 115.261C97.3877 111.688 94.2647 109.017 90.4272 109.017ZM90.4272 119.328C87.7907 119.328 85.918 117.63 85.918 115.261C85.918 112.891 87.8203 111.376 90.4272 111.376C93.034 111.376 94.9067 112.871 94.9067 115.261C94.9067 117.65 93.0637 119.328 90.4272 119.328ZM107.75 24.026C110.341 21.7955 112.123 19.0723 112.643 16.4C113.062 14.2462 112.66 12.2726 111.482 10.6939C110.306 9.10951 108.462 8.06377 106.149 7.67173C102.513 7.04966 98.6855 8.32065 94.9067 10.7591C93.7669 11.4953 91.3137 13.4816 90.4055 14.3663C90.2738 13.149 89.7027 10.6743 89.2888 9.44356C87.909 5.35261 86.5783 2.70194 83.306 1.11272C81.2241 0.101485 78.8929 -0.313698 76.9294 0.260454C74.9524 0.833648 73.899 1.82447 72.8096 3.76355C71.4473 6.18381 72.2227 9.7613 72.8096 13.0241L57.962 8.18646L53.7087 19.358L57.0795 20.494L50.2787 45.2916L110.157 45.8063L112.643 38.2917L115.548 39.4277L120 27.9242L107.75 24.026ZM96.0303 12.4816C99.0914 10.5061 102.994 9.34681 105.768 9.82223C106.753 9.98901 109.057 10.9738 109.888 12.0943C110.721 13.21 110.336 15.4846 110.157 16.4C109.678 18.8643 108.247 21.1281 105.393 23.0758L90.0378 18.1531C90.9645 16.1277 93.6641 14.0066 96.0303 12.4816ZM75.0832 4.89299C75.5476 4.06867 76.3929 2.99992 77.7912 2.59543C79.1833 2.18326 81.2852 2.5738 82.1728 3.00609C84.6687 4.21862 86.0686 6.95956 87.1868 10.2731C88.0445 12.8228 88.1557 15.4645 87.5441 17.5981L74.6682 13.5014C73.687 10.3172 73.8301 7.12442 75.0832 4.89299ZM59.3266 21.0421L77.7912 26.9315L72.0982 43.2145H53.3342L59.3266 21.0421ZM90.4055 31.0969L85.169 43.2145H74.6682L79.9256 27.6888L90.4055 31.0969ZM87.1868 43.2145L92.6595 31.8542L110.157 37.5344L108.39 43.5931L87.1868 43.2145ZM114.382 36.3296L110.737 35.0662L60.2015 18.988V18.987L56.3304 17.5981L59.3266 10.7591L117.004 29.1347L114.382 36.3296Z" fill="white"/>
<path d="M59.3266 21.0421L77.7912 26.9315L72.0982 43.2145H53.3342L59.3266 21.0421Z" fill="#000816"/>
<path d="M90.4055 31.0969L85.169 43.2145H74.6682L79.9256 27.6888L90.4055 31.0969Z" fill="#000816"/>
<path d="M87.1868 43.2145L92.6595 31.8542L110.157 37.5344L108.39 43.5931L87.1868 43.2145Z" fill="#000816"/>
<path d="M114.382 36.3296L110.737 35.0662L60.2015 18.988V18.987L56.3304 17.5981L59.3266 10.7591L117.004 29.1347L114.382 36.3296Z" fill="#000816"/>
<path d="M96.0303 12.4816C99.0914 10.5061 102.994 9.34681 105.768 9.82223C106.753 9.98901 109.057 10.9738 109.888 12.0943C110.721 13.21 110.336 15.4846 110.157 16.4C109.678 18.8643 108.247 21.1281 105.393 23.0758L90.0378 18.1531C90.9645 16.1277 93.6641 14.0066 96.0303 12.4816Z" fill="#000816"/>
<path d="M75.0832 4.89299C75.5476 4.06867 76.3929 2.99992 77.7912 2.59543C79.1833 2.18326 81.2852 2.5738 82.1728 3.00609C84.6687 4.21862 86.0686 6.95956 87.1868 10.2731C88.0445 12.8228 88.1557 15.4645 87.5441 17.5981L74.6682 13.5014C73.687 10.3172 73.8301 7.12442 75.0832 4.89299Z" fill="#000816"/>
<path d="M38.7276 51.0977V65.8173H21.4555L17.0051 51.0977H38.7276Z" fill="#000816"/>
<path d="M61.3877 65.8173H41.1559V51.0977H61.3877V65.8173Z" fill="#000816"/>
<path d="M63.8209 65.8173V51.0977H84.4199V65.8173H63.8209Z" fill="#000816"/>
<path d="M107.641 65.8173H86.6782V51.0977H112.643L107.641 65.8173Z" fill="#000816"/>
<path d="M86.6782 68.207H106.945L103.146 79.943H86.6782V68.207Z" fill="#000816"/>
<path d="M84.4199 79.943H63.8209V68.207H84.4199V79.943Z" fill="#000816"/>
<path d="M61.3877 68.207V79.943H41.1559V68.207H61.3877Z" fill="#000816"/>
<path d="M38.7276 79.943H25.5628L22.2484 68.207H38.7276V79.943Z" fill="#000816"/>
<path d="M30.8626 97.6747L26.3682 82.2179H38.7276V97.6747H30.8626Z" fill="#000816"/>
<path d="M61.3877 97.6747H41.1559V82.2179H61.3877V97.6747Z" fill="#000816"/>
<path d="M63.8209 82.2179H84.4199V97.6747H63.8209V82.2179Z" fill="#000816"/>
<path d="M98.581 97.6747H86.8357L86.6782 82.2179H102.397L98.581 97.6747Z" fill="#000816"/>
<path d="M34.8682 8.0354L43.1543 20.1381" stroke="white" stroke-width="2"/>
<path d="M20.8799 10.5547L34.5373 19.9736" stroke="white" stroke-width="2"/>
<path d="M12.874 19.5027L29.3571 24.6831" stroke="white" stroke-width="2"/>
</svg>
