<svg width="111" height="160" viewBox="0 0 111 160" fill="none" xmlns="http://www.w3.org/2000/svg">
<g filter="url(#filter0_d_728_273)">
<path d="M49.8154 58.88C51.9221 58.88 53.4554 59.4467 54.4154 60.58C55.3754 61.7 55.8554 63.5067 55.8554 66C55.8554 68.48 55.3754 70.2867 54.4154 71.42C53.4554 72.5533 51.9221 73.12 49.8154 73.12C47.6954 73.12 46.1621 72.56 45.2154 71.44C44.2687 70.3067 43.7954 68.4933 43.7954 66C43.7954 63.5067 44.2687 61.7 45.2154 60.58C46.1621 59.4467 47.6954 58.88 49.8154 58.88ZM45.7554 61.08C44.9021 62.1067 44.4754 63.7467 44.4754 66C44.4754 68.2533 44.8954 69.8933 45.7354 70.92C46.5887 71.9333 47.9487 72.44 49.8154 72.44C51.6821 72.44 53.0421 71.9333 53.8954 70.92C54.7487 69.8933 55.1754 68.2533 55.1754 66C55.1754 63.7467 54.7487 62.1067 53.8954 61.08C53.0421 60.0533 51.6821 59.54 49.8154 59.54C47.9621 59.54 46.6087 60.0533 45.7554 61.08ZM58.313 62.32L63.373 59H63.853V73H63.173V59.9L58.693 62.88L58.313 62.32Z" fill="white"/>
<path d="M54.4154 60.58L53.6523 61.2264L53.6561 61.2308L54.4154 60.58ZM54.4154 71.42L55.1784 72.0663L54.4154 71.42ZM45.2154 71.44L44.4479 72.0811L44.4517 72.0855L45.2154 71.44ZM45.2154 60.58L45.9791 61.2255L45.9829 61.2211L45.2154 60.58ZM45.7554 61.08L46.5244 61.7192H46.5244L45.7554 61.08ZM45.7354 70.92L44.9614 71.5532L44.9659 71.5587L44.9705 71.5641L45.7354 70.92ZM53.8954 70.92L54.6603 71.5641L54.6644 71.5592L53.8954 70.92ZM53.8954 61.08L53.1264 61.7192L53.8954 61.08ZM49.8154 59.88C51.7557 59.88 52.9517 60.3992 53.6523 61.2263L55.1784 59.9337C53.9591 58.4941 52.0884 57.88 49.8154 57.88V59.88ZM53.6561 61.2308C54.3846 62.0806 54.8554 63.5939 54.8554 66H56.8554C56.8554 63.4195 56.3662 61.3194 55.1746 59.9292L53.6561 61.2308ZM54.8554 66C54.8554 68.3896 54.3858 69.9078 53.6523 70.7737L55.1784 72.0663C56.365 70.6656 56.8554 68.5704 56.8554 66H54.8554ZM53.6523 70.7737C52.9517 71.6008 51.7557 72.12 49.8154 72.12V74.12C52.0884 74.12 53.9591 73.5059 55.1784 72.0663L53.6523 70.7737ZM49.8154 72.12C47.8546 72.12 46.6631 71.6037 45.9791 70.7945L44.4517 72.0855C45.661 73.5163 47.5362 74.12 49.8154 74.12V72.12ZM45.9829 70.7989C45.2598 69.9333 44.7954 68.4069 44.7954 66H42.7954C42.7954 68.5797 43.2777 70.6801 44.4479 72.0811L45.9829 70.7989ZM44.7954 66C44.7954 63.5915 45.2604 62.0758 45.9791 61.2255L44.4517 59.9345C43.277 61.3242 42.7954 63.4218 42.7954 66H44.7954ZM45.9829 61.2211C46.6679 60.401 47.8581 59.88 49.8154 59.88V57.88C47.5327 57.88 45.6562 58.4924 44.4479 59.9389L45.9829 61.2211ZM44.9864 60.4408C43.911 61.7346 43.4754 63.6604 43.4754 66H45.4754C45.4754 63.833 45.8931 62.4787 46.5244 61.7192L44.9864 60.4408ZM43.4754 66C43.4754 68.3371 43.9034 70.2601 44.9614 71.5532L46.5093 70.2868C45.8874 69.5266 45.4754 68.1696 45.4754 66H43.4754ZM44.9705 71.5641C46.0821 72.8842 47.7794 73.44 49.8154 73.44V71.44C48.1181 71.44 47.0954 70.9825 46.5003 70.2759L44.9705 71.5641ZM49.8154 73.44C51.8514 73.44 53.5487 72.8842 54.6603 71.5641L53.1305 70.2759C52.5354 70.9825 51.5127 71.44 49.8154 71.44V73.44ZM54.6644 71.5592C55.7398 70.2654 56.1754 68.3396 56.1754 66H54.1754C54.1754 68.167 53.7576 69.5213 53.1264 70.2808L54.6644 71.5592ZM56.1754 66C56.1754 63.6604 55.7398 61.7346 54.6644 60.4408L53.1264 61.7192C53.7576 62.4787 54.1754 63.833 54.1754 66H56.1754ZM54.6644 60.4408C53.5541 59.1049 51.8554 58.54 49.8154 58.54V60.54C51.5087 60.54 52.5301 61.0018 53.1264 61.7192L54.6644 60.4408ZM49.8154 58.54C47.7859 58.54 46.0955 59.1064 44.9864 60.4408L46.5244 61.7192C47.122 61.0003 48.1382 60.54 49.8154 60.54V58.54ZM58.313 62.32L57.7645 61.4839L56.9153 62.0411L57.4856 62.8815L58.313 62.32ZM63.373 59V58H63.0743L62.8245 58.1639L63.373 59ZM63.853 59H64.853V58H63.853V59ZM63.853 73V74H64.853V73H63.853ZM63.173 73H62.173V74H63.173V73ZM63.173 59.9H64.173V58.0338L62.6192 59.0674L63.173 59.9ZM58.693 62.88L57.8656 63.4415L58.4219 64.2614L59.2469 63.7126L58.693 62.88ZM58.8616 63.1561L63.9216 59.8361L62.8245 58.1639L57.7645 61.4839L58.8616 63.1561ZM63.373 60H63.853V58H63.373V60ZM62.853 59V73H64.853V59H62.853ZM63.853 72H63.173V74H63.853V72ZM64.173 73V59.9H62.173V73H64.173ZM62.6192 59.0674L58.1392 62.0474L59.2469 63.7126L63.7269 60.7326L62.6192 59.0674ZM59.5205 62.3185L59.1405 61.7585L57.4856 62.8815L57.8656 63.4415L59.5205 62.3185Z" fill="white"/>
</g>
<g filter="url(#filter1_d_728_273)">
<path d="M54.9301 98.2996L55.4522 98.6192L55.9743 98.2996L89.9043 77.5293V117.737L55.4522 138.827L21.0002 117.737V77.5293L54.9301 98.2996Z" stroke="white" stroke-width="2"/>
</g>
<g filter="url(#filter2_d_728_273)">
<path d="M54.9301 42.555L55.4522 42.8746L55.9743 42.555L89.9043 21.7846V77.312L55.4522 98.402L21.0002 77.312V21.7846L54.9301 42.555Z" stroke="white" stroke-width="2"/>
</g>
<defs>
<filter id="filter0_d_728_273" x="28.7954" y="43.8799" width="50.0576" height="44.2402" filterUnits="userSpaceOnUse" color-interpolation-filters="sRGB">
<feFlood flood-opacity="0" result="BackgroundImageFix"/>
<feColorMatrix in="SourceAlpha" type="matrix" values="0 0 0 0 0 0 0 0 0 0 0 0 0 0 0 0 0 0 127 0" result="hardAlpha"/>
<feOffset/>
<feGaussianBlur stdDeviation="7.5"/>
<feComposite in2="hardAlpha" operator="out"/>
<feColorMatrix type="matrix" values="0 0 0 0 0.662745 0 0 0 0 0.803922 0 0 0 0 0.937255 0 0 0 0.8 0"/>
<feBlend mode="normal" in2="BackgroundImageFix" result="effect1_dropShadow_728_273"/>
<feBlend mode="normal" in="SourceGraphic" in2="effect1_dropShadow_728_273" result="shape"/>
</filter>
<filter id="filter1_d_728_273" x="0" y="55.7446" width="110.904" height="104.255" filterUnits="userSpaceOnUse" color-interpolation-filters="sRGB">
<feFlood flood-opacity="0" result="BackgroundImageFix"/>
<feColorMatrix in="SourceAlpha" type="matrix" values="0 0 0 0 0 0 0 0 0 0 0 0 0 0 0 0 0 0 127 0" result="hardAlpha"/>
<feOffset/>
<feGaussianBlur stdDeviation="10"/>
<feColorMatrix type="matrix" values="0 0 0 0 0.662745 0 0 0 0 0.803922 0 0 0 0 0.937255 0 0 0 0.9 0"/>
<feBlend mode="normal" in2="BackgroundImageFix" result="effect1_dropShadow_728_273"/>
<feBlend mode="normal" in="SourceGraphic" in2="effect1_dropShadow_728_273" result="shape"/>
</filter>
<filter id="filter2_d_728_273" x="0" y="0" width="110.904" height="119.574" filterUnits="userSpaceOnUse" color-interpolation-filters="sRGB">
<feFlood flood-opacity="0" result="BackgroundImageFix"/>
<feColorMatrix in="SourceAlpha" type="matrix" values="0 0 0 0 0 0 0 0 0 0 0 0 0 0 0 0 0 0 127 0" result="hardAlpha"/>
<feOffset/>
<feGaussianBlur stdDeviation="10"/>
<feColorMatrix type="matrix" values="0 0 0 0 0.662745 0 0 0 0 0.803922 0 0 0 0 0.937255 0 0 0 0.9 0"/>
<feBlend mode="normal" in2="BackgroundImageFix" result="effect1_dropShadow_728_273"/>
<feBlend mode="normal" in="SourceGraphic" in2="effect1_dropShadow_728_273" result="shape"/>
</filter>
</defs>
</svg>
