<svg width="111" height="160" viewBox="0 0 111 160" fill="none" xmlns="http://www.w3.org/2000/svg">
<g filter="url(#filter0_d_728_276)">
<path d="M49.4755 56.88C51.5822 56.88 53.1155 57.4467 54.0755 58.58C55.0355 59.7 55.5155 61.5067 55.5155 64C55.5155 66.48 55.0355 68.2867 54.0755 69.42C53.1155 70.5533 51.5822 71.12 49.4755 71.12C47.3555 71.12 45.8222 70.56 44.8755 69.44C43.9289 68.3067 43.4555 66.4933 43.4555 64C43.4555 61.5067 43.9289 59.7 44.8755 58.58C45.8222 57.4467 47.3555 56.88 49.4755 56.88ZM45.4155 59.08C44.5622 60.1067 44.1355 61.7467 44.1355 64C44.1355 66.2533 44.5555 67.8933 45.3955 68.92C46.2489 69.9333 47.6089 70.44 49.4755 70.44C51.3422 70.44 52.7022 69.9333 53.5555 68.92C54.4089 67.8933 54.8355 66.2533 54.8355 64C54.8355 61.7467 54.4089 60.1067 53.5555 59.08C52.7022 58.0533 51.3422 57.54 49.4755 57.54C47.6222 57.54 46.2689 58.0533 45.4155 59.08ZM63.5732 56.88C65.3332 56.88 66.6065 57.2 67.3932 57.84C68.1799 58.4667 68.5732 59.4867 68.5732 60.9C68.5732 61.82 68.4065 62.54 68.0732 63.06C67.7532 63.58 67.2465 63.9667 66.5532 64.22L61.0932 66.24C59.9732 66.6533 59.4132 67.4667 59.4132 68.68V70.34H68.9332V71H58.7332V68.66C58.7332 67.1533 59.4665 66.1267 60.9332 65.58L66.2132 63.62C66.7999 63.3933 67.2265 63.08 67.4932 62.68C67.7599 62.2667 67.8932 61.68 67.8932 60.92C67.8932 59.7333 67.5465 58.8733 66.8532 58.34C66.1732 57.8067 65.0732 57.54 63.5532 57.54C62.0065 57.54 60.8799 57.8067 60.1732 58.34C59.4665 58.8733 59.1132 59.72 59.1132 60.88H58.4332C58.4332 59.48 58.8399 58.4667 59.6532 57.84C60.4799 57.2 61.7865 56.88 63.5732 56.88Z" fill="white"/>
<path d="M54.0755 58.58L53.3125 59.2264L53.3163 59.2308L54.0755 58.58ZM54.0755 69.42L54.8386 70.0663L54.0755 69.42ZM44.8755 69.44L44.1081 70.0811L44.1118 70.0855L44.8755 69.44ZM44.8755 58.58L45.6393 59.2255L45.643 59.2211L44.8755 58.58ZM45.4155 59.08L46.1846 59.7192H46.1846L45.4155 59.08ZM45.3955 68.92L44.6216 69.5532L44.6261 69.5587L44.6306 69.5641L45.3955 68.92ZM53.5555 68.92L54.3205 69.5641L54.3246 69.5592L53.5555 68.92ZM53.5555 59.08L52.7865 59.7192L53.5555 59.08ZM49.4755 57.88C51.4158 57.88 52.6119 58.3992 53.3125 59.2263L54.8386 57.9337C53.6192 56.4941 51.7486 55.88 49.4755 55.88V57.88ZM53.3163 59.2308C54.0447 60.0806 54.5155 61.5939 54.5155 64H56.5155C56.5155 61.4195 56.0264 59.3194 54.8348 57.9292L53.3163 59.2308ZM54.5155 64C54.5155 66.3896 54.046 67.9078 53.3125 68.7737L54.8386 70.0663C56.0251 68.6656 56.5155 66.5704 56.5155 64H54.5155ZM53.3125 68.7737C52.6119 69.6008 51.4158 70.12 49.4755 70.12V72.12C51.7486 72.12 53.6192 71.5059 54.8386 70.0663L53.3125 68.7737ZM49.4755 70.12C47.5147 70.12 46.3232 69.6037 45.6393 68.7945L44.1118 70.0855C45.3212 71.5163 47.1963 72.12 49.4755 72.12V70.12ZM45.643 68.7989C44.9199 67.9333 44.4555 66.4069 44.4555 64H42.4555C42.4555 66.5797 42.9378 68.6801 44.1081 70.0811L45.643 68.7989ZM44.4555 64C44.4555 61.5915 44.9206 60.0758 45.6393 59.2255L44.1118 57.9345C42.9372 59.3242 42.4555 61.4218 42.4555 64H44.4555ZM45.643 59.2211C46.3281 58.401 47.5183 57.88 49.4755 57.88V55.88C47.1928 55.88 45.3164 56.4924 44.1081 57.9389L45.643 59.2211ZM44.6465 58.4408C43.5711 59.7346 43.1355 61.6604 43.1355 64H45.1355C45.1355 61.833 45.5533 60.4787 46.1846 59.7192L44.6465 58.4408ZM43.1355 64C43.1355 66.3371 43.5636 68.2601 44.6216 69.5532L46.1695 68.2868C45.5475 67.5266 45.1355 66.1696 45.1355 64H43.1355ZM44.6306 69.5641C45.7422 70.8842 47.4395 71.44 49.4755 71.44V69.44C47.7782 69.44 46.7555 68.9825 46.1605 68.2759L44.6306 69.5641ZM49.4755 71.44C51.5116 71.44 53.2088 70.8842 54.3205 69.5641L52.7906 68.2759C52.1956 68.9825 51.1729 69.44 49.4755 69.44V71.44ZM54.3246 69.5592C55.4 68.2654 55.8355 66.3396 55.8355 64H53.8355C53.8355 66.167 53.4178 67.5213 52.7865 68.2808L54.3246 69.5592ZM55.8355 64C55.8355 61.6604 55.4 59.7346 54.3246 58.4408L52.7865 59.7192C53.4178 60.4787 53.8355 61.833 53.8355 64H55.8355ZM54.3246 58.4408C53.2142 57.1049 51.5156 56.54 49.4755 56.54V58.54C51.1689 58.54 52.1902 59.0018 52.7865 59.7192L54.3246 58.4408ZM49.4755 56.54C47.4461 56.54 45.7556 57.1064 44.6465 58.4408L46.1846 59.7192C46.7821 59.0003 47.7983 58.54 49.4755 58.54V56.54ZM67.3932 57.84L66.7621 58.6158L66.7701 58.6222L67.3932 57.84ZM68.0732 63.06L67.2313 62.5203L67.2264 62.5281L67.2215 62.5359L68.0732 63.06ZM66.5532 64.22L66.21 63.2807L66.2062 63.2821L66.5532 64.22ZM61.0932 66.24L61.4394 67.1782L61.4402 67.1779L61.0932 66.24ZM59.4132 70.34H58.4132V71.34H59.4132V70.34ZM68.9332 70.34H69.9332V69.34H68.9332V70.34ZM68.9332 71V72H69.9332V71H68.9332ZM58.7332 71H57.7332V72H58.7332V71ZM60.9332 65.58L60.5852 64.6425L60.5839 64.643L60.9332 65.58ZM66.2132 63.62L66.5612 64.5576L66.5736 64.5528L66.2132 63.62ZM67.4932 62.68L68.3253 63.2347L68.3294 63.2284L68.3335 63.2221L67.4932 62.68ZM66.8532 58.34L66.236 59.1269L66.2435 59.1326L66.8532 58.34ZM60.1732 58.34L60.7756 59.1382V59.1382L60.1732 58.34ZM59.1132 60.88V61.88H60.1132V60.88H59.1132ZM58.4332 60.88H57.4332V61.88H58.4332V60.88ZM59.6532 57.84L60.2635 58.6321L60.2654 58.6307L59.6532 57.84ZM63.5732 57.88C65.256 57.88 66.2442 58.1943 66.7621 58.6157L68.0243 57.0643C66.9689 56.2057 65.4104 55.88 63.5732 55.88V57.88ZM66.7701 58.6222C67.2328 58.9907 67.5732 59.6613 67.5732 60.9H69.5732C69.5732 59.312 69.1269 57.9426 68.0163 57.0578L66.7701 58.6222ZM67.5732 60.9C67.5732 61.7164 67.4225 62.2221 67.2313 62.5203L68.9151 63.5997C69.3905 62.8579 69.5732 61.9236 69.5732 60.9H67.5732ZM67.2215 62.5359C67.0426 62.8266 66.7376 63.088 66.21 63.2807L66.8964 65.1593C67.7555 64.8454 68.4638 64.3334 68.9249 63.5841L67.2215 62.5359ZM66.2062 63.2821L60.7462 65.3021L61.4402 67.1779L66.9002 65.1579L66.2062 63.2821ZM60.747 65.3018C60.0346 65.5648 59.4293 65.9833 59.0096 66.5929C58.5907 67.2012 58.4132 67.9176 58.4132 68.68H60.4132C60.4132 68.229 60.5157 67.9322 60.6569 67.7271C60.7971 67.5233 61.0318 67.3286 61.4394 67.1782L60.747 65.3018ZM58.4132 68.68V70.34H60.4132V68.68H58.4132ZM59.4132 71.34H68.9332V69.34H59.4132V71.34ZM67.9332 70.34V71H69.9332V70.34H67.9332ZM68.9332 70H58.7332V72H68.9332V70ZM59.7332 71V68.66H57.7332V71H59.7332ZM59.7332 68.66C59.7332 68.0736 59.8735 67.6541 60.0969 67.3412C60.3225 67.0254 60.6908 66.7376 61.2825 66.517L60.5839 64.643C59.709 64.9691 58.9772 65.4679 58.4695 66.1788C57.9596 66.8926 57.7332 67.7397 57.7332 68.66H59.7332ZM61.2812 66.5175L66.5612 64.5575L65.8652 62.6825L60.5852 64.6425L61.2812 66.5175ZM66.5736 64.5528C67.2938 64.2745 67.9135 63.8523 68.3253 63.2347L66.6612 62.1253C66.5396 62.3077 66.3059 62.5121 65.8528 62.6872L66.5736 64.5528ZM68.3335 63.2221C68.7468 62.5815 68.8932 61.7754 68.8932 60.92H66.8932C66.8932 61.5846 66.7729 61.9518 66.6529 62.1379L68.3335 63.2221ZM68.8932 60.92C68.8932 59.5416 68.4833 58.3322 67.4629 57.5474L66.2435 59.1326C66.6098 59.4144 66.8932 59.925 66.8932 60.92H68.8932ZM67.4703 57.5531C66.5237 56.8107 65.1453 56.54 63.5532 56.54V58.54C65.0012 58.54 65.8227 58.8026 66.2361 59.1269L67.4703 57.5531ZM63.5532 56.54C61.934 56.54 60.539 56.8111 59.5708 57.5418L60.7756 59.1382C61.2207 58.8022 62.0791 58.54 63.5532 58.54V56.54ZM59.5708 57.5418C58.5397 58.32 58.1132 59.5124 58.1132 60.88H60.1132C60.1132 59.9276 60.3934 59.4267 60.7756 59.1382L59.5708 57.5418ZM59.1132 59.88H58.4332V61.88H59.1132V59.88ZM59.4332 60.88C59.4332 59.6695 59.7779 59.0063 60.2635 58.6321L59.0429 57.0479C57.9018 57.927 57.4332 59.2905 57.4332 60.88H59.4332ZM60.2654 58.6307C60.8305 58.1932 61.8662 57.88 63.5732 57.88V55.88C61.7069 55.88 60.1293 56.2068 59.041 57.0493L60.2654 58.6307Z" fill="white"/>
</g>
<g filter="url(#filter1_d_728_276)">
<path d="M54.9301 98.2996L55.4522 98.6192L55.9743 98.2996L89.9043 77.5293V117.737L55.4522 138.827L21.0002 117.737V77.5293L54.9301 98.2996Z" stroke="white" stroke-width="2"/>
</g>
<g filter="url(#filter2_d_728_276)">
<path d="M54.9301 42.555L55.4522 42.8746L55.9743 42.555L89.9043 21.7846V77.312L55.4522 98.402L21.0002 77.312V21.7846L54.9301 42.555Z" stroke="white" stroke-width="2"/>
</g>
<defs>
<filter id="filter0_d_728_276" x="28.4556" y="41.8799" width="55.4775" height="44.2402" filterUnits="userSpaceOnUse" color-interpolation-filters="sRGB">
<feFlood flood-opacity="0" result="BackgroundImageFix"/>
<feColorMatrix in="SourceAlpha" type="matrix" values="0 0 0 0 0 0 0 0 0 0 0 0 0 0 0 0 0 0 127 0" result="hardAlpha"/>
<feOffset/>
<feGaussianBlur stdDeviation="7.5"/>
<feComposite in2="hardAlpha" operator="out"/>
<feColorMatrix type="matrix" values="0 0 0 0 0.662745 0 0 0 0 0.803922 0 0 0 0 0.937255 0 0 0 0.8 0"/>
<feBlend mode="normal" in2="BackgroundImageFix" result="effect1_dropShadow_728_276"/>
<feBlend mode="normal" in="SourceGraphic" in2="effect1_dropShadow_728_276" result="shape"/>
</filter>
<filter id="filter1_d_728_276" x="0" y="55.7446" width="110.904" height="104.255" filterUnits="userSpaceOnUse" color-interpolation-filters="sRGB">
<feFlood flood-opacity="0" result="BackgroundImageFix"/>
<feColorMatrix in="SourceAlpha" type="matrix" values="0 0 0 0 0 0 0 0 0 0 0 0 0 0 0 0 0 0 127 0" result="hardAlpha"/>
<feOffset/>
<feGaussianBlur stdDeviation="10"/>
<feColorMatrix type="matrix" values="0 0 0 0 0.662745 0 0 0 0 0.803922 0 0 0 0 0.937255 0 0 0 0.9 0"/>
<feBlend mode="normal" in2="BackgroundImageFix" result="effect1_dropShadow_728_276"/>
<feBlend mode="normal" in="SourceGraphic" in2="effect1_dropShadow_728_276" result="shape"/>
</filter>
<filter id="filter2_d_728_276" x="0" y="0" width="110.904" height="119.574" filterUnits="userSpaceOnUse" color-interpolation-filters="sRGB">
<feFlood flood-opacity="0" result="BackgroundImageFix"/>
<feColorMatrix in="SourceAlpha" type="matrix" values="0 0 0 0 0 0 0 0 0 0 0 0 0 0 0 0 0 0 127 0" result="hardAlpha"/>
<feOffset/>
<feGaussianBlur stdDeviation="10"/>
<feColorMatrix type="matrix" values="0 0 0 0 0.662745 0 0 0 0 0.803922 0 0 0 0 0.937255 0 0 0 0.9 0"/>
<feBlend mode="normal" in2="BackgroundImageFix" result="effect1_dropShadow_728_276"/>
<feBlend mode="normal" in="SourceGraphic" in2="effect1_dropShadow_728_276" result="shape"/>
</filter>
</defs>
</svg>
