<svg width="111" height="160" viewBox="0 0 111 160" fill="none" xmlns="http://www.w3.org/2000/svg">
<g filter="url(#filter0_d_728_282)">
<path d="M47.7763 58.88C49.883 58.88 51.4163 59.4467 52.3763 60.58C53.3363 61.7 53.8163 63.5067 53.8163 66C53.8163 68.48 53.3363 70.2867 52.3763 71.42C51.4163 72.5533 49.883 73.12 47.7763 73.12C45.6563 73.12 44.123 72.56 43.1763 71.44C42.2297 70.3067 41.7563 68.4933 41.7563 66C41.7563 63.5067 42.2297 61.7 43.1763 60.58C44.123 59.4467 45.6563 58.88 47.7763 58.88ZM43.7163 61.08C42.863 62.1067 42.4363 63.7467 42.4363 66C42.4363 68.2533 42.8563 69.8933 43.6963 70.92C44.5497 71.9333 45.9097 72.44 47.7763 72.44C49.643 72.44 51.003 71.9333 51.8563 70.92C52.7097 69.8933 53.1363 68.2533 53.1363 66C53.1363 63.7467 52.7097 62.1067 51.8563 61.08C51.003 60.0533 49.643 59.54 47.7763 59.54C45.923 59.54 44.5697 60.0533 43.7163 61.08ZM56.454 68.84L65.174 59H66.294V68.84H69.354V69.5H66.294V73H65.594V69.5H56.454V68.84ZM57.334 68.84H65.594V59.48L57.334 68.84Z" fill="white"/>
<path d="M52.3763 60.58L51.6133 61.2264L51.6171 61.2308L52.3763 60.58ZM52.3763 71.42L53.1394 72.0663L52.3763 71.42ZM43.1763 71.44L42.4088 72.0811L42.4126 72.0855L43.1763 71.44ZM43.1763 60.58L43.9401 61.2255L43.9438 61.2211L43.1763 60.58ZM43.7163 61.08L44.4854 61.7192H44.4854L43.7163 61.08ZM43.6963 70.92L42.9224 71.5532L42.9269 71.5587L42.9314 71.5641L43.6963 70.92ZM51.8563 70.92L52.6213 71.5641L52.6254 71.5592L51.8563 70.92ZM51.8563 61.08L51.0873 61.7192L51.8563 61.08ZM47.7763 59.88C49.7166 59.88 50.9126 60.3992 51.6133 61.2263L53.1394 59.9337C51.92 58.4941 50.0494 57.88 47.7763 57.88V59.88ZM51.6171 61.2308C52.3455 62.0806 52.8163 63.5939 52.8163 66H54.8163C54.8163 63.4195 54.3272 61.3194 53.1356 59.9292L51.6171 61.2308ZM52.8163 66C52.8163 68.3896 52.3468 69.9078 51.6133 70.7737L53.1394 72.0663C54.3259 70.6656 54.8163 68.5704 54.8163 66H52.8163ZM51.6133 70.7737C50.9126 71.6008 49.7166 72.12 47.7763 72.12V74.12C50.0494 74.12 51.92 73.5059 53.1394 72.0663L51.6133 70.7737ZM47.7763 72.12C45.8155 72.12 44.624 71.6037 43.9401 70.7945L42.4126 72.0855C43.622 73.5163 45.4971 74.12 47.7763 74.12V72.12ZM43.9438 70.7989C43.2207 69.9333 42.7563 68.4069 42.7563 66H40.7563C40.7563 68.5797 41.2386 70.6801 42.4088 72.0811L43.9438 70.7989ZM42.7563 66C42.7563 63.5915 43.2214 62.0758 43.9401 61.2255L42.4126 59.9345C41.238 61.3242 40.7563 63.4218 40.7563 66H42.7563ZM43.9438 61.2211C44.6288 60.401 45.8191 59.88 47.7763 59.88V57.88C45.4936 57.88 43.6171 58.4924 42.4088 59.9389L43.9438 61.2211ZM42.9473 60.4408C41.8719 61.7346 41.4363 63.6604 41.4363 66H43.4363C43.4363 63.833 43.8541 62.4787 44.4854 61.7192L42.9473 60.4408ZM41.4363 66C41.4363 68.3371 41.8643 70.2601 42.9224 71.5532L44.4703 70.2868C43.8483 69.5266 43.4363 68.1696 43.4363 66H41.4363ZM42.9314 71.5641C44.043 72.8842 45.7403 73.44 47.7763 73.44V71.44C46.079 71.44 45.0563 70.9825 44.4612 70.2759L42.9314 71.5641ZM47.7763 73.44C49.8123 73.44 51.5096 72.8842 52.6212 71.5641L51.0914 70.2759C50.4964 70.9825 49.4736 71.44 47.7763 71.44V73.44ZM52.6254 71.5592C53.7007 70.2654 54.1363 68.3396 54.1363 66H52.1363C52.1363 68.167 51.7186 69.5213 51.0873 70.2808L52.6254 71.5592ZM54.1363 66C54.1363 63.6604 53.7007 61.7346 52.6254 60.4408L51.0873 61.7192C51.7186 62.4787 52.1363 63.833 52.1363 66H54.1363ZM52.6254 60.4408C51.515 59.1049 49.8163 58.54 47.7763 58.54V60.54C49.4696 60.54 50.491 61.0018 51.0873 61.7192L52.6254 60.4408ZM47.7763 58.54C45.7469 58.54 44.0564 59.1064 42.9473 60.4408L44.4854 61.7192C45.0829 61.0003 46.0991 60.54 47.7763 60.54V58.54ZM56.454 68.84L55.7056 68.1768L55.454 68.4607V68.84H56.454ZM65.174 59V58H64.724L64.4256 58.3368L65.174 59ZM66.294 59H67.294V58H66.294V59ZM66.294 68.84H65.294V69.84H66.294V68.84ZM69.354 68.84H70.354V67.84H69.354V68.84ZM69.354 69.5V70.5H70.354V69.5H69.354ZM66.294 69.5V68.5H65.294V69.5H66.294ZM66.294 73V74H67.294V73H66.294ZM65.594 73H64.594V74H65.594V73ZM65.594 69.5H66.594V68.5H65.594V69.5ZM56.454 69.5H55.454V70.5H56.454V69.5ZM57.334 68.84L56.5842 68.1783L55.1178 69.84H57.334V68.84ZM65.594 68.84V69.84H66.594V68.84H65.594ZM65.594 59.48H66.594V56.8355L64.8442 58.8183L65.594 59.48ZM57.2024 69.5032L65.9224 59.6632L64.4256 58.3368L55.7056 68.1768L57.2024 69.5032ZM65.174 60H66.294V58H65.174V60ZM65.294 59V68.84H67.294V59H65.294ZM66.294 69.84H69.354V67.84H66.294V69.84ZM68.354 68.84V69.5H70.354V68.84H68.354ZM69.354 68.5H66.294V70.5H69.354V68.5ZM65.294 69.5V73H67.294V69.5H65.294ZM66.294 72H65.594V74H66.294V72ZM66.594 73V69.5H64.594V73H66.594ZM65.594 68.5H56.454V70.5H65.594V68.5ZM57.454 69.5V68.84H55.454V69.5H57.454ZM57.334 69.84H65.594V67.84H57.334V69.84ZM66.594 68.84V59.48H64.594V68.84H66.594ZM64.8442 58.8183L56.5842 68.1783L58.0838 69.5017L66.3438 60.1417L64.8442 58.8183Z" fill="white"/>
</g>
<g filter="url(#filter1_d_728_282)">
<path d="M54.9301 98.2996L55.4522 98.6192L55.9743 98.2996L89.9043 77.5293V117.737L55.4522 138.827L21.0002 117.737V77.5293L54.9301 98.2996Z" stroke="white" stroke-width="2"/>
</g>
<g filter="url(#filter2_d_728_282)">
<path d="M54.9301 42.555L55.4522 42.8746L55.9743 42.555L89.9043 21.7846V77.312L55.4522 98.402L21.0002 77.312V21.7846L54.9301 42.555Z" stroke="white" stroke-width="2"/>
</g>
<defs>
<filter id="filter0_d_728_282" x="26.7563" y="43.8799" width="57.5977" height="44.2402" filterUnits="userSpaceOnUse" color-interpolation-filters="sRGB">
<feFlood flood-opacity="0" result="BackgroundImageFix"/>
<feColorMatrix in="SourceAlpha" type="matrix" values="0 0 0 0 0 0 0 0 0 0 0 0 0 0 0 0 0 0 127 0" result="hardAlpha"/>
<feOffset/>
<feGaussianBlur stdDeviation="7.5"/>
<feComposite in2="hardAlpha" operator="out"/>
<feColorMatrix type="matrix" values="0 0 0 0 0.662745 0 0 0 0 0.803922 0 0 0 0 0.937255 0 0 0 0.8 0"/>
<feBlend mode="normal" in2="BackgroundImageFix" result="effect1_dropShadow_728_282"/>
<feBlend mode="normal" in="SourceGraphic" in2="effect1_dropShadow_728_282" result="shape"/>
</filter>
<filter id="filter1_d_728_282" x="0" y="55.7446" width="110.904" height="104.255" filterUnits="userSpaceOnUse" color-interpolation-filters="sRGB">
<feFlood flood-opacity="0" result="BackgroundImageFix"/>
<feColorMatrix in="SourceAlpha" type="matrix" values="0 0 0 0 0 0 0 0 0 0 0 0 0 0 0 0 0 0 127 0" result="hardAlpha"/>
<feOffset/>
<feGaussianBlur stdDeviation="10"/>
<feColorMatrix type="matrix" values="0 0 0 0 0.662745 0 0 0 0 0.803922 0 0 0 0 0.937255 0 0 0 0.9 0"/>
<feBlend mode="normal" in2="BackgroundImageFix" result="effect1_dropShadow_728_282"/>
<feBlend mode="normal" in="SourceGraphic" in2="effect1_dropShadow_728_282" result="shape"/>
</filter>
<filter id="filter2_d_728_282" x="0" y="0" width="110.904" height="119.574" filterUnits="userSpaceOnUse" color-interpolation-filters="sRGB">
<feFlood flood-opacity="0" result="BackgroundImageFix"/>
<feColorMatrix in="SourceAlpha" type="matrix" values="0 0 0 0 0 0 0 0 0 0 0 0 0 0 0 0 0 0 127 0" result="hardAlpha"/>
<feOffset/>
<feGaussianBlur stdDeviation="10"/>
<feColorMatrix type="matrix" values="0 0 0 0 0.662745 0 0 0 0 0.803922 0 0 0 0 0.937255 0 0 0 0.9 0"/>
<feBlend mode="normal" in2="BackgroundImageFix" result="effect1_dropShadow_728_282"/>
<feBlend mode="normal" in="SourceGraphic" in2="effect1_dropShadow_728_282" result="shape"/>
</filter>
</defs>
</svg>
