<svg width="322" height="184" viewBox="0 0 322 184" fill="none" xmlns="http://www.w3.org/2000/svg">
<g filter="url(#filter0_d_636_827)">
<g filter="url(#filter1_d_636_827)">
<path d="M203.632 93.156L204.451 92L203.632 90.844L154.868 22H249.966L299.549 92L249.966 162H154.868L203.632 93.156Z" stroke="white" stroke-width="4"/>
</g>
<g filter="url(#filter2_d_636_827)">
<path d="M112.065 72.112C117.121 72.112 120.801 73.472 123.105 76.192C125.409 78.88 126.561 83.216 126.561 89.2C126.561 95.152 125.409 99.488 123.105 102.208C120.801 104.928 117.121 106.288 112.065 106.288C106.977 106.288 103.297 104.944 101.025 102.256C98.7528 99.536 97.6168 95.184 97.6168 89.2C97.6168 83.216 98.7528 78.88 101.025 76.192C103.297 73.472 106.977 72.112 112.065 72.112ZM102.321 77.392C100.273 79.856 99.2488 83.792 99.2488 89.2C99.2488 94.608 100.257 98.544 102.273 101.008C104.321 103.44 107.585 104.656 112.065 104.656C116.545 104.656 119.809 103.44 121.857 101.008C123.905 98.544 124.929 94.608 124.929 89.2C124.929 83.792 123.905 79.856 121.857 77.392C119.809 74.928 116.545 73.696 112.065 73.696C107.617 73.696 104.369 74.928 102.321 77.392ZM132.651 97.024H134.283C134.283 99.712 135.147 101.664 136.875 102.88C138.603 104.064 141.371 104.656 145.179 104.656C148.987 104.656 151.739 104.064 153.435 102.88C155.163 101.664 156.027 99.712 156.027 97.024C156.027 94.368 155.115 92.432 153.291 91.216C151.467 90 148.523 89.392 144.459 89.392H142.491V87.856H144.651C148.491 87.856 151.259 87.296 152.955 86.176C154.683 85.056 155.547 83.248 155.547 80.752C155.547 78.288 154.731 76.496 153.099 75.376C151.467 74.256 148.859 73.696 145.275 73.696C141.659 73.696 139.035 74.256 137.403 75.376C135.803 76.496 135.003 78.304 135.003 80.8H133.371C133.371 77.76 134.299 75.552 136.155 74.176C138.043 72.8 141.083 72.112 145.275 72.112C149.467 72.112 152.491 72.784 154.347 74.128C156.235 75.472 157.179 77.648 157.179 80.656C157.179 82.864 156.667 84.624 155.643 85.936C154.651 87.216 153.067 88.128 150.891 88.672C155.403 89.728 157.659 92.544 157.659 97.12C157.659 100.32 156.667 102.656 154.683 104.128C152.731 105.568 149.563 106.288 145.179 106.288C140.795 106.288 137.611 105.552 135.627 104.08C133.643 102.608 132.651 100.256 132.651 97.024Z" fill="white"/>
<path d="M123.105 76.192L122.342 76.8384L122.345 76.8428L123.105 76.192ZM123.105 102.208L123.868 102.854L123.105 102.208ZM101.025 102.256L100.257 102.897L100.261 102.902L101.025 102.256ZM101.025 76.192L101.788 76.8375L101.792 76.8331L101.025 76.192ZM102.321 77.392L103.09 78.0312L102.321 77.392ZM102.273 101.008L101.499 101.641L101.503 101.647L101.508 101.652L102.273 101.008ZM121.857 101.008L122.622 101.652L122.626 101.647L121.857 101.008ZM121.857 77.392L121.088 78.0312L121.857 77.392ZM112.065 73.112C116.954 73.112 120.297 74.4245 122.342 76.8383L123.868 75.5457C121.304 72.5195 117.287 71.112 112.065 71.112V73.112ZM122.345 76.8428C124.418 79.2606 125.561 83.3032 125.561 89.2H127.561C127.561 83.1288 126.4 78.4994 123.864 75.5412L122.345 76.8428ZM125.561 89.2C125.561 95.0616 124.419 99.1091 122.342 101.562L123.868 102.854C126.398 99.8669 127.561 95.2424 127.561 89.2H125.561ZM122.342 101.562C120.297 103.975 116.954 105.288 112.065 105.288V107.288C117.287 107.288 121.304 105.881 123.868 102.854L122.342 101.562ZM112.065 105.288C107.136 105.288 103.798 103.988 101.788 101.61L100.261 102.902C102.796 105.9 106.818 107.288 112.065 107.288V105.288ZM101.792 101.615C99.7438 99.1626 98.6168 95.0976 98.6168 89.2H96.6168C96.6168 95.2704 97.7617 99.9094 100.257 102.897L101.792 101.615ZM98.6168 89.2C98.6168 83.3008 99.7444 79.2558 101.788 76.8375L100.261 75.5465C97.7611 78.5042 96.6168 83.1312 96.6168 89.2H98.6168ZM101.792 76.8331C103.803 74.4263 107.139 73.112 112.065 73.112V71.112C106.814 71.112 102.791 72.5177 100.257 75.5509L101.792 76.8331ZM101.552 76.7528C99.2817 79.4839 98.2488 83.7057 98.2488 89.2H100.249C100.249 83.8783 101.264 80.2281 103.09 78.0312L101.552 76.7528ZM98.2488 89.2C98.2488 94.6917 99.2648 98.9108 101.499 101.641L103.047 100.375C101.249 98.1772 100.249 94.5243 100.249 89.2H98.2488ZM101.508 101.652C103.814 104.391 107.415 105.656 112.065 105.656V103.656C107.754 103.656 104.827 102.489 103.038 100.364L101.508 101.652ZM112.065 105.656C116.714 105.656 120.315 104.391 122.622 101.652L121.092 100.364C119.302 102.489 116.375 103.656 112.065 103.656V105.656ZM122.626 101.647C124.896 98.9161 125.929 94.6943 125.929 89.2H123.929C123.929 94.5217 122.914 98.1719 121.088 100.369L122.626 101.647ZM125.929 89.2C125.929 83.7057 124.896 79.4839 122.626 76.7528L121.088 78.0312C122.914 80.2281 123.929 83.8783 123.929 89.2H125.929ZM122.626 76.7528C120.321 73.9795 116.718 72.696 112.065 72.696V74.696C116.371 74.696 119.297 75.8765 121.088 78.0312L122.626 76.7528ZM112.065 72.696C107.441 72.696 103.855 73.9811 101.552 76.7528L103.09 78.0312C104.882 75.8749 107.793 74.696 112.065 74.696V72.696ZM132.651 97.024V96.024H131.651V97.024H132.651ZM134.283 97.024H135.283V96.024H134.283V97.024ZM136.875 102.88L136.3 103.698L136.31 103.705L136.875 102.88ZM153.435 102.88L154.008 103.7L154.011 103.698L153.435 102.88ZM153.291 91.216L153.846 90.3839L153.291 91.216ZM142.491 89.392H141.491V90.392H142.491V89.392ZM142.491 87.856V86.856H141.491V87.856H142.491ZM152.955 86.176L152.411 85.3368L152.404 85.3415L152.955 86.176ZM153.099 75.376L152.533 76.2005V76.2005L153.099 75.376ZM137.403 75.376L136.837 74.5515L136.83 74.5568L137.403 75.376ZM135.003 80.8V81.8H136.003V80.8H135.003ZM133.371 80.8H132.371V81.8H133.371V80.8ZM136.155 74.176L135.566 73.3678L135.56 73.3727L136.155 74.176ZM154.347 74.128L153.761 74.938L153.767 74.9427L154.347 74.128ZM155.643 85.936L154.855 85.3207L154.853 85.3234L155.643 85.936ZM150.891 88.672L150.649 87.7019L150.663 89.6457L150.891 88.672ZM154.683 104.128L155.277 104.933L155.279 104.931L154.683 104.128ZM135.627 104.08L136.223 103.277L135.627 104.08ZM132.651 98.024H134.283V96.024H132.651V98.024ZM133.283 97.024C133.283 99.9386 134.234 102.244 136.3 103.698L137.451 102.062C136.06 101.084 135.283 99.4854 135.283 97.024H133.283ZM136.31 103.705C138.292 105.063 141.312 105.656 145.179 105.656V103.656C141.43 103.656 138.914 103.065 137.44 102.055L136.31 103.705ZM145.179 105.656C149.043 105.656 152.053 105.064 154.008 103.7L152.863 102.06C151.425 103.064 148.931 103.656 145.179 103.656V105.656ZM154.011 103.698C156.076 102.244 157.027 99.9386 157.027 97.024H155.027C155.027 99.4854 154.25 101.084 152.86 102.062L154.011 103.698ZM157.027 97.024C157.027 94.1147 156.009 91.8263 153.846 90.3839L152.736 92.048C154.221 93.0377 155.027 94.6213 155.027 97.024H157.027ZM153.846 90.3839C151.769 88.9991 148.576 88.392 144.459 88.392V90.392C148.47 90.392 151.166 91.0009 152.736 92.048L153.846 90.3839ZM144.459 88.392H142.491V90.392H144.459V88.392ZM143.491 89.392V87.856H141.491V89.392H143.491ZM142.491 88.856H144.651V86.856H142.491V88.856ZM144.651 88.856C148.539 88.856 151.556 88.2982 153.506 87.0105L152.404 85.3415C150.962 86.2938 148.443 86.856 144.651 86.856V88.856ZM153.499 87.0152C155.575 85.6699 156.547 83.5042 156.547 80.752H154.547C154.547 82.9918 153.792 84.4421 152.411 85.3368L153.499 87.0152ZM156.547 80.752C156.547 78.0495 155.636 75.9042 153.665 74.5515L152.533 76.2005C153.826 77.0878 154.547 78.5265 154.547 80.752H156.547ZM153.665 74.5515C151.779 73.2569 148.919 72.696 145.275 72.696V74.696C148.799 74.696 151.156 75.2551 152.533 76.2005L153.665 74.5515ZM145.275 72.696C141.602 72.696 138.725 73.2562 136.837 74.5515L137.969 76.2005C139.346 75.2558 141.717 74.696 145.275 74.696V72.696ZM136.83 74.5568C134.889 75.9152 134.003 78.0788 134.003 80.8H136.003C136.003 78.5292 136.717 77.0768 137.977 76.1952L136.83 74.5568ZM135.003 79.8H133.371V81.8H135.003V79.8ZM134.371 80.8C134.371 77.9675 135.226 76.1099 136.751 74.9793L135.56 73.3727C133.373 74.994 132.371 77.5525 132.371 80.8H134.371ZM136.744 74.9841C138.371 73.7982 141.147 73.112 145.275 73.112V71.112C141.019 71.112 137.715 71.8018 135.566 73.3679L136.744 74.9841ZM145.275 73.112C149.408 73.112 152.167 73.7838 153.761 74.9379L154.934 73.3181C152.815 71.7841 149.526 71.112 145.275 71.112V73.112ZM153.767 74.9427C155.315 76.0448 156.179 77.865 156.179 80.656H158.179C158.179 77.431 157.155 74.8992 154.927 73.3133L153.767 74.9427ZM156.179 80.656C156.179 82.7139 155.703 84.2344 154.855 85.3207L156.431 86.5513C157.632 85.0136 158.179 83.0141 158.179 80.656H156.179ZM154.853 85.3234C154.042 86.369 152.69 87.1916 150.649 87.7019L151.134 89.6421C153.445 89.0644 155.26 88.063 156.434 86.5486L154.853 85.3234ZM150.663 89.6457C152.764 90.1373 154.234 91.0123 155.187 92.2012C156.138 93.3888 156.659 94.9972 156.659 97.12H158.659C158.659 94.6668 158.052 92.5792 156.748 90.9508C155.444 89.3237 153.53 88.2627 151.119 87.6983L150.663 89.6457ZM156.659 97.12C156.659 100.106 155.745 102.095 154.087 103.325L155.279 104.931C157.59 103.217 158.659 100.534 158.659 97.12H156.659ZM154.089 103.323C152.401 104.569 149.501 105.288 145.179 105.288V107.288C149.626 107.288 153.062 106.567 155.277 104.933L154.089 103.323ZM145.179 105.288C140.863 105.288 137.945 104.555 136.223 103.277L135.031 104.883C137.277 106.549 140.727 107.288 145.179 107.288V105.288ZM136.223 103.277C134.568 102.049 133.651 100.046 133.651 97.024H131.651C131.651 100.466 132.718 103.167 135.031 104.883L136.223 103.277Z" fill="white"/>
</g>
<g filter="url(#filter3_d_636_827)">
<path d="M72.632 93.156L73.4509 92L72.632 90.844L23.8676 22H154.966L204.549 92L154.966 162H23.8676L72.632 93.156Z" stroke="white" stroke-width="4"/>
</g>
</g>
<defs>
<filter id="filter0_d_636_827" x="16" y="20" width="290" height="152" filterUnits="userSpaceOnUse" color-interpolation-filters="sRGB">
<feFlood flood-opacity="0" result="BackgroundImageFix"/>
<feColorMatrix in="SourceAlpha" type="matrix" values="0 0 0 0 0 0 0 0 0 0 0 0 0 0 0 0 0 0 127 0" result="hardAlpha"/>
<feOffset dy="4"/>
<feGaussianBlur stdDeviation="2"/>
<feComposite in2="hardAlpha" operator="out"/>
<feColorMatrix type="matrix" values="0 0 0 0 0 0 0 0 0 0 0 0 0 0 0 0 0 0 0.25 0"/>
<feBlend mode="normal" in2="BackgroundImageFix" result="effect1_dropShadow_636_827"/>
<feBlend mode="normal" in="SourceGraphic" in2="effect1_dropShadow_636_827" result="shape"/>
</filter>
<filter id="filter1_d_636_827" x="131" y="0" width="191" height="184" filterUnits="userSpaceOnUse" color-interpolation-filters="sRGB">
<feFlood flood-opacity="0" result="BackgroundImageFix"/>
<feColorMatrix in="SourceAlpha" type="matrix" values="0 0 0 0 0 0 0 0 0 0 0 0 0 0 0 0 0 0 127 0" result="hardAlpha"/>
<feOffset/>
<feGaussianBlur stdDeviation="10"/>
<feColorMatrix type="matrix" values="0 0 0 0 0.662745 0 0 0 0 0.803922 0 0 0 0 0.937255 0 0 0 0.9 0"/>
<feBlend mode="normal" in2="BackgroundImageFix" result="effect1_dropShadow_636_827"/>
<feBlend mode="normal" in="SourceGraphic" in2="effect1_dropShadow_636_827" result="shape"/>
</filter>
<filter id="filter2_d_636_827" x="82.6167" y="57.1118" width="90.0425" height="64.1763" filterUnits="userSpaceOnUse" color-interpolation-filters="sRGB">
<feFlood flood-opacity="0" result="BackgroundImageFix"/>
<feColorMatrix in="SourceAlpha" type="matrix" values="0 0 0 0 0 0 0 0 0 0 0 0 0 0 0 0 0 0 127 0" result="hardAlpha"/>
<feOffset/>
<feGaussianBlur stdDeviation="7.5"/>
<feComposite in2="hardAlpha" operator="out"/>
<feColorMatrix type="matrix" values="0 0 0 0 0.662745 0 0 0 0 0.803922 0 0 0 0 0.937255 0 0 0 0.8 0"/>
<feBlend mode="normal" in2="BackgroundImageFix" result="effect1_dropShadow_636_827"/>
<feBlend mode="normal" in="SourceGraphic" in2="effect1_dropShadow_636_827" result="shape"/>
</filter>
<filter id="filter3_d_636_827" x="0" y="0" width="227" height="184" filterUnits="userSpaceOnUse" color-interpolation-filters="sRGB">
<feFlood flood-opacity="0" result="BackgroundImageFix"/>
<feColorMatrix in="SourceAlpha" type="matrix" values="0 0 0 0 0 0 0 0 0 0 0 0 0 0 0 0 0 0 127 0" result="hardAlpha"/>
<feOffset/>
<feGaussianBlur stdDeviation="10"/>
<feColorMatrix type="matrix" values="0 0 0 0 0.662745 0 0 0 0 0.803922 0 0 0 0 0.937255 0 0 0 0.9 0"/>
<feBlend mode="normal" in2="BackgroundImageFix" result="effect1_dropShadow_636_827"/>
<feBlend mode="normal" in="SourceGraphic" in2="effect1_dropShadow_636_827" result="shape"/>
</filter>
</defs>
</svg>
