<svg width="322" height="184" viewBox="0 0 322 184" fill="none" xmlns="http://www.w3.org/2000/svg">
<g filter="url(#filter0_d_636_830)">
<path d="M203.632 93.156L204.451 92L203.632 90.844L154.868 22H249.966L299.549 92L249.966 162H154.868L203.632 93.156Z" stroke="white" stroke-width="4"/>
</g>
<g filter="url(#filter1_d_636_830)">
<path d="M112.893 72.112C117.949 72.112 121.629 73.472 123.933 76.192C126.237 78.88 127.389 83.216 127.389 89.2C127.389 95.152 126.237 99.488 123.933 102.208C121.629 104.928 117.949 106.288 112.893 106.288C107.805 106.288 104.125 104.944 101.853 102.256C99.5809 99.536 98.4449 95.184 98.4449 89.2C98.4449 83.216 99.5809 78.88 101.853 76.192C104.125 73.472 107.805 72.112 112.893 72.112ZM103.149 77.392C101.101 79.856 100.077 83.792 100.077 89.2C100.077 94.608 101.085 98.544 103.101 101.008C105.149 103.44 108.413 104.656 112.893 104.656C117.373 104.656 120.637 103.44 122.685 101.008C124.733 98.544 125.757 94.608 125.757 89.2C125.757 83.792 124.733 79.856 122.685 77.392C120.637 74.928 117.373 73.696 112.893 73.696C108.445 73.696 105.197 74.928 103.149 77.392ZM133.719 96.016L154.647 72.4H157.335V96.016H164.679V97.6H157.335V106H155.655V97.6H133.719V96.016ZM135.831 96.016H155.655V73.552L135.831 96.016Z" fill="white"/>
<path d="M123.933 76.192L123.17 76.8384L123.174 76.8428L123.933 76.192ZM123.933 102.208L124.696 102.854L123.933 102.208ZM101.853 102.256L101.085 102.897L101.089 102.902L101.853 102.256ZM101.853 76.192L102.617 76.8375L102.62 76.8331L101.853 76.192ZM103.149 77.392L103.918 78.0312L103.149 77.392ZM103.101 101.008L102.327 101.641L102.331 101.647L102.336 101.652L103.101 101.008ZM122.685 101.008L123.45 101.652L123.454 101.647L122.685 101.008ZM122.685 77.392L121.916 78.0312L122.685 77.392ZM112.893 73.112C117.783 73.112 121.125 74.4245 123.17 76.8383L124.696 75.5457C122.133 72.5195 118.115 71.112 112.893 71.112V73.112ZM123.174 76.8428C125.246 79.2606 126.389 83.3032 126.389 89.2H128.389C128.389 83.1288 127.228 78.4994 124.692 75.5412L123.174 76.8428ZM126.389 89.2C126.389 95.0616 125.247 99.1091 123.17 101.562L124.696 102.854C127.226 99.8669 128.389 95.2424 128.389 89.2H126.389ZM123.17 101.562C121.125 103.975 117.783 105.288 112.893 105.288V107.288C118.115 107.288 122.133 105.881 124.696 102.854L123.17 101.562ZM112.893 105.288C107.964 105.288 104.626 103.988 102.617 101.61L101.089 102.902C103.624 105.9 107.646 107.288 112.893 107.288V105.288ZM102.62 101.615C100.572 99.1626 99.4449 95.0976 99.4449 89.2H97.4449C97.4449 95.2704 98.5898 99.9094 101.085 102.897L102.62 101.615ZM99.4449 89.2C99.4449 83.3008 100.573 79.2558 102.617 76.8375L101.089 75.5465C98.5892 78.5042 97.4449 83.1312 97.4449 89.2H99.4449ZM102.62 76.8331C104.631 74.4263 107.968 73.112 112.893 73.112V71.112C107.642 71.112 103.619 72.5177 101.085 75.5509L102.62 76.8331ZM102.38 76.7528C100.11 79.4839 99.0769 83.7057 99.0769 89.2H101.077C101.077 83.8783 102.092 80.2281 103.918 78.0312L102.38 76.7528ZM99.0769 89.2C99.0769 94.6917 100.093 98.9108 102.327 101.641L103.875 100.375C102.077 98.1772 101.077 94.5243 101.077 89.2H99.0769ZM102.336 101.652C104.642 104.391 108.244 105.656 112.893 105.656V103.656C108.582 103.656 105.656 102.489 103.866 100.364L102.336 101.652ZM112.893 105.656C117.542 105.656 121.144 104.391 123.45 101.652L121.92 100.364C120.13 102.489 117.204 103.656 112.893 103.656V105.656ZM123.454 101.647C125.724 98.9161 126.757 94.6943 126.757 89.2H124.757C124.757 94.5217 123.742 98.1719 121.916 100.369L123.454 101.647ZM126.757 89.2C126.757 83.7057 125.724 79.4839 123.454 76.7528L121.916 78.0312C123.742 80.2281 124.757 83.8783 124.757 89.2H126.757ZM123.454 76.7528C121.149 73.9795 117.546 72.696 112.893 72.696V74.696C117.2 74.696 120.125 75.8765 121.916 78.0312L123.454 76.7528ZM112.893 72.696C108.269 72.696 104.684 73.9811 102.38 76.7528L103.918 78.0312C105.71 75.8749 108.621 74.696 112.893 74.696V72.696ZM133.719 96.016L132.971 95.3528L132.719 95.6367V96.016H133.719ZM154.647 72.4V71.4H154.197L153.899 71.7368L154.647 72.4ZM157.335 72.4H158.335V71.4H157.335V72.4ZM157.335 96.016H156.335V97.016H157.335V96.016ZM164.679 96.016H165.679V95.016H164.679V96.016ZM164.679 97.6V98.6H165.679V97.6H164.679ZM157.335 97.6V96.6H156.335V97.6H157.335ZM157.335 106V107H158.335V106H157.335ZM155.655 106H154.655V107H155.655V106ZM155.655 97.6H156.655V96.6H155.655V97.6ZM133.719 97.6H132.719V98.6H133.719V97.6ZM135.831 96.016L135.081 95.3543L133.615 97.016H135.831V96.016ZM155.655 96.016V97.016H156.655V96.016H155.655ZM155.655 73.552H156.655V70.9075L154.905 72.8903L155.655 73.552ZM134.468 96.6792L155.396 73.0632L153.899 71.7368L132.971 95.3528L134.468 96.6792ZM154.647 73.4H157.335V71.4H154.647V73.4ZM156.335 72.4V96.016H158.335V72.4H156.335ZM157.335 97.016H164.679V95.016H157.335V97.016ZM163.679 96.016V97.6H165.679V96.016H163.679ZM164.679 96.6H157.335V98.6H164.679V96.6ZM156.335 97.6V106H158.335V97.6H156.335ZM157.335 105H155.655V107H157.335V105ZM156.655 106V97.6H154.655V106H156.655ZM155.655 96.6H133.719V98.6H155.655V96.6ZM134.719 97.6V96.016H132.719V97.6H134.719ZM135.831 97.016H155.655V95.016H135.831V97.016ZM156.655 96.016V73.552H154.655V96.016H156.655ZM154.905 72.8903L135.081 95.3543L136.581 96.6777L156.405 74.2137L154.905 72.8903Z" fill="white"/>
</g>
<g filter="url(#filter2_d_636_830)">
<path d="M72.632 93.156L73.4509 92L72.632 90.844L23.8676 22H154.966L204.549 92L154.966 162H23.8676L72.632 93.156Z" stroke="white" stroke-width="4"/>
</g>
<defs>
<filter id="filter0_d_636_830" x="131" y="0" width="191" height="184" filterUnits="userSpaceOnUse" color-interpolation-filters="sRGB">
<feFlood flood-opacity="0" result="BackgroundImageFix"/>
<feColorMatrix in="SourceAlpha" type="matrix" values="0 0 0 0 0 0 0 0 0 0 0 0 0 0 0 0 0 0 127 0" result="hardAlpha"/>
<feOffset/>
<feGaussianBlur stdDeviation="10"/>
<feColorMatrix type="matrix" values="0 0 0 0 0.662745 0 0 0 0 0.803922 0 0 0 0 0.937255 0 0 0 0.9 0"/>
<feBlend mode="normal" in2="BackgroundImageFix" result="effect1_dropShadow_636_830"/>
<feBlend mode="normal" in="SourceGraphic" in2="effect1_dropShadow_636_830" result="shape"/>
</filter>
<filter id="filter1_d_636_830" x="83.4448" y="57.1118" width="96.2344" height="64.1763" filterUnits="userSpaceOnUse" color-interpolation-filters="sRGB">
<feFlood flood-opacity="0" result="BackgroundImageFix"/>
<feColorMatrix in="SourceAlpha" type="matrix" values="0 0 0 0 0 0 0 0 0 0 0 0 0 0 0 0 0 0 127 0" result="hardAlpha"/>
<feOffset/>
<feGaussianBlur stdDeviation="7.5"/>
<feComposite in2="hardAlpha" operator="out"/>
<feColorMatrix type="matrix" values="0 0 0 0 0.662745 0 0 0 0 0.803922 0 0 0 0 0.937255 0 0 0 0.8 0"/>
<feBlend mode="normal" in2="BackgroundImageFix" result="effect1_dropShadow_636_830"/>
<feBlend mode="normal" in="SourceGraphic" in2="effect1_dropShadow_636_830" result="shape"/>
</filter>
<filter id="filter2_d_636_830" x="0" y="0" width="227" height="184" filterUnits="userSpaceOnUse" color-interpolation-filters="sRGB">
<feFlood flood-opacity="0" result="BackgroundImageFix"/>
<feColorMatrix in="SourceAlpha" type="matrix" values="0 0 0 0 0 0 0 0 0 0 0 0 0 0 0 0 0 0 127 0" result="hardAlpha"/>
<feOffset/>
<feGaussianBlur stdDeviation="10"/>
<feColorMatrix type="matrix" values="0 0 0 0 0.662745 0 0 0 0 0.803922 0 0 0 0 0.937255 0 0 0 0.9 0"/>
<feBlend mode="normal" in2="BackgroundImageFix" result="effect1_dropShadow_636_830"/>
<feBlend mode="normal" in="SourceGraphic" in2="effect1_dropShadow_636_830" result="shape"/>
</filter>
</defs>
</svg>
