<svg width="71" height="120" viewBox="0 0 71 120" fill="none" xmlns="http://www.w3.org/2000/svg">
<path d="M27.7763 38.88C29.883 38.88 31.4163 39.4467 32.3763 40.58C33.3363 41.7 33.8163 43.5067 33.8163 46C33.8163 48.48 33.3363 50.2867 32.3763 51.42C31.4163 52.5533 29.883 53.12 27.7763 53.12C25.6563 53.12 24.123 52.56 23.1763 51.44C22.2297 50.3067 21.7563 48.4933 21.7563 46C21.7563 43.5067 22.2297 41.7 23.1763 40.58C24.123 39.4467 25.6563 38.88 27.7763 38.88ZM23.7163 41.08C22.863 42.1067 22.4363 43.7467 22.4363 46C22.4363 48.2533 22.8563 49.8933 23.6963 50.92C24.5497 51.9333 25.9097 52.44 27.7763 52.44C29.643 52.44 31.003 51.9333 31.8563 50.92C32.7097 49.8933 33.1363 48.2533 33.1363 46C33.1363 43.7467 32.7097 42.1067 31.8563 41.08C31.003 40.0533 29.643 39.54 27.7763 39.54C25.923 39.54 24.5697 40.0533 23.7163 41.08ZM36.454 48.84L45.174 39H46.294V48.84H49.354V49.5H46.294V53H45.594V49.5H36.454V48.84ZM37.334 48.84H45.594V39.48L37.334 48.84Z" fill="white"/>
<path d="M32.3763 40.58L31.6133 41.2264L31.6171 41.2308L32.3763 40.58ZM32.3763 51.42L33.1394 52.0663L32.3763 51.42ZM23.1763 51.44L22.4088 52.0811L22.4126 52.0855L23.1763 51.44ZM23.1763 40.58L23.9401 41.2255L23.9438 41.2211L23.1763 40.58ZM23.7163 41.08L24.4854 41.7192H24.4854L23.7163 41.08ZM23.6963 50.92L22.9224 51.5532L22.9269 51.5587L22.9314 51.5641L23.6963 50.92ZM31.8563 50.92L32.6213 51.5641L32.6254 51.5592L31.8563 50.92ZM31.8563 41.08L31.0873 41.7192L31.8563 41.08ZM27.7763 39.88C29.7166 39.88 30.9126 40.3992 31.6133 41.2263L33.1394 39.9337C31.92 38.4941 30.0494 37.88 27.7763 37.88V39.88ZM31.6171 41.2308C32.3455 42.0806 32.8163 43.5939 32.8163 46H34.8163C34.8163 43.4195 34.3272 41.3194 33.1356 39.9292L31.6171 41.2308ZM32.8163 46C32.8163 48.3896 32.3468 49.9078 31.6133 50.7737L33.1394 52.0663C34.3259 50.6656 34.8163 48.5704 34.8163 46H32.8163ZM31.6133 50.7737C30.9126 51.6008 29.7166 52.12 27.7763 52.12V54.12C30.0494 54.12 31.92 53.5059 33.1394 52.0663L31.6133 50.7737ZM27.7763 52.12C25.8155 52.12 24.624 51.6037 23.9401 50.7945L22.4126 52.0855C23.622 53.5163 25.4971 54.12 27.7763 54.12V52.12ZM23.9438 50.7989C23.2207 49.9333 22.7563 48.4069 22.7563 46H20.7563C20.7563 48.5797 21.2386 50.6801 22.4088 52.0811L23.9438 50.7989ZM22.7563 46C22.7563 43.5915 23.2214 42.0758 23.9401 41.2255L22.4126 39.9345C21.238 41.3242 20.7563 43.4218 20.7563 46H22.7563ZM23.9438 41.2211C24.6288 40.401 25.8191 39.88 27.7763 39.88V37.88C25.4936 37.88 23.6171 38.4924 22.4088 39.9389L23.9438 41.2211ZM22.9473 40.4408C21.8719 41.7346 21.4363 43.6604 21.4363 46H23.4363C23.4363 43.833 23.8541 42.4787 24.4854 41.7192L22.9473 40.4408ZM21.4363 46C21.4363 48.3371 21.8643 50.2601 22.9224 51.5532L24.4703 50.2868C23.8483 49.5266 23.4363 48.1696 23.4363 46H21.4363ZM22.9314 51.5641C24.043 52.8842 25.7403 53.44 27.7763 53.44V51.44C26.079 51.44 25.0563 50.9825 24.4612 50.2759L22.9314 51.5641ZM27.7763 53.44C29.8123 53.44 31.5096 52.8842 32.6212 51.5641L31.0914 50.2759C30.4964 50.9825 29.4736 51.44 27.7763 51.44V53.44ZM32.6254 51.5592C33.7007 50.2654 34.1363 48.3396 34.1363 46H32.1363C32.1363 48.167 31.7186 49.5213 31.0873 50.2808L32.6254 51.5592ZM34.1363 46C34.1363 43.6604 33.7007 41.7346 32.6254 40.4408L31.0873 41.7192C31.7186 42.4787 32.1363 43.833 32.1363 46H34.1363ZM32.6254 40.4408C31.515 39.1049 29.8163 38.54 27.7763 38.54V40.54C29.4696 40.54 30.491 41.0018 31.0873 41.7192L32.6254 40.4408ZM27.7763 38.54C25.7469 38.54 24.0564 39.1064 22.9473 40.4408L24.4854 41.7192C25.0829 41.0003 26.0991 40.54 27.7763 40.54V38.54ZM36.454 48.84L35.7056 48.1768L35.454 48.4607V48.84H36.454ZM45.174 39V38H44.724L44.4256 38.3368L45.174 39ZM46.294 39H47.294V38H46.294V39ZM46.294 48.84H45.294V49.84H46.294V48.84ZM49.354 48.84H50.354V47.84H49.354V48.84ZM49.354 49.5V50.5H50.354V49.5H49.354ZM46.294 49.5V48.5H45.294V49.5H46.294ZM46.294 53V54H47.294V53H46.294ZM45.594 53H44.594V54H45.594V53ZM45.594 49.5H46.594V48.5H45.594V49.5ZM36.454 49.5H35.454V50.5H36.454V49.5ZM37.334 48.84L36.5842 48.1783L35.1178 49.84H37.334V48.84ZM45.594 48.84V49.84H46.594V48.84H45.594ZM45.594 39.48H46.594V36.8355L44.8442 38.8183L45.594 39.48ZM37.2024 49.5032L45.9224 39.6632L44.4256 38.3368L35.7056 48.1768L37.2024 49.5032ZM45.174 40H46.294V38H45.174V40ZM45.294 39V48.84H47.294V39H45.294ZM46.294 49.84H49.354V47.84H46.294V49.84ZM48.354 48.84V49.5H50.354V48.84H48.354ZM49.354 48.5H46.294V50.5H49.354V48.5ZM45.294 49.5V53H47.294V49.5H45.294ZM46.294 52H45.594V54H46.294V52ZM46.594 53V49.5H44.594V53H46.594ZM45.594 48.5H36.454V50.5H45.594V48.5ZM37.454 49.5V48.84H35.454V49.5H37.454ZM37.334 49.84H45.594V47.84H37.334V49.84ZM46.594 48.84V39.48H44.594V48.84H46.594ZM44.8442 38.8183L36.5842 48.1783L38.0838 49.5017L46.3438 40.1417L44.8442 38.8183Z" fill="white"/>
<path d="M34.9301 78.2996L35.4522 78.6192L35.9743 78.2996L69.9043 57.5293V97.7375L35.4522 118.827L1.00019 97.7375V57.5293L34.9301 78.2996Z" stroke="white" stroke-width="2"/>
<path d="M34.9301 22.555L35.4522 22.8746L35.9743 22.555L69.9043 1.78464V57.312L35.4522 78.402L1.00019 57.312V1.78464L34.9301 22.555Z" stroke="white" stroke-width="2"/>
</svg>
