<svg width="220" height="116" viewBox="0 0 220 116" fill="none" xmlns="http://www.w3.org/2000/svg">
<g filter="url(#filter0_d_945_497)">
<path d="M141.745 54.6205L142.359 53.7534L141.745 52.8864L105.346 1.5H176.327L213.34 53.7534L176.327 106.007H105.346L141.745 54.6205Z" stroke="white" stroke-width="3"/>
<path d="M73.2092 38.9675C77.0012 38.9675 79.7612 39.9875 81.4892 42.0275C83.2172 44.0435 84.0812 47.2955 84.0812 51.7835C84.0812 56.2475 83.2172 59.4995 81.4892 61.5395C79.7612 63.5795 77.0012 64.5995 73.2092 64.5995C69.3932 64.5995 66.6332 63.5915 64.9292 61.5755C63.2252 59.5355 62.3732 56.2715 62.3732 51.7835C62.3732 47.2955 63.2252 44.0435 64.9292 42.0275C66.6332 39.9875 69.3932 38.9675 73.2092 38.9675ZM65.9012 42.9275C64.3652 44.7755 63.5972 47.7275 63.5972 51.7835C63.5972 55.8395 64.3532 58.7915 65.8652 60.6395C67.4012 62.4635 69.8492 63.3755 73.2092 63.3755C76.5692 63.3755 79.0172 62.4635 80.5532 60.6395C82.0892 58.7915 82.8572 55.8395 82.8572 51.7835C82.8572 47.7275 82.0892 44.7755 80.5532 42.9275C79.0172 41.0795 76.5692 40.1555 73.2092 40.1555C69.8732 40.1555 67.4372 41.0795 65.9012 42.9275ZM88.649 57.6515H89.873C89.873 59.6675 90.521 61.1315 91.817 62.0435C93.113 62.9315 95.189 63.3755 98.045 63.3755C100.901 63.3755 102.965 62.9315 104.237 62.0435C105.533 61.1315 106.181 59.6675 106.181 57.6515C106.181 55.6595 105.497 54.2075 104.129 53.2955C102.761 52.3835 100.553 51.9275 97.505 51.9275H96.029V50.7755H97.649C100.529 50.7755 102.605 50.3555 103.877 49.5155C105.173 48.6755 105.821 47.3195 105.821 45.4475C105.821 43.5995 105.209 42.2555 103.985 41.4155C102.761 40.5755 100.805 40.1555 98.117 40.1555C95.405 40.1555 93.437 40.5755 92.213 41.4155C91.013 42.2555 90.413 43.6115 90.413 45.4835H89.189C89.189 43.2035 89.885 41.5475 91.277 40.5155C92.693 39.4835 94.973 38.9675 98.117 38.9675C101.261 38.9675 103.529 39.4715 104.921 40.4795C106.337 41.4875 107.045 43.1195 107.045 45.3755C107.045 47.0315 106.661 48.3515 105.893 49.3355C105.149 50.2955 103.961 50.9795 102.329 51.3875C105.713 52.1795 107.405 54.2915 107.405 57.7235C107.405 60.1235 106.661 61.8755 105.173 62.9795C103.709 64.0595 101.333 64.5995 98.045 64.5995C94.757 64.5995 92.369 64.0475 90.881 62.9435C89.393 61.8395 88.649 60.0755 88.649 57.6515Z" fill="white"/>
<path d="M81.4892 42.0275L80.7261 42.6739L80.7299 42.6783L81.4892 42.0275ZM81.4892 61.5395L82.2522 62.1859L81.4892 61.5395ZM64.9292 61.5755L64.1617 62.2166L64.1655 62.2211L64.9292 61.5755ZM64.9292 42.0275L65.6929 42.6731L65.6967 42.6686L64.9292 42.0275ZM65.9012 42.9275L66.6702 43.5667H66.6702L65.9012 42.9275ZM65.8652 60.6395L65.0912 61.2728L65.0957 61.2783L65.1003 61.2837L65.8652 60.6395ZM80.5532 60.6395L81.3181 61.2837L81.3222 61.2787L80.5532 60.6395ZM80.5532 42.9275L79.7841 43.5667L80.5532 42.9275ZM73.2092 39.9675C76.8348 39.9675 79.2575 40.9401 80.7261 42.6739L82.2522 41.3812C80.2649 39.035 77.1676 37.9675 73.2092 37.9675V39.9675ZM80.7299 42.6783C82.2264 44.4242 83.0812 47.3827 83.0812 51.7835H85.0812C85.0812 47.2084 84.208 43.6629 82.2484 41.3768L80.7299 42.6783ZM83.0812 51.7835C83.0812 56.1572 82.2276 59.1206 80.7261 60.8932L82.2522 62.1859C84.2068 59.8785 85.0812 56.3379 85.0812 51.7835H83.0812ZM80.7261 60.8932C79.2575 62.627 76.8348 63.5995 73.2092 63.5995V65.5995C77.1676 65.5995 80.2649 64.5321 82.2522 62.1859L80.7261 60.8932ZM73.2092 63.5995C69.5524 63.5995 67.1342 62.6352 65.6929 60.93L64.1655 62.2211C66.1322 64.5479 69.234 65.5995 73.2092 65.5995V63.5995ZM65.6967 60.9345C64.2162 59.1621 63.3732 56.1851 63.3732 51.7835H61.3732C61.3732 56.3579 62.2341 59.909 64.1617 62.2166L65.6967 60.9345ZM63.3732 51.7835C63.3732 47.3804 64.2169 44.4194 65.6929 42.6731L64.1655 41.382C62.2335 43.6677 61.3732 47.2107 61.3732 51.7835H63.3732ZM65.6967 42.6686C67.139 40.9418 69.5559 39.9675 73.2092 39.9675V37.9675C69.2305 37.9675 66.1273 39.0332 64.1617 41.3865L65.6967 42.6686ZM65.1321 42.2883C63.3741 44.4035 62.5972 47.6413 62.5972 51.7835H64.5972C64.5972 47.8138 65.3563 45.1476 66.6702 43.5667L65.1321 42.2883ZM62.5972 51.7835C62.5972 55.9233 63.3612 59.1583 65.0912 61.2728L66.6391 60.0063C65.3452 58.4248 64.5972 55.7558 64.5972 51.7835H62.5972ZM65.1003 61.2837C66.8946 63.4144 69.6798 64.3755 73.2092 64.3755V62.3755C70.0185 62.3755 67.9078 61.5127 66.6301 59.9954L65.1003 61.2837ZM73.2092 64.3755C76.7385 64.3755 79.5238 63.4144 81.3181 61.2837L79.7883 59.9954C78.5106 61.5127 76.3998 62.3755 73.2092 62.3755V64.3755ZM81.3222 61.2787C83.0803 59.1636 83.8572 55.9258 83.8572 51.7835H81.8572C81.8572 55.7533 81.0981 58.4195 79.7841 60.0003L81.3222 61.2787ZM83.8572 51.7835C83.8572 47.6413 83.0803 44.4035 81.3222 42.2883L79.7841 43.5667C81.0981 45.1476 81.8572 47.8138 81.8572 51.7835H83.8572ZM81.3222 42.2883C79.5292 40.1311 76.7425 39.1555 73.2092 39.1555V41.1555C76.3958 41.1555 78.5052 42.028 79.7841 43.5667L81.3222 42.2883ZM73.2092 39.1555C69.6971 39.1555 66.9239 40.1326 65.1321 42.2883L66.6702 43.5667C67.9505 42.0265 70.0493 41.1555 73.2092 41.1555V39.1555ZM88.649 57.6515V56.6515H87.649V57.6515H88.649ZM89.873 57.6515H90.873V56.6515H89.873V57.6515ZM91.817 62.0435L91.2414 62.8614L91.2517 62.8685L91.817 62.0435ZM104.237 62.0435L104.809 62.8635L104.812 62.8614L104.237 62.0435ZM104.129 53.2955L104.684 52.4635L104.129 53.2955ZM96.029 51.9275H95.029V52.9275H96.029V51.9275ZM96.029 50.7755V49.7755H95.029V50.7755H96.029ZM103.877 49.5155L103.333 48.6764L103.326 48.6811L103.877 49.5155ZM103.985 41.4155L103.419 42.2401V42.2401L103.985 41.4155ZM92.213 41.4155L91.6471 40.591L91.6395 40.5963L92.213 41.4155ZM90.413 45.4835V46.4835H91.413V45.4835H90.413ZM89.189 45.4835H88.189V46.4835H89.189V45.4835ZM91.277 40.5155L90.688 39.7074L90.6814 39.7122L91.277 40.5155ZM104.921 40.4795L104.334 41.2895L104.341 41.2942L104.921 40.4795ZM105.893 49.3355L105.105 48.7203L105.103 48.723L105.893 49.3355ZM102.329 51.3875L102.086 50.4174L102.101 52.3612L102.329 51.3875ZM105.173 62.9795L105.767 63.7843L105.769 63.7826L105.173 62.9795ZM90.881 62.9435L91.4768 62.1404L90.881 62.9435ZM88.649 58.6515H89.873V56.6515H88.649V58.6515ZM88.873 57.6515C88.873 59.8942 89.6077 61.7116 91.2415 62.8614L92.3925 61.2257C91.4343 60.5515 90.873 59.4409 90.873 57.6515H88.873ZM91.2517 62.8685C92.8023 63.9309 95.1303 64.3755 98.045 64.3755V62.3755C95.2476 62.3755 93.4236 61.9322 92.3822 61.2186L91.2517 62.8685ZM98.045 64.3755C100.957 64.3755 103.279 63.9319 104.809 62.8635L103.665 61.2236C102.651 61.9312 100.845 62.3755 98.045 62.3755V64.3755ZM104.812 62.8614C106.446 61.7116 107.181 59.8942 107.181 57.6515H105.181C105.181 59.4409 104.62 60.5515 103.661 61.2257L104.812 62.8614ZM107.181 57.6515C107.181 55.4062 106.391 53.6018 104.684 52.4635L103.574 54.1276C104.603 54.8133 105.181 55.9129 105.181 57.6515H107.181ZM104.684 52.4635C103.062 51.3827 100.606 50.9275 97.505 50.9275V52.9275C100.5 52.9275 102.46 53.3844 103.574 54.1276L104.684 52.4635ZM97.505 50.9275H96.029V52.9275H97.505V50.9275ZM97.029 51.9275V50.7755H95.029V51.9275H97.029ZM96.029 51.7755H97.649V49.7755H96.029V51.7755ZM97.649 51.7755C100.577 51.7755 102.902 51.3578 104.428 50.35L103.326 48.6811C102.308 49.3533 100.481 49.7755 97.649 49.7755V51.7755ZM104.421 50.3547C106.064 49.2894 106.821 47.5757 106.821 45.4475H104.821C104.821 47.0634 104.282 48.0616 103.333 48.6764L104.421 50.3547ZM106.821 45.4475C106.821 43.3611 106.114 41.6638 104.551 40.591L103.419 42.2401C104.304 42.8473 104.821 43.838 104.821 45.4475H106.821ZM104.551 40.591C103.072 39.5765 100.865 39.1555 98.117 39.1555V41.1555C100.745 41.1555 102.449 41.5746 103.419 42.2401L104.551 40.591ZM98.117 39.1555C95.3475 39.1555 93.1265 39.5758 91.6471 40.591L92.7788 42.2401C93.7474 41.5753 95.4625 41.1555 98.117 41.1555V39.1555ZM91.6395 40.5963C90.0989 41.6748 89.413 43.3864 89.413 45.4835H91.413C91.413 43.8367 91.9271 42.8363 92.7864 42.2348L91.6395 40.5963ZM90.413 44.4835H89.189V46.4835H90.413V44.4835ZM90.189 45.4835C90.189 43.411 90.8115 42.1055 91.8725 41.3189L90.6814 39.7122C88.9585 40.9896 88.189 42.996 88.189 45.4835H90.189ZM91.866 41.3237C93.0212 40.4817 95.037 39.9675 98.117 39.9675V37.9675C94.9089 37.9675 92.3647 38.4854 90.688 39.7074L91.866 41.3237ZM98.117 39.9675C101.202 39.9675 103.205 40.4714 104.334 41.2895L105.507 39.6696C103.853 38.4717 101.32 37.9675 98.117 37.9675V39.9675ZM104.341 41.2942C105.417 42.0603 106.045 43.3365 106.045 45.3755H108.045C108.045 42.9026 107.257 40.9148 105.501 39.6649L104.341 41.2942ZM106.045 45.3755C106.045 46.8814 105.697 47.9619 105.105 48.7203L106.681 49.9508C107.625 48.7412 108.045 47.1817 108.045 45.3755H106.045ZM105.103 48.723C104.54 49.4485 103.583 50.0432 102.086 50.4174L102.572 52.3577C104.339 51.9159 105.758 51.1426 106.683 49.9481L105.103 48.723ZM102.101 52.3612C103.638 52.7209 104.685 53.3539 105.356 54.1908C106.025 55.0263 106.405 56.1728 106.405 57.7235H108.405C108.405 55.8423 107.939 54.2168 106.916 52.9403C105.895 51.6652 104.404 50.8462 102.557 50.4139L102.101 52.3612ZM106.405 57.7235C106.405 59.9096 105.738 61.3149 104.577 62.1764L105.769 63.7826C107.584 62.4362 108.405 60.3375 108.405 57.7235H106.405ZM104.579 62.1748C103.378 63.0608 101.27 63.5995 98.045 63.5995V65.5995C101.395 65.5995 104.04 65.0583 105.767 63.7843L104.579 62.1748ZM98.045 63.5995C94.8246 63.5995 92.7033 63.0504 91.4768 62.1404L90.2851 63.7466C92.0346 65.0447 94.6893 65.5995 98.045 65.5995V63.5995ZM91.4768 62.1404C90.3181 61.2807 89.649 59.8657 89.649 57.6515H87.649C87.649 60.2854 88.4679 62.3983 90.2851 63.7466L91.4768 62.1404Z" fill="white"/>
<path d="M43.9429 54.6205L44.5571 53.7534L43.9429 52.8864L7.54423 1.5L105.402 1.5L142.415 53.7534L105.402 106.007H7.54424L43.9429 54.6205Z" stroke="white" stroke-width="3"/>
</g>
<defs>
<filter id="filter0_d_945_497" x="0.643555" y="0" width="218.534" height="115.507" filterUnits="userSpaceOnUse" color-interpolation-filters="sRGB">
<feFlood flood-opacity="0" result="BackgroundImageFix"/>
<feColorMatrix in="SourceAlpha" type="matrix" values="0 0 0 0 0 0 0 0 0 0 0 0 0 0 0 0 0 0 127 0" result="hardAlpha"/>
<feOffset dy="4"/>
<feGaussianBlur stdDeviation="2"/>
<feComposite in2="hardAlpha" operator="out"/>
<feColorMatrix type="matrix" values="0 0 0 0 0 0 0 0 0 0 0 0 0 0 0 0 0 0 0.25 0"/>
<feBlend mode="normal" in2="BackgroundImageFix" result="effect1_dropShadow_945_497"/>
<feBlend mode="normal" in="SourceGraphic" in2="effect1_dropShadow_945_497" result="shape"/>
</filter>
</defs>
</svg>
