<svg width="322" height="184" viewBox="0 0 322 184" fill="none" xmlns="http://www.w3.org/2000/svg">
<g filter="url(#filter0_d_636_824)">
<path d="M203.632 93.156L204.451 92L203.632 90.844L154.868 22H249.966L299.549 92L249.966 162H154.868L203.632 93.156Z" stroke="white" stroke-width="4"/>
</g>
<g filter="url(#filter1_d_636_824)">
<path d="M111.971 72.112C117.027 72.112 120.707 73.472 123.011 76.192C125.315 78.88 126.467 83.216 126.467 89.2C126.467 95.152 125.315 99.488 123.011 102.208C120.707 104.928 117.027 106.288 111.971 106.288C106.883 106.288 103.203 104.944 100.931 102.256C98.659 99.536 97.523 95.184 97.523 89.2C97.523 83.216 98.659 78.88 100.931 76.192C103.203 73.472 106.883 72.112 111.971 72.112ZM102.227 77.392C100.179 79.856 99.155 83.792 99.155 89.2C99.155 94.608 100.163 98.544 102.179 101.008C104.227 103.44 107.491 104.656 111.971 104.656C116.451 104.656 119.715 103.44 121.763 101.008C123.811 98.544 124.835 94.608 124.835 89.2C124.835 83.792 123.811 79.856 121.763 77.392C119.715 74.928 116.451 73.696 111.971 73.696C107.523 73.696 104.275 74.928 102.227 77.392ZM145.805 72.112C150.029 72.112 153.085 72.88 154.973 74.416C156.861 75.92 157.805 78.368 157.805 81.76C157.805 83.968 157.405 85.696 156.605 86.944C155.837 88.192 154.621 89.12 152.957 89.728L139.853 94.576C137.165 95.568 135.821 97.52 135.821 100.432V104.416H158.669V106H134.189V100.384C134.189 96.768 135.949 94.304 139.469 92.992L152.141 88.288C153.549 87.744 154.573 86.992 155.213 86.032C155.853 85.04 156.173 83.632 156.173 81.808C156.173 78.96 155.341 76.896 153.677 75.616C152.045 74.336 149.405 73.696 145.757 73.696C142.045 73.696 139.341 74.336 137.645 75.616C135.949 76.896 135.101 78.928 135.101 81.712H133.469C133.469 78.352 134.445 75.92 136.397 74.416C138.381 72.88 141.517 72.112 145.805 72.112Z" fill="white"/>
<path d="M123.011 76.192L122.248 76.8384L122.252 76.8428L123.011 76.192ZM123.011 102.208L123.774 102.854L123.011 102.208ZM100.931 102.256L100.164 102.897L100.167 102.902L100.931 102.256ZM100.931 76.192L101.695 76.8375L101.698 76.8331L100.931 76.192ZM102.227 77.392L102.996 78.0312L102.227 77.392ZM102.179 101.008L101.405 101.641L101.41 101.647L101.414 101.652L102.179 101.008ZM121.763 101.008L122.528 101.652L122.532 101.647L121.763 101.008ZM121.763 77.392L120.994 78.0312L121.763 77.392ZM111.971 73.112C116.861 73.112 120.203 74.4245 122.248 76.8383L123.774 75.5457C121.211 72.5195 117.193 71.112 111.971 71.112V73.112ZM122.252 76.8428C124.324 79.2606 125.467 83.3032 125.467 89.2H127.467C127.467 83.1288 126.306 78.4994 123.77 75.5412L122.252 76.8428ZM125.467 89.2C125.467 95.0616 124.325 99.1091 122.248 101.562L123.774 102.854C126.305 99.8669 127.467 95.2424 127.467 89.2H125.467ZM122.248 101.562C120.203 103.975 116.861 105.288 111.971 105.288V107.288C117.193 107.288 121.211 105.881 123.774 102.854L122.248 101.562ZM111.971 105.288C107.042 105.288 103.704 103.988 101.695 101.61L100.167 102.902C102.702 105.9 106.724 107.288 111.971 107.288V105.288ZM101.698 101.615C99.6501 99.1626 98.523 95.0976 98.523 89.2H96.523C96.523 95.2704 97.6679 99.9094 100.164 102.897L101.698 101.615ZM98.523 89.2C98.523 83.3008 99.6507 79.2558 101.695 76.8375L100.167 75.5465C97.6673 78.5042 96.523 83.1312 96.523 89.2H98.523ZM101.698 76.8331C103.709 74.4263 107.046 73.112 111.971 73.112V71.112C106.72 71.112 102.697 72.5177 100.164 75.5509L101.698 76.8331ZM101.458 76.7528C99.1879 79.4839 98.155 83.7057 98.155 89.2H100.155C100.155 83.8783 101.17 80.2281 102.996 78.0312L101.458 76.7528ZM98.155 89.2C98.155 94.6917 99.171 98.9108 101.405 101.641L102.953 100.375C101.155 98.1772 100.155 94.5243 100.155 89.2H98.155ZM101.414 101.652C103.72 104.391 107.322 105.656 111.971 105.656V103.656C107.66 103.656 104.734 102.489 102.944 100.364L101.414 101.652ZM111.971 105.656C116.62 105.656 120.222 104.391 122.528 101.652L120.998 100.364C119.208 102.489 116.282 103.656 111.971 103.656V105.656ZM122.532 101.647C124.802 98.9161 125.835 94.6943 125.835 89.2H123.835C123.835 94.5217 122.82 98.1719 120.994 100.369L122.532 101.647ZM125.835 89.2C125.835 83.7057 124.802 79.4839 122.532 76.7528L120.994 78.0312C122.82 80.2281 123.835 83.8783 123.835 89.2H125.835ZM122.532 76.7528C120.227 73.9795 116.624 72.696 111.971 72.696V74.696C116.278 74.696 119.203 75.8765 120.994 78.0312L122.532 76.7528ZM111.971 72.696C107.347 72.696 103.762 73.9811 101.458 76.7528L102.996 78.0312C104.788 75.8749 107.699 74.696 111.971 74.696V72.696ZM154.973 74.416L154.342 75.1917L154.35 75.1982L154.973 74.416ZM156.605 86.944L155.763 86.4043L155.759 86.4121L155.754 86.4199L156.605 86.944ZM152.957 89.728L152.614 88.7887L152.61 88.7901L152.957 89.728ZM139.853 94.576L140.2 95.5142L140.2 95.5139L139.853 94.576ZM135.821 104.416H134.821V105.416H135.821V104.416ZM158.669 104.416H159.669V103.416H158.669V104.416ZM158.669 106V107H159.669V106H158.669ZM134.189 106H133.189V107H134.189V106ZM139.469 92.992L139.121 92.0545L139.12 92.055L139.469 92.992ZM152.141 88.288L152.489 89.2256L152.502 89.2208L152.141 88.288ZM155.213 86.032L156.045 86.5867L156.05 86.5804L156.054 86.5741L155.213 86.032ZM153.677 75.616L153.06 76.4029L153.068 76.4086L153.677 75.616ZM137.645 75.616L138.248 76.4142L137.645 75.616ZM135.101 81.712V82.712H136.101V81.712H135.101ZM133.469 81.712H132.469V82.712H133.469V81.712ZM136.397 74.416L137.008 75.2081L137.01 75.2067L136.397 74.416ZM145.805 73.112C149.952 73.112 152.723 73.8743 154.342 75.1917L155.604 73.6403C153.448 71.8857 150.107 71.112 145.805 71.112V73.112ZM154.35 75.1982C155.914 76.4441 156.805 78.5427 156.805 81.76H158.805C158.805 78.1933 157.808 75.3959 155.596 73.6338L154.35 75.1982ZM156.805 81.76C156.805 83.8644 156.421 85.3781 155.763 86.4043L157.447 87.4837C158.389 86.0139 158.805 84.0716 158.805 81.76H156.805ZM155.754 86.4199C155.127 87.4386 154.112 88.2413 152.614 88.7887L153.301 90.6673C155.13 89.9987 156.548 88.9454 157.457 87.4681L155.754 86.4199ZM152.61 88.7901L139.506 93.6381L140.2 95.5139L153.304 90.6659L152.61 88.7901ZM139.507 93.6378C138.011 94.1901 136.817 95.038 136.006 96.2169C135.195 97.3945 134.821 98.8203 134.821 100.432H136.821C136.821 99.1317 137.12 98.1255 137.653 97.3511C138.185 96.578 139.008 95.9539 140.2 95.5142L139.507 93.6378ZM134.821 100.432V104.416H136.821V100.432H134.821ZM135.821 105.416H158.669V103.416H135.821V105.416ZM157.669 104.416V106H159.669V104.416H157.669ZM158.669 105H134.189V107H158.669V105ZM135.189 106V100.384H133.189V106H135.189ZM135.189 100.384C135.189 98.743 135.586 97.4368 136.323 96.4052C137.062 95.3707 138.2 94.5322 139.819 93.929L139.12 92.055C137.218 92.7638 135.717 93.8133 134.696 95.2428C133.672 96.6752 133.189 98.409 133.189 100.384H135.189ZM139.817 93.9295L152.489 89.2255L151.793 87.3505L139.121 92.0545L139.817 93.9295ZM152.502 89.2208C154.043 88.6252 155.26 87.7643 156.045 86.5867L154.381 85.4773C153.886 86.2197 153.055 86.8628 151.781 87.3552L152.502 89.2208ZM156.054 86.5741C156.84 85.3549 157.173 83.7274 157.173 81.808H155.173C155.173 83.5366 154.866 84.7251 154.373 85.4899L156.054 86.5741ZM157.173 81.808C157.173 78.7683 156.278 76.3549 154.287 74.8234L153.068 76.4086C154.405 77.4371 155.173 79.1517 155.173 81.808H157.173ZM154.295 74.8291C152.396 73.34 149.477 72.696 145.757 72.696V74.696C149.333 74.696 151.695 75.332 153.06 76.4029L154.295 74.8291ZM145.757 72.696C141.973 72.696 139.001 73.3404 137.043 74.8178L138.248 76.4142C139.682 75.3316 142.118 74.696 145.757 74.696V72.696ZM137.043 74.8178C135.023 76.3427 134.101 78.7204 134.101 81.712H136.101C136.101 79.1356 136.876 77.4493 138.248 76.4142L137.043 74.8178ZM135.101 80.712H133.469V82.712H135.101V80.712ZM134.469 81.712C134.469 78.5415 135.383 76.4597 137.008 75.2081L135.787 73.6239C133.507 75.3803 132.469 78.1625 132.469 81.712H134.469ZM137.01 75.2067C138.732 73.8732 141.597 73.112 145.805 73.112V71.112C141.438 71.112 138.031 71.8868 135.785 73.6253L137.01 75.2067Z" fill="white"/>
</g>
<g filter="url(#filter2_d_636_824)">
<path d="M72.632 93.156L73.4509 92L72.632 90.844L23.8676 22H154.966L204.549 92L154.966 162H23.8676L72.632 93.156Z" stroke="white" stroke-width="4"/>
</g>
<defs>
<filter id="filter0_d_636_824" x="131" y="0" width="191" height="184" filterUnits="userSpaceOnUse" color-interpolation-filters="sRGB">
<feFlood flood-opacity="0" result="BackgroundImageFix"/>
<feColorMatrix in="SourceAlpha" type="matrix" values="0 0 0 0 0 0 0 0 0 0 0 0 0 0 0 0 0 0 127 0" result="hardAlpha"/>
<feOffset/>
<feGaussianBlur stdDeviation="10"/>
<feColorMatrix type="matrix" values="0 0 0 0 0.662745 0 0 0 0 0.803922 0 0 0 0 0.937255 0 0 0 0.9 0"/>
<feBlend mode="normal" in2="BackgroundImageFix" result="effect1_dropShadow_636_824"/>
<feBlend mode="normal" in="SourceGraphic" in2="effect1_dropShadow_636_824" result="shape"/>
</filter>
<filter id="filter1_d_636_824" x="82.5229" y="57.1118" width="91.1465" height="64.1763" filterUnits="userSpaceOnUse" color-interpolation-filters="sRGB">
<feFlood flood-opacity="0" result="BackgroundImageFix"/>
<feColorMatrix in="SourceAlpha" type="matrix" values="0 0 0 0 0 0 0 0 0 0 0 0 0 0 0 0 0 0 127 0" result="hardAlpha"/>
<feOffset/>
<feGaussianBlur stdDeviation="7.5"/>
<feComposite in2="hardAlpha" operator="out"/>
<feColorMatrix type="matrix" values="0 0 0 0 0.662745 0 0 0 0 0.803922 0 0 0 0 0.937255 0 0 0 0.8 0"/>
<feBlend mode="normal" in2="BackgroundImageFix" result="effect1_dropShadow_636_824"/>
<feBlend mode="normal" in="SourceGraphic" in2="effect1_dropShadow_636_824" result="shape"/>
</filter>
<filter id="filter2_d_636_824" x="0" y="0" width="227" height="184" filterUnits="userSpaceOnUse" color-interpolation-filters="sRGB">
<feFlood flood-opacity="0" result="BackgroundImageFix"/>
<feColorMatrix in="SourceAlpha" type="matrix" values="0 0 0 0 0 0 0 0 0 0 0 0 0 0 0 0 0 0 127 0" result="hardAlpha"/>
<feOffset/>
<feGaussianBlur stdDeviation="10"/>
<feColorMatrix type="matrix" values="0 0 0 0 0.662745 0 0 0 0 0.803922 0 0 0 0 0.937255 0 0 0 0.9 0"/>
<feBlend mode="normal" in2="BackgroundImageFix" result="effect1_dropShadow_636_824"/>
<feBlend mode="normal" in="SourceGraphic" in2="effect1_dropShadow_636_824" result="shape"/>
</filter>
</defs>
</svg>
