<svg width="211" height="108" viewBox="0 0 211 108" fill="none" xmlns="http://www.w3.org/2000/svg">
<path d="M137.101 54.6205L137.715 53.7534L137.101 52.8864L100.702 1.5H171.684L208.696 53.7534L171.684 106.007H100.702L137.101 54.6205Z" stroke="white" stroke-width="3"/>
<path d="M39.2994 54.6205L39.9135 53.7534L39.2994 52.8864L2.90068 1.5L100.759 1.5L137.771 53.7534L100.759 106.007H2.90068L39.2994 54.6205Z" stroke="white" stroke-width="3"/>
<path d="M69.2815 38.9675C73.0735 38.9675 75.8335 39.9875 77.5615 42.0275C79.2895 44.0435 80.1535 47.2955 80.1535 51.7835C80.1535 56.2475 79.2895 59.4995 77.5615 61.5395C75.8335 63.5795 73.0735 64.5995 69.2815 64.5995C65.4655 64.5995 62.7055 63.5915 61.0015 61.5755C59.2975 59.5355 58.4455 56.2715 58.4455 51.7835C58.4455 47.2955 59.2975 44.0435 61.0015 42.0275C62.7055 39.9875 65.4655 38.9675 69.2815 38.9675ZM61.9735 42.9275C60.4375 44.7755 59.6695 47.7275 59.6695 51.7835C59.6695 55.8395 60.4255 58.7915 61.9375 60.6395C63.4735 62.4635 65.9215 63.3755 69.2815 63.3755C72.6415 63.3755 75.0895 62.4635 76.6255 60.6395C78.1615 58.7915 78.9295 55.8395 78.9295 51.7835C78.9295 47.7275 78.1615 44.7755 76.6255 42.9275C75.0895 41.0795 72.6415 40.1555 69.2815 40.1555C65.9455 40.1555 63.5095 41.0795 61.9735 42.9275ZM84.5773 45.1595L93.6853 39.1835H94.5493V64.3835H93.3253V40.8035L85.2613 46.1675L84.5773 45.1595Z" fill="white"/>
<path d="M77.5615 42.0275L76.7985 42.6739L76.8023 42.6783L77.5615 42.0275ZM77.5615 61.5395L78.3246 62.1859L77.5615 61.5395ZM61.0015 61.5755L60.234 62.2166L60.2378 62.2211L61.0015 61.5755ZM61.0015 42.0275L61.7653 42.6731L61.769 42.6686L61.0015 42.0275ZM61.9735 42.9275L62.7426 43.5667H62.7426L61.9735 42.9275ZM61.9375 60.6395L61.1636 61.2728L61.1681 61.2783L61.1726 61.2837L61.9375 60.6395ZM76.6255 60.6395L77.3905 61.2837L77.3946 61.2787L76.6255 60.6395ZM76.6255 42.9275L75.8565 43.5667L76.6255 42.9275ZM69.2815 39.9675C72.9072 39.9675 75.3299 40.9401 76.7985 42.6739L78.3246 41.3812C76.3372 39.035 73.2399 37.9675 69.2815 37.9675V39.9675ZM76.8023 42.6783C78.2987 44.4242 79.1535 47.3827 79.1535 51.7835H81.1535C81.1535 47.2084 80.2804 43.6629 78.3208 41.3768L76.8023 42.6783ZM79.1535 51.7835C79.1535 56.1572 78.3 59.1206 76.7985 60.8932L78.3246 62.1859C80.2791 59.8785 81.1535 56.3379 81.1535 51.7835H79.1535ZM76.7985 60.8932C75.3299 62.627 72.9072 63.5995 69.2815 63.5995V65.5995C73.2399 65.5995 76.3372 64.5321 78.3246 62.1859L76.7985 60.8932ZM69.2815 63.5995C65.6247 63.5995 63.2066 62.6352 61.7653 60.93L60.2378 62.2211C62.2045 64.5479 65.3063 65.5995 69.2815 65.5995V63.5995ZM61.769 60.9345C60.2886 59.1621 59.4455 56.1851 59.4455 51.7835H57.4455C57.4455 56.3579 58.3065 59.909 60.2341 62.2166L61.769 60.9345ZM59.4455 51.7835C59.4455 47.3804 60.2892 44.4194 61.7653 42.6731L60.2378 41.382C58.3058 43.6677 57.4455 47.2107 57.4455 51.7835H59.4455ZM61.769 42.6686C63.2114 40.9418 65.6283 39.9675 69.2815 39.9675V37.9675C65.3028 37.9675 62.1997 39.0332 60.2341 41.3865L61.769 42.6686ZM61.2045 42.2883C59.4465 44.4035 58.6695 47.6413 58.6695 51.7835H60.6695C60.6695 47.8138 61.4286 45.1476 62.7426 43.5667L61.2045 42.2883ZM58.6695 51.7835C58.6695 55.9233 59.4336 59.1583 61.1636 61.2728L62.7115 60.0063C61.4175 58.4248 60.6695 55.7558 60.6695 51.7835H58.6695ZM61.1726 61.2837C62.9669 63.4144 65.7522 64.3755 69.2815 64.3755V62.3755C66.0909 62.3755 63.9802 61.5127 62.7024 59.9954L61.1726 61.2837ZM69.2815 64.3755C72.8109 64.3755 75.5962 63.4144 77.3904 61.2837L75.8606 59.9954C74.5829 61.5127 72.4722 62.3755 69.2815 62.3755V64.3755ZM77.3946 61.2787C79.1526 59.1636 79.9295 55.9258 79.9295 51.7835H77.9295C77.9295 55.7533 77.1705 58.4195 75.8565 60.0003L77.3946 61.2787ZM79.9295 51.7835C79.9295 47.6413 79.1526 44.4035 77.3946 42.2883L75.8565 43.5667C77.1705 45.1476 77.9295 47.8138 77.9295 51.7835H79.9295ZM77.3946 42.2883C75.6015 40.1311 72.8149 39.1555 69.2815 39.1555V41.1555C72.4682 41.1555 74.5775 42.028 75.8565 43.5667L77.3946 42.2883ZM69.2815 39.1555C65.7694 39.1555 62.9963 40.1326 61.2045 42.2883L62.7426 43.5667C64.0228 42.0265 66.1217 41.1555 69.2815 41.1555V39.1555ZM84.5773 45.1595L84.0287 44.3234L83.1796 44.8806L83.7498 45.721L84.5773 45.1595ZM93.6853 39.1835V38.1835H93.3865L93.1367 38.3474L93.6853 39.1835ZM94.5493 39.1835H95.5493V38.1835H94.5493V39.1835ZM94.5493 64.3835V65.3835H95.5493V64.3835H94.5493ZM93.3253 64.3835H92.3253V65.3835H93.3253V64.3835ZM93.3253 40.8035H94.3253V38.9373L92.7715 39.9709L93.3253 40.8035ZM85.2613 46.1675L84.4338 46.729L84.9902 47.5489L85.8152 47.0002L85.2613 46.1675ZM85.1259 45.9956L94.2339 40.0196L93.1367 38.3474L84.0287 44.3234L85.1259 45.9956ZM93.6853 40.1835H94.5493V38.1835H93.6853V40.1835ZM93.5493 39.1835V64.3835H95.5493V39.1835H93.5493ZM94.5493 63.3835H93.3253V65.3835H94.5493V63.3835ZM94.3253 64.3835V40.8035H92.3253V64.3835H94.3253ZM92.7715 39.9709L84.7075 45.3349L85.8152 47.0002L93.8792 41.6362L92.7715 39.9709ZM86.0888 45.606L85.4048 44.598L83.7498 45.721L84.4338 46.729L86.0888 45.606Z" fill="white"/>
</svg>
