<svg width="71" height="120" viewBox="0 0 71 120" fill="none" xmlns="http://www.w3.org/2000/svg">
<path d="M29.4755 36.88C31.5822 36.88 33.1155 37.4467 34.0755 38.58C35.0355 39.7 35.5155 41.5067 35.5155 44C35.5155 46.48 35.0355 48.2867 34.0755 49.42C33.1155 50.5533 31.5822 51.12 29.4755 51.12C27.3555 51.12 25.8222 50.56 24.8755 49.44C23.9289 48.3067 23.4555 46.4933 23.4555 44C23.4555 41.5067 23.9289 39.7 24.8755 38.58C25.8222 37.4467 27.3555 36.88 29.4755 36.88ZM25.4155 39.08C24.5622 40.1067 24.1355 41.7467 24.1355 44C24.1355 46.2533 24.5555 47.8933 25.3955 48.92C26.2489 49.9333 27.6089 50.44 29.4755 50.44C31.3422 50.44 32.7022 49.9333 33.5555 48.92C34.4089 47.8933 34.8355 46.2533 34.8355 44C34.8355 41.7467 34.4089 40.1067 33.5555 39.08C32.7022 38.0533 31.3422 37.54 29.4755 37.54C27.6222 37.54 26.2689 38.0533 25.4155 39.08ZM43.5732 36.88C45.3332 36.88 46.6065 37.2 47.3932 37.84C48.1799 38.4667 48.5732 39.4867 48.5732 40.9C48.5732 41.82 48.4065 42.54 48.0732 43.06C47.7532 43.58 47.2465 43.9667 46.5532 44.22L41.0932 46.24C39.9732 46.6533 39.4132 47.4667 39.4132 48.68V50.34H48.9332V51H38.7332V48.66C38.7332 47.1533 39.4665 46.1267 40.9332 45.58L46.2132 43.62C46.7999 43.3933 47.2265 43.08 47.4932 42.68C47.7599 42.2667 47.8932 41.68 47.8932 40.92C47.8932 39.7333 47.5465 38.8733 46.8532 38.34C46.1732 37.8067 45.0732 37.54 43.5532 37.54C42.0065 37.54 40.8799 37.8067 40.1732 38.34C39.4665 38.8733 39.1132 39.72 39.1132 40.88H38.4332C38.4332 39.48 38.8399 38.4667 39.6532 37.84C40.4799 37.2 41.7865 36.88 43.5732 36.88Z" fill="white"/>
<path d="M34.0755 38.58L33.3125 39.2264L33.3163 39.2308L34.0755 38.58ZM34.0755 49.42L34.8386 50.0663L34.0755 49.42ZM24.8755 49.44L24.1081 50.0811L24.1118 50.0855L24.8755 49.44ZM24.8755 38.58L25.6393 39.2255L25.643 39.2211L24.8755 38.58ZM25.4155 39.08L26.1846 39.7192H26.1846L25.4155 39.08ZM25.3955 48.92L24.6216 49.5532L24.6261 49.5587L24.6306 49.5641L25.3955 48.92ZM33.5555 48.92L34.3205 49.5641L34.3246 49.5592L33.5555 48.92ZM33.5555 39.08L32.7865 39.7192L33.5555 39.08ZM29.4755 37.88C31.4158 37.88 32.6119 38.3992 33.3125 39.2263L34.8386 37.9337C33.6192 36.4941 31.7486 35.88 29.4755 35.88V37.88ZM33.3163 39.2308C34.0447 40.0806 34.5155 41.5939 34.5155 44H36.5155C36.5155 41.4195 36.0264 39.3194 34.8348 37.9292L33.3163 39.2308ZM34.5155 44C34.5155 46.3896 34.046 47.9078 33.3125 48.7737L34.8386 50.0663C36.0251 48.6656 36.5155 46.5704 36.5155 44H34.5155ZM33.3125 48.7737C32.6119 49.6008 31.4158 50.12 29.4755 50.12V52.12C31.7486 52.12 33.6192 51.5059 34.8386 50.0663L33.3125 48.7737ZM29.4755 50.12C27.5147 50.12 26.3232 49.6037 25.6393 48.7945L24.1118 50.0855C25.3212 51.5163 27.1963 52.12 29.4755 52.12V50.12ZM25.643 48.7989C24.9199 47.9333 24.4555 46.4069 24.4555 44H22.4555C22.4555 46.5797 22.9378 48.6801 24.1081 50.0811L25.643 48.7989ZM24.4555 44C24.4555 41.5915 24.9206 40.0758 25.6393 39.2255L24.1118 37.9345C22.9372 39.3242 22.4555 41.4218 22.4555 44H24.4555ZM25.643 39.2211C26.3281 38.401 27.5183 37.88 29.4755 37.88V35.88C27.1928 35.88 25.3164 36.4924 24.1081 37.9389L25.643 39.2211ZM24.6465 38.4408C23.5711 39.7346 23.1355 41.6604 23.1355 44H25.1355C25.1355 41.833 25.5533 40.4787 26.1846 39.7192L24.6465 38.4408ZM23.1355 44C23.1355 46.3371 23.5636 48.2601 24.6216 49.5532L26.1695 48.2868C25.5475 47.5266 25.1355 46.1696 25.1355 44H23.1355ZM24.6306 49.5641C25.7422 50.8842 27.4395 51.44 29.4755 51.44V49.44C27.7782 49.44 26.7555 48.9825 26.1605 48.2759L24.6306 49.5641ZM29.4755 51.44C31.5116 51.44 33.2088 50.8842 34.3205 49.5641L32.7906 48.2759C32.1956 48.9825 31.1729 49.44 29.4755 49.44V51.44ZM34.3246 49.5592C35.4 48.2654 35.8355 46.3396 35.8355 44H33.8355C33.8355 46.167 33.4178 47.5213 32.7865 48.2808L34.3246 49.5592ZM35.8355 44C35.8355 41.6604 35.4 39.7346 34.3246 38.4408L32.7865 39.7192C33.4178 40.4787 33.8355 41.833 33.8355 44H35.8355ZM34.3246 38.4408C33.2142 37.1049 31.5156 36.54 29.4755 36.54V38.54C31.1689 38.54 32.1902 39.0018 32.7865 39.7192L34.3246 38.4408ZM29.4755 36.54C27.4461 36.54 25.7556 37.1064 24.6465 38.4408L26.1846 39.7192C26.7821 39.0003 27.7983 38.54 29.4755 38.54V36.54ZM47.3932 37.84L46.7621 38.6158L46.7701 38.6222L47.3932 37.84ZM48.0732 43.06L47.2313 42.5203L47.2264 42.5281L47.2215 42.5359L48.0732 43.06ZM46.5532 44.22L46.21 43.2807L46.2062 43.2821L46.5532 44.22ZM41.0932 46.24L41.4394 47.1782L41.4402 47.1779L41.0932 46.24ZM39.4132 50.34H38.4132V51.34H39.4132V50.34ZM48.9332 50.34H49.9332V49.34H48.9332V50.34ZM48.9332 51V52H49.9332V51H48.9332ZM38.7332 51H37.7332V52H38.7332V51ZM40.9332 45.58L40.5852 44.6425L40.5839 44.643L40.9332 45.58ZM46.2132 43.62L46.5612 44.5576L46.5736 44.5528L46.2132 43.62ZM47.4932 42.68L48.3253 43.2347L48.3294 43.2284L48.3335 43.2221L47.4932 42.68ZM46.8532 38.34L46.236 39.1269L46.2435 39.1326L46.8532 38.34ZM40.1732 38.34L40.7756 39.1382V39.1382L40.1732 38.34ZM39.1132 40.88V41.88H40.1132V40.88H39.1132ZM38.4332 40.88H37.4332V41.88H38.4332V40.88ZM39.6532 37.84L40.2635 38.6321L40.2654 38.6307L39.6532 37.84ZM43.5732 37.88C45.256 37.88 46.2442 38.1943 46.7621 38.6157L48.0243 37.0643C46.9689 36.2057 45.4104 35.88 43.5732 35.88V37.88ZM46.7701 38.6222C47.2328 38.9907 47.5732 39.6613 47.5732 40.9H49.5732C49.5732 39.312 49.1269 37.9426 48.0163 37.0578L46.7701 38.6222ZM47.5732 40.9C47.5732 41.7164 47.4225 42.2221 47.2313 42.5203L48.9151 43.5997C49.3905 42.8579 49.5732 41.9236 49.5732 40.9H47.5732ZM47.2215 42.5359C47.0426 42.8266 46.7376 43.088 46.21 43.2807L46.8964 45.1593C47.7555 44.8454 48.4638 44.3334 48.9249 43.5841L47.2215 42.5359ZM46.2062 43.2821L40.7462 45.3021L41.4402 47.1779L46.9002 45.1579L46.2062 43.2821ZM40.747 45.3018C40.0346 45.5648 39.4293 45.9833 39.0096 46.5929C38.5907 47.2012 38.4132 47.9176 38.4132 48.68H40.4132C40.4132 48.229 40.5157 47.9322 40.6569 47.7271C40.7971 47.5233 41.0318 47.3286 41.4394 47.1782L40.747 45.3018ZM38.4132 48.68V50.34H40.4132V48.68H38.4132ZM39.4132 51.34H48.9332V49.34H39.4132V51.34ZM47.9332 50.34V51H49.9332V50.34H47.9332ZM48.9332 50H38.7332V52H48.9332V50ZM39.7332 51V48.66H37.7332V51H39.7332ZM39.7332 48.66C39.7332 48.0736 39.8735 47.6541 40.0969 47.3412C40.3225 47.0254 40.6908 46.7376 41.2825 46.517L40.5839 44.643C39.709 44.9691 38.9772 45.4679 38.4695 46.1788C37.9596 46.8926 37.7332 47.7397 37.7332 48.66H39.7332ZM41.2812 46.5175L46.5612 44.5575L45.8652 42.6825L40.5852 44.6425L41.2812 46.5175ZM46.5736 44.5528C47.2938 44.2745 47.9135 43.8523 48.3253 43.2347L46.6612 42.1253C46.5396 42.3077 46.3059 42.5121 45.8528 42.6872L46.5736 44.5528ZM48.3335 43.2221C48.7468 42.5815 48.8932 41.7754 48.8932 40.92H46.8932C46.8932 41.5846 46.7729 41.9518 46.6529 42.1379L48.3335 43.2221ZM48.8932 40.92C48.8932 39.5416 48.4833 38.3322 47.4629 37.5474L46.2435 39.1326C46.6098 39.4144 46.8932 39.925 46.8932 40.92H48.8932ZM47.4703 37.5531C46.5237 36.8107 45.1453 36.54 43.5532 36.54V38.54C45.0012 38.54 45.8227 38.8026 46.2361 39.1269L47.4703 37.5531ZM43.5532 36.54C41.934 36.54 40.539 36.8111 39.5708 37.5418L40.7756 39.1382C41.2207 38.8022 42.0791 38.54 43.5532 38.54V36.54ZM39.5708 37.5418C38.5397 38.32 38.1132 39.5124 38.1132 40.88H40.1132C40.1132 39.9276 40.3934 39.4267 40.7756 39.1382L39.5708 37.5418ZM39.1132 39.88H38.4332V41.88H39.1132V39.88ZM39.4332 40.88C39.4332 39.6695 39.7779 39.0063 40.2635 38.6321L39.0429 37.0479C37.9018 37.927 37.4332 39.2905 37.4332 40.88H39.4332ZM40.2654 38.6307C40.8305 38.1932 41.8662 37.88 43.5732 37.88V35.88C41.7069 35.88 40.1293 36.2068 39.041 37.0493L40.2654 38.6307Z" fill="white"/>
<path d="M34.9301 78.2996L35.4522 78.6192L35.9743 78.2996L69.9043 57.5293V97.7375L35.4522 118.827L1.00019 97.7375V57.5293L34.9301 78.2996Z" stroke="white" stroke-width="2"/>
<path d="M34.9301 22.555L35.4522 22.8746L35.9743 22.555L69.9043 1.78464V57.312L35.4522 78.402L1.00019 57.312V1.78464L34.9301 22.555Z" stroke="white" stroke-width="2"/>
</svg>
