<svg width="111" height="160" viewBox="0 0 111 160" fill="none" xmlns="http://www.w3.org/2000/svg">
<g filter="url(#filter0_d_728_279)">
<g filter="url(#filter1_d_728_279)">
<path d="M49.5146 57.88C51.6213 57.88 53.1546 58.4467 54.1146 59.58C55.0746 60.7 55.5546 62.5067 55.5546 65C55.5546 67.48 55.0746 69.2867 54.1146 70.42C53.1546 71.5533 51.6213 72.12 49.5146 72.12C47.3946 72.12 45.8613 71.56 44.9146 70.44C43.9679 69.3067 43.4946 67.4933 43.4946 65C43.4946 62.5067 43.9679 60.7 44.9146 59.58C45.8613 58.4467 47.3946 57.88 49.5146 57.88ZM45.4546 60.08C44.6013 61.1067 44.1746 62.7467 44.1746 65C44.1746 67.2533 44.5946 68.8933 45.4346 69.92C46.2879 70.9333 47.6479 71.44 49.5146 71.44C51.3813 71.44 52.7413 70.9333 53.5946 69.92C54.4479 68.8933 54.8746 67.2533 54.8746 65C54.8746 62.7467 54.4479 61.1067 53.5946 60.08C52.7413 59.0533 51.3813 58.54 49.5146 58.54C47.6613 58.54 46.3079 59.0533 45.4546 60.08ZM58.0923 68.26H58.7723C58.7723 69.38 59.1323 70.1933 59.8523 70.7C60.5723 71.1933 61.7256 71.44 63.3123 71.44C64.8989 71.44 66.0456 71.1933 66.7523 70.7C67.4723 70.1933 67.8323 69.38 67.8323 68.26C67.8323 67.1533 67.4523 66.3467 66.6923 65.84C65.9323 65.3333 64.7056 65.08 63.0123 65.08H62.1923V64.44H63.0923C64.6923 64.44 65.8456 64.2067 66.5523 63.74C67.2723 63.2733 67.6323 62.52 67.6323 61.48C67.6323 60.4533 67.2923 59.7067 66.6123 59.24C65.9323 58.7733 64.8456 58.54 63.3523 58.54C61.8456 58.54 60.7523 58.7733 60.0723 59.24C59.4056 59.7067 59.0723 60.46 59.0723 61.5H58.3923C58.3923 60.2333 58.7789 59.3133 59.5523 58.74C60.3389 58.1667 61.6056 57.88 63.3523 57.88C65.0989 57.88 66.3589 58.16 67.1323 58.72C67.9189 59.28 68.3123 60.1867 68.3123 61.44C68.3123 62.36 68.0989 63.0933 67.6723 63.64C67.2589 64.1733 66.5989 64.5533 65.6923 64.78C67.5723 65.22 68.5123 66.3933 68.5123 68.3C68.5123 69.6333 68.0989 70.6067 67.2723 71.22C66.4589 71.82 65.1389 72.12 63.3123 72.12C61.4856 72.12 60.1589 71.8133 59.3323 71.2C58.5056 70.5867 58.0923 69.6067 58.0923 68.26Z" fill="white"/>
<path d="M54.1146 59.58L53.3516 60.2264L53.3554 60.2308L54.1146 59.58ZM54.1146 70.42L54.8777 71.0663L54.1146 70.42ZM44.9146 70.44L44.1471 71.0811L44.1509 71.0855L44.9146 70.44ZM44.9146 59.58L45.6784 60.2255L45.6821 60.2211L44.9146 59.58ZM45.4546 60.08L46.2236 60.7192H46.2236L45.4546 60.08ZM45.4346 69.92L44.6607 70.5532L44.6651 70.5587L44.6697 70.5641L45.4346 69.92ZM53.5946 69.92L54.3595 70.5641L54.3636 70.5592L53.5946 69.92ZM53.5946 60.08L52.8256 60.7192L53.5946 60.08ZM49.5146 58.88C51.4549 58.88 52.6509 59.3992 53.3516 60.2263L54.8777 58.9337C53.6583 57.4941 51.7876 56.88 49.5146 56.88V58.88ZM53.3554 60.2308C54.0838 61.0806 54.5546 62.5939 54.5546 65H56.5546C56.5546 62.4195 56.0654 60.3194 54.8739 58.9292L53.3554 60.2308ZM54.5546 65C54.5546 67.3896 54.085 68.9078 53.3516 69.7737L54.8777 71.0663C56.0642 69.6656 56.5546 67.5704 56.5546 65H54.5546ZM53.3516 69.7737C52.6509 70.6008 51.4549 71.12 49.5146 71.12V73.12C51.7876 73.12 53.6583 72.5059 54.8777 71.0663L53.3516 69.7737ZM49.5146 71.12C47.5538 71.12 46.3623 70.6037 45.6783 69.7945L44.1509 71.0855C45.3602 72.5163 47.2354 73.12 49.5146 73.12V71.12ZM45.6821 69.7989C44.959 68.9333 44.4946 67.4069 44.4946 65H42.4946C42.4946 67.5797 42.9769 69.6801 44.1471 71.0811L45.6821 69.7989ZM44.4946 65C44.4946 62.5915 44.9596 61.0758 45.6783 60.2255L44.1509 58.9345C42.9762 60.3242 42.4946 62.4218 42.4946 65H44.4946ZM45.6821 60.2211C46.3671 59.401 47.5573 58.88 49.5146 58.88V56.88C47.2319 56.88 45.3554 57.4924 44.1471 58.9389L45.6821 60.2211ZM44.6856 59.4408C43.6102 60.7346 43.1746 62.6604 43.1746 65H45.1746C45.1746 62.833 45.5924 61.4787 46.2236 60.7192L44.6856 59.4408ZM43.1746 65C43.1746 67.3371 43.6026 69.2601 44.6607 70.5532L46.2086 69.2868C45.5866 68.5266 45.1746 67.1696 45.1746 65H43.1746ZM44.6697 70.5641C45.7813 71.8842 47.4786 72.44 49.5146 72.44V70.44C47.8173 70.44 46.7946 69.9825 46.1995 69.2759L44.6697 70.5641ZM49.5146 72.44C51.5506 72.44 53.2479 71.8842 54.3595 70.5641L52.8297 69.2759C52.2346 69.9825 51.2119 70.44 49.5146 70.44V72.44ZM54.3636 70.5592C55.439 69.2654 55.8746 67.3396 55.8746 65H53.8746C53.8746 67.167 53.4569 68.5213 52.8256 69.2808L54.3636 70.5592ZM55.8746 65C55.8746 62.6604 55.439 60.7346 54.3636 59.4408L52.8256 60.7192C53.4569 61.4787 53.8746 62.833 53.8746 65H55.8746ZM54.3636 59.4408C53.2533 58.1049 51.5546 57.54 49.5146 57.54V59.54C51.2079 59.54 52.2293 60.0018 52.8256 60.7192L54.3636 59.4408ZM49.5146 57.54C47.4851 57.54 45.7947 58.1064 44.6856 59.4408L46.2236 60.7192C46.8212 60.0003 47.8374 59.54 49.5146 59.54V57.54ZM58.0923 68.26V67.26H57.0923V68.26H58.0923ZM58.7723 68.26H59.7723V67.26H58.7723V68.26ZM59.8523 70.7L59.2767 71.5179L59.287 71.5249L59.8523 70.7ZM66.7523 70.7L67.3247 71.52L67.3278 71.5178L66.7523 70.7ZM66.6923 65.84L67.247 65.0079H67.247L66.6923 65.84ZM62.1923 65.08H61.1923V66.08H62.1923V65.08ZM62.1923 64.44V63.44H61.1923V64.44H62.1923ZM66.5523 63.74L66.0084 62.9008L66.0012 62.9055L66.5523 63.74ZM66.6123 59.24L66.0464 60.0645L66.6123 59.24ZM60.0723 59.24L59.5064 58.4155L59.4988 58.4208L60.0723 59.24ZM59.0723 61.5V62.5H60.0723V61.5H59.0723ZM58.3923 61.5H57.3923V62.5H58.3923V61.5ZM59.5523 58.74L58.9633 57.9318L58.9567 57.9367L59.5523 58.74ZM67.1323 58.72L66.5457 59.53L66.5523 59.5347L67.1323 58.72ZM67.6723 63.64L66.8839 63.0247L66.8819 63.0274L67.6723 63.64ZM65.6923 64.78L65.4497 63.8099L65.4644 65.7537L65.6923 64.78ZM67.2723 71.22L67.8659 72.0247L67.8681 72.0231L67.2723 71.22ZM59.3323 71.2L59.9281 70.3969L59.3323 71.2ZM58.0923 69.26H58.7723V67.26H58.0923V69.26ZM57.7723 68.26C57.7723 69.6066 58.219 70.7734 59.2768 71.5178L60.4278 69.8822C60.0456 69.6133 59.7723 69.1534 59.7723 68.26H57.7723ZM59.287 71.5249C60.2616 72.1927 61.6669 72.44 63.3123 72.44V70.44C61.7843 70.44 60.8829 70.194 60.4175 69.8751L59.287 71.5249ZM63.3123 72.44C64.955 72.44 66.3596 72.1937 67.3247 71.52L66.1798 69.88C65.7316 70.193 64.8429 70.44 63.3123 70.44V72.44ZM67.3278 71.5178C68.3856 70.7734 68.8323 69.6066 68.8323 68.26H66.8323C66.8323 69.1534 66.559 69.6133 66.1768 69.8822L67.3278 71.5178ZM68.8323 68.26C68.8323 66.9 68.3464 65.7409 67.247 65.0079L66.1376 66.6721C66.5581 66.9524 66.8323 67.4067 66.8323 68.26H68.8323ZM67.247 65.0079C66.2337 64.3325 64.7586 64.08 63.0123 64.08V66.08C64.6526 66.08 65.6308 66.3342 66.1376 66.6721L67.247 65.0079ZM63.0123 64.08H62.1923V66.08H63.0123V64.08ZM63.1923 65.08V64.44H61.1923V65.08H63.1923ZM62.1923 65.44H63.0923V63.44H62.1923V65.44ZM63.0923 65.44C64.7403 65.44 66.1426 65.2089 67.1033 64.5745L66.0012 62.9055C65.5486 63.2044 64.6442 63.44 63.0923 63.44V65.44ZM67.0962 64.5792C68.1637 63.8872 68.6323 62.7762 68.6323 61.48H66.6323C66.6323 62.2638 66.3808 62.6594 66.0084 62.9008L67.0962 64.5792ZM68.6323 61.48C68.6323 60.2149 68.1972 59.1149 67.1781 58.4155L66.0464 60.0645C66.3873 60.2985 66.6323 60.6918 66.6323 61.48H68.6323ZM67.1781 58.4155C66.2438 57.7743 64.9053 57.54 63.3523 57.54V59.54C64.7859 59.54 65.6208 59.7724 66.0464 60.0645L67.1781 58.4155ZM63.3523 57.54C61.7881 57.54 60.4418 57.7736 59.5064 58.4155L60.6381 60.0645C61.0627 59.7731 61.9031 59.54 63.3523 59.54V57.54ZM59.4988 58.4208C58.4915 59.1259 58.0723 60.2348 58.0723 61.5H60.0723C60.0723 60.6852 60.3197 60.2874 60.6457 60.0592L59.4988 58.4208ZM59.0723 60.5H58.3923V62.5H59.0723V60.5ZM59.3923 61.5C59.3923 60.4408 59.7054 59.8713 60.1478 59.5433L58.9567 57.9367C57.8524 58.7554 57.3923 60.0258 57.3923 61.5H59.3923ZM60.1413 59.5481C60.6672 59.1648 61.6697 58.88 63.3523 58.88V56.88C61.5415 56.88 60.0107 57.1685 58.9633 57.9319L60.1413 59.5481ZM63.3523 58.88C65.0402 58.88 66.0347 59.1599 66.5458 59.5299L67.7188 57.9101C66.6832 57.1601 65.1577 56.88 63.3523 56.88V58.88ZM66.5523 59.5347C66.9992 59.8528 67.3123 60.4036 67.3123 61.44H69.3123C69.3123 59.9697 68.8387 58.7072 67.7122 57.9053L66.5523 59.5347ZM67.3123 61.44C67.3123 62.2099 67.1345 62.7037 66.884 63.0247L68.4606 64.2553C69.0633 63.483 69.3123 62.5101 69.3123 61.44H67.3123ZM66.8819 63.0274C66.6502 63.3263 66.2214 63.6169 65.4497 63.8099L65.9348 65.7501C66.9765 65.4897 67.8676 65.0204 68.4627 64.2526L66.8819 63.0274ZM65.4644 65.7537C66.2491 65.9373 66.7324 66.2477 67.0268 66.6152C67.3202 66.9814 67.5123 67.5119 67.5123 68.3H69.5123C69.5123 67.1815 69.2343 66.1719 68.5877 65.3648C67.9422 64.559 67.0155 64.0627 65.9202 63.8063L65.4644 65.7537ZM67.5123 68.3C67.5123 69.4194 67.1764 70.046 66.6764 70.4169L67.8681 72.0231C69.0215 71.1674 69.5123 69.8473 69.5123 68.3H67.5123ZM66.6786 70.4153C66.1283 70.8212 65.0764 71.12 63.3123 71.12V73.12C65.2014 73.12 66.7895 72.8188 67.8659 72.0247L66.6786 70.4153ZM63.3123 71.12C61.5532 71.12 60.4933 70.8162 59.9281 70.3969L58.7364 72.0031C59.8246 72.8105 61.418 73.12 63.3123 73.12V71.12ZM59.9281 70.3969C59.4307 70.0279 59.0923 69.3969 59.0923 68.26H57.0923C57.0923 69.8165 57.5805 71.1455 58.7364 72.0031L59.9281 70.3969Z" fill="white"/>
</g>
<g filter="url(#filter2_d_728_279)">
<path d="M54.9301 98.2996L55.4522 98.6192L55.9743 98.2996L89.9043 77.5293V117.737L55.4522 138.827L21.0002 117.737V77.5293L54.9301 98.2996Z" stroke="white" stroke-width="2"/>
</g>
<g filter="url(#filter3_d_728_279)">
<path d="M54.9301 42.555L55.4522 42.8746L55.9743 42.555L89.9043 21.7846V77.312L55.4522 98.402L21.0002 77.312V21.7846L54.9301 42.555Z" stroke="white" stroke-width="2"/>
</g>
</g>
<defs>
<filter id="filter0_d_728_279" x="16" y="20" width="78.9043" height="128" filterUnits="userSpaceOnUse" color-interpolation-filters="sRGB">
<feFlood flood-opacity="0" result="BackgroundImageFix"/>
<feColorMatrix in="SourceAlpha" type="matrix" values="0 0 0 0 0 0 0 0 0 0 0 0 0 0 0 0 0 0 127 0" result="hardAlpha"/>
<feOffset dy="4"/>
<feGaussianBlur stdDeviation="2"/>
<feComposite in2="hardAlpha" operator="out"/>
<feColorMatrix type="matrix" values="0 0 0 0 0 0 0 0 0 0 0 0 0 0 0 0 0 0 0.25 0"/>
<feBlend mode="normal" in2="BackgroundImageFix" result="effect1_dropShadow_728_279"/>
<feBlend mode="normal" in="SourceGraphic" in2="effect1_dropShadow_728_279" result="shape"/>
</filter>
<filter id="filter1_d_728_279" x="28.4946" y="42.8799" width="55.0176" height="44.2402" filterUnits="userSpaceOnUse" color-interpolation-filters="sRGB">
<feFlood flood-opacity="0" result="BackgroundImageFix"/>
<feColorMatrix in="SourceAlpha" type="matrix" values="0 0 0 0 0 0 0 0 0 0 0 0 0 0 0 0 0 0 127 0" result="hardAlpha"/>
<feOffset/>
<feGaussianBlur stdDeviation="7.5"/>
<feComposite in2="hardAlpha" operator="out"/>
<feColorMatrix type="matrix" values="0 0 0 0 0.662745 0 0 0 0 0.803922 0 0 0 0 0.937255 0 0 0 0.8 0"/>
<feBlend mode="normal" in2="BackgroundImageFix" result="effect1_dropShadow_728_279"/>
<feBlend mode="normal" in="SourceGraphic" in2="effect1_dropShadow_728_279" result="shape"/>
</filter>
<filter id="filter2_d_728_279" x="0" y="55.7446" width="110.904" height="104.255" filterUnits="userSpaceOnUse" color-interpolation-filters="sRGB">
<feFlood flood-opacity="0" result="BackgroundImageFix"/>
<feColorMatrix in="SourceAlpha" type="matrix" values="0 0 0 0 0 0 0 0 0 0 0 0 0 0 0 0 0 0 127 0" result="hardAlpha"/>
<feOffset/>
<feGaussianBlur stdDeviation="10"/>
<feColorMatrix type="matrix" values="0 0 0 0 0.662745 0 0 0 0 0.803922 0 0 0 0 0.937255 0 0 0 0.9 0"/>
<feBlend mode="normal" in2="BackgroundImageFix" result="effect1_dropShadow_728_279"/>
<feBlend mode="normal" in="SourceGraphic" in2="effect1_dropShadow_728_279" result="shape"/>
</filter>
<filter id="filter3_d_728_279" x="0" y="0" width="110.904" height="119.574" filterUnits="userSpaceOnUse" color-interpolation-filters="sRGB">
<feFlood flood-opacity="0" result="BackgroundImageFix"/>
<feColorMatrix in="SourceAlpha" type="matrix" values="0 0 0 0 0 0 0 0 0 0 0 0 0 0 0 0 0 0 127 0" result="hardAlpha"/>
<feOffset/>
<feGaussianBlur stdDeviation="10"/>
<feColorMatrix type="matrix" values="0 0 0 0 0.662745 0 0 0 0 0.803922 0 0 0 0 0.937255 0 0 0 0.9 0"/>
<feBlend mode="normal" in2="BackgroundImageFix" result="effect1_dropShadow_728_279"/>
<feBlend mode="normal" in="SourceGraphic" in2="effect1_dropShadow_728_279" result="shape"/>
</filter>
</defs>
</svg>
