<svg width="71" height="120" viewBox="0 0 71 120" fill="none" xmlns="http://www.w3.org/2000/svg">
<path d="M29.8154 38.88C31.9221 38.88 33.4554 39.4467 34.4154 40.58C35.3754 41.7 35.8554 43.5067 35.8554 46C35.8554 48.48 35.3754 50.2867 34.4154 51.42C33.4554 52.5533 31.9221 53.12 29.8154 53.12C27.6954 53.12 26.1621 52.56 25.2154 51.44C24.2687 50.3067 23.7954 48.4933 23.7954 46C23.7954 43.5067 24.2687 41.7 25.2154 40.58C26.1621 39.4467 27.6954 38.88 29.8154 38.88ZM25.7554 41.08C24.9021 42.1067 24.4754 43.7467 24.4754 46C24.4754 48.2533 24.8954 49.8933 25.7354 50.92C26.5887 51.9333 27.9487 52.44 29.8154 52.44C31.6821 52.44 33.0421 51.9333 33.8954 50.92C34.7487 49.8933 35.1754 48.2533 35.1754 46C35.1754 43.7467 34.7487 42.1067 33.8954 41.08C33.0421 40.0533 31.6821 39.54 29.8154 39.54C27.9621 39.54 26.6087 40.0533 25.7554 41.08ZM38.313 42.32L43.373 39H43.853V53H43.173V39.9L38.693 42.88L38.313 42.32Z" fill="white"/>
<path d="M34.4154 40.58L33.6523 41.2264L33.6561 41.2308L34.4154 40.58ZM34.4154 51.42L35.1784 52.0663L34.4154 51.42ZM25.2154 51.44L24.4479 52.0811L24.4517 52.0855L25.2154 51.44ZM25.2154 40.58L25.9791 41.2255L25.9829 41.2211L25.2154 40.58ZM25.7554 41.08L26.5244 41.7192H26.5244L25.7554 41.08ZM25.7354 50.92L24.9614 51.5532L24.9659 51.5587L24.9705 51.5641L25.7354 50.92ZM33.8954 50.92L34.6603 51.5641L34.6644 51.5592L33.8954 50.92ZM33.8954 41.08L33.1264 41.7192L33.8954 41.08ZM29.8154 39.88C31.7557 39.88 32.9517 40.3992 33.6523 41.2263L35.1784 39.9337C33.9591 38.4941 32.0884 37.88 29.8154 37.88V39.88ZM33.6561 41.2308C34.3846 42.0806 34.8554 43.5939 34.8554 46H36.8554C36.8554 43.4195 36.3662 41.3194 35.1746 39.9292L33.6561 41.2308ZM34.8554 46C34.8554 48.3896 34.3858 49.9078 33.6523 50.7737L35.1784 52.0663C36.365 50.6656 36.8554 48.5704 36.8554 46H34.8554ZM33.6523 50.7737C32.9517 51.6008 31.7557 52.12 29.8154 52.12V54.12C32.0884 54.12 33.9591 53.5059 35.1784 52.0663L33.6523 50.7737ZM29.8154 52.12C27.8546 52.12 26.6631 51.6037 25.9791 50.7945L24.4517 52.0855C25.661 53.5163 27.5362 54.12 29.8154 54.12V52.12ZM25.9829 50.7989C25.2598 49.9333 24.7954 48.4069 24.7954 46H22.7954C22.7954 48.5797 23.2777 50.6801 24.4479 52.0811L25.9829 50.7989ZM24.7954 46C24.7954 43.5915 25.2604 42.0758 25.9791 41.2255L24.4517 39.9345C23.277 41.3242 22.7954 43.4218 22.7954 46H24.7954ZM25.9829 41.2211C26.6679 40.401 27.8581 39.88 29.8154 39.88V37.88C27.5327 37.88 25.6562 38.4924 24.4479 39.9389L25.9829 41.2211ZM24.9864 40.4408C23.911 41.7346 23.4754 43.6604 23.4754 46H25.4754C25.4754 43.833 25.8931 42.4787 26.5244 41.7192L24.9864 40.4408ZM23.4754 46C23.4754 48.3371 23.9034 50.2601 24.9614 51.5532L26.5093 50.2868C25.8874 49.5266 25.4754 48.1696 25.4754 46H23.4754ZM24.9705 51.5641C26.0821 52.8842 27.7794 53.44 29.8154 53.44V51.44C28.1181 51.44 27.0954 50.9825 26.5003 50.2759L24.9705 51.5641ZM29.8154 53.44C31.8514 53.44 33.5487 52.8842 34.6603 51.5641L33.1305 50.2759C32.5354 50.9825 31.5127 51.44 29.8154 51.44V53.44ZM34.6644 51.5592C35.7398 50.2654 36.1754 48.3396 36.1754 46H34.1754C34.1754 48.167 33.7576 49.5213 33.1264 50.2808L34.6644 51.5592ZM36.1754 46C36.1754 43.6604 35.7398 41.7346 34.6644 40.4408L33.1264 41.7192C33.7576 42.4787 34.1754 43.833 34.1754 46H36.1754ZM34.6644 40.4408C33.5541 39.1049 31.8554 38.54 29.8154 38.54V40.54C31.5087 40.54 32.5301 41.0018 33.1264 41.7192L34.6644 40.4408ZM29.8154 38.54C27.7859 38.54 26.0955 39.1064 24.9864 40.4408L26.5244 41.7192C27.122 41.0003 28.1382 40.54 29.8154 40.54V38.54ZM38.313 42.32L37.7645 41.4839L36.9153 42.0411L37.4856 42.8815L38.313 42.32ZM43.373 39V38H43.0743L42.8245 38.1639L43.373 39ZM43.853 39H44.853V38H43.853V39ZM43.853 53V54H44.853V53H43.853ZM43.173 53H42.173V54H43.173V53ZM43.173 39.9H44.173V38.0338L42.6192 39.0674L43.173 39.9ZM38.693 42.88L37.8656 43.4415L38.4219 44.2614L39.2469 43.7126L38.693 42.88ZM38.8616 43.1561L43.9216 39.8361L42.8245 38.1639L37.7645 41.4839L38.8616 43.1561ZM43.373 40H43.853V38H43.373V40ZM42.853 39V53H44.853V39H42.853ZM43.853 52H43.173V54H43.853V52ZM44.173 53V39.9H42.173V53H44.173ZM42.6192 39.0674L38.1392 42.0474L39.2469 43.7126L43.7269 40.7326L42.6192 39.0674ZM39.5205 42.3185L39.1405 41.7585L37.4856 42.8815L37.8656 43.4415L39.5205 42.3185Z" fill="white"/>
<path d="M34.9301 78.2996L35.4522 78.6192L35.9743 78.2996L69.9043 57.5293V97.7375L35.4522 118.827L1.00019 97.7375V57.5293L34.9301 78.2996Z" stroke="white" stroke-width="2"/>
<path d="M34.9301 22.555L35.4522 22.8746L35.9743 22.555L69.9043 1.78464V57.312L35.4522 78.402L1.00019 57.312V1.78464L34.9301 22.555Z" stroke="white" stroke-width="2"/>
</svg>
