<svg width="212" height="108" viewBox="0 0 212 108" fill="none" xmlns="http://www.w3.org/2000/svg">
<path d="M137.923 54.6205L138.538 53.7534L137.923 52.8864L101.525 1.5H172.506L209.519 53.7534L172.506 106.007H101.525L137.923 54.6205Z" stroke="white" stroke-width="3"/>
<path d="M69.3181 38.9675C73.1101 38.9675 75.8701 39.9875 77.5981 42.0275C79.3261 44.0435 80.1901 47.2955 80.1901 51.7835C80.1901 56.2475 79.3261 59.4995 77.5981 61.5395C75.8701 63.5795 73.1101 64.5995 69.3181 64.5995C65.5021 64.5995 62.7421 63.5915 61.0381 61.5755C59.3341 59.5355 58.4821 56.2715 58.4821 51.7835C58.4821 47.2955 59.3341 44.0435 61.0381 42.0275C62.7421 39.9875 65.5021 38.9675 69.3181 38.9675ZM62.0101 42.9275C60.4741 44.7755 59.7061 47.7275 59.7061 51.7835C59.7061 55.8395 60.4621 58.7915 61.9741 60.6395C63.5101 62.4635 65.9581 63.3755 69.3181 63.3755C72.6781 63.3755 75.1261 62.4635 76.6621 60.6395C78.1981 58.7915 78.9661 55.8395 78.9661 51.7835C78.9661 47.7275 78.1981 44.7755 76.6621 42.9275C75.1261 41.0795 72.6781 40.1555 69.3181 40.1555C65.9821 40.1555 63.5461 41.0795 62.0101 42.9275ZM94.6938 38.9675C97.8618 38.9675 100.154 39.5435 101.57 40.6955C102.986 41.8235 103.694 43.6595 103.694 46.2035C103.694 47.8595 103.394 49.1555 102.794 50.0915C102.218 51.0275 101.306 51.7235 100.058 52.1795L90.2298 55.8155C88.2138 56.5595 87.2058 58.0235 87.2058 60.2075V63.1955H104.342V64.3835H85.9818V60.1715C85.9818 57.4595 87.3018 55.6115 89.9418 54.6275L99.4458 51.0995C100.502 50.6915 101.27 50.1275 101.75 49.4075C102.23 48.6635 102.47 47.6075 102.47 46.2395C102.47 44.1035 101.846 42.5555 100.598 41.5955C99.3738 40.6355 97.3938 40.1555 94.6578 40.1555C91.8738 40.1555 89.8458 40.6355 88.5738 41.5955C87.3018 42.5555 86.6658 44.0795 86.6658 46.1675H85.4418C85.4418 43.6475 86.1738 41.8235 87.6378 40.6955C89.1258 39.5435 91.4778 38.9675 94.6938 38.9675Z" fill="white"/>
<path d="M77.5981 42.0275L76.835 42.6739L76.8388 42.6783L77.5981 42.0275ZM77.5981 61.5395L78.3611 62.1859L77.5981 61.5395ZM61.0381 61.5755L60.2706 62.2166L60.2743 62.2211L61.0381 61.5755ZM61.0381 42.0275L61.8018 42.6731L61.8055 42.6686L61.0381 42.0275ZM62.0101 42.9275L62.7791 43.5667H62.7791L62.0101 42.9275ZM61.9741 60.6395L61.2001 61.2728L61.2046 61.2783L61.2092 61.2837L61.9741 60.6395ZM76.6621 60.6395L77.427 61.2837L77.4311 61.2787L76.6621 60.6395ZM76.6621 42.9275L75.893 43.5667L76.6621 42.9275ZM69.3181 39.9675C72.9437 39.9675 75.3664 40.9401 76.835 42.6739L78.3611 41.3812C76.3738 39.035 73.2764 37.9675 69.3181 37.9675V39.9675ZM76.8388 42.6783C78.3352 44.4242 79.1901 47.3827 79.1901 51.7835H81.1901C81.1901 47.2084 80.3169 43.6629 78.3573 41.3768L76.8388 42.6783ZM79.1901 51.7835C79.1901 56.1572 78.3365 59.1206 76.835 60.8932L78.3611 62.1859C80.3156 59.8785 81.1901 56.3379 81.1901 51.7835H79.1901ZM76.835 60.8932C75.3664 62.627 72.9437 63.5995 69.3181 63.5995V65.5995C73.2764 65.5995 76.3738 64.5321 78.3611 62.1859L76.835 60.8932ZM69.3181 63.5995C65.6613 63.5995 63.2431 62.6352 61.8018 60.93L60.2743 62.2211C62.241 64.5479 65.3429 65.5995 69.3181 65.5995V63.5995ZM61.8055 60.9345C60.3251 59.1621 59.4821 56.1851 59.4821 51.7835H57.4821C57.4821 56.3579 58.343 59.909 60.2706 62.2166L61.8055 60.9345ZM59.4821 51.7835C59.4821 47.3804 60.3258 44.4194 61.8018 42.6731L60.2743 41.382C58.3424 43.6677 57.4821 47.2107 57.4821 51.7835H59.4821ZM61.8055 42.6686C63.2479 40.9418 65.6648 39.9675 69.3181 39.9675V37.9675C65.3393 37.9675 62.2362 39.0332 60.2706 41.3865L61.8055 42.6686ZM61.241 42.2883C59.483 44.4035 58.7061 47.6413 58.7061 51.7835H60.7061C60.7061 47.8138 61.4651 45.1476 62.7791 43.5667L61.241 42.2883ZM58.7061 51.7835C58.7061 55.9233 59.4701 59.1583 61.2001 61.2728L62.748 60.0063C61.454 58.4248 60.7061 55.7558 60.7061 51.7835H58.7061ZM61.2092 61.2837C63.0034 63.4144 65.7887 64.3755 69.3181 64.3755V62.3755C66.1274 62.3755 64.0167 61.5127 62.739 59.9954L61.2092 61.2837ZM69.3181 64.3755C72.8474 64.3755 75.6327 63.4144 77.427 61.2837L75.8972 59.9954C74.6194 61.5127 72.5087 62.3755 69.3181 62.3755V64.3755ZM77.4311 61.2787C79.1891 59.1636 79.9661 55.9258 79.9661 51.7835H77.9661C77.9661 55.7533 77.207 58.4195 75.893 60.0003L77.4311 61.2787ZM79.9661 51.7835C79.9661 47.6413 79.1891 44.4035 77.4311 42.2883L75.893 43.5667C77.207 45.1476 77.9661 47.8138 77.9661 51.7835H79.9661ZM77.4311 42.2883C75.6381 40.1311 72.8514 39.1555 69.3181 39.1555V41.1555C72.5047 41.1555 74.6141 42.028 75.893 43.5667L77.4311 42.2883ZM69.3181 39.1555C65.8059 39.1555 63.0328 40.1326 61.241 42.2883L62.7791 43.5667C64.0593 42.0265 66.1582 41.1555 69.3181 41.1555V39.1555ZM101.57 40.6955L100.939 41.4713L100.947 41.4777L101.57 40.6955ZM102.794 50.0915L101.952 49.5519L101.947 49.5596L101.942 49.5674L102.794 50.0915ZM100.058 52.1795L99.7147 51.2403L99.7109 51.2417L100.058 52.1795ZM90.2298 55.8155L90.5761 56.7537L90.5768 56.7534L90.2298 55.8155ZM87.2058 63.1955H86.2058V64.1955H87.2058V63.1955ZM104.342 63.1955H105.342V62.1955H104.342V63.1955ZM104.342 64.3835V65.3835H105.342V64.3835H104.342ZM85.9818 64.3835H84.9818V65.3835H85.9818V64.3835ZM89.9418 54.6275L89.5938 53.6901L89.5926 53.6905L89.9418 54.6275ZM99.4459 51.0995L99.7939 52.0371L99.8062 52.0323L99.4459 51.0995ZM101.75 49.4075L102.582 49.9622L102.586 49.956L102.59 49.9497L101.75 49.4075ZM100.598 41.5955L99.9807 42.3824L99.9881 42.3882L100.598 41.5955ZM88.5738 41.5955L89.1763 42.3937L88.5738 41.5955ZM86.6658 46.1675V47.1675H87.6658V46.1675H86.6658ZM85.4418 46.1675H84.4418V47.1675H85.4418V46.1675ZM87.6378 40.6955L88.2482 41.4877L88.25 41.4863L87.6378 40.6955ZM94.6938 39.9675C97.7846 39.9675 99.7915 40.5379 100.939 41.4713L102.201 39.9198C100.516 38.5492 97.9391 37.9675 94.6938 37.9675V39.9675ZM100.947 41.4777C102.039 42.3476 102.694 43.8342 102.694 46.2035H104.694C104.694 43.4849 103.933 41.2995 102.193 39.9134L100.947 41.4777ZM102.694 46.2035C102.694 47.756 102.41 48.8376 101.952 49.5519L103.636 50.6312C104.378 49.4735 104.694 47.9631 104.694 46.2035H102.694ZM101.942 49.5674C101.507 50.2742 100.797 50.8448 99.7147 51.2403L100.401 53.1188C101.815 52.6022 102.928 51.7809 103.646 50.6156L101.942 49.5674ZM99.7109 51.2417L89.8829 54.8777L90.5768 56.7534L100.405 53.1174L99.7109 51.2417ZM89.8836 54.8774C88.7232 55.3056 87.7819 55.9695 87.1382 56.9044C86.4954 57.8381 86.2058 58.9598 86.2058 60.2075H88.2058C88.2058 59.2713 88.4203 58.569 88.7855 58.0386C89.1498 57.5096 89.7205 57.0695 90.5761 56.7537L89.8836 54.8774ZM86.2058 60.2075V63.1955H88.2058V60.2075H86.2058ZM87.2058 64.1955H104.342V62.1955H87.2058V64.1955ZM103.342 63.1955V64.3835H105.342V63.1955H103.342ZM104.342 63.3835H85.9818V65.3835H104.342V63.3835ZM86.9818 64.3835V60.1715H84.9818V64.3835H86.9818ZM86.9818 60.1715C86.9818 58.9825 87.2688 58.0563 87.7856 57.3328C88.3045 56.6063 89.1127 56.0038 90.2911 55.5646L89.5926 53.6905C88.131 54.2353 86.9592 55.0488 86.1581 56.1703C85.3549 57.2948 84.9818 58.6486 84.9818 60.1715H86.9818ZM90.2899 55.565L99.7939 52.037L99.0978 50.1621L89.5938 53.6901L90.2899 55.565ZM99.8062 52.0323C100.996 51.5727 101.957 50.8999 102.582 49.9622L100.918 48.8528C100.583 49.3552 100.008 49.8104 99.0854 50.1667L99.8062 52.0323ZM102.59 49.9497C103.217 48.9784 103.47 47.703 103.47 46.2395H101.47C101.47 47.5121 101.243 48.3487 100.91 48.8654L102.59 49.9497ZM103.47 46.2395C103.47 43.9119 102.783 42.0145 101.208 40.8029L99.9881 42.3882C100.909 43.0966 101.47 44.2952 101.47 46.2395H103.47ZM101.215 40.8087C99.7243 39.6396 97.4659 39.1555 94.6578 39.1555V41.1555C97.3218 41.1555 99.0233 41.6315 99.9807 42.3824L101.215 40.8087ZM94.6578 39.1555C91.8013 39.1555 89.505 39.64 87.9714 40.7974L89.1763 42.3937C90.1867 41.6311 91.9464 41.1555 94.6578 41.1555V39.1555ZM87.9714 40.7974C86.375 42.0022 85.6658 43.8719 85.6658 46.1675H87.6658C87.6658 44.2872 88.2287 43.1089 89.1763 42.3937L87.9714 40.7974ZM86.6658 45.1675H85.4418V47.1675H86.6658V45.1675ZM86.4418 46.1675C86.4418 43.837 87.1119 42.3632 88.2482 41.4877L87.0275 39.9034C85.2358 41.2839 84.4418 43.4581 84.4418 46.1675H86.4418ZM88.25 41.4863C89.4765 40.5368 91.5575 39.9675 94.6938 39.9675V37.9675C91.3982 37.9675 88.7752 38.5503 87.0257 39.9048L88.25 41.4863Z" fill="white"/>
<path d="M40.1216 54.6205L40.7358 53.7534L40.1216 52.8864L3.72295 1.5L101.581 1.5L138.594 53.7534L101.581 106.007H3.72295L40.1216 54.6205Z" stroke="white" stroke-width="3"/>
</svg>
