<svg width="322" height="184" viewBox="0 0 322 184" fill="none" xmlns="http://www.w3.org/2000/svg">
<g filter="url(#filter0_d_636_808)">
<path d="M203.632 93.156L204.451 92L203.632 90.844L154.868 22H249.966L299.549 92L249.966 162H154.868L203.632 93.156Z" stroke="white" stroke-width="4"/>
</g>
<g filter="url(#filter1_d_636_808)">
<path d="M72.632 93.156L73.4509 92L72.632 90.844L23.8676 22H154.966L204.549 92L154.966 162H23.8676L72.632 93.156Z" stroke="white" stroke-width="4"/>
</g>
<g filter="url(#filter2_d_636_808)">
<path d="M112.987 72.112C118.043 72.112 121.723 73.472 124.027 76.192C126.331 78.88 127.483 83.216 127.483 89.2C127.483 95.152 126.331 99.488 124.027 102.208C121.723 104.928 118.043 106.288 112.987 106.288C107.899 106.288 104.219 104.944 101.947 102.256C99.6746 99.536 98.5386 95.184 98.5386 89.2C98.5386 83.216 99.6746 78.88 101.947 76.192C104.219 73.472 107.899 72.112 112.987 72.112ZM103.243 77.392C101.195 79.856 100.171 83.792 100.171 89.2C100.171 94.608 101.179 98.544 103.195 101.008C105.243 103.44 108.507 104.656 112.987 104.656C117.467 104.656 120.731 103.44 122.779 101.008C124.827 98.544 125.851 94.608 125.851 89.2C125.851 83.792 124.827 79.856 122.779 77.392C120.731 74.928 117.467 73.696 112.987 73.696C108.539 73.696 105.291 74.928 103.243 77.392ZM133.381 80.368L145.525 72.4H146.677V106H145.045V74.56L134.293 81.712L133.381 80.368Z" fill="white"/>
<path d="M124.027 76.192L123.264 76.8384L123.267 76.8428L124.027 76.192ZM124.027 102.208L124.79 102.854L124.027 102.208ZM101.947 102.256L101.179 102.897L101.183 102.902L101.947 102.256ZM101.947 76.192L102.71 76.8375L102.714 76.8331L101.947 76.192ZM103.243 77.392L104.012 78.0312H104.012L103.243 77.392ZM103.195 101.008L102.421 101.641L102.425 101.647L102.43 101.652L103.195 101.008ZM122.779 101.008L123.544 101.652L123.548 101.647L122.779 101.008ZM122.779 77.392L122.01 78.0312L122.779 77.392ZM112.987 73.112C117.876 73.112 121.219 74.4245 123.264 76.8383L124.79 75.5457C122.226 72.5195 118.209 71.112 112.987 71.112V73.112ZM123.267 76.8428C125.34 79.2606 126.483 83.3032 126.483 89.2H128.483C128.483 83.1288 127.321 78.4994 124.786 75.5412L123.267 76.8428ZM126.483 89.2C126.483 95.0616 125.341 99.1091 123.264 101.562L124.79 102.854C127.32 99.8669 128.483 95.2424 128.483 89.2H126.483ZM123.264 101.562C121.219 103.975 117.876 105.288 112.987 105.288V107.288C118.209 107.288 122.226 105.881 124.79 102.854L123.264 101.562ZM112.987 105.288C108.058 105.288 104.72 103.988 102.71 101.61L101.183 102.902C103.718 105.9 107.739 107.288 112.987 107.288V105.288ZM102.714 101.615C100.666 99.1626 99.5386 95.0976 99.5386 89.2H97.5386C97.5386 95.2704 98.6836 99.9094 101.179 102.897L102.714 101.615ZM99.5386 89.2C99.5386 83.3008 100.666 79.2558 102.71 76.8375L101.183 75.5465C98.6829 78.5042 97.5386 83.1312 97.5386 89.2H99.5386ZM102.714 76.8331C104.724 74.4263 108.061 73.112 112.987 73.112V71.112C107.736 71.112 103.713 72.5177 101.179 75.5509L102.714 76.8331ZM102.474 76.7528C100.204 79.4839 99.1706 83.7057 99.1706 89.2H101.171C101.171 83.8783 102.186 80.2281 104.012 78.0312L102.474 76.7528ZM99.1706 89.2C99.1706 94.6917 100.187 98.9108 102.421 101.641L103.969 100.375C102.171 98.1772 101.171 94.5243 101.171 89.2H99.1706ZM102.43 101.652C104.736 104.391 108.337 105.656 112.987 105.656V103.656C108.676 103.656 105.749 102.489 103.96 100.364L102.43 101.652ZM112.987 105.656C117.636 105.656 121.237 104.391 123.544 101.652L122.014 100.364C120.224 102.489 117.297 103.656 112.987 103.656V105.656ZM123.548 101.647C125.818 98.9161 126.851 94.6943 126.851 89.2H124.851C124.851 94.5217 123.836 98.1719 122.01 100.369L123.548 101.647ZM126.851 89.2C126.851 83.7057 125.818 79.4839 123.548 76.7528L122.01 78.0312C123.836 80.2281 124.851 83.8783 124.851 89.2H126.851ZM123.548 76.7528C121.243 73.9795 117.64 72.696 112.987 72.696V74.696C117.293 74.696 120.219 75.8765 122.01 78.0312L123.548 76.7528ZM112.987 72.696C108.362 72.696 104.777 73.9811 102.474 76.7528L104.012 78.0312C105.804 75.8749 108.715 74.696 112.987 74.696V72.696ZM133.381 80.368L132.832 79.5319L131.983 80.0891L132.554 80.9295L133.381 80.368ZM145.525 72.4V71.4H145.226L144.976 71.5639L145.525 72.4ZM146.677 72.4H147.677V71.4H146.677V72.4ZM146.677 106V107H147.677V106H146.677ZM145.045 106H144.045V107H145.045V106ZM145.045 74.56H146.045V72.6938L144.491 73.7274L145.045 74.56ZM134.293 81.712L133.466 82.2735L134.022 83.0934L134.847 82.5446L134.293 81.712ZM133.93 81.2041L146.074 73.2361L144.976 71.5639L132.832 79.5319L133.93 81.2041ZM145.525 73.4H146.677V71.4H145.525V73.4ZM145.677 72.4V106H147.677V72.4H145.677ZM146.677 105H145.045V107H146.677V105ZM146.045 106V74.56H144.045V106H146.045ZM144.491 73.7274L133.739 80.8794L134.847 82.5446L145.599 75.3926L144.491 73.7274ZM135.12 81.1505L134.208 79.8065L132.554 80.9295L133.466 82.2735L135.12 81.1505Z" fill="white"/>
</g>
<defs>
<filter id="filter0_d_636_808" x="131" y="0" width="191" height="184" filterUnits="userSpaceOnUse" color-interpolation-filters="sRGB">
<feFlood flood-opacity="0" result="BackgroundImageFix"/>
<feColorMatrix in="SourceAlpha" type="matrix" values="0 0 0 0 0 0 0 0 0 0 0 0 0 0 0 0 0 0 127 0" result="hardAlpha"/>
<feOffset/>
<feGaussianBlur stdDeviation="10"/>
<feColorMatrix type="matrix" values="0 0 0 0 0.662745 0 0 0 0 0.803922 0 0 0 0 0.937255 0 0 0 0.9 0"/>
<feBlend mode="normal" in2="BackgroundImageFix" result="effect1_dropShadow_636_808"/>
<feBlend mode="normal" in="SourceGraphic" in2="effect1_dropShadow_636_808" result="shape"/>
</filter>
<filter id="filter1_d_636_808" x="0" y="0" width="227" height="184" filterUnits="userSpaceOnUse" color-interpolation-filters="sRGB">
<feFlood flood-opacity="0" result="BackgroundImageFix"/>
<feColorMatrix in="SourceAlpha" type="matrix" values="0 0 0 0 0 0 0 0 0 0 0 0 0 0 0 0 0 0 127 0" result="hardAlpha"/>
<feOffset/>
<feGaussianBlur stdDeviation="10"/>
<feColorMatrix type="matrix" values="0 0 0 0 0.662745 0 0 0 0 0.803922 0 0 0 0 0.937255 0 0 0 0.9 0"/>
<feBlend mode="normal" in2="BackgroundImageFix" result="effect1_dropShadow_636_808"/>
<feBlend mode="normal" in="SourceGraphic" in2="effect1_dropShadow_636_808" result="shape"/>
</filter>
<filter id="filter2_d_636_808" x="83.5386" y="57.1118" width="78.1384" height="64.1763" filterUnits="userSpaceOnUse" color-interpolation-filters="sRGB">
<feFlood flood-opacity="0" result="BackgroundImageFix"/>
<feColorMatrix in="SourceAlpha" type="matrix" values="0 0 0 0 0 0 0 0 0 0 0 0 0 0 0 0 0 0 127 0" result="hardAlpha"/>
<feOffset/>
<feGaussianBlur stdDeviation="7.5"/>
<feComposite in2="hardAlpha" operator="out"/>
<feColorMatrix type="matrix" values="0 0 0 0 0.662745 0 0 0 0 0.803922 0 0 0 0 0.937255 0 0 0 0.8 0"/>
<feBlend mode="normal" in2="BackgroundImageFix" result="effect1_dropShadow_636_808"/>
<feBlend mode="normal" in="SourceGraphic" in2="effect1_dropShadow_636_808" result="shape"/>
</filter>
</defs>
</svg>
