<svg width="211" height="108" viewBox="0 0 211 108" fill="none" xmlns="http://www.w3.org/2000/svg">
<path d="M137.567 54.6205L138.181 53.7534L137.567 52.8864L101.168 1.5H172.149L209.162 53.7534L172.149 106.007H101.168L137.567 54.6205Z" stroke="white" stroke-width="3"/>
<path d="M69.6354 38.9675C73.4274 38.9675 76.1874 39.9875 77.9154 42.0275C79.6434 44.0435 80.5074 47.2955 80.5074 51.7835C80.5074 56.2475 79.6434 59.4995 77.9154 61.5395C76.1874 63.5795 73.4274 64.5995 69.6354 64.5995C65.8194 64.5995 63.0594 63.5915 61.3554 61.5755C59.6514 59.5355 58.7994 56.2715 58.7994 51.7835C58.7994 47.2955 59.6514 44.0435 61.3554 42.0275C63.0594 39.9875 65.8194 38.9675 69.6354 38.9675ZM62.3274 42.9275C60.7914 44.7755 60.0234 47.7275 60.0234 51.7835C60.0234 55.8395 60.7794 58.7915 62.2914 60.6395C63.8274 62.4635 66.2754 63.3755 69.6354 63.3755C72.9954 63.3755 75.4434 62.4635 76.9794 60.6395C78.5154 58.7915 79.2834 55.8395 79.2834 51.7835C79.2834 47.7275 78.5154 44.7755 76.9794 42.9275C75.4434 41.0795 72.9954 40.1555 69.6354 40.1555C66.2994 40.1555 63.8634 41.0795 62.3274 42.9275ZM85.2552 56.8955L100.951 39.1835H102.967V56.8955H108.475V58.0835H102.967V64.3835H101.707V58.0835H85.2552V56.8955ZM86.8392 56.8955H101.707V40.0475L86.8392 56.8955Z" fill="white"/>
<path d="M77.9154 42.0275L77.1524 42.6739L77.1562 42.6783L77.9154 42.0275ZM77.9154 61.5395L78.6785 62.1859L77.9154 61.5395ZM61.3554 61.5755L60.5879 62.2166L60.5917 62.2211L61.3554 61.5755ZM61.3554 42.0275L62.1192 42.6731L62.1229 42.6686L61.3554 42.0275ZM62.3274 42.9275L63.0965 43.5667H63.0965L62.3274 42.9275ZM62.2914 60.6395L61.5175 61.2728L61.522 61.2783L61.5265 61.2837L62.2914 60.6395ZM76.9794 60.6395L77.7444 61.2837L77.7485 61.2787L76.9794 60.6395ZM76.9794 42.9275L76.2104 43.5667L76.9794 42.9275ZM69.6354 39.9675C73.2611 39.9675 75.6837 40.9401 77.1524 42.6739L78.6785 41.3812C76.6911 39.035 73.5938 37.9675 69.6354 37.9675V39.9675ZM77.1562 42.6783C78.6526 44.4242 79.5074 47.3827 79.5074 51.7835H81.5074C81.5074 47.2084 80.6343 43.6629 78.6747 41.3768L77.1562 42.6783ZM79.5074 51.7835C79.5074 56.1572 78.6538 59.1206 77.1524 60.8932L78.6785 62.1859C80.633 59.8785 81.5074 56.3379 81.5074 51.7835H79.5074ZM77.1524 60.8932C75.6837 62.627 73.2611 63.5995 69.6354 63.5995V65.5995C73.5938 65.5995 76.6911 64.5321 78.6785 62.1859L77.1524 60.8932ZM69.6354 63.5995C65.9786 63.5995 63.5605 62.6352 62.1192 60.93L60.5917 62.2211C62.5584 64.5479 65.6602 65.5995 69.6354 65.5995V63.5995ZM62.1229 60.9345C60.6425 59.1621 59.7994 56.1851 59.7994 51.7835H57.7994C57.7994 56.3579 58.6604 59.909 60.5879 62.2166L62.1229 60.9345ZM59.7994 51.7835C59.7994 47.3804 60.6431 44.4194 62.1192 42.6731L60.5917 41.382C58.6597 43.6677 57.7994 47.2107 57.7994 51.7835H59.7994ZM62.1229 42.6686C63.5653 40.9418 65.9821 39.9675 69.6354 39.9675V37.9675C65.6567 37.9675 62.5536 39.0332 60.5879 41.3865L62.1229 42.6686ZM61.5584 42.2883C59.8003 44.4035 59.0234 47.6413 59.0234 51.7835H61.0234C61.0234 47.8138 61.7825 45.1476 63.0965 43.5667L61.5584 42.2883ZM59.0234 51.7835C59.0234 55.9233 59.7874 59.1583 61.5175 61.2728L63.0654 60.0063C61.7714 58.4248 61.0234 55.7558 61.0234 51.7835H59.0234ZM61.5265 61.2837C63.3208 63.4144 66.1061 64.3755 69.6354 64.3755V62.3755C66.4448 62.3755 64.3341 61.5127 63.0563 59.9954L61.5265 61.2837ZM69.6354 64.3755C73.1648 64.3755 75.9501 63.4144 77.7443 61.2837L76.2145 59.9954C74.9368 61.5127 72.8261 62.3755 69.6354 62.3755V64.3755ZM77.7485 61.2787C79.5065 59.1636 80.2834 55.9258 80.2834 51.7835H78.2834C78.2834 55.7533 77.5243 58.4195 76.2104 60.0003L77.7485 61.2787ZM80.2834 51.7835C80.2834 47.6413 79.5065 44.4035 77.7485 42.2883L76.2104 43.5667C77.5243 45.1476 78.2834 47.8138 78.2834 51.7835H80.2834ZM77.7485 42.2883C75.9554 40.1311 73.1688 39.1555 69.6354 39.1555V41.1555C72.8221 41.1555 74.9314 42.028 76.2104 43.5667L77.7485 42.2883ZM69.6354 39.1555C66.1233 39.1555 63.3502 40.1326 61.5584 42.2883L63.0965 43.5667C64.3767 42.0265 66.4756 41.1555 69.6354 41.1555V39.1555ZM85.2552 56.8955L84.5068 56.2323L84.2552 56.5162V56.8955H85.2552ZM100.951 39.1835V38.1835H100.501L100.203 38.5203L100.951 39.1835ZM102.967 39.1835H103.967V38.1835H102.967V39.1835ZM102.967 56.8955H101.967V57.8955H102.967V56.8955ZM108.475 56.8955H109.475V55.8955H108.475V56.8955ZM108.475 58.0835V59.0835H109.475V58.0835H108.475ZM102.967 58.0835V57.0835H101.967V58.0835H102.967ZM102.967 64.3835V65.3835H103.967V64.3835H102.967ZM101.707 64.3835H100.707V65.3835H101.707V64.3835ZM101.707 58.0835H102.707V57.0835H101.707V58.0835ZM85.2552 58.0835H84.2552V59.0835H85.2552V58.0835ZM86.8392 56.8955L86.0894 56.2339L84.623 57.8955H86.8392V56.8955ZM101.707 56.8955V57.8955H102.707V56.8955H101.707ZM101.707 40.0475H102.707V37.4031L100.957 39.3859L101.707 40.0475ZM86.0036 57.5588L101.7 39.8468L100.203 38.5203L84.5068 56.2323L86.0036 57.5588ZM100.951 40.1835H102.967V38.1835H100.951V40.1835ZM101.967 39.1835V56.8955H103.967V39.1835H101.967ZM102.967 57.8955H108.475V55.8955H102.967V57.8955ZM107.475 56.8955V58.0835H109.475V56.8955H107.475ZM108.475 57.0835H102.967V59.0835H108.475V57.0835ZM101.967 58.0835V64.3835H103.967V58.0835H101.967ZM102.967 63.3835H101.707V65.3835H102.967V63.3835ZM102.707 64.3835V58.0835H100.707V64.3835H102.707ZM101.707 57.0835H85.2552V59.0835H101.707V57.0835ZM86.2552 58.0835V56.8955H84.2552V58.0835H86.2552ZM86.8392 57.8955H101.707V55.8955H86.8392V57.8955ZM102.707 56.8955V40.0475H100.707V56.8955H102.707ZM100.957 39.3859L86.0894 56.2339L87.589 57.5572L102.457 40.7092L100.957 39.3859Z" fill="white"/>
<path d="M39.7652 54.6205L40.3793 53.7534L39.7652 52.8864L3.3665 1.5L101.224 1.5L138.237 53.7534L101.224 106.007H3.3665L39.7652 54.6205Z" stroke="white" stroke-width="3"/>
</svg>
