<svg width="79" height="128" viewBox="0 0 79 128" fill="none" xmlns="http://www.w3.org/2000/svg">
<g filter="url(#filter0_d_728_279)">
<path d="M33.5146 37.88C35.6213 37.88 37.1546 38.4467 38.1146 39.58C39.0746 40.7 39.5546 42.5067 39.5546 45C39.5546 47.48 39.0746 49.2867 38.1146 50.42C37.1546 51.5533 35.6213 52.12 33.5146 52.12C31.3946 52.12 29.8613 51.56 28.9146 50.44C27.9679 49.3067 27.4946 47.4933 27.4946 45C27.4946 42.5067 27.9679 40.7 28.9146 39.58C29.8613 38.4467 31.3946 37.88 33.5146 37.88ZM29.4546 40.08C28.6013 41.1067 28.1746 42.7467 28.1746 45C28.1746 47.2533 28.5946 48.8933 29.4346 49.92C30.2879 50.9333 31.6479 51.44 33.5146 51.44C35.3813 51.44 36.7413 50.9333 37.5946 49.92C38.4479 48.8933 38.8746 47.2533 38.8746 45C38.8746 42.7467 38.4479 41.1067 37.5946 40.08C36.7413 39.0533 35.3813 38.54 33.5146 38.54C31.6613 38.54 30.3079 39.0533 29.4546 40.08ZM42.0923 48.26H42.7723C42.7723 49.38 43.1323 50.1933 43.8523 50.7C44.5723 51.1933 45.7256 51.44 47.3123 51.44C48.8989 51.44 50.0456 51.1933 50.7523 50.7C51.4723 50.1933 51.8323 49.38 51.8323 48.26C51.8323 47.1533 51.4523 46.3467 50.6923 45.84C49.9323 45.3333 48.7056 45.08 47.0123 45.08H46.1923V44.44H47.0923C48.6923 44.44 49.8456 44.2067 50.5523 43.74C51.2723 43.2733 51.6323 42.52 51.6323 41.48C51.6323 40.4533 51.2923 39.7067 50.6123 39.24C49.9323 38.7733 48.8456 38.54 47.3523 38.54C45.8456 38.54 44.7523 38.7733 44.0723 39.24C43.4056 39.7067 43.0723 40.46 43.0723 41.5H42.3923C42.3923 40.2333 42.7789 39.3133 43.5523 38.74C44.3389 38.1667 45.6056 37.88 47.3523 37.88C49.0989 37.88 50.3589 38.16 51.1323 38.72C51.9189 39.28 52.3123 40.1867 52.3123 41.44C52.3123 42.36 52.0989 43.0933 51.6723 43.64C51.2589 44.1733 50.5989 44.5533 49.6923 44.78C51.5723 45.22 52.5123 46.3933 52.5123 48.3C52.5123 49.6333 52.0989 50.6067 51.2723 51.22C50.4589 51.82 49.1389 52.12 47.3123 52.12C45.4856 52.12 44.1589 51.8133 43.3323 51.2C42.5056 50.5867 42.0923 49.6067 42.0923 48.26Z" fill="white"/>
<path d="M38.1146 39.58L37.3516 40.2264L37.3554 40.2308L38.1146 39.58ZM38.1146 50.42L38.8777 51.0663L38.1146 50.42ZM28.9146 50.44L28.1471 51.0811L28.1509 51.0855L28.9146 50.44ZM28.9146 39.58L29.6784 40.2255L29.6821 40.2211L28.9146 39.58ZM29.4546 40.08L30.2236 40.7192H30.2236L29.4546 40.08ZM29.4346 49.92L28.6607 50.5532L28.6651 50.5587L28.6697 50.5641L29.4346 49.92ZM37.5946 49.92L38.3595 50.5641L38.3636 50.5592L37.5946 49.92ZM37.5946 40.08L36.8256 40.7192L37.5946 40.08ZM33.5146 38.88C35.4549 38.88 36.6509 39.3992 37.3516 40.2263L38.8777 38.9337C37.6583 37.4941 35.7876 36.88 33.5146 36.88V38.88ZM37.3554 40.2308C38.0838 41.0806 38.5546 42.5939 38.5546 45H40.5546C40.5546 42.4195 40.0654 40.3194 38.8739 38.9292L37.3554 40.2308ZM38.5546 45C38.5546 47.3896 38.085 48.9078 37.3516 49.7737L38.8777 51.0663C40.0642 49.6656 40.5546 47.5704 40.5546 45H38.5546ZM37.3516 49.7737C36.6509 50.6008 35.4549 51.12 33.5146 51.12V53.12C35.7876 53.12 37.6583 52.5059 38.8777 51.0663L37.3516 49.7737ZM33.5146 51.12C31.5538 51.12 30.3623 50.6037 29.6783 49.7945L28.1509 51.0855C29.3602 52.5163 31.2354 53.12 33.5146 53.12V51.12ZM29.6821 49.7989C28.959 48.9333 28.4946 47.4069 28.4946 45H26.4946C26.4946 47.5797 26.9769 49.6801 28.1471 51.0811L29.6821 49.7989ZM28.4946 45C28.4946 42.5915 28.9596 41.0758 29.6783 40.2255L28.1509 38.9345C26.9762 40.3242 26.4946 42.4218 26.4946 45H28.4946ZM29.6821 40.2211C30.3671 39.401 31.5573 38.88 33.5146 38.88V36.88C31.2319 36.88 29.3554 37.4924 28.1471 38.9389L29.6821 40.2211ZM28.6856 39.4408C27.6102 40.7346 27.1746 42.6604 27.1746 45H29.1746C29.1746 42.833 29.5924 41.4787 30.2236 40.7192L28.6856 39.4408ZM27.1746 45C27.1746 47.3371 27.6026 49.2601 28.6607 50.5532L30.2086 49.2868C29.5866 48.5266 29.1746 47.1696 29.1746 45H27.1746ZM28.6697 50.5641C29.7813 51.8842 31.4786 52.44 33.5146 52.44V50.44C31.8173 50.44 30.7946 49.9825 30.1995 49.2759L28.6697 50.5641ZM33.5146 52.44C35.5506 52.44 37.2479 51.8842 38.3595 50.5641L36.8297 49.2759C36.2346 49.9825 35.2119 50.44 33.5146 50.44V52.44ZM38.3636 50.5592C39.439 49.2654 39.8746 47.3396 39.8746 45H37.8746C37.8746 47.167 37.4569 48.5213 36.8256 49.2808L38.3636 50.5592ZM39.8746 45C39.8746 42.6604 39.439 40.7346 38.3636 39.4408L36.8256 40.7192C37.4569 41.4787 37.8746 42.833 37.8746 45H39.8746ZM38.3636 39.4408C37.2533 38.1049 35.5546 37.54 33.5146 37.54V39.54C35.2079 39.54 36.2293 40.0018 36.8256 40.7192L38.3636 39.4408ZM33.5146 37.54C31.4851 37.54 29.7947 38.1064 28.6856 39.4408L30.2236 40.7192C30.8212 40.0003 31.8374 39.54 33.5146 39.54V37.54ZM42.0923 48.26V47.26H41.0923V48.26H42.0923ZM42.7723 48.26H43.7723V47.26H42.7723V48.26ZM43.8523 50.7L43.2767 51.5179L43.287 51.5249L43.8523 50.7ZM50.7523 50.7L51.3247 51.52L51.3278 51.5178L50.7523 50.7ZM50.6923 45.84L51.247 45.0079H51.247L50.6923 45.84ZM46.1923 45.08H45.1923V46.08H46.1923V45.08ZM46.1923 44.44V43.44H45.1923V44.44H46.1923ZM50.5523 43.74L50.0084 42.9008L50.0012 42.9055L50.5523 43.74ZM50.6123 39.24L50.0464 40.0645L50.6123 39.24ZM44.0723 39.24L43.5064 38.4155L43.4988 38.4208L44.0723 39.24ZM43.0723 41.5V42.5H44.0723V41.5H43.0723ZM42.3923 41.5H41.3923V42.5H42.3923V41.5ZM43.5523 38.74L42.9633 37.9318L42.9567 37.9367L43.5523 38.74ZM51.1323 38.72L50.5457 39.53L50.5523 39.5347L51.1323 38.72ZM51.6723 43.64L50.8839 43.0247L50.8819 43.0274L51.6723 43.64ZM49.6923 44.78L49.4497 43.8099L49.4644 45.7537L49.6923 44.78ZM51.2723 51.22L51.8659 52.0247L51.8681 52.0231L51.2723 51.22ZM43.3323 51.2L43.9281 50.3969L43.3323 51.2ZM42.0923 49.26H42.7723V47.26H42.0923V49.26ZM41.7723 48.26C41.7723 49.6066 42.219 50.7734 43.2768 51.5178L44.4278 49.8822C44.0456 49.6133 43.7723 49.1534 43.7723 48.26H41.7723ZM43.287 51.5249C44.2616 52.1927 45.6669 52.44 47.3123 52.44V50.44C45.7843 50.44 44.8829 50.194 44.4175 49.8751L43.287 51.5249ZM47.3123 52.44C48.955 52.44 50.3596 52.1937 51.3247 51.52L50.1798 49.88C49.7316 50.193 48.8429 50.44 47.3123 50.44V52.44ZM51.3278 51.5178C52.3856 50.7734 52.8323 49.6066 52.8323 48.26H50.8323C50.8323 49.1534 50.559 49.6133 50.1768 49.8822L51.3278 51.5178ZM52.8323 48.26C52.8323 46.9 52.3464 45.7409 51.247 45.0079L50.1376 46.6721C50.5581 46.9524 50.8323 47.4067 50.8323 48.26H52.8323ZM51.247 45.0079C50.2337 44.3325 48.7586 44.08 47.0123 44.08V46.08C48.6526 46.08 49.6308 46.3342 50.1376 46.6721L51.247 45.0079ZM47.0123 44.08H46.1923V46.08H47.0123V44.08ZM47.1923 45.08V44.44H45.1923V45.08H47.1923ZM46.1923 45.44H47.0923V43.44H46.1923V45.44ZM47.0923 45.44C48.7403 45.44 50.1426 45.2089 51.1033 44.5745L50.0012 42.9055C49.5486 43.2044 48.6442 43.44 47.0923 43.44V45.44ZM51.0962 44.5792C52.1637 43.8872 52.6323 42.7762 52.6323 41.48H50.6323C50.6323 42.2638 50.3808 42.6594 50.0084 42.9008L51.0962 44.5792ZM52.6323 41.48C52.6323 40.2149 52.1972 39.1149 51.1781 38.4155L50.0464 40.0645C50.3873 40.2985 50.6323 40.6918 50.6323 41.48H52.6323ZM51.1781 38.4155C50.2438 37.7743 48.9053 37.54 47.3523 37.54V39.54C48.7859 39.54 49.6208 39.7724 50.0464 40.0645L51.1781 38.4155ZM47.3523 37.54C45.7881 37.54 44.4418 37.7736 43.5064 38.4155L44.6381 40.0645C45.0627 39.7731 45.9031 39.54 47.3523 39.54V37.54ZM43.4988 38.4208C42.4915 39.1259 42.0723 40.2348 42.0723 41.5H44.0723C44.0723 40.6852 44.3197 40.2874 44.6457 40.0592L43.4988 38.4208ZM43.0723 40.5H42.3923V42.5H43.0723V40.5ZM43.3923 41.5C43.3923 40.4408 43.7054 39.8713 44.1478 39.5433L42.9567 37.9367C41.8524 38.7554 41.3923 40.0258 41.3923 41.5H43.3923ZM44.1413 39.5481C44.6672 39.1648 45.6697 38.88 47.3523 38.88V36.88C45.5415 36.88 44.0107 37.1685 42.9633 37.9319L44.1413 39.5481ZM47.3523 38.88C49.0402 38.88 50.0347 39.1599 50.5458 39.5299L51.7188 37.9101C50.6832 37.1601 49.1577 36.88 47.3523 36.88V38.88ZM50.5523 39.5347C50.9992 39.8528 51.3123 40.4036 51.3123 41.44H53.3123C53.3123 39.9697 52.8387 38.7072 51.7122 37.9053L50.5523 39.5347ZM51.3123 41.44C51.3123 42.2099 51.1345 42.7037 50.884 43.0247L52.4606 44.2553C53.0633 43.483 53.3123 42.5101 53.3123 41.44H51.3123ZM50.8819 43.0274C50.6502 43.3263 50.2214 43.6169 49.4497 43.8099L49.9348 45.7501C50.9765 45.4897 51.8676 45.0204 52.4627 44.2526L50.8819 43.0274ZM49.4644 45.7537C50.2491 45.9373 50.7324 46.2477 51.0268 46.6152C51.3202 46.9814 51.5123 47.5119 51.5123 48.3H53.5123C53.5123 47.1815 53.2343 46.1719 52.5877 45.3648C51.9422 44.559 51.0155 44.0627 49.9202 43.8063L49.4644 45.7537ZM51.5123 48.3C51.5123 49.4194 51.1764 50.046 50.6764 50.4169L51.8681 52.0231C53.0215 51.1674 53.5123 49.8473 53.5123 48.3H51.5123ZM50.6786 50.4153C50.1283 50.8212 49.0764 51.12 47.3123 51.12V53.12C49.2014 53.12 50.7895 52.8188 51.8659 52.0247L50.6786 50.4153ZM47.3123 51.12C45.5532 51.12 44.4933 50.8162 43.9281 50.3969L42.7364 52.0031C43.8246 52.8105 45.418 53.12 47.3123 53.12V51.12ZM43.9281 50.3969C43.4307 50.0279 43.0923 49.3969 43.0923 48.26H41.0923C41.0923 49.8165 41.5805 51.1455 42.7364 52.0031L43.9281 50.3969Z" fill="white"/>
<path d="M38.9301 78.2996L39.4522 78.6192L39.9743 78.2996L73.9043 57.5293V97.7375L39.4522 118.827L5.00019 97.7375V57.5293L38.9301 78.2996Z" stroke="white" stroke-width="2"/>
<path d="M38.9301 22.555L39.4522 22.8746L39.9743 22.555L73.9043 1.78464V57.312L39.4522 78.402L5.00019 57.312V1.78464L38.9301 22.555Z" stroke="white" stroke-width="2"/>
</g>
<defs>
<filter id="filter0_d_728_279" x="0" y="0" width="78.9043" height="128" filterUnits="userSpaceOnUse" color-interpolation-filters="sRGB">
<feFlood flood-opacity="0" result="BackgroundImageFix"/>
<feColorMatrix in="SourceAlpha" type="matrix" values="0 0 0 0 0 0 0 0 0 0 0 0 0 0 0 0 0 0 127 0" result="hardAlpha"/>
<feOffset dy="4"/>
<feGaussianBlur stdDeviation="2"/>
<feComposite in2="hardAlpha" operator="out"/>
<feColorMatrix type="matrix" values="0 0 0 0 0 0 0 0 0 0 0 0 0 0 0 0 0 0 0.25 0"/>
<feBlend mode="normal" in2="BackgroundImageFix" result="effect1_dropShadow_728_279"/>
<feBlend mode="normal" in="SourceGraphic" in2="effect1_dropShadow_728_279" result="shape"/>
</filter>
</defs>
</svg>
