<svg width="147" height="147" viewBox="0 0 147 147" fill="none" xmlns="http://www.w3.org/2000/svg">
<path d="M57.667 16.7659V35.4095H87.0468V16.7659H57.667ZM85.2099 33.5724H59.5044V18.603H85.2099V33.5724Z" fill="white"/>
<path d="M57.667 16.7659V35.4095H87.0468V16.7659H57.667ZM85.2099 33.5724H59.5044V18.603H85.2099V33.5724Z" fill="white"/>
<path d="M34.9385 82.2762L18.4013 90.8849L31.9674 116.945L48.5046 108.336L34.9385 82.2762ZM32.7488 114.468L20.8793 91.6665L34.1573 84.7544L46.0268 107.555L32.7488 114.468Z" fill="white"/>
<path d="M113.937 83.4399L98.3916 108.37L114.212 118.235L129.757 93.3047L113.937 83.4399ZM113.625 115.704L100.923 107.784L114.524 85.971L127.226 93.8916L113.625 115.704Z" fill="white"/>
<path d="M11.655 58.9379L9.86574 58.5211C9.72508 59.1248 9.59298 59.732 9.46915 60.342L11.2692 60.7075C11.3896 60.1146 11.518 59.5248 11.655 58.9379ZM12.5765 55.4363L10.8136 54.9184C10.6389 55.513 10.472 56.1116 10.3143 56.713L12.0903 57.1807C12.2447 56.5961 12.4068 56.0143 12.5765 55.4363ZM10.9357 62.4858L9.12478 62.1731C9.01949 62.7834 8.9222 63.3966 8.8329 64.0123L10.6509 64.2753C10.7377 63.6762 10.8327 63.0801 10.9357 62.4858ZM10.1037 69.6781L8.27026 69.5699C8.23374 70.1882 8.20549 70.8085 8.18694 71.4311L10.0229 71.4864C10.0415 70.8812 10.0683 70.2784 10.1037 69.6781ZM9.99242 73.4836V73.295H8.15527V73.4836C8.15527 74.0423 8.16184 74.5992 8.17553 75.155L10.0127 75.1091C9.99898 74.5687 9.99242 74.0269 9.99242 73.4836ZM13.6975 51.9876L11.9679 51.3694C11.7588 51.9551 11.5571 52.5452 11.3639 53.1389L13.1115 53.7067C13.2987 53.1301 13.4941 52.5569 13.6975 51.9876ZM18.2186 42.0952L16.6194 41.1904C16.3133 41.732 16.0149 42.2784 15.7241 42.8287L17.3484 43.6864C17.6309 43.1514 17.9208 42.6213 18.2186 42.0952ZM15.0163 48.6047L13.3249 47.8865C13.0812 48.46 12.847 49.0375 12.621 49.6187L14.3326 50.2855C14.5526 49.7211 14.78 49.161 15.0163 48.6047ZM20.0912 38.9884L18.5445 37.9963C18.2095 38.519 17.8805 39.0469 17.5596 39.5793L19.1325 40.5282C19.4452 40.0101 19.7648 39.4968 20.0912 38.9884ZM24.3464 33.1237L22.9229 31.9622C22.53 32.4435 22.1443 32.9308 21.7651 33.4233L23.2208 34.544C23.5891 34.0653 23.964 33.5919 24.3464 33.1237ZM22.1355 35.9954L20.6487 34.9166C20.2832 35.4197 19.9257 35.9278 19.5745 36.4417L21.0915 37.4774C21.4327 36.9786 21.7808 36.4847 22.1355 35.9954ZM10.0829 76.9191L8.248 77.0161C8.28081 77.6381 8.32275 78.2578 8.37297 78.8752L10.2041 78.7257C10.1553 78.126 10.1145 77.5237 10.0829 76.9191ZM16.525 45.303L14.877 44.4916C14.602 45.0496 14.3352 45.612 14.0761 46.1786L15.7472 46.9424C15.9989 46.3918 16.2582 45.8454 16.525 45.303ZM21.8727 110.606L20.3776 111.674C20.7388 112.179 21.1066 112.679 21.4809 113.173L22.9449 112.063C22.5803 111.582 22.223 111.097 21.8727 110.606ZM26.7128 30.3813L25.3564 29.1421C24.937 29.6009 24.525 30.0651 24.119 30.5353L25.5099 31.7357C25.9042 31.2786 26.3056 30.8275 26.7128 30.3813ZM10.3765 80.5286L8.55015 80.7289C8.61834 81.3478 8.69481 81.964 8.77983 82.5775L10.599 82.3258C10.5163 81.7292 10.4421 81.1301 10.3765 80.5286ZM24.0568 113.488L22.6251 114.64C23.0145 115.123 23.4097 115.601 23.8117 116.074L25.2112 114.883C24.82 114.424 24.4354 113.958 24.0568 113.488ZM18.0075 104.497L16.4023 105.392C16.7045 105.933 17.0132 106.47 17.3287 107.002L18.9088 106.065C18.6015 105.547 18.3011 105.024 18.0075 104.497ZM27.6075 120.17C28.0483 120.607 28.4957 121.039 28.9491 121.463L30.205 120.122C29.7648 119.71 29.3305 119.291 28.9017 118.866L27.6075 120.17ZM26.4029 116.244L25.0383 117.474C25.4534 117.935 25.8757 118.391 26.3036 118.84L27.6338 117.573C27.2175 117.136 26.8072 116.693 26.4029 116.244ZM19.8532 107.606L18.3008 108.588C18.6326 109.112 18.9713 109.632 19.3168 110.145L20.8418 109.12C20.5057 108.62 20.1756 108.116 19.8532 107.606ZM16.3427 101.292L14.6899 102.093C14.9601 102.651 15.2377 103.205 15.523 103.754L17.1533 102.907C16.8759 102.373 16.6058 101.835 16.3427 101.292ZM11.5719 87.6684L9.78015 88.0732C9.9171 88.6807 10.0637 89.2844 10.2172 89.8847L11.997 89.4279C11.847 88.8447 11.7055 88.2584 11.5719 87.6684ZM10.8715 84.1136L9.05944 84.4198C9.16358 85.0335 9.274 85.6438 9.39383 86.2509L11.1965 85.8968C11.0803 85.3051 10.9722 84.7111 10.8715 84.1136ZM12.4721 91.1738L10.7066 91.6828C10.8789 92.2802 11.0586 92.8742 11.2467 93.4648L12.9979 92.9073C12.8148 92.3333 12.6396 91.7552 12.4721 91.1738ZM13.5711 94.6235L11.8381 95.2329C12.0438 95.8193 12.2573 96.4022 12.4787 96.9811L14.1951 96.3251C13.9797 95.7616 13.7723 95.1941 13.5711 94.6235ZM14.863 97.9994L13.1668 98.7058C13.4048 99.2781 13.6507 99.8459 13.9041 100.41L15.58 99.657C15.3335 99.1084 15.095 98.5563 14.863 97.9994ZM103.82 14.9166C103.266 14.6327 102.708 14.3571 102.145 14.0892L101.356 15.748C101.902 16.0085 102.444 16.2764 102.983 16.5517L103.82 14.9166ZM130.743 44.2239L132.376 43.3814C132.091 42.8304 131.8 42.2843 131.501 41.7425L129.892 42.6301C130.183 43.1566 130.467 43.6878 130.743 44.2239ZM132.308 47.4777L133.986 46.7301C133.734 46.1635 133.474 45.6014 133.205 45.0439L131.549 45.8402C131.81 46.3818 132.063 46.9279 132.308 47.4777ZM128.996 41.0603L130.579 40.1279C130.264 39.5932 129.941 39.0634 129.611 38.539L128.056 39.5174C128.377 40.0269 128.69 40.5414 128.996 41.0603ZM127.073 38.0003L128.6 36.9789C128.255 36.4631 127.903 35.9523 127.544 35.447L126.046 36.5116C126.396 37.0026 126.737 37.499 127.073 38.0003ZM133.685 50.8199L135.403 50.169C135.183 49.5876 134.954 49.0098 134.718 48.4363L133.019 49.1368C133.249 49.6943 133.471 50.2552 133.685 50.8199ZM124.979 35.0525L126.445 33.9454C126.071 33.4501 125.691 32.9605 125.304 32.4761L123.868 33.6224C124.245 34.0938 124.615 34.5703 124.979 35.0525ZM137.239 64.8297L139.059 64.5846C138.976 63.9675 138.884 63.3529 138.784 62.7415L136.97 63.0399C137.068 63.6339 137.158 64.2305 137.239 64.8297ZM137.623 68.4315L139.454 68.2869C139.405 67.6663 139.349 67.0483 139.283 66.4332L137.456 66.6275C137.52 67.2264 137.575 67.8278 137.623 68.4315ZM122.72 32.2247L124.123 31.0381C123.721 30.5642 123.314 30.0957 122.9 29.6335L121.531 30.8595C121.934 31.3091 122.331 31.7639 122.72 32.2247ZM137.804 72.0485L139.641 72.0071C139.627 71.3848 139.604 70.7643 139.573 70.146L137.739 70.2379C137.769 70.839 137.791 71.443 137.804 72.0485ZM134.872 54.2405L136.624 53.6884C136.437 53.0952 136.242 52.5055 136.039 51.9197L134.303 52.522C134.5 53.091 134.69 53.6642 134.872 54.2405ZM136.652 61.2573L138.456 60.908C138.337 60.2969 138.211 59.6889 138.075 59.084L136.283 59.4852C136.414 60.0726 136.537 60.6632 136.652 61.2573ZM135.861 57.7236L137.642 57.272C137.489 56.6688 137.329 56.0694 137.159 55.4731L135.392 55.9749C135.556 56.5544 135.713 57.1373 135.861 57.7236ZM107.091 16.7095C106.555 16.3959 106.014 16.0889 105.468 15.7897L104.585 17.4008C105.116 17.6919 105.642 17.9903 106.164 18.2956L107.091 16.7095ZM93.4535 10.6879C92.8615 10.5033 92.2652 10.3276 91.666 10.1598L91.1707 11.9288C91.7533 12.0917 92.3317 12.2629 92.9069 12.4418L93.4535 10.6879ZM96.9886 11.8994C96.4065 11.6808 95.8199 11.4703 95.2296 11.2683L94.6339 13.0061C95.2074 13.2027 95.7774 13.4073 96.3438 13.6193L96.9886 11.8994ZM89.8654 9.68361C89.2645 9.53325 88.6591 9.39174 88.0517 9.25849L87.6582 11.0531C88.2491 11.1824 88.8363 11.3202 89.4206 11.4657L89.8654 9.68361ZM34.6819 23.0187L33.5526 21.569C33.0628 21.9505 32.5789 22.3382 32.1007 22.7328L33.2693 24.1503C33.7347 23.7668 34.2052 23.3896 34.6819 23.0187ZM100.449 13.3105C99.8797 13.0592 99.3068 12.8152 98.729 12.5801L98.0351 14.2815C98.5961 14.5103 99.1536 14.7468 99.7062 14.9911L100.449 13.3105ZM121.638 28.2651C121.212 27.8143 120.778 27.3695 120.338 26.9309L119.04 28.2317C119.468 28.658 119.889 29.0899 120.303 29.5276L121.638 28.2651ZM31.889 25.3215L30.6821 23.9363C30.2139 24.3448 29.7522 24.7594 29.296 25.1808L30.5423 26.5306C30.9854 26.1212 31.4339 25.7181 31.889 25.3215ZM116.22 23.1556C115.744 22.7559 115.263 22.3625 114.777 21.9759L113.634 23.4141C114.107 23.7899 114.574 24.1725 115.037 24.5614L116.22 23.1556ZM113.301 20.8366C112.804 20.4643 112.301 20.0988 111.794 19.7401L110.734 21.2406C111.227 21.5895 111.717 21.9451 112.2 22.3071L113.301 20.8366ZM119.002 25.6342C118.55 25.2082 118.092 24.7882 117.628 24.3751L116.407 25.7477C116.858 26.1489 117.303 26.5569 117.742 26.9712L119.002 25.6342ZM29.2313 27.7775L27.9468 26.4642C27.5031 26.8984 27.0651 27.3387 26.6335 27.7846L27.9539 29.062C28.3736 28.6277 28.7993 28.1995 29.2313 27.7775ZM30.3257 122.717C30.7911 123.129 31.261 123.535 31.7378 123.933L32.917 122.524C32.4536 122.136 31.9954 121.742 31.5435 121.342L30.3257 122.717ZM110.256 18.6862C109.738 18.3424 109.216 18.0054 108.688 17.6759L107.715 19.2337C108.228 19.5544 108.736 19.8816 109.239 20.216L110.256 18.6862ZM10.4181 66.0705L8.59295 65.8583C8.52162 66.4743 8.45885 67.092 8.40521 67.7125L10.2352 67.8715C10.288 67.2692 10.3482 66.6686 10.4181 66.0705ZM111.836 124.93L112.929 126.408C113.427 126.039 113.921 125.664 114.409 125.281L113.277 123.835C112.802 124.207 112.322 124.571 111.836 124.93ZM108.867 126.996L109.874 128.533C110.393 128.193 110.907 127.846 111.416 127.492L110.366 125.984C109.872 126.328 109.372 126.665 108.867 126.996ZM105.789 128.89L106.708 130.481C107.244 130.171 107.777 129.854 108.304 129.529L107.342 127.964C106.829 128.28 106.311 128.588 105.789 128.89ZM114.685 122.699L115.858 124.113C116.336 123.717 116.807 123.314 117.274 122.905L116.062 121.524C115.609 121.922 115.15 122.314 114.685 122.699ZM117.405 120.311L118.656 121.657C119.11 121.234 119.559 120.805 120.002 120.37L118.713 119.06C118.283 119.483 117.847 119.9 117.405 120.311ZM102.61 130.605L103.436 132.246C103.99 131.967 104.54 131.68 105.084 131.387L104.212 129.77C103.682 130.055 103.148 130.333 102.61 130.605ZM85.5192 136.345L85.8519 138.151C86.4639 138.039 87.0724 137.918 87.6782 137.789L87.2956 135.992C86.7064 136.118 86.1144 136.235 85.5192 136.345ZM89.0597 135.59L89.4951 137.375C90.0996 137.228 90.7002 137.072 91.2983 136.909L90.8138 135.137C90.2326 135.296 89.6477 135.447 89.0597 135.59ZM119.987 117.772L121.311 119.046C121.741 118.598 122.165 118.145 122.583 117.685L121.223 116.449C120.817 116.896 120.406 117.337 119.987 117.772ZM86.2262 8.8853C85.6168 8.77032 85.0056 8.66304 84.3913 8.5646L84.1006 10.3786C84.698 10.4745 85.2924 10.5786 85.885 10.6908L86.2262 8.8853ZM99.3407 132.136L100.072 133.822C100.641 133.575 101.205 133.32 101.765 133.058L100.986 131.394C100.442 131.649 99.8934 131.896 99.3407 132.136ZM81.9405 136.897L82.169 138.72C82.7867 138.643 83.4021 138.556 84.0139 138.462L83.734 136.646C83.1391 136.738 82.5416 136.821 81.9405 136.897ZM95.9846 133.481L96.6197 135.205C97.2034 134.99 97.7829 134.767 98.359 134.536L97.6748 132.831C97.1156 133.056 96.5515 133.272 95.9846 133.481ZM92.5525 134.634L93.0883 136.392C93.6835 136.211 94.2744 136.021 94.8621 135.824L94.2772 134.082C93.706 134.274 93.1306 134.458 92.5525 134.634ZM136.579 86.0777L138.38 86.4389C138.502 85.8309 138.616 85.2201 138.719 84.6061L136.909 84.2979C136.807 84.8942 136.698 85.4874 136.579 86.0777ZM137.187 82.5099L139.006 82.7652C139.093 82.1524 139.171 81.5367 139.24 80.9181L137.415 80.7124C137.347 81.3141 137.271 81.913 137.187 82.5099ZM135.769 89.6065L137.547 90.0687C137.703 89.469 137.85 88.8658 137.99 88.2595L136.199 87.8475C136.063 88.437 135.92 89.0236 135.769 89.6065ZM122.423 115.092L123.817 116.288C124.222 115.817 124.619 115.34 125.011 114.857L123.584 113.701C123.203 114.17 122.816 114.634 122.423 115.092ZM137.82 73.4836C137.82 74.0891 137.811 74.6925 137.794 75.2942L139.63 75.3462C139.648 74.7273 139.657 74.1065 139.657 73.4836H137.82ZM137.593 78.9089L139.423 79.0655C139.476 78.4484 139.519 77.8281 139.554 77.2061L137.719 77.1037C137.685 77.708 137.644 78.3097 137.593 78.9089ZM134.758 93.0834L136.507 93.6474C136.697 93.0571 136.879 92.4631 137.053 91.8654L135.289 91.3529C135.12 91.933 134.944 92.5099 134.758 93.0834ZM133.546 96.508L135.26 97.1708C135.485 96.5902 135.7 96.0061 135.909 95.4178L134.177 94.805C133.975 95.3767 133.765 95.9442 133.546 96.508ZM128.774 106.28L130.351 107.225C130.67 106.691 130.982 106.153 131.287 105.61L129.684 104.712C129.389 105.239 129.085 105.762 128.774 106.28ZM124.704 112.277L126.164 113.393C126.541 112.899 126.912 112.4 127.275 111.896L125.784 110.822C125.431 111.312 125.071 111.797 124.704 112.277ZM126.824 109.337L128.345 110.368C128.693 109.854 129.036 109.335 129.37 108.811L127.822 107.822C127.496 108.332 127.163 108.837 126.824 109.337ZM132.142 99.8568L133.815 100.615C134.072 100.049 134.321 99.4781 134.562 98.9038L132.869 98.1922C132.634 98.7509 132.391 99.3055 132.142 99.8568ZM130.549 103.117L132.176 103.97C132.465 103.42 132.746 102.864 133.02 102.305L131.369 101.498C131.103 102.042 130.83 102.582 130.549 103.117ZM49.2593 134.458C49.8359 134.692 50.4165 134.917 51.0014 135.135L51.6414 133.412C51.073 133.201 50.5092 132.982 49.9483 132.755L49.2593 134.458ZM49.6296 12.3602C49.0541 12.589 48.4824 12.8258 47.9149 13.07L48.641 14.7577C49.1931 14.52 49.7492 14.2897 50.309 14.0669L49.6296 12.3602ZM45.8392 132.959C46.4013 133.225 46.9676 133.483 47.5382 133.733L48.2761 132.05C47.7211 131.807 47.1702 131.556 46.6235 131.298L45.8392 132.959ZM33.1837 125.109C33.6711 125.494 34.1646 125.872 34.6628 126.244L35.761 124.771C35.276 124.409 34.7969 124.042 34.3227 123.667L33.1837 125.109ZM56.6969 10.0083C56.0966 10.1706 55.4997 10.3413 54.9057 10.5204L55.4355 12.2794C56.0127 12.1057 56.5927 11.9396 57.1765 11.7821L56.6969 10.0083ZM46.219 13.8292C45.6566 14.0909 45.0988 14.3597 44.5456 14.6364L45.3673 16.2798C45.9048 16.0111 46.4472 15.7494 46.9939 15.4955L46.219 13.8292ZM52.7621 135.76C53.3513 135.96 53.9444 136.152 54.5419 136.336L55.0814 134.58C54.502 134.401 53.9253 134.215 53.353 134.02L52.7621 135.76ZM53.1299 11.0831C52.5396 11.28 51.9529 11.484 51.3703 11.6968L52.0006 13.4227C52.5664 13.2161 53.1361 13.0172 53.7099 12.8264L53.1299 11.0831ZM36.173 127.336C36.682 127.693 37.1961 128.043 37.7154 128.386L38.7271 126.852C38.2224 126.52 37.7237 126.179 37.2292 125.832L36.173 127.336ZM36.5533 19.3669C36.0426 19.7202 35.537 20.0802 35.0374 20.4471L36.1248 21.9279C36.6104 21.5716 37.1014 21.2215 37.5979 20.8783L36.5533 19.3669ZM39.6707 17.3389C39.1408 17.6622 38.6164 17.9931 38.0966 18.331L39.0989 19.8708C39.6031 19.5424 40.1132 19.2211 40.6273 18.9067L39.6707 17.3389ZM42.5104 131.268C43.0565 131.566 43.6072 131.855 44.1621 132.138L44.9947 130.5C44.4551 130.225 43.9199 129.944 43.3883 129.655L42.5104 131.268ZM42.8956 15.4909C42.3495 15.7837 41.8071 16.0838 41.2702 16.3917L42.1829 17.986C42.7056 17.6867 43.2326 17.3948 43.7641 17.1098L42.8956 15.4909ZM39.2858 129.392C39.8133 129.72 40.3466 130.04 40.885 130.353L41.8083 128.765C41.2856 128.461 40.7677 128.15 40.2544 127.831L39.2858 129.392ZM63.9841 8.47673C63.3693 8.57003 62.757 8.6716 62.1476 8.78173L62.474 10.5895C63.0668 10.4825 63.6623 10.3838 64.2603 10.2928L63.9841 8.47673ZM75.1223 7.74375C74.7174 7.73662 74.3126 7.73291 73.9051 7.73291L73.2597 7.73605L73.2774 9.5732L73.906 9.57006C74.3014 9.57006 74.6955 9.57377 75.0883 9.58061L75.1223 7.74375ZM71.0183 139.172C71.6372 139.198 72.2574 139.217 72.8806 139.226L72.908 137.389C72.3028 137.38 71.6994 137.363 71.0982 137.336L71.0183 139.172ZM74.7191 137.392L74.7431 139.229C75.3651 139.221 75.9848 139.204 76.6025 139.18L76.5283 137.344C75.9272 137.368 75.3243 137.384 74.7191 137.392ZM78.3366 137.246L78.4622 139.079C79.0836 139.037 79.7025 138.985 80.3185 138.926L80.1413 137.097C79.5424 137.155 78.9412 137.205 78.3366 137.246ZM78.8431 7.91608C78.2259 7.86986 77.6065 7.83277 76.9837 7.80367L76.8989 9.6391C77.5035 9.66706 78.1064 9.7033 78.7067 9.74781L78.8431 7.91608ZM71.3998 7.7797C70.7772 7.80338 70.1569 7.83534 69.5392 7.87585L69.6599 9.70901C70.2608 9.66963 70.8645 9.63882 71.4691 9.61571L71.3998 7.7797ZM67.3038 138.907C67.9198 138.968 68.5383 139.021 69.1595 139.065L69.2899 137.233C68.6864 137.19 68.0847 137.138 67.4855 137.078L67.3038 138.907ZM59.9452 137.749C60.5512 137.88 61.1606 138.003 61.7729 138.117L62.109 136.311C61.5147 136.2 60.923 136.081 60.3352 135.954L59.9452 137.749ZM60.3193 9.13866C59.7104 9.26677 59.1038 9.40315 58.5018 9.5478L58.9312 11.3342C59.5167 11.1935 60.1053 11.0608 60.697 10.9364L60.3193 9.13866ZM82.5476 8.29612C81.9342 8.21538 81.3173 8.14319 80.6979 8.07957L80.5102 9.9073C81.1116 9.96921 81.7117 10.0394 82.3085 10.1179L82.5476 8.29612ZM56.3291 136.858C56.9266 137.024 57.5277 137.181 58.1315 137.33L58.5717 135.546C57.9842 135.401 57.4002 135.248 56.8193 135.088L56.3291 136.858ZM67.6824 8.02365C67.0621 8.08185 66.445 8.14861 65.8307 8.22394L66.0544 10.0474C66.6518 9.97435 67.2521 9.90958 67.8544 9.85252L67.6824 8.02365ZM63.6084 138.433C64.2204 138.529 64.8355 138.617 65.4532 138.696L65.6866 136.874C65.0866 136.797 64.4891 136.711 63.8943 136.617L63.6084 138.433Z" fill="white"/>
<path d="M73.9063 0.442871C33.6312 0.442871 0.865234 33.2088 0.865234 73.4837C0.865234 113.759 33.6312 146.524 73.9063 146.524C114.181 146.524 146.947 113.759 146.947 73.4837C146.947 33.2085 114.181 0.442871 73.9063 0.442871ZM73.9063 144.687C34.6443 144.687 2.7021 112.746 2.7021 73.4837C2.7021 34.2217 34.6443 2.28002 73.9063 2.28002C113.168 2.28002 145.11 34.222 145.11 73.4837C145.11 112.745 113.168 144.687 73.9063 144.687Z" fill="white"/>
<path d="M93.7595 32.1892L92.9629 33.8446C108.214 41.1864 117.847 56.8613 117.503 73.7782C117.459 75.9726 117.249 78.1718 116.879 80.3154L118.69 80.6275C119.075 78.3935 119.294 76.1018 119.341 73.8153C119.698 56.1811 109.658 39.8419 93.7595 32.1892Z" fill="white"/>
<path d="M51.9614 35.7125L51.017 34.1367C37.5775 42.1895 29.3644 56.3371 29.0462 71.9818C29.0092 73.8378 29.0851 75.7098 29.2722 77.5455L31.1 77.3589C30.9205 75.5974 30.8474 73.8004 30.8834 72.0189C31.1887 57.0105 39.0682 43.438 51.9614 35.7125Z" fill="white"/>
<path d="M43.2052 33.5737L43.1094 35.4086L50.4026 35.7881L49.1467 42.8667L50.9553 43.188L52.5747 34.0613L43.2052 33.5737Z" fill="white"/>
<path d="M95.3404 110.714C88.6471 114.466 81.0469 116.37 73.314 116.209C65.8302 116.057 58.4933 113.968 52.0962 110.167L51.1572 111.746C57.8265 115.709 65.4758 117.887 73.2766 118.045C73.5842 118.052 73.8909 118.055 74.1976 118.055C81.9245 118.055 89.5262 116.078 96.2382 112.317L95.3404 110.714Z" fill="white"/>
<path d="M123.272 74.2758L117.852 79.1713L113.727 73.2832L112.223 74.3377L117.541 81.9286L124.504 75.6393L123.272 74.2758Z" fill="white"/>
<path d="M58.2466 109.832L57.7262 108.07L50.2852 110.268L53.1058 117.897L54.8294 117.26L52.6895 111.473L58.2466 109.832Z" fill="white"/>
<path d="M57.9784 97.6488C54.401 99.317 50.2899 99.6461 48.6816 99.6022C45.5074 98.6325 42.8516 95.8559 41.9205 94.5888C41.2626 93.4212 39.8837 90.3668 39.6312 87.4903C39.3786 84.6138 41.117 81.9204 42.0177 80.9333L47.8507 74.4706L53.6098 65.6604C53.6658 65.2941 54.2994 64.6584 56.3858 65.0465C58.4722 65.4346 58.6704 67.2703 58.5087 68.1396L56.9795 73.6163L71.5126 66.8394C72.1584 66.7651 73.6922 66.8438 74.6607 67.7532C75.6292 68.6626 75.5604 70.1691 75.405 70.8087L70.6349 73.7135L74.1379 71.7398L77.9015 70.325C78.4045 70.4307 79.6227 70.9515 80.4719 72.1887C81.321 73.426 80.5766 75.0888 80.0982 75.7655L77.3034 77.0688C78.8685 76.339 80.0794 76.4548 80.4892 76.604C80.9796 77.1692 81.9529 78.5754 81.9228 79.6783C81.8926 80.7812 80.2082 81.8388 79.3697 82.2298L75.7747 83.8211C76.7221 83.7216 77.1453 84.0265 77.2454 84.2412C79.063 86.3878 77.6416 88.2529 76.7037 88.9171L67.4808 93.2178L57.9784 97.6488Z" fill="#000816" stroke="black"/>
<path d="M47.8772 74.4921L53.03 66.5575C54.0363 65.0079 54.7514 64.7601 56.3169 65.0436C57.9523 65.3922 58.9452 66.7102 58.6523 68.0055L56.8692 73.8005" stroke="white" stroke-width="2"/>
<path d="M56.7748 73.8375L71.1873 67.0748C72.6377 66.421 74.3692 67.0895 75.023 68.5399C75.5123 69.5415 75.2884 70.7638 74.6356 71.5936L76.5868 70.6952C78.0892 69.9612 79.8206 70.6297 80.6108 72.3966C81.2646 73.847 80.5961 75.5784 79.1457 76.2322L78.9615 76.3405C79.9953 76.3281 81.0896 76.9247 81.5268 78.0065C82.1806 79.4569 81.5121 81.1883 80.0618 81.8421L75.8949 83.6953C76.6924 83.8713 77.3619 84.42 77.7429 85.2373C78.3967 86.6877 77.7282 88.4192 76.2778 89.073L54.6022 98.932L51.5794 99.5092C48.9667 99.6693 46.8986 98.9927 45.313 98.0081C45.2069 97.9422 45.1029 97.875 45.0011 97.8065C43.1568 96.5658 42.0154 94.9245 41.4665 93.8247L40.628 92.0266C39.9084 90.4839 38.3152 85.657 42.1317 80.5756C42.8127 79.878 47.1894 74.9571 47.8984 74.3918" stroke="white" stroke-width="2"/>
<path d="M72.7648 68.9038C72.764 68.901 72.7635 68.8991 72.7632 68.8979C72.7633 68.8987 72.7634 68.8998 72.7635 68.9013L72.7422 68.8609L72.6014 68.9354L71.8581 69.3283L72.7648 68.9038ZM72.7632 68.8979C72.763 68.897 72.763 68.8966 72.763 68.8966C72.763 68.8966 72.7631 68.897 72.7632 68.8979Z" fill="white" stroke="white" stroke-width="2"/>
<path d="M78.1843 73.3247C78.1843 73.3248 78.1836 73.3249 78.1823 73.3249C78.1836 73.3247 78.1843 73.3247 78.1843 73.3247Z" fill="white" stroke="white" stroke-width="2"/>
<path d="M78.7698 78.7014C78.7698 78.7014 78.7699 78.7021 78.7699 78.7035C78.7697 78.7021 78.7697 78.7014 78.7698 78.7014Z" fill="white" stroke="white" stroke-width="2"/>
<path d="M75.9 85.7635C75.9 85.7635 75.9001 85.764 75.9 85.765L75.9 85.7635Z" fill="white" stroke="white" stroke-width="2"/>
<path d="M75.3023 83.7789L64.4043 88.9269" stroke="white" stroke-width="2"/>
<path d="M78.5685 76.4222L63.6338 83.3442" stroke="white" stroke-width="2"/>
<path d="M74.548 71.6137L62.1631 77.9938" stroke="white" stroke-width="2"/>
<path d="M103.534 77.8311C106.787 80.0669 109.158 83.442 109.936 84.8501C110.712 88.0772 109.667 91.7747 109.048 93.2201C108.376 94.3796 106.444 97.118 104.093 98.7955C101.743 100.473 98.5402 100.342 97.2326 100.067L88.7036 98.3213L78.1895 97.8305C77.8454 97.9682 76.9761 97.7449 76.2516 95.7503C75.5271 93.7556 77.0082 92.6531 77.8393 92.3512L83.3343 90.8893L70.119 81.8066C69.7272 81.2879 69.0165 79.9264 69.3086 78.6303C69.6006 77.3343 70.9335 76.6289 71.5635 76.4383L76.4874 79.074L73.0089 77.0575L69.8797 74.5327C69.7155 74.0456 69.5459 72.7317 70.181 71.3721C70.8161 70.0125 72.6266 69.81 73.4525 69.8787L75.9939 71.6253C74.5707 70.6472 74.056 69.545 73.9765 69.1162C74.2146 68.4068 74.9323 66.8545 75.8978 66.3207C76.8634 65.7869 78.6296 66.7015 79.392 67.2255L82.5878 69.5154C82.0212 68.7496 82.0691 68.2302 82.2033 68.035C83.1304 65.3794 85.4588 65.6575 86.5071 66.1285L94.8937 71.8925L103.534 77.8311Z" fill="#000816" stroke="black"/>
<path d="M88.7068 98.2866L79.2549 97.8739C77.4089 97.7933 76.8324 97.303 76.2821 95.8102C75.7526 94.2241 76.3843 92.6997 77.649 92.2947L83.5471 90.8899" stroke="white" stroke-width="2"/>
<path d="M83.6277 90.953L70.4858 81.967C69.1863 81.0492 68.8836 79.218 69.8014 77.9186C70.4161 76.9886 71.5829 76.5611 72.6293 76.7025L70.8648 75.4773C69.4699 74.5552 69.1671 72.7241 70.2885 71.1465C71.2063 69.847 73.0375 69.5442 74.3369 70.4621L74.5238 70.5659C73.9883 69.6814 73.947 68.4358 74.6572 67.51C75.5751 66.2105 77.4062 65.9077 78.7057 66.8256L82.4172 69.4753C82.1641 68.6988 82.2971 67.8435 82.808 67.1004C83.7258 65.8009 85.557 65.4982 86.8564 66.416L106.353 80.0885L108.384 82.4001C109.848 84.57 110.315 86.6954 110.271 88.5613C110.268 88.6862 110.263 88.8099 110.256 88.9323C110.123 91.1512 109.288 92.9676 108.619 93.9988L107.495 95.6338C106.531 97.0368 103.181 100.859 96.8653 100.15C95.9187 99.9173 89.4573 98.6438 88.6103 98.3198" stroke="white" stroke-width="2"/>
<path d="M71.2605 79.6797C71.2585 79.6819 71.2571 79.6833 71.2562 79.6841C71.2568 79.6836 71.2577 79.6829 71.259 79.6821L71.235 79.721L71.3706 79.8045L72.0864 80.2455L71.2605 79.6797ZM71.2562 79.6841C71.2555 79.6847 71.2552 79.6849 71.2552 79.6849C71.2552 79.6849 71.2555 79.6846 71.2562 79.6841Z" fill="white" stroke="white" stroke-width="2"/>
<path d="M72.3185 72.765C72.3185 72.7649 72.3189 72.7655 72.3197 72.7666C72.3188 72.7655 72.3184 72.765 72.3185 72.765Z" fill="white" stroke="white" stroke-width="2"/>
<path d="M76.6557 69.5332C76.6557 69.5331 76.6563 69.5327 76.6575 69.532C76.6563 69.5329 76.6557 69.5332 76.6557 69.5332Z" fill="white" stroke="white" stroke-width="2"/>
<path d="M84.1963 68.4212C84.1963 68.4211 84.1967 68.4209 84.1976 68.4204L84.1963 68.4212Z" fill="white" stroke="white" stroke-width="2"/>
<path d="M82.7891 69.9433L92.7559 76.7206" stroke="white" stroke-width="2"/>
<path d="M74.7928 70.8627L88.3369 80.2177" stroke="white" stroke-width="2"/>
<path d="M72.6905 76.767L84.4736 84.2001" stroke="white" stroke-width="2"/>
<path d="M59.8525 49.1152C59.8525 45.168 61.2916 41.303 62.0112 39.8639C64.2315 37.3969 67.8703 36.1634 69.4122 35.8551C70.7485 35.7523 74.0995 35.7934 76.8132 36.7802C79.5269 37.767 81.2332 40.4807 81.7472 41.7142L85.1393 49.732L90.6901 58.6748C90.9985 58.8804 91.3068 59.7233 90.0733 61.4502C88.8398 63.1771 87.0924 62.5809 86.3728 62.067L82.0556 58.3665L82.0556 74.402C81.85 75.0187 81.1304 76.3756 79.8969 76.869C78.6634 77.3624 77.3271 76.6634 76.8132 76.2522L76.1964 70.7015L76.5048 74.7104L76.1964 78.7192C75.8881 79.1304 74.9013 80.0144 73.4211 80.2611C71.9409 80.5078 70.7485 79.1304 70.3373 78.4109L70.3373 75.3271C70.3373 77.054 69.7206 78.1025 69.4122 78.4109C68.6926 78.6165 67.0068 78.9043 66.02 78.4109C65.0332 77.9175 64.7865 75.9439 64.7865 75.0187L64.8636 71.088C64.5534 71.9887 64.0983 72.2434 63.8614 72.2434C61.1477 72.9835 60.0581 70.9071 59.8525 69.7764L59.8525 59.6L59.8525 49.1152Z" fill="#000816" stroke="black"/>
<path d="M85.1078 49.7479L90.1214 57.7713C91.1005 59.3382 91.0229 60.0911 90.1044 61.3901C89.0972 62.7249 87.4831 63.0677 86.433 62.2548L81.9344 58.1898" stroke="white" stroke-width="2"/>
<path d="M81.9416 58.0878L81.9797 74.0081C81.9593 75.5989 80.6217 76.8856 79.0309 76.8652C77.9163 76.8853 76.9031 76.1658 76.427 75.2235L76.4166 77.3715C76.4469 79.0434 75.1093 80.3301 73.174 80.2995C71.5831 80.2791 70.2965 78.9415 70.3169 77.3507L70.2966 77.1379C69.871 78.0802 68.8678 78.8198 67.7025 78.7589C66.1117 78.7385 64.825 77.4009 64.8455 75.8101L64.9269 71.2504C64.4304 71.8989 63.6501 72.2737 62.7484 72.2736C61.1576 72.2532 59.8709 70.9156 59.8913 69.3248L60.1164 45.5134L60.8708 42.5298C61.8299 40.0943 63.3171 38.5059 64.8796 37.4849C64.9841 37.4166 65.089 37.3508 65.1941 37.2875C67.098 36.1403 69.0679 35.7995 70.2966 35.7669L72.2806 35.7668C73.9829 35.7666 79.0309 36.3626 82.0232 41.9691C82.3677 42.881 84.9779 48.9273 85.1906 49.8088" stroke="white" stroke-width="2"/>
<path d="M79.6559 74.6647C79.6587 74.6651 79.6607 74.6655 79.6619 74.6658C79.6611 74.6655 79.66 74.6652 79.6587 74.6646L79.7043 74.6623L79.6963 74.5033L79.6543 73.6636L79.6559 74.6647ZM79.6619 74.6658C79.6627 74.666 79.6631 74.6661 79.6631 74.6661C79.6631 74.6662 79.6627 74.6661 79.6619 74.6658Z" fill="white" stroke="white" stroke-width="2"/>
<path d="M73.3574 77.7096C73.3573 77.7096 73.3575 77.7089 73.3581 77.7077C73.3577 77.709 73.3574 77.7096 73.3574 77.7096Z" fill="white" stroke="white" stroke-width="2"/>
<path d="M68.2373 75.9665C68.2372 75.9665 68.2365 75.9662 68.2352 75.9656C68.2366 75.9661 68.2373 75.9664 68.2373 75.9665Z" fill="white" stroke="white" stroke-width="2"/>
<path d="M63.0505 70.3814C63.0505 70.3814 63.0501 70.3812 63.0492 70.3808L63.0505 70.3814Z" fill="white" stroke="white" stroke-width="2"/>
<path d="M65.1009 70.6783L65.041 58.6257" stroke="white" stroke-width="2"/>
<path d="M70.3876 76.7478L70.4258 60.287" stroke="white" stroke-width="2"/>
<path d="M76.4447 75.1365L75.8965 61.2156" stroke="white" stroke-width="2"/>
</svg>
