<svg width="229" height="229" viewBox="0 0 229 229" fill="none" xmlns="http://www.w3.org/2000/svg">
<g filter="url(#filter0_d_634_666)">
<path d="M92.9153 37.1287V62.4034H132.745V37.1287H92.9153ZM130.254 59.9128H95.4062V39.6192H130.254V59.9128Z" fill="white"/>
<path d="M92.9153 37.1287V62.4034H132.745V37.1287H92.9153ZM130.254 59.9128H95.4062V39.6192H130.254V59.9128Z" fill="white"/>
<path d="M62.1025 125.939L39.6836 137.61L58.0748 172.939L80.4937 161.268L62.1025 125.939ZM59.1341 169.58L43.043 138.669L61.0436 129.299L77.1347 160.21L59.1341 169.58Z" fill="white"/>
<path d="M169.199 127.517L148.125 161.314L169.573 174.687L190.646 140.89L169.199 127.517ZM168.777 171.256L151.557 160.519L169.995 130.948L187.215 141.686L168.777 171.256Z" fill="white"/>
<path d="M30.5374 94.3001L28.1118 93.735C27.9211 94.5534 27.742 95.3765 27.5742 96.2035L30.0144 96.699C30.1777 95.8952 30.3517 95.0957 30.5374 94.3001V94.3001ZM31.7867 89.5529L29.3967 88.8509C29.16 89.657 28.9337 90.4685 28.7198 91.2839L31.1276 91.9178C31.3369 91.1253 31.5566 90.3366 31.7867 89.5529ZM29.5623 99.1099L27.1073 98.6859C26.9646 99.5133 26.8327 100.345 26.7116 101.179L29.1763 101.536C29.2938 100.724 29.4226 99.9156 29.5623 99.1099ZM28.4344 108.86L25.9488 108.714C25.8993 109.552 25.861 110.393 25.8359 111.237L28.3249 111.312C28.3501 110.491 28.3864 109.674 28.4344 108.86ZM28.2835 114.019V113.764H25.793V114.019C25.793 114.777 25.8019 115.532 25.8204 116.285L28.311 116.223C28.2924 115.49 28.2835 114.756 28.2835 114.019V114.019ZM33.3065 84.8778L30.9617 84.0396C30.6782 84.8337 30.4047 85.6336 30.1429 86.4385L32.512 87.2082C32.7657 86.4265 33.0307 85.6494 33.3065 84.8778V84.8778ZM39.4356 71.4668L37.2676 70.2403C36.8526 70.9744 36.448 71.7151 36.0539 72.4613L38.2559 73.624C38.6388 72.8987 39.0318 72.1801 39.4356 71.4668V71.4668ZM35.0942 80.2915L32.8013 79.318C32.471 80.0954 32.1534 80.8783 31.8471 81.6662L34.1675 82.5701C34.4657 81.8051 34.774 81.0458 35.0942 80.2915V80.2915ZM41.9741 67.255L39.8773 65.9101C39.4232 66.6187 38.9772 67.3343 38.5421 68.0561L40.6745 69.3425C41.0984 68.6401 41.5316 67.9443 41.9741 67.255ZM47.7428 59.3044L45.8131 57.7298C45.2805 58.3823 44.7575 59.043 44.2435 59.7106L46.2169 61.2299C46.7162 60.5809 47.2245 59.9392 47.7428 59.3044V59.3044ZM44.7455 63.1975L42.7299 61.7351C42.2344 62.417 41.7498 63.1059 41.2736 63.8025L43.3302 65.2065C43.7928 64.5304 44.2647 63.8609 44.7455 63.1975V63.1975ZM28.4062 118.677L25.9187 118.808C25.9632 119.651 26.02 120.491 26.0881 121.329L28.5705 121.126C28.5044 120.313 28.4491 119.496 28.4062 118.677ZM37.1396 75.8155L34.9055 74.7155C34.5326 75.4721 34.1709 76.2344 33.8197 77.0026L36.0852 78.0381C36.4263 77.2916 36.7779 76.5508 37.1396 75.8155ZM44.3893 164.345L42.3625 165.793C42.8522 166.478 43.3507 167.155 43.8582 167.825L45.8429 166.32C45.3485 165.668 44.8643 165.01 44.3893 164.345V164.345ZM50.9509 55.5866L49.112 53.9067C48.5435 54.5287 47.9849 55.158 47.4345 55.7954L49.3201 57.4227C49.8547 56.803 50.3989 56.1915 50.9509 55.5866V55.5866ZM28.8042 123.57L26.3283 123.842C26.4207 124.68 26.5244 125.516 26.6397 126.348L29.1059 126.006C28.9937 125.198 28.8931 124.385 28.8042 123.57ZM47.3502 168.252L45.4093 169.813C45.9372 170.469 46.4729 171.117 47.0179 171.758L48.9152 170.144C48.3849 169.52 47.8635 168.89 47.3502 168.252V168.252ZM39.1494 156.063L36.9733 157.276C37.3829 158.01 37.8014 158.738 38.2292 159.46L40.3713 158.188C39.9547 157.486 39.5474 156.778 39.1494 156.063V156.063ZM52.1639 177.31C52.7614 177.903 53.3679 178.488 53.9826 179.064L55.6852 177.246C55.0884 176.687 54.4997 176.119 53.9184 175.543L52.1639 177.31ZM50.5308 171.989L48.6808 173.656C49.2436 174.281 49.816 174.898 50.3962 175.508L52.1994 173.79C51.6351 173.197 51.0789 172.597 50.5308 171.989V171.989ZM41.6515 160.278L39.547 161.61C39.9968 162.32 40.456 163.024 40.9244 163.72L42.9918 162.331C42.5361 161.653 42.0886 160.969 41.6515 160.278ZM36.8924 151.718L34.6517 152.805C35.018 153.561 35.3944 154.311 35.7812 155.055L37.9913 153.908C37.6153 153.184 37.2491 152.454 36.8924 151.718V151.718ZM30.4248 133.249L27.9958 133.798C28.1814 134.621 28.3802 135.44 28.5883 136.254L31.0012 135.635C30.7977 134.844 30.6059 134.049 30.4248 133.249V133.249ZM29.4753 128.43L27.0187 128.845C27.1599 129.677 27.3096 130.504 27.472 131.328L29.9158 130.848C29.7584 130.045 29.6118 129.24 29.4753 128.43ZM31.6452 138.001L29.2517 138.691C29.4853 139.501 29.729 140.307 29.9839 141.107L32.358 140.351C32.1097 139.573 31.8722 138.79 31.6452 138.001V138.001ZM33.1351 142.678L30.7857 143.504C31.0646 144.299 31.3539 145.089 31.6541 145.874L33.981 144.985C33.689 144.221 33.4078 143.452 33.1351 142.678V142.678ZM34.8865 147.255L32.587 148.212C32.9096 148.988 33.243 149.758 33.5865 150.523L35.8585 149.502C35.5243 148.758 35.201 148.01 34.8865 147.255V147.255ZM155.482 34.6215C154.732 34.2367 153.975 33.863 153.212 33.4998L152.142 35.7486C152.882 36.1018 153.618 36.465 154.348 36.8382L155.482 34.6215ZM191.982 74.3527L194.196 73.2105C193.81 72.4636 193.415 71.7233 193.009 70.9887L190.829 72.1921C191.223 72.9057 191.608 73.6259 191.982 74.3527V74.3527ZM194.103 78.7637L196.378 77.7503C196.036 76.9821 195.684 76.2201 195.319 75.4643L193.075 76.5439C193.428 77.278 193.771 78.0183 194.103 78.7637ZM189.614 70.0639L191.759 68.7999C191.333 68.075 190.895 67.3567 190.447 66.6458L188.339 67.9721C188.774 68.6629 189.199 69.3603 189.614 70.0639ZM187.006 65.9155L189.077 64.5308C188.609 63.8315 188.131 63.1391 187.645 62.4541L185.615 63.8972C186.088 64.5629 186.551 65.2359 187.006 65.9155V65.9155ZM195.971 83.2946L198.299 82.4123C198.001 81.624 197.691 80.8408 197.37 80.0633L195.067 81.0129C195.378 81.7687 195.68 82.5291 195.971 83.2946ZM184.167 61.9192L186.155 60.4184C185.648 59.7469 185.133 59.0832 184.608 58.4264L182.662 59.9806C183.173 60.6195 183.674 61.2655 184.167 61.9192ZM200.788 102.287L203.256 101.955C203.143 101.118 203.018 100.285 202.882 99.4564L200.424 99.861C200.557 100.666 200.678 101.475 200.788 102.287V102.287ZM201.309 107.17L203.792 106.974C203.725 106.133 203.648 105.295 203.559 104.461L201.083 104.725C201.169 105.536 201.244 106.352 201.309 107.17V107.17ZM181.105 58.0857L183.007 56.477C182.463 55.8345 181.911 55.1994 181.349 54.5728L179.494 56.2348C180.04 56.8444 180.577 57.461 181.105 58.0857V58.0857ZM201.554 112.074L204.045 112.018C204.025 111.174 203.995 110.333 203.953 109.495L201.465 109.619C201.506 110.434 201.536 111.253 201.554 112.074ZM197.579 87.9319L199.955 87.1834C199.702 86.3793 199.437 85.5798 199.161 84.7857L196.808 85.6022C197.075 86.3735 197.333 87.1506 197.579 87.9319V87.9319ZM199.993 97.4443L202.438 96.9709C202.277 96.1424 202.106 95.3181 201.922 94.4981L199.492 95.0419C199.67 95.8384 199.837 96.639 199.993 97.4443V97.4443ZM198.921 92.6539L201.335 92.0416C201.127 91.2239 200.91 90.4112 200.68 89.6028L198.284 90.2832C198.506 91.0688 198.72 91.859 198.921 92.6539V92.6539ZM159.917 37.0521C159.19 36.6271 158.457 36.2109 157.717 35.8051L156.52 37.9894C157.24 38.3839 157.953 38.7885 158.661 39.2023L159.917 37.0521ZM141.429 28.8888C140.627 28.6386 139.818 28.4003 139.006 28.1729L138.335 30.571C139.125 30.7919 139.909 31.024 140.688 31.2665L141.429 28.8888ZM146.222 30.5312C145.433 30.2349 144.638 29.9494 143.837 29.6756L143.03 32.0316C143.807 32.2981 144.58 32.5754 145.348 32.8628L146.222 30.5312ZM136.565 27.5273C135.751 27.3235 134.93 27.1316 134.106 26.951L133.573 29.3839C134.374 29.5592 135.17 29.746 135.962 29.9432L136.565 27.5273ZM61.7544 45.6053L60.2235 43.64C59.5594 44.1572 58.9034 44.6828 58.2551 45.2178L59.8394 47.1394C60.4703 46.6195 61.1081 46.1082 61.7544 45.6053ZM150.913 32.4443C150.141 32.1035 149.365 31.7728 148.581 31.4541L147.641 33.7605C148.401 34.0707 149.157 34.3914 149.906 34.7225L150.913 32.4443ZM179.639 52.7177C179.061 52.1066 178.472 51.5036 177.876 50.9091L176.117 52.6725C176.697 53.2503 177.268 53.8359 177.829 54.4293L179.639 52.7177ZM57.9681 48.7272L56.3319 46.8493C55.6972 47.4032 55.0714 47.9652 54.4529 48.5365L56.1424 50.3664C56.7431 49.8113 57.3512 49.2648 57.9681 48.7272V48.7272ZM172.293 45.791C171.648 45.2491 170.996 44.7157 170.337 44.1916L168.787 46.1414C169.428 46.6508 170.062 47.1695 170.689 47.6967L172.293 45.791ZM168.336 42.6471C167.662 42.1424 166.981 41.6469 166.293 41.1607L164.856 43.1948C165.525 43.6679 166.188 44.1498 166.843 44.6407L168.336 42.6471ZM176.065 49.1511C175.452 48.5736 174.832 48.0042 174.202 47.4442L172.547 49.305C173.158 49.8489 173.761 50.402 174.356 50.9636L176.065 49.1511ZM54.3651 52.0567L52.6238 50.2763C52.0223 50.865 51.4286 51.4618 50.8433 52.0664L52.6334 53.798C53.2024 53.2093 53.7795 52.6288 54.3651 52.0567V52.0567ZM55.8488 180.764C56.4797 181.322 57.1168 181.872 57.7631 182.412L59.3617 180.502C58.7336 179.977 58.1124 179.442 57.4997 178.899L55.8488 180.764ZM164.208 39.7319C163.507 39.2658 162.798 38.809 162.083 38.3622L160.763 40.4741C161.458 40.9089 162.148 41.3525 162.83 41.8059L164.208 39.7319ZM28.8606 103.97L26.3863 103.682C26.2896 104.517 26.2045 105.354 26.1318 106.196L28.6127 106.411C28.6843 105.594 28.7659 104.78 28.8606 103.97V103.97ZM166.351 183.764L167.831 185.767C168.507 185.268 169.177 184.758 169.839 184.24L168.303 182.28C167.659 182.783 167.009 183.278 166.351 183.764V183.764ZM162.325 186.565L163.691 188.648C164.394 188.187 165.09 187.717 165.78 187.237L164.358 185.193C163.688 185.659 163.01 186.116 162.325 186.565V186.565ZM158.153 189.132L159.398 191.288C160.125 190.868 160.848 190.439 161.563 189.999L160.257 187.877C159.562 188.305 158.86 188.723 158.153 189.132V189.132ZM170.212 180.739L171.803 182.657C172.451 182.119 173.09 181.573 173.722 181.018L172.079 179.146C171.465 179.686 170.843 180.218 170.212 180.739ZM173.9 177.502L175.596 179.326C176.211 178.753 176.82 178.172 177.42 177.582L175.674 175.805C175.09 176.379 174.499 176.945 173.9 177.502ZM153.842 191.457L154.963 193.681C155.714 193.303 156.459 192.915 157.197 192.517L156.015 190.325C155.296 190.712 154.572 191.089 153.842 191.457ZM130.673 199.238L131.124 201.687C131.954 201.535 132.779 201.371 133.6 201.196L133.081 198.761C132.283 198.931 131.48 199.09 130.673 199.238ZM135.473 198.215L136.063 200.635C136.883 200.435 137.697 200.225 138.508 200.003L137.851 197.601C137.063 197.816 136.27 198.021 135.473 198.215ZM177.4 174.06L179.195 175.787C179.779 175.18 180.353 174.565 180.92 173.941L179.076 172.266C178.526 172.872 177.968 173.47 177.4 174.06V174.06ZM131.632 26.4451C130.805 26.2892 129.977 26.1438 129.144 26.0103L128.75 28.4696C129.56 28.5995 130.366 28.7407 131.169 28.8927L131.632 26.4451ZM149.411 193.533L150.402 195.818C151.173 195.483 151.938 195.137 152.698 194.782L151.64 192.527C150.903 192.872 150.16 193.208 149.411 193.533V193.533ZM125.822 199.987L126.131 202.458C126.969 202.353 127.803 202.237 128.632 202.108L128.253 199.647C127.446 199.771 126.637 199.885 125.822 199.987V199.987ZM144.861 195.356L145.722 197.693C146.513 197.402 147.299 197.1 148.08 196.787L147.152 194.475C146.394 194.779 145.629 195.073 144.861 195.356ZM140.208 196.92L140.934 199.302C141.741 199.056 142.542 198.799 143.339 198.532L142.546 196.171C141.772 196.431 140.992 196.681 140.208 196.92V196.92ZM199.894 131.093L202.336 131.582C202.501 130.758 202.654 129.93 202.795 129.098L200.34 128.68C200.203 129.488 200.054 130.292 199.894 131.093V131.093ZM200.718 126.256L203.184 126.602C203.301 125.771 203.408 124.937 203.502 124.098L201.027 123.819C200.935 124.635 200.832 125.447 200.718 126.256ZM198.795 135.877L201.206 136.503C201.417 135.69 201.617 134.873 201.806 134.051L199.379 133.492C199.195 134.291 199.001 135.086 198.795 135.877V135.877ZM180.703 170.426L182.592 172.049C183.141 171.41 183.68 170.763 184.211 170.108L182.276 168.54C181.76 169.177 181.236 169.805 180.703 170.426V170.426ZM201.575 114.019C201.575 114.84 201.564 115.658 201.541 116.474L204.03 116.544C204.055 115.705 204.066 114.864 204.066 114.019H201.575ZM201.268 121.374L203.749 121.587C203.821 120.75 203.879 119.909 203.926 119.066L201.439 118.927C201.393 119.746 201.337 120.562 201.268 121.374ZM197.425 140.59L199.796 141.355C200.054 140.555 200.301 139.749 200.536 138.939L198.144 138.244C197.915 139.031 197.676 139.813 197.425 140.59ZM195.782 145.233L198.106 146.131C198.41 145.344 198.702 144.552 198.985 143.755L196.637 142.924C196.363 143.699 196.078 144.469 195.782 145.233V145.233ZM189.313 158.481L191.45 159.761C191.883 159.038 192.305 158.308 192.719 157.573L190.546 156.354C190.146 157.069 189.735 157.778 189.313 158.481ZM183.795 166.611L185.774 168.123C186.285 167.454 186.788 166.778 187.28 166.094L185.26 164.638C184.78 165.302 184.292 165.96 183.795 166.611ZM186.669 162.625L188.731 164.023C189.203 163.326 189.667 162.622 190.121 161.912L188.021 160.572C187.58 161.263 187.129 161.947 186.669 162.625V162.625ZM193.878 149.773L196.147 150.8C196.495 150.033 196.833 149.259 197.16 148.481L194.864 147.516C194.545 148.273 194.216 149.025 193.878 149.773ZM191.719 154.193L193.925 155.349C194.316 154.603 194.698 153.85 195.068 153.091L192.831 151.997C192.469 152.735 192.1 153.467 191.719 154.193ZM81.5165 196.681C82.2982 196.998 83.0854 197.303 83.8783 197.598L84.7459 195.263C83.9754 194.977 83.2111 194.68 82.4506 194.372L81.5165 196.681ZM82.0186 31.1558C81.2384 31.4661 80.4633 31.7871 79.694 32.1182L80.6784 34.4061C81.4268 34.0839 82.1807 33.7717 82.9396 33.4697L82.0186 31.1558ZM76.88 194.649C77.642 195.009 78.4098 195.359 79.1834 195.698L80.1836 193.417C79.4313 193.087 78.6844 192.747 77.9433 192.397L76.88 194.649ZM59.7234 184.007C60.384 184.529 61.0532 185.041 61.7285 185.545L63.2173 183.548C62.5597 183.058 61.9103 182.559 61.2674 182.052L59.7234 184.007ZM91.5995 27.9675C90.7857 28.1876 89.9765 28.4189 89.1712 28.6618L89.8895 31.0464C90.672 30.8108 91.4583 30.5857 92.2497 30.3722L91.5995 27.9675ZM77.3949 33.1475C76.6325 33.5021 75.8763 33.8665 75.1263 34.2417L76.2403 36.4696C76.969 36.1053 77.7043 35.7506 78.4454 35.4063L77.3949 33.1475ZM86.2652 198.446C87.0639 198.717 87.8681 198.978 88.678 199.226L89.4095 196.846C88.6239 196.603 87.8422 196.351 87.0663 196.087L86.2652 198.446ZM86.7638 29.4246C85.9635 29.6914 85.1683 29.968 84.3784 30.2566L85.2329 32.5963C85.9999 32.3162 86.7723 32.0466 87.5501 31.7879L86.7638 29.4246ZM63.7758 187.025C64.4659 187.509 65.1629 187.984 65.8668 188.449L67.2384 186.37C66.5542 185.919 65.878 185.458 65.2077 184.987L63.7758 187.025ZM64.2914 40.6548C63.599 41.1336 62.9136 41.6217 62.2364 42.1192L63.7104 44.1266C64.3688 43.6435 65.0344 43.1689 65.7075 42.7036L64.2914 40.6548ZM68.5175 37.9054C67.7993 38.3437 67.0883 38.7923 66.3836 39.2503L67.7424 41.3378C68.4259 40.8926 69.1174 40.4571 69.8145 40.0308L68.5175 37.9054ZM72.3673 192.356C73.1076 192.76 73.8541 193.152 74.6065 193.535L75.7351 191.314C75.0037 190.943 74.2781 190.561 73.5575 190.169L72.3673 192.356ZM72.8895 35.4001C72.1491 35.797 71.4138 36.2039 70.6859 36.6213L71.9233 38.7827C72.6319 38.3769 73.3463 37.9812 74.0669 37.5948L72.8895 35.4001ZM67.9957 189.812C68.7109 190.257 69.4338 190.691 70.1637 191.116L71.4154 188.963C70.7068 188.55 70.0048 188.128 69.3089 187.697L67.9957 189.812ZM101.479 25.8912C100.645 26.0177 99.815 26.1554 98.9888 26.3047L99.4313 28.7554C100.235 28.6104 101.042 28.4765 101.853 28.3531L101.479 25.8912ZM116.578 24.8975C116.029 24.8878 115.481 24.8828 114.928 24.8828L114.053 24.8871L114.077 27.3776L114.929 27.3734C115.466 27.3734 116 27.3784 116.532 27.3877L116.578 24.8975ZM111.015 203.071C111.854 203.107 112.695 203.132 113.539 203.145L113.576 200.654C112.756 200.642 111.938 200.618 111.123 200.582L111.015 203.071ZM116.032 200.658L116.064 203.148C116.907 203.137 117.748 203.115 118.585 203.081L118.484 200.592C117.669 200.625 116.852 200.647 116.032 200.658ZM120.936 200.46L121.106 202.945C121.949 202.888 122.788 202.818 123.623 202.737L123.382 200.258C122.571 200.337 121.756 200.404 120.936 200.46ZM121.622 25.1311C120.786 25.0685 119.946 25.0182 119.102 24.9787L118.987 27.467C119.806 27.5049 120.624 27.554 121.438 27.6144L121.622 25.1311ZM111.532 24.9462C110.688 24.9784 109.847 25.0217 109.01 25.0766L109.173 27.5618C109.988 27.5084 110.806 27.4666 111.626 27.4353L111.532 24.9462ZM105.979 202.712C106.814 202.795 107.653 202.866 108.495 202.927L108.671 200.442C107.853 200.384 107.038 200.314 106.225 200.233L105.979 202.712ZM96.0032 201.142C96.8247 201.32 97.6509 201.486 98.481 201.641L98.9366 199.193C98.1309 199.043 97.3287 198.881 96.5319 198.708L96.0032 201.142ZM96.5102 26.7885C95.6848 26.9622 94.8625 27.1471 94.0464 27.3432L94.6285 29.7649C95.4222 29.5742 96.2201 29.3944 97.0224 29.2257L96.5102 26.7885ZM126.645 25.6463C125.813 25.5369 124.977 25.439 124.137 25.3528L123.883 27.8306C124.698 27.9145 125.511 28.0097 126.321 28.116L126.645 25.6463ZM91.1009 199.934C91.9109 200.159 92.7258 200.372 93.5443 200.574L94.1411 198.155C93.3447 197.959 92.553 197.752 91.7654 197.534L91.1009 199.934ZM106.492 25.277C105.651 25.3559 104.815 25.4464 103.982 25.5485L104.285 28.0205C105.095 27.9215 105.909 27.8337 106.725 27.7563L106.492 25.277ZM100.969 202.069C101.799 202.199 102.633 202.319 103.47 202.426L103.787 199.955C102.973 199.851 102.163 199.735 101.357 199.608L100.969 202.069Z" fill="white"/>
<path d="M114.93 15C60.33 15 15.9102 59.4199 15.9102 114.019C15.9102 168.619 60.33 213.039 114.93 213.039C169.529 213.039 213.949 168.619 213.949 114.019C213.949 59.4195 169.529 15 114.93 15ZM114.93 210.548C61.7036 210.548 18.4003 167.246 18.4003 114.019C18.4003 60.793 61.7036 17.4906 114.93 17.4906C168.156 17.4906 211.459 60.7934 211.459 114.019C211.459 167.245 168.156 210.548 114.93 210.548Z" fill="white"/>
<path d="M141.845 58.0378L140.765 60.282C161.441 70.235 174.5 91.4851 174.034 114.419C173.974 117.394 173.689 120.375 173.188 123.281L175.643 123.704C176.165 120.676 176.462 117.569 176.525 114.469C177.01 90.563 163.398 68.4124 141.845 58.0378V58.0378Z" fill="white"/>
<path d="M85.1789 62.8142L83.8986 60.678C65.679 71.5949 54.5447 90.7745 54.1135 111.984C54.0632 114.5 54.1661 117.037 54.4198 119.526L56.8976 119.273C56.6543 116.885 56.5553 114.449 56.604 112.034C57.0179 91.6873 67.7 73.2875 85.1789 62.8142V62.8142Z" fill="white"/>
<path d="M73.3092 59.9146L73.1792 62.402L83.0664 62.9165L81.3638 72.5128L83.8157 72.9484L86.0111 60.5756L73.3092 59.9146Z" fill="white"/>
<path d="M143.988 164.491C134.914 169.577 124.61 172.16 114.127 171.941C103.982 171.735 94.0351 168.902 85.3628 163.75L84.0898 165.891C93.1312 171.263 103.501 174.216 114.076 174.431C114.493 174.439 114.909 174.443 115.325 174.443C125.8 174.443 136.106 171.764 145.205 166.664L143.988 164.491Z" fill="white"/>
<path d="M181.854 115.093L174.507 121.73L168.915 113.748L166.875 115.177L174.085 125.468L183.524 116.942L181.854 115.093Z" fill="white"/>
<path d="M93.7018 163.295L92.9963 160.907L82.9087 163.887L86.7325 174.229L89.0692 173.365L86.1682 165.521L93.7018 163.295Z" fill="white"/>
<path d="M93.3389 146.78C88.4891 149.041 82.9159 149.487 80.7355 149.428C76.4323 148.113 72.832 144.349 71.5697 142.631C70.6778 141.048 68.8084 136.907 68.4661 133.008C68.1237 129.108 70.4803 125.457 71.7014 124.119L79.609 115.357L87.4166 103.414C87.4925 102.917 88.3514 102.055 91.1799 102.581C94.0084 103.108 94.2771 105.596 94.0578 106.775L91.9847 114.199L111.687 105.012C112.562 104.911 114.642 105.018 115.955 106.251C117.268 107.484 117.174 109.526 116.964 110.393L110.497 114.331L115.246 111.655L120.348 109.737C121.03 109.881 122.682 110.587 123.833 112.264C124.984 113.941 123.975 116.195 123.326 117.113L119.537 118.88C121.659 117.89 123.301 118.047 123.856 118.25C124.521 119.016 125.84 120.922 125.8 122.417C125.759 123.912 123.475 125.346 122.339 125.876L117.465 128.034C118.749 127.899 119.323 128.312 119.459 128.603C121.923 131.513 119.996 134.042 118.724 134.942L106.221 140.772L93.3389 146.78Z" fill="#000816" stroke="black"/>
<path d="M79.6467 115.387L86.6322 104.63C87.9965 102.529 88.966 102.193 91.0883 102.578C93.3053 103.05 94.6513 104.837 94.2542 106.593L91.837 114.449" stroke="white" stroke-width="2"/>
<path d="M91.7079 114.499L111.247 105.331C113.213 104.445 115.56 105.351 116.446 107.317C117.11 108.675 116.806 110.332 115.921 111.457L118.566 110.239C120.603 109.244 122.951 110.151 124.022 112.546C124.908 114.512 124.002 116.859 122.036 117.746L121.786 117.893C123.187 117.876 124.671 118.685 125.264 120.151C126.15 122.117 125.244 124.465 123.277 125.351L117.628 127.863C118.71 128.102 119.617 128.846 120.134 129.954C121.02 131.92 120.114 134.267 118.148 135.154L88.7626 148.519L84.6646 149.302C81.1227 149.519 78.319 148.601 76.1694 147.267C76.0256 147.177 75.8847 147.086 75.7467 146.993C73.2463 145.311 71.699 143.086 70.9549 141.595L69.8182 139.158C68.8426 137.066 66.6827 130.523 71.8567 123.634C72.7799 122.688 78.7132 116.017 79.6744 115.251" stroke="white" stroke-width="2"/>
<path d="M113.441 108.683L113.427 108.652L113.412 108.622L113.059 107.956C113.014 107.841 113.029 107.778 113.033 107.765C113.036 107.758 113.038 107.754 113.042 107.75C113.047 107.745 113.063 107.729 113.104 107.712C113.227 107.661 113.306 107.674 113.337 107.685C113.354 107.691 113.367 107.699 113.38 107.711C113.392 107.722 113.412 107.745 113.432 107.79L113.469 107.873L113.52 107.947L113.873 108.464C113.879 108.503 113.874 108.545 113.854 108.594C113.828 108.662 113.776 108.73 113.707 108.783C113.62 108.807 113.562 108.797 113.536 108.788C113.519 108.782 113.506 108.774 113.494 108.763C113.481 108.751 113.461 108.728 113.441 108.683Z" fill="white" stroke="white" stroke-width="2"/>
<path d="M120.763 114.687L120.75 114.655L120.735 114.623L120.388 113.919C120.343 113.793 120.354 113.701 120.372 113.649C120.388 113.603 120.424 113.546 120.526 113.5C120.677 113.431 120.766 113.448 120.789 113.456C120.801 113.46 120.809 113.465 120.818 113.473C120.826 113.481 120.845 113.502 120.866 113.552L120.901 113.639L120.952 113.718L121.305 114.263C121.315 114.32 121.309 114.39 121.273 114.476C121.228 114.583 121.146 114.688 121.045 114.762C120.929 114.803 120.86 114.79 120.84 114.783C120.828 114.779 120.819 114.774 120.811 114.766C120.803 114.758 120.784 114.737 120.763 114.687Z" fill="white" stroke="white" stroke-width="2"/>
<path d="M121.665 122.112L121.651 122.082L121.635 122.053L121.221 121.307C121.153 121.15 121.17 121.058 121.178 121.033C121.182 121.02 121.187 121.012 121.195 121.004C121.203 120.995 121.227 120.974 121.283 120.952C121.434 120.893 121.557 120.902 121.637 120.932C121.711 120.958 121.789 121.014 121.847 121.138L121.884 121.218L121.935 121.29L122.359 121.888C122.38 121.961 122.373 122.028 122.347 122.094C122.315 122.175 122.252 122.258 122.165 122.319C122.043 122.354 121.944 122.343 121.875 122.318C121.801 122.292 121.723 122.236 121.665 122.112Z" fill="white" stroke="white" stroke-width="2"/>
<path d="M117.692 131.59L117.679 131.558L117.663 131.527L117.313 130.832C117.267 130.708 117.279 130.624 117.292 130.585C117.304 130.552 117.329 130.506 117.422 130.465L117.018 129.55L117.422 130.465C117.564 130.402 117.651 130.417 117.679 130.427C117.693 130.432 117.704 130.438 117.714 130.448C117.724 130.457 117.744 130.48 117.765 130.529L117.801 130.614L117.852 130.692L118.207 131.231C118.216 131.283 118.211 131.345 118.18 131.419C118.141 131.515 118.068 131.608 117.977 131.676C117.869 131.712 117.802 131.7 117.778 131.692C117.764 131.687 117.753 131.68 117.743 131.671C117.733 131.661 117.713 131.638 117.692 131.59Z" fill="white" stroke="white" stroke-width="2"/>
<path d="M116.825 127.976L102.051 134.955" stroke="white" stroke-width="2"/>
<path d="M121.253 118.003L101.007 127.387" stroke="white" stroke-width="2"/>
<path d="M115.804 111.484L99.0137 120.134" stroke="white" stroke-width="2"/>
<path d="M155.096 119.913C159.506 122.944 162.719 127.52 163.774 129.428C164.825 133.803 163.409 138.816 162.57 140.775C161.659 142.347 159.04 146.06 155.853 148.334C152.667 150.608 148.325 150.431 146.552 150.058L134.99 147.691L120.736 147.026C120.27 147.212 119.091 146.91 118.109 144.206C117.127 141.501 119.135 140.007 120.261 139.598L127.711 137.616L109.795 125.303C109.264 124.599 108.301 122.754 108.696 120.997C109.092 119.24 110.899 118.283 111.753 118.025L118.429 121.598L113.713 118.864L109.471 115.441C109.248 114.781 109.018 113 109.879 111.157C110.74 109.313 113.195 109.039 114.314 109.132L117.76 111.5C115.83 110.174 115.132 108.68 115.025 108.099C115.348 107.137 116.32 105.032 117.629 104.309C118.938 103.585 121.333 104.825 122.366 105.535L126.699 108.64C125.931 107.601 125.996 106.897 126.178 106.633C127.434 103.033 130.591 103.41 132.012 104.048L143.382 111.862L155.096 119.913Z" fill="#000816" stroke="black"/>
<path d="M134.996 147.644L122.182 147.085C119.68 146.975 118.898 146.31 118.152 144.287C117.434 142.137 118.29 140.07 120.005 139.521L128.001 137.616" stroke="white" stroke-width="2"/>
<path d="M128.11 137.702L110.294 125.52C108.532 124.276 108.122 121.793 109.366 120.032C110.199 118.771 111.781 118.191 113.2 118.383L110.808 116.722C108.916 115.472 108.506 112.99 110.026 110.851C111.271 109.089 113.753 108.679 115.515 109.923L115.768 110.064C115.042 108.865 114.986 107.176 115.949 105.921C117.193 104.159 119.676 103.749 121.437 104.993L126.469 108.585C126.126 107.533 126.306 106.373 126.999 105.366C128.243 103.604 130.725 103.194 132.487 104.438L158.917 122.973L161.671 126.107C163.656 129.049 164.289 131.93 164.23 134.46C164.226 134.629 164.219 134.797 164.209 134.963C164.028 137.971 162.897 140.433 161.99 141.831L160.466 144.048C159.159 145.95 154.617 151.132 146.056 150.17C144.772 149.855 136.013 148.128 134.865 147.689" stroke="white" stroke-width="2"/>
<path d="M112.068 121.928L112.048 121.955L112.031 121.984L111.635 122.626C111.56 122.723 111.497 122.742 111.484 122.745C111.477 122.747 111.472 122.746 111.466 122.745C111.46 122.744 111.438 122.738 111.402 122.711C111.296 122.631 111.267 122.557 111.261 122.524C111.257 122.507 111.258 122.491 111.261 122.474C111.265 122.458 111.274 122.429 111.303 122.389L111.356 122.316L111.394 122.234L111.661 121.667C111.691 121.642 111.729 121.625 111.782 121.617C111.853 121.606 111.939 121.616 112.019 121.648C112.085 121.711 112.105 121.766 112.11 121.793C112.114 121.81 112.114 121.826 112.11 121.842C112.106 121.859 112.097 121.888 112.068 121.928Z" fill="white" stroke="white" stroke-width="2"/>
<path d="M113.525 112.571L113.504 112.599L113.484 112.629L113.053 113.285C112.968 113.388 112.883 113.425 112.829 113.436C112.781 113.445 112.714 113.443 112.622 113.379C112.486 113.283 112.456 113.198 112.451 113.174C112.448 113.161 112.449 113.152 112.451 113.141C112.454 113.13 112.462 113.102 112.495 113.059L112.552 112.985L112.594 112.901L112.885 112.32C112.929 112.283 112.992 112.253 113.084 112.24C113.199 112.224 113.331 112.241 113.447 112.29C113.541 112.37 113.564 112.436 113.569 112.457C113.571 112.47 113.571 112.479 113.569 112.49C113.566 112.501 113.557 112.529 113.525 112.571Z" fill="white" stroke="white" stroke-width="2"/>
<path d="M119.465 108.026L119.446 108.054L119.429 108.082L118.996 108.817C118.896 108.956 118.808 108.988 118.783 108.994C118.769 108.997 118.76 108.996 118.748 108.994C118.737 108.991 118.706 108.981 118.659 108.944C118.532 108.844 118.477 108.734 118.462 108.649C118.447 108.572 118.456 108.477 118.533 108.364L118.583 108.291L118.619 108.211L118.92 107.542C118.972 107.487 119.032 107.459 119.103 107.448C119.189 107.434 119.292 107.446 119.389 107.49C119.481 107.578 119.523 107.669 119.536 107.741C119.551 107.818 119.541 107.913 119.465 108.026Z" fill="white" stroke="white" stroke-width="2"/>
<path d="M129.647 106.639L129.627 106.667L129.608 106.696L129.187 107.351C129.104 107.453 129.025 107.486 128.984 107.494C128.95 107.5 128.898 107.502 128.816 107.443L128.232 108.256L128.816 107.443C128.689 107.352 128.658 107.27 128.652 107.241C128.649 107.226 128.649 107.213 128.652 107.2C128.655 107.186 128.665 107.157 128.696 107.115L128.752 107.041L128.793 106.957L129.077 106.377C129.117 106.343 129.173 106.317 129.253 106.305C129.355 106.291 129.473 106.306 129.578 106.35C129.663 106.425 129.686 106.489 129.692 106.513C129.695 106.528 129.695 106.541 129.691 106.554C129.688 106.568 129.679 106.597 129.647 106.639Z" fill="white" stroke="white" stroke-width="2"/>
<path d="M126.974 109.22L140.486 118.408" stroke="white" stroke-width="2"/>
<path d="M116.133 110.466L134.495 123.148" stroke="white" stroke-width="2"/>
<path d="M113.283 118.471L129.257 128.547" stroke="white" stroke-width="2"/>
<path d="M95.8789 80.9838C95.8789 75.6327 97.8298 70.3931 98.8053 68.4421C101.815 65.0977 106.748 63.4255 108.839 63.0074C110.65 62.868 115.193 62.9238 118.872 64.2616C122.551 65.5993 124.864 69.2782 125.561 70.9505L130.16 81.8199L137.685 93.9435C138.103 94.2223 138.521 95.3649 136.848 97.7061C135.176 100.047 132.807 99.2389 131.832 98.5422L125.979 93.5255L125.979 115.264C125.7 116.101 124.725 117.94 123.053 118.609C121.38 119.278 119.569 118.33 118.872 117.773L118.036 110.248L118.454 115.682L118.036 121.117C117.618 121.675 116.28 122.873 114.273 123.207C112.267 123.542 110.65 121.675 110.093 120.699L110.093 116.519C110.093 118.86 109.257 120.281 108.839 120.699C107.863 120.978 105.578 121.368 104.24 120.699C102.902 120.03 102.568 117.355 102.568 116.101L102.672 110.772C102.252 111.993 101.635 112.338 101.314 112.338C97.6347 113.341 96.1576 110.526 95.8789 108.994L95.8789 95.1977L95.8789 80.9838Z" fill="#000816" stroke="black"/>
<path d="M130.117 81.8417L136.914 92.7187C138.241 94.843 138.136 95.8636 136.891 97.6246C135.526 99.4341 133.337 99.899 131.914 98.7969L125.815 93.286" stroke="white" stroke-width="2"/>
<path d="M125.824 93.1478L125.876 114.73C125.848 116.887 124.035 118.631 121.878 118.604C120.367 118.631 118.994 117.656 118.348 116.378L118.334 119.29C118.375 121.557 116.562 123.301 113.938 123.26C111.782 123.232 110.037 121.419 110.065 119.262L110.037 118.974C109.46 120.251 108.1 121.254 106.521 121.171C104.364 121.143 102.62 119.33 102.647 117.173L102.758 110.992C102.085 111.871 101.027 112.379 99.8045 112.379C97.6479 112.351 95.9035 110.538 95.9312 108.382L96.2364 76.101L97.2591 72.0563C98.5593 68.7546 100.576 66.6012 102.694 65.2171C102.835 65.1245 102.978 65.0353 103.12 64.9495C105.701 63.3942 108.372 62.9323 110.037 62.8879L112.727 62.8879C115.035 62.8876 121.878 63.6956 125.935 71.2961C126.402 72.5324 129.94 80.7292 130.229 81.9243" stroke="white" stroke-width="2"/>
<path d="M121.91 115.303L121.944 115.304L121.978 115.302L122.731 115.264C122.854 115.272 122.905 115.312 122.915 115.321C122.92 115.327 122.923 115.331 122.925 115.336C122.927 115.342 122.935 115.363 122.933 115.408C122.927 115.54 122.882 115.607 122.859 115.631C122.847 115.643 122.834 115.652 122.818 115.658C122.802 115.665 122.773 115.673 122.724 115.672L122.634 115.67L122.544 115.685L121.926 115.786C121.889 115.776 121.853 115.754 121.816 115.715C121.767 115.662 121.726 115.586 121.708 115.502C121.722 115.412 121.756 115.364 121.775 115.344C121.788 115.332 121.801 115.323 121.816 115.317C121.832 115.311 121.861 115.302 121.91 115.303Z" fill="white" stroke="white" stroke-width="2"/>
<path d="M113.375 119.402L113.41 119.404L113.445 119.403L114.23 119.387C114.363 119.399 114.442 119.447 114.481 119.486C114.516 119.52 114.552 119.577 114.551 119.688C114.549 119.855 114.496 119.927 114.479 119.946C114.47 119.955 114.463 119.96 114.452 119.964C114.442 119.968 114.414 119.977 114.36 119.974L114.266 119.97L114.173 119.983L113.53 120.072C113.474 120.057 113.414 120.022 113.351 119.953C113.272 119.867 113.212 119.749 113.187 119.626C113.199 119.503 113.241 119.446 113.255 119.431C113.264 119.421 113.272 119.416 113.283 119.412C113.293 119.408 113.321 119.399 113.375 119.402Z" fill="white" stroke="white" stroke-width="2"/>
<path d="M106.264 117.081L106.298 117.081L106.331 117.079L107.181 117.019C107.353 117.023 107.429 117.078 107.448 117.095C107.458 117.105 107.463 117.113 107.467 117.123C107.471 117.134 107.481 117.165 107.477 117.225C107.467 117.387 107.407 117.494 107.346 117.555C107.29 117.61 107.207 117.657 107.07 117.657L106.982 117.658L106.896 117.673L106.174 117.804C106.099 117.793 106.042 117.758 105.992 117.706C105.932 117.644 105.884 117.552 105.865 117.447C105.885 117.322 105.937 117.236 105.989 117.184C106.044 117.128 106.128 117.082 106.264 117.081Z" fill="white" stroke="white" stroke-width="2"/>
<path d="M99.3536 109.475L99.3883 109.476L99.423 109.475L100.201 109.451C100.332 109.462 100.403 109.508 100.433 109.537C100.458 109.561 100.489 109.604 100.487 109.705L101.487 109.725L100.487 109.705C100.484 109.861 100.433 109.933 100.413 109.954C100.403 109.965 100.392 109.972 100.379 109.977C100.366 109.983 100.337 109.991 100.284 109.989L100.192 109.986L100.1 109.999L99.4609 110.093C99.41 110.08 99.3565 110.049 99.3017 109.989C99.2318 109.913 99.1778 109.808 99.1548 109.696C99.1679 109.583 99.2075 109.528 99.2248 109.51C99.2353 109.499 99.2457 109.492 99.2586 109.487C99.2715 109.482 99.3007 109.473 99.3536 109.475Z" fill="white" stroke="white" stroke-width="2"/>
<path d="M102.995 110.216L102.914 93.877" stroke="white" stroke-width="2"/>
<path d="M110.162 118.445L110.214 96.1292" stroke="white" stroke-width="2"/>
<path d="M118.373 116.26L117.63 97.3879" stroke="white" stroke-width="2"/>
</g>
<defs>
<filter id="filter0_d_634_666" x="0.910156" y="0" width="228.039" height="228.039" filterUnits="userSpaceOnUse" color-interpolation-filters="sRGB">
<feFlood flood-opacity="0" result="BackgroundImageFix"/>
<feColorMatrix in="SourceAlpha" type="matrix" values="0 0 0 0 0 0 0 0 0 0 0 0 0 0 0 0 0 0 127 0" result="hardAlpha"/>
<feOffset/>
<feGaussianBlur stdDeviation="7.5"/>
<feComposite in2="hardAlpha" operator="out"/>
<feColorMatrix type="matrix" values="0 0 0 0 0.662745 0 0 0 0 0.803922 0 0 0 0 0.937255 0 0 0 0.7 0"/>
<feBlend mode="normal" in2="BackgroundImageFix" result="effect1_dropShadow_634_666"/>
<feBlend mode="normal" in="SourceGraphic" in2="effect1_dropShadow_634_666" result="shape"/>
</filter>
</defs>
</svg>
