<svg width="82" height="77" viewBox="0 0 82 77" fill="none" xmlns="http://www.w3.org/2000/svg">
<g filter="url(#filter0_d_862_48)">
<path d="M68.8395 12.8097C68.3798 12.4125 67.8201 12.1487 67.2211 12.047C66.6222 11.9453 66.0068 12.0094 65.4417 12.2326L14.1168 32.396C13.4459 32.6596 12.8784 33.1333 12.4991 33.7464C12.1199 34.3594 11.9494 35.0788 12.0131 35.7968C12.0768 36.5148 12.3713 37.1929 12.8525 37.7296C13.3337 38.2663 13.9758 38.6327 14.6827 38.7741L28.6138 41.5605V58.7561C28.6068 59.4176 28.7997 60.0659 29.1673 60.616C29.5349 61.1661 30.06 61.5924 30.6738 61.8391C31.0851 62.0112 31.5263 62.1005 31.9721 62.1017C32.4078 62.1003 32.8389 62.0124 33.2403 61.8432C33.6417 61.6739 34.0056 61.4266 34.3107 61.1156L42.2632 53.163L53.9971 63.4889C54.6017 64.0259 55.3821 64.3229 56.1908 64.3238C56.5423 64.3233 56.8916 64.2679 57.226 64.1595C57.7776 63.9846 58.2736 63.6681 58.6646 63.2416C59.0556 62.8152 59.328 62.2937 59.4545 61.7291L69.9148 16.0841C70.0514 15.4922 70.0233 14.8741 69.8338 14.2969C69.6443 13.7198 69.3004 13.2054 68.8395 12.8097ZM14.2291 35.6001C14.2015 35.3598 14.2557 35.1172 14.3829 34.9115C14.5102 34.7058 14.7031 34.549 14.9305 34.4666L61.9777 15.9836L29.4682 39.4626L15.119 36.5927C14.8806 36.5515 14.6631 36.4311 14.5017 36.251C14.3402 36.0709 14.2442 35.8416 14.2291 35.6001ZM32.7374 59.5426C32.5819 59.6982 32.3837 59.8041 32.1679 59.847C31.9521 59.89 31.7285 59.8679 31.5252 59.7837C31.322 59.6996 31.1482 59.557 31.026 59.3741C30.9038 59.1912 30.8385 58.9761 30.8385 58.7561V43.1092L40.5898 51.6904L32.7374 59.5426ZM67.7462 15.5871L57.2859 61.2321C57.2429 61.4199 57.1517 61.5933 57.0215 61.7353C56.8913 61.8774 56.7264 61.9831 56.543 62.0423C56.3596 62.1014 56.164 62.1119 55.9753 62.0727C55.7867 62.0335 55.6114 61.946 55.4667 61.8187L31.5074 40.7343L67.5664 14.6919C67.6613 14.8182 67.7267 14.9642 67.7578 15.1191C67.7889 15.2741 67.785 15.434 67.7462 15.5871Z" fill="white"/>
</g>
<defs>
<filter id="filter0_d_862_48" x="0" y="0" width="82" height="76.3242" filterUnits="userSpaceOnUse" color-interpolation-filters="sRGB">
<feFlood flood-opacity="0" result="BackgroundImageFix"/>
<feColorMatrix in="SourceAlpha" type="matrix" values="0 0 0 0 0 0 0 0 0 0 0 0 0 0 0 0 0 0 127 0" result="hardAlpha"/>
<feOffset/>
<feGaussianBlur stdDeviation="6"/>
<feColorMatrix type="matrix" values="0 0 0 0 0.662745 0 0 0 0 0.803922 0 0 0 0 0.937255 0 0 0 0.7 0"/>
<feBlend mode="normal" in2="BackgroundImageFix" result="effect1_dropShadow_862_48"/>
<feBlend mode="normal" in="SourceGraphic" in2="effect1_dropShadow_862_48" result="shape"/>
</filter>
</defs>
</svg>
