<svg width="52" height="48" viewBox="0 0 52 48" fill="none" xmlns="http://www.w3.org/2000/svg">
<path d="M50.9595 1.00182C50.5474 0.645699 50.0456 0.409212 49.5086 0.318003C48.9716 0.226794 48.4199 0.284344 47.9133 0.484412L1.89786 18.562C1.29633 18.7983 0.787488 19.223 0.447485 19.7726C0.107481 20.3222 -0.045404 20.9672 0.0117073 21.6109C0.0688187 22.2547 0.332855 22.8626 0.764306 23.3438C1.19576 23.825 1.77142 24.1535 2.40516 24.2802L14.8951 26.7784V42.1951C14.8889 42.7883 15.0618 43.3694 15.3914 43.8626C15.7209 44.3558 16.1917 44.738 16.7421 44.9592C17.1108 45.1136 17.5063 45.1936 17.906 45.1946C18.2966 45.1934 18.6831 45.1146 19.043 44.9629C19.4029 44.8111 19.7291 44.5894 20.0027 44.3105L27.1325 37.1807L37.6526 46.4384C38.1947 46.9198 38.8943 47.1861 39.6193 47.1868C39.9345 47.1865 40.2477 47.1368 40.5475 47.0395C41.042 46.8827 41.4866 46.599 41.8372 46.2167C42.1878 45.8343 42.432 45.3668 42.5454 44.8606L51.9236 3.93752C52.046 3.40679 52.0209 2.85268 51.851 2.33521C51.6811 1.81774 51.3728 1.35662 50.9595 1.00182ZM1.99854 21.4346C1.97373 21.2192 2.02231 21.0017 2.13641 20.8172C2.25052 20.6328 2.42348 20.4923 2.62735 20.4183L44.8076 3.84737L15.6611 24.8975L2.79632 22.3246C2.58262 22.2876 2.38763 22.1796 2.24286 22.0181C2.0981 21.8567 2.01202 21.6511 1.99854 21.4346ZM18.5922 42.9003C18.4527 43.0397 18.275 43.1347 18.0816 43.1732C17.8881 43.2117 17.6876 43.192 17.5054 43.1165C17.3231 43.041 17.1674 42.9132 17.0578 42.7492C16.9482 42.5852 16.8897 42.3924 16.8897 42.1951V28.1669L25.6322 35.8604L18.5922 42.9003ZM49.9794 3.49194L40.6012 44.415C40.5626 44.5834 40.4809 44.7389 40.3641 44.8662C40.2474 44.9935 40.0995 45.0883 39.9351 45.1414C39.7707 45.1944 39.5953 45.2038 39.4262 45.1686C39.257 45.1335 39.0999 45.055 38.9702 44.9409L17.4894 26.0377L49.8182 2.6893C49.9032 2.80258 49.9619 2.93347 49.9898 3.07235C50.0176 3.21124 50.0141 3.3546 49.9794 3.49194Z" fill="white"/>
</svg>
