<svg width="51" height="51" viewBox="0 0 51 51" fill="none" xmlns="http://www.w3.org/2000/svg">
<path d="M25.759 2C38.8813 2 49.518 12.6367 49.5172 25.759C49.518 38.8821 38.8806 49.5195 25.7582 49.518C12.6352 49.5188 1.99924 38.8821 2 25.7598C1.99771 12.6367 12.6352 2 25.759 2V2Z" stroke="white" stroke-width="2.02877" stroke-miterlimit="10"/>
<path d="M25.7588 2.0874V49.4328" stroke="white" stroke-width="2.02877" stroke-miterlimit="10"/>
<path d="M49.4314 25.7593H2.08594" stroke="white" stroke-width="2.02877" stroke-miterlimit="10"/>
<path d="M24.2309 2.0874C24.2309 2.0874 13.54 10.4874 13.54 25.7601C13.54 41.0328 24.2309 49.4328 24.2309 49.4328" stroke="white" stroke-width="2.02877" stroke-miterlimit="10"/>
<path d="M27.2852 2.0874C27.2852 2.0874 37.9761 10.4874 37.9761 25.7601C37.9761 41.0328 27.2852 49.4328 27.2852 49.4328" stroke="white" stroke-width="2.02877" stroke-miterlimit="10"/>
<path d="M7.43066 10.4868C7.43066 10.4868 11.2488 18.1232 25.7579 18.1232C40.267 18.1232 44.0852 10.4868 44.0852 10.4868" stroke="white" stroke-width="2.02877" stroke-miterlimit="10"/>
<path d="M7.43066 41.0324C7.43066 41.0324 11.2488 33.396 25.7579 33.396C40.267 33.396 44.0852 41.0324 44.0852 41.0324" stroke="white" stroke-width="2.02877" stroke-miterlimit="10"/>
</svg>
